	.include "MPlayDef.s"

	.section .rodata

	@********************** Track  1 **********************@

	.align 2
	.global song041_1
song041_1:	@ 0x08284CE8
	.byte	KEYSH	, 0
	.byte	TEMPO	, 85
	.byte	VOICE	, 127
	.byte	VOL	, v080
	.byte	PAN	, c_v
	.byte	W03
	.byte	TEMPO	, 85
	.byte		N11	, Gs7, v127
	.byte	W12
	.byte			Gn3, v120
	.byte	W11
	.byte		N12	, Gs3
	.byte	W13
	.byte		N06	, An3
	.byte	W12
	.byte			Gs7, v127
	.byte	W12
	.byte		N06	
	.byte	W06
	.byte		N05	, Dn4, v120
	.byte	W06
	.byte		N11	, Ds4
	.byte	W12
	.byte		N05	
	.byte	W12
song041_1_1:
	.byte		N11	, Gs7, v127
	.byte	W12
	.byte			Gn3, v120
	.byte	W11
	.byte		N12	, Gs3
	.byte	W13
	.byte		N06	, An3
	.byte	W12
	.byte			Gs7, v127
	.byte	W12
	.byte		N06	
	.byte	W12
	.byte		N10	, Ds4, v120
	.byte	W12
	.byte		N11	, Gs3
	.byte	W12
	.byte	PEND
song041_1_2:
	.byte		N11	, Gs7, v127
	.byte	W12
	.byte			Gn3, v120
	.byte	W11
	.byte		N12	, Gs3
	.byte	W13
	.byte		N06	, An3
	.byte	W12
	.byte			Gs7, v127
	.byte	W12
	.byte		N06	
	.byte	W06
	.byte		N05	, Dn4, v120
	.byte	W06
	.byte		N11	, Ds4
	.byte	W12
	.byte		N05	, Fn4
	.byte	W12
	.byte	PEND
song041_1_4:
	.byte		N11	, Gs7, v127
	.byte	W12
	.byte			Gn3, v120
	.byte	W11
	.byte		N12	, Gs3
	.byte	W13
	.byte		N06	, An3
	.byte	W06
	.byte		N05	, As3
	.byte	W06
	.byte		N06	, Bn3
	.byte	W06
	.byte		N05	, Cn4
	.byte	W06
	.byte		N06	, Gs7, v127
	.byte	W06
	.byte		N05	, Dn4, v120
	.byte	W06
	.byte		N06	, Ds4
	.byte	W06
	.byte			En4
	.byte	W06
	.byte		N05	, Fn4
	.byte	W06
	.byte			Fs4
	.byte	W06
	.byte	PEND
song041_1_3:
	.byte		N11	, Gs7, v127
	.byte	W12
	.byte			Gn3, v120
	.byte	W11
	.byte		N12	, Gs3
	.byte	W13
	.byte		N06	, An3
	.byte	W12
	.byte			Gs7, v127
	.byte	W12
	.byte		N06	
	.byte	W06
	.byte		N05	, Dn4, v120
	.byte	W06
	.byte		N11	, Ds4
	.byte	W12
	.byte		N05	
	.byte	W12
	.byte	PEND
	.byte	PATT	
		.word	song041_1_1
	.byte	PATT	
		.word	song041_1_2
song041_1_5:
	.byte		N11	, Gs7, v127
	.byte	W12
	.byte		N24	, Gs3, v120
	.byte	W24
	.byte		N06	, Gs7, v127
	.byte	W12
	.byte		N09	
	.byte	W12
	.byte		N12	, Ds4, v120
	.byte	W12
	.byte		N11	, Gs7, v127
	.byte	W11
	.byte			Ds4, v120
	.byte	W13
	.byte	PEND
	.byte	PATT	
		.word	song041_1_3
	.byte	PATT	
		.word	song041_1_1
	.byte	PATT	
		.word	song041_1_2
	.byte	PATT	
		.word	song041_1_4
	.byte	PATT	
		.word	song041_1_3
	.byte	PATT	
		.word	song041_1_1
	.byte	PATT	
		.word	song041_1_2
	.byte	PATT	
		.word	song041_1_5
	.byte	PATT	
		.word	song041_1_3
	.byte	PATT	
		.word	song041_1_1
	.byte	PATT	
		.word	song041_1_2
	.byte	PATT	
		.word	song041_1_4
	.byte	PATT	
		.word	song041_1_3
	.byte	PATT	
		.word	song041_1_1
	.byte	PATT	
		.word	song041_1_2
	.byte	PATT	
		.word	song041_1_5
	.byte	PATT	
		.word	song041_1_3
	.byte	PATT	
		.word	song041_1_1
	.byte	PATT	
		.word	song041_1_2
	.byte	PATT	
		.word	song041_1_4
	.byte	PATT	
		.word	song041_1_3
	.byte	PATT	
		.word	song041_1_1
	.byte	PATT	
		.word	song041_1_2
	.byte	PATT	
		.word	song041_1_5
	.byte	PATT	
		.word	song041_1_3
	.byte	PATT	
		.word	song041_1_1
	.byte	PATT	
		.word	song041_1_2
	.byte	PATT	
		.word	song041_1_4
	.byte	PATT	
		.word	song041_1_3
	.byte	PATT	
		.word	song041_1_1
	.byte	PATT	
		.word	song041_1_2
	.byte	PATT	
		.word	song041_1_5
	.byte	PATT	
		.word	song041_1_3
	.byte	PATT	
		.word	song041_1_1
	.byte	PATT	
		.word	song041_1_2
	.byte	PATT	
		.word	song041_1_4
	.byte	PATT	
		.word	song041_1_3
	.byte	PATT	
		.word	song041_1_1
	.byte	PATT	
		.word	song041_1_2
	.byte	PATT	
		.word	song041_1_5
	.byte	PATT	
		.word	song041_1_3
	.byte	PATT	
		.word	song041_1_1
	.byte	PATT	
		.word	song041_1_2
	.byte	PATT	
		.word	song041_1_4
	.byte	PATT	
		.word	song041_1_3
	.byte	PATT	
		.word	song041_1_1
	.byte	PATT	
		.word	song041_1_2
	.byte	PATT	
		.word	song041_1_5
	.byte	PATT	
		.word	song041_1_3
	.byte	PATT	
		.word	song041_1_1
	.byte	PATT	
		.word	song041_1_2
	.byte	PATT	
		.word	song041_1_4
	.byte	PATT	
		.word	song041_1_3
	.byte	PATT	
		.word	song041_1_1
	.byte	PATT	
		.word	song041_1_2
	.byte	PATT	
		.word	song041_1_5
	.byte	PATT	
		.word	song041_1_3
	.byte	PATT	
		.word	song041_1_1
	.byte	PATT	
		.word	song041_1_2
	.byte	PATT	
		.word	song041_1_4
	.byte	PATT	
		.word	song041_1_3
	.byte	PATT	
		.word	song041_1_1
	.byte	PATT	
		.word	song041_1_2
	.byte	PATT	
		.word	song041_1_5
	.byte	PATT	
		.word	song041_1_3
	.byte	GOTO	
		.word	song041_1_1
	.byte		N11	, Gs7, v127
	.byte	W12
	.byte			Gn3, v120
	.byte	W11
	.byte		N12	, Gs3
	.byte	W13
	.byte		N06	, An3
	.byte	W12
	.byte			Gs7, v127
	.byte	W12
	.byte		N06	
	.byte	W12
	.byte		N10	, Ds4, v120
	.byte	W12
	.byte		N11	, Gs3
	.byte	W11
	.byte	FINE

	@********************** Track  2 **********************@

	.global song041_2
song041_2:	@ 0x08284F14
	.byte	KEYSH	, 0
	.byte	VOICE	, 60
	.byte	VOL	, v060
	.byte	PAN	, c_v+16
	.byte	W03
song041_2_1:
	.byte		N03	, Fs7, v012
	.byte	W24
	.byte		N03	
	.byte	W24
	.byte		N03	
	.byte	W24
	.byte		N03	
	.byte	W24
	.byte	PEND
song041_2_2:
	.byte	PATT	
		.word	song041_2_1
	.byte	PATT	
		.word	song041_2_1
	.byte	PATT	
		.word	song041_2_1
	.byte	PATT	
		.word	song041_2_1
	.byte	PATT	
		.word	song041_2_1
	.byte	PATT	
		.word	song041_2_1
	.byte	PATT	
		.word	song041_2_1
	.byte	PATT	
		.word	song041_2_1
	.byte	PATT	
		.word	song041_2_1
	.byte	PATT	
		.word	song041_2_1
	.byte	PATT	
		.word	song041_2_1
	.byte	PATT	
		.word	song041_2_1
	.byte	PATT	
		.word	song041_2_1
	.byte	PATT	
		.word	song041_2_1
	.byte	PATT	
		.word	song041_2_1
	.byte	PATT	
		.word	song041_2_1
	.byte	PATT	
		.word	song041_2_1
	.byte	PATT	
		.word	song041_2_1
	.byte	PATT	
		.word	song041_2_1
	.byte	PATT	
		.word	song041_2_1
	.byte	PATT	
		.word	song041_2_1
	.byte	PATT	
		.word	song041_2_1
	.byte	PATT	
		.word	song041_2_1
	.byte	PATT	
		.word	song041_2_1
	.byte	PATT	
		.word	song041_2_1
	.byte	PATT	
		.word	song041_2_1
	.byte	PATT	
		.word	song041_2_1
	.byte	PATT	
		.word	song041_2_1
	.byte	PATT	
		.word	song041_2_1
	.byte	PATT	
		.word	song041_2_1
	.byte	PATT	
		.word	song041_2_1
	.byte	PATT	
		.word	song041_2_1
	.byte	PATT	
		.word	song041_2_1
	.byte	PATT	
		.word	song041_2_1
	.byte	PATT	
		.word	song041_2_1
	.byte	PATT	
		.word	song041_2_1
	.byte	PATT	
		.word	song041_2_1
	.byte	PATT	
		.word	song041_2_1
	.byte	PATT	
		.word	song041_2_1
	.byte	PATT	
		.word	song041_2_1
	.byte	PATT	
		.word	song041_2_1
	.byte	PATT	
		.word	song041_2_1
	.byte	PATT	
		.word	song041_2_1
	.byte	PATT	
		.word	song041_2_1
	.byte	PATT	
		.word	song041_2_1
	.byte	PATT	
		.word	song041_2_1
	.byte	PATT	
		.word	song041_2_1
	.byte	PATT	
		.word	song041_2_1
	.byte	PATT	
		.word	song041_2_1
	.byte	PATT	
		.word	song041_2_1
	.byte	PATT	
		.word	song041_2_1
	.byte	PATT	
		.word	song041_2_1
	.byte	PATT	
		.word	song041_2_1
	.byte	PATT	
		.word	song041_2_1
	.byte	PATT	
		.word	song041_2_1
	.byte	PATT	
		.word	song041_2_1
	.byte	PATT	
		.word	song041_2_1
	.byte	PATT	
		.word	song041_2_1
	.byte	PATT	
		.word	song041_2_1
	.byte	PATT	
		.word	song041_2_1
	.byte	PATT	
		.word	song041_2_1
	.byte	PATT	
		.word	song041_2_1
	.byte	PATT	
		.word	song041_2_1
	.byte	PATT	
		.word	song041_2_1
	.byte	PATT	
		.word	song041_2_1
	.byte	PATT	
		.word	song041_2_1
	.byte	PATT	
		.word	song041_2_1
	.byte	PATT	
		.word	song041_2_1
	.byte	PATT	
		.word	song041_2_1
	.byte	PATT	
		.word	song041_2_1
	.byte	PATT	
		.word	song041_2_1
	.byte	PATT	
		.word	song041_2_1
	.byte	GOTO	
		.word	song041_2_2
	.byte		N03	, Fs7, v012
	.byte	W24
	.byte		N03	
	.byte	W24
	.byte		N03	
	.byte	W24
	.byte		N03	
	.byte	W03
	.byte	FINE

	@********************** Track  3 **********************@

	.global song041_3
song041_3:	@ 0x082850A0
	.byte	KEYSH	, 0
	.byte	VOICE	, 127
	.byte	VOL	, v083
	.byte	PAN	, c_v
	.byte	W03
song041_3_1:
	.byte		N01	, Ds7, v116
	.byte	W12
	.byte		N11	
	.byte	W12
	.byte		N02	
	.byte	W12
	.byte		N11	
	.byte	W12
	.byte		N01	
	.byte	W07
	.byte		N03	
	.byte	W05
	.byte		N06	
	.byte	W07
	.byte		N02	
	.byte	W12
	.byte		N01	
	.byte	W05
	.byte		N06	
	.byte		N08	, As7, v072
	.byte	W07
	.byte		N02	, Ds7, v116
	.byte	W05
	.byte	PEND
song041_3_3:
	.byte	PATT	
		.word	song041_3_1
	.byte	PATT	
		.word	song041_3_1
	.byte	PATT	
		.word	song041_3_1
	.byte	PATT	
		.word	song041_3_1
	.byte	PATT	
		.word	song041_3_1
	.byte	PATT	
		.word	song041_3_1
	.byte	PATT	
		.word	song041_3_1
	.byte	PATT	
		.word	song041_3_1
	.byte	PATT	
		.word	song041_3_1
	.byte	PATT	
		.word	song041_3_1
	.byte	PATT	
		.word	song041_3_1
	.byte	PATT	
		.word	song041_3_1
	.byte	PATT	
		.word	song041_3_1
	.byte	PATT	
		.word	song041_3_1
	.byte	PATT	
		.word	song041_3_1
	.byte	PATT	
		.word	song041_3_1
	.byte	PATT	
		.word	song041_3_1
	.byte	PATT	
		.word	song041_3_1
	.byte	PATT	
		.word	song041_3_1
	.byte	PATT	
		.word	song041_3_1
	.byte	PATT	
		.word	song041_3_1
	.byte	PATT	
		.word	song041_3_1
	.byte	PATT	
		.word	song041_3_1
	.byte	PATT	
		.word	song041_3_1
	.byte	PATT	
		.word	song041_3_1
	.byte	PATT	
		.word	song041_3_1
	.byte	PATT	
		.word	song041_3_1
	.byte	PATT	
		.word	song041_3_1
	.byte	PATT	
		.word	song041_3_1
	.byte	PATT	
		.word	song041_3_1
	.byte	PATT	
		.word	song041_3_1
	.byte	PATT	
		.word	song041_3_1
	.byte	PATT	
		.word	song041_3_1
	.byte	PATT	
		.word	song041_3_1
	.byte	PATT	
		.word	song041_3_1
	.byte	PATT	
		.word	song041_3_1
	.byte	PATT	
		.word	song041_3_1
	.byte	PATT	
		.word	song041_3_1
	.byte	PATT	
		.word	song041_3_1
	.byte	PATT	
		.word	song041_3_1
	.byte	PATT	
		.word	song041_3_1
	.byte	PATT	
		.word	song041_3_1
	.byte	PATT	
		.word	song041_3_1
	.byte	PATT	
		.word	song041_3_1
	.byte	PATT	
		.word	song041_3_1
	.byte	PATT	
		.word	song041_3_1
	.byte	PATT	
		.word	song041_3_1
	.byte	PATT	
		.word	song041_3_1
	.byte	PATT	
		.word	song041_3_1
	.byte	PATT	
		.word	song041_3_1
	.byte	PATT	
		.word	song041_3_1
	.byte	PATT	
		.word	song041_3_1
	.byte	PATT	
		.word	song041_3_1
	.byte	PATT	
		.word	song041_3_1
	.byte	PATT	
		.word	song041_3_1
song041_3_2:
	.byte		N01	, Ds7, v116
	.byte	W12
	.byte		N11	
	.byte	W12
	.byte		N02	
	.byte	W12
	.byte		N11	
	.byte	W12
	.byte		N01	
	.byte	W07
	.byte		N03	
	.byte	W05
	.byte		N06	
	.byte	W07
	.byte		N02	
	.byte	W12
	.byte		N01	
	.byte	W05
	.byte		N06	
	.byte	W07
	.byte		N02	
	.byte	W05
	.byte	PEND
	.byte	PATT	
		.word	song041_3_2
	.byte	PATT	
		.word	song041_3_2
	.byte	PATT	
		.word	song041_3_2
	.byte	PATT	
		.word	song041_3_2
	.byte	PATT	
		.word	song041_3_2
	.byte	PATT	
		.word	song041_3_2
	.byte	PATT	
		.word	song041_3_2
	.byte	PATT	
		.word	song041_3_2
	.byte	PATT	
		.word	song041_3_2
	.byte	PATT	
		.word	song041_3_2
	.byte	PATT	
		.word	song041_3_2
	.byte	PATT	
		.word	song041_3_2
	.byte	PATT	
		.word	song041_3_2
	.byte	PATT	
		.word	song041_3_2
	.byte	PATT	
		.word	song041_3_2
	.byte	PATT	
		.word	song041_3_1
	.byte	GOTO	
		.word	song041_3_3
	.byte		N01	, Ds7, v116
	.byte	W12
	.byte		N11	
	.byte	W12
	.byte		N02	
	.byte	W12
	.byte		N11	
	.byte	W12
	.byte		N01	
	.byte	W07
	.byte		N03	
	.byte	W05
	.byte		N06	
	.byte	W07
	.byte		N02	
	.byte	W12
	.byte		N01	
	.byte	W05
	.byte		N06	
	.byte		N08	, As7, v072
	.byte	W07
	.byte		N02	, Ds7, v116
	.byte	W02
	.byte	FINE

	@********************** Track  4 **********************@

	.global song041_4
song041_4:	@ 0x08285266
	.byte	KEYSH	, 0
	.byte	VOICE	, 46
	.byte	VOL	, v076
	.byte	PAN	, c_v-6
	.byte	W03
song041_4_19:
	.byte	W01
	.byte		N06	, Fs1, v112
	.byte	W12
	.byte		N12	
	.byte	W12
	.byte			An1
	.byte	W12
	.byte			Bn1
	.byte	W12
	.byte		N11	, Cs2
	.byte	W12
	.byte		N12	, An1
	.byte	W12
	.byte			Fs1
	.byte	W12
	.byte		N22	, En1
	.byte	W11
	.byte	PEND
song041_4_1:
	.byte	W13
	.byte		N12	, En1, v112
	.byte	W12
	.byte			Fs1
	.byte	W12
	.byte			An1
	.byte	W12
	.byte			Bn1
	.byte	W12
	.byte			An1
	.byte	W12
	.byte			Fs1
	.byte	W12
	.byte			En1
	.byte	W11
	.byte	PEND
song041_4_20:
	.byte	W01
	.byte		N05	, Fs1, v112
	.byte	W12
	.byte		N13	
	.byte	W12
	.byte		N12	, An1
	.byte	W12
	.byte			Bn1
	.byte	W12
	.byte			Cs2
	.byte	W12
	.byte			An1
	.byte	W12
	.byte		N15	, Fs1
	.byte	W12
	.byte		N22	, En1
	.byte	W11
	.byte	PEND
song041_4_21:
	.byte	W13
	.byte		N14	, En1, v112
	.byte	W12
	.byte		N12	, Fs1
	.byte	W12
	.byte			An1
	.byte	W12
	.byte			Bn1
	.byte	W12
	.byte			Cs2
	.byte	W12
	.byte			En2
	.byte	W12
	.byte			Cs2
	.byte	W11
	.byte	PEND
song041_4_22:
	.byte	W01
	.byte		N06	, Fs1, v112
	.byte	W12
	.byte		N12	
	.byte	W12
	.byte			An1
	.byte	W12
	.byte			Bn1
	.byte	W12
	.byte			Cs2
	.byte	W12
	.byte			An1
	.byte	W12
	.byte			Fs1
	.byte	W12
	.byte		N21	, En1
	.byte	W11
	.byte	PEND
	.byte	PATT	
		.word	song041_4_1
song041_4_23:
	.byte	W01
	.byte		N05	, Fs1, v112
	.byte	W12
	.byte		N12	
	.byte	W12
	.byte			An1
	.byte	W12
	.byte			Bn1
	.byte	W12
	.byte			Cs2
	.byte	W12
	.byte			An1
	.byte	W12
	.byte			Fs1
	.byte	W12
	.byte		N19	, En1
	.byte	W11
	.byte	PEND
song041_4_24:
	.byte	W13
	.byte		N12	, En1, v112
	.byte	W12
	.byte			Fs1
	.byte	W12
	.byte			An1
	.byte	W12
	.byte			Bn1
	.byte	W12
	.byte			Cs2
	.byte	W12
	.byte			En2
	.byte	W12
	.byte			Cs2
	.byte	W11
	.byte	PEND
song041_4_11:
	.byte	W01
	.byte		N24	, Fs1, v112
	.byte	W24
	.byte		N12	, An1
	.byte	W12
	.byte			Bn1
	.byte	W12
	.byte			Cs2
	.byte	W12
	.byte			Bn1
	.byte	W12
	.byte			An1
	.byte	W12
	.byte		N28	, Fs1
	.byte	W11
	.byte	PEND
song041_4_2:
	.byte	W13
	.byte		N12	, Fs2, v112
	.byte	W12
	.byte			Bn1
	.byte	W12
	.byte		N18	, Fs1
	.byte	W24
	.byte		N12	
	.byte	W12
	.byte			An1
	.byte	W12
	.byte			Bn1
	.byte	W11
	.byte	PEND
song041_4_3:
	.byte	W01
	.byte		N23	, Fn1, v112
	.byte	W24
	.byte		N12	, Gs1
	.byte	W12
	.byte			Bn1
	.byte	W12
	.byte			Cs2
	.byte	W12
	.byte			Bn1
	.byte	W12
	.byte			Gs1
	.byte	W12
	.byte		N24	, Fn2
	.byte	W11
	.byte	PEND
song041_4_4:
	.byte	W13
	.byte		N12	, Cs2, v112
	.byte	W12
	.byte			Bn1
	.byte	W12
	.byte		N24	, Fn1
	.byte	W24
	.byte		N12	, Gs1
	.byte	W12
	.byte			Bn1
	.byte	W12
	.byte			Cs2
	.byte	W11
	.byte	PEND
song041_4_12:
	.byte	W01
	.byte		N24	, An1, v112
	.byte	W24
	.byte		N12	, Cs2
	.byte	W12
	.byte			En2
	.byte	W12
	.byte			Fs2
	.byte	W12
	.byte			En2
	.byte	W12
	.byte			Cs2
	.byte	W12
	.byte		N24	, An2
	.byte	W11
	.byte	PEND
song041_4_5:
	.byte	W13
	.byte		N12	, Fs2, v112
	.byte	W12
	.byte			En2
	.byte	W12
	.byte		N20	, An1
	.byte	W24
	.byte		N12	
	.byte	W12
	.byte			Cs2
	.byte	W12
	.byte			En2
	.byte	W11
	.byte	PEND
song041_4_6:
	.byte	W01
	.byte		N24	, Dn2, v112
	.byte	W24
	.byte		N12	, Fs2
	.byte	W12
	.byte			An2
	.byte	W12
	.byte			Bn2
	.byte	W12
	.byte			An2
	.byte	W12
	.byte			Fs2
	.byte	W12
	.byte		N24	, Cs3
	.byte	W11
	.byte	PEND
song041_4_7:
	.byte	W13
	.byte		N12	, Bn2, v112
	.byte	W12
	.byte			An2
	.byte	W12
	.byte		N24	, Fn2
	.byte	W24
	.byte		N12	, Dn2
	.byte	W12
	.byte			Cs2
	.byte	W12
	.byte			An1
	.byte	W11
	.byte	PEND
song041_4_13:
	.byte	W01
	.byte		N24	, Fs1, v112
	.byte	W24
	.byte		N12	, An1
	.byte	W12
	.byte			Bn1
	.byte	W12
	.byte			Cs2
	.byte	W12
	.byte			Bn1
	.byte	W12
	.byte			An1
	.byte	W12
	.byte		N24	, Fs1
	.byte	W11
	.byte	PEND
	.byte	PATT	
		.word	song041_4_2
	.byte	PATT	
		.word	song041_4_3
	.byte	PATT	
		.word	song041_4_4
song041_4_14:
	.byte	W01
	.byte		N24	, An1, v112
	.byte	W24
	.byte		N12	, Cs2
	.byte	W12
	.byte			En2
	.byte	W12
	.byte			Fs2
	.byte	W12
	.byte			En2
	.byte	W12
	.byte			Cs2
	.byte	W12
	.byte		N28	, An2
	.byte	W11
	.byte	PEND
	.byte	PATT	
		.word	song041_4_5
	.byte	PATT	
		.word	song041_4_6
	.byte	PATT	
		.word	song041_4_7
song041_4_8:
	.byte	W02
	.byte		N12	, Fs2, v112
	.byte	W11
	.byte		N08	, Fs1
	.byte	W24
	.byte		N03	
	.byte	W13
	.byte		N13	, Fs2
	.byte	W13
	.byte		N08	, Fs1
	.byte	W23
	.byte		N05	
	.byte	W10
	.byte	PEND
song041_4_9:
	.byte	W04
	.byte		N13	, En2, v112
	.byte	W11
	.byte		N09	, En1
	.byte	W24
	.byte		N05	
	.byte	W11
	.byte		N13	, Gn1
	.byte	W14
	.byte		N03	, En1
	.byte	W10
	.byte		N13	, An1
	.byte	W12
	.byte		N07	, Gn1
	.byte	W10
	.byte	PEND
	.byte	PATT	
		.word	song041_4_8
song041_4_10:
	.byte	W01
	.byte		N13	, An2, v112
	.byte	W12
	.byte		N12	, Gs1
	.byte	W12
	.byte		N11	, Fs2
	.byte	W12
	.byte		N10	, En1
	.byte	W12
	.byte		N12	
	.byte	W12
	.byte		N11	, En2
	.byte	W12
	.byte		N12	, Bn1
	.byte	W12
	.byte			En1
	.byte	W11
	.byte	PEND
	.byte	PATT	
		.word	song041_4_8
	.byte	PATT	
		.word	song041_4_9
	.byte	PATT	
		.word	song041_4_8
	.byte	PATT	
		.word	song041_4_10
	.byte	PATT	
		.word	song041_4_11
	.byte	PATT	
		.word	song041_4_2
	.byte	PATT	
		.word	song041_4_3
	.byte	PATT	
		.word	song041_4_4
	.byte	PATT	
		.word	song041_4_12
	.byte	PATT	
		.word	song041_4_5
	.byte	PATT	
		.word	song041_4_6
	.byte	PATT	
		.word	song041_4_7
	.byte	PATT	
		.word	song041_4_13
	.byte	PATT	
		.word	song041_4_2
	.byte	PATT	
		.word	song041_4_3
	.byte	PATT	
		.word	song041_4_4
	.byte	PATT	
		.word	song041_4_14
	.byte	PATT	
		.word	song041_4_5
	.byte	PATT	
		.word	song041_4_6
	.byte	PATT	
		.word	song041_4_7
	.byte	W13
	.byte		N08	, Fs1, v112
	.byte	W24
	.byte		N03	
	.byte	W12
	.byte		N13	, Gs2
	.byte	W12
	.byte		N08	, Gs1
	.byte	W24
	.byte		N05	
	.byte	W11
song041_4_16:
	.byte	W01
	.byte		N13	, An2, v112
	.byte	W12
	.byte		N09	, An1
	.byte	W12
	.byte		N05	
	.byte	W12
	.byte		N24	, Bn1
	.byte	W24
	.byte		N03	, Gs1
	.byte	W12
	.byte		N12	, Cs2
	.byte	W12
	.byte		N08	, Bn1
	.byte	W11
	.byte	PEND
song041_4_15:
	.byte	W01
	.byte		N12	, Fs2, v112
	.byte	W12
	.byte		N08	, Fs1
	.byte	W24
	.byte		N03	
	.byte	W12
	.byte		N13	, Gs2
	.byte	W12
	.byte		N08	, Gs1
	.byte	W24
	.byte		N05	
	.byte	W11
	.byte	PEND
	.byte	PATT	
		.word	song041_4_10
	.byte	PATT	
		.word	song041_4_15
	.byte	PATT	
		.word	song041_4_16
	.byte	PATT	
		.word	song041_4_15
	.byte	PATT	
		.word	song041_4_10
	.byte	W01
	.byte		N06	, Fs2, v112
	.byte	W12
	.byte		N12	
	.byte	W12
	.byte			An2
	.byte	W12
	.byte			Bn2
	.byte	W12
	.byte		N11	, Cs3
	.byte	W12
	.byte		N12	, An2
	.byte	W12
	.byte			Fs2
	.byte	W12
	.byte		N22	, En2
	.byte	W11
	.byte	W13
	.byte		N14	
	.byte	W12
	.byte		N12	, Fs2
	.byte	W12
	.byte			An2
	.byte	W12
	.byte			Bn2
	.byte	W12
	.byte			Cs3
	.byte	W12
	.byte			En3
	.byte	W12
	.byte			Cs3
	.byte	W11
song041_4_17:
	.byte	W01
	.byte		N05	, Fs2, v112
	.byte	W12
	.byte		N12	
	.byte	W12
	.byte			An2
	.byte	W12
	.byte			Bn2
	.byte	W12
	.byte			Cs3
	.byte	W12
	.byte			An2
	.byte	W12
	.byte			Fs2
	.byte	W12
	.byte		N19	, En2
	.byte	W11
	.byte	PEND
song041_4_18:
	.byte	W13
	.byte		N12	, Cs2, v112
	.byte	W12
	.byte			Bn1
	.byte	W12
	.byte			An1
	.byte	W12
	.byte			Fs1
	.byte	W12
	.byte			En1
	.byte	W12
	.byte			An1
	.byte	W12
	.byte			Bn1
	.byte	W11
	.byte	PEND
	.byte	W01
	.byte		N06	, Fs2
	.byte	W12
	.byte		N12	
	.byte	W12
	.byte			An2
	.byte	W12
	.byte			Bn2
	.byte	W12
	.byte			Cs3
	.byte	W12
	.byte			An2
	.byte	W12
	.byte			Fs2
	.byte	W12
	.byte		N21	, En2
	.byte	W11
	.byte	W13
	.byte		N12	
	.byte	W12
	.byte			Cs2
	.byte	W12
	.byte			An1
	.byte	W12
	.byte			Bn1
	.byte	W12
	.byte			Cs2
	.byte	W12
	.byte			En2
	.byte	W12
	.byte			Cs2
	.byte	W11
	.byte	PATT	
		.word	song041_4_17
	.byte	PATT	
		.word	song041_4_18
	.byte	PATT	
		.word	song041_4_19
	.byte	PATT	
		.word	song041_4_1
	.byte	PATT	
		.word	song041_4_20
	.byte	PATT	
		.word	song041_4_21
	.byte	PATT	
		.word	song041_4_22
	.byte	PATT	
		.word	song041_4_1
	.byte	PATT	
		.word	song041_4_23
	.byte	PATT	
		.word	song041_4_24
	.byte	PATT	
		.word	song041_4_19
	.byte	GOTO	
		.word	song041_4_1
	.byte	PATT	
		.word	song041_4_1
	.byte	W01
	.byte	FINE

	@********************** Track  5 **********************@

	.global song041_5
song041_5:	@ 0x0828558F
	.byte	KEYSH	, 0
	.byte	VOICE	, 63
	.byte	VOL	, v083
	.byte	PAN	, c_v-7
	.byte	W03
	.byte	W96
song041_5_1:
	.byte	W96
	.byte	W96
	.byte	W96
	.byte	W96
	.byte	W96
	.byte	W96
	.byte	W96
	.byte	W96
	.byte	W96
	.byte	W96
	.byte	W96
	.byte	W96
	.byte	W96
	.byte	W96
	.byte	W96
	.byte	W96
	.byte	W96
	.byte	W96
	.byte	W96
	.byte	W96
	.byte	W96
	.byte	W96
	.byte	W96
	.byte	W96
	.byte	W96
	.byte	W96
	.byte	W96
	.byte	W96
	.byte	W96
	.byte	W96
	.byte	W96
	.byte	W96
	.byte	W96
	.byte	W96
	.byte	W96
	.byte	W96
	.byte	W96
	.byte	W96
	.byte	W96
	.byte	W96
	.byte	W96
	.byte	W96
	.byte	W96
	.byte	W96
	.byte	W96
	.byte	W96
	.byte	W96
	.byte		N03	, Fn4, v072
	.byte	W03
	.byte		N56	, Fs4, v080
	.byte	W56
	.byte	W01
	.byte		N06	, En4
	.byte	W06
	.byte		N17	, Fn4
	.byte	W18
	.byte		N12	, An3, v072
	.byte	W12
	.byte		N60	, En4, v076
	.byte	W60
	.byte		N03	, Dn4, v080
	.byte	W03
	.byte		N21	, Ds4, v076
	.byte	W21
	.byte		N12	, Gs3, v064
	.byte	W12
	.byte		N60	, Cs4, v080
	.byte	W60
	.byte		N03	, Bn3, v084
	.byte	W03
	.byte		N21	, Cn4, v080
	.byte	W21
	.byte		N12	, Gs3, v084
	.byte	W12
	.byte		N60	, Bn3, v076
	.byte	W60
	.byte		N06	, Cs4
	.byte	W07
	.byte		N07	, Dn4, v084
	.byte	W07
	.byte		N06	, En4, v060
	.byte	W05
	.byte		N05	, Fs4, v088
	.byte	W05
	.byte		N12	, An4, v092
	.byte	W12
	.byte		N72	, Bn4
	.byte	W72
	.byte		N12	, Cs5, v072
	.byte	W12
	.byte			An4, v088
	.byte	W12
	.byte		N48	, Bn4, v092
	.byte	W60
	.byte		N04	, Bn4, v080
	.byte	W06
	.byte		N06	, Cn5, v068
	.byte	W06
	.byte			Bn4, v072
	.byte	W06
	.byte			An4, v084
	.byte	W06
	.byte		N12	, En4, v088
	.byte	W12
	.byte		N03	, En5, v064
	.byte	W03
	.byte		N56	, Fs5, v076
	.byte	W56
	.byte	W01
	.byte		N03	, Dn5, v068
	.byte	W03
	.byte		N18	, En5
	.byte	W21
	.byte		N11	, An4, v072
	.byte	W12
	.byte			Bn5, v080
	.byte	W12
	.byte		N64	, An5, v088
	.byte	W60
	.byte	W03
	.byte		N03	, Gn5, v040
	.byte	W02
	.byte			Fn5, v056
	.byte	W01
	.byte			Ds5, v064
	.byte	W02
	.byte			Dn5, v056
	.byte	W01
	.byte			Cn5, v068
	.byte	W01
	.byte			As4, v060
	.byte	W02
	.byte			An4, v052
	.byte	W02
	.byte			Gn4, v032
	.byte	W01
	.byte			Fn4, v052
	.byte	W03
	.byte			Ds4, v004
	.byte	W06
	.byte	W96
	.byte	W96
	.byte	W96
	.byte	W96
	.byte	W96
	.byte	W96
	.byte	W96
	.byte	W96
	.byte	W96
	.byte	W96
	.byte	W96
	.byte	W96
	.byte	W96
	.byte	W96
	.byte	W96
	.byte	W96
	.byte	W96
	.byte	GOTO	
		.word	song041_5_1
	.byte	FINE

	@********************** Track  6 **********************@

	.global song041_6
song041_6:	@ 0x08285684
	.byte	KEYSH	, 0
	.byte	VOICE	, 65
	.byte	VOL	, v083
	.byte	PAN	, c_v+16
	.byte	W03
	.byte	W96
song041_6_12:
	.byte	W96
	.byte	W96
	.byte	W96
	.byte	W96
	.byte	W96
	.byte	W96
	.byte	W96
	.byte		N16	, Cn4, v116
	.byte		N16	, Cn5
	.byte	W24
	.byte		N18	, Cn4, v112
	.byte		N18	, Cn5
	.byte	W24
	.byte		N11	, As3
	.byte		N11	, As4
	.byte	W12
	.byte		N15	, Cn4
	.byte		N15	, Cn5
	.byte	W24
	.byte		N24	, Ds4
	.byte		N24	, Ds5
	.byte	W12
	.byte	W12
	.byte		N12	, Dn4
	.byte		N12	, Dn5
	.byte	W12
	.byte		N11	, Cn4
	.byte		N11	, Cn5
	.byte	W12
	.byte			As3
	.byte		N11	, As4
	.byte	W12
	.byte		N23	, Cn4
	.byte		N23	, Cn5
	.byte	W24
	.byte			Fn3
	.byte		N23	, Fn4
	.byte	W24
	.byte		N15	, Dn4
	.byte		N15	, Dn5
	.byte	W24
	.byte		N16	, Bn3
	.byte		N16	, Bn4
	.byte	W24
	.byte		N11	, Gn3
	.byte		N11	, Gn4
	.byte	W12
	.byte		N16	, Fn3
	.byte		N16	, Fn4
	.byte	W24
	.byte		N22	, Dn4
	.byte		N22	, Dn5
	.byte	W12
song041_6_1:
	.byte	W12
	.byte		N05	, Gn3, v112
	.byte		N05	, Gn4
	.byte	W12
	.byte		N10	, Gn3
	.byte		N10	, Gn4
	.byte	W12
	.byte		N11	, Fn3
	.byte		N11	, Fn4
	.byte	W12
	.byte			Gn3
	.byte		N11	, Gn4
	.byte	W12
	.byte		N24	, As3
	.byte		N24	, As4
	.byte	W36
	.byte	PEND
	.byte		N16	, Cn4
	.byte		N16	, Cn5
	.byte	W24
	.byte		N18	, Cn4
	.byte		N18	, Cn5
	.byte	W24
	.byte		N11	, As3
	.byte		N11	, As4
	.byte	W12
	.byte		N15	, Cn4
	.byte		N15	, Cn5
	.byte	W24
	.byte		N23	, Ds4
	.byte		N23	, Ds5
	.byte	W12
	.byte	W12
	.byte		N11	, Dn4
	.byte		N11	, Dn5
	.byte	W12
	.byte		N10	, Cn4
	.byte		N10	, Cn5
	.byte	W12
	.byte		N11	, As3
	.byte		N11	, As4
	.byte	W12
	.byte		N23	, Cn4
	.byte		N23	, Cn5
	.byte	W24
	.byte			Fn3
	.byte		N23	, Fn4
	.byte	W24
	.byte		N15	, Ds4
	.byte		N15	, Ds5
	.byte	W24
	.byte		N16	, Cn4
	.byte		N16	, Cn5
	.byte	W24
	.byte		N11	, Gn3
	.byte		N11	, Gn4
	.byte	W12
	.byte		N16	, Fn3
	.byte		N16	, Fn4
	.byte	W24
	.byte		N22	, Dn4
	.byte		N22	, Dn5
	.byte	W12
	.byte	PATT	
		.word	song041_6_1
song041_6_2:
	.byte		N16	, Cn5, v112
	.byte		N16	, Cn6
	.byte	W24
	.byte		N18	, Cn5
	.byte		N18	, Cn6
	.byte	W24
	.byte		N11	, As4
	.byte		N11	, As5
	.byte	W12
	.byte		N15	, Cn5
	.byte		N15	, Cn6
	.byte	W24
	.byte		N23	, Ds5
	.byte		N23	, Ds6
	.byte	W12
	.byte	PEND
song041_6_3:
	.byte	W12
	.byte		N11	, Dn5, v112
	.byte		N11	, Dn6
	.byte	W12
	.byte		N10	, Cn5
	.byte		N10	, Cn6
	.byte	W12
	.byte		N11	, As4
	.byte		N11	, As5
	.byte	W12
	.byte		N23	, Cn5
	.byte		N23	, Cn6
	.byte	W24
	.byte			Fn4
	.byte		N23	, Fn5
	.byte	W24
	.byte	PEND
	.byte		N15	, Dn5
	.byte		N15	, Dn6
	.byte	W24
	.byte		N16	, Bn4
	.byte		N16	, Bn5
	.byte	W24
	.byte		N11	, Gn4
	.byte		N11	, Gn5
	.byte	W12
	.byte		N16	, Fn4
	.byte		N16	, Fn5
	.byte	W24
	.byte		N22	, Dn5
	.byte		N22	, Dn6
	.byte	W12
	.byte	W12
	.byte		N05	, Gn4
	.byte		N05	, Gn5
	.byte	W12
	.byte		N10	, Gn4
	.byte		N10	, Gn5
	.byte	W12
	.byte		N11	, Fn4
	.byte		N11	, Fn5
	.byte	W12
	.byte			Gn4
	.byte		N11	, Gn5
	.byte	W12
	.byte		N24	, As4
	.byte		N24	, As5
	.byte	W36
	.byte	PATT	
		.word	song041_6_2
	.byte	PATT	
		.word	song041_6_3
	.byte		N15	, Ds5, v112
	.byte		N15	, Ds6
	.byte	W24
	.byte		N16	, Cn5
	.byte		N16	, Cn6
	.byte	W24
	.byte		N11	, Gn4
	.byte		N11	, Gn5
	.byte	W12
	.byte		N16	, Fn4
	.byte		N16	, Fn5
	.byte	W24
	.byte		N22	, Ds5
	.byte		N22	, Ds6
	.byte	W12
	.byte	W12
	.byte		N05	, Dn5
	.byte		N05	, Dn6
	.byte	W12
	.byte		N10	, Cn5
	.byte		N10	, Cn6
	.byte	W12
	.byte		N11	, As4
	.byte		N11	, As5
	.byte	W12
	.byte			Cn5
	.byte		N11	, Cn6
	.byte	W12
	.byte		N24	, Ds5
	.byte		N24	, Ds6
	.byte	W23
	.byte		N02	, Dn5, v080
	.byte		N02	, Dn6
	.byte	W01
	.byte		N03	, Cs5, v052
	.byte		N03	, Cs6
	.byte	W02
	.byte			Bn4, v060
	.byte		N03	, Bn5
	.byte	W03
	.byte			An4, v056
	.byte		N03	, An5
	.byte	W02
	.byte			Gn4, v064
	.byte		N03	, Gn5
	.byte	W02
	.byte		N02	, Fn4, v060
	.byte		N02	, Fn5
	.byte	W03
	.byte		N68	, Gn4, v112
	.byte		N68	, Gn5, v052
	.byte	W72
	.byte		N12	, Cn5, v112
	.byte		N12	, Cn6, v052
	.byte	W12
	.byte		N60	, Fn4, v112
	.byte		N60	, Fn5, v052
	.byte	W12
song041_6_4:
	.byte	W48
	.byte		N12	, As3, v112
	.byte		N12	, As4, v052
	.byte	W12
	.byte			Cn4, v112
	.byte		N12	, Cn5, v052
	.byte	W12
	.byte			Ds4, v112
	.byte		N12	, Ds5, v052
	.byte	W12
	.byte		N11	, As3, v112
	.byte		N11	, As4, v052
	.byte	W12
	.byte	PEND
song041_6_5:
	.byte		N68	, Gn4, v112
	.byte		N68	, Gn5, v052
	.byte	W68
	.byte	W01
	.byte		N03	, En4, v112
	.byte		N03	, En5, v052
	.byte	W03
	.byte		N12	, Fn4, v112
	.byte		N12	, Fn5, v052
	.byte	W12
	.byte		N11	, Cn4, v112
	.byte		N11	, Cn5, v052
	.byte	W12
	.byte	PEND
	.byte		N48	, Ds4, v112
	.byte		N48	, Ds5, v052
	.byte	W48
	.byte		N12	, As3, v112
	.byte		N12	, As4, v052
	.byte	W12
	.byte			Cn4, v112
	.byte		N12	, Cn5, v052
	.byte	W12
	.byte			Ds4, v112
	.byte		N12	, Ds5, v052
	.byte	W12
	.byte		N11	, Fn4, v112
	.byte		N11	, Fn5, v052
	.byte	W12
	.byte		N68	, Gn4, v112
	.byte		N68	, Gn5, v052
	.byte	W72
	.byte		N12	, Cn5, v112
	.byte		N12	, Cn6, v052
	.byte	W12
	.byte		N56	, Fn4, v112
	.byte		N56	, Fn5, v052
	.byte	W12
	.byte	PATT	
		.word	song041_6_4
	.byte	PATT	
		.word	song041_6_5
	.byte		N48	, Ds4, v112
	.byte		N44	, Ds5, v052
	.byte	W48
	.byte		N12	, As3, v112
	.byte		N12	, As4, v052
	.byte	W12
	.byte			Cn4, v112
	.byte		N12	, Cn5, v052
	.byte	W12
	.byte			Ds4, v112
	.byte		N12	, Ds5, v052
	.byte	W12
	.byte		N11	, Fn4, v112
	.byte		N11	, Fn5, v052
	.byte	W12
song041_6_6:
	.byte		N68	, Gn4, v116
	.byte	W68
	.byte	W01
	.byte		N03	, Bn4
	.byte	W03
	.byte		N12	, Cn5
	.byte	W12
	.byte		N68	, Ds5
	.byte	W12
	.byte	PEND
song041_6_7:
	.byte	W56
	.byte	W01
	.byte		N03	, Gn4, v116
	.byte	W03
	.byte		N24	, Gs4
	.byte	W24
	.byte		N12	, Gn4
	.byte	W12
	.byte	PEND
song041_6_8:
	.byte		N84	, Fs4, v116
	.byte	W84
	.byte		N72	, Dn5
	.byte	W12
	.byte	PEND
song041_6_9:
	.byte	W60
	.byte		N24	, Cn5, v116
	.byte	W24
	.byte		N12	, Dn5
	.byte	W12
	.byte	PEND
song041_6_10:
	.byte		N18	, Ds5, v116
	.byte	W18
	.byte			Fn5
	.byte	W18
	.byte		N12	, Cn5
	.byte	W12
	.byte		N80	, Ds5
	.byte	W48
	.byte	PEND
song041_6_11:
	.byte	W32
	.byte	W01
	.byte		N03	, Cn5, v116
	.byte	W03
	.byte		N24	, Dn5
	.byte	W24
	.byte			Cn5
	.byte	W24
	.byte		N12	, As4
	.byte	W12
	.byte	PEND
	.byte		N72	, Gn4
	.byte	W72
	.byte		N12	, Fn4
	.byte	W12
	.byte		N48	, Gn4
	.byte	W12
	.byte	W48
	.byte		N12	, As3
	.byte	W12
	.byte			Cn4
	.byte	W12
	.byte			Ds4
	.byte	W12
	.byte			Fn4
	.byte	W12
	.byte	PATT	
		.word	song041_6_6
	.byte	PATT	
		.word	song041_6_7
	.byte	PATT	
		.word	song041_6_8
	.byte	PATT	
		.word	song041_6_9
	.byte	PATT	
		.word	song041_6_10
	.byte	PATT	
		.word	song041_6_11
	.byte		N72	, Gn4, v116
	.byte	W72
	.byte		N12	, Fn4
	.byte	W12
	.byte		N96	, Gn4
	.byte	W12
	.byte	W96
	.byte	W96
	.byte	W96
	.byte	W96
	.byte	W96
	.byte	W96
	.byte	W96
	.byte	W96
	.byte	W96
	.byte	W96
	.byte	W96
	.byte	W96
	.byte	W96
	.byte	W96
	.byte	W96
	.byte	W96
	.byte	W96
	.byte	W96
	.byte	W96
	.byte	W96
	.byte	W96
	.byte	W96
	.byte	W96
	.byte	W96
	.byte	W96
	.byte	W96
	.byte	GOTO	
		.word	song041_6_12
	.byte	FINE

	@********************** Track  7 **********************@

	.global song041_7
song041_7:	@ 0x08285966
	.byte	KEYSH	, 0
	.byte	VOICE	, 69
	.byte	VOL	, v070
	.byte	PAN	, c_v+46
	.byte	W03
song041_7_1:
	.byte		N08	, Cs4, v124
	.byte	W24
	.byte		N09	, Cs4, v116
	.byte	W24
	.byte		N12	, Bn3, v108
	.byte	W12
	.byte		N09	, Cs4, v116
	.byte	W36
	.byte	PEND
song041_7_2:
	.byte		N09	, Fs4, v112
	.byte	W24
	.byte		N12	, Fs4, v104
	.byte	W12
	.byte		N09	, En4, v100
	.byte	W24
	.byte		N11	, En4, v108
	.byte	W12
	.byte			Cs4, v116
	.byte	W12
	.byte			Bn3, v100
	.byte	W12
	.byte	PEND
song041_7_3:
	.byte		N09	, Cs4, v116
	.byte	W24
	.byte			Cs4, v112
	.byte	W24
	.byte		N14	, Bn3, v108
	.byte	W12
	.byte		N09	, Cs4, v112
	.byte	W36
	.byte	PEND
song041_7_4:
	.byte		N10	, Fs4, v108
	.byte	W24
	.byte		N12	
	.byte	W12
	.byte		N09	, En4, v104
	.byte	W24
	.byte		N11	, An4, v108
	.byte	W12
	.byte		N05	, Bn4, v116
	.byte	W12
	.byte		N04	, Bn4, v112
	.byte	W12
	.byte	PEND
	.byte	PATT	
		.word	song041_7_1
	.byte	PATT	
		.word	song041_7_2
	.byte	PATT	
		.word	song041_7_3
	.byte	PATT	
		.word	song041_7_4
	.byte	W96
	.byte	W96
	.byte	W96
	.byte	W96
	.byte	W96
	.byte	W96
	.byte	W96
	.byte	W96
	.byte	W96
	.byte	W96
	.byte	W96
	.byte	W96
	.byte	W96
	.byte	W96
	.byte	W96
	.byte	W96
	.byte	PATT	
		.word	song041_7_1
	.byte	PATT	
		.word	song041_7_2
	.byte	PATT	
		.word	song041_7_3
	.byte	PATT	
		.word	song041_7_4
	.byte	PATT	
		.word	song041_7_1
	.byte	PATT	
		.word	song041_7_2
	.byte	PATT	
		.word	song041_7_3
	.byte	PATT	
		.word	song041_7_4
	.byte	W96
	.byte	W96
	.byte	W96
	.byte	W96
	.byte	W96
	.byte	W96
	.byte	W96
	.byte	W96
	.byte	W96
	.byte	W96
	.byte	W96
	.byte	W96
	.byte	W96
	.byte	W96
	.byte	W96
	.byte	W96
song041_7_5:
	.byte		N08	, Cs4, v124
	.byte	W24
	.byte		N09	, Cs4, v116
	.byte	W24
	.byte		N12	, Cs4, v108
	.byte	W12
	.byte		N09	, Ds4, v116
	.byte	W36
	.byte	PEND
song041_7_7:
	.byte		N09	, En4, v112
	.byte	W24
	.byte		N12	, En4, v104
	.byte	W12
	.byte		N09	, Fs4, v100
	.byte	W24
	.byte		N11	, En4, v108
	.byte	W12
	.byte			Cs4, v116
	.byte	W12
	.byte			Bn3, v100
	.byte	W12
	.byte	PEND
	.byte		N09	, Cs4, v116
	.byte	W24
	.byte			Cs4, v112
	.byte	W24
	.byte		N14	, Cs4, v108
	.byte	W12
	.byte		N09	, Ds4, v112
	.byte	W36
song041_7_6:
	.byte		N10	, En4, v108
	.byte	W24
	.byte		N12	, Bn4
	.byte	W12
	.byte		N09	, En4, v104
	.byte	W24
	.byte		N11	, An4, v108
	.byte	W12
	.byte		N05	, Bn4, v116
	.byte	W12
	.byte		N06	, Bn4, v112
	.byte	W12
	.byte	PEND
	.byte	PATT	
		.word	song041_7_5
	.byte		N09	, En4, v112
	.byte	W24
	.byte		N12	, En4, v104
	.byte	W12
	.byte		N09	, Fs4, v100
	.byte	W24
	.byte		N11	, Fs4, v108
	.byte	W12
	.byte			An4, v116
	.byte	W12
	.byte			Bn4, v100
	.byte	W12
	.byte		N09	, Cs4, v116
	.byte	W24
	.byte			Cs4, v112
	.byte	W24
	.byte		N14	, Ds4, v108
	.byte	W12
	.byte		N09	, En4, v112
	.byte	W36
	.byte	PATT	
		.word	song041_7_6
song041_7_8:
	.byte		N08	, Cs4, v124
	.byte	W24
	.byte		N09	, Cs4, v116
	.byte	W24
	.byte		N11	, Ds4, v108
	.byte	W12
	.byte		N09	, Ds4, v116
	.byte	W36
	.byte	PEND
	.byte	PATT	
		.word	song041_7_7
	.byte	PATT	
		.word	song041_7_8
song041_7_9:
	.byte		N10	, En4, v108
	.byte	W24
	.byte		N12	
	.byte	W12
	.byte		N09	, Bn4, v104
	.byte	W24
	.byte		N11	, En4, v108
	.byte	W12
	.byte		N05	, Bn4, v116
	.byte	W12
	.byte		N06	, Bn4, v112
	.byte	W12
	.byte	PEND
	.byte	PATT	
		.word	song041_7_8
	.byte	PATT	
		.word	song041_7_7
	.byte	PATT	
		.word	song041_7_8
	.byte	PATT	
		.word	song041_7_9
	.byte	PATT	
		.word	song041_7_8
	.byte	PATT	
		.word	song041_7_7
	.byte	PATT	
		.word	song041_7_8
	.byte	PATT	
		.word	song041_7_9
	.byte	PATT	
		.word	song041_7_8
	.byte	PATT	
		.word	song041_7_7
	.byte	PATT	
		.word	song041_7_8
	.byte	PATT	
		.word	song041_7_9
	.byte		N22	, Cs4, v112
	.byte	W24
	.byte		N22	
	.byte	W36
	.byte		N12	
	.byte	W12
	.byte		N22	, Cn4, v104
	.byte	W24
	.byte	GOTO	
		.word	song041_7_2
	.byte		N22	, Bn3, v104
	.byte	W24
	.byte		N22	
	.byte	W36
	.byte		N12	, Bn3, v112
	.byte	W12
	.byte		N24	, Cn4, v108
	.byte	W24
	.byte	FINE

	@********************** Track  8 **********************@

	.global song041_8
song041_8:	@ 0x08285B26
	.byte	KEYSH	, 0
	.byte	VOICE	, 91
	.byte	VOL	, v073
	.byte	PAN	, c_v+46
	.byte	W03
	.byte	W96
song041_8_1:
	.byte	W96
	.byte	W96
	.byte	W96
	.byte	W96
	.byte	W96
	.byte	W96
	.byte	W96
	.byte		TIE	, An2, v060
	.byte		TIE	, Cs3
	.byte	W96
	.byte	W54
	.byte		EOT	
	.byte	W06
	.byte		N07	
	.byte	W06
	.byte		N18	, Dn3
	.byte	W18
	.byte		N12	, Cs3
	.byte	W12
	.byte		EOT	, An2
	.byte		TIE	, Gs2
	.byte		TIE	, Cn3
	.byte	W96
	.byte	W92
	.byte	W02
	.byte		EOT	, Gs2
	.byte			Cn3
	.byte	W02
	.byte		TIE	, Gn2
	.byte		TIE	, Bn2
	.byte	W96
	.byte	W56
	.byte	W03
	.byte		EOT	, Gn2
	.byte			Bn2
	.byte	W01
	.byte		N32	, Gn2
	.byte		N06	, Cn3
	.byte	W06
	.byte		N18	, Cs3
	.byte	W18
	.byte		N12	, Bn2
	.byte	W12
	.byte		N92	, Fs2
	.byte		N92	, An2
	.byte	W96
	.byte			Fn2
	.byte		N92	, An2
	.byte	W96
	.byte		TIE	, An3
	.byte		TIE	, Cs4
	.byte	W96
	.byte	W54
	.byte		EOT	
	.byte	W06
	.byte		N07	
	.byte	W06
	.byte		N18	, Dn4
	.byte	W18
	.byte		N12	, Cs4
	.byte	W12
	.byte		EOT	, An3
	.byte		TIE	, Gs3
	.byte		TIE	, Cn4
	.byte	W96
	.byte	W92
	.byte	W02
	.byte		EOT	, Gs3
	.byte			Cn4
	.byte	W02
	.byte		TIE	, Gn3
	.byte		TIE	, Bn3
	.byte	W96
	.byte	W56
	.byte	W03
	.byte		EOT	, Gn3
	.byte			Bn3
	.byte	W01
	.byte		N32	, Gn3
	.byte		N06	, Cn4
	.byte	W06
	.byte		N18	, Cs4
	.byte	W18
	.byte		N12	, Bn3
	.byte	W12
	.byte		N92	, Fs3
	.byte		N92	, An3
	.byte	W96
	.byte			Fn3
	.byte		N92	, Bn3
	.byte	W96
	.byte	W96
	.byte	W96
	.byte	W96
	.byte	W96
	.byte	W96
	.byte	W96
	.byte	W96
	.byte	W96
	.byte	W96
	.byte	W96
	.byte	W96
	.byte	W96
	.byte	W96
	.byte	W96
	.byte	W96
	.byte	W96
	.byte	W96
	.byte	W96
	.byte	W96
	.byte	W96
	.byte	W96
	.byte	W96
	.byte	W96
	.byte	W96
	.byte	W96
	.byte	W96
	.byte	W96
	.byte	W96
	.byte	W96
	.byte	W96
	.byte	W96
	.byte	W96
	.byte	W96
	.byte	W96
	.byte	W96
	.byte	W96
	.byte	W96
	.byte	W96
	.byte	W96
	.byte	W96
	.byte	W96
	.byte	W96
	.byte	W96
	.byte	W96
	.byte	W96
	.byte	W96
	.byte	W96
	.byte	W96
	.byte	W96
	.byte	GOTO	
		.word	song041_8_1
	.byte	FINE

	@********************** Track  9 **********************@

	.global song041_9
song041_9:	@ 0x08285BE7
	.byte	KEYSH	, 0
	.byte	VOICE	, 90
	.byte	VOL	, v085
	.byte	PAN	, c_v-4
	.byte	W03
	.byte	W96
song041_9_6:
	.byte	W96
	.byte	W96
	.byte	W96
	.byte	W96
	.byte	W96
	.byte	W96
	.byte	W96
	.byte	W96
	.byte	W96
	.byte	W96
	.byte	W96
	.byte	W96
	.byte	W96
	.byte	W96
	.byte	W96
	.byte	W96
	.byte	W96
	.byte	W96
	.byte	W96
	.byte	W96
	.byte	W96
	.byte	W96
	.byte	W96
	.byte	W96
	.byte	W96
	.byte	W96
	.byte	W96
	.byte	W96
	.byte	W96
	.byte	W96
	.byte	W96
	.byte	W96
	.byte	W96
	.byte	W96
	.byte	W96
	.byte	W96
	.byte	W96
	.byte	W96
	.byte	W96
	.byte	W96
	.byte	W96
	.byte	W96
	.byte	W96
	.byte	W96
	.byte	W96
	.byte	W96
	.byte	W96
	.byte	W96
	.byte	W96
	.byte	W96
	.byte	W96
	.byte	W96
	.byte	W96
	.byte	W96
	.byte	W96
song041_9_1:
	.byte		N12	, Cs3, v092
	.byte		N12	, Fs3
	.byte	W24
	.byte			Cs3
	.byte		N12	, Fs3
	.byte	W24
	.byte			Ds3
	.byte		N12	, Gs3
	.byte	W24
	.byte			Ds3
	.byte		N12	, Gs3
	.byte	W24
	.byte	PEND
song041_9_2:
	.byte		N12	, En3, v092
	.byte		N12	, An3
	.byte	W24
	.byte			En3
	.byte		N12	, An3
	.byte	W12
	.byte			Fs3
	.byte		N12	, Bn3
	.byte	W24
	.byte			Fs3
	.byte		N12	, Bn3
	.byte	W24
	.byte			Fs3
	.byte		N12	, Bn3
	.byte	W12
	.byte	PEND
	.byte	PATT	
		.word	song041_9_1
song041_9_3:
	.byte		N12	, En3, v092
	.byte		N12	, An3
	.byte	W12
	.byte			Ds3
	.byte		N12	, Gs3
	.byte	W12
	.byte			Cs3
	.byte		N12	, Fs3
	.byte	W12
	.byte			Bn2
	.byte		N12	, En3
	.byte	W24
	.byte			Bn2
	.byte		N12	, En3
	.byte	W24
	.byte			Bn2
	.byte		N12	, En3
	.byte	W12
	.byte	PEND
	.byte	PATT	
		.word	song041_9_1
	.byte	PATT	
		.word	song041_9_2
	.byte	PATT	
		.word	song041_9_1
	.byte	PATT	
		.word	song041_9_3
song041_9_4:
	.byte		N12	, Cs3, v092
	.byte		N12	, An3
	.byte	W24
	.byte			Cs3
	.byte		N12	, An3
	.byte	W24
	.byte			Ds3
	.byte		N12	, Bn3
	.byte	W24
	.byte			Ds3
	.byte		N12	, Bn3
	.byte	W24
	.byte	PEND
	.byte			En3
	.byte		N12	, Cn4
	.byte	W24
	.byte			En3
	.byte		N12	, Cn4
	.byte	W12
	.byte			Fs3
	.byte		N12	, Dn4
	.byte	W24
	.byte			Fs3
	.byte		N12	, Dn4
	.byte	W24
	.byte			Fs3
	.byte		N12	, Dn4
	.byte	W12
	.byte	PATT	
		.word	song041_9_4
	.byte		N12	, En3, v092
	.byte		N12	, Cn4
	.byte	W12
	.byte			Ds3
	.byte		N12	, Bn3
	.byte	W12
	.byte			Cs3
	.byte		N12	, An3
	.byte	W12
	.byte			Bn2
	.byte		N12	, Gn3
	.byte	W24
	.byte			Bn2
	.byte		N12	, Gn3
	.byte	W24
	.byte			Bn2
	.byte		N12	, Gn3
	.byte	W12
song041_9_5:
	.byte		N12	, Fs3, v092
	.byte		N12	, Cs4
	.byte	W24
	.byte			Fs3
	.byte		N12	, Cs4
	.byte	W24
	.byte			Gs3
	.byte		N12	, Ds4
	.byte	W24
	.byte			Gs3
	.byte		N12	, Ds4
	.byte	W24
	.byte	PEND
	.byte			An3
	.byte		N12	, En4
	.byte	W24
	.byte			An3
	.byte		N12	, En4
	.byte	W12
	.byte			Bn3
	.byte		N12	, Fs4
	.byte	W24
	.byte			Bn3
	.byte		N12	, Fs4
	.byte	W24
	.byte			Bn3
	.byte		N12	, Fs4
	.byte	W12
	.byte	PATT	
		.word	song041_9_5
	.byte		N12	, An3, v092
	.byte		N12	, En4
	.byte	W12
	.byte			Gs3
	.byte		N12	, Ds4
	.byte	W12
	.byte			Fs3
	.byte		N12	, Cs4
	.byte	W12
	.byte			En3
	.byte		N12	, Bn3
	.byte	W24
	.byte			En3
	.byte		N12	, Bn3
	.byte	W24
	.byte			En3
	.byte		N12	, Bn3
	.byte	W12
	.byte	W96
	.byte	GOTO	
		.word	song041_9_6
	.byte	FINE

	@********************** Track  10 **********************@

	.global song041_10
song041_10:	@ 0x08285D19
	.byte	KEYSH	, 0
	.byte	VOICE	, 0
	.byte	VOL	, v080
	.byte	PAN	, c_v-4
	.byte	W03
	.byte	W96
song041_10_10:
	.byte	W96
	.byte	W96
	.byte	W96
	.byte	W96
	.byte	W96
	.byte	W96
	.byte	W96
	.byte	W96
	.byte	W96
	.byte	W96
	.byte	W96
	.byte	W96
	.byte	W96
	.byte	W96
	.byte	W96
	.byte	W96
	.byte	W96
	.byte	W96
	.byte	W96
	.byte	W96
	.byte	W96
	.byte	W96
	.byte	W96
	.byte	W96
	.byte	W96
	.byte	W96
	.byte	W96
	.byte	W96
	.byte	W96
	.byte	W96
	.byte	W96
	.byte	W03
	.byte	PAN	, c_v+16
	.byte		N16	, Fs3, v056
	.byte	W24
	.byte		N18	
	.byte	W24
	.byte		N11	, En3
	.byte	W12
	.byte		N15	, Fs3
	.byte	W24
	.byte		N24	, An3
	.byte	W09
song041_10_1:
	.byte	W15
	.byte		N13	, Gs3, v056
	.byte	W12
	.byte		N10	, Fs3
	.byte	W12
	.byte		N11	, En3
	.byte	W12
	.byte		N24	, Fs3
	.byte	W24
	.byte		N23	, Bn2
	.byte	W21
	.byte	PEND
	.byte	W03
	.byte		N15	, Gs3
	.byte	W24
	.byte		N16	, Fn3
	.byte	W24
	.byte		N12	, Cs3
	.byte	W12
	.byte		N16	, Bn2
	.byte	W24
	.byte		N22	, Gs3
	.byte	W09
song041_10_2:
	.byte	W15
	.byte		N05	, Cs3, v056
	.byte	W12
	.byte		N10	
	.byte	W12
	.byte		N13	, Bn2
	.byte	W12
	.byte		N12	, Cs3
	.byte	W12
	.byte		N24	, En3
	.byte	W32
	.byte	W01
	.byte	PEND
	.byte	W03
	.byte		N16	, Fs3
	.byte	W24
	.byte		N18	
	.byte	W24
	.byte		N11	, En3
	.byte	W12
	.byte		N15	, Fs3
	.byte	W24
	.byte		N24	, An3
	.byte	W09
	.byte	PATT	
		.word	song041_10_1
	.byte	W03
	.byte		N15	, Fs3, v056
	.byte	W24
	.byte		N16	, En3
	.byte	W24
	.byte		N12	, Cs3
	.byte	W12
	.byte		N16	, Bn2
	.byte	W24
	.byte		N22	, Gs3
	.byte	W09
	.byte	PATT	
		.word	song041_10_2
	.byte	W03
	.byte	PAN	, c_v+16
	.byte		N16	, Fs4, v056
	.byte	W24
	.byte		N18	
	.byte	W24
	.byte		N11	, En4
	.byte	W12
	.byte		N15	, Fs4
	.byte	W24
	.byte		N24	, An4
	.byte	W09
song041_10_3:
	.byte	W15
	.byte		N13	, Gs4, v056
	.byte	W12
	.byte		N10	, Fs4
	.byte	W12
	.byte		N11	, En4
	.byte	W12
	.byte		N24	, Fs4
	.byte	W24
	.byte		N23	, Bn3
	.byte	W21
	.byte	PEND
	.byte	W03
	.byte		N15	, Gs4
	.byte	W24
	.byte		N16	, Fn4
	.byte	W24
	.byte		N12	, Cs4
	.byte	W12
	.byte		N16	, Bn3
	.byte	W24
	.byte		N22	, Gs4
	.byte	W09
	.byte	W15
	.byte		N05	, Cs4
	.byte	W12
	.byte		N10	
	.byte	W12
	.byte		N13	, Bn3
	.byte	W12
	.byte		N12	, Cs4
	.byte	W12
	.byte		N24	, En4
	.byte	W32
	.byte	W01
	.byte	W03
	.byte		N16	, Fs4
	.byte	W24
	.byte		N18	
	.byte	W24
	.byte		N11	, En4
	.byte	W12
	.byte		N15	, Fs4
	.byte	W24
	.byte		N24	, An4
	.byte	W09
	.byte	PATT	
		.word	song041_10_3
	.byte	W03
	.byte		N15	, Fs4, v056
	.byte	W24
	.byte		N16	, En4
	.byte	W24
	.byte		N12	, Cs4
	.byte	W12
	.byte		N16	, Bn3
	.byte	W24
	.byte		N22	, Gs4
	.byte	W09
	.byte	W15
	.byte		N05	, Cs4
	.byte	W12
	.byte		N10	
	.byte	W12
	.byte		N13	, Bn3
	.byte	W12
	.byte		N12	, Cs4
	.byte	W12
	.byte		N24	, En4
	.byte	W28
	.byte	W01
	.byte		N05	, En3
	.byte	W04
	.byte		N03	, Fn4, v052
	.byte	W03
	.byte		N56	, Fs4, v060
	.byte	W56
	.byte	W01
	.byte		N06	, En4
	.byte	W06
	.byte		N17	, Fn4
	.byte	W18
	.byte		N12	, An3, v052
	.byte	W12
	.byte		N60	, En4, v056
	.byte	W60
	.byte		N03	, Dn4, v060
	.byte	W03
	.byte		N21	, Ds4, v056
	.byte	W21
	.byte		N11	, Gs3, v044
	.byte	W12
	.byte		N60	, Cs4
	.byte	W60
	.byte		N03	, Bn3, v064
	.byte	W03
	.byte		N21	, Cn4, v060
	.byte	W21
	.byte		N12	, Gs3, v064
	.byte	W12
	.byte		N60	, Bn3, v056
	.byte	W60
	.byte		N06	, Cs4
	.byte	W07
	.byte		N07	, Dn4, v064
	.byte	W07
	.byte		N06	, En4, v040
	.byte	W05
	.byte		N05	, Fs4, v068
	.byte	W05
	.byte		N12	, An4, v072
	.byte	W12
	.byte		N72	, Bn4
	.byte	W72
	.byte		N12	, Cs5, v052
	.byte	W12
	.byte			An4, v068
	.byte	W12
	.byte		N48	, Bn4, v072
	.byte	W60
	.byte		N04	, Bn4, v060
	.byte	W06
	.byte		N06	, Cn5, v048
	.byte	W06
	.byte			Bn4, v052
	.byte	W06
	.byte			An4, v064
	.byte	W06
	.byte		N12	, En4, v068
	.byte	W12
	.byte		N03	, En5, v044
	.byte	W03
	.byte		N56	, Fs5, v056
	.byte	W56
	.byte	W01
	.byte		N03	, Dn5, v048
	.byte	W03
	.byte		N18	, En5
	.byte	W21
	.byte		N11	, An4, v052
	.byte	W12
	.byte			Bn5, v060
	.byte	W12
	.byte		N64	, An5, v068
	.byte	W60
	.byte	W03
	.byte		N03	, Gn5, v020
	.byte	W02
	.byte			Fn5, v036
	.byte	W01
	.byte			Ds5, v044
	.byte	W02
	.byte			Dn5, v036
	.byte	W01
	.byte			Cn5, v048
	.byte	W01
	.byte			As4, v040
	.byte	W02
	.byte			An4, v032
	.byte	W02
	.byte			Gn4, v012
	.byte	W01
	.byte			Fn4, v032
	.byte	W03
	.byte			Ds4, v004
	.byte	W06
song041_10_4:
	.byte	W03
	.byte		N12	, Fs3, v080
	.byte	W24
	.byte		N12	
	.byte	W24
	.byte			Gs3
	.byte	W24
	.byte		N12	
	.byte	W21
	.byte	PEND
song041_10_5:
	.byte	W03
	.byte		N12	, An3, v080
	.byte	W24
	.byte		N12	
	.byte	W12
	.byte			Bn3
	.byte	W24
	.byte		N12	
	.byte	W24
	.byte		N12	
	.byte	W09
	.byte	PEND
	.byte	PATT	
		.word	song041_10_4
song041_10_6:
	.byte	W03
	.byte		N12	, An3, v080
	.byte	W12
	.byte			Gs3
	.byte	W12
	.byte			Fs3
	.byte	W12
	.byte			En3
	.byte	W24
	.byte		N12	
	.byte	W24
	.byte		N12	
	.byte	W09
	.byte	PEND
	.byte	PATT	
		.word	song041_10_4
	.byte	PATT	
		.word	song041_10_5
	.byte	PATT	
		.word	song041_10_4
	.byte	PATT	
		.word	song041_10_6
song041_10_7:
	.byte	W03
	.byte		N12	, Fs4, v080
	.byte	W24
	.byte		N12	
	.byte	W24
	.byte			Gs4
	.byte	W24
	.byte		N12	
	.byte	W21
	.byte	PEND
song041_10_8:
	.byte	W03
	.byte		N12	, An4, v080
	.byte	W24
	.byte		N12	
	.byte	W12
	.byte			Bn4
	.byte	W24
	.byte		N12	
	.byte	W24
	.byte		N12	
	.byte	W09
	.byte	PEND
	.byte	PATT	
		.word	song041_10_7
song041_10_9:
	.byte	W03
	.byte		N12	, An4, v080
	.byte	W12
	.byte			Gs4
	.byte	W12
	.byte			Fs4
	.byte	W12
	.byte			En4
	.byte	W24
	.byte		N12	
	.byte	W24
	.byte		N12	
	.byte	W09
	.byte	PEND
	.byte	PATT	
		.word	song041_10_7
	.byte	PATT	
		.word	song041_10_8
	.byte	PATT	
		.word	song041_10_7
	.byte	PATT	
		.word	song041_10_9
	.byte	W96
	.byte	GOTO	
		.word	song041_10_10
	.byte	FINE

	@********************** Track  11 **********************@

	.global song041_11
song041_11:	@ 0x08285F5F
	.byte	KEYSH	, 0
	.byte	VOICE	, 21
	.byte	VOL	, v060
	.byte	PAN	, c_v+36
	.byte	W03
	.byte	W96
song041_11_1:
	.byte	W01
	.byte		N06	, Cs5, v080
	.byte	W06
	.byte			Fs4
	.byte	W06
	.byte			Cs5, v068
	.byte	W06
	.byte			Fs4, v064
	.byte	W18
	.byte			Cs5, v080
	.byte	W06
	.byte			Fs4
	.byte	W06
	.byte			Cs5, v068
	.byte	W06
	.byte			Fs4, v064
	.byte	W30
	.byte			Cs5, v068
	.byte	W06
	.byte			Fs4, v064
	.byte	W05
	.byte	PEND
song041_11_2:
	.byte	W01
	.byte		N06	, Cs5, v064
	.byte	W06
	.byte			Fs4, v060
	.byte	W30
	.byte			Cs5, v052
	.byte	W06
	.byte			Fs4
	.byte	W06
	.byte			Cs5, v028
	.byte	W06
	.byte			Fs4, v024
	.byte	W40
	.byte	W01
	.byte	PEND
	.byte	W96
	.byte	W96
	.byte	PATT	
		.word	song041_11_1
	.byte	PATT	
		.word	song041_11_2
	.byte	W96
	.byte	W96
	.byte	W96
	.byte	W96
	.byte	W96
	.byte	W96
	.byte	W96
	.byte	W96
	.byte	W96
	.byte	W96
	.byte	W96
	.byte	W96
	.byte	W96
	.byte	W96
	.byte	W96
	.byte	W96
	.byte	W96
	.byte	PATT	
		.word	song041_11_1
	.byte	PATT	
		.word	song041_11_2
	.byte	W96
	.byte	W96
	.byte	PATT	
		.word	song041_11_1
	.byte	PATT	
		.word	song041_11_2
	.byte	W96
	.byte	W96
	.byte	W04
	.byte	PAN	, c_v+16
	.byte		N16	, Fs4, v056
	.byte	W24
	.byte		N18	
	.byte	W24
	.byte		N11	, En4
	.byte	W12
	.byte		N15	, Fs4
	.byte	W24
	.byte		N24	, An4
	.byte	W08
song041_11_3:
	.byte	W16
	.byte		N13	, Gs4, v056
	.byte	W12
	.byte		N10	, Fs4
	.byte	W12
	.byte		N11	, En4
	.byte	W12
	.byte		N24	, Fs4
	.byte	W24
	.byte		N23	, Bn3
	.byte	W20
	.byte	PEND
	.byte	W04
	.byte		N15	, Gs4
	.byte	W24
	.byte		N16	, Fn4
	.byte	W24
	.byte		N12	, Cs4
	.byte	W12
	.byte		N16	, Bn3
	.byte	W24
	.byte		N22	, Gs4
	.byte	W08
song041_11_4:
	.byte	W16
	.byte		N05	, Cs4, v056
	.byte	W12
	.byte		N10	
	.byte	W12
	.byte		N13	, Bn3
	.byte	W12
	.byte		N12	, Cs4
	.byte	W12
	.byte		N24	, En4
	.byte	W32
	.byte	PEND
	.byte	W04
	.byte		N16	, Fs4
	.byte	W24
	.byte		N18	
	.byte	W24
	.byte		N11	, En4
	.byte	W12
	.byte		N15	, Fs4
	.byte	W24
	.byte		N24	, An4
	.byte	W08
	.byte	PATT	
		.word	song041_11_3
	.byte	W04
	.byte		N15	, Fs4, v056
	.byte	W24
	.byte		N16	, En4
	.byte	W24
	.byte		N12	, Cs4
	.byte	W12
	.byte		N16	, Bn3
	.byte	W24
	.byte		N22	, Gs4
	.byte	W08
	.byte	PATT	
		.word	song041_11_4
	.byte	W04
	.byte	PAN	, c_v+16
	.byte		N16	, Fs5, v056
	.byte	W24
	.byte		N18	
	.byte	W24
	.byte		N11	, En5
	.byte	W12
	.byte		N15	, Fs5
	.byte	W24
	.byte		N24	, An5
	.byte	W08
song041_11_5:
	.byte	W16
	.byte		N13	, Gs5, v056
	.byte	W12
	.byte		N10	, Fs5
	.byte	W12
	.byte		N11	, En5
	.byte	W12
	.byte		N24	, Fs5
	.byte	W24
	.byte		N23	, Bn4
	.byte	W20
	.byte	PEND
	.byte	W04
	.byte		N15	, Gs5
	.byte	W24
	.byte		N16	, Fn5
	.byte	W24
	.byte		N12	, Cs5
	.byte	W12
	.byte		N16	, Bn4
	.byte	W24
	.byte		N22	, Gs5
	.byte	W08
	.byte	W16
	.byte		N05	, Cs5
	.byte	W12
	.byte		N10	
	.byte	W12
	.byte		N13	, Bn4
	.byte	W12
	.byte		N12	, Cs5
	.byte	W12
	.byte		N24	, En5
	.byte	W32
	.byte	W04
	.byte		N16	, Fs5
	.byte	W24
	.byte		N18	
	.byte	W24
	.byte		N11	, En5
	.byte	W12
	.byte		N15	, Fs5
	.byte	W24
	.byte		N24	, An5
	.byte	W08
	.byte	PATT	
		.word	song041_11_5
	.byte	W04
	.byte		N15	, Fs5, v056
	.byte	W24
	.byte		N16	, En5
	.byte	W24
	.byte		N12	, Cs5
	.byte	W12
	.byte		N16	, Bn4
	.byte	W24
	.byte		N22	, Gs5
	.byte	W08
	.byte	W16
	.byte		N05	, Cs5
	.byte	W12
	.byte		N10	
	.byte	W12
	.byte		N13	, Bn4
	.byte	W12
	.byte		N12	, Cs5
	.byte	W12
	.byte		N24	, En5
	.byte	W30
	.byte		N05	, En4
	.byte	W02
	.byte	W96
	.byte	W96
	.byte	W96
	.byte	W96
	.byte	W96
	.byte	W96
	.byte	W96
	.byte	W96
	.byte	PATT	
		.word	song041_11_1
	.byte	PATT	
		.word	song041_11_2
	.byte	W96
	.byte	W96
	.byte	PATT	
		.word	song041_11_1
	.byte	PATT	
		.word	song041_11_2
	.byte	W96
	.byte	W96
song041_11_6:
	.byte	W01
	.byte		N06	, Fs5, v080
	.byte	W06
	.byte			Cs5
	.byte	W06
	.byte			Fs5, v068
	.byte	W06
	.byte			Cs5, v064
	.byte	W18
	.byte			Fs5, v080
	.byte	W06
	.byte			Cs5
	.byte	W06
	.byte			Fs5, v068
	.byte	W06
	.byte			Cs5, v064
	.byte	W30
	.byte			Fs5, v068
	.byte	W06
	.byte			Cs5, v064
	.byte	W05
	.byte	PEND
song041_11_7:
	.byte	W01
	.byte		N06	, Fs5, v064
	.byte	W06
	.byte			Cs5, v060
	.byte	W30
	.byte			Fs5, v052
	.byte	W06
	.byte			Cs5
	.byte	W06
	.byte			Fs5, v028
	.byte	W06
	.byte			Cs5, v024
	.byte	W40
	.byte	W01
	.byte	PEND
	.byte	W96
	.byte	W96
	.byte	PATT	
		.word	song041_11_6
	.byte	PATT	
		.word	song041_11_7
	.byte	W96
	.byte	W96
	.byte	W96
	.byte	GOTO	
		.word	song041_11_1
	.byte	PATT	
		.word	song041_11_1
	.byte	W01
	.byte	FINE

	@********************** Track  12 **********************@

	.global song041_12
song041_12:	@ 0x0828612A
	.byte	KEYSH	, 0
	.byte	VOICE	, 21
	.byte	VOL	, v060
	.byte	PAN	, c_v-49
	.byte	W03
	.byte	W96
song041_12_1:
	.byte	W24
	.byte	W01
	.byte		N06	, Cs5, v080
	.byte	W06
	.byte			Fs4, v076
	.byte	W06
	.byte			Cs5, v056
	.byte	W06
	.byte			Fs4, v052
	.byte	W18
	.byte			Cs5, v080
	.byte	W06
	.byte			Fs4, v076
	.byte	W06
	.byte			Cs5, v056
	.byte	W06
	.byte			Fs4, v052
	.byte	W17
	.byte	PEND
song041_12_2:
	.byte	W13
	.byte		N06	, Cs5, v056
	.byte	W06
	.byte			Fs4, v052
	.byte	W06
	.byte			Cs5, v032
	.byte	W06
	.byte			Fs4, v028
	.byte	W21
	.byte		N05	, Cs5, v032
	.byte	W06
	.byte		N06	, Fs4, v028
	.byte	W06
	.byte			Cs5, v004
	.byte	W06
	.byte			Fs4
	.byte	W24
	.byte	W02
	.byte	PEND
	.byte	W96
	.byte	W96
	.byte	PATT	
		.word	song041_12_1
	.byte	PATT	
		.word	song041_12_2
	.byte	W96
song041_12_3:
	.byte		N01	, Fs2, v060
	.byte	W02
	.byte		N04	, Fs3
	.byte	W10
	.byte			Fs2
	.byte	W12
	.byte		N06	, Fs3
	.byte	W12
	.byte		N03	, Fs2
	.byte	W12
	.byte		N02	
	.byte	W06
	.byte		N02	
	.byte	W06
	.byte		N02	
	.byte	W12
	.byte			Fs3
	.byte	W06
	.byte			Fs2
	.byte	W06
	.byte			Fs3
	.byte	W06
	.byte			Fs2
	.byte	W06
	.byte	PEND
song041_12_4:
	.byte		N06	, En3, v060
	.byte	W12
	.byte			Fs3
	.byte	W12
	.byte			Fs2
	.byte	W12
	.byte		N04	, Fs3
	.byte	W12
	.byte		N02	, En2
	.byte	W06
	.byte			Fs2
	.byte	W06
	.byte		N06	, Fs3
	.byte	W12
	.byte		N01	, Fs2
	.byte	W12
	.byte		N04	, Fs3
	.byte	W12
	.byte	PEND
song041_12_5:
	.byte		N01	, Fs2, v060
	.byte	W02
	.byte		N04	, Fs3
	.byte	W10
	.byte			Fs2
	.byte	W12
	.byte		N06	, Fs3
	.byte	W12
	.byte		N03	, Fs2
	.byte	W12
	.byte		N02	
	.byte	W06
	.byte		N02	
	.byte	W06
	.byte			En2
	.byte	W12
	.byte			Fs2
	.byte	W06
	.byte			En2
	.byte	W06
	.byte			Fs2
	.byte	W06
	.byte		N02	
	.byte	W06
	.byte	PEND
song041_12_6:
	.byte		N06	, En3, v060
	.byte	W12
	.byte			Fs3
	.byte	W12
	.byte			Fs2
	.byte	W12
	.byte		N04	, Fs3
	.byte	W12
	.byte		N02	, En2
	.byte	W06
	.byte			Fs2
	.byte	W06
	.byte		N06	, En3
	.byte	W12
	.byte		N01	, Fs2
	.byte	W12
	.byte		N04	, Fs3
	.byte	W12
	.byte	PEND
	.byte	PATT	
		.word	song041_12_3
	.byte	PATT	
		.word	song041_12_4
	.byte	PATT	
		.word	song041_12_5
	.byte	PATT	
		.word	song041_12_6
	.byte	PATT	
		.word	song041_12_3
	.byte	PATT	
		.word	song041_12_4
	.byte	PATT	
		.word	song041_12_5
	.byte	PATT	
		.word	song041_12_6
	.byte	PATT	
		.word	song041_12_3
	.byte	PATT	
		.word	song041_12_4
	.byte	PATT	
		.word	song041_12_5
	.byte	PATT	
		.word	song041_12_6
	.byte	PATT	
		.word	song041_12_1
	.byte	PATT	
		.word	song041_12_2
	.byte	W96
	.byte	W96
	.byte	PATT	
		.word	song041_12_1
	.byte	PATT	
		.word	song041_12_2
	.byte	W96
	.byte	W96
	.byte	W96
	.byte	W96
	.byte	W96
	.byte	W96
	.byte	W96
	.byte	W96
	.byte	W96
	.byte	W96
	.byte	W96
	.byte	W96
	.byte	W96
	.byte	W96
	.byte	W96
	.byte	W96
	.byte	W96
	.byte	W96
	.byte	W01
	.byte		N03	, Fn5, v052
	.byte	W03
	.byte		N56	, Fs5
	.byte	W56
	.byte	W01
	.byte		N06	, En5
	.byte	W06
	.byte		N17	, Fn5
	.byte	W18
	.byte		N12	, An4
	.byte	W11
	.byte	W01
	.byte		N60	, En5
	.byte	W60
	.byte		N03	, Dn5
	.byte	W03
	.byte		N21	, Ds5
	.byte	W21
	.byte		N12	, Gs4
	.byte	W11
	.byte	W01
	.byte		N60	, Cs5
	.byte	W60
	.byte		N03	, Bn4
	.byte	W03
	.byte		N21	, Cn5
	.byte	W21
	.byte		N12	, Gs4
	.byte	W11
	.byte	W01
	.byte		N60	, Bn4
	.byte	W60
	.byte	W01
	.byte		N06	, Cs5
	.byte	W06
	.byte		N07	, Dn5
	.byte	W07
	.byte		N06	, En5
	.byte	W06
	.byte		N05	, Fs5
	.byte	W04
	.byte		N12	, An5
	.byte	W11
	.byte	W01
	.byte		N72	, Bn4
	.byte	W72
	.byte		N12	, Cs5
	.byte	W12
	.byte			An4
	.byte	W11
	.byte	W01
	.byte		N48	, Bn4
	.byte	W60
	.byte		N04	
	.byte	W06
	.byte		N06	, Cn5
	.byte	W06
	.byte			Bn4
	.byte	W06
	.byte			An4
	.byte	W06
	.byte		N12	, En4
	.byte	W11
	.byte	W01
	.byte		N03	, En5
	.byte	W03
	.byte		N56	, Fs5
	.byte	W56
	.byte	W01
	.byte		N03	, Dn5
	.byte	W03
	.byte		N18	, En5
	.byte	W21
	.byte		N11	, An4
	.byte	W11
	.byte	W01
	.byte			Bn5
	.byte	W12
	.byte		N64	, An5
	.byte	W64
	.byte		N03	, Gn5
	.byte	W01
	.byte			Fn5
	.byte	W02
	.byte			Ds5
	.byte	W01
	.byte			Dn5
	.byte	W01
	.byte			Cn5
	.byte	W02
	.byte			As4
	.byte	W02
	.byte			An4
	.byte	W01
	.byte			Gn4
	.byte	W02
	.byte			Fn4
	.byte	W02
	.byte			Ds4
	.byte	W05
	.byte	PATT	
		.word	song041_12_1
	.byte	PATT	
		.word	song041_12_2
	.byte	W96
	.byte	W96
	.byte	PATT	
		.word	song041_12_1
	.byte	PATT	
		.word	song041_12_2
	.byte	W96
	.byte	W96
song041_12_7:
	.byte	W24
	.byte	W01
	.byte		N06	, Fs5, v080
	.byte	W06
	.byte			Cs5, v076
	.byte	W06
	.byte			Fs5, v056
	.byte	W06
	.byte			Cs5, v052
	.byte	W18
	.byte			Fs5, v080
	.byte	W06
	.byte			Cs5, v076
	.byte	W06
	.byte			Fs5, v056
	.byte	W06
	.byte			Cs5, v052
	.byte	W17
	.byte	PEND
song041_12_8:
	.byte	W13
	.byte		N06	, Fs5, v056
	.byte	W06
	.byte			Cs5, v052
	.byte	W06
	.byte			Fs5, v032
	.byte	W06
	.byte			Cs5, v028
	.byte	W21
	.byte		N05	, Fs5, v032
	.byte	W06
	.byte		N06	, Cs5, v028
	.byte	W06
	.byte			Fs5, v004
	.byte	W06
	.byte			Cs5
	.byte	W24
	.byte	W02
	.byte	PEND
	.byte	W96
	.byte	W96
	.byte	PATT	
		.word	song041_12_7
	.byte	PATT	
		.word	song041_12_8
	.byte	W96
	.byte	W96
	.byte	W96
	.byte	GOTO	
		.word	song041_12_1
	.byte	W24
	.byte	W01
	.byte		N06	, Cs5, v080
	.byte	W06
	.byte			Fs4, v076
	.byte	W06
	.byte			Cs5, v056
	.byte	W06
	.byte			Fs4, v052
	.byte	W18
	.byte			Cs5, v080
	.byte	W06
	.byte			Fs4, v076
	.byte	W06
	.byte			Cs5, v056
	.byte	W06
	.byte			Fs4, v052
	.byte	W06
	.byte	FINE

	@********************** Track  13 **********************@

	.global song041_13
song041_13:	@ 0x08286354
	.byte	KEYSH	, 0
	.byte	VOICE	, 83
	.byte	VOL	, v080
	.byte	PAN	, c_v-34
	.byte	W03
song041_13_1:
	.byte		N02	, Gn2, v060
	.byte	W02
	.byte		N08	
	.byte	W10
	.byte			An2
	.byte	W12
	.byte		N12	, Bn2
	.byte	W12
	.byte		N06	, Cn3
	.byte	W12
	.byte			Dn3
	.byte	W06
	.byte			Ds3
	.byte	W06
	.byte			En3
	.byte	W12
	.byte			Fn3
	.byte	W06
	.byte			Fs3
	.byte	W06
	.byte			Gs3
	.byte	W06
	.byte			An3
	.byte	W06
	.byte	PEND
song041_13_2:
	.byte		N11	, Cn4, v060
	.byte	W12
	.byte			Bn2
	.byte	W12
	.byte		N09	, Dn4
	.byte	W12
	.byte		N08	, Bn2
	.byte	W12
	.byte		N06	, Fs3
	.byte	W06
	.byte			Gn4
	.byte	W06
	.byte		N10	, An4
	.byte	W12
	.byte		N04	, Fs3
	.byte	W12
	.byte		N07	, Fs4
	.byte	W12
	.byte	PEND
	.byte	PATT	
		.word	song041_13_1
	.byte	PATT	
		.word	song041_13_2
song041_13_6:
	.byte	W02
	.byte		N08	, Gn2, v060
	.byte	W10
	.byte			An2
	.byte	W12
	.byte		N12	, Bn2
	.byte	W12
	.byte		N06	, Cn3
	.byte	W12
	.byte			Dn3
	.byte	W06
	.byte			Ds3
	.byte	W06
	.byte			En3
	.byte	W12
	.byte			Fn3
	.byte	W06
	.byte			Fs3
	.byte	W06
	.byte			Gs3
	.byte	W06
	.byte			An3
	.byte	W06
	.byte	PEND
	.byte	PATT	
		.word	song041_13_2
	.byte	PATT	
		.word	song041_13_1
	.byte	PATT	
		.word	song041_13_2
	.byte	W96
	.byte	W96
	.byte	W96
	.byte	W96
	.byte	W96
	.byte	W96
	.byte	W96
	.byte	W96
	.byte	W96
	.byte	W96
	.byte	W96
	.byte	W96
	.byte	W96
	.byte	W96
	.byte	W96
	.byte	W96
	.byte	W96
	.byte	W96
	.byte	W96
	.byte	W96
	.byte	W96
	.byte	W96
	.byte	W96
	.byte	W96
song041_13_3:
	.byte		N02	, Gn2, v052
	.byte	W02
	.byte		N08	
	.byte	W10
	.byte			An2
	.byte	W12
	.byte		N12	, Bn2
	.byte	W12
	.byte		N06	, Cn3
	.byte	W12
	.byte			Dn3
	.byte	W06
	.byte			Ds3
	.byte	W06
	.byte			En3
	.byte	W12
	.byte			Fn3
	.byte	W06
	.byte			Fs3
	.byte	W06
	.byte			Gs3
	.byte	W06
	.byte			An3
	.byte	W06
	.byte	PEND
song041_13_4:
	.byte		N11	, Cn4, v052
	.byte	W12
	.byte			Bn2
	.byte	W12
	.byte		N09	, Dn4
	.byte	W12
	.byte		N08	, Bn2
	.byte	W12
	.byte		N06	, Fs3
	.byte	W06
	.byte			Gn4
	.byte	W06
	.byte		N10	, An4
	.byte	W12
	.byte		N04	, Fs3
	.byte	W12
	.byte		N07	, Fs4
	.byte	W12
	.byte	PEND
	.byte	PATT	
		.word	song041_13_3
	.byte	PATT	
		.word	song041_13_4
song041_13_5:
	.byte	W02
	.byte		N08	, Gn2, v052
	.byte	W10
	.byte			An2
	.byte	W12
	.byte		N12	, Bn2
	.byte	W12
	.byte		N06	, Cn3
	.byte	W12
	.byte			Dn3
	.byte	W06
	.byte			Ds3
	.byte	W06
	.byte			En3
	.byte	W12
	.byte			Fn3
	.byte	W06
	.byte			Fs3
	.byte	W06
	.byte			Gs3
	.byte	W06
	.byte			An3
	.byte	W06
	.byte	PEND
	.byte	PATT	
		.word	song041_13_4
	.byte	PATT	
		.word	song041_13_3
	.byte	PATT	
		.word	song041_13_4
	.byte	PATT	
		.word	song041_13_3
	.byte	PATT	
		.word	song041_13_4
	.byte	PATT	
		.word	song041_13_3
	.byte	PATT	
		.word	song041_13_4
	.byte	PATT	
		.word	song041_13_5
	.byte	PATT	
		.word	song041_13_4
	.byte	PATT	
		.word	song041_13_3
	.byte	PATT	
		.word	song041_13_4
	.byte	W96
	.byte	W96
	.byte	W96
	.byte	W96
	.byte	W96
	.byte	W96
	.byte	W96
	.byte	W96
	.byte	PATT	
		.word	song041_13_1
	.byte	PATT	
		.word	song041_13_2
	.byte	PATT	
		.word	song041_13_1
	.byte	PATT	
		.word	song041_13_2
	.byte	PATT	
		.word	song041_13_6
	.byte	PATT	
		.word	song041_13_2
	.byte	PATT	
		.word	song041_13_1
	.byte	PATT	
		.word	song041_13_2
	.byte	PATT	
		.word	song041_13_1
	.byte	PATT	
		.word	song041_13_2
	.byte	PATT	
		.word	song041_13_1
	.byte	PATT	
		.word	song041_13_2
	.byte	PATT	
		.word	song041_13_6
	.byte	PATT	
		.word	song041_13_2
	.byte	PATT	
		.word	song041_13_1
	.byte	PATT	
		.word	song041_13_2
	.byte		N02	, Gn2, v068
	.byte		N02	, Dn3
	.byte	W02
	.byte		N08	
	.byte	W10
	.byte		N08	
	.byte	W12
	.byte		N12	, Bn2
	.byte	W12
	.byte		N06	, Dn3
	.byte	W12
	.byte		N06	
	.byte	W06
	.byte			Ds3
	.byte	W06
	.byte			En3
	.byte	W12
	.byte			Fn3
	.byte	W06
	.byte			Fs3
	.byte	W06
	.byte			Gs3
	.byte	W06
	.byte			An3
	.byte	W06
	.byte	GOTO	
		.word	song041_13_2
	.byte		N02	, Dn3, v068
	.byte	W02
	.byte		N08	
	.byte	W10
	.byte		N08	
	.byte	W12
	.byte		N12	, Bn2
	.byte	W12
	.byte		N06	, Dn3
	.byte	W12
	.byte		N06	
	.byte	W06
	.byte			Ds3
	.byte	W06
	.byte			En3
	.byte	W12
	.byte			Fn3
	.byte	W06
	.byte			Fs3
	.byte	W06
	.byte			Gs3
	.byte	W06
	.byte			An3
	.byte	W06
	.byte	FINE

	@********************** Track  14 **********************@

	.global song041_14
song041_14:	@ 0x0828650F
	.byte	KEYSH	, 0
	.byte	VOICE	, 83
	.byte	VOL	, v060
	.byte	PAN	, c_v+56
	.byte	W03
song041_14_1:
	.byte	W01
	.byte		N02	, Gn2, v060
	.byte	W02
	.byte		N08	
	.byte	W10
	.byte			An2
	.byte	W12
	.byte		N12	, Bn2
	.byte	W12
	.byte		N06	, Cn3
	.byte	W12
	.byte			Dn3
	.byte	W06
	.byte			Ds3
	.byte	W06
	.byte			En3
	.byte	W12
	.byte			Fn3
	.byte	W06
	.byte			Fs3
	.byte	W06
	.byte			Gs3
	.byte	W06
	.byte			An3
	.byte	W05
	.byte	PEND
song041_14_2:
	.byte	W01
	.byte		N11	, Cn4, v060
	.byte	W12
	.byte			Bn2
	.byte	W12
	.byte		N09	, Dn4
	.byte	W12
	.byte		N08	, Bn2
	.byte	W12
	.byte		N06	, Fs3
	.byte	W06
	.byte			Gn4
	.byte	W06
	.byte		N10	, An4
	.byte	W12
	.byte		N04	, Fs3
	.byte	W12
	.byte		N07	, Fs4
	.byte	W11
	.byte	PEND
	.byte	PATT	
		.word	song041_14_1
	.byte	PATT	
		.word	song041_14_2
song041_14_6:
	.byte	W03
	.byte		N08	, Gn2, v060
	.byte	W10
	.byte			An2
	.byte	W12
	.byte		N12	, Bn2
	.byte	W12
	.byte		N06	, Cn3
	.byte	W12
	.byte			Dn3
	.byte	W06
	.byte			Ds3
	.byte	W06
	.byte			En3
	.byte	W12
	.byte			Fn3
	.byte	W06
	.byte			Fs3
	.byte	W06
	.byte			Gs3
	.byte	W06
	.byte			An3
	.byte	W05
	.byte	PEND
	.byte	PATT	
		.word	song041_14_2
	.byte	PATT	
		.word	song041_14_1
	.byte	PATT	
		.word	song041_14_2
	.byte	W96
	.byte	W96
	.byte	W96
	.byte	W96
	.byte	W96
	.byte	W96
	.byte	W96
	.byte	W96
	.byte	W96
	.byte	W96
	.byte	W96
	.byte	W96
	.byte	W96
	.byte	W96
	.byte	W96
	.byte	W96
	.byte	W96
	.byte	W96
	.byte	W96
	.byte	W96
	.byte	W96
	.byte	W96
	.byte	W96
	.byte	W96
song041_14_3:
	.byte	W01
	.byte		N02	, Gn2, v052
	.byte	W02
	.byte		N08	
	.byte	W10
	.byte			An2
	.byte	W12
	.byte		N12	, Bn2
	.byte	W12
	.byte		N06	, Cn3
	.byte	W12
	.byte			Dn3
	.byte	W06
	.byte			Ds3
	.byte	W06
	.byte			En3
	.byte	W12
	.byte			Fn3
	.byte	W06
	.byte			Fs3
	.byte	W06
	.byte			Gs3
	.byte	W06
	.byte			An3
	.byte	W05
	.byte	PEND
song041_14_4:
	.byte	W01
	.byte		N11	, Cn4, v052
	.byte	W12
	.byte			Bn2
	.byte	W12
	.byte		N09	, Dn4
	.byte	W12
	.byte		N08	, Bn2
	.byte	W12
	.byte		N06	, Fs3
	.byte	W06
	.byte			Gn4
	.byte	W06
	.byte		N10	, An4
	.byte	W12
	.byte		N04	, Fs3
	.byte	W12
	.byte		N07	, Fs4
	.byte	W11
	.byte	PEND
	.byte	PATT	
		.word	song041_14_3
	.byte	PATT	
		.word	song041_14_4
song041_14_5:
	.byte	W03
	.byte		N08	, Gn2, v052
	.byte	W10
	.byte			An2
	.byte	W12
	.byte		N12	, Bn2
	.byte	W12
	.byte		N06	, Cn3
	.byte	W12
	.byte			Dn3
	.byte	W06
	.byte			Ds3
	.byte	W06
	.byte			En3
	.byte	W12
	.byte			Fn3
	.byte	W06
	.byte			Fs3
	.byte	W06
	.byte			Gs3
	.byte	W06
	.byte			An3
	.byte	W05
	.byte	PEND
	.byte	PATT	
		.word	song041_14_4
	.byte	PATT	
		.word	song041_14_3
	.byte	PATT	
		.word	song041_14_4
	.byte	PATT	
		.word	song041_14_3
	.byte	PATT	
		.word	song041_14_4
	.byte	PATT	
		.word	song041_14_3
	.byte	PATT	
		.word	song041_14_4
	.byte	PATT	
		.word	song041_14_5
	.byte	PATT	
		.word	song041_14_4
	.byte	PATT	
		.word	song041_14_3
	.byte	PATT	
		.word	song041_14_4
	.byte	W96
	.byte	W96
	.byte	W96
	.byte	W96
	.byte	W96
	.byte	W96
	.byte	W96
	.byte	W96
	.byte	PATT	
		.word	song041_14_1
	.byte	PATT	
		.word	song041_14_2
	.byte	PATT	
		.word	song041_14_1
	.byte	PATT	
		.word	song041_14_2
	.byte	PATT	
		.word	song041_14_6
	.byte	PATT	
		.word	song041_14_2
	.byte	PATT	
		.word	song041_14_1
	.byte	PATT	
		.word	song041_14_2
	.byte	PATT	
		.word	song041_14_1
	.byte	PATT	
		.word	song041_14_2
	.byte	PATT	
		.word	song041_14_1
	.byte	PATT	
		.word	song041_14_2
	.byte	PATT	
		.word	song041_14_6
	.byte	PATT	
		.word	song041_14_2
	.byte	PATT	
		.word	song041_14_1
	.byte	PATT	
		.word	song041_14_2
	.byte	W96
	.byte	GOTO	
		.word	song041_14_2
	.byte	FINE

	@********************** Track  15 **********************@

	.global song041_15
song041_15:	@ 0x08286695
	.byte	KEYSH	, 0
	.byte	VOICE	, 4
	.byte	VOL	, v080
	.byte	PAN	, c_v+56
	.byte	W03
	.byte	W96
song041_15_5:
	.byte	W96
	.byte	W96
	.byte	W96
	.byte	W96
	.byte	W96
	.byte	W96
	.byte	W96
song041_15_1:
	.byte	W01
	.byte		N02	, Fs2, v060
	.byte	W02
	.byte		N08	, Fs3
	.byte	W10
	.byte			Fs2
	.byte	W12
	.byte		N12	, Fs3
	.byte	W12
	.byte		N06	, Fs2
	.byte	W12
	.byte		N06	
	.byte	W06
	.byte		N06	
	.byte	W06
	.byte		N06	
	.byte	W12
	.byte			Fs3
	.byte	W06
	.byte			Fs2
	.byte	W06
	.byte			Fs3
	.byte	W06
	.byte			Fs2
	.byte	W05
	.byte	PEND
song041_15_2:
	.byte	W01
	.byte		N11	, En3, v060
	.byte	W12
	.byte			Fs3
	.byte	W12
	.byte		N09	, Fs2
	.byte	W12
	.byte		N08	, Fs3
	.byte	W12
	.byte		N06	, En2
	.byte	W06
	.byte			Fs2
	.byte	W06
	.byte		N10	, Fs3
	.byte	W12
	.byte		N04	, Fs2
	.byte	W12
	.byte		N07	, Fs3
	.byte	W11
	.byte	PEND
song041_15_3:
	.byte	W01
	.byte		N02	, Fs2, v060
	.byte	W02
	.byte		N08	, Fs3
	.byte	W10
	.byte			Fs2
	.byte	W12
	.byte		N12	, Fs3
	.byte	W12
	.byte		N06	, Fs2
	.byte	W12
	.byte		N06	
	.byte	W06
	.byte		N06	
	.byte	W06
	.byte			En2
	.byte	W12
	.byte			Fs2
	.byte	W06
	.byte			En2
	.byte	W06
	.byte			Fs2
	.byte	W06
	.byte		N06	
	.byte	W05
	.byte	PEND
song041_15_4:
	.byte	W01
	.byte		N11	, En3, v060
	.byte	W12
	.byte			Fs3
	.byte	W12
	.byte		N09	, Fs2
	.byte	W12
	.byte		N08	, Fs3
	.byte	W12
	.byte		N06	, En2
	.byte	W06
	.byte			Fs2
	.byte	W06
	.byte		N10	, En3
	.byte	W12
	.byte		N04	, Fs2
	.byte	W12
	.byte		N07	, Fs3
	.byte	W11
	.byte	PEND
	.byte	PATT	
		.word	song041_15_1
	.byte	PATT	
		.word	song041_15_2
	.byte	PATT	
		.word	song041_15_3
	.byte	PATT	
		.word	song041_15_4
	.byte	PATT	
		.word	song041_15_1
	.byte	PATT	
		.word	song041_15_2
	.byte	PATT	
		.word	song041_15_3
	.byte	PATT	
		.word	song041_15_4
	.byte	PATT	
		.word	song041_15_1
	.byte	PATT	
		.word	song041_15_2
	.byte	PATT	
		.word	song041_15_3
	.byte	PATT	
		.word	song041_15_4
	.byte	W96
	.byte	W96
	.byte	W96
	.byte	W96
	.byte	W96
	.byte	W96
	.byte	W96
	.byte	W96
	.byte	W96
	.byte	W96
	.byte	W96
	.byte	W96
	.byte	W96
	.byte	W96
	.byte	W96
	.byte	W96
	.byte	W96
	.byte	W96
	.byte	W96
	.byte	W96
	.byte	W96
	.byte	W96
	.byte	W96
	.byte	W96
	.byte	W96
	.byte	W96
	.byte	W96
	.byte	W96
	.byte	W96
	.byte	W96
	.byte	W96
	.byte	W96
	.byte	W96
	.byte	W96
	.byte	W96
	.byte	W96
	.byte	W96
	.byte	W96
	.byte	W96
	.byte	W96
	.byte	W96
	.byte	W96
	.byte	W96
	.byte	W96
	.byte	W96
	.byte	W96
	.byte	W96
	.byte	W96
	.byte	W96
	.byte	GOTO	
		.word	song041_15_5
	.byte	FINE

	.align 2
	.global song041
song041:	@ 0x08286790
	.byte	15		@ trackCount
	.byte	0		@ blockCount
	.byte	20		@ priority
	.byte	128		@ reverb

	.word	voicegroup008		@ voicegroup/tone

	.word	song041_1		@ track
	.word	song041_2		@ track
	.word	song041_3		@ track
	.word	song041_4		@ track
	.word	song041_5		@ track
	.word	song041_6		@ track
	.word	song041_7		@ track
	.word	song041_8		@ track
	.word	song041_9		@ track
	.word	song041_10		@ track
	.word	song041_11		@ track
	.word	song041_12		@ track
	.word	song041_13		@ track
	.word	song041_14		@ track
	.word	song041_15		@ track
