	.include "MPlayDef.s"

	.section .rodata

	@********************** Track  1 **********************@

	.align 2
	.global song032_1
song032_1:	@ 0x08279750
	.byte	KEYSH	, 0
	.byte	TEMPO	, 86
	.byte	VOICE	, 127
	.byte	VOL	, v077
	.byte	W96
song032_1_11:
	.byte		N11	, Cs4, v116
	.byte	W12
	.byte		N05	, Ds4, v104
	.byte	W06
	.byte		N05	
	.byte	W06
	.byte		N11	, Cs4, v116
	.byte	W12
	.byte		N05	, Ds4, v104
	.byte	W06
	.byte		N05	
	.byte	W06
	.byte		N11	, Cs4, v116
	.byte	W12
	.byte		N05	, Ds4, v104
	.byte	W06
	.byte		N05	
	.byte	W06
	.byte		N05	
	.byte	W06
	.byte		N05	
	.byte	W06
	.byte		N05	
	.byte	W06
	.byte		N05	
	.byte	W06
	.byte	PEND
song032_1_1:
	.byte		N11	, Cs4, v116
	.byte	W12
	.byte			Ds4, v084
	.byte	W12
	.byte			Cs4, v116
	.byte	W12
	.byte			Ds4, v084
	.byte	W12
	.byte			Cs4, v116
	.byte	W12
	.byte			Ds4, v084
	.byte	W12
	.byte			Cs4, v116
	.byte	W12
	.byte			Ds4, v084
	.byte	W12
	.byte	PEND
song032_1_2:
	.byte		N11	, Cs4, v116
	.byte	W12
	.byte			Ds4, v084
	.byte	W12
	.byte			Cs4, v116
	.byte	W12
	.byte			Ds4, v084
	.byte	W12
	.byte			Cs4, v116
	.byte	W12
	.byte			Ds4, v084
	.byte	W12
	.byte			Cs4, v116
	.byte	W12
	.byte		N05	, Ds4, v084
	.byte	W06
	.byte		N05	
	.byte	W06
	.byte	PEND
	.byte	PATT	
		.word	song032_1_1
song032_1_3:
	.byte		N11	, Cs4, v116
	.byte	W12
	.byte			Ds4, v084
	.byte	W12
	.byte			Cs4, v116
	.byte	W12
	.byte			Ds4, v084
	.byte	W12
	.byte		N05	
	.byte	W06
	.byte		N05	
	.byte	W12
	.byte			Cs4, v116
	.byte	W06
	.byte		N05	
	.byte	W06
	.byte			Ds4, v104
	.byte	W06
	.byte		N05	
	.byte	W06
	.byte		N05	
	.byte	W06
	.byte	PEND
song032_1_13:
	.byte	PATT	
		.word	song032_1_1
	.byte	PATT	
		.word	song032_1_2
	.byte	PATT	
		.word	song032_1_1
	.byte	PATT	
		.word	song032_1_2
	.byte	PATT	
		.word	song032_1_1
	.byte	PATT	
		.word	song032_1_2
	.byte	PATT	
		.word	song032_1_1
	.byte	PATT	
		.word	song032_1_3
	.byte	PATT	
		.word	song032_1_1
	.byte	PATT	
		.word	song032_1_2
	.byte	PATT	
		.word	song032_1_1
	.byte	PATT	
		.word	song032_1_2
	.byte	PATT	
		.word	song032_1_1
	.byte	PATT	
		.word	song032_1_2
	.byte	PATT	
		.word	song032_1_1
	.byte		N11	, Cs4, v116
	.byte	W12
	.byte			Ds4, v084
	.byte	W12
	.byte			Cs4, v116
	.byte	W12
	.byte			Ds4, v084
	.byte	W12
	.byte		N05	, Cs4, v116
	.byte	W06
	.byte			Ds4, v104
	.byte	W12
	.byte		N05	
	.byte	W06
	.byte			Cs4, v116
	.byte	W06
	.byte			Ds4, v104
	.byte	W06
	.byte		N05	
	.byte	W06
	.byte		N05	
	.byte	W06
song032_1_5:
	.byte		N11	, Cs4, v116
	.byte	W12
	.byte		N05	, Ds4, v104
	.byte	W06
	.byte		N05	
	.byte	W06
	.byte		N11	, Cs4, v116
	.byte	W12
	.byte		N05	, Ds4, v104
	.byte	W06
	.byte		N05	
	.byte	W06
	.byte		N11	, Cs4, v116
	.byte	W12
	.byte		N05	, Ds4, v104
	.byte	W06
	.byte		N05	
	.byte	W06
	.byte		N11	, Cs4, v116
	.byte	W12
	.byte		N05	, Ds4, v104
	.byte	W06
	.byte		N05	
	.byte	W06
	.byte	PEND
song032_1_6:
	.byte		N11	, Cs4, v116
	.byte	W12
	.byte		N05	, Ds4, v104
	.byte	W06
	.byte		N05	
	.byte	W06
	.byte		N11	, Cs4, v116
	.byte	W12
	.byte		N05	, Ds4, v104
	.byte	W06
	.byte		N05	
	.byte	W06
	.byte		N05	
	.byte	W06
	.byte		N05	
	.byte	W06
	.byte		N05	
	.byte	W06
	.byte		N05	
	.byte	W06
	.byte		N05	
	.byte	W06
	.byte		N05	
	.byte	W06
	.byte		N05	
	.byte	W06
	.byte		N05	
	.byte	W06
	.byte	PEND
	.byte		N23	, Cs4, v116
	.byte	W72
	.byte		N03	, Ds4
	.byte	W04
	.byte			Ds4, v044
	.byte	W04
	.byte			Ds4, v056
	.byte	W04
	.byte			Ds4, v076
	.byte	W04
	.byte			Ds4, v096
	.byte	W04
	.byte			Ds4, v104
	.byte	W04
song032_1_4:
	.byte		N11	, Cs4, v116
	.byte		N92	, As4
	.byte	W12
	.byte		N11	, Ds4, v084
	.byte	W12
	.byte			Cs4, v116
	.byte	W12
	.byte			Ds4, v084
	.byte	W12
	.byte			Cs4, v116
	.byte	W12
	.byte			Ds4, v084
	.byte	W12
	.byte			Cs4, v116
	.byte	W12
	.byte			Ds4, v084
	.byte	W12
	.byte	PEND
	.byte	PATT	
		.word	song032_1_2
	.byte	PATT	
		.word	song032_1_1
	.byte		N11	, Cs4, v116
	.byte	W12
	.byte			Ds4, v084
	.byte	W12
	.byte			Cs4, v116
	.byte	W12
	.byte			Ds4, v084
	.byte	W12
	.byte		N05	
	.byte	W06
	.byte		N05	
	.byte	W12
	.byte			Cs4, v116
	.byte	W06
	.byte		N05	
	.byte	W06
	.byte			Ds4, v084
	.byte	W06
	.byte		N05	
	.byte	W06
	.byte		N05	
	.byte	W06
	.byte	PATT	
		.word	song032_1_4
	.byte	PATT	
		.word	song032_1_2
	.byte	PATT	
		.word	song032_1_5
	.byte	PATT	
		.word	song032_1_6
song032_1_7:
	.byte		N11	, Cs4, v116
	.byte	W24
	.byte			Dn4, v124
	.byte		N32	, As4, v064
	.byte	W12
	.byte		N11	, Cs4, v116
	.byte	W24
	.byte		N11	
	.byte	W12
	.byte			Dn4
	.byte	W12
	.byte			Cs4
	.byte	W12
	.byte	PEND
song032_1_8:
	.byte	W12
	.byte		N11	, Cs4, v116
	.byte	W12
	.byte			Dn4, v124
	.byte		N44	, As4, v064
	.byte	W12
	.byte		N11	, Cs4, v116
	.byte	W24
	.byte		N11	
	.byte	W12
	.byte			Dn4
	.byte	W12
	.byte			Cs4
	.byte	W12
	.byte	PEND
	.byte	PATT	
		.word	song032_1_7
	.byte	W12
	.byte		N11	, Cs4, v116
	.byte	W12
	.byte			Dn4, v124
	.byte	W12
	.byte			Cs4, v116
	.byte	W24
	.byte		N11	
	.byte	W12
	.byte			Dn4
	.byte	W12
	.byte		N11	
	.byte	W12
	.byte	PATT	
		.word	song032_1_7
	.byte	PATT	
		.word	song032_1_8
	.byte	PATT	
		.word	song032_1_7
	.byte		N11	, Cs4, v116
	.byte	W12
	.byte			Ds4, v104
	.byte	W12
	.byte			Cs4, v116
	.byte	W12
	.byte			Ds4, v104
	.byte	W12
	.byte			Cs4, v116
	.byte	W12
	.byte		N05	, Ds4, v104
	.byte	W06
	.byte		N05	
	.byte	W06
	.byte		N05	
	.byte	W06
	.byte		N05	
	.byte	W06
	.byte		N05	
	.byte	W06
	.byte		N05	
	.byte	W06
	.byte		N11	, Cs4, v116
	.byte	W12
	.byte			Ds4, v084
	.byte	W12
	.byte			Cs4, v116
	.byte		N32	, As4, v096
	.byte	W12
	.byte		N11	, Ds4, v084
	.byte	W12
	.byte			Cs4, v116
	.byte	W12
	.byte			Ds4, v084
	.byte	W12
	.byte			Cs4, v116
	.byte	W12
	.byte			Ds4, v084
	.byte	W12
	.byte			Cs4, v116
	.byte	W12
	.byte			Ds4, v084
	.byte	W12
	.byte			Cs4, v116
	.byte		N32	, As4, v096
	.byte	W12
	.byte		N11	, Ds4, v084
	.byte	W12
	.byte			Cs4, v116
	.byte	W12
	.byte			Ds4, v084
	.byte	W12
	.byte			Cs4, v116
	.byte	W12
	.byte		N05	, Ds4, v084
	.byte	W06
	.byte		N05	
	.byte	W06
song032_1_9:
	.byte		N11	, Cs4, v116
	.byte	W12
	.byte			Ds4, v084
	.byte	W12
	.byte			Cs4, v116
	.byte		N68	, As4, v096
	.byte	W12
	.byte		N11	, Ds4, v084
	.byte	W12
	.byte			Cs4, v116
	.byte	W12
	.byte			Ds4, v084
	.byte	W12
	.byte			Cs4, v116
	.byte	W12
	.byte			Ds4, v084
	.byte	W12
	.byte	PEND
	.byte	PATT	
		.word	song032_1_2
	.byte	PATT	
		.word	song032_1_9
	.byte	PATT	
		.word	song032_1_2
	.byte	PATT	
		.word	song032_1_9
	.byte		N11	, Cs4, v116
	.byte	W12
	.byte			Ds4, v084
	.byte	W12
	.byte			Cs4, v116
	.byte	W12
	.byte			Ds4, v084
	.byte	W12
	.byte			Cs4, v116
	.byte	W12
	.byte		N05	, Ds4, v104
	.byte	W06
	.byte		N05	
	.byte	W06
	.byte		N05	
	.byte	W06
	.byte		N05	
	.byte	W06
	.byte		N05	
	.byte	W06
	.byte		N05	
	.byte	W06
	.byte		N11	, Cs4, v116
	.byte		N68	, As4, v076
	.byte	W24
	.byte		N11	, Dn4, v124
	.byte	W12
	.byte			Cs4, v116
	.byte	W24
	.byte		N11	
	.byte	W12
	.byte			Dn4
	.byte	W12
	.byte			Cs4
	.byte	W12
song032_1_10:
	.byte	W12
	.byte		N11	, Cs4, v116
	.byte	W12
	.byte			Dn4, v124
	.byte	W12
	.byte			Cs4, v116
	.byte	W24
	.byte		N11	
	.byte	W12
	.byte			Dn4
	.byte	W12
	.byte			Cs4
	.byte	W12
	.byte	PEND
	.byte		N11	
	.byte	W24
	.byte			Dn4, v124
	.byte	W12
	.byte			Cs4, v116
	.byte	W24
	.byte		N11	
	.byte	W12
	.byte			Dn4
	.byte	W12
	.byte			Cs4
	.byte	W12
	.byte	PATT	
		.word	song032_1_10
	.byte		N11	, Cs4, v116
	.byte	W24
	.byte			Dn4, v124
	.byte	W12
	.byte			Cs4, v116
	.byte	W24
	.byte		N11	
	.byte	W12
	.byte			Dn4
	.byte	W12
	.byte		N05	, Ds4, v084
	.byte	W06
	.byte			Ds4, v096
	.byte	W06
	.byte	PATT	
		.word	song032_1_11
song032_1_12:
	.byte		N11	, Cs4, v116
	.byte		N68	, As4
	.byte	W12
	.byte		N11	, Ds4, v084
	.byte	W12
	.byte			Cs4, v116
	.byte	W12
	.byte			Ds4, v084
	.byte	W12
	.byte			Cs4, v116
	.byte	W12
	.byte			Ds4, v084
	.byte	W12
	.byte			Cs4, v116
	.byte	W12
	.byte			Ds4, v084
	.byte	W12
	.byte	PEND
	.byte	PATT	
		.word	song032_1_2
	.byte	PATT	
		.word	song032_1_1
	.byte	PATT	
		.word	song032_1_3
	.byte	PATT	
		.word	song032_1_12
	.byte	PATT	
		.word	song032_1_2
	.byte	PATT	
		.word	song032_1_1
	.byte		N05	, Cs4, v116
	.byte	W06
	.byte			Ds4, v096
	.byte	W06
	.byte			Ds4, v120
	.byte	W06
	.byte			Dn4, v084
	.byte	W06
	.byte			Cs4, v116
	.byte	W06
	.byte			Ds4, v096
	.byte	W06
	.byte			Ds4, v120
	.byte	W06
	.byte			Dn4, v084
	.byte	W06
	.byte			Ds4
	.byte	W06
	.byte		N05	
	.byte	W12
	.byte			Cs4, v116
	.byte	W06
	.byte			Ds4
	.byte	W06
	.byte		N05	
	.byte	W06
	.byte		N05	
	.byte	W06
	.byte		N05	
	.byte	W06
	.byte	GOTO	
		.word	song032_1_13
	.byte	FINE

	@********************** Track  2 **********************@

	.global song032_2
song032_2:	@ 0x08279AB7
	.byte	KEYSH	, 0
	.byte	VOICE	, 42
	.byte	VOL	, v081
	.byte		N07	, As1, v116
	.byte	W12
	.byte		N06	, As1, v076
	.byte	W12
	.byte		N07	, Cs2, v116
	.byte	W12
	.byte		N06	, Cs2, v076
	.byte	W12
	.byte		N07	, As1, v116
	.byte	W12
	.byte		N06	, As1, v076
	.byte	W12
	.byte		N07	, Cs2, v116
	.byte	W12
	.byte		N06	, Cs2, v076
	.byte	W12
song032_2_7:
	.byte		N10	, Cn3, v100
	.byte	W12
	.byte		N04	, Cn2, v084
	.byte	W04
	.byte			Gn2, v096
	.byte	W04
	.byte			As2, v104
	.byte	W04
	.byte		N10	, Cn3, v100
	.byte	W12
	.byte		N04	, Cn2, v084
	.byte	W04
	.byte			Gn2, v096
	.byte	W04
	.byte			As2, v104
	.byte	W04
	.byte		N10	, Cn3, v100
	.byte	W12
	.byte		N04	, Cn2, v084
	.byte	W04
	.byte			Gn2, v096
	.byte	W04
	.byte			As2, v104
	.byte	W04
	.byte		N10	, Cn3, v100
	.byte	W12
	.byte		N04	, Cn2, v084
	.byte	W04
	.byte			Gn2, v096
	.byte	W04
	.byte			As2, v104
	.byte	W04
	.byte	PEND
	.byte		N06	, Cn3, v092
	.byte	W12
	.byte			Cn3, v040
	.byte	W12
	.byte		N11	, Cn3, v112
	.byte	W12
	.byte		N06	, Cn3, v040
	.byte	W12
	.byte			Cn3, v032
	.byte	W12
	.byte			As2, v092
	.byte	W12
	.byte			Cn3, v112
	.byte	W12
	.byte			As2, v092
	.byte	W12
song032_2_1:
	.byte		N06	, As2, v032
	.byte	W12
	.byte			As2, v092
	.byte	W12
	.byte		N18	, As2, v112
	.byte	W24
	.byte		N06	, As2, v092
	.byte	W12
	.byte			As2, v032
	.byte	W12
	.byte			Cs3, v112
	.byte	W12
	.byte			Cs3, v040
	.byte	W12
	.byte	PEND
song032_2_12:
	.byte		N06	, Cn3, v092
	.byte	W12
	.byte			Cn3, v040
	.byte	W12
	.byte		N11	, Cn3, v112
	.byte	W12
	.byte		N06	, Cn3, v040
	.byte	W12
	.byte			Cn3, v032
	.byte	W12
	.byte			Cn3, v092
	.byte	W12
	.byte			Cn3, v112
	.byte	W12
	.byte			As2, v092
	.byte	W12
	.byte	PEND
	.byte	PATT	
		.word	song032_2_1
song032_2_3:
	.byte	VOICE	, 43
	.byte	W12
	.byte		N06	, Fn2, v084
	.byte	W12
	.byte			Fn2, v064
	.byte	W12
	.byte			Fn2, v036
	.byte	W24
	.byte			Gn2, v084
	.byte	W12
	.byte			Gn2, v036
	.byte	W12
	.byte			Gn2, v024
	.byte	W12
	.byte	PEND
song032_2_4:
	.byte	W12
	.byte		N06	, Fn2, v084
	.byte	W12
	.byte			Fn2, v064
	.byte	W12
	.byte			Fn2, v036
	.byte	W18
	.byte	VOICE	, 42
	.byte	W06
	.byte		N06	, Cn3, v084
	.byte	W12
	.byte			Cn3, v064
	.byte	W12
	.byte			Cn3, v036
	.byte	W11
	.byte	VOICE	, 43
	.byte	W01
	.byte	PEND
song032_2_2:
	.byte		N06	, As2, v104
	.byte	W12
	.byte			Dn2, v084
	.byte	W12
	.byte		N12	, As2, v104
	.byte	W12
	.byte		N06	, Dn2, v084
	.byte	W24
	.byte			As2, v104
	.byte	W36
	.byte	PEND
	.byte	PATT	
		.word	song032_2_2
	.byte	PATT	
		.word	song032_2_3
	.byte	W06
	.byte	VOICE	, 42
	.byte	W06
	.byte		N06	, Gn2, v084
	.byte	W12
	.byte			Gn2, v064
	.byte	W12
	.byte			Gn2, v036
	.byte	W24
	.byte			As2, v084
	.byte	W12
	.byte			As2, v064
	.byte	W12
	.byte			As2, v036
	.byte	W11
	.byte	VOICE	, 43
	.byte	W01
	.byte		N06	, As2, v104
	.byte	W11
	.byte	VOICE	, 42
	.byte	W01
	.byte		N06	, Cn2, v084
	.byte	W11
	.byte	VOICE	, 43
	.byte	W01
	.byte		N11	, An2, v104
	.byte	W11
	.byte	VOICE	, 42
	.byte	W01
	.byte		N06	, Cn2, v084
	.byte	W23
	.byte	VOICE	, 43
	.byte	W01
	.byte		N06	, Fn2, v104
	.byte	W32
	.byte	W03
	.byte	VOICE	, 43
	.byte	W01
	.byte		N06	, As2
	.byte	W11
	.byte	VOICE	, 42
	.byte	W01
	.byte		N06	, Cn2, v084
	.byte	W11
	.byte	VOICE	, 43
	.byte	W01
	.byte		N11	, An2, v104
	.byte	W11
	.byte	VOICE	, 42
	.byte	W01
	.byte		N06	, Cn2, v084
	.byte	W24
	.byte			Cn3, v104
	.byte	W12
	.byte			Cn3, v084
	.byte	W12
	.byte			Cn3, v056
	.byte	W12
	.byte	PATT	
		.word	song032_2_3
	.byte	PATT	
		.word	song032_2_4
song032_2_5:
	.byte		N06	, As2, v084
	.byte	W12
	.byte			Dn2, v064
	.byte	W12
	.byte		N12	, As2, v084
	.byte	W12
	.byte		N06	, Dn2, v064
	.byte	W24
	.byte			As2, v084
	.byte	W36
	.byte	PEND
	.byte	PATT	
		.word	song032_2_5
song032_2_6:
	.byte	W06
	.byte	VOICE	, 42
	.byte	W06
	.byte		N06	, As1, v096
	.byte	W12
	.byte			As1, v076
	.byte	W12
	.byte			As1, v044
	.byte	W11
	.byte	VOICE	, 43
	.byte	W01
	.byte		N06	, Cn2, v104
	.byte	W12
	.byte			Cn2, v056
	.byte	W12
	.byte			Cn2, v044
	.byte	W11
	.byte	VOICE	, 42
	.byte	W01
	.byte		N06	, As1, v096
	.byte	W12
	.byte	PEND
	.byte			As1, v076
	.byte	W12
	.byte			As1, v044
	.byte	W11
	.byte	VOICE	, 43
	.byte	W01
	.byte		N06	, Cn2, v104
	.byte	W12
	.byte			Cn2, v056
	.byte	W12
	.byte			Cn2, v044
	.byte	W11
	.byte	VOICE	, 42
	.byte	W01
	.byte		N04	, Gn2, v104
	.byte	W06
	.byte		N04	
	.byte	W05
	.byte	VOICE	, 43
	.byte	W01
	.byte		N04	, Fn2, v100
	.byte	W06
	.byte		N04	
	.byte	W05
	.byte	VOICE	, 42
	.byte	W01
	.byte		N04	, As1, v096
	.byte	W06
	.byte		N04	
	.byte	W06
	.byte	PATT	
		.word	song032_2_6
	.byte		N06	, As1, v076
	.byte	W12
	.byte			As1, v044
	.byte	W11
	.byte	VOICE	, 43
	.byte	W01
	.byte		N06	, Cn2, v104
	.byte	W12
	.byte			Cn2, v056
	.byte	W12
	.byte			Cn2, v044
	.byte	W11
	.byte	VOICE	, 42
	.byte	W01
	.byte		N04	, Gn2, v104
	.byte	W06
	.byte		N04	
	.byte	W05
	.byte	VOICE	, 43
	.byte	W01
	.byte		N04	, Cn3, v100
	.byte	W06
	.byte		N04	
	.byte	W05
	.byte	VOICE	, 42
	.byte	W01
	.byte		N04	, As2
	.byte	W06
	.byte		N04	
	.byte	W05
	.byte	VOICE	, 43
	.byte	W01
	.byte	PATT	
		.word	song032_2_7
	.byte		N10	, Cn3, v100
	.byte	W12
	.byte		N06	, En3, v112
	.byte	W12
	.byte			Cn3, v084
	.byte	W12
	.byte			As2, v072
	.byte	W12
	.byte			An2, v056
	.byte	W12
	.byte			As2, v076
	.byte	W12
	.byte			Cn3, v096
	.byte	W12
	.byte			En3, v116
	.byte	W12
	.byte		N08	, Fn3
	.byte	W24
	.byte		N05	
	.byte	W06
	.byte			En3, v104
	.byte	W06
	.byte			Dn3, v100
	.byte	W06
	.byte			Cn3, v084
	.byte	W06
	.byte			An2
	.byte	W06
	.byte			Dn3, v116
	.byte	W06
	.byte			An2, v104
	.byte	W06
	.byte			Gn2, v096
	.byte	W06
	.byte			Fn2, v084
	.byte	W06
	.byte			Cn3, v104
	.byte	W06
	.byte			An2
	.byte	W06
	.byte			Fn2, v116
	.byte	W06
	.byte		N96	, As1, v044
	.byte	W96
	.byte			Cn2, v052
	.byte	W96
	.byte			Cs2, v056
	.byte	W96
	.byte			Ds2, v060
	.byte	W96
	.byte			En2, v064
	.byte	W96
	.byte			Fs2, v072
	.byte	W96
	.byte			Gs2, v076
	.byte	W96
	.byte		N48	, As2, v080
	.byte	W48
	.byte			Cn3, v084
	.byte	W48
song032_2_8:
	.byte		N12	, Cn3, v084
	.byte	W24
	.byte		N24	, Fn3, v104
	.byte	W24
	.byte		N12	, En3
	.byte	W12
	.byte			Dn3, v100
	.byte	W12
	.byte			Cn3, v096
	.byte	W12
	.byte			An2, v092
	.byte	W12
	.byte	PEND
song032_2_9:
	.byte	W12
	.byte		N12	, An2, v096
	.byte	W12
	.byte		N24	, Dn3, v104
	.byte	W24
	.byte		N12	, An2
	.byte	W12
	.byte			Gn2, v100
	.byte	W24
	.byte			Fn2, v096
	.byte	W12
	.byte	PEND
song032_2_10:
	.byte	W12
	.byte		N12	, Fn2, v092
	.byte	W12
	.byte		N24	, Dn3, v104
	.byte	W24
	.byte		N12	, An2, v100
	.byte	W12
	.byte			Gn2, v096
	.byte	W24
	.byte		N42	, An2, v104
	.byte	W12
	.byte	PEND
song032_2_11:
	.byte	W36
	.byte		N36	, Gn2, v100
	.byte	W36
	.byte		N12	, Cn3, v104
	.byte	W24
	.byte	PEND
	.byte	PATT	
		.word	song032_2_8
	.byte	PATT	
		.word	song032_2_9
	.byte	W12
	.byte		N12	, Fn2, v092
	.byte	W12
	.byte			Dn3, v104
	.byte	W12
	.byte			Fn2, v096
	.byte	W12
	.byte			An2, v100
	.byte	W12
	.byte			As2
	.byte	W24
	.byte		N42	, Ds3
	.byte	W12
	.byte	W36
	.byte		N24	, Cn3, v104
	.byte	W24
	.byte		N06	, As2
	.byte	W12
	.byte			Cn3, v100
	.byte	W12
	.byte			As2, v104
	.byte	W12
	.byte	PATT	
		.word	song032_2_8
	.byte	PATT	
		.word	song032_2_9
	.byte	PATT	
		.word	song032_2_10
	.byte	PATT	
		.word	song032_2_11
	.byte	PATT	
		.word	song032_2_8
	.byte	PATT	
		.word	song032_2_9
	.byte	W12
	.byte		N12	, Fn2, v092
	.byte	W12
	.byte			Dn3, v104
	.byte	W12
	.byte			Fn2, v096
	.byte	W12
	.byte			An2, v100
	.byte	W12
	.byte			As2
	.byte	W24
	.byte		N22	, Ds3, v104
	.byte	W12
	.byte	W12
	.byte		N06	
	.byte	W12
	.byte			Dn3
	.byte	W12
	.byte		N18	, Cn3, v096
	.byte	W18
	.byte		N06	, Dn3
	.byte	W06
	.byte			En3, v100
	.byte	W06
	.byte			Fn3, v104
	.byte	W06
	.byte			Gn3, v112
	.byte	W12
	.byte			Cn3, v104
	.byte	W12
	.byte	W24
	.byte		N12	, Gn2, v096
	.byte	W24
	.byte		N12	
	.byte	W12
	.byte			Dn2, v092
	.byte	W24
	.byte		N21	, An2, v100
	.byte	W12
	.byte	W12
	.byte		N12	, An2, v096
	.byte	W12
	.byte			Gn2, v084
	.byte	W12
	.byte			An2, v100
	.byte	W24
	.byte		N24	, Gn2, v096
	.byte	W36
	.byte		N12	, Cn3, v084
	.byte	W24
	.byte		N15	, Dn3, v104
	.byte	W24
	.byte		N12	, Cn3, v084
	.byte	W24
	.byte		N15	, Dn3, v104
	.byte	W24
	.byte		N10	, As2, v092
	.byte	W12
	.byte		N12	, As2, v096
	.byte	W24
	.byte			An2, v084
	.byte	W24
	.byte			As2, v096
	.byte	W24
	.byte		N48	, Gn2, v092
	.byte	W12
	.byte	W36
	.byte		N06	, An2
	.byte	W06
	.byte			As2
	.byte	W06
	.byte		N42	, Dn3
	.byte	W48
	.byte		N10	, Cn3, v100
	.byte	W12
	.byte		N04	, Cn2, v084
	.byte	W04
	.byte			Gn2, v096
	.byte	W04
	.byte			As2, v104
	.byte	W04
	.byte		N10	, Cn3, v100
	.byte	W12
	.byte		N04	, Cn2, v084
	.byte	W04
	.byte			Gn2, v096
	.byte	W04
	.byte			As2, v104
	.byte	W04
	.byte		N10	, Cn3, v100
	.byte	W12
	.byte		N04	, Cn2, v084
	.byte	W04
	.byte			Gn2, v096
	.byte	W04
	.byte			As2, v104
	.byte	W04
	.byte		N10	, Cn3, v100
	.byte	W12
	.byte		N04	, Cn2, v084
	.byte	W04
	.byte			Gn2, v096
	.byte	W04
	.byte			As2, v104
	.byte	W03
	.byte	VOICE	, 42
	.byte	W01
	.byte	PATT	
		.word	song032_2_12
	.byte	PATT	
		.word	song032_2_1
	.byte	PATT	
		.word	song032_2_12
	.byte	PATT	
		.word	song032_2_1
	.byte	PATT	
		.word	song032_2_12
	.byte	PATT	
		.word	song032_2_1
	.byte	PATT	
		.word	song032_2_12
	.byte	PATT	
		.word	song032_2_1
	.byte	GOTO	
		.word	song032_2_3
	.byte	FINE

	@********************** Track  3 **********************@

	.global song032_3
song032_3:	@ 0x08279E90
	.byte	KEYSH	, 0
	.byte	VOICE	, 22
	.byte	VOL	, v056
	.byte	PAN	, c_v+30
	.byte	W96
	.byte	W96
song032_3_1:
	.byte	VOICE	, 22
	.byte	W12
	.byte		N18	, Fs3, v084
	.byte	W24
	.byte		N06	, Fs3, v104
	.byte	W24
	.byte			Fs3, v084
	.byte	W24
	.byte			Fs3, v104
	.byte	W12
	.byte	PEND
song032_3_2:
	.byte	W12
	.byte		N06	, En3, v084
	.byte	W24
	.byte			En3, v104
	.byte	W24
	.byte			En3, v084
	.byte	W23
	.byte	VOICE	, 21
	.byte	W01
	.byte		N06	, Gn3, v104
	.byte	W12
	.byte	PEND
	.byte	PATT	
		.word	song032_3_1
	.byte	PATT	
		.word	song032_3_2
song032_3_4:
	.byte	VOICE	, 21
	.byte	W96
	.byte	W96
	.byte	W96
	.byte	W96
	.byte	W96
	.byte	W96
	.byte	W96
	.byte	W96
	.byte		N06	, Dn3, v064
	.byte	W12
	.byte			Dn3, v096
	.byte	W12
	.byte			Dn3, v044
	.byte	W24
	.byte		N18	, An3, v076
	.byte	W24
	.byte		N06	, An3, v044
	.byte	W12
	.byte			Dn3, v064
	.byte	W12
	.byte			Dn3, v096
	.byte	W12
	.byte			Dn3, v044
	.byte	W12
	.byte			Dn3, v024
	.byte	W12
	.byte		N18	, An3, v076
	.byte	W24
	.byte		N06	, An3, v044
	.byte	W12
	.byte			Dn3, v096
	.byte	W12
	.byte			Dn3, v044
	.byte	W12
	.byte	W96
	.byte	W96
	.byte	W96
	.byte	W96
	.byte	W96
	.byte	W96
	.byte	W96
	.byte	W96
	.byte	W96
	.byte	W06
	.byte	VOICE	, 21
	.byte	W06
	.byte		N06	, Gn3, v076
	.byte	W24
	.byte		N12	, Gn3, v084
	.byte	W24
	.byte		N06	, Gn3, v076
	.byte	W24
	.byte			Gn3, v084
	.byte	W12
song032_3_3:
	.byte	W12
	.byte		N06	, An3, v076
	.byte	W24
	.byte		N12	, An3, v084
	.byte	W24
	.byte		N06	, An3, v076
	.byte	W24
	.byte			An3, v084
	.byte	W12
	.byte	PEND
	.byte	W12
	.byte			Gn3, v076
	.byte	W24
	.byte		N12	, Gn3, v084
	.byte	W24
	.byte		N06	, Gn3, v076
	.byte	W24
	.byte			Gn3, v084
	.byte	W12
	.byte	PATT	
		.word	song032_3_3
	.byte	W12
	.byte		N06	, As3, v080
	.byte	W24
	.byte		N12	, As3, v092
	.byte	W24
	.byte		N06	, As3, v080
	.byte	W24
	.byte			As3, v092
	.byte	W12
	.byte	W12
	.byte			Cn4, v084
	.byte	W24
	.byte		N12	, Cn4, v096
	.byte	W24
	.byte		N06	, Cn4, v084
	.byte	W24
	.byte			Cn4, v096
	.byte	W12
	.byte	W12
	.byte			Dn4, v092
	.byte	W24
	.byte		N12	, Dn4, v100
	.byte	W24
	.byte		N06	, Dn4, v092
	.byte	W24
	.byte			Dn4, v100
	.byte	W12
	.byte	W12
	.byte			En4, v092
	.byte	W24
	.byte		N12	, En4, v100
	.byte	W24
	.byte		N06	, En4, v092
	.byte	W24
	.byte			En4, v100
	.byte	W12
	.byte	W96
	.byte	W96
	.byte	W96
	.byte	W96
	.byte	W96
	.byte	W96
	.byte	W84
	.byte		N18	, Cn4, v076
	.byte	W12
	.byte	W12
	.byte		N06	, Cn4, v084
	.byte	W12
	.byte		N12	, Dn4
	.byte	W12
	.byte		N06	, En4
	.byte	W12
	.byte		N12	, Dn4
	.byte	W12
	.byte		N06	, En4
	.byte	W12
	.byte		N12	, Dn4
	.byte	W12
	.byte		N06	, En4
	.byte	W12
	.byte		N04	, Dn4
	.byte	W06
	.byte		N02	, Dn4, v056
	.byte	W06
	.byte		N04	, Dn4, v084
	.byte	W12
	.byte			An3
	.byte	W06
	.byte		N02	, An3, v056
	.byte	W06
	.byte		N04	, An3, v084
	.byte	W12
	.byte			Dn4
	.byte	W06
	.byte		N02	, Dn4, v056
	.byte	W06
	.byte		N04	, Dn4, v084
	.byte	W12
	.byte			An3
	.byte	W06
	.byte		N02	, An3, v056
	.byte	W06
	.byte		N04	, An3, v084
	.byte	W06
	.byte		N02	, An3, v056
	.byte	W06
	.byte		N04	, Dn4, v084
	.byte	W06
	.byte		N02	, Dn4, v056
	.byte	W06
	.byte		N04	, Dn4, v084
	.byte	W12
	.byte			An3
	.byte	W06
	.byte		N02	, An3, v056
	.byte	W06
	.byte		N04	, An3, v084
	.byte	W12
	.byte			Dn4
	.byte	W06
	.byte		N02	, Dn4, v056
	.byte	W06
	.byte		N04	, Dn4, v084
	.byte	W12
	.byte			Fs4
	.byte	W06
	.byte		N02	, Fs4, v056
	.byte	W06
	.byte		N04	, Fs4, v084
	.byte	W06
	.byte		N02	, Fs4, v056
	.byte	W06
	.byte		N10	, Gn4, v084
	.byte	W12
	.byte		N04	, En4
	.byte	W12
	.byte			Bn3
	.byte	W06
	.byte		N02	, Bn3, v056
	.byte	W06
	.byte		N04	, En4, v084
	.byte	W12
	.byte			Dn4
	.byte	W06
	.byte		N02	, Dn4, v056
	.byte	W06
	.byte		N04	, En4, v084
	.byte	W12
	.byte			Bn3
	.byte	W06
	.byte			Cs4
	.byte	W06
	.byte			Dn4
	.byte	W06
	.byte			Ds4
	.byte	W06
	.byte		N10	, En4
	.byte	W12
	.byte		N06	, An3
	.byte	W12
	.byte		N10	, En4
	.byte	W12
	.byte		N06	, An3
	.byte	W12
	.byte		N10	, Dn4
	.byte	W12
	.byte		N06	, En4
	.byte	W12
	.byte		N22	, An4, v096
	.byte	W24
	.byte		N04	, Dn4, v084
	.byte	W06
	.byte		N02	, Dn4, v056
	.byte	W06
	.byte		N04	, An3, v084
	.byte	W06
	.byte		N02	, An3, v056
	.byte	W06
	.byte		N04	, An4, v084
	.byte	W06
	.byte		N02	, An4, v056
	.byte	W06
	.byte		N04	, Fs4, v084
	.byte	W06
	.byte		N02	, Fs4, v056
	.byte	W06
	.byte		N04	, Dn4, v084
	.byte	W06
	.byte		N02	, Dn4, v056
	.byte	W06
	.byte		N04	, An3, v084
	.byte	W06
	.byte		N02	, An3, v056
	.byte	W06
	.byte		N04	, An4, v084
	.byte	W06
	.byte		N02	, An4, v056
	.byte	W06
	.byte		N04	, Fs4, v084
	.byte	W06
	.byte		N02	, Fs4, v056
	.byte	W06
	.byte		N04	, Dn4, v084
	.byte	W06
	.byte		N02	, Dn4, v056
	.byte	W06
	.byte		N04	, An3, v084
	.byte	W06
	.byte		N02	, An3, v056
	.byte	W06
	.byte		N04	, An4, v084
	.byte	W06
	.byte		N02	, An4, v056
	.byte	W06
	.byte		N04	, Fs4, v084
	.byte	W06
	.byte		N02	, Fs4, v056
	.byte	W06
	.byte		N04	, Dn4, v084
	.byte	W06
	.byte			An3
	.byte	W06
	.byte			An4
	.byte	W06
	.byte			Fs4
	.byte	W06
	.byte			Dn4
	.byte	W06
	.byte		N10	, An4
	.byte	W12
	.byte		N04	, Fs4
	.byte	W06
	.byte			Dn4
	.byte	W06
	.byte		N02	, Dn4, v056
	.byte	W06
	.byte		N04	, Cs4, v084
	.byte	W06
	.byte			Bn3
	.byte	W12
	.byte		N04	
	.byte	W06
	.byte		N10	, Fs4
	.byte	W12
	.byte		N04	, Dn4
	.byte	W06
	.byte		N02	, Dn4, v056
	.byte	W06
	.byte		N04	, Cs4, v084
	.byte	W06
	.byte			Bn3
	.byte	W12
	.byte		N04	
	.byte	W06
	.byte			Cs4
	.byte	W06
	.byte			Dn4
	.byte	W06
	.byte		N10	, Cn4
	.byte	W18
	.byte		N04	, Gn4
	.byte	W06
	.byte		N10	, En4
	.byte	W12
	.byte		N06	, An3
	.byte	W12
	.byte		N04	, En4
	.byte	W06
	.byte			Fs4
	.byte	W06
	.byte			Gn4
	.byte	W06
	.byte			Gs4
	.byte	W06
	.byte		N22	, An4, v096
	.byte	W24
	.byte	W96
	.byte	W96
	.byte	W96
	.byte	W96
	.byte	W96
	.byte	W96
	.byte	PATT	
		.word	song032_3_1
	.byte	PATT	
		.word	song032_3_2
	.byte	PATT	
		.word	song032_3_1
	.byte	PATT	
		.word	song032_3_2
	.byte	PATT	
		.word	song032_3_1
	.byte	PATT	
		.word	song032_3_2
	.byte	PATT	
		.word	song032_3_1
	.byte	PATT	
		.word	song032_3_2
	.byte	GOTO	
		.word	song032_3_4
	.byte	FINE

	@********************** Track  4 **********************@

	.global song032_4
song032_4:	@ 0x0827A116
	.byte	KEYSH	, 0
	.byte	VOICE	, 45
	.byte	VOL	, v053
	.byte	PAN	, c_v-30
	.byte		N09	, Fs3, v064
	.byte	W12
	.byte			Fs3, v084
	.byte	W12
	.byte			Fs3, v036
	.byte	W12
	.byte			Fs3, v016
	.byte	W12
	.byte			An3, v076
	.byte	W12
	.byte			An3, v036
	.byte	W12
	.byte		N06	, Cn4, v064
	.byte	W06
	.byte			Cs4, v076
	.byte	W06
	.byte			Dn4, v084
	.byte	W06
	.byte			Ds4, v096
	.byte	W06
	.byte			En4, v104
	.byte	W12
	.byte			Cn4, v096
	.byte	W12
	.byte			Dn4, v100
	.byte	W12
	.byte			As3, v092
	.byte	W12
	.byte			Cn4, v096
	.byte	W12
	.byte			An3, v084
	.byte	W12
	.byte			As3, v092
	.byte	W12
	.byte			Dn4, v096
	.byte	W12
	.byte			Fn3, v084
	.byte		N06	, Fn4
	.byte	W96
	.byte	W96
	.byte	W96
	.byte	W96
song032_4_3:
	.byte	W96
	.byte	W96
	.byte	W96
	.byte	W96
	.byte	W96
	.byte	W96
	.byte	W96
	.byte	W96
	.byte	W96
	.byte	W96
	.byte	W96
	.byte	W96
	.byte	W96
	.byte	W96
	.byte	W96
song032_4_1:
	.byte	W68
	.byte	W03
	.byte	PAN	, c_v-30
	.byte	W01
	.byte		N06	, Cn4, v064
	.byte	W06
	.byte			Cs4, v076
	.byte	W06
	.byte			Dn4, v084
	.byte	W06
	.byte			Ds4, v096
	.byte	W06
	.byte	PEND
song032_4_2:
	.byte		N06	, En4, v104
	.byte	W12
	.byte			Cn4, v096
	.byte	W12
	.byte			Dn4, v100
	.byte	W12
	.byte			As3, v092
	.byte	W12
	.byte			Cn4, v096
	.byte	W12
	.byte			An3, v084
	.byte	W12
	.byte			As3, v092
	.byte	W12
	.byte			Gn3, v080
	.byte	W12
	.byte	PEND
	.byte			An3, v084
	.byte	W12
	.byte			As3, v092
	.byte	W12
	.byte			Cn4, v096
	.byte	W12
	.byte			Dn4, v092
	.byte	W12
	.byte			En4, v104
	.byte	W12
	.byte			Fn4, v096
	.byte	W12
	.byte			Gn4, v100
	.byte	W12
	.byte			Gs4, v104
	.byte	W12
	.byte			An4, v112
	.byte	W96
	.byte	W96
	.byte	W96
	.byte	W96
	.byte	W96
	.byte	W96
	.byte	W96
	.byte	W96
	.byte	W96
	.byte	W96
	.byte	W96
	.byte	W96
	.byte	W96
	.byte	W96
	.byte	W96
	.byte	W96
	.byte	W96
	.byte	W96
	.byte	W96
	.byte	W96
	.byte	W96
	.byte	W96
	.byte	W96
	.byte	W96
	.byte	W96
	.byte	W96
	.byte	W96
	.byte	W96
	.byte	W96
	.byte	PATT	
		.word	song032_4_1
	.byte	PATT	
		.word	song032_4_2
	.byte		N06	, Fn3, v084
	.byte	W96
	.byte	W96
	.byte	W96
	.byte	W96
	.byte	W96
	.byte	W96
	.byte	W96
	.byte	W96
	.byte	GOTO	
		.word	song032_4_3
	.byte	FINE

	@********************** Track  5 **********************@

	.global song032_5
song032_5:	@ 0x0827A1EC
	.byte	KEYSH	, 0
	.byte	VOICE	, 6
	.byte	VOL	, v049
	.byte	PAN	, c_v
	.byte	W96
	.byte	W96
	.byte	W96
	.byte	W96
	.byte	W96
	.byte	W96
song032_5_1:
	.byte	W96
	.byte	W96
	.byte	W96
	.byte	W96
	.byte	W96
	.byte	W96
	.byte	W96
	.byte	W96
	.byte	W96
	.byte	W96
	.byte	MOD	, 0
	.byte	W12
	.byte		N36	, Dn4, v096
	.byte	W18
	.byte	MOD	, 10
	.byte	W18
	.byte		0
	.byte		N12	, As3, v092
	.byte	W12
	.byte			An3
	.byte	W24
	.byte			Gn3, v084
	.byte	W12
	.byte	W12
	.byte			Dn3, v080
	.byte	W12
	.byte			Fn3, v084
	.byte	W12
	.byte			Dn3, v080
	.byte	W12
	.byte			As3, v092
	.byte	W12
	.byte		N36	, Dn4, v084
	.byte	W12
	.byte	MOD	, 10
	.byte	W24
	.byte	W96
	.byte	W96
	.byte	W96
	.byte	W96
	.byte	W96
	.byte	W96
	.byte	W96
	.byte		0
	.byte	W10
	.byte		N06	, Gs3, v100
	.byte	W04
	.byte		N68	, An3, v104
	.byte	W22
	.byte	MOD	, 10
	.byte	W48
	.byte		0
	.byte		N06	, Gn3, v096
	.byte	W06
	.byte			An3, v104
	.byte	W06
	.byte		N48	, Gn3, v100
	.byte	W24
	.byte	MOD	, 10
	.byte	W24
	.byte		0
	.byte		N24	, Fn3, v096
	.byte	W24
	.byte			En3, v092
	.byte	W24
	.byte		N36	, Fn3, v096
	.byte	W36
	.byte		N60	, Cs3, v084
	.byte	W24
	.byte	MOD	, 14
	.byte	W36
	.byte	W12
	.byte		0
	.byte	W12
	.byte		N12	, Ds3, v092
	.byte	W12
	.byte			Fn3, v096
	.byte	W12
	.byte			Gn3
	.byte	W12
	.byte			Gs3, v100
	.byte	W12
	.byte			As3
	.byte	W12
	.byte			Dn4, v104
	.byte	W12
	.byte		N06	, En4, v112
	.byte	W06
	.byte			Cs4, v100
	.byte	W06
	.byte		N24	, Gs3, v096
	.byte	W12
	.byte	MOD	, 15
	.byte	W12
	.byte		0
	.byte		N06	, Fs3, v076
	.byte	W06
	.byte			Gs3, v096
	.byte	W06
	.byte		N12	, Fs3, v084
	.byte	W12
	.byte		N36	, Cs4, v096
	.byte	W12
	.byte	MOD	, 20
	.byte	W24
	.byte	W12
	.byte		0
	.byte	W12
	.byte		N12	, Ds4, v092
	.byte	W12
	.byte			Fn4, v096
	.byte	W12
	.byte			Fs4
	.byte	W12
	.byte			Gs4, v100
	.byte	W12
	.byte			As4, v104
	.byte	W12
	.byte			Fs4, v096
	.byte	W12
	.byte			Gs4, v104
	.byte	W12
	.byte		N24	, Ds4, v096
	.byte	W24
	.byte		N12	, Gs4, v104
	.byte	W12
	.byte		N18	, Ds4, v096
	.byte	W24
	.byte		N12	
	.byte	W12
	.byte			Gs4, v104
	.byte	W12
	.byte			As4
	.byte	W12
	.byte			Fn4, v096
	.byte	W12
	.byte			Dn4, v084
	.byte	W12
	.byte			En4, v092
	.byte	W12
	.byte			Fn4, v096
	.byte	W12
	.byte			Gn4, v100
	.byte	W12
	.byte		N24	, Cn5, v104
	.byte	W24
	.byte	W96
	.byte	W96
	.byte	W96
	.byte	W96
	.byte	W96
	.byte	W96
	.byte	W96
	.byte	W96
	.byte	W96
	.byte	W96
	.byte	W96
	.byte	W96
	.byte	W96
	.byte	W96
	.byte	W96
	.byte	W96
	.byte	W96
	.byte	W96
	.byte	W96
	.byte	W96
	.byte	W96
	.byte	W96
	.byte	W96
	.byte	W96
	.byte	W96
	.byte	W96
	.byte	W96
	.byte	W96
	.byte	W96
	.byte	W96
	.byte	GOTO	
		.word	song032_5_1
	.byte	FINE

	@********************** Track  6 **********************@

	.global song032_6
song032_6:	@ 0x0827A2F9
	.byte	KEYSH	, 0
	.byte	VOICE	, 47
	.byte	VOL	, v053
	.byte	PAN	, c_v
	.byte	W96
	.byte	W96
	.byte	W24
	.byte		N03	, Gs3, v096
	.byte	W03
	.byte		N30	, An3, v108
	.byte	W32
	.byte	W01
	.byte		N11	, Gn3, v096
	.byte	W12
	.byte			An3
	.byte	W12
	.byte		N90	, As3, v116
	.byte	W12
song032_6_1:
	.byte	W84
	.byte		N05	, An3, v096
	.byte	W06
	.byte			As3, v100
	.byte	W06
	.byte	PEND
song032_6_2:
	.byte	BEND	, c_v-48
	.byte		N11	, Dn4, v100
	.byte	W01
	.byte	BEND	, c_v-45
	.byte	W01
	.byte		c_v-41
	.byte	W01
	.byte		c_v-34
	.byte	W01
	.byte		c_v-31
	.byte	W01
	.byte		c_v-28
	.byte	W01
	.byte		c_v-21
	.byte	W01
	.byte		c_v-17
	.byte	W01
	.byte		c_v-14
	.byte	W01
	.byte		c_v-7
	.byte	W01
	.byte		c_v-4
	.byte	W01
	.byte		c_v
	.byte	W01
	.byte		N11	, Cn4, v096
	.byte	W12
	.byte			An3
	.byte	W12
	.byte			Fn3, v092
	.byte	W12
	.byte		N05	, Cn3, v088
	.byte	W03
	.byte		N07	, Dn3, v104
	.byte	W09
	.byte		N11	, Cn3, v088
	.byte	W24
	.byte	BEND	, c_v-52
	.byte		N88	, As3, v100
	.byte	W01
	.byte	BEND	, c_v-47
	.byte	W02
	.byte		c_v-42
	.byte	W01
	.byte		c_v-37
	.byte	W02
	.byte		c_v-32
	.byte	W01
	.byte		c_v-27
	.byte	W02
	.byte		c_v-22
	.byte	W01
	.byte		c_v-17
	.byte	W02
	.byte	PEND
song032_6_3:
	.byte	BEND	, c_v-11
	.byte	W01
	.byte		c_v-6
	.byte	W02
	.byte		c_v
	.byte	W92
	.byte	W01
	.byte	PEND
song032_6_4:
	.byte	W96
	.byte	W96
	.byte	W96
	.byte	W96
	.byte	W96
	.byte	W96
	.byte	W96
	.byte	W96
	.byte	W96
	.byte	W96
	.byte	W96
	.byte	W96
	.byte	W96
	.byte	W96
	.byte	W96
	.byte	W96
	.byte	W96
	.byte	W96
	.byte	W96
	.byte	W96
	.byte	W96
	.byte	W96
	.byte	W96
	.byte	W96
	.byte	W96
	.byte	W96
	.byte	W96
	.byte	W96
	.byte	W96
	.byte	W96
	.byte	W96
	.byte	W96
	.byte	W96
	.byte	W96
	.byte	W96
	.byte	W96
	.byte	W96
	.byte	W96
	.byte	W96
	.byte	W96
	.byte	W96
	.byte	W96
	.byte	W96
	.byte	W96
	.byte	W96
	.byte	W96
	.byte	W96
	.byte	W96
	.byte	W96
	.byte	BEND	, c_v
	.byte	W24
	.byte		N03	, Gs3, v096
	.byte	W03
	.byte		N30	, An3, v108
	.byte	W32
	.byte	W01
	.byte		N11	, Gn3, v096
	.byte	W12
	.byte			An3
	.byte	W12
	.byte		N90	, As3, v116
	.byte	W12
	.byte	PATT	
		.word	song032_6_1
	.byte	PATT	
		.word	song032_6_2
	.byte	PATT	
		.word	song032_6_3
	.byte	BEND	, c_v
	.byte		N03	, Bn3, v096
	.byte	W03
	.byte		N07	, Cn4, v108
	.byte	W09
	.byte		N10	, Dn4, v104
	.byte	W12
	.byte			Fn4, v120
	.byte	W12
	.byte			An3, v104
	.byte	W12
	.byte			Gn4, v120
	.byte	W12
	.byte			An3, v104
	.byte	W12
	.byte			An4, v120
	.byte	W12
	.byte		N16	, Cn4, v104
	.byte	W12
	.byte	W06
	.byte		N04	, Gn4
	.byte	W06
	.byte		N10	, Fn4
	.byte	W12
	.byte		N03	, An4, v096
	.byte	W03
	.byte		N19	, As4, v120
	.byte	W21
	.byte		N13	, An4
	.byte	W14
	.byte		N04	, As4, v104
	.byte	W04
	.byte			An4
	.byte	W06
	.byte		N20	, Gn4, v120
	.byte	W24
	.byte	BEND	, c_v-48
	.byte		N11	, Dn5
	.byte	W01
	.byte	BEND	, c_v-45
	.byte	W01
	.byte		c_v-41
	.byte	W01
	.byte		c_v-34
	.byte	W01
	.byte		c_v-31
	.byte	W01
	.byte		c_v-28
	.byte	W01
	.byte		c_v-21
	.byte	W01
	.byte		c_v-17
	.byte	W01
	.byte		c_v-14
	.byte	W01
	.byte		c_v-7
	.byte	W01
	.byte		c_v-4
	.byte	W01
	.byte		c_v
	.byte	W01
	.byte		N11	, Cn5, v116
	.byte	W12
	.byte			An4
	.byte	W12
	.byte			Fn4, v112
	.byte	W12
	.byte		N05	, Cn4, v108
	.byte	W03
	.byte		N07	, Dn4, v124
	.byte	W09
	.byte		N11	, Cn4, v108
	.byte	W24
	.byte	BEND	, c_v-52
	.byte		N92	, As4, v116
	.byte	W01
	.byte	BEND	, c_v-47
	.byte	W02
	.byte		c_v-42
	.byte	W01
	.byte		c_v-37
	.byte	W02
	.byte		c_v-32
	.byte	W01
	.byte		c_v-27
	.byte	W02
	.byte		c_v-22
	.byte	W01
	.byte		c_v-17
	.byte	W02
	.byte	PATT	
		.word	song032_6_3
	.byte	GOTO	
		.word	song032_6_4
	.byte	FINE

	@********************** Track  7 **********************@

	.global song032_7
song032_7:	@ 0x0827A455
	.byte	KEYSH	, 0
	.byte	VOICE	, 48
	.byte	VOL	, v056
	.byte	PAN	, c_v-20
	.byte	W96
	.byte	W96
	.byte	W96
	.byte	W96
	.byte	W96
	.byte	W96
song032_7_1:
	.byte	W96
	.byte	W96
	.byte	W96
	.byte	W96
	.byte	W96
	.byte	W96
	.byte	W96
	.byte	W96
	.byte		N30	, Dn4, v104
	.byte	W36
	.byte		N42	, As3, v096
	.byte	W48
	.byte		N48	, Fn4, v104
	.byte	W12
	.byte	W48
	.byte		N18	, Fn3, v092
	.byte	W24
	.byte		N24	, Fn4, v104
	.byte	W24
	.byte	W96
	.byte	W96
	.byte	W96
	.byte	W96
	.byte	W96
	.byte	W96
	.byte	W96
	.byte	W96
	.byte	W96
	.byte	W96
	.byte	W96
	.byte	W96
	.byte	W96
	.byte	W96
	.byte	W96
	.byte	W96
	.byte	W96
	.byte	W96
	.byte	W96
	.byte	W96
	.byte	W96
	.byte	W96
	.byte	W96
	.byte	W96
	.byte	W96
	.byte	W96
	.byte	W96
	.byte	W96
	.byte	W96
	.byte	W96
	.byte	W96
	.byte	W96
	.byte	W96
	.byte	W96
	.byte	W96
	.byte	W96
	.byte	W96
	.byte	W96
	.byte	W96
	.byte	W96
	.byte	W96
	.byte	W96
	.byte	W96
	.byte	W96
	.byte	W96
	.byte	W96
	.byte	W96
	.byte	GOTO	
		.word	song032_7_1
	.byte	FINE

	@********************** Track  8 **********************@

	.global song032_8
song032_8:	@ 0x0827A4B5
	.byte	KEYSH	, 0
	.byte	VOICE	, 31
	.byte	MOD	, 0
	.byte	VOL	, v042
	.byte	PAN	, c_v+30
	.byte	MODT	, 0
	.byte	TUNE	, c_v
	.byte	BENDR	, 12
	.byte	BEND	, c_v
	.byte	W12
	.byte		N03	, Gs3, v084
	.byte	W06
	.byte			Gs3, v056
	.byte	W06
	.byte			As3, v096
	.byte	W06
	.byte			As3, v064
	.byte	W06
	.byte			Cs5, v104
	.byte	W06
	.byte			Cs5, v076
	.byte	W06
	.byte			En5, v100
	.byte	W06
	.byte			En5, v072
	.byte	W06
	.byte			Cs5, v116
	.byte	W06
	.byte			As4, v084
	.byte	W06
	.byte		N06	, Gn4, v100
	.byte	W06
	.byte			An4
	.byte	W06
	.byte			As4
	.byte	W06
	.byte			Bn4
	.byte	W06
	.byte			Cn5, v112
	.byte	W12
	.byte			An4, v104
	.byte	W12
	.byte			As4
	.byte	W12
	.byte			Gn4, v100
	.byte	W12
	.byte			An4, v104
	.byte	W12
	.byte			Fn4, v100
	.byte	W12
	.byte			Gn4, v104
	.byte	W12
	.byte			Cn5
	.byte	W12
	.byte	PAN	, c_v-30
	.byte		N06	, Fn5, v112
	.byte	W24
	.byte		N04	, Cn5, v116
	.byte	W06
	.byte		N03	, Bn4, v104
	.byte	W06
	.byte		N04	, Cn5, v116
	.byte	W36
	.byte		N04	
	.byte	W06
	.byte		N03	, Bn4, v104
	.byte	W06
	.byte		N04	, Cn5, v116
	.byte	W12
song032_8_8:
	.byte		N04	, Cn5, v116
	.byte	W06
	.byte		N03	, Cn5, v076
	.byte	W06
	.byte			As4, v116
	.byte	W12
	.byte		N04	, Fn4
	.byte	W06
	.byte		N03	, Fn4, v076
	.byte	W06
	.byte			Ds4, v116
	.byte	W12
	.byte		N04	, Gn4
	.byte	W06
	.byte		N03	, Gn4, v076
	.byte	W06
	.byte			Fn4, v116
	.byte	W12
	.byte		N04	, As4
	.byte	W06
	.byte		N03	, As4, v076
	.byte	W06
	.byte			Gn4, v116
	.byte	W12
	.byte	PEND
song032_8_9:
	.byte	W24
	.byte		N04	, Cn5, v116
	.byte	W06
	.byte		N03	, Bn4, v104
	.byte	W06
	.byte		N04	, Cn5, v116
	.byte	W36
	.byte		N04	
	.byte	W06
	.byte		N03	, Bn4, v104
	.byte	W06
	.byte		N04	, Cn5, v116
	.byte	W12
	.byte	PEND
song032_8_10:
	.byte		N04	, Cn5, v116
	.byte	W06
	.byte		N03	, Cn5, v076
	.byte	W06
	.byte			As4, v116
	.byte	W12
	.byte		N04	, Fn4
	.byte	W06
	.byte		N03	, Fn4, v076
	.byte	W06
	.byte			Ds4, v116
	.byte	W12
	.byte		N04	, Gn4
	.byte	W06
	.byte		N03	, Gn4, v076
	.byte	W06
	.byte			As4, v116
	.byte	W12
	.byte		N04	, Cs5
	.byte	W06
	.byte		N03	, Cs5, v076
	.byte	W06
	.byte		N06	, Fn5, v116
	.byte	W11
	.byte	VOICE	, 23
	.byte	MOD	, 0
	.byte	VOL	, v038
	.byte	PAN	, c_v
	.byte	TUNE	, c_v+5
	.byte	W01
	.byte	PEND
song032_8_11:
	.byte	MOD	, 0
	.byte		N06	, An3, v064
	.byte	W12
	.byte			As3, v096
	.byte	W24
	.byte			Cn4, v104
	.byte	W24
	.byte			Cs4, v076
	.byte	W12
	.byte			Dn4, v096
	.byte	W12
	.byte			An4, v104
	.byte	W12
	.byte	W60
	.byte		N06	
	.byte	W24
	.byte			Gn4, v096
	.byte	W12
	.byte	W96
	.byte	W96
	.byte			Gn3, v064
	.byte	W12
	.byte			An3, v096
	.byte	W24
	.byte			As3, v104
	.byte	W24
	.byte			Cn4, v076
	.byte	W12
	.byte			Dn4, v096
	.byte	W12
	.byte			Gn4, v104
	.byte	W12
	.byte	W60
	.byte			An4
	.byte	W24
	.byte			Fn4, v096
	.byte	W12
	.byte	W96
	.byte	W96
	.byte			An3, v064
	.byte	W12
	.byte			As3, v096
	.byte	W24
	.byte			Cn4, v104
	.byte	W24
	.byte			Cs4, v076
	.byte	W12
	.byte			Dn4, v096
	.byte	W12
	.byte			An4, v104
	.byte	W12
	.byte	W60
	.byte			Gn4, v096
	.byte	W12
	.byte			An4, v104
	.byte	W12
	.byte			As4, v112
	.byte	W12
	.byte	W96
	.byte	W60
	.byte			Dn5
	.byte	W36
song032_8_1:
	.byte		N06	, Cn5, v104
	.byte	W12
	.byte			An4, v100
	.byte	W24
	.byte			As4
	.byte	W12
	.byte			Gn4, v096
	.byte	W24
	.byte			An4, v100
	.byte	W12
	.byte			Fn4, v096
	.byte	W12
	.byte	PEND
	.byte	W12
	.byte			Gn4, v092
	.byte	W24
	.byte			An4, v096
	.byte	W12
	.byte			As4, v100
	.byte	W12
	.byte			As4, v096
	.byte	W12
	.byte			Dn5, v112
	.byte	W12
	.byte			Dn5, v100
	.byte	W12
	.byte	PATT	
		.word	song032_8_1
	.byte	W12
	.byte		N06	, Gn4, v092
	.byte	W24
	.byte			An4, v096
	.byte	W12
	.byte			As4, v100
	.byte	W12
	.byte			As4, v096
	.byte	W12
	.byte			Dn5, v112
	.byte	W23
	.byte	PAN	, c_v+30
	.byte	W01
	.byte		N06	, Cn5, v104
	.byte	W12
	.byte			An4, v100
	.byte	W12
	.byte			As4
	.byte	W12
	.byte			Gn4, v096
	.byte	W12
	.byte			An4, v100
	.byte	W12
	.byte			Fn4, v096
	.byte	W12
	.byte			Gn4, v100
	.byte	W12
	.byte			En4, v096
	.byte	W12
	.byte			Fn4, v092
	.byte	W12
	.byte			Gn4, v096
	.byte	W12
	.byte			An4, v100
	.byte	W12
	.byte			As4, v096
	.byte	W12
	.byte			Cn5, v112
	.byte	W12
	.byte			Dn5, v100
	.byte	W12
	.byte			Ds5, v104
	.byte	W12
	.byte			En5, v112
	.byte	W12
	.byte			Fn5, v116
	.byte	W92
	.byte	W03
	.byte	VOICE	, 23
	.byte	VOL	, v038
	.byte	PAN	, c_v-30
	.byte	MODT	, 0
	.byte	TUNE	, c_v
	.byte	W01
	.byte	MOD	, 0
	.byte	BEND	, c_v
	.byte		N72	, Gn5, v104
	.byte	W03
	.byte	BEND	, c_v+2
	.byte	W03
	.byte		c_v+5
	.byte	W02
	.byte		c_v+7
	.byte	W01
	.byte		c_v+10
	.byte	W02
	.byte		c_v+13
	.byte	W01
	.byte		c_v+16
	.byte	W02
	.byte		c_v+19
	.byte	W01
	.byte		c_v+23
	.byte	W02
	.byte		c_v+26
	.byte	W01
	.byte		c_v+29
	.byte	W01
	.byte		c_v+36
	.byte	W01
	.byte		c_v+41
	.byte	W01
	.byte		c_v+46
	.byte	W01
	.byte		c_v+56
	.byte	W01
	.byte		c_v+61
	.byte	W01
	.byte		c_v+63
	.byte	W05
	.byte		c_v+63
	.byte	W02
	.byte		c_v+58
	.byte	W01
	.byte		c_v+53
	.byte	W02
	.byte		c_v+48
	.byte	W01
	.byte		c_v+43
	.byte	W02
	.byte		c_v+38
	.byte	W01
	.byte		c_v+33
	.byte	W02
	.byte		c_v+28
	.byte	W01
	.byte		c_v+22
	.byte	W02
	.byte		c_v+17
	.byte	W01
	.byte		c_v+12
	.byte	W02
	.byte		c_v+7
	.byte	W01
	.byte		c_v+2
	.byte	W01
	.byte		c_v
	.byte	W12
	.byte		c_v+3
	.byte	W01
	.byte		c_v+7
	.byte	W01
	.byte		c_v+11
	.byte	W01
	.byte		c_v+19
	.byte	W01
	.byte		c_v+22
	.byte	W01
	.byte		c_v+26
	.byte	W01
	.byte		c_v+34
	.byte	W01
	.byte		c_v+38
	.byte	W01
	.byte		c_v+41
	.byte	W01
	.byte		c_v+49
	.byte	W01
	.byte		c_v+53
	.byte	W01
	.byte		c_v+57
	.byte	W01
	.byte		c_v+63
	.byte	W24
	.byte		N66	, An5
	.byte	W01
	.byte	BEND	, c_v+63
	.byte	W06
	.byte		c_v+63
	.byte	W02
	.byte		c_v+60
	.byte	W01
	.byte		c_v+57
	.byte	W02
	.byte		c_v+54
	.byte	W01
	.byte		c_v+50
	.byte	W02
	.byte		c_v+47
	.byte	W01
	.byte		c_v+44
	.byte	W02
	.byte		c_v+37
	.byte	W01
	.byte		c_v+34
	.byte	W01
	.byte		c_v+31
	.byte	W01
	.byte		c_v+24
	.byte	W01
	.byte		c_v+21
	.byte	W01
	.byte		c_v+18
	.byte	W01
	.byte		c_v+11
	.byte	W01
	.byte		c_v+8
	.byte	W01
	.byte		c_v+5
	.byte	W01
	.byte		c_v
	.byte	W01
	.byte		c_v+3
	.byte	W02
	.byte		c_v+6
	.byte	W01
	.byte		c_v+9
	.byte	W02
	.byte		c_v+12
	.byte	W01
	.byte		c_v+15
	.byte	W02
	.byte		c_v+18
	.byte	W01
	.byte		c_v+21
	.byte	W02
	.byte		c_v+24
	.byte	W01
	.byte		c_v+27
	.byte	W02
	.byte		c_v+30
	.byte	W01
	.byte		c_v+32
	.byte	W01
	.byte		c_v+29
	.byte	W02
	.byte		c_v+26
	.byte	W01
	.byte		c_v+22
	.byte	W02
	.byte		c_v+19
	.byte	W01
	.byte		c_v+16
	.byte	W02
	.byte		c_v+12
	.byte	W01
	.byte		c_v+9
	.byte	W02
	.byte		c_v+5
	.byte	W01
	.byte		c_v+2
	.byte	W02
	.byte		c_v-1
	.byte	W01
	.byte		c_v-5
	.byte	W02
	.byte		c_v-8
	.byte	W01
	.byte		c_v-11
	.byte	W02
	.byte		c_v-15
	.byte	W01
	.byte		c_v-18
	.byte	W02
	.byte		c_v-22
	.byte	W28
	.byte	W01
	.byte		c_v
	.byte		N72	, Gn5
	.byte	W03
	.byte	BEND	, c_v+2
	.byte	W03
	.byte		c_v+5
	.byte	W02
	.byte		c_v+7
	.byte	W01
	.byte		c_v+10
	.byte	W02
	.byte		c_v+13
	.byte	W01
	.byte		c_v+16
	.byte	W02
	.byte		c_v+19
	.byte	W01
	.byte		c_v+23
	.byte	W02
	.byte		c_v+26
	.byte	W01
	.byte		c_v+29
	.byte	W01
	.byte		c_v+36
	.byte	W01
	.byte		c_v+41
	.byte	W01
	.byte		c_v+46
	.byte	W01
	.byte		c_v+56
	.byte	W01
	.byte		c_v+61
	.byte	W01
	.byte		c_v+63
	.byte	W05
	.byte		c_v+63
	.byte	W02
	.byte		c_v+58
	.byte	W01
	.byte		c_v+53
	.byte	W02
	.byte		c_v+48
	.byte	W01
	.byte		c_v+43
	.byte	W02
	.byte		c_v+38
	.byte	W01
	.byte		c_v+33
	.byte	W02
	.byte		c_v+28
	.byte	W01
	.byte		c_v+22
	.byte	W02
	.byte		c_v+17
	.byte	W01
	.byte		c_v+12
	.byte	W02
	.byte		c_v+7
	.byte	W01
	.byte		c_v+2
	.byte	W01
	.byte		c_v
	.byte	W12
	.byte		c_v+3
	.byte	W01
	.byte		c_v+7
	.byte	W01
	.byte		c_v+11
	.byte	W01
	.byte		c_v+19
	.byte	W01
	.byte		c_v+22
	.byte	W01
	.byte		c_v+26
	.byte	W01
	.byte		c_v+34
	.byte	W01
	.byte		c_v+38
	.byte	W01
	.byte		c_v+41
	.byte	W01
	.byte		c_v+49
	.byte	W01
	.byte		c_v+53
	.byte	W01
	.byte		c_v+57
	.byte	W01
	.byte		c_v+63
	.byte	W24
	.byte		N96	, An5
	.byte	W01
	.byte	BEND	, c_v+63
	.byte	W06
	.byte		c_v+63
	.byte	W02
	.byte		c_v+60
	.byte	W01
	.byte		c_v+57
	.byte	W02
	.byte		c_v+54
	.byte	W01
	.byte		c_v+50
	.byte	W02
	.byte		c_v+47
	.byte	W01
	.byte		c_v+44
	.byte	W02
	.byte		c_v+37
	.byte	W01
	.byte		c_v+34
	.byte	W01
	.byte		c_v+31
	.byte	W01
	.byte		c_v+24
	.byte	W01
	.byte		c_v+21
	.byte	W01
	.byte		c_v+18
	.byte	W01
	.byte		c_v+11
	.byte	W01
	.byte		c_v+8
	.byte	W01
	.byte		c_v+5
	.byte	W01
	.byte		c_v
	.byte	W01
	.byte		c_v+3
	.byte	W02
	.byte		c_v+6
	.byte	W01
	.byte		c_v+9
	.byte	W02
	.byte		c_v+12
	.byte	W01
	.byte		c_v+15
	.byte	W02
	.byte		c_v+18
	.byte	W01
	.byte		c_v+21
	.byte	W02
	.byte		c_v+24
	.byte	W01
	.byte		c_v+27
	.byte	W02
	.byte		c_v+30
	.byte	W01
	.byte		c_v+32
	.byte	W01
	.byte		c_v+29
	.byte	W02
	.byte		c_v+26
	.byte	W01
	.byte		c_v+22
	.byte	W02
	.byte		c_v+19
	.byte	W01
	.byte		c_v+16
	.byte	W02
	.byte		c_v+12
	.byte	W01
	.byte		c_v+9
	.byte	W02
	.byte		c_v+5
	.byte	W01
	.byte		c_v+2
	.byte	W02
	.byte		c_v-1
	.byte	W01
	.byte		c_v-5
	.byte	W02
	.byte		c_v-8
	.byte	W01
	.byte		c_v-11
	.byte	W02
	.byte		c_v-15
	.byte	W01
	.byte		c_v-18
	.byte	W02
	.byte		c_v-17
	.byte	W01
	.byte		c_v-11
	.byte	W01
	.byte		c_v-6
	.byte	W01
	.byte		c_v+5
	.byte	W01
	.byte		c_v+11
	.byte	W01
	.byte		c_v+16
	.byte	W01
	.byte		c_v+27
	.byte	W01
	.byte		c_v+33
	.byte	W01
	.byte		c_v+40
	.byte	W12
	.byte		c_v+40
	.byte	W01
	.byte		c_v+37
	.byte	W01
	.byte		c_v+30
	.byte	W01
	.byte		c_v+27
	.byte	W01
	.byte		c_v+23
	.byte	W01
	.byte		c_v+16
	.byte	W01
	.byte		c_v+13
	.byte	W01
	.byte		c_v+9
	.byte	W01
	.byte		c_v+2
	.byte	W01
	.byte		c_v
	.byte		N72	, Gs5
	.byte	W03
	.byte	BEND	, c_v+2
	.byte	W03
	.byte		c_v+5
	.byte	W02
	.byte		c_v+7
	.byte	W01
	.byte		c_v+10
	.byte	W02
	.byte		c_v+13
	.byte	W01
	.byte		c_v+16
	.byte	W02
	.byte		c_v+19
	.byte	W01
	.byte		c_v+23
	.byte	W02
	.byte		c_v+26
	.byte	W01
	.byte		c_v+29
	.byte	W01
	.byte		c_v+36
	.byte	W01
	.byte		c_v+41
	.byte	W01
	.byte		c_v+46
	.byte	W01
	.byte		c_v+56
	.byte	W01
	.byte		c_v+61
	.byte	W01
	.byte		c_v+63
	.byte	W05
	.byte		c_v+63
	.byte	W02
	.byte		c_v+58
	.byte	W01
	.byte		c_v+53
	.byte	W02
	.byte		c_v+48
	.byte	W01
	.byte		c_v+43
	.byte	W02
	.byte		c_v+38
	.byte	W01
	.byte		c_v+33
	.byte	W02
	.byte		c_v+28
	.byte	W01
	.byte		c_v+22
	.byte	W02
	.byte		c_v+17
	.byte	W01
	.byte		c_v+12
	.byte	W02
	.byte		c_v+7
	.byte	W01
	.byte		c_v+2
	.byte	W01
	.byte		c_v
	.byte	W12
	.byte		c_v+3
	.byte	W01
	.byte		c_v+7
	.byte	W01
	.byte		c_v+11
	.byte	W01
	.byte		c_v+19
	.byte	W01
	.byte		c_v+22
	.byte	W01
	.byte		c_v+26
	.byte	W01
	.byte		c_v+34
	.byte	W01
	.byte		c_v+38
	.byte	W01
	.byte		c_v+41
	.byte	W01
	.byte		c_v+49
	.byte	W01
	.byte		c_v+53
	.byte	W01
	.byte		c_v+57
	.byte	W01
	.byte		c_v+63
	.byte	W24
	.byte		N66	, As5
	.byte	W01
	.byte	BEND	, c_v+63
	.byte	W06
	.byte		c_v+63
	.byte	W02
	.byte		c_v+60
	.byte	W01
	.byte		c_v+57
	.byte	W02
	.byte		c_v+54
	.byte	W01
	.byte		c_v+50
	.byte	W02
	.byte		c_v+47
	.byte	W01
	.byte		c_v+44
	.byte	W02
	.byte		c_v+37
	.byte	W01
	.byte		c_v+34
	.byte	W01
	.byte		c_v+31
	.byte	W01
	.byte		c_v+24
	.byte	W01
	.byte		c_v+21
	.byte	W01
	.byte		c_v+18
	.byte	W01
	.byte		c_v+11
	.byte	W01
	.byte		c_v+8
	.byte	W01
	.byte		c_v+5
	.byte	W01
	.byte		c_v
	.byte	W01
	.byte		c_v+3
	.byte	W02
	.byte		c_v+6
	.byte	W01
	.byte		c_v+9
	.byte	W02
	.byte		c_v+12
	.byte	W01
	.byte		c_v+15
	.byte	W02
	.byte		c_v+18
	.byte	W01
	.byte		c_v+21
	.byte	W02
	.byte		c_v+24
	.byte	W01
	.byte		c_v+27
	.byte	W02
	.byte		c_v+30
	.byte	W01
	.byte		c_v+32
	.byte	W01
	.byte		c_v+29
	.byte	W02
	.byte		c_v+26
	.byte	W01
	.byte		c_v+22
	.byte	W02
	.byte		c_v+19
	.byte	W01
	.byte		c_v+16
	.byte	W02
	.byte		c_v+12
	.byte	W01
	.byte		c_v+9
	.byte	W02
	.byte		c_v+5
	.byte	W01
	.byte		c_v+2
	.byte	W02
	.byte		c_v-1
	.byte	W01
	.byte		c_v-5
	.byte	W02
	.byte		c_v-8
	.byte	W01
	.byte		c_v-11
	.byte	W02
	.byte		c_v-15
	.byte	W01
	.byte		c_v-18
	.byte	W02
	.byte		c_v-22
	.byte	W28
	.byte	W01
	.byte		c_v
	.byte		N96	, Gn5
	.byte	W03
	.byte	BEND	, c_v+2
	.byte	W03
	.byte		c_v+5
	.byte	W02
	.byte		c_v+7
	.byte	W01
	.byte		c_v+10
	.byte	W02
	.byte		c_v+13
	.byte	W01
	.byte		c_v+16
	.byte	W02
	.byte		c_v+19
	.byte	W01
	.byte		c_v+23
	.byte	W02
	.byte		c_v+26
	.byte	W01
	.byte		c_v+29
	.byte	W01
	.byte		c_v+36
	.byte	W01
	.byte		c_v+41
	.byte	W01
	.byte		c_v+46
	.byte	W01
	.byte		c_v+56
	.byte	W01
	.byte		c_v+61
	.byte	W01
	.byte		c_v+63
	.byte	W05
	.byte		c_v+63
	.byte	W02
	.byte		c_v+58
	.byte	W01
	.byte		c_v+53
	.byte	W02
	.byte		c_v+48
	.byte	W01
	.byte		c_v+43
	.byte	W02
	.byte		c_v+38
	.byte	W01
	.byte		c_v+33
	.byte	W02
	.byte		c_v+28
	.byte	W01
	.byte		c_v+22
	.byte	W02
	.byte		c_v+17
	.byte	W01
	.byte		c_v+12
	.byte	W02
	.byte		c_v+7
	.byte	W01
	.byte		c_v+2
	.byte	W01
	.byte		c_v
	.byte	W12
	.byte		c_v+3
	.byte	W01
	.byte		c_v+7
	.byte	W01
	.byte		c_v+11
	.byte	W01
	.byte		c_v+19
	.byte	W01
	.byte		c_v+22
	.byte	W01
	.byte		c_v+26
	.byte	W01
	.byte		c_v+34
	.byte	W01
	.byte		c_v+38
	.byte	W01
	.byte		c_v+41
	.byte	W01
	.byte		c_v+49
	.byte	W01
	.byte		c_v+53
	.byte	W01
	.byte		c_v+57
	.byte	W01
	.byte		c_v+63
	.byte	W03
	.byte		c_v+62
	.byte	W03
	.byte		c_v+60
	.byte	W03
	.byte		c_v+58
	.byte	W01
	.byte		c_v+53
	.byte	W02
	.byte		c_v+47
	.byte	W01
	.byte		c_v+42
	.byte	W02
	.byte		c_v+36
	.byte	W01
	.byte		c_v+30
	.byte	W02
	.byte		c_v+25
	.byte	W01
	.byte		c_v+19
	.byte	W02
	.byte		c_v+13
	.byte	W01
	.byte		c_v+8
	.byte	W02
	.byte		c_v
	.byte		N96	, Cn6
	.byte	W01
	.byte	BEND	, c_v+13
	.byte	W01
	.byte		c_v+19
	.byte	W01
	.byte		c_v+26
	.byte	W01
	.byte		c_v+39
	.byte	W01
	.byte		c_v+45
	.byte	W01
	.byte		c_v+52
	.byte	W01
	.byte		c_v+63
	.byte	W01
	.byte		c_v+55
	.byte	W01
	.byte		c_v+39
	.byte	W01
	.byte		c_v+31
	.byte	W01
	.byte		c_v+23
	.byte	W01
	.byte		c_v+6
	.byte	W01
	.byte		c_v
	.byte	W01
	.byte		c_v+13
	.byte	W01
	.byte		c_v+19
	.byte	W01
	.byte		c_v+26
	.byte	W01
	.byte		c_v+39
	.byte	W01
	.byte		c_v+46
	.byte	W01
	.byte		c_v+46
	.byte	W01
	.byte		c_v+41
	.byte	W01
	.byte		c_v+36
	.byte	W01
	.byte		c_v+25
	.byte	W01
	.byte		c_v+20
	.byte	W01
	.byte		c_v+14
	.byte	W01
	.byte		c_v+4
	.byte	W01
	.byte		c_v
	.byte	W01
	.byte		c_v+9
	.byte	W01
	.byte		c_v+14
	.byte	W01
	.byte		c_v+19
	.byte	W01
	.byte		c_v+29
	.byte	W01
	.byte		c_v+34
	.byte	W01
	.byte		c_v+39
	.byte	W01
	.byte		c_v+26
	.byte	W01
	.byte		c_v+19
	.byte	W01
	.byte		c_v+12
	.byte	W01
	.byte		c_v-2
	.byte	W01
	.byte		c_v-9
	.byte	W01
	.byte		c_v-16
	.byte	W01
	.byte		c_v-29
	.byte	W01
	.byte		c_v-36
	.byte	W01
	.byte		c_v-43
	.byte	W01
	.byte		c_v-46
	.byte	W01
	.byte		c_v-42
	.byte	W01
	.byte		c_v-38
	.byte	W01
	.byte		c_v-30
	.byte	W01
	.byte		c_v-26
	.byte	W01
	.byte		c_v-22
	.byte	W01
	.byte		c_v-14
	.byte	W01
	.byte		c_v-10
	.byte	W01
	.byte		c_v-6
	.byte	W01
	.byte		c_v+2
	.byte	W01
	.byte		c_v+5
	.byte	W01
	.byte		c_v+9
	.byte	W01
	.byte		c_v+17
	.byte	W01
	.byte		c_v+21
	.byte	W01
	.byte		c_v+25
	.byte	W01
	.byte		c_v+33
	.byte	W01
	.byte		c_v+37
	.byte	W01
	.byte		c_v+41
	.byte	W01
	.byte		c_v+49
	.byte	W01
	.byte		c_v+53
	.byte	W01
	.byte		c_v+56
	.byte	W01
	.byte		c_v+63
	.byte	W01
	.byte		c_v+53
	.byte	W01
	.byte		c_v+47
	.byte	W01
	.byte		c_v+42
	.byte	W01
	.byte		c_v+31
	.byte	W01
	.byte		c_v+25
	.byte	W01
	.byte		c_v+20
	.byte	W01
	.byte		c_v+9
	.byte	W01
	.byte		c_v+3
	.byte	W01
	.byte		c_v
	.byte	W01
	.byte		c_v+4
	.byte	W02
	.byte		c_v+9
	.byte	W01
	.byte		c_v+14
	.byte	W02
	.byte		c_v+18
	.byte	W01
	.byte		c_v+24
	.byte	W01
	.byte		c_v+30
	.byte	W01
	.byte		c_v+42
	.byte	W01
	.byte		c_v+48
	.byte	W01
	.byte		c_v+54
	.byte	W01
	.byte		c_v+63
	.byte	W12
song032_8_2:
	.byte	VOICE	, 31
	.byte	VOL	, v042
	.byte	PAN	, c_v
	.byte	MODT	, 0
	.byte	TUNE	, c_v
	.byte	MOD	, 0
	.byte	BEND	, c_v
	.byte	W23
	.byte		N06	, Gs5, v100
	.byte	W04
	.byte		N20	, An5, v104
	.byte	W09
	.byte	MOD	, 10
	.byte	W12
	.byte		0
	.byte		N12	, An5, v096
	.byte	W12
	.byte		N06	, Gn5, v104
	.byte	W24
	.byte			Fn5
	.byte	W12
	.byte	PEND
song032_8_3:
	.byte	W12
	.byte		N06	, Fn5, v096
	.byte	W11
	.byte			Gs5, v100
	.byte	W04
	.byte		N20	, An5, v104
	.byte	W09
	.byte	MOD	, 10
	.byte	W12
	.byte		0
	.byte		N12	, Fn5, v096
	.byte	W12
	.byte		N06	, En5, v104
	.byte	W24
	.byte			Dn5, v100
	.byte	W12
	.byte	PEND
song032_8_4:
	.byte	W12
	.byte		N06	, As4, v096
	.byte	W11
	.byte			En5, v100
	.byte	W04
	.byte		N20	, Fn5, v104
	.byte	W09
	.byte	MOD	, 10
	.byte	W12
	.byte		0
	.byte		N12	, En5, v096
	.byte	W12
	.byte		N06	, Dn5, v104
	.byte	W24
	.byte		N36	, Dn5, v100
	.byte	W12
	.byte	PEND
song032_8_5:
	.byte	W12
	.byte	MOD	, 10
	.byte	W12
	.byte		0
	.byte		N12	, En5, v100
	.byte	W12
	.byte		N54	, Cn5
	.byte	W24
	.byte	MOD	, 15
	.byte	W36
	.byte	PEND
	.byte	PATT	
		.word	song032_8_2
	.byte	PATT	
		.word	song032_8_3
song032_8_6:
	.byte	W12
	.byte		N06	, As4, v096
	.byte	W11
	.byte			En5, v100
	.byte	W04
	.byte		N20	, Fn5, v104
	.byte	W09
	.byte	MOD	, 10
	.byte	W12
	.byte		0
	.byte		N12	, En5, v096
	.byte	W12
	.byte		N06	, Dn5, v104
	.byte	W12
	.byte		N18	, As4, v100
	.byte	W23
	.byte	VOICE	, 23
	.byte	VOL	, v038
	.byte	PAN	, c_v-30
	.byte	MODT	, 0
	.byte	TUNE	, c_v
	.byte	W01
	.byte	PEND
song032_8_7:
	.byte	MOD	, 0
	.byte	BEND	, c_v+63
	.byte		N92	, Cn6, v104
	.byte	W01
	.byte	BEND	, c_v+59
	.byte	W02
	.byte		c_v+54
	.byte	W01
	.byte		c_v+49
	.byte	W02
	.byte		c_v+44
	.byte	W01
	.byte		c_v+39
	.byte	W02
	.byte		c_v+34
	.byte	W01
	.byte		c_v+29
	.byte	W02
	.byte		c_v+24
	.byte	W01
	.byte		c_v+19
	.byte	W02
	.byte		c_v+14
	.byte	W01
	.byte		c_v+9
	.byte	W02
	.byte		c_v+4
	.byte	W01
	.byte		c_v
	.byte	W01
	.byte		c_v+5
	.byte	W02
	.byte		c_v+11
	.byte	W01
	.byte		c_v+17
	.byte	W02
	.byte		c_v+23
	.byte	W01
	.byte		c_v+29
	.byte	W02
	.byte		c_v+35
	.byte	W01
	.byte		c_v+41
	.byte	W02
	.byte		c_v+36
	.byte	W01
	.byte		c_v+31
	.byte	W02
	.byte		c_v+26
	.byte	W01
	.byte		c_v+21
	.byte	W02
	.byte		c_v+15
	.byte	W01
	.byte		c_v+10
	.byte	W02
	.byte		c_v+5
	.byte	W01
	.byte		c_v
	.byte	W02
	.byte		c_v-5
	.byte	W01
	.byte		c_v-11
	.byte	W02
	.byte		c_v-16
	.byte	W01
	.byte		c_v-21
	.byte	W01
	.byte		c_v-19
	.byte	W01
	.byte		c_v-15
	.byte	W01
	.byte		c_v-11
	.byte	W01
	.byte		c_v-2
	.byte	W01
	.byte		c_v+2
	.byte	W01
	.byte		c_v+6
	.byte	W01
	.byte		c_v+14
	.byte	W01
	.byte		c_v+19
	.byte	W01
	.byte		c_v+23
	.byte	W01
	.byte		c_v+31
	.byte	W01
	.byte		c_v+35
	.byte	W01
	.byte		c_v+40
	.byte	W01
	.byte		c_v+48
	.byte	W01
	.byte		c_v+48
	.byte	W01
	.byte		c_v+44
	.byte	W01
	.byte		c_v+41
	.byte	W01
	.byte		c_v+34
	.byte	W01
	.byte		c_v+30
	.byte	W01
	.byte		c_v+27
	.byte	W01
	.byte		c_v+20
	.byte	W01
	.byte		c_v+16
	.byte	W01
	.byte		c_v+13
	.byte	W01
	.byte		c_v+5
	.byte	W01
	.byte		c_v+2
	.byte	W01
	.byte		c_v+9
	.byte	W01
	.byte		c_v+18
	.byte	W01
	.byte		c_v+27
	.byte	W01
	.byte		c_v+46
	.byte	W01
	.byte		c_v+55
	.byte	W01
	.byte		c_v+63
	.byte	W19
	.byte	PEND
	.byte	VOICE	, 31
	.byte	VOL	, v042
	.byte	PAN	, c_v-30
	.byte	MODT	, 0
	.byte	TUNE	, c_v
	.byte	MOD	, 0
	.byte	BEND	, c_v
	.byte	W23
	.byte		N06	, Gs5, v100
	.byte	W04
	.byte		N20	, An5, v104
	.byte	W09
	.byte	MOD	, 10
	.byte	W12
	.byte		0
	.byte		N12	, An5, v096
	.byte	W12
	.byte		N06	, Gn5, v104
	.byte	W24
	.byte			Fn5
	.byte	W12
	.byte	PATT	
		.word	song032_8_3
	.byte	PATT	
		.word	song032_8_4
	.byte	PATT	
		.word	song032_8_5
	.byte	MOD	, 0
	.byte	W23
	.byte		N06	, Gs5, v100
	.byte	W04
	.byte		N20	, An5, v104
	.byte	W09
	.byte	MOD	, 10
	.byte	W12
	.byte		0
	.byte		N12	, An5, v096
	.byte	W12
	.byte		N06	, Gn5, v104
	.byte	W24
	.byte			Fn5
	.byte	W12
	.byte	PATT	
		.word	song032_8_3
	.byte	PATT	
		.word	song032_8_6
	.byte	PATT	
		.word	song032_8_7
	.byte	VOICE	, 23
	.byte	VOL	, v042
	.byte	PAN	, c_v
	.byte	MODT	, 0
	.byte	TUNE	, c_v
	.byte	MOD	, 0
	.byte	BEND	, c_v
	.byte	W12
	.byte		N06	, An5, v064
	.byte	W12
	.byte			Dn6, v084
	.byte	W24
	.byte			An5, v064
	.byte	W48
	.byte	W12
	.byte		N06	
	.byte	W12
	.byte			Dn6, v084
	.byte	W12
	.byte			Gn5, v064
	.byte	W12
	.byte			Gn5, v052
	.byte	W12
	.byte			Gn5, v036
	.byte	W36
	.byte	W12
	.byte			Gn5, v064
	.byte	W12
	.byte			Cn6, v084
	.byte	W24
	.byte			Gn5, v064
	.byte	W48
	.byte	W12
	.byte			Fn5
	.byte	W12
	.byte			Cn6, v084
	.byte	W12
	.byte			Fn5, v064
	.byte	W12
	.byte			Fn5, v052
	.byte	W12
	.byte			Fn5, v036
	.byte	W36
	.byte	W48
	.byte	VOICE	, 31
	.byte	VOL	, v042
	.byte	PAN	, c_v+30
	.byte	MODT	, 0
	.byte	TUNE	, c_v
	.byte	MOD	, 0
	.byte	BEND	, c_v
	.byte	W48
	.byte		N06	, Cn5, v116
	.byte	W12
	.byte			An4, v112
	.byte	W12
	.byte			As4
	.byte	W12
	.byte			Gn4, v104
	.byte	W12
	.byte			An4, v112
	.byte	W12
	.byte			Fn4, v104
	.byte	W12
	.byte			Gn4, v112
	.byte	W12
	.byte			En4, v104
	.byte	W12
	.byte			Fn4, v100
	.byte	W18
	.byte	PAN	, c_v-30
	.byte	W06
	.byte		N04	, Cn5, v116
	.byte	W06
	.byte		N03	, Bn4, v104
	.byte	W06
	.byte		N04	, Cn5, v116
	.byte	W36
	.byte		N04	
	.byte	W06
	.byte		N03	, Bn4, v104
	.byte	W06
	.byte		N04	, Cn5, v116
	.byte	W12
	.byte	PATT	
		.word	song032_8_8
	.byte	PATT	
		.word	song032_8_9
	.byte		N04	, Cn5, v116
	.byte	W06
	.byte		N03	, Cn5, v076
	.byte	W06
	.byte			As4, v116
	.byte	W12
	.byte		N04	, Fn4
	.byte	W06
	.byte		N03	, Fn4, v076
	.byte	W06
	.byte			Ds4, v116
	.byte	W12
	.byte		N04	, Gn4
	.byte	W06
	.byte		N03	, Gn4, v076
	.byte	W06
	.byte			As4, v116
	.byte	W12
	.byte		N04	, Cs5
	.byte	W06
	.byte		N03	, Cs5, v076
	.byte	W06
	.byte		N06	, Fn5, v116
	.byte	W12
	.byte	W18
	.byte	PAN	, c_v-30
	.byte	W06
	.byte		N04	, Cn5
	.byte	W06
	.byte		N03	, Bn4, v104
	.byte	W06
	.byte		N04	, Cn5, v116
	.byte	W36
	.byte		N04	
	.byte	W06
	.byte		N03	, Bn4, v104
	.byte	W06
	.byte		N04	, Cn5, v116
	.byte	W12
	.byte	PATT	
		.word	song032_8_8
	.byte	PATT	
		.word	song032_8_9
	.byte	PATT	
		.word	song032_8_10
	.byte	GOTO	
		.word	song032_8_11
	.byte	FINE

	@********************** Track  9 **********************@

	.global song032_9
song032_9:	@ 0x0827AC49
	.byte	KEYSH	, 0
	.byte	VOICE	, 24
	.byte	VOL	, v021
	.byte	TUNE	, c_v-10
	.byte	W96
	.byte	W03
	.byte		N06	, En5, v104
	.byte	W12
	.byte			Cn5, v100
	.byte	W12
	.byte			Dn5
	.byte	W12
	.byte			As4, v096
	.byte	W12
	.byte			Cn5, v100
	.byte	W12
	.byte			An4, v096
	.byte	W12
	.byte			As4, v100
	.byte	W12
	.byte			Dn5
	.byte	W09
	.byte	W03
	.byte			Fn5, v104
	.byte	W92
	.byte	W01
	.byte	W96
	.byte	W96
	.byte	W96
song032_9_5:
	.byte	W02
	.byte	VOICE	, 24
	.byte	VOL	, v021
	.byte	PAN	, c_v
	.byte	TUNE	, c_v-10
	.byte	W01
	.byte		N06	, An3, v064
	.byte	W12
	.byte			As3, v096
	.byte	W24
	.byte			Cn4, v104
	.byte	W24
	.byte			Cs4, v076
	.byte	W12
	.byte			Dn4, v096
	.byte	W12
	.byte			An4, v104
	.byte	W09
	.byte	W60
	.byte	W03
	.byte		N06	
	.byte	W24
	.byte			Gn4, v096
	.byte	W09
	.byte	W96
	.byte	W96
	.byte	W03
	.byte			Gn3, v064
	.byte	W12
	.byte			An3, v096
	.byte	W24
	.byte			As3, v104
	.byte	W24
	.byte			Cn4, v076
	.byte	W12
	.byte			Dn4, v096
	.byte	W12
	.byte			Gn4, v104
	.byte	W09
	.byte	W60
	.byte	W03
	.byte			An4
	.byte	W24
	.byte			Fn4, v096
	.byte	W09
	.byte	W96
	.byte	W96
	.byte	W03
	.byte			An3, v064
	.byte	W12
	.byte			As3, v096
	.byte	W24
	.byte			Cn4, v104
	.byte	W24
	.byte			Cs4, v076
	.byte	W12
	.byte			Dn4, v096
	.byte	W12
	.byte			An4, v104
	.byte	W09
	.byte	W60
	.byte	W03
	.byte			Gn4, v096
	.byte	W12
	.byte			An4, v104
	.byte	W12
	.byte			As4, v112
	.byte	W09
	.byte	W96
	.byte	W60
	.byte	W03
	.byte			Dn5
	.byte	W32
	.byte	W01
song032_9_1:
	.byte	W03
	.byte		N06	, Cn5, v104
	.byte	W12
	.byte			An4, v100
	.byte	W24
	.byte			As4
	.byte	W12
	.byte			Gn4, v096
	.byte	W24
	.byte			An4, v100
	.byte	W12
	.byte			Fn4, v096
	.byte	W09
	.byte	PEND
	.byte	W15
	.byte			Gn4, v092
	.byte	W24
	.byte			An4, v096
	.byte	W12
	.byte			As4, v100
	.byte	W12
	.byte			As4, v096
	.byte	W12
	.byte			Dn5, v112
	.byte	W12
	.byte			Dn5, v100
	.byte	W09
	.byte	PATT	
		.word	song032_9_1
	.byte	W15
	.byte		N06	, Gn4, v092
	.byte	W24
	.byte			An4, v096
	.byte	W12
	.byte			As4, v100
	.byte	W12
	.byte			As4, v096
	.byte	W12
	.byte			Dn5, v112
	.byte	W21
song032_9_4:
	.byte	W03
	.byte		N06	, En5, v104
	.byte	W12
	.byte			Cn5, v100
	.byte	W12
	.byte			Dn5
	.byte	W12
	.byte			As4, v096
	.byte	W12
	.byte			Cn5, v100
	.byte	W12
	.byte			An4, v096
	.byte	W12
	.byte			As4, v100
	.byte	W12
	.byte			Gn4, v096
	.byte	W09
	.byte	PEND
	.byte	W03
	.byte			An4, v092
	.byte	W12
	.byte			As4, v096
	.byte	W12
	.byte			Cn5, v100
	.byte	W12
	.byte			Dn5, v096
	.byte	W12
	.byte			En5, v112
	.byte	W12
	.byte			Fn5, v100
	.byte	W12
	.byte			Gn5, v104
	.byte	W12
	.byte			Gs5, v112
	.byte	W09
	.byte	W03
	.byte			An5, v116
	.byte	W92
	.byte	PAN	, c_v
	.byte	W01
	.byte		N06	, Gn3, v076
	.byte	W06
	.byte			Gn4
	.byte	W06
	.byte			An3, v084
	.byte	W06
	.byte			An4
	.byte	W06
	.byte			As3, v096
	.byte	W06
	.byte			As4
	.byte	W06
	.byte			Dn4, v104
	.byte	W06
	.byte			Dn5
	.byte	W06
	.byte			Gn3, v076
	.byte	W06
	.byte			Gn4
	.byte	W06
	.byte			An3, v084
	.byte	W06
	.byte			An4
	.byte	W06
	.byte			As3, v096
	.byte	W06
	.byte			As4
	.byte	W06
	.byte			Dn4, v104
	.byte	W06
	.byte			Dn5
	.byte	W06
	.byte			Cn4, v076
	.byte	W06
	.byte			Cn5
	.byte	W06
	.byte			Dn4, v084
	.byte	W06
	.byte			Dn5
	.byte	W06
	.byte			En4, v096
	.byte	W06
	.byte			En5
	.byte	W06
	.byte			Gn4, v104
	.byte	W06
	.byte			Gn5
	.byte	W06
	.byte			Cn4, v076
	.byte	W06
	.byte			Cn5
	.byte	W06
	.byte			Dn4, v084
	.byte	W06
	.byte			Dn5
	.byte	W06
	.byte			En4, v096
	.byte	W06
	.byte			En5
	.byte	W06
	.byte			Gn4, v104
	.byte	W06
	.byte			Gn5
	.byte	W06
	.byte			Cs4, v076
	.byte	W06
	.byte			Cs5
	.byte	W06
	.byte			Ds4, v084
	.byte	W06
	.byte			Ds5
	.byte	W06
	.byte			Fn4, v096
	.byte	W06
	.byte			Fn5
	.byte	W06
	.byte			Gs4, v104
	.byte	W06
	.byte			Gs5
	.byte	W06
	.byte			Cs4, v076
	.byte	W06
	.byte			Cs5
	.byte	W06
	.byte			Ds4, v084
	.byte	W06
	.byte			Ds5
	.byte	W06
	.byte			Fn4, v096
	.byte	W06
	.byte			Fn5
	.byte	W06
	.byte			Gs4, v104
	.byte	W06
	.byte			Gs5
	.byte	W06
	.byte			Ds4, v076
	.byte	W06
	.byte			Ds5
	.byte	W06
	.byte			Fn4, v084
	.byte	W06
	.byte			Fn5
	.byte	W06
	.byte			Gn4, v096
	.byte	W06
	.byte			Gn5
	.byte	W06
	.byte			An4, v104
	.byte	W06
	.byte			An5
	.byte	W06
	.byte			Ds4, v076
	.byte	W06
	.byte			Ds5
	.byte	W06
	.byte			Fn4, v084
	.byte	W06
	.byte			Fn5
	.byte	W06
	.byte			Gn4, v096
	.byte	W06
	.byte			Gn5
	.byte	W06
	.byte			An4, v104
	.byte	W06
	.byte			An5
	.byte	W06
	.byte			En4, v080
	.byte	W06
	.byte			En5
	.byte	W06
	.byte			Fs4, v092
	.byte	W06
	.byte			Fs5
	.byte	W06
	.byte			Gs4, v100
	.byte	W06
	.byte			Gs5
	.byte	W06
	.byte			As4, v112
	.byte	W06
	.byte			As5
	.byte	W06
	.byte			En4, v080
	.byte	W06
	.byte			En5
	.byte	W06
	.byte			Fs4, v092
	.byte	W06
	.byte			Fs5
	.byte	W06
	.byte			Gs4, v100
	.byte	W06
	.byte			Gs5
	.byte	W06
	.byte			As4, v112
	.byte	W06
	.byte			As5
	.byte	W06
	.byte			Fs4, v080
	.byte	W06
	.byte			Fs5
	.byte	W06
	.byte			Gs4, v092
	.byte	W06
	.byte			Gs5
	.byte	W06
	.byte			As4, v100
	.byte	W06
	.byte			As5
	.byte	W06
	.byte			Cn5, v112
	.byte	W06
	.byte			Cn6
	.byte	W06
	.byte			Fs4, v080
	.byte	W06
	.byte			Fs5
	.byte	W06
	.byte			Gs4, v092
	.byte	W06
	.byte			Gs5
	.byte	W06
	.byte			As4, v100
	.byte	W06
	.byte			As5
	.byte	W06
	.byte			Cn5, v112
	.byte	W06
	.byte			Cn6
	.byte	W06
	.byte			Gs4, v084
	.byte	W06
	.byte			Gs5
	.byte	W06
	.byte			As4, v096
	.byte	W06
	.byte			As5
	.byte	W06
	.byte			Cn5, v104
	.byte	W06
	.byte			Cn6
	.byte	W06
	.byte			Dn5, v116
	.byte	W06
	.byte			Dn6
	.byte	W06
	.byte			Gs4, v084
	.byte	W06
	.byte			Gs5
	.byte	W06
	.byte			As4, v096
	.byte	W06
	.byte			As5
	.byte	W06
	.byte			Cn5, v104
	.byte	W06
	.byte			Cn6
	.byte	W06
	.byte			Dn5, v116
	.byte	W06
	.byte			Dn6
	.byte	W06
	.byte			As4, v092
	.byte	W06
	.byte			As5
	.byte	W06
	.byte			Cn5, v100
	.byte	W06
	.byte			Cn6
	.byte	W06
	.byte			Dn5, v112
	.byte	W06
	.byte			Dn6
	.byte	W06
	.byte			En5, v120
	.byte	W06
	.byte			En6
	.byte	W06
	.byte			As4, v092
	.byte	W06
	.byte			As5
	.byte	W06
	.byte			Cn5, v100
	.byte	W06
	.byte			Cn6
	.byte	W06
	.byte			Dn5, v112
	.byte	W06
	.byte			Dn6
	.byte	W06
	.byte			En5, v120
	.byte	W06
	.byte			En6
	.byte	W06
	.byte	W96
	.byte	W96
	.byte	W96
	.byte	W96
	.byte	W96
	.byte	W96
	.byte	W96
	.byte	W92
	.byte	W03
	.byte	TUNE	, c_v
	.byte	W01
song032_9_2:
	.byte		N12	, Cn4, v084
	.byte	W24
	.byte		N24	, Fn4, v104
	.byte	W24
	.byte		N12	, En4
	.byte	W12
	.byte			Dn4, v100
	.byte	W12
	.byte			Cn4, v096
	.byte	W12
	.byte			An3, v092
	.byte	W12
	.byte	PEND
song032_9_3:
	.byte	W12
	.byte		N12	, An3, v096
	.byte	W12
	.byte		N24	, Dn4, v104
	.byte	W24
	.byte		N12	, An3
	.byte	W12
	.byte			Gn3, v100
	.byte	W24
	.byte			Fn3, v096
	.byte	W12
	.byte	PEND
	.byte	W12
	.byte			Fn3, v092
	.byte	W12
	.byte		N24	, Dn4, v104
	.byte	W24
	.byte		N12	, An3, v100
	.byte	W12
	.byte			Gn3, v096
	.byte	W24
	.byte		N42	, An3, v104
	.byte	W12
	.byte	W36
	.byte		N36	, Gn3, v100
	.byte	W36
	.byte		N12	, Cn4, v104
	.byte	W24
	.byte	PATT	
		.word	song032_9_2
	.byte	PATT	
		.word	song032_9_3
	.byte	W12
	.byte		N12	, Fn3, v092
	.byte	W12
	.byte			Dn4, v104
	.byte	W12
	.byte			Fn3, v096
	.byte	W12
	.byte			An3, v100
	.byte	W12
	.byte			As3
	.byte	W24
	.byte		N22	, Ds4, v104
	.byte	W12
	.byte	W12
	.byte		N06	
	.byte	W12
	.byte			Dn4
	.byte	W12
	.byte		N18	, Cn4, v096
	.byte	W18
	.byte		N06	, Dn4
	.byte	W06
	.byte			En4, v100
	.byte	W06
	.byte			Fn4, v104
	.byte	W06
	.byte			Gn4, v112
	.byte	W12
	.byte			Cn4, v104
	.byte	W12
	.byte	W36
	.byte			Gn4, v096
	.byte	W24
	.byte		N06	
	.byte	W12
	.byte			Dn4, v092
	.byte	W24
	.byte			An4, v100
	.byte	W48
	.byte		N06	
	.byte	W24
	.byte			Gn4, v096
	.byte	W24
	.byte	W12
	.byte			Cn5, v084
	.byte	W24
	.byte			Dn5, v104
	.byte	W24
	.byte			Cn5, v084
	.byte	W24
	.byte			Dn5, v104
	.byte	W12
	.byte	W24
	.byte			As4, v096
	.byte	W24
	.byte			An4, v084
	.byte	W24
	.byte			As4, v096
	.byte	W24
	.byte		N48	, Gn4, v092
	.byte	W48
	.byte		N06	, An4
	.byte	W06
	.byte			As4
	.byte	W06
	.byte		N30	, Dn5
	.byte	W36
	.byte	PATT	
		.word	song032_9_4
	.byte	W03
	.byte		N06	, Fn4, v092
	.byte	W92
	.byte	W01
	.byte	W96
	.byte	W96
	.byte	W96
	.byte	W06
	.byte	BEND	, c_v
	.byte		N03	, Bn2, v064
	.byte	W03
	.byte		N07	, Cn3, v080
	.byte	W09
	.byte		N10	, Dn3, v076
	.byte	W12
	.byte			Fn3, v092
	.byte	W12
	.byte			An2, v076
	.byte	W12
	.byte			Gn3, v092
	.byte	W12
	.byte			An2, v076
	.byte	W12
	.byte			An3, v092
	.byte	W12
	.byte		N16	, Cn3, v076
	.byte	W06
	.byte	W12
	.byte		N04	, Gn3
	.byte	W06
	.byte		N10	, Fn3
	.byte	W12
	.byte		N03	, An3, v064
	.byte	W03
	.byte		N19	, As3, v092
	.byte	W21
	.byte		N13	, An3
	.byte	W14
	.byte		N04	, As3, v076
	.byte	W04
	.byte			An3
	.byte	W06
	.byte		N20	, Gn3, v092
	.byte	W18
	.byte	W06
	.byte	BEND	, c_v-48
	.byte		N11	, Dn4
	.byte	W01
	.byte	BEND	, c_v-45
	.byte	W01
	.byte		c_v-41
	.byte	W01
	.byte		c_v-34
	.byte	W01
	.byte		c_v-31
	.byte	W01
	.byte		c_v-28
	.byte	W01
	.byte		c_v-21
	.byte	W01
	.byte		c_v-17
	.byte	W01
	.byte		c_v-14
	.byte	W01
	.byte		c_v-7
	.byte	W01
	.byte		c_v-4
	.byte	W01
	.byte		c_v
	.byte	W01
	.byte		N11	, Cn4, v088
	.byte	W12
	.byte			An3, v084
	.byte	W12
	.byte			Fn3, v080
	.byte	W12
	.byte		N05	, Cn3, v076
	.byte	W03
	.byte		N07	, Dn3, v092
	.byte	W09
	.byte		N11	, Cn3, v080
	.byte	W24
	.byte	BEND	, c_v-52
	.byte		N92	, As3, v084
	.byte	W01
	.byte	BEND	, c_v-47
	.byte	W02
	.byte		c_v-42
	.byte	W01
	.byte		c_v-37
	.byte	W02
	.byte		c_v-32
	.byte	W01
	.byte		c_v-27
	.byte	W02
	.byte		c_v-22
	.byte	W01
	.byte		c_v-17
	.byte	W02
	.byte		c_v-11
	.byte	W01
	.byte		c_v-6
	.byte	W02
	.byte		c_v
	.byte	W84
	.byte	W03
	.byte	GOTO	
		.word	song032_9_5
	.byte	FINE

	@********************** Track  10 **********************@

	.global song032_10
song032_10:	@ 0x0827AFEB
	.byte	KEYSH	, 0
	.byte	VOICE	, 49
	.byte	VOL	, v085
	.byte	BENDR	, 6
	.byte	LFOS	, 44
	.byte		N48	, Cn2, v104
	.byte	W48
	.byte			Cn3, v116
	.byte	W48
song032_10_10:
	.byte	BEND	, c_v
	.byte		N12	, Cn2, v104
	.byte	W12
	.byte		N18	, Cn3, v116
	.byte	W24
	.byte		N06	, Cn3, v104
	.byte	W12
	.byte			As2, v116
	.byte	W12
	.byte			As2, v104
	.byte	W12
	.byte		N12	, An2
	.byte	W12
	.byte			Gn2, v116
	.byte	W12
	.byte	PEND
song032_10_1:
	.byte		N12	, Fn1, v104
	.byte	W24
	.byte		N30	, Fn2, v116
	.byte	W36
	.byte		N06	
	.byte	W12
	.byte			Fn2, v096
	.byte	W12
	.byte		N12	, Ds2, v116
	.byte	W12
	.byte	PEND
song032_10_2:
	.byte	W12
	.byte		N06	, Ds1, v104
	.byte	W12
	.byte		N18	, Ds2, v116
	.byte	W24
	.byte		N06	, Ds2, v096
	.byte	W12
	.byte			Gn2, v116
	.byte	W12
	.byte			Ds2, v096
	.byte	W12
	.byte		N12	, As1, v116
	.byte	W12
	.byte	PEND
	.byte	PATT	
		.word	song032_10_1
	.byte	PATT	
		.word	song032_10_2
song032_10_3:
	.byte		N12	, Fn1, v104
	.byte	W24
	.byte		N24	, Fn2, v116
	.byte	W24
	.byte		N12	, Ds2
	.byte	W12
	.byte			Dn2, v096
	.byte	W12
	.byte			Cn2, v084
	.byte	W12
	.byte		N06	, Fn2, v116
	.byte	W12
	.byte	PEND
song032_10_4:
	.byte	W12
	.byte		N06	, Fn1, v104
	.byte	W12
	.byte		N18	, Fn2, v116
	.byte	W24
	.byte		N12	, Fn2, v096
	.byte	W12
	.byte		N06	, An2, v116
	.byte	W12
	.byte			Fn2, v096
	.byte	W12
	.byte		N12	, Cn2, v116
	.byte	W12
	.byte	PEND
song032_10_5:
	.byte		N12	, Gn1, v104
	.byte	W24
	.byte		N24	, Gn2, v116
	.byte	W24
	.byte		N12	, Fn2
	.byte	W12
	.byte			En2, v096
	.byte	W12
	.byte			Dn2, v084
	.byte	W12
	.byte			Gn2, v116
	.byte	W12
	.byte	PEND
	.byte	BEND	, c_v-27
	.byte		N24	, As2
	.byte	W01
	.byte	BEND	, c_v-23
	.byte	W02
	.byte		c_v-18
	.byte	W01
	.byte		c_v-13
	.byte	W02
	.byte		c_v-8
	.byte	W01
	.byte		c_v-3
	.byte	W01
	.byte		c_v
	.byte	W04
	.byte	MOD	, 12
	.byte	W12
	.byte		0
	.byte		N24	, Gn2, v108
	.byte	W24
	.byte		N06	, Dn2, v104
	.byte	W12
	.byte		N12	, Gn2
	.byte	W12
	.byte		N24	, Gn1, v096
	.byte	W09
	.byte	BEND	, c_v
	.byte	W01
	.byte		c_v-2
	.byte	W02
	.byte		c_v-4
	.byte	W01
	.byte		c_v-6
	.byte	W02
	.byte		c_v-8
	.byte	W01
	.byte		c_v-13
	.byte	W01
	.byte		c_v-16
	.byte	W01
	.byte		c_v-19
	.byte	W01
	.byte		c_v-25
	.byte	W01
	.byte		c_v-31
	.byte	W01
	.byte		c_v-44
	.byte	W03
	.byte		c_v
	.byte		N12	, Cn2, v104
	.byte	W24
	.byte		N24	, Cn3, v116
	.byte	W24
	.byte		N12	, As2
	.byte	W12
	.byte			An2, v096
	.byte	W12
	.byte			Gn2, v084
	.byte	W12
	.byte		N06	, Cn3, v116
	.byte	W12
	.byte	W12
	.byte			Cn2, v104
	.byte	W12
	.byte		N24	, Cn3, v112
	.byte	W24
	.byte	MOD	, 7
	.byte		N12	, En3, v116
	.byte	W12
	.byte			Cn3, v112
	.byte	W12
	.byte	MOD	, 0
	.byte		N12	, Gn2, v104
	.byte	W12
	.byte			En2, v092
	.byte	W12
	.byte	MOD	, 0
	.byte		N12	, Fn1, v104
	.byte	W12
	.byte		N06	, Fn2
	.byte	W12
	.byte			Cn3, v116
	.byte	W12
	.byte		N12	, Fn3
	.byte	W12
	.byte			En3, v096
	.byte	W12
	.byte			Fn2, v104
	.byte	W24
	.byte		N24	, Fn1, v116
	.byte	W12
	.byte	W12
	.byte		N06	, Fn2, v104
	.byte	W12
	.byte			Cn3, v116
	.byte	W12
	.byte		N12	, Fn3
	.byte	W12
	.byte		N06	, Cn3
	.byte	W12
	.byte		N24	, Fn3
	.byte	W12
	.byte	MOD	, 15
	.byte	W12
	.byte		0
	.byte		N12	, Fn2, v104
	.byte	W12
	.byte	PATT	
		.word	song032_10_3
	.byte	PATT	
		.word	song032_10_4
	.byte	PATT	
		.word	song032_10_5
	.byte	BEND	, c_v-27
	.byte		N24	, As2, v116
	.byte	W01
	.byte	BEND	, c_v-23
	.byte	W02
	.byte		c_v-18
	.byte	W01
	.byte		c_v-13
	.byte	W02
	.byte		c_v-8
	.byte	W01
	.byte		c_v-3
	.byte	W01
	.byte		c_v
	.byte	W04
	.byte	MOD	, 12
	.byte	W12
	.byte		0
	.byte		N24	, Gn2, v108
	.byte	W24
	.byte		N06	, As2, v104
	.byte	W12
	.byte		N12	, Gn2
	.byte	W12
	.byte		N24	, Dn3
	.byte	W09
	.byte	BEND	, c_v
	.byte	W01
	.byte		c_v-2
	.byte	W02
	.byte		c_v-4
	.byte	W01
	.byte		c_v-6
	.byte	W02
	.byte		c_v-8
	.byte	W01
	.byte		c_v-13
	.byte	W01
	.byte		c_v-16
	.byte	W01
	.byte		c_v-19
	.byte	W01
	.byte		c_v-25
	.byte	W01
	.byte		c_v-31
	.byte	W01
	.byte		c_v-44
	.byte	W03
song032_10_6:
	.byte	BEND	, c_v
	.byte		N12	, Cn2, v104
	.byte	W12
	.byte		N18	, Cn3, v116
	.byte	W24
	.byte		N06	, Cn3, v104
	.byte	W12
	.byte		N12	, As2, v116
	.byte	W24
	.byte			Cn2, v104
	.byte	W12
	.byte		N18	, Cn3, v116
	.byte	W12
	.byte	PEND
	.byte	W12
	.byte		N06	, Cn3, v104
	.byte	W12
	.byte		N12	, As2, v116
	.byte	W24
	.byte		N06	
	.byte	W12
	.byte			As2, v104
	.byte	W12
	.byte			Dn3, v116
	.byte	W12
	.byte			Dn3, v104
	.byte	W12
	.byte	PATT	
		.word	song032_10_6
	.byte	W12
	.byte		N06	, Cn3, v104
	.byte	W12
	.byte		N12	, As2, v116
	.byte	W24
	.byte		N04	, Dn3
	.byte	W06
	.byte		N04	
	.byte	W06
	.byte		N12	, As2
	.byte	W12
	.byte			Fn2
	.byte	W12
	.byte			Dn2, v104
	.byte	W12
	.byte	BEND	, c_v
	.byte		N12	, Cn2
	.byte	W12
	.byte		N18	, Cn3, v116
	.byte	W24
	.byte		N06	, Cn3, v104
	.byte	W12
	.byte			As2, v116
	.byte	W12
	.byte			As2, v104
	.byte	W12
	.byte		N12	, Cn2
	.byte	W12
	.byte		N18	, Cn3, v116
	.byte	W12
	.byte	BEND	, c_v
	.byte	W12
	.byte		N06	, Cn3, v104
	.byte	W12
	.byte			As2, v116
	.byte	W12
	.byte			As2, v104
	.byte	W12
	.byte			Cn3, v116
	.byte	W12
	.byte			Cs3, v104
	.byte	W12
	.byte			Dn3, v116
	.byte	W12
	.byte			En3, v104
	.byte	W12
	.byte			Fn3
	.byte	W12
	.byte		N24	, Fn1, v116
	.byte	W24
	.byte		N60	, Fn2
	.byte	W14
	.byte	BEND	, c_v
	.byte	W03
	.byte		c_v-2
	.byte	W03
	.byte		c_v-5
	.byte	W03
	.byte		c_v-7
	.byte	W03
	.byte		c_v-10
	.byte	W03
	.byte		c_v-13
	.byte	W03
	.byte		c_v-15
	.byte	W03
	.byte		c_v-18
	.byte	W03
	.byte		c_v-21
	.byte	W03
	.byte		c_v-23
	.byte	W03
	.byte		c_v-26
	.byte	W03
	.byte		c_v-28
	.byte	W03
	.byte		c_v-31
	.byte	W03
	.byte		c_v-34
	.byte	W03
	.byte		c_v-36
	.byte	W03
	.byte		c_v-39
	.byte	W01
	.byte		c_v
	.byte		N30	, Cn2, v104
	.byte	W36
	.byte		N24	, Cn2, v116
	.byte	W24
	.byte		N06	, Gn2, v084
	.byte	W12
	.byte		N24	, Cn3, v116
	.byte	W10
	.byte	BEND	, c_v
	.byte	W02
	.byte		c_v-5
	.byte	W01
	.byte		c_v-11
	.byte	W02
	.byte		c_v-16
	.byte	W01
	.byte		c_v-22
	.byte	W02
	.byte		c_v-27
	.byte	W01
	.byte		c_v-33
	.byte	W02
	.byte		c_v-38
	.byte	W01
	.byte		c_v-44
	.byte	W01
	.byte		c_v-46
	.byte	W01
	.byte		c_v
	.byte		N30	, Dn2, v104
	.byte	W36
	.byte		N24	, Dn2, v116
	.byte	W24
	.byte		N06	, An2, v084
	.byte	W12
	.byte		N24	, Dn3, v116
	.byte	W24
	.byte	BEND	, c_v
	.byte		N30	, Ds2, v104
	.byte	W36
	.byte		N24	, Ds2, v116
	.byte	W24
	.byte		N06	, As2, v084
	.byte	W12
	.byte		N24	, Ds3, v116
	.byte	W10
	.byte	BEND	, c_v
	.byte	W02
	.byte		c_v-5
	.byte	W01
	.byte		c_v-11
	.byte	W02
	.byte		c_v-16
	.byte	W01
	.byte		c_v-22
	.byte	W02
	.byte		c_v-27
	.byte	W01
	.byte		c_v-33
	.byte	W02
	.byte		c_v-38
	.byte	W01
	.byte		c_v-44
	.byte	W01
	.byte		c_v-46
	.byte	W01
	.byte		c_v
	.byte		N30	, Fn2, v104
	.byte	W36
	.byte		N24	, Fn2, v116
	.byte	W24
	.byte		N06	, Cn3, v084
	.byte	W12
	.byte		N24	, Fn3, v116
	.byte	W24
	.byte		N12	, Fs1, v104
	.byte	W12
	.byte			Fs2, v116
	.byte	W12
	.byte			Fs1, v104
	.byte	W12
	.byte			Fs2, v116
	.byte	W12
	.byte			Fs1, v104
	.byte	W12
	.byte			Fs2, v116
	.byte	W12
	.byte			Fs1, v104
	.byte	W12
	.byte			Fs2, v116
	.byte	W12
	.byte			Gs1, v104
	.byte	W12
	.byte			Gs2, v116
	.byte	W12
	.byte			Gs1, v104
	.byte	W12
	.byte			Gs2, v116
	.byte	W12
	.byte			Gs1, v104
	.byte	W12
	.byte			Gs2, v116
	.byte	W12
	.byte			Gs1, v104
	.byte	W12
	.byte			Gs2, v116
	.byte	W12
	.byte			As1, v104
	.byte	W12
	.byte			As2, v116
	.byte	W12
	.byte			As1, v104
	.byte	W12
	.byte			As2, v116
	.byte	W12
	.byte			As1, v104
	.byte	W12
	.byte			As2, v116
	.byte	W12
	.byte			As1, v104
	.byte	W12
	.byte			As2, v116
	.byte	W12
	.byte			Cn2, v104
	.byte	W12
	.byte			Cn3, v116
	.byte	W12
	.byte			Cn2, v104
	.byte	W12
	.byte			Cn3, v116
	.byte	W12
	.byte			Cn2, v104
	.byte	W12
	.byte			Cn3, v116
	.byte	W12
	.byte			Cn2, v104
	.byte	W12
	.byte			Cn3, v116
	.byte	W12
	.byte	BEND	, c_v
	.byte		N18	, Fn1, v104
	.byte	W24
	.byte		N24	, Fn2, v116
	.byte	W24
	.byte		N12	
	.byte	W12
	.byte			Cn2
	.byte	W24
	.byte			Dn2
	.byte	W12
song032_10_7:
	.byte	W12
	.byte		N12	, Dn2, v116
	.byte	W12
	.byte		N24	, An1, v104
	.byte	W24
	.byte		N12	, An1, v116
	.byte	W12
	.byte			Dn2
	.byte	W36
	.byte	PEND
	.byte		N18	, Gn1, v104
	.byte	W24
	.byte		N24	, Dn2, v116
	.byte	W24
	.byte		N12	, Gn1, v104
	.byte	W12
	.byte			Dn2, v116
	.byte	W12
	.byte		N06	, Gn1, v104
	.byte	W12
	.byte		N18	, Cn2, v116
	.byte	W12
	.byte	W12
	.byte		N12	, Cn2, v104
	.byte	W12
	.byte			Cn3, v116
	.byte	W12
	.byte		N06	, Cn2, v104
	.byte	W12
	.byte		N06	
	.byte	W12
	.byte		N12	
	.byte	W12
	.byte			Cn3, v116
	.byte	W12
	.byte			Cn2, v104
	.byte	W12
	.byte		N18	, Fn1
	.byte	W24
	.byte		N24	, Fn2, v116
	.byte	W24
	.byte		N12	
	.byte	W12
	.byte			Cn2
	.byte	W24
	.byte			Dn2
	.byte	W12
	.byte	PATT	
		.word	song032_10_7
	.byte	BEND	, c_v
	.byte		N18	, Gn1, v104
	.byte	W24
	.byte		N24	, Dn2, v116
	.byte	W24
	.byte		N12	, Gn1, v104
	.byte	W12
	.byte			Dn2, v116
	.byte	W12
	.byte		N06	, Gn1, v104
	.byte	W12
	.byte		N18	, Ds2, v116
	.byte	W12
	.byte	W12
	.byte		N12	, Ds2, v104
	.byte	W12
	.byte			Ds3, v116
	.byte	W12
	.byte		N24	, Cn2, v104
	.byte	W24
	.byte		N12	
	.byte	W12
	.byte		N24	, Cn3, v116
	.byte	W08
	.byte	BEND	, c_v
	.byte	W01
	.byte		c_v-3
	.byte	W02
	.byte		c_v-7
	.byte	W01
	.byte		c_v-10
	.byte	W02
	.byte		c_v-14
	.byte	W01
	.byte		c_v-18
	.byte	W02
	.byte		c_v-21
	.byte	W01
	.byte		c_v-25
	.byte	W02
	.byte		c_v-29
	.byte	W01
	.byte		c_v-32
	.byte	W02
	.byte		c_v-36
	.byte	W01
song032_10_8:
	.byte	BEND	, c_v
	.byte		N10	, Fn1, v104
	.byte	W12
	.byte		N10	
	.byte	W12
	.byte		N11	, Fn2, v116
	.byte	W12
	.byte		N11	
	.byte	W12
	.byte		N12	, En2
	.byte	W12
	.byte			Dn2, v112
	.byte	W12
	.byte			Cn2, v104
	.byte	W12
	.byte			Dn2, v116
	.byte	W12
	.byte	PEND
song032_10_9:
	.byte		N10	, Dn1, v104
	.byte	W12
	.byte		N12	, Dn2, v116
	.byte	W12
	.byte		N10	, An1, v104
	.byte	W12
	.byte		N10	
	.byte	W12
	.byte		N12	, Dn2, v116
	.byte	W12
	.byte			An1
	.byte	W12
	.byte		N10	, Dn1, v104
	.byte	W12
	.byte			An1
	.byte	W12
	.byte	PEND
	.byte		N09	, Gn1
	.byte	W12
	.byte		N24	, Gn2, v116
	.byte	W24
	.byte		N09	, Gn1, v104
	.byte	W12
	.byte		N24	, Gn2, v116
	.byte	W24
	.byte		N09	, Gn1, v104
	.byte	W12
	.byte		N12	, Gn1, v116
	.byte	W12
	.byte			Cn2, v104
	.byte	W12
	.byte			Cn3, v116
	.byte	W12
	.byte			Cn2, v104
	.byte	W12
	.byte			As2, v116
	.byte	W12
	.byte			Cn2, v104
	.byte	W12
	.byte			An2, v116
	.byte	W12
	.byte			Cn2, v104
	.byte	W12
	.byte			Gn2, v116
	.byte	W12
	.byte	PATT	
		.word	song032_10_8
	.byte	PATT	
		.word	song032_10_9
	.byte		N09	, Gn1, v104
	.byte	W12
	.byte		N24	, Gn2, v116
	.byte	W24
	.byte		N09	, Gn1, v104
	.byte	W12
	.byte		N24	, Gn2, v116
	.byte	W24
	.byte		N09	, Gn1, v104
	.byte	W12
	.byte		N24	, Ds2, v116
	.byte	W12
	.byte	W12
	.byte		N12	, Ds3
	.byte	W12
	.byte			Ds2, v104
	.byte	W12
	.byte			Dn3, v116
	.byte	W12
	.byte			Cn2, v104
	.byte	W12
	.byte			Cn3, v116
	.byte	W12
	.byte		N24	, Cn2
	.byte	W24
	.byte	BEND	, c_v
	.byte		N06	, Gn1, v104
	.byte	W12
	.byte		N18	, Gn2, v116
	.byte	W24
	.byte		N06	, Gn1, v104
	.byte	W12
	.byte		N24	, Gn2, v116
	.byte	W24
	.byte		N12	, Gn1, v104
	.byte	W12
	.byte			Gn2, v116
	.byte	W12
	.byte		N06	, Cn2, v104
	.byte	W12
	.byte		N18	, Cn3, v116
	.byte	W24
	.byte		N06	, Cn2, v104
	.byte	W12
	.byte		N24	, Cn3, v116
	.byte	W24
	.byte		N12	, Cn2, v104
	.byte	W12
	.byte			Cn3, v116
	.byte	W12
	.byte		N06	, Fn1, v104
	.byte	W12
	.byte		N18	, Fn2, v116
	.byte	W24
	.byte		N06	, Fn1, v104
	.byte	W12
	.byte		N24	, Fn2, v116
	.byte	W24
	.byte		N12	, Fn1, v104
	.byte	W12
	.byte			Fn2, v116
	.byte	W12
	.byte		N06	, Dn2, v104
	.byte	W12
	.byte		N12	, Dn3, v116
	.byte	W12
	.byte		N24	, Cn3, v112
	.byte	W24
	.byte			As2, v108
	.byte	W24
	.byte			An2, v104
	.byte	W24
	.byte		N06	, Gn1
	.byte	W12
	.byte		N18	, Gn2, v116
	.byte	W24
	.byte		N06	, Gn1, v104
	.byte	W12
	.byte		N24	, Gn2, v116
	.byte	W24
	.byte		N12	, Gn1, v104
	.byte	W12
	.byte			Gn2, v116
	.byte	W12
	.byte	PATT	
		.word	song032_10_10
	.byte	PATT	
		.word	song032_10_1
	.byte	PATT	
		.word	song032_10_2
	.byte	PATT	
		.word	song032_10_1
	.byte	PATT	
		.word	song032_10_2
	.byte	BEND	, c_v
	.byte		N12	, Fn1, v104
	.byte	W24
	.byte		N30	, Fn2, v116
	.byte	W36
	.byte		N06	
	.byte	W12
	.byte			Fn2, v096
	.byte	W12
	.byte		N12	, Ds2, v116
	.byte	W12
	.byte	PATT	
		.word	song032_10_2
	.byte	PATT	
		.word	song032_10_1
	.byte	PATT	
		.word	song032_10_2
	.byte	GOTO	
		.word	song032_10_3
	.byte	FINE

	@********************** Track  11 **********************@

	.global song032_11
song032_11:	@ 0x0827B4D9
	.byte	KEYSH	, 0
	.byte	VOICE	, 89
	.byte	VOL	, v042
	.byte	W96
song032_11_5:
	.byte	W12
	.byte		N03	, Dn5, v116
	.byte	W06
	.byte			Dn4, v092
	.byte	W18
	.byte			Dn5, v116
	.byte	W06
	.byte			Dn4, v092
	.byte	W18
	.byte			Dn5, v116
	.byte	W06
	.byte			Dn4, v092
	.byte	W18
	.byte			Dn5, v116
	.byte	W06
	.byte			Dn4, v092
	.byte	W06
	.byte	PEND
song032_11_1:
	.byte		N03	, Dn5, v104
	.byte	W12
	.byte			Dn4, v080
	.byte	W18
	.byte			Dn5, v104
	.byte	W12
	.byte			Dn4, v080
	.byte	W12
	.byte		N03	
	.byte	W18
	.byte			Dn5, v104
	.byte	W24
	.byte	PEND
	.byte	PATT	
		.word	song032_11_1
	.byte	PATT	
		.word	song032_11_1
song032_11_11:
	.byte		N03	, Dn5, v104
	.byte	W12
	.byte			Dn4, v080
	.byte	W18
	.byte			Dn5, v104
	.byte	W12
	.byte			Dn4, v080
	.byte	W06
	.byte		N01	, As2
	.byte	W01
	.byte			Bn2
	.byte	W02
	.byte			Cn3, v084
	.byte	W01
	.byte			Cs3
	.byte	W02
	.byte			Dn3, v088
	.byte	W01
	.byte			Ds3
	.byte	W02
	.byte			En3, v092
	.byte	W01
	.byte			Fn3, v096
	.byte	W02
	.byte			Fs3, v100
	.byte	W01
	.byte			Gn3, v104
	.byte	W02
	.byte			Gs3, v108
	.byte	W01
	.byte			An3
	.byte	W02
	.byte			As3, v112
	.byte	W01
	.byte			Bn3, v116
	.byte	W02
	.byte			Cn4
	.byte	W03
	.byte			Cn4, v127
	.byte	W07
	.byte			Gn3
	.byte	W02
	.byte			Fs3, v124
	.byte	W01
	.byte			Fn3
	.byte	W02
	.byte			En3, v120
	.byte	W01
	.byte			Ds3, v116
	.byte	W02
	.byte			Dn3, v112
	.byte	W01
	.byte			Cs3
	.byte	W02
	.byte			Cn3, v108
	.byte	W01
	.byte			Bn2, v104
	.byte	W02
	.byte			As2, v100
	.byte	W03
	.byte	PEND
song032_11_2:
	.byte		N03	, Dn5, v104
	.byte	W24
	.byte		N03	
	.byte	W12
	.byte			Dn4, v080
	.byte	W12
	.byte			Dn5, v104
	.byte	W24
	.byte		N03	
	.byte	W12
	.byte			Dn4, v080
	.byte	W12
	.byte	PEND
song032_11_3:
	.byte		N03	, Dn5, v104
	.byte	W24
	.byte		N03	
	.byte	W12
	.byte			Dn4, v080
	.byte	W18
	.byte			Dn5
	.byte	W06
	.byte			Dn5, v104
	.byte	W12
	.byte		N03	
	.byte	W12
	.byte			Dn4, v080
	.byte	W12
	.byte	PEND
	.byte	PATT	
		.word	song032_11_2
	.byte	PATT	
		.word	song032_11_3
	.byte	PATT	
		.word	song032_11_2
	.byte	PATT	
		.word	song032_11_3
	.byte		N03	, Dn5, v104
	.byte	W06
	.byte			Dn4, v080
	.byte	W06
	.byte			Dn5, v104
	.byte	W12
	.byte		N03	
	.byte	W06
	.byte			Dn4, v080
	.byte	W06
	.byte			Dn5, v104
	.byte	W12
	.byte			Dn5, v124
	.byte	W06
	.byte			Dn5, v064
	.byte	W06
	.byte			Dn5, v096
	.byte	W06
	.byte			Dn5, v124
	.byte	W06
	.byte		N01	, Fn4, v120
	.byte	W01
	.byte			En4, v108
	.byte	W02
	.byte			Ds4, v092
	.byte	W01
	.byte			Dn4, v080
	.byte	W02
	.byte			Cs4, v068
	.byte	W01
	.byte			Cn4, v056
	.byte	W02
	.byte			Bn3, v052
	.byte	W01
	.byte			As3, v056
	.byte	W02
	.byte			An3, v060
	.byte	W01
	.byte			Gs3, v064
	.byte	W02
	.byte			Gn3, v068
	.byte	W01
	.byte			As3, v096
	.byte	W02
	.byte			En4, v108
	.byte	W01
	.byte			As4, v120
	.byte	W05
	.byte		N03	, Dn5, v104
	.byte	W06
	.byte			Dn4, v080
	.byte	W06
	.byte			Dn5, v104
	.byte	W12
	.byte		N03	
	.byte	W06
	.byte			Dn4, v080
	.byte	W06
	.byte			Dn5, v104
	.byte	W12
	.byte		N01	, As2, v080
	.byte	W01
	.byte			Bn2
	.byte	W02
	.byte			Cn3, v084
	.byte	W01
	.byte			Cs3
	.byte	W02
	.byte			Dn3, v088
	.byte	W01
	.byte			Ds3
	.byte	W02
	.byte			En3, v092
	.byte	W01
	.byte			Fn3, v096
	.byte	W02
	.byte			Fs3, v100
	.byte	W01
	.byte			Gn3, v104
	.byte	W02
	.byte			Gs3, v108
	.byte	W01
	.byte			An3
	.byte	W02
	.byte			As3, v112
	.byte	W01
	.byte			Bn3, v116
	.byte	W02
	.byte			Cn4
	.byte	W03
	.byte			Cn4, v127
	.byte	W07
	.byte			Gn3
	.byte	W02
	.byte			Fs3, v124
	.byte	W01
	.byte			Fn3
	.byte	W02
	.byte			En3, v120
	.byte	W01
	.byte			Ds3, v116
	.byte	W02
	.byte			Dn3, v112
	.byte	W01
	.byte			Cs3
	.byte	W02
	.byte			Cn3, v108
	.byte	W01
	.byte			Bn2, v104
	.byte	W02
	.byte			As2, v100
	.byte	W03
	.byte	PATT	
		.word	song032_11_2
	.byte	PATT	
		.word	song032_11_3
	.byte	PATT	
		.word	song032_11_2
	.byte	PATT	
		.word	song032_11_3
song032_11_4:
	.byte	W12
	.byte		N03	, Dn5, v056
	.byte	W06
	.byte			Dn4, v032
	.byte	W18
	.byte			Dn5, v076
	.byte	W06
	.byte			Dn4, v052
	.byte	W18
	.byte			Dn5, v096
	.byte	W06
	.byte			Dn4, v072
	.byte	W18
	.byte			Dn5, v116
	.byte	W06
	.byte			Dn4, v092
	.byte	W06
	.byte	PEND
	.byte	PATT	
		.word	song032_11_4
	.byte	PATT	
		.word	song032_11_4
	.byte	W12
	.byte		N03	, Dn5, v056
	.byte	W06
	.byte			Dn4, v032
	.byte	W18
	.byte			Dn5, v076
	.byte	W06
	.byte			Dn4, v052
	.byte	W12
	.byte			Dn4, v072
	.byte	W06
	.byte			Dn5, v096
	.byte	W06
	.byte			Dn4, v072
	.byte	W12
	.byte			Dn4, v092
	.byte	W06
	.byte			Dn5, v116
	.byte	W06
	.byte			Dn4, v092
	.byte	W06
	.byte	PATT	
		.word	song032_11_5
	.byte	W12
	.byte		N03	, Dn5, v116
	.byte	W06
	.byte			Dn4, v092
	.byte	W18
	.byte			Dn5, v116
	.byte	W06
	.byte			Dn4, v092
	.byte	W12
	.byte		N03	
	.byte	W06
	.byte			Dn5, v116
	.byte	W06
	.byte			Dn4, v092
	.byte	W12
	.byte		N03	
	.byte	W06
	.byte			Dn5, v116
	.byte	W06
	.byte			Dn4, v092
	.byte	W06
	.byte			Dn5, v116
	.byte	W24
	.byte			Dn4, v092
	.byte	W24
	.byte		N03	
	.byte	W24
	.byte		N03	
	.byte	W24
song032_11_6:
	.byte		N03	, Dn5, v104
	.byte	W06
	.byte		N03	
	.byte	W06
	.byte			Dn4, v080
	.byte	W06
	.byte		N03	
	.byte	W06
	.byte			Dn5, v104
	.byte	W06
	.byte		N03	
	.byte	W06
	.byte			Dn4, v080
	.byte	W06
	.byte		N03	
	.byte	W06
	.byte			Dn5, v104
	.byte	W06
	.byte		N03	
	.byte	W06
	.byte			Dn4, v080
	.byte	W06
	.byte		N03	
	.byte	W06
	.byte			Dn5, v104
	.byte	W06
	.byte		N03	
	.byte	W06
	.byte			Dn4, v080
	.byte	W06
	.byte		N03	
	.byte	W06
	.byte	PEND
	.byte	PATT	
		.word	song032_11_6
	.byte	PATT	
		.word	song032_11_6
	.byte	PATT	
		.word	song032_11_6
song032_11_7:
	.byte		N03	, Dn5, v104
	.byte	W06
	.byte			Dn4, v080
	.byte	W18
	.byte			Dn5, v104
	.byte	W06
	.byte			Dn4, v080
	.byte	W18
	.byte			Dn5, v104
	.byte	W06
	.byte			Dn4, v080
	.byte	W18
	.byte			Dn5, v104
	.byte	W06
	.byte			Dn4, v080
	.byte	W18
	.byte	PEND
	.byte	PATT	
		.word	song032_11_7
	.byte	PATT	
		.word	song032_11_7
	.byte	PATT	
		.word	song032_11_7
song032_11_8:
	.byte		N03	, Dn5, v104
	.byte	W06
	.byte		N03	
	.byte	W06
	.byte			Dn4, v080
	.byte	W12
	.byte			Dn5, v104
	.byte	W06
	.byte		N03	
	.byte	W06
	.byte			Dn4, v080
	.byte	W12
	.byte			Dn5, v104
	.byte	W06
	.byte		N03	
	.byte	W06
	.byte			Dn4, v080
	.byte	W12
	.byte			Dn5, v104
	.byte	W06
	.byte		N03	
	.byte	W06
	.byte			Dn4, v080
	.byte	W12
	.byte	PEND
	.byte	PATT	
		.word	song032_11_8
	.byte	PATT	
		.word	song032_11_8
	.byte		N03	, Dn5, v104
	.byte	W06
	.byte		N03	
	.byte	W06
	.byte			Dn4, v080
	.byte	W12
	.byte			Dn5, v104
	.byte	W06
	.byte		N03	
	.byte	W06
	.byte			Dn4, v080
	.byte	W12
	.byte			Dn5, v104
	.byte	W06
	.byte		N03	
	.byte	W06
	.byte			Dn4, v080
	.byte	W06
	.byte		N03	
	.byte	W06
	.byte			Dn5, v104
	.byte	W06
	.byte		N03	
	.byte	W06
	.byte			Dn4, v080
	.byte	W06
	.byte		N03	
	.byte	W06
	.byte	PATT	
		.word	song032_11_8
	.byte	PATT	
		.word	song032_11_8
	.byte	PATT	
		.word	song032_11_8
	.byte		N03	, Dn5, v104
	.byte	W06
	.byte		N03	
	.byte	W06
	.byte			Dn4, v080
	.byte	W12
	.byte			Dn5, v104
	.byte	W06
	.byte		N03	
	.byte	W06
	.byte			Dn4, v080
	.byte	W12
	.byte			Dn5, v104
	.byte	W06
	.byte			Dn4, v080
	.byte	W18
	.byte			Dn5, v104
	.byte	W06
	.byte			Dn4, v080
	.byte	W18
song032_11_9:
	.byte		N03	, Dn5, v104
	.byte	W06
	.byte			Dn4, v080
	.byte	W06
	.byte			Dn5, v104
	.byte	W06
	.byte			Dn4, v080
	.byte	W06
	.byte			Dn5, v104
	.byte	W06
	.byte			Dn4, v080
	.byte	W06
	.byte			Dn5, v104
	.byte	W06
	.byte			Dn4, v080
	.byte	W06
	.byte			Dn5, v104
	.byte	W06
	.byte			Dn4, v080
	.byte	W18
	.byte			Dn5, v104
	.byte	W06
	.byte			Dn4, v080
	.byte	W18
	.byte	PEND
	.byte	PATT	
		.word	song032_11_9
	.byte	PATT	
		.word	song032_11_9
	.byte	PATT	
		.word	song032_11_9
	.byte	PATT	
		.word	song032_11_9
	.byte	PATT	
		.word	song032_11_9
	.byte	PATT	
		.word	song032_11_9
	.byte	PATT	
		.word	song032_11_9
song032_11_10:
	.byte		N03	, Dn5, v104
	.byte	W12
	.byte			Dn4, v080
	.byte	W48
	.byte		N03	
	.byte	W24
	.byte		N03	
	.byte	W12
	.byte	PEND
	.byte	PATT	
		.word	song032_11_10
	.byte	PATT	
		.word	song032_11_10
	.byte	PATT	
		.word	song032_11_10
	.byte	PATT	
		.word	song032_11_10
	.byte	PATT	
		.word	song032_11_5
	.byte	PATT	
		.word	song032_11_1
	.byte	PATT	
		.word	song032_11_1
	.byte	PATT	
		.word	song032_11_1
	.byte	PATT	
		.word	song032_11_11
	.byte	PATT	
		.word	song032_11_1
	.byte	PATT	
		.word	song032_11_1
	.byte	PATT	
		.word	song032_11_1
	.byte	PATT	
		.word	song032_11_11
	.byte	GOTO	
		.word	song032_11_2
	.byte	FINE

	@********************** Track  12 **********************@

	.global song032_12
song032_12:	@ 0x0827B849
	.byte	KEYSH	, 0
	.byte	VOICE	, 91
	.byte	VOL	, v042
	.byte	W96
song032_12_3:
	.byte		N12	, Dn5, v096
	.byte	W24
	.byte		N12	
	.byte	W24
	.byte		N12	
	.byte	W24
	.byte		N12	
	.byte	W24
	.byte	PEND
song032_12_1:
	.byte	W24
	.byte		N06	, Dn5, v080
	.byte	W36
	.byte		N12	
	.byte	W36
	.byte	PEND
song032_12_7:
	.byte	W24
	.byte		N06	, Dn5, v080
	.byte	W36
	.byte		N12	
	.byte	W24
	.byte			Fs4
	.byte	W12
	.byte	PEND
	.byte	PATT	
		.word	song032_12_1
	.byte	W24
	.byte		N06	, Dn5, v080
	.byte	W72
song032_12_8:
	.byte	W96
	.byte	W96
	.byte	W96
	.byte	W96
	.byte	W96
	.byte	W96
	.byte	W96
	.byte	W96
	.byte	W96
	.byte	W96
	.byte	W96
	.byte	W96
song032_12_2:
	.byte		N12	, Dn5, v044
	.byte	W24
	.byte			Dn5, v056
	.byte	W24
	.byte			Dn5, v076
	.byte	W24
	.byte			Dn5, v096
	.byte	W24
	.byte	PEND
	.byte	PATT	
		.word	song032_12_2
	.byte	PATT	
		.word	song032_12_2
	.byte		N12	, Dn5, v044
	.byte	W24
	.byte			Dn5, v056
	.byte	W24
	.byte		N06	, Dn5, v076
	.byte	W24
	.byte			Dn5, v096
	.byte	W24
	.byte	PATT	
		.word	song032_12_3
	.byte		N12	, Dn5, v096
	.byte	W24
	.byte		N12	
	.byte	W24
	.byte		N06	
	.byte	W24
	.byte		N06	
	.byte	W24
	.byte	W96
	.byte	W96
	.byte	W96
	.byte	W96
	.byte	W96
song032_12_4:
	.byte	W12
	.byte		N12	, Dn5, v096
	.byte	W24
	.byte		N12	
	.byte	W24
	.byte		N12	
	.byte	W24
	.byte		N12	
	.byte	W12
	.byte	PEND
	.byte	PATT	
		.word	song032_12_4
	.byte	PATT	
		.word	song032_12_4
	.byte	PATT	
		.word	song032_12_4
	.byte	W96
	.byte	W96
	.byte	W96
	.byte	W96
	.byte	W96
	.byte	W96
	.byte	W96
	.byte	W60
	.byte		N12	, Dn5, v100
	.byte	W24
	.byte		N12	
	.byte	W12
song032_12_5:
	.byte	W60
	.byte		N12	, Dn5, v096
	.byte	W24
	.byte		N12	
	.byte	W12
	.byte	PEND
	.byte	PATT	
		.word	song032_12_5
	.byte	PATT	
		.word	song032_12_5
	.byte	PATT	
		.word	song032_12_5
	.byte	PATT	
		.word	song032_12_5
	.byte	PATT	
		.word	song032_12_5
	.byte	PATT	
		.word	song032_12_5
	.byte	PATT	
		.word	song032_12_5
song032_12_6:
	.byte	W24
	.byte		N12	, Dn5, v096
	.byte	W48
	.byte		N12	
	.byte	W24
	.byte	PEND
	.byte	PATT	
		.word	song032_12_6
	.byte	PATT	
		.word	song032_12_6
	.byte	PATT	
		.word	song032_12_6
	.byte	PATT	
		.word	song032_12_6
	.byte	PATT	
		.word	song032_12_3
	.byte	PATT	
		.word	song032_12_1
	.byte	PATT	
		.word	song032_12_7
	.byte	PATT	
		.word	song032_12_1
	.byte	W24
	.byte		N06	, Dn5, v080
	.byte	W72
	.byte	PATT	
		.word	song032_12_1
	.byte	PATT	
		.word	song032_12_7
	.byte	PATT	
		.word	song032_12_1
	.byte	W24
	.byte		N06	, Dn5, v080
	.byte	W72
	.byte	GOTO	
		.word	song032_12_8
	.byte	FINE

	.align 2
	.global song032
song032:	@ 0x0827B960
	.byte	12		@ trackCount
	.byte	0		@ blockCount
	.byte	20		@ priority
	.byte	128		@ reverb

	.word	voicegroup016		@ voicegroup/tone

	.word	song032_1		@ track
	.word	song032_2		@ track
	.word	song032_3		@ track
	.word	song032_4		@ track
	.word	song032_5		@ track
	.word	song032_6		@ track
	.word	song032_7		@ track
	.word	song032_8		@ track
	.word	song032_9		@ track
	.word	song032_10		@ track
	.word	song032_11		@ track
	.word	song032_12		@ track
