	.include "asm/macros/c_decl.inc"
	.include "asm/macros/portable.inc"
	.include "sound/MPlayDef.s"

	mSectionRodata

	@********************** Track  1 **********************@

	mAlignWord
	.global song075_1
song075_1:	@ 0x082A4F90
	.byte	KEYSH	, 0
	.byte	TEMPO	, 75
	.byte	VOICE	, 30
	.byte	VOL	, v062
	.byte	PAN	, c_v
	.byte	BENDR	, 0
	.byte		N06	, Cn3, v124
	.byte	W12
	.byte			Cn4
	.byte	W12
	.byte			Cn3
	.byte	W12
	.byte			Cn4
	.byte	W12
	.byte			Cs3
	.byte	W12
	.byte			Cs4
	.byte	W12
	.byte			Cs3
	.byte	W12
	.byte			Cs4
	.byte	W12
	.byte			Cn3
	.byte	W12
	.byte			Cn4
	.byte	W12
	.byte			Cn3
	.byte	W12
	.byte			Cn4
	.byte	W12
	.byte			Cs3
	.byte	W12
	.byte			Cs4
	.byte	W12
	.byte			Cs3
	.byte	W12
	.byte			Cs4
	.byte	W12
	.byte			Cn3
	.byte	W08
	.byte			Cn4
	.byte	W08
	.byte			Cn3
	.byte	W08
	.byte			Cn4
	.byte	W08
	.byte			Cs3
	.byte	W08
	.byte			Cs4
	.byte	W08
	.byte			Cs3
	.byte	W08
	.byte			Cs4
	.byte	W08
	.byte			Cn3
	.byte	W08
	.byte			Cn4
	.byte	W08
	.byte			Cn3
	.byte	W08
	.byte			Cn4
	.byte	W08
	.byte			Cs3
	.byte	W08
	.byte			Cs4
	.byte	W08
	.byte			Cs3
	.byte	W08
	.byte			Cs4
	.byte	W06
	.byte			Cn3
	.byte	W06
	.byte			Cn4
	.byte	W06
	.byte			Cn3
	.byte	W06
	.byte			Cn4
	.byte	W06
	.byte			Cs3
	.byte	W06
	.byte			Cs4
	.byte	W06
	.byte			Cs3
	.byte	W06
	.byte			Cs4
	.byte	W06
	.byte			Cn3
	.byte	W06
	.byte			Cn4
	.byte	W06
	.byte			Cn3
	.byte	W06
song075_1_1:
	.byte		N06	, Cn4, v124
	.byte	W06
	.byte			Cs3
	.byte	W06
	.byte			Cs4
	.byte	W06
	.byte			Cs3
	.byte	W06
	.byte			Cs4
	.byte	W06
	.byte			Cn3
	.byte	W06
	.byte			Cn4
	.byte	W06
	.byte			Cn3
	.byte	W06
	.byte			Cn4
	.byte	W06
	.byte			Cs3
	.byte	W06
	.byte			Cs4
	.byte	W06
	.byte			Cs3
	.byte	W06
	.byte			Cs4
	.byte	W06
	.byte			Cn3
	.byte	W06
	.byte			Cn4
	.byte	W06
	.byte			Cn3
	.byte	W06
	.byte	PEND
	.byte	PATT	
		.word	song075_1_1
	.byte		N06	, Cn4, v124
	.byte	W06
	.byte			Cs3
	.byte	W06
	.byte			Cs4
	.byte	W06
	.byte			Cs3
	.byte	W06
	.byte			Cs4
	.byte	W06
	.byte		N12	, Cn4
	.byte		N12	, Cn5
	.byte	W12
	.byte	FINE

	@********************** Track  2 **********************@

	.global song075_2
song075_2:	@ 0x082A502E
	.byte	KEYSH	, 0
	.byte	VOICE	, 31
	.byte	VOL	, v062
	.byte	PAN	, c_v
	.byte	BENDR	, 0
	.byte		N06	, Cn3, v124
	.byte	W12
	.byte			Cn4
	.byte	W12
	.byte			Cn3
	.byte	W12
	.byte			Cn4
	.byte	W12
	.byte			Cs3
	.byte	W12
	.byte			Cs4
	.byte	W12
	.byte			Cs3
	.byte	W12
	.byte			Cs4
	.byte	W12
	.byte			Cn3
	.byte	W12
	.byte			Cn4
	.byte	W12
	.byte			Cn3
	.byte	W12
	.byte			Cn4
	.byte	W12
	.byte			Cs3
	.byte	W12
	.byte			Cs4
	.byte	W12
	.byte			Cs3
	.byte	W12
	.byte			Cs4
	.byte	W12
	.byte			Cn3
	.byte	W08
	.byte			Cn4
	.byte	W08
	.byte			Cn3
	.byte	W08
	.byte			Cn4
	.byte	W08
	.byte			Cs3
	.byte	W08
	.byte			Cs4
	.byte	W08
	.byte			Cs3
	.byte	W08
	.byte			Cs4
	.byte	W08
	.byte			Cn3
	.byte	W08
	.byte			Cn4
	.byte	W08
	.byte			Cn3
	.byte	W08
	.byte			Cn4
	.byte	W08
	.byte			Cs3
	.byte	W08
	.byte			Cs4
	.byte	W08
	.byte			Cs3
	.byte	W08
	.byte			Cs4
	.byte	W06
	.byte			Cn3
	.byte	W06
	.byte			Cn4
	.byte	W06
	.byte			Cn3
	.byte	W06
	.byte			Cn4
	.byte	W06
	.byte			Cs3
	.byte	W06
	.byte			Cs4
	.byte	W06
	.byte			Cs3
	.byte	W06
	.byte			Cs4
	.byte	W06
	.byte			Cn3
	.byte	W06
	.byte			Cn4
	.byte	W06
	.byte			Cn3
	.byte	W06
song075_2_1:
	.byte		N06	, Cn4, v124
	.byte	W06
	.byte			Cs3
	.byte	W06
	.byte			Cs4
	.byte	W06
	.byte			Cs3
	.byte	W06
	.byte			Cs4
	.byte	W06
	.byte			Cn3
	.byte	W06
	.byte			Cn4
	.byte	W06
	.byte			Cn3
	.byte	W06
	.byte			Cn4
	.byte	W06
	.byte			Cs3
	.byte	W06
	.byte			Cs4
	.byte	W06
	.byte			Cs3
	.byte	W06
	.byte			Cs4
	.byte	W06
	.byte			Cn3
	.byte	W06
	.byte			Cn4
	.byte	W06
	.byte			Cn3
	.byte	W06
	.byte	PEND
	.byte	PATT	
		.word	song075_2_1
	.byte		N06	, Cn4, v124
	.byte	W06
	.byte			Cs3
	.byte	W06
	.byte			Cs4
	.byte	W06
	.byte			Cs3
	.byte	W06
	.byte			Cs4
	.byte	W06
	.byte		N12	, Cn4
	.byte		N12	, Cn5
	.byte	W12
	.byte	FINE

	@********************** Track  3 **********************@

	.global song075_3
song075_3:	@ 0x082A50CA
	.byte	KEYSH	, 0
	.byte	VOICE	, 127
	.byte	VOL	, v086
	.byte	PAN	, c_v
	.byte	BENDR	, 127
	.byte		N23	, Cs1, v116
	.byte	W24
	.byte		N23	
	.byte	W24
	.byte		N23	
	.byte	W24
	.byte		N23	
	.byte	W24
	.byte		N23	
	.byte	W24
	.byte		N23	
	.byte	W24
	.byte		N23	
	.byte	W24
	.byte		N23	
	.byte	W24
	.byte		N15	
	.byte	W16
	.byte		N15	
	.byte	W16
	.byte		N15	
	.byte	W16
	.byte		N15	
	.byte	W16
	.byte		N15	
	.byte	W16
	.byte		N15	
	.byte	W16
	.byte		N15	
	.byte	W16
	.byte		N13	
	.byte	W14
	.byte		N11	
	.byte	W12
	.byte		N11	
	.byte	W12
	.byte		N11	
	.byte	W12
	.byte		N11	
	.byte	W12
	.byte		N11	
	.byte	W12
	.byte		N11	
	.byte	W06
song075_3_1:
	.byte	W06
	.byte		N11	, Cs1, v116
	.byte	W12
	.byte		N11	
	.byte	W12
	.byte		N11	
	.byte	W12
	.byte		N11	
	.byte	W12
	.byte		N11	
	.byte	W12
	.byte		N11	
	.byte	W12
	.byte		N11	
	.byte	W12
	.byte		N11	
	.byte	W06
	.byte	PEND
	.byte	PATT	
		.word	song075_3_1
	.byte	W06
	.byte		N11	, Cs1, v116
	.byte	W12
	.byte		N11	
	.byte	W12
	.byte		N12	
	.byte	W12
	.byte	FINE
    
	mAlignWord
	.global song075
song075:	@ 0x082A5128
	.byte	3		@ trackCount
	.byte	0		@ blockCount
	.byte	0		@ priority
	.byte	128		@ reverb

	mAlignWord
	.word	voicegroup020		@ voicegroup/tone

	.word	song075_1		@ track
	.word	song075_2		@ track
	.word	song075_3		@ track
