	.include "MPlayDef.s"

	.section .rodata

	@********************** Track  1 **********************@

	.align 2
	.global song028_1
song028_1:	@ 0x08275ADC
	.byte	KEYSH	, 0
	.byte	TEMPO	, 75
	.byte	VOICE	, 127
	.byte	VOL	, v082
	.byte	W96
	.byte	W96
	.byte	W96
	.byte	W72
	.byte		N11	, Cn5, v127
	.byte	W12
	.byte			Dn5
	.byte	W12
song028_1_2:
	.byte		N92	, As4, v127
	.byte		N11	, Cn5
	.byte	W12
	.byte		N11	
	.byte	W12
	.byte			Dn5
	.byte	W12
	.byte			Cn5
	.byte	W12
	.byte		N05	, Cs5, v044
	.byte	W06
	.byte			Dn5, v127
	.byte	W06
	.byte		N11	, Cn5
	.byte	W12
	.byte			Dn5
	.byte	W12
	.byte			Ds5
	.byte	W12
	.byte	PEND
song028_1_1:
	.byte		N11	, Cn5, v127
	.byte	W12
	.byte		N11	
	.byte	W12
	.byte			Dn5
	.byte	W12
	.byte			Cn5
	.byte	W12
	.byte		N05	, Cs5, v044
	.byte	W06
	.byte			Dn5, v127
	.byte	W06
	.byte		N11	, Cn5
	.byte	W12
	.byte			Dn5
	.byte	W12
	.byte			Ds5
	.byte	W12
	.byte	PEND
	.byte	PATT	
		.word	song028_1_1
song028_1_3:
	.byte		N11	, Cn5, v127
	.byte	W12
	.byte		N11	
	.byte	W12
	.byte			Dn5
	.byte	W12
	.byte		N05	, Cn5
	.byte	W06
	.byte			Dn5
	.byte	W06
	.byte			Cs5, v044
	.byte	W06
	.byte			Dn5, v127
	.byte	W06
	.byte		N11	, Cn5
	.byte	W12
	.byte		N05	, Dn5
	.byte	W06
	.byte			Cn5
	.byte	W06
	.byte		N11	, Dn5
	.byte	W12
	.byte	PEND
song028_1_6:
	.byte		N92	, As4, v127
	.byte		N11	, Cn5
	.byte	W12
	.byte		N05	, Cs5, v044
	.byte	W06
	.byte			Cn5, v127
	.byte	W06
	.byte		N11	, Dn5
	.byte	W12
	.byte		N05	, Cs5, v044
	.byte	W06
	.byte			Cn5, v127
	.byte	W06
	.byte			Cs5, v044
	.byte	W06
	.byte			Dn5, v127
	.byte	W06
	.byte		N11	, Cn5
	.byte	W12
	.byte		N05	, Dn5
	.byte	W06
	.byte			Cs5, v044
	.byte	W06
	.byte		N11	, Ds5, v127
	.byte	W12
	.byte	PEND
song028_1_7:
	.byte		N11	, Cn5, v127
	.byte	W12
	.byte		N05	, Cs5, v044
	.byte	W06
	.byte			Cn5, v127
	.byte	W06
	.byte		N11	, Dn5
	.byte	W12
	.byte		N05	, Cs5, v044
	.byte	W06
	.byte			Cn5, v127
	.byte	W06
	.byte			Cs5, v044
	.byte	W06
	.byte			Dn5, v127
	.byte	W06
	.byte		N11	, Cn5
	.byte	W12
	.byte		N05	, Dn5
	.byte	W06
	.byte			Cs5, v044
	.byte	W06
	.byte		N11	, Ds5, v127
	.byte	W12
	.byte	PEND
song028_1_8:
	.byte		N11	, Cn5, v127
	.byte	W12
	.byte		N05	, Cs5, v044
	.byte	W06
	.byte			Cn5, v127
	.byte	W06
	.byte		N11	, Dn5
	.byte	W12
	.byte		N05	, Cs5, v044
	.byte	W06
	.byte			Cn5, v127
	.byte	W06
	.byte			Cs5, v044
	.byte	W06
	.byte			Dn5, v127
	.byte	W06
	.byte		N11	, Cn5
	.byte	W12
	.byte		N05	, Dn5
	.byte	W06
	.byte			Cs5, v044
	.byte	W06
	.byte			Dn5, v076
	.byte	W06
	.byte			Dn5, v127
	.byte	W06
	.byte	PEND
song028_1_9:
	.byte		N11	, Cn5, v127
	.byte	W12
	.byte		N11	
	.byte	W12
	.byte			Dn5
	.byte	W12
	.byte		N05	, Cn5
	.byte	W06
	.byte			Dn5
	.byte	W06
	.byte			Cs5, v044
	.byte	W06
	.byte			Dn5, v127
	.byte	W06
	.byte		N11	, Cn5
	.byte	W12
	.byte		N05	, Dn5
	.byte	W06
	.byte		N05	
	.byte	W06
	.byte		N05	
	.byte	W06
	.byte		N05	
	.byte	W06
	.byte	PEND
	.byte	PATT	
		.word	song028_1_2
	.byte	PATT	
		.word	song028_1_1
	.byte	PATT	
		.word	song028_1_1
	.byte	PATT	
		.word	song028_1_3
song028_1_5:
	.byte		N44	, As4, v127
	.byte		N11	, Cn5
	.byte	W12
	.byte		N11	
	.byte	W12
	.byte			Dn5
	.byte	W12
	.byte			Cn5
	.byte	W12
	.byte		N05	, Cs5, v044
	.byte	W06
	.byte			Dn5, v127
	.byte	W06
	.byte		N11	, Cn5
	.byte	W12
	.byte			Dn5
	.byte	W12
	.byte			Ds5
	.byte	W12
	.byte	PEND
	.byte	PATT	
		.word	song028_1_1
	.byte	PATT	
		.word	song028_1_1
	.byte	PATT	
		.word	song028_1_3
song028_1_4:
	.byte		N05	, Dn5, v124
	.byte	W06
	.byte			Dn5, v024
	.byte	W06
	.byte		N05	
	.byte	W06
	.byte			Dn5, v056
	.byte	W06
	.byte			Dn5, v024
	.byte	W06
	.byte		N05	
	.byte	W06
	.byte			Dn5, v076
	.byte	W06
	.byte			Dn5, v024
	.byte	W06
	.byte		N05	
	.byte	W06
	.byte			Dn5, v096
	.byte	W06
	.byte			Dn5, v024
	.byte	W06
	.byte		N05	
	.byte	W06
	.byte			Dn5, v116
	.byte	W06
	.byte			Dn5, v024
	.byte	W06
	.byte		N05	
	.byte	W06
	.byte		N05	
	.byte	W06
	.byte	PEND
	.byte			Dn5, v124
	.byte	W06
	.byte			Dn5, v024
	.byte	W06
	.byte		N05	
	.byte	W06
	.byte			Dn5, v056
	.byte	W06
	.byte			Dn5, v024
	.byte	W06
	.byte		N05	
	.byte	W06
	.byte			Dn5, v076
	.byte	W06
	.byte			Dn5, v024
	.byte	W06
	.byte		N05	
	.byte	W06
	.byte			Dn5, v096
	.byte	W06
	.byte			Dn5, v024
	.byte	W06
	.byte		N05	
	.byte	W06
	.byte			Dn5, v116
	.byte	W06
	.byte			Dn5, v024
	.byte	W06
	.byte		N05	
	.byte	W06
	.byte			Dn5, v116
	.byte	W06
	.byte	PATT	
		.word	song028_1_4
	.byte		N05	, Dn5, v084
	.byte	W06
	.byte			Dn5, v024
	.byte	W06
	.byte		N05	
	.byte	W06
	.byte			Dn5, v084
	.byte	W06
	.byte			Dn5, v024
	.byte	W06
	.byte		N05	
	.byte	W06
	.byte			Dn5, v084
	.byte	W06
	.byte			Dn5, v024
	.byte	W06
	.byte			Cn5, v084
	.byte	W06
	.byte			Dn5
	.byte	W03
	.byte			En5, v127
	.byte	W03
	.byte		N11	, Dn5
	.byte	W06
	.byte			En5, v096
	.byte	W06
	.byte			Dn5, v056
	.byte	W06
	.byte			En5, v064
	.byte	W06
	.byte			Dn5, v084
	.byte	W06
	.byte		N05	, En5, v127
	.byte	W06
	.byte	PATT	
		.word	song028_1_5
	.byte	PATT	
		.word	song028_1_1
	.byte	PATT	
		.word	song028_1_1
	.byte	PATT	
		.word	song028_1_3
	.byte	W54
	.byte		N05	, Dn5, v084
	.byte	W03
	.byte			En5, v127
	.byte	W03
	.byte		N11	, Dn5
	.byte	W06
	.byte			En5, v096
	.byte	W06
	.byte			Dn5, v056
	.byte	W06
	.byte			En5, v064
	.byte	W06
	.byte			Dn5, v084
	.byte	W06
	.byte		N05	, En5, v127
	.byte	W06
	.byte		N92	, As4
	.byte		N11	, Dn5
	.byte	W12
	.byte			Cn5
	.byte	W12
	.byte			Dn5
	.byte	W12
	.byte			Cn5
	.byte	W12
	.byte		N05	, Cs5, v044
	.byte	W06
	.byte			Dn5, v127
	.byte	W06
	.byte		N11	, Cn5
	.byte	W12
	.byte			Dn5
	.byte	W12
	.byte			Ds5
	.byte	W12
	.byte	PATT	
		.word	song028_1_1
	.byte	PATT	
		.word	song028_1_1
	.byte	PATT	
		.word	song028_1_3
	.byte	PATT	
		.word	song028_1_6
	.byte	PATT	
		.word	song028_1_7
	.byte	PATT	
		.word	song028_1_8
	.byte	PATT	
		.word	song028_1_9
	.byte		N44	, As4, v127
	.byte		N11	, Dn5
	.byte	W12
	.byte			Cn5
	.byte	W12
	.byte			Dn5
	.byte	W12
	.byte			Cn5
	.byte	W12
	.byte		N05	, Cs5, v044
	.byte	W06
	.byte			Dn5, v127
	.byte	W06
	.byte		N11	, Cn5
	.byte	W12
	.byte			Dn5
	.byte	W12
	.byte			Ds5
	.byte	W12
	.byte	PATT	
		.word	song028_1_1
	.byte	PATT	
		.word	song028_1_1
	.byte	PATT	
		.word	song028_1_3
	.byte		N44	, As4, v127
	.byte		N11	, Cn5
	.byte	W12
	.byte		N05	, Cs5, v044
	.byte	W06
	.byte			Cn5, v127
	.byte	W06
	.byte		N11	, Dn5
	.byte	W12
	.byte		N05	, Cs5, v044
	.byte	W06
	.byte			Cn5, v127
	.byte	W06
	.byte			Cs5, v044
	.byte	W06
	.byte			Dn5, v127
	.byte	W06
	.byte		N11	, Cn5
	.byte	W12
	.byte		N05	, Dn5
	.byte	W06
	.byte			Cs5, v044
	.byte	W06
	.byte		N11	, Ds5, v127
	.byte	W12
	.byte	PATT	
		.word	song028_1_7
	.byte	PATT	
		.word	song028_1_8
	.byte	PATT	
		.word	song028_1_9
	.byte		N11	, Cn5, v127
	.byte	W12
	.byte			Dn5
	.byte	W12
	.byte		N05	, Cs5, v044
	.byte	W12
	.byte			Dn5, v127
	.byte	W06
	.byte			Cn5
	.byte	W09
	.byte		N02	, Cs5, v044
	.byte	W05
	.byte			Dn5, v127
	.byte	W04
	.byte		N05	
	.byte	W06
	.byte			Cn5, v084
	.byte	W06
	.byte		N11	, Dn5, v127
	.byte	W12
	.byte			Ds5, v064
	.byte	W12
	.byte		N05	, Cn5, v084
	.byte	W06
	.byte			Cs5, v044
	.byte	W12
	.byte			Dn5, v127
	.byte	W12
	.byte			Cn5, v084
	.byte	W06
	.byte			Ds5, v116
	.byte	W06
	.byte			Cs5, v044
	.byte	W06
	.byte			Cn5, v084
	.byte	W06
	.byte			Cs5, v044
	.byte	W12
	.byte			Dn5, v127
	.byte	W06
	.byte			Ds5, v116
	.byte	W06
	.byte			Cn5, v084
	.byte	W06
	.byte			Dn5, v127
	.byte	W06
	.byte		N05	
	.byte	W06
	.byte		N11	, Cn5
	.byte	W12
	.byte			Dn5
	.byte	W12
	.byte		N05	, Cs5, v044
	.byte	W12
	.byte			Dn5, v127
	.byte	W06
	.byte			Cn5
	.byte	W09
	.byte		N02	, Cs5, v044
	.byte	W05
	.byte			Dn5, v127
	.byte	W04
	.byte		N05	
	.byte	W06
	.byte			Cn5, v084
	.byte	W06
	.byte		N11	, Dn5, v127
	.byte	W12
	.byte			Ds5, v116
	.byte	W12
	.byte		N05	, Cn5, v084
	.byte	W06
	.byte			Cs5, v044
	.byte	W06
	.byte			Dn5, v084
	.byte	W06
	.byte			Dn5, v116
	.byte	W06
	.byte			Cn5, v084
	.byte	W06
	.byte			Ds5, v116
	.byte	W06
	.byte			Cn5, v127
	.byte	W06
	.byte			Cs5, v044
	.byte	W09
	.byte		N02	
	.byte	W05
	.byte			Dn5, v127
	.byte	W04
	.byte		N05	
	.byte	W06
	.byte			Cn5, v084
	.byte	W06
	.byte			Ds5, v116
	.byte	W06
	.byte			Cn5, v084
	.byte	W06
	.byte			Dn5, v116
	.byte	W06
	.byte		N05	
	.byte	W06
	.byte		N44	, As4
	.byte		N11	, Cn5, v127
	.byte	W12
	.byte		N05	, Dn5
	.byte	W06
	.byte			Cs5, v044
	.byte	W06
	.byte		N11	, Cn5, v127
	.byte	W12
	.byte		N05	, Dn5
	.byte	W06
	.byte			Ds5
	.byte	W06
	.byte		N03	, Cn5
	.byte	W03
	.byte		N02	, Cs5, v044
	.byte	W05
	.byte			Dn5, v127
	.byte	W04
	.byte		N05	
	.byte	W06
	.byte			Cn5, v084
	.byte	W06
	.byte		N11	, Cn5, v127
	.byte	W12
	.byte			Ds5, v124
	.byte	W12
	.byte		N05	, Cn5, v127
	.byte	W06
	.byte			Cs5, v044
	.byte	W06
	.byte			Dn5, v127
	.byte	W06
	.byte			Cn5
	.byte	W06
	.byte		N11	
	.byte	W12
	.byte		N05	, Ds5, v116
	.byte	W06
	.byte			Cs5, v044
	.byte	W06
	.byte			Cn5, v127
	.byte	W06
	.byte			Cs5, v044
	.byte	W06
	.byte			Cn5, v127
	.byte	W06
	.byte			Dn5
	.byte	W06
	.byte		N11	, Cn5
	.byte	W12
	.byte		N05	, Dn5
	.byte	W06
	.byte		N05	
	.byte	W06
	.byte		N11	, Cn5
	.byte	W12
	.byte		N05	, Dn5
	.byte	W06
	.byte			Cs5, v044
	.byte	W06
	.byte		N11	, Cn5, v127
	.byte	W12
	.byte		N05	, Dn5
	.byte	W06
	.byte			Ds5
	.byte	W06
	.byte		N03	, Cn5
	.byte	W03
	.byte		N02	, Cs5, v044
	.byte	W05
	.byte			Dn5, v127
	.byte	W04
	.byte		N05	
	.byte	W06
	.byte			Cn5, v084
	.byte	W06
	.byte		N11	, Cn5, v127
	.byte	W12
	.byte			Ds5
	.byte	W12
	.byte		N05	, Dn5, v116
	.byte	W06
	.byte			Dn5, v036
	.byte	W06
	.byte			Dn5, v016
	.byte	W06
	.byte			Dn5, v116
	.byte	W06
	.byte			Dn5, v036
	.byte	W06
	.byte			Dn5, v016
	.byte	W06
	.byte			Dn5, v116
	.byte	W06
	.byte			Dn5, v036
	.byte	W06
	.byte			Cn5, v116
	.byte	W06
	.byte			Dn5, v084
	.byte	W03
	.byte			En5, v127
	.byte	W03
	.byte		N11	, Dn5
	.byte	W06
	.byte			En5, v096
	.byte	W06
	.byte			Dn5, v056
	.byte	W06
	.byte			En5, v064
	.byte	W06
	.byte			Dn5, v084
	.byte	W06
	.byte		N05	, En5, v127
	.byte	W06
	.byte		N92	, As4
	.byte	W96
	.byte	W96
	.byte	W96
	.byte	W96
	.byte		N05	, Dn5, v116
	.byte	W06
	.byte			Dn5, v036
	.byte	W06
	.byte			Dn5, v016
	.byte	W06
	.byte			Dn5, v044
	.byte	W06
	.byte			Dn5, v036
	.byte	W06
	.byte			Dn5, v016
	.byte	W06
	.byte			Dn5, v064
	.byte	W06
	.byte			Dn5, v036
	.byte	W06
	.byte			Dn5, v016
	.byte	W06
	.byte			Dn5, v084
	.byte	W06
	.byte			Dn5, v036
	.byte	W06
	.byte			Dn5, v016
	.byte	W06
	.byte			Dn5, v104
	.byte	W06
	.byte			Dn5, v036
	.byte	W06
	.byte		N05	
	.byte	W06
	.byte			Dn5, v016
	.byte	W06
	.byte			Dn5, v116
	.byte	W06
	.byte			Dn5, v036
	.byte	W06
	.byte			Dn5, v016
	.byte	W06
	.byte			Dn5, v044
	.byte	W06
	.byte			Dn5, v036
	.byte	W06
	.byte			Dn5, v016
	.byte	W06
	.byte			Dn5, v064
	.byte	W06
	.byte			Dn5, v036
	.byte	W06
	.byte			Dn5, v016
	.byte	W06
	.byte			Dn5, v084
	.byte	W06
	.byte			Dn5, v036
	.byte	W06
	.byte			Dn5, v016
	.byte	W06
	.byte			Dn5, v104
	.byte	W06
	.byte			Dn5, v036
	.byte	W06
	.byte		N05	
	.byte	W06
	.byte			Dn5, v104
	.byte	W06
	.byte			Dn5, v116
	.byte	W06
	.byte			Dn5, v036
	.byte	W06
	.byte			Dn5, v016
	.byte	W06
	.byte			Dn5, v044
	.byte	W06
	.byte			Dn5, v036
	.byte	W06
	.byte			Dn5, v016
	.byte	W06
	.byte			Dn5, v064
	.byte	W06
	.byte			Dn5, v036
	.byte	W06
	.byte			Dn5, v016
	.byte	W06
	.byte			Dn5, v084
	.byte	W06
	.byte			Dn5, v036
	.byte	W06
	.byte			Dn5, v016
	.byte	W06
	.byte			Dn5, v104
	.byte	W06
	.byte			Dn5, v036
	.byte	W06
	.byte		N05	
	.byte	W06
	.byte			Dn5, v056
	.byte	W03
	.byte			En5, v100
	.byte	W03
	.byte			Dn5, v124
	.byte	W06
	.byte			Dn5, v024
	.byte	W06
	.byte			Dn5, v124
	.byte	W06
	.byte			Dn5, v024
	.byte	W06
	.byte			Dn5, v124
	.byte	W06
	.byte			Dn5, v024
	.byte	W06
	.byte		N05	
	.byte	W06
	.byte			Cn5, v084
	.byte	W06
	.byte		N05	
	.byte	W06
	.byte			Dn5, v104
	.byte	W03
	.byte			En5, v127
	.byte	W03
	.byte		N11	, Dn5
	.byte	W06
	.byte			En5, v096
	.byte	W06
	.byte			Dn5, v076
	.byte	W06
	.byte			En5, v084
	.byte	W06
	.byte			Dn5, v104
	.byte	W06
	.byte		N05	, En5, v127
	.byte	W06
	.byte	GOTO	
		.word	song028_1_2
	.byte	FINE

	@********************** Track  2 **********************@

	.global song028_2
song028_2:	@ 0x08275F94
	.byte	KEYSH	, 0
	.byte	VOICE	, 16
	.byte	VOL	, v055
	.byte	PAN	, c_v
	.byte	W96
	.byte	W96
	.byte	W96
	.byte	W96
song028_2_6:
	.byte	W96
	.byte	W96
	.byte	W96
	.byte	W96
	.byte	W96
	.byte	W96
	.byte	W96
	.byte	W96
	.byte	PAN	, c_v
	.byte	W11
	.byte	VOICE	, 16
	.byte	W01
	.byte		N11	, Fn4, v096
	.byte	W11
	.byte	VOICE	, 17
	.byte	W01
	.byte		N11	, Gs4
	.byte	W17
	.byte	VOICE	, 16
	.byte	W01
	.byte		N05	, Fn4
	.byte	W11
	.byte	VOICE	, 17
	.byte	W01
	.byte		N05	, Gs4, v112
	.byte	W11
	.byte	VOICE	, 16
	.byte	W01
	.byte		N05	, Fn4, v096
	.byte	W06
	.byte		N11	, Ds4
	.byte	W11
	.byte	VOICE	, 17
	.byte	W01
	.byte		N11	, As4
	.byte	W12
song028_2_1:
	.byte	W11
	.byte	VOICE	, 16
	.byte	W01
	.byte		N11	, Fn4, v096
	.byte	W11
	.byte	VOICE	, 17
	.byte	W01
	.byte		N11	, Gs4
	.byte	W17
	.byte	VOICE	, 16
	.byte	W01
	.byte		N05	, Fn4
	.byte	W06
	.byte			Gs4
	.byte	W05
	.byte	VOICE	, 17
	.byte	W01
	.byte		N05	, Cn5
	.byte	W05
	.byte	VOICE	, 16
	.byte	W01
	.byte		N05	, Bn4
	.byte	W11
	.byte	VOICE	, 17
	.byte	W01
	.byte		N05	, Dn5
	.byte	W11
	.byte	VOICE	, 16
	.byte	W01
	.byte		N05	, Gs4
	.byte	W06
	.byte			Fn4
	.byte	W05
	.byte	VOICE	, 17
	.byte	W01
	.byte	PEND
song028_2_2:
	.byte		N11	, Bn4, v096
	.byte	W17
	.byte	VOICE	, 16
	.byte	W01
	.byte		N11	, Gs4
	.byte	W17
	.byte	VOICE	, 17
	.byte	W01
	.byte		N05	
	.byte	W05
	.byte	VOICE	, 16
	.byte	W01
	.byte		N05	, Fs4
	.byte	W06
	.byte		N17	, En4
	.byte	W17
	.byte	VOICE	, 17
	.byte	W01
	.byte		N11	, En5
	.byte	W18
	.byte			Bn4
	.byte	W11
	.byte	VOICE	, 16
	.byte	W01
	.byte	PEND
song028_2_3:
	.byte		N11	, Cs5, v096
	.byte	W17
	.byte	VOICE	, 17
	.byte	W01
	.byte		N11	, Cs4
	.byte	W17
	.byte	VOICE	, 16
	.byte	W01
	.byte		N11	, Cs5
	.byte	W17
	.byte	VOICE	, 18
	.byte	W01
	.byte		N11	, Cs4
	.byte	W17
	.byte	VOICE	, 16
	.byte	W01
	.byte		N05	, Cs5
	.byte	W11
	.byte	VOICE	, 19
	.byte	W01
	.byte		N11	, Cs4
	.byte	W12
	.byte	PEND
song028_2_4:
	.byte	W11
	.byte	VOICE	, 16
	.byte	W01
	.byte		N11	, Fn4, v096
	.byte	W11
	.byte	VOICE	, 17
	.byte	W01
	.byte		N11	, Gs4
	.byte	W17
	.byte	VOICE	, 16
	.byte	W01
	.byte		N05	, Fn4
	.byte	W11
	.byte	VOICE	, 17
	.byte	W01
	.byte		N05	, Gs4, v112
	.byte	W11
	.byte	VOICE	, 16
	.byte	W01
	.byte		N05	, Fn4, v096
	.byte	W06
	.byte		N11	, Ds4
	.byte	W11
	.byte	VOICE	, 17
	.byte	W01
	.byte		N11	, As4
	.byte	W12
	.byte	PEND
	.byte	PATT	
		.word	song028_2_1
	.byte	PATT	
		.word	song028_2_2
	.byte	PATT	
		.word	song028_2_3
	.byte	W96
	.byte	W96
	.byte	W96
	.byte	W96
	.byte	PATT	
		.word	song028_2_4
	.byte	PATT	
		.word	song028_2_1
	.byte	PATT	
		.word	song028_2_2
	.byte	PATT	
		.word	song028_2_3
	.byte	W96
	.byte	W96
	.byte	W96
	.byte	W96
	.byte	W96
	.byte	W96
	.byte	W96
	.byte	W96
	.byte	W96
	.byte	W96
	.byte	W96
	.byte	W96
	.byte	W96
	.byte	W96
	.byte	W96
	.byte	W96
	.byte	W96
song028_2_5:
	.byte	W92
	.byte	W03
	.byte	PAN	, c_v-30
	.byte	W01
	.byte	PEND
	.byte	VOICE	, 17
	.byte		N11	, Gs3, v056
	.byte	W12
	.byte	VOICE	, 16
	.byte		N05	, Gs2
	.byte	W12
	.byte	VOICE	, 17
	.byte		N11	, Gs3
	.byte	W12
	.byte	VOICE	, 16
	.byte		N05	, Gs2
	.byte	W06
	.byte	VOICE	, 17
	.byte		N05	, Gs3
	.byte	W06
	.byte	VOICE	, 18
	.byte		N05	, Bn3
	.byte	W06
	.byte	VOICE	, 17
	.byte		N11	, Ds3
	.byte	W12
	.byte	VOICE	, 18
	.byte		N11	, Bn2
	.byte	W12
	.byte	VOICE	, 16
	.byte		N05	, Ds3
	.byte	W06
	.byte	VOICE	, 17
	.byte		N17	, Gs3
	.byte	W12
	.byte	W96
	.byte	VOICE	, 17
	.byte		N11	, En4
	.byte	W12
	.byte	VOICE	, 16
	.byte		N05	, En3
	.byte	W12
	.byte	VOICE	, 17
	.byte		N11	, Cs4
	.byte	W12
	.byte	VOICE	, 16
	.byte		N05	, Cs3
	.byte	W06
	.byte	VOICE	, 17
	.byte		N05	, Cs4
	.byte	W06
	.byte	VOICE	, 18
	.byte		N05	, Gs4
	.byte	W06
	.byte	VOICE	, 17
	.byte		N11	, Gs3
	.byte	W12
	.byte	VOICE	, 18
	.byte		N11	, En3
	.byte	W12
	.byte	VOICE	, 16
	.byte		N05	, Gs3
	.byte	W06
	.byte	VOICE	, 17
	.byte		N05	, Cs4
	.byte	W06
	.byte	VOICE	, 18
	.byte		N06	, Gs4
	.byte	W06
	.byte	PATT	
		.word	song028_2_5
	.byte	VOICE	, 17
	.byte		N11	, Gs3, v056
	.byte	W12
	.byte	VOICE	, 16
	.byte		N05	, Gs2
	.byte	W12
	.byte	VOICE	, 17
	.byte		N11	, Gs3
	.byte	W12
	.byte	VOICE	, 16
	.byte		N05	, Gs2
	.byte	W06
	.byte	VOICE	, 17
	.byte		N05	, Gs3
	.byte	W06
	.byte	VOICE	, 18
	.byte		N05	, Bn3
	.byte	W06
	.byte	VOICE	, 17
	.byte		N11	, Ds3
	.byte	W12
	.byte	VOICE	, 18
	.byte		N11	, Bn2
	.byte	W12
	.byte	VOICE	, 16
	.byte		N05	, Ds3
	.byte	W06
	.byte	VOICE	, 17
	.byte		N11	, Gs3
	.byte	W12
	.byte	W96
	.byte	VOICE	, 17
	.byte		N11	, En4
	.byte	W12
	.byte	VOICE	, 16
	.byte		N05	, En3
	.byte	W12
	.byte	VOICE	, 17
	.byte		N11	, Cs4
	.byte	W12
	.byte	VOICE	, 16
	.byte		N05	, Cs3
	.byte	W06
	.byte	VOICE	, 17
	.byte		N05	, Cs4
	.byte	W06
	.byte	VOICE	, 18
	.byte		N05	, Gs4
	.byte	W06
	.byte	VOICE	, 17
	.byte		N11	, Gs3
	.byte	W12
	.byte	VOICE	, 18
	.byte		N05	, Cs4
	.byte	W06
	.byte		N23	, Gs4
	.byte	W06
	.byte	VOICE	, 18
	.byte	W18
	.byte	W96
	.byte	W96
	.byte	W96
	.byte	W96
	.byte	W96
	.byte	W96
	.byte	W96
	.byte	W96
	.byte	GOTO	
		.word	song028_2_6
	.byte	FINE

	@********************** Track  3 **********************@

	.global song028_3
song028_3:	@ 0x0827619A
	.byte	KEYSH	, 0
	.byte	VOICE	, 21
	.byte	VOL	, v060
	.byte	PAN	, c_v-30
	.byte		N06	, Cn3, v024
	.byte	W18
	.byte			Cn3, v056
	.byte	W18
	.byte			Cn3, v096
	.byte	W18
	.byte			Cn3, v056
	.byte	W18
	.byte			Cn3, v024
	.byte	W18
	.byte			Cn3, v056
	.byte	W06
song028_3_10:
	.byte	W12
	.byte		N06	, Cn3, v096
	.byte	W18
	.byte			Cn3, v056
	.byte	W18
	.byte			Cn3, v024
	.byte	W18
	.byte			Cn3, v056
	.byte	W18
	.byte			Cn3, v096
	.byte	W12
	.byte	PEND
song028_3_11:
	.byte	W06
	.byte		N06	, Cn3, v056
	.byte	W18
	.byte			Cn3, v024
	.byte	W18
	.byte			Cn3, v056
	.byte	W18
	.byte			Cn3, v096
	.byte	W18
	.byte			Cn3, v056
	.byte	W18
	.byte	PEND
song028_3_12:
	.byte		N06	, Cn3, v024
	.byte	W18
	.byte			Cn3, v056
	.byte	W18
	.byte			Cn3, v096
	.byte	W18
	.byte			Cn3, v056
	.byte	W18
	.byte			Cn3, v024
	.byte	W24
	.byte	PEND
song028_3_1:
	.byte		N15	, Cn3, v084
	.byte	W18
	.byte		N04	, An2, v104
	.byte	W18
	.byte		N15	, Cn3, v084
	.byte	W18
	.byte		N05	, An2, v116
	.byte	W18
	.byte		N03	, Cn3, v104
	.byte	W06
	.byte		N17	, Dn3, v116
	.byte	W18
	.byte	PEND
	.byte	PATT	
		.word	song028_3_1
song028_3_2:
	.byte	W18
	.byte		N04	, Gs2, v104
	.byte	W36
	.byte		N05	, Gs2, v116
	.byte	W42
	.byte	PEND
	.byte	PATT	
		.word	song028_3_2
	.byte	PATT	
		.word	song028_3_1
	.byte	PATT	
		.word	song028_3_1
	.byte	PATT	
		.word	song028_3_2
	.byte	PATT	
		.word	song028_3_2
	.byte	W96
	.byte	W96
	.byte	W96
	.byte	W96
	.byte	W96
	.byte	W96
	.byte	W96
	.byte	W96
	.byte	PATT	
		.word	song028_3_1
	.byte	PATT	
		.word	song028_3_1
	.byte	PATT	
		.word	song028_3_2
	.byte	PATT	
		.word	song028_3_2
	.byte	PATT	
		.word	song028_3_1
	.byte	PATT	
		.word	song028_3_1
	.byte	PATT	
		.word	song028_3_2
	.byte	PATT	
		.word	song028_3_2
	.byte	W96
song028_3_4:
	.byte		N06	, An3, v092
	.byte	W12
	.byte		N05	, An3, v112
	.byte	W12
	.byte		N06	, An3, v052
	.byte	W12
	.byte			An3, v092
	.byte	W12
	.byte		N05	, An3, v112
	.byte	W12
	.byte		N06	, An3, v052
	.byte	W12
	.byte		N10	, An3, v112
	.byte	W12
	.byte		N04	, En3, v100
	.byte	W12
	.byte	PEND
song028_3_5:
	.byte		N06	, As3, v092
	.byte	W12
	.byte		N05	, As3, v112
	.byte	W12
	.byte		N06	, As3, v052
	.byte	W12
	.byte			As3, v092
	.byte	W12
	.byte		N05	, As3, v112
	.byte	W12
	.byte		N06	, As3, v052
	.byte	W12
	.byte		N10	, As3, v112
	.byte	W12
	.byte		N04	, Fn3, v100
	.byte	W12
	.byte	PEND
song028_3_6:
	.byte		N06	, Cn4, v092
	.byte	W12
	.byte		N05	, Cn4, v112
	.byte	W12
	.byte		N06	, Cn4, v052
	.byte	W12
	.byte			Cn4, v092
	.byte	W12
	.byte		N05	, Cn4, v112
	.byte	W12
	.byte		N06	, Cn4, v052
	.byte	W12
	.byte		N10	, Cn4, v112
	.byte	W12
	.byte		N04	, Gn3, v100
	.byte	W12
	.byte	PEND
song028_3_3:
	.byte		N06	, Fn3, v092
	.byte	W12
	.byte		N05	, Fn3, v112
	.byte	W12
	.byte		N06	, Fn3, v052
	.byte	W12
	.byte			Fn3, v092
	.byte	W12
	.byte		N05	, Fn3, v112
	.byte	W12
	.byte		N06	, Fn3, v052
	.byte	W12
	.byte		N10	, Fn3, v112
	.byte	W12
	.byte		N04	, Cn3, v100
	.byte	W12
	.byte	PEND
	.byte	PATT	
		.word	song028_3_3
song028_3_7:
	.byte		N06	, Gn3, v092
	.byte	W12
	.byte		N05	, Gn3, v112
	.byte	W12
	.byte		N06	, Gn3, v052
	.byte	W12
	.byte			Gn3, v092
	.byte	W12
	.byte		N05	, Gn3, v112
	.byte	W12
	.byte		N06	, Gn3, v052
	.byte	W12
	.byte		N10	, Gn3, v112
	.byte	W12
	.byte		N04	, Dn3, v100
	.byte	W12
	.byte	PEND
song028_3_8:
	.byte		N06	, Cn3, v092
	.byte	W12
	.byte		N05	, Cn3, v112
	.byte	W12
	.byte		N06	, Cn3, v052
	.byte	W12
	.byte			Cn3, v092
	.byte	W12
	.byte		N05	, Cn3, v112
	.byte	W12
	.byte		N06	, Cn3, v052
	.byte	W12
	.byte		N10	, Cn3, v112
	.byte	W12
	.byte		N04	, Gn3, v100
	.byte	W12
	.byte	PEND
song028_3_9:
	.byte		N06	, Fs3, v092
	.byte	W12
	.byte		N05	, Fs3, v112
	.byte	W12
	.byte		N06	, Fs3, v052
	.byte	W12
	.byte			Fs3, v092
	.byte	W12
	.byte		N05	, Fs3, v112
	.byte	W12
	.byte		N06	, Fs3, v052
	.byte	W12
	.byte		N10	, Fs3, v112
	.byte	W12
	.byte		N04	, Fs3, v100
	.byte	W12
	.byte	PEND
	.byte	PATT	
		.word	song028_3_4
	.byte	PATT	
		.word	song028_3_5
	.byte	PATT	
		.word	song028_3_6
	.byte	PATT	
		.word	song028_3_3
	.byte	PATT	
		.word	song028_3_3
	.byte	PATT	
		.word	song028_3_7
	.byte	PATT	
		.word	song028_3_8
	.byte	PATT	
		.word	song028_3_9
	.byte	W96
	.byte	W96
	.byte	W96
	.byte	W96
	.byte		N15	, Gs3, v096
	.byte	W18
	.byte		N04	, As3, v116
	.byte	W18
	.byte		N09	, Fn3, v084
	.byte	W18
	.byte		N05	, Fn3, v116
	.byte	W12
	.byte		N03	, Ds3, v084
	.byte	W06
	.byte		N05	, Fn3, v116
	.byte	W12
	.byte		N10	, Ds3
	.byte	W12
	.byte	W96
	.byte		N15	, Cn4, v096
	.byte	W18
	.byte		N04	, Cs4, v116
	.byte	W18
	.byte		N09	, Cn4, v084
	.byte	W18
	.byte		N05	, Cs4, v116
	.byte	W12
	.byte		N03	, Cn4, v084
	.byte	W06
	.byte		N05	, Cn4, v116
	.byte	W12
	.byte		N10	, Ds4, v120
	.byte	W12
	.byte	W96
	.byte		N06	, Ds3, v024
	.byte	W18
	.byte			Ds3, v056
	.byte	W18
	.byte			Ds3, v096
	.byte	W18
	.byte			Ds3, v056
	.byte	W18
	.byte			Ds3, v024
	.byte	W18
	.byte			Ds3, v056
	.byte	W06
	.byte	W12
	.byte			Ds3, v096
	.byte	W18
	.byte			Ds3, v056
	.byte	W18
	.byte			Ds3, v024
	.byte	W18
	.byte			Ds3, v056
	.byte	W18
	.byte			Ds3, v096
	.byte	W12
	.byte	W06
	.byte			En3, v056
	.byte	W18
	.byte			En3, v024
	.byte	W18
	.byte			En3, v056
	.byte	W18
	.byte			En3, v096
	.byte	W18
	.byte			En3, v056
	.byte	W18
	.byte			En3, v024
	.byte	W18
	.byte			En3, v056
	.byte	W18
	.byte			En3, v096
	.byte	W18
	.byte			En3, v056
	.byte	W18
	.byte			En3, v024
	.byte	W24
	.byte			Cn3
	.byte	W18
	.byte			Cn3, v056
	.byte	W18
	.byte			Cn3, v096
	.byte	W18
	.byte			Cn3, v056
	.byte	W18
	.byte			Cn3, v024
	.byte	W18
	.byte			Cn3, v056
	.byte	W06
	.byte	PATT	
		.word	song028_3_10
	.byte	PATT	
		.word	song028_3_11
	.byte	PATT	
		.word	song028_3_12
	.byte	GOTO	
		.word	song028_3_1
	.byte	FINE

	@********************** Track  4 **********************@

	.global song028_4
song028_4:	@ 0x0827640E
	.byte	KEYSH	, 0
	.byte	VOICE	, 22
	.byte	VOL	, v060
	.byte	PAN	, c_v-30
	.byte	W96
	.byte	W96
	.byte	W96
	.byte	W96
song028_4_2:
	.byte	W96
	.byte	W96
song028_4_1:
	.byte		N15	, Cn3, v084
	.byte	W36
	.byte		N15	
	.byte	W36
	.byte		N04	, Cn3, v104
	.byte	W06
	.byte		N17	, Dn3, v116
	.byte	W18
	.byte	PEND
	.byte	PATT	
		.word	song028_4_1
	.byte	W96
	.byte	W96
	.byte	PATT	
		.word	song028_4_1
	.byte	PATT	
		.word	song028_4_1
	.byte	W96
	.byte	W96
	.byte	W96
	.byte	W96
	.byte	W96
	.byte	W96
	.byte	W96
	.byte	W96
	.byte	W96
	.byte	W96
	.byte	PATT	
		.word	song028_4_1
	.byte	PATT	
		.word	song028_4_1
	.byte	W96
	.byte	W96
	.byte	PATT	
		.word	song028_4_1
	.byte	PATT	
		.word	song028_4_1
	.byte	W96
	.byte	W96
	.byte	W96
	.byte	W96
	.byte	W96
	.byte	W96
	.byte	W96
	.byte	W96
	.byte	W96
	.byte	W96
	.byte	W96
	.byte	W96
	.byte	W96
	.byte	W96
	.byte	W96
	.byte	W96
	.byte	W96
	.byte	W96
	.byte	W96
	.byte	W96
	.byte	W96
	.byte	W96
	.byte	W96
	.byte	W96
	.byte	W96
	.byte	W96
	.byte	W96
	.byte	W96
	.byte	W96
	.byte	W96
	.byte	W96
	.byte	W96
	.byte	W96
	.byte	GOTO	
		.word	song028_4_2
	.byte	FINE

	@********************** Track  5 **********************@

	.global song028_5
song028_5:	@ 0x08276483
	.byte	KEYSH	, 0
	.byte	VOICE	, 23
	.byte	VOL	, v035
	.byte	PAN	, c_v+30
	.byte		N03	, Gn3, v024
	.byte	W06
	.byte			Gs3, v044
	.byte	W06
	.byte			As3, v064
	.byte	W06
	.byte			Dn4, v084
	.byte	W06
	.byte			Cn4, v036
	.byte	W06
	.byte			Dn4, v056
	.byte	W06
	.byte			Ds4, v076
	.byte	W06
	.byte			Gn4, v096
	.byte	W06
	.byte			As4, v116
	.byte	W06
	.byte			Gs4, v096
	.byte	W06
	.byte			Gn4, v076
	.byte	W06
	.byte			Gs4, v096
	.byte	W06
	.byte			Gn4, v076
	.byte	W06
	.byte			Ds4, v056
	.byte	W06
	.byte			Cn4, v036
	.byte	W06
	.byte			As3, v016
	.byte	W06
song028_5_2:
	.byte		N03	, Gn3, v024
	.byte	W06
	.byte			Gs3, v044
	.byte	W06
	.byte			As3, v064
	.byte	W06
	.byte			Dn4, v084
	.byte	W06
	.byte			Cn4, v036
	.byte	W06
	.byte			Dn4, v056
	.byte	W06
	.byte			Ds4, v076
	.byte	W06
	.byte			Gn4, v096
	.byte	W06
	.byte			As4, v116
	.byte	W06
	.byte			Gs4, v096
	.byte	W06
	.byte			Gn4, v076
	.byte	W06
	.byte			Gs4, v096
	.byte	W06
	.byte			Gn4, v076
	.byte	W06
	.byte			Ds4, v056
	.byte	W06
	.byte			Cn4, v036
	.byte	W06
	.byte			As3, v016
	.byte	W06
	.byte	PEND
song028_5_1:
	.byte		N03	, Fs3, v024
	.byte	W06
	.byte			Gs3, v044
	.byte	W06
	.byte			As3, v064
	.byte	W06
	.byte			Cs4, v084
	.byte	W06
	.byte			Bn3, v036
	.byte	W06
	.byte			Cs4, v056
	.byte	W06
	.byte			Ds4, v076
	.byte	W06
	.byte			Fs4, v096
	.byte	W06
	.byte			As4, v116
	.byte	W06
	.byte			Gs4, v096
	.byte	W06
	.byte			Fs4, v076
	.byte	W06
	.byte			Gs4, v096
	.byte	W06
	.byte			Fs4, v076
	.byte	W06
	.byte			Ds4, v056
	.byte	W06
	.byte			Bn3, v036
	.byte	W06
	.byte			Gs3, v016
	.byte	W06
	.byte	PEND
	.byte	PATT	
		.word	song028_5_1
song028_5_16:
	.byte	PATT	
		.word	song028_5_2
	.byte	PATT	
		.word	song028_5_2
	.byte	PATT	
		.word	song028_5_1
	.byte	PATT	
		.word	song028_5_1
	.byte	PATT	
		.word	song028_5_2
	.byte	PATT	
		.word	song028_5_2
	.byte	PATT	
		.word	song028_5_1
	.byte	PATT	
		.word	song028_5_1
	.byte	W96
	.byte	W96
	.byte	W96
	.byte	W96
	.byte	W96
	.byte	W96
	.byte	W96
	.byte	W96
song028_5_3:
	.byte		N03	, Gn3, v036
	.byte	W06
	.byte			Gs3, v056
	.byte	W06
	.byte			As3, v076
	.byte	W06
	.byte			Dn4, v096
	.byte	W06
	.byte			Cn4, v044
	.byte	W06
	.byte			Dn4, v064
	.byte	W06
	.byte			Ds4, v084
	.byte	W06
	.byte			Gn4, v104
	.byte	W06
	.byte			As4, v124
	.byte	W06
	.byte			Gs4, v104
	.byte	W06
	.byte			Gn4, v084
	.byte	W06
	.byte			Gs4, v104
	.byte	W06
	.byte			Gn4, v084
	.byte	W06
	.byte			Ds4, v064
	.byte	W06
	.byte			Cn4, v044
	.byte	W06
	.byte			As3, v024
	.byte	W06
	.byte	PEND
	.byte	PATT	
		.word	song028_5_3
song028_5_4:
	.byte		N03	, Fs3, v036
	.byte	W06
	.byte			Gs3, v056
	.byte	W06
	.byte			As3, v076
	.byte	W06
	.byte			Cs4, v096
	.byte	W06
	.byte			Bn3, v044
	.byte	W06
	.byte			Cs4, v064
	.byte	W06
	.byte			Ds4, v084
	.byte	W06
	.byte			Fs4, v104
	.byte	W06
	.byte			As4, v124
	.byte	W06
	.byte			Gs4, v104
	.byte	W06
	.byte			Fs4, v084
	.byte	W06
	.byte			Gs4, v104
	.byte	W06
	.byte			Fs4, v084
	.byte	W06
	.byte			Ds4, v064
	.byte	W06
	.byte			Bn3, v044
	.byte	W06
	.byte			Gs3, v024
	.byte	W06
	.byte	PEND
	.byte	PATT	
		.word	song028_5_4
	.byte	W96
	.byte	W96
	.byte	W96
	.byte	W96
	.byte	W96
song028_5_6:
	.byte		N03	, Gn3, v036
	.byte	W06
	.byte			An3, v056
	.byte	W06
	.byte			Bn3, v076
	.byte	W06
	.byte			Dn4, v096
	.byte	W06
	.byte			Cn4, v044
	.byte	W06
	.byte			Dn4, v064
	.byte	W06
	.byte			En4, v084
	.byte	W06
	.byte			Gn4, v104
	.byte	W06
	.byte			Bn4, v124
	.byte	W06
	.byte			An4, v104
	.byte	W06
	.byte			Gn4, v084
	.byte	W06
	.byte			An4, v104
	.byte	W06
	.byte			Gn4, v084
	.byte	W06
	.byte			En4, v064
	.byte	W06
	.byte			Cn4, v044
	.byte	W06
	.byte			Gn3, v036
	.byte	W06
	.byte	PEND
song028_5_7:
	.byte		N03	, Fs3, v036
	.byte	W06
	.byte			Gs3, v056
	.byte	W06
	.byte			Bn3, v076
	.byte	W06
	.byte			Ds4, v096
	.byte	W06
	.byte			Cs4, v044
	.byte	W06
	.byte			Ds4, v064
	.byte	W06
	.byte			En4, v084
	.byte	W06
	.byte			Gs4, v104
	.byte	W06
	.byte			Bn4, v124
	.byte	W06
	.byte			Gs4, v104
	.byte	W06
	.byte			Fs4, v084
	.byte	W06
	.byte			Gs4, v104
	.byte	W06
	.byte			Fs4, v084
	.byte	W06
	.byte			Ds4, v064
	.byte	W06
	.byte			Cs4, v044
	.byte	W06
	.byte			Gs3, v036
	.byte	W06
	.byte	PEND
song028_5_5:
	.byte		N03	, Fs3, v036
	.byte	W06
	.byte			Gs3, v056
	.byte	W06
	.byte			As3, v076
	.byte	W06
	.byte			Cs4, v096
	.byte	W06
	.byte			As3, v044
	.byte	W06
	.byte			Cs4, v064
	.byte	W06
	.byte			Ds4, v084
	.byte	W06
	.byte			Fs4, v104
	.byte	W06
	.byte			As4, v124
	.byte	W06
	.byte			Gs4, v104
	.byte	W06
	.byte			Fs4, v084
	.byte	W06
	.byte			Gs4, v104
	.byte	W06
	.byte			Fs4, v084
	.byte	W06
	.byte			Ds4, v064
	.byte	W06
	.byte			As3, v044
	.byte	W06
	.byte			Fs3, v036
	.byte	W06
	.byte	PEND
song028_5_8:
	.byte		N03	, Fs3, v036
	.byte	W06
	.byte			Gs3, v056
	.byte	W06
	.byte			An3, v076
	.byte	W06
	.byte			Cn4, v096
	.byte	W06
	.byte			An3, v044
	.byte	W06
	.byte			Cn4, v064
	.byte	W06
	.byte			Ds4, v084
	.byte	W06
	.byte			Fs4, v104
	.byte	W06
	.byte			An4, v124
	.byte	W06
	.byte			Gs4, v104
	.byte	W06
	.byte			Fs4, v084
	.byte	W06
	.byte			Gs4, v104
	.byte	W06
	.byte			Fs4, v084
	.byte	W06
	.byte			Ds4, v064
	.byte	W06
	.byte			Cn4, v044
	.byte	W06
	.byte			An3, v036
	.byte	W06
	.byte	PEND
song028_5_9:
	.byte		N03	, Gn3, v036
	.byte	W06
	.byte			Gs3, v056
	.byte	W06
	.byte			Cn4, v076
	.byte	W06
	.byte			Ds4, v096
	.byte	W06
	.byte			Cn4, v044
	.byte	W06
	.byte			Ds4, v064
	.byte	W06
	.byte			Fn4, v084
	.byte	W06
	.byte			Gn4, v104
	.byte	W06
	.byte			As4, v124
	.byte	W06
	.byte			Gs4, v104
	.byte	W06
	.byte			Gn4, v084
	.byte	W06
	.byte			Gs4, v104
	.byte	W06
	.byte			Gn4, v084
	.byte	W06
	.byte			Ds4, v064
	.byte	W06
	.byte			Cn4, v044
	.byte	W06
	.byte			Gs3, v036
	.byte	W06
	.byte	PEND
song028_5_10:
	.byte		N03	, Fn3, v036
	.byte	W06
	.byte			Gs3, v056
	.byte	W06
	.byte			Bn3, v076
	.byte	W06
	.byte			Dn4, v096
	.byte	W06
	.byte			Bn3, v044
	.byte	W06
	.byte			Dn4, v064
	.byte	W06
	.byte			Fn4, v084
	.byte	W06
	.byte			Gs4, v104
	.byte	W06
	.byte			Bn4, v124
	.byte	W06
	.byte			As4, v104
	.byte	W06
	.byte			Gs4, v084
	.byte	W06
	.byte			As4, v104
	.byte	W06
	.byte			Gs4, v084
	.byte	W06
	.byte			Fn4, v064
	.byte	W06
	.byte			Dn4, v044
	.byte	W06
	.byte			Gs3, v036
	.byte	W06
	.byte	PEND
	.byte	PATT	
		.word	song028_5_5
song028_5_11:
	.byte		N03	, Fs3, v036
	.byte	W06
	.byte			Gs3, v056
	.byte	W06
	.byte			Cn4, v076
	.byte	W06
	.byte			Ds4, v096
	.byte	W06
	.byte			Cn4, v044
	.byte	W06
	.byte			Ds4, v064
	.byte	W06
	.byte			Fs4, v084
	.byte	W06
	.byte			Gs4, v104
	.byte	W06
	.byte			An4, v124
	.byte	W06
	.byte			Gs4, v104
	.byte	W06
	.byte			Fs4, v084
	.byte	W06
	.byte			Gs4, v104
	.byte	W06
	.byte			Fs4, v084
	.byte	W06
	.byte			Ds4, v064
	.byte	W06
	.byte			Cn4, v044
	.byte	W06
	.byte			An3, v036
	.byte	W06
	.byte	PEND
	.byte	PATT	
		.word	song028_5_6
	.byte	PATT	
		.word	song028_5_7
	.byte	PATT	
		.word	song028_5_5
	.byte	PATT	
		.word	song028_5_8
	.byte	PATT	
		.word	song028_5_9
	.byte	PATT	
		.word	song028_5_10
	.byte	PATT	
		.word	song028_5_5
	.byte	PATT	
		.word	song028_5_11
	.byte	W96
song028_5_12:
	.byte		N03	, As4, v124
	.byte	W06
	.byte			Fs4, v084
	.byte	W06
	.byte			Cs4
	.byte	W06
	.byte			Fs4, v096
	.byte	W12
	.byte			Gs3, v116
	.byte	W12
	.byte			Ds4, v096
	.byte	W12
	.byte			Cs4, v116
	.byte	W12
	.byte			Fs4, v076
	.byte	W06
	.byte			Fs4, v116
	.byte	W12
	.byte		N11	, Fs3, v076
	.byte	W12
	.byte	PEND
	.byte	W96
song028_5_13:
	.byte		N03	, Ds5, v124
	.byte	W04
	.byte			Bn4, v104
	.byte	W04
	.byte			Fs4
	.byte	W04
	.byte			Cs5, v124
	.byte	W04
	.byte			Gs4, v104
	.byte	W04
	.byte			Ds4
	.byte	W04
	.byte			Bn4, v124
	.byte	W04
	.byte			Fs4, v104
	.byte	W04
	.byte			Cs4
	.byte	W04
	.byte			Gs4, v124
	.byte	W04
	.byte			Ds4, v104
	.byte	W04
	.byte			Bn3
	.byte	W10
	.byte			Ds4
	.byte	W06
	.byte			Gs4, v124
	.byte	W12
	.byte			Ds4, v104
	.byte	W12
	.byte			Cs4
	.byte	W12
	.byte	PEND
	.byte	W96
	.byte	PATT	
		.word	song028_5_12
	.byte	W96
	.byte	PATT	
		.word	song028_5_13
song028_5_14:
	.byte		N03	, Ds3, v024
	.byte	W06
	.byte			En3, v044
	.byte	W06
	.byte			Fs3, v064
	.byte	W06
	.byte			As3, v084
	.byte	W06
	.byte			Gs3, v036
	.byte	W06
	.byte			As3, v056
	.byte	W06
	.byte			Bn3, v076
	.byte	W06
	.byte			Ds4, v096
	.byte	W06
	.byte			Fs4, v116
	.byte	W06
	.byte			En4, v096
	.byte	W06
	.byte			Ds4, v076
	.byte	W06
	.byte			En4, v096
	.byte	W06
	.byte			Ds4, v076
	.byte	W06
	.byte			Bn3, v056
	.byte	W06
	.byte			Gs3, v036
	.byte	W06
	.byte			Fs3, v016
	.byte	W06
	.byte	PEND
	.byte	PATT	
		.word	song028_5_14
song028_5_15:
	.byte		N03	, Dn3, v024
	.byte	W06
	.byte			En3, v044
	.byte	W06
	.byte			Fs3, v064
	.byte	W06
	.byte			An3, v084
	.byte	W06
	.byte			Gn3, v036
	.byte	W06
	.byte			An3, v056
	.byte	W06
	.byte			Bn3, v076
	.byte	W06
	.byte			Dn4, v096
	.byte	W06
	.byte			Fs4, v116
	.byte	W06
	.byte			En4, v096
	.byte	W06
	.byte			Dn4, v076
	.byte	W06
	.byte			En4, v096
	.byte	W06
	.byte			Dn4, v076
	.byte	W06
	.byte			Bn3, v056
	.byte	W06
	.byte			Gn3, v036
	.byte	W06
	.byte			En3, v016
	.byte	W06
	.byte	PEND
	.byte	PATT	
		.word	song028_5_15
	.byte	PATT	
		.word	song028_5_2
	.byte	PATT	
		.word	song028_5_2
	.byte	PATT	
		.word	song028_5_1
	.byte	PATT	
		.word	song028_5_1
	.byte	GOTO	
		.word	song028_5_16
	.byte	FINE

	@********************** Track  6 **********************@

	.global song028_6
song028_6:	@ 0x08276835
	.byte	KEYSH	, 0
	.byte	W01
	.byte	VOICE	, 24
	.byte	VOL	, v027
	.byte	PAN	, c_v
	.byte	TUNE	, c_v-10
	.byte		N03	, Gn3, v024
	.byte	W06
	.byte			Gs3, v044
	.byte	W06
	.byte			As3, v064
	.byte	W06
	.byte			Dn4, v084
	.byte	W06
	.byte			Cn4, v036
	.byte	W06
	.byte			Dn4, v056
	.byte	W06
	.byte			Ds4, v076
	.byte	W06
	.byte			Gn4, v096
	.byte	W06
	.byte			As4, v116
	.byte	W06
	.byte			Gs4, v096
	.byte	W06
	.byte			Gn4, v076
	.byte	W06
	.byte			Gs4, v096
	.byte	W06
	.byte			Gn4, v076
	.byte	W06
	.byte			Ds4, v056
	.byte	W06
	.byte			Cn4, v036
	.byte	W06
	.byte			As3, v016
	.byte	W05
song028_6_2:
	.byte	W01
	.byte		N03	, Gn3, v024
	.byte	W06
	.byte			Gs3, v044
	.byte	W06
	.byte			As3, v064
	.byte	W06
	.byte			Dn4, v084
	.byte	W06
	.byte			Cn4, v036
	.byte	W06
	.byte			Dn4, v056
	.byte	W06
	.byte			Ds4, v076
	.byte	W06
	.byte			Gn4, v096
	.byte	W06
	.byte			As4, v116
	.byte	W06
	.byte			Gs4, v096
	.byte	W06
	.byte			Gn4, v076
	.byte	W06
	.byte			Gs4, v096
	.byte	W06
	.byte			Gn4, v076
	.byte	W06
	.byte			Ds4, v056
	.byte	W06
	.byte			Cn4, v036
	.byte	W06
	.byte			As3, v016
	.byte	W05
	.byte	PEND
song028_6_1:
	.byte	W01
	.byte		N03	, Fs3, v024
	.byte	W06
	.byte			Gs3, v044
	.byte	W06
	.byte			As3, v064
	.byte	W06
	.byte			Cs4, v084
	.byte	W06
	.byte			Bn3, v036
	.byte	W06
	.byte			Cs4, v056
	.byte	W06
	.byte			Ds4, v076
	.byte	W06
	.byte			Fs4, v096
	.byte	W06
	.byte			As4, v116
	.byte	W06
	.byte			Gs4, v096
	.byte	W06
	.byte			Fs4, v076
	.byte	W06
	.byte			Gs4, v096
	.byte	W06
	.byte			Fs4, v076
	.byte	W06
	.byte			Ds4, v056
	.byte	W06
	.byte			Bn3, v036
	.byte	W06
	.byte			Gs3, v016
	.byte	W05
	.byte	PEND
	.byte	PATT	
		.word	song028_6_1
song028_6_6:
	.byte	PATT	
		.word	song028_6_2
	.byte	PATT	
		.word	song028_6_2
	.byte	PATT	
		.word	song028_6_1
	.byte	PATT	
		.word	song028_6_1
	.byte	PATT	
		.word	song028_6_2
	.byte	PATT	
		.word	song028_6_2
	.byte	PATT	
		.word	song028_6_1
	.byte	PATT	
		.word	song028_6_1
	.byte	W96
	.byte	W96
	.byte	W96
	.byte	W96
	.byte	W96
	.byte	W96
	.byte	W96
	.byte	W96
	.byte	PATT	
		.word	song028_6_2
	.byte	PATT	
		.word	song028_6_2
	.byte	PATT	
		.word	song028_6_1
	.byte	PATT	
		.word	song028_6_1
	.byte	W96
	.byte	W96
	.byte	W96
	.byte	W96
	.byte	W96
	.byte	W96
	.byte	W96
	.byte	W96
	.byte	W96
	.byte	W96
	.byte	W96
	.byte	W96
	.byte	W96
	.byte	W01
	.byte		N03	, Gn3, v036
	.byte	W06
	.byte			An3, v056
	.byte	W06
	.byte			Bn3, v076
	.byte	W06
	.byte			Dn4, v096
	.byte	W06
	.byte			Cn4, v044
	.byte	W06
	.byte			Dn4, v064
	.byte	W06
	.byte			En4, v084
	.byte	W06
	.byte			Gn4, v104
	.byte	W06
	.byte			Bn4, v124
	.byte	W06
	.byte			An4, v104
	.byte	W06
	.byte			Gn4, v084
	.byte	W06
	.byte			An4, v104
	.byte	W06
	.byte			Gn4, v084
	.byte	W06
	.byte			En4, v064
	.byte	W06
	.byte			Cn4, v044
	.byte	W06
	.byte			Gn3, v036
	.byte	W05
	.byte	W01
	.byte			Fs3
	.byte	W06
	.byte			Gs3, v056
	.byte	W06
	.byte			Bn3, v076
	.byte	W06
	.byte			Ds4, v096
	.byte	W06
	.byte			Cs4, v044
	.byte	W06
	.byte			Ds4, v064
	.byte	W06
	.byte			En4, v084
	.byte	W06
	.byte			Gs4, v104
	.byte	W06
	.byte			Bn4, v124
	.byte	W06
	.byte			Gs4, v104
	.byte	W06
	.byte			Fs4, v084
	.byte	W06
	.byte			Gs4, v104
	.byte	W06
	.byte			Fs4, v084
	.byte	W06
	.byte			Ds4, v064
	.byte	W06
	.byte			Cs4, v044
	.byte	W06
	.byte			Gs3, v036
	.byte	W05
song028_6_3:
	.byte	W01
	.byte		N03	, Fs3, v036
	.byte	W06
	.byte			Gs3, v056
	.byte	W06
	.byte			As3, v076
	.byte	W06
	.byte			Cs4, v096
	.byte	W06
	.byte			As3, v044
	.byte	W06
	.byte			Cs4, v064
	.byte	W06
	.byte			Ds4, v084
	.byte	W06
	.byte			Fs4, v104
	.byte	W06
	.byte			As4, v124
	.byte	W06
	.byte			Gs4, v104
	.byte	W06
	.byte			Fs4, v084
	.byte	W06
	.byte			Gs4, v104
	.byte	W06
	.byte			Fs4, v084
	.byte	W06
	.byte			Ds4, v064
	.byte	W06
	.byte			As3, v044
	.byte	W06
	.byte			Fs3, v036
	.byte	W05
	.byte	PEND
	.byte	W01
	.byte		N03	
	.byte	W06
	.byte			Gs3, v056
	.byte	W06
	.byte			An3, v076
	.byte	W06
	.byte			Cn4, v096
	.byte	W06
	.byte			An3, v044
	.byte	W06
	.byte			Cn4, v064
	.byte	W06
	.byte			Ds4, v084
	.byte	W06
	.byte			Fs4, v104
	.byte	W06
	.byte			An4, v124
	.byte	W06
	.byte			Gs4, v104
	.byte	W06
	.byte			Fs4, v084
	.byte	W06
	.byte			Gs4, v104
	.byte	W06
	.byte			Fs4, v084
	.byte	W06
	.byte			Ds4, v064
	.byte	W06
	.byte			Cn4, v044
	.byte	W06
	.byte			An3, v036
	.byte	W05
	.byte	W01
	.byte			Gn3
	.byte	W06
	.byte			Gs3, v056
	.byte	W06
	.byte			Cn4, v076
	.byte	W06
	.byte			Ds4, v096
	.byte	W06
	.byte			Cn4, v044
	.byte	W06
	.byte			Ds4, v064
	.byte	W06
	.byte			Fn4, v084
	.byte	W06
	.byte			Gn4, v104
	.byte	W06
	.byte			As4, v124
	.byte	W06
	.byte			Gs4, v104
	.byte	W06
	.byte			Gn4, v084
	.byte	W06
	.byte			Gs4, v104
	.byte	W06
	.byte			Gn4, v084
	.byte	W06
	.byte			Ds4, v064
	.byte	W06
	.byte			Cn4, v044
	.byte	W06
	.byte			Gs3, v036
	.byte	W05
	.byte	W01
	.byte			Fn3
	.byte	W06
	.byte			Gs3, v056
	.byte	W06
	.byte			Bn3, v076
	.byte	W06
	.byte			Dn4, v096
	.byte	W06
	.byte			Bn3, v044
	.byte	W06
	.byte			Dn4, v064
	.byte	W06
	.byte			Fn4, v084
	.byte	W06
	.byte			Gs4, v104
	.byte	W06
	.byte			Bn4, v124
	.byte	W06
	.byte			As4, v104
	.byte	W06
	.byte			Gs4, v084
	.byte	W06
	.byte			As4, v104
	.byte	W06
	.byte			Gs4, v084
	.byte	W06
	.byte			Fn4, v064
	.byte	W06
	.byte			Dn4, v044
	.byte	W06
	.byte			Gs3, v036
	.byte	W05
	.byte	PATT	
		.word	song028_6_3
	.byte	W01
	.byte		N03	, Fs3, v036
	.byte	W06
	.byte			Gs3, v056
	.byte	W06
	.byte			Cn4, v076
	.byte	W06
	.byte			Ds4, v096
	.byte	W06
	.byte			Cn4, v044
	.byte	W06
	.byte			Ds4, v064
	.byte	W06
	.byte			Fs4, v084
	.byte	W06
	.byte			Gs4, v104
	.byte	W06
	.byte			An4, v124
	.byte	W06
	.byte			Gs4, v104
	.byte	W06
	.byte			Fs4, v084
	.byte	W06
	.byte			Gs4, v104
	.byte	W06
	.byte			Fs4, v084
	.byte	W06
	.byte			Ds4, v064
	.byte	W06
	.byte			Cn4, v044
	.byte	W06
	.byte			An3, v036
	.byte	W05
	.byte	W96
	.byte	W96
	.byte	W96
	.byte	W96
	.byte	W96
	.byte	W01
	.byte			As4, v124
	.byte	W06
	.byte			Fs4, v076
	.byte	W06
	.byte			Cs4
	.byte	W06
	.byte			Fs4, v084
	.byte	W12
	.byte			Gs3, v104
	.byte	W12
	.byte			Ds4, v084
	.byte	W12
	.byte			Cs4, v104
	.byte	W12
	.byte			Fs4, v064
	.byte	W06
	.byte			Fs4, v104
	.byte	W12
	.byte		N11	, Fs3, v064
	.byte	W11
	.byte	W96
	.byte	W01
	.byte		N03	, Ds5, v124
	.byte	W04
	.byte			Bn4, v084
	.byte	W04
	.byte			Fs4
	.byte	W04
	.byte			Cs5, v124
	.byte	W04
	.byte			Gs4, v084
	.byte	W04
	.byte			Ds4
	.byte	W04
	.byte			Bn4, v124
	.byte	W04
	.byte			Fs4, v084
	.byte	W04
	.byte			Cs4
	.byte	W04
	.byte			Gs4, v124
	.byte	W04
	.byte			Ds4, v084
	.byte	W04
	.byte			Bn3
	.byte	W10
	.byte			Ds4
	.byte	W06
	.byte			Gs4, v124
	.byte	W12
	.byte			Ds4, v084
	.byte	W12
	.byte			Cs4
	.byte	W11
song028_6_4:
	.byte	W01
	.byte		N03	, Ds3, v024
	.byte	W06
	.byte			En3, v044
	.byte	W06
	.byte			Fs3, v064
	.byte	W06
	.byte			As3, v084
	.byte	W06
	.byte			Gs3, v036
	.byte	W06
	.byte			As3, v056
	.byte	W06
	.byte			Bn3, v076
	.byte	W06
	.byte			Ds4, v096
	.byte	W06
	.byte			Fs4, v116
	.byte	W06
	.byte			En4, v096
	.byte	W06
	.byte			Ds4, v076
	.byte	W06
	.byte			En4, v096
	.byte	W06
	.byte			Ds4, v076
	.byte	W06
	.byte			Bn3, v056
	.byte	W06
	.byte			Gs3, v036
	.byte	W06
	.byte			Fs3, v016
	.byte	W05
	.byte	PEND
	.byte	PATT	
		.word	song028_6_4
song028_6_5:
	.byte	W01
	.byte		N03	, Dn3, v024
	.byte	W06
	.byte			En3, v044
	.byte	W06
	.byte			Fs3, v064
	.byte	W06
	.byte			An3, v084
	.byte	W06
	.byte			Gn3, v036
	.byte	W06
	.byte			An3, v056
	.byte	W06
	.byte			Bn3, v076
	.byte	W06
	.byte			Dn4, v096
	.byte	W06
	.byte			Fs4, v116
	.byte	W06
	.byte			En4, v096
	.byte	W06
	.byte			Dn4, v076
	.byte	W06
	.byte			En4, v096
	.byte	W06
	.byte			Dn4, v076
	.byte	W06
	.byte			Bn3, v056
	.byte	W06
	.byte			Gn3, v036
	.byte	W06
	.byte			En3, v016
	.byte	W05
	.byte	PEND
	.byte	PATT	
		.word	song028_6_5
	.byte	PATT	
		.word	song028_6_2
	.byte	PATT	
		.word	song028_6_2
	.byte	PATT	
		.word	song028_6_1
	.byte	PATT	
		.word	song028_6_1
	.byte	GOTO	
		.word	song028_6_6
	.byte	FINE

	@********************** Track  7 **********************@

	.global song028_7
song028_7:	@ 0x08276B64
	.byte	KEYSH	, 0
	.byte	VOICE	, 26
	.byte	VOL	, v067
	.byte	PAN	, c_v
	.byte		N72	, Ds1, v104
	.byte	W48
	.byte		TIE	, Cn1
	.byte	W24
	.byte		N72	, As1
	.byte	W24
	.byte	W48
	.byte		N48	, Cn2
	.byte		N48	, Gn2
	.byte	W06
	.byte		EOT	, Cn1
	.byte	W36
	.byte		TIE	, Bn1, v076
	.byte	W06
song028_7_3:
	.byte		N72	, Fs3, v104
	.byte	W72
	.byte			Bn2, v084
	.byte	W24
	.byte	PEND
	.byte		EOT	, Bn1
song028_7_4:
	.byte		N96	, Gs1, v076
	.byte	W48
	.byte		N48	, Fs2, v096
	.byte	W48
	.byte	PEND
song028_7_5:
	.byte		N48	, Gn2, v084
	.byte	W48
	.byte			Gn3, v104
	.byte	W48
	.byte			Fn3, v096
	.byte	W48
	.byte			Dn3, v084
	.byte	W48
	.byte		N96	, Bn2, v064
	.byte	W96
	.byte		N84	, Fs3, v084
	.byte	W96
	.byte		N48	, Gn1
	.byte		N48	, Gn2
	.byte	W48
	.byte			Gn2, v104
	.byte		N48	, Gn3
	.byte	W48
	.byte			Fn2, v096
	.byte		N48	, Fn3
	.byte	W48
	.byte			Dn2, v084
	.byte		N48	, Dn3
	.byte	W48
	.byte		N96	, Bn1, v064
	.byte		N96	, Bn2
	.byte	W96
	.byte		N84	, Fs2, v084
	.byte		N84	, Fs3
	.byte	W96
	.byte	W96
	.byte	W96
	.byte	W96
song028_7_1:
	.byte	W92
	.byte	W03
	.byte	PAN	, c_v
	.byte	W01
	.byte	PEND
	.byte		N52	, Gn2, v080
	.byte	W48
	.byte			Gs2, v084
	.byte	W48
	.byte			As2, v092
	.byte	W48
	.byte			Gn2, v072
	.byte	W48
	.byte			Fs2, v064
	.byte	W48
	.byte			As2, v076
	.byte	W48
	.byte		N90	, Bn2, v084
	.byte	W96
	.byte	W96
	.byte	W96
	.byte	W96
	.byte	W92
	.byte	W03
	.byte	PAN	, c_v+63
	.byte	W01
	.byte		N48	, Ds3, v060
	.byte	W48
	.byte			Cn3, v056
	.byte	W48
	.byte			As2, v052
	.byte	W48
	.byte			Gn2, v044
	.byte	W48
	.byte		N24	, Fs2
	.byte	W24
	.byte		N72	, Cs3, v056
	.byte	W72
	.byte		N96	, Ds3, v060
	.byte	W96
	.byte	PATT	
		.word	song028_7_1
	.byte		N96	, Cn3, v104
	.byte	W96
song028_7_2:
	.byte		N48	, Bn2, v100
	.byte	W48
	.byte			Fs3, v120
	.byte	W48
	.byte	PEND
	.byte		N44	, Fn3, v116
	.byte	W44
	.byte	W02
	.byte		N48	, As2
	.byte	W48
	.byte			An2, v104
	.byte	W02
	.byte	W48
	.byte			En3, v116
	.byte	W48
	.byte		N96	, Cn3, v104
	.byte	W96
	.byte	PATT	
		.word	song028_7_2
	.byte		N44	, Fn3, v116
	.byte	W44
	.byte	W02
	.byte		N48	, As2
	.byte	W48
	.byte		N84	, An2, v104
	.byte	W02
	.byte	PATT	
		.word	song028_7_1
	.byte		N96	, En2, v080
	.byte		N96	, Cn3, v104
	.byte	W92
	.byte	W01
	.byte		TIE	, Cs2, v080
	.byte	W03
	.byte		N48	, Bn2, v100
	.byte	W48
	.byte			Fs3, v120
	.byte	W44
	.byte	W01
	.byte		TIE	, Ds2, v080
	.byte	W02
	.byte		EOT	, Cs2
	.byte	W01
	.byte		N44	, Fn3, v116
	.byte	W44
	.byte	W02
	.byte		N48	, As2
	.byte	W44
	.byte	W03
	.byte		TIE	, En2, v080
	.byte	W01
	.byte		N48	, An2, v104
	.byte	W01
	.byte		EOT	, Ds2
	.byte	W01
	.byte	W48
	.byte		N48	, En3, v116
	.byte	W44
	.byte	W01
	.byte		TIE	, Ds2, v080
	.byte	W02
	.byte		EOT	, En2
	.byte	W01
	.byte		N96	, Cn3, v104
	.byte	W92
	.byte	W01
	.byte		TIE	, Dn2, v080
	.byte	W02
	.byte		EOT	, Ds2
	.byte	W01
	.byte		N48	, Bn2, v100
	.byte	W48
	.byte			Fs3, v120
	.byte	W44
	.byte	W01
	.byte		N96	, Cs2, v080
	.byte	W02
	.byte		EOT	, Dn2
	.byte	W01
	.byte		N44	, Fn3, v116
	.byte	W44
	.byte	W02
	.byte		N48	, As2
	.byte	W44
	.byte	W03
	.byte		N90	, Cn2, v080
	.byte	W01
	.byte		N84	, An2, v104
	.byte	W02
	.byte	W92
	.byte	W02
	.byte		N66	, Ds2, v096
	.byte	W02
	.byte	W68
	.byte	W02
	.byte		TIE	, Cs2, v092
	.byte	W24
	.byte	W02
	.byte	W80
	.byte	W03
	.byte		EOT	
	.byte	W11
	.byte		N66	, Fs2
	.byte	W02
	.byte	W68
	.byte	W02
	.byte		TIE	, Bn2, v096
	.byte	W24
	.byte	W02
	.byte	W80
	.byte	W03
	.byte		EOT	
	.byte	W10
	.byte		N48	, Gs2, v080
	.byte	W01
	.byte		N66	, Ds3, v116
	.byte	W02
	.byte	W44
	.byte	W01
	.byte		N48	, Fs2, v080
	.byte	W24
	.byte	W01
	.byte		TIE	, Cs3, v112
	.byte	W23
	.byte		N48	, En2, v080
	.byte	W03
	.byte	W44
	.byte	W01
	.byte			Ds2
	.byte	W36
	.byte	W02
	.byte		EOT	, Cs3
	.byte	W10
	.byte		N48	, As2
	.byte	W01
	.byte		N66	, Fs3, v112
	.byte	W02
	.byte	W44
	.byte	W01
	.byte		N48	, Fs2, v080
	.byte	W24
	.byte	W01
	.byte		N44	, Bn3, v116
	.byte	W23
	.byte		N48	, Gs2, v080
	.byte	W03
	.byte	W22
	.byte		N13	, As3, v112
	.byte	W12
	.byte		N54	, Gs3, v108
	.byte	W11
	.byte		N48	, Bn2, v080
	.byte	W48
	.byte	W03
	.byte		N72	, Bn0, v104
	.byte	W48
	.byte		TIE	, Gs0
	.byte	W24
	.byte		N72	, Fs1
	.byte	W24
	.byte	W48
	.byte		N48	, Gs1
	.byte		N48	, Ds2
	.byte	W06
	.byte		EOT	, Gs0
	.byte	W36
	.byte		TIE	, Gn1, v096
	.byte	W06
	.byte		N72	, Dn3, v104
	.byte	W72
	.byte			Gn2, v096
	.byte	W24
	.byte		EOT	, Gn1
	.byte		N96	, En1
	.byte	W48
	.byte		N48	, Dn2, v104
	.byte	W48
	.byte		N72	, Ds1
	.byte		N72	, Gn2, v096
	.byte	W48
	.byte		TIE	, Cn1, v104
	.byte	W24
	.byte		N48	, Ds2
	.byte	W24
	.byte	W24
	.byte		N36	, As2
	.byte	W24
	.byte		N48	, Cn2
	.byte	W06
	.byte		EOT	, Cn1
	.byte	W06
	.byte		N36	, Cn3
	.byte	W30
	.byte		TIE	, Bn1, v076
	.byte	W06
	.byte	PATT	
		.word	song028_7_3
	.byte		EOT	, Bn1
	.byte	PATT	
		.word	song028_7_4
	.byte	GOTO	
		.word	song028_7_5
	.byte	FINE

	@********************** Track  8 **********************@

	.global song028_8
song028_8:	@ 0x08276D66
	.byte	KEYSH	, 0
	.byte	VOICE	, 25
	.byte	VOL	, v080
	.byte		N48	, Cn2, v104
	.byte	W72
	.byte			As1
	.byte	W24
	.byte	W48
	.byte		N24	, Gn1
	.byte	W48
	.byte		N72	, Gs1
	.byte	W96
song028_8_11:
	.byte		N24	, Ds2, v104
	.byte	W48
	.byte		N42	, Bn1
	.byte	W44
	.byte	W03
	.byte	VOICE	, 13
	.byte	W01
	.byte	PEND
song028_8_1:
	.byte		N06	, Cn3, v127
	.byte	W12
	.byte		N15	, Cn2, v124
	.byte	W18
	.byte		N06	
	.byte	W12
	.byte		N06	
	.byte	W06
	.byte		N12	, Ds2
	.byte	W18
	.byte		N18	, Cn2
	.byte	W18
	.byte		N06	, Gn2
	.byte	W06
	.byte			Fn2
	.byte	W06
	.byte	PEND
	.byte	PATT	
		.word	song028_8_1
song028_8_2:
	.byte		N06	, Gs2, v127
	.byte	W12
	.byte		N15	, Gs1, v124
	.byte	W18
	.byte		N06	
	.byte	W12
	.byte		N06	
	.byte	W06
	.byte		N12	, Bn1
	.byte	W18
	.byte		N18	, Gs1
	.byte	W18
	.byte		N06	, Ds2
	.byte	W06
	.byte			Cs2
	.byte	W06
	.byte	PEND
	.byte	PATT	
		.word	song028_8_2
	.byte	PATT	
		.word	song028_8_1
	.byte	PATT	
		.word	song028_8_1
	.byte	PATT	
		.word	song028_8_2
	.byte	PATT	
		.word	song028_8_2
	.byte	PATT	
		.word	song028_8_1
	.byte	PATT	
		.word	song028_8_1
	.byte	PATT	
		.word	song028_8_2
	.byte	PATT	
		.word	song028_8_2
	.byte	PATT	
		.word	song028_8_1
	.byte	PATT	
		.word	song028_8_1
	.byte	PATT	
		.word	song028_8_2
	.byte	PATT	
		.word	song028_8_2
song028_8_3:
	.byte		N07	, Cn2, v124
	.byte	W12
	.byte		N11	
	.byte	W12
	.byte			Ds2
	.byte	W18
	.byte		N05	, Cn2
	.byte	W12
	.byte			Ds2
	.byte	W12
	.byte			Cn2
	.byte	W06
	.byte		N11	, As1
	.byte	W12
	.byte			Fn2
	.byte	W12
	.byte	PEND
	.byte		N06	, Cn2
	.byte	W12
	.byte		N11	
	.byte	W12
	.byte			Ds2
	.byte	W18
	.byte		N05	, Cn2
	.byte	W06
	.byte			Ds2
	.byte	W06
	.byte			Gn2
	.byte	W06
	.byte			Fn2
	.byte	W12
	.byte			Gn2
	.byte	W12
	.byte			Ds2
	.byte	W06
	.byte			Cn2
	.byte	W06
	.byte		N11	, Fs2
	.byte	W18
	.byte			Ds2
	.byte	W18
	.byte		N05	
	.byte	W06
	.byte			Cs2
	.byte	W06
	.byte		N17	, Bn1
	.byte	W18
	.byte		N11	, Bn2
	.byte	W18
	.byte			Fs2
	.byte	W12
	.byte			Gs2
	.byte	W18
	.byte			Gs1
	.byte	W18
	.byte			Gs2
	.byte	W18
	.byte			Gs1
	.byte	W18
	.byte		N05	, Gs2
	.byte	W12
	.byte		N11	, Gs1
	.byte	W12
	.byte	PATT	
		.word	song028_8_1
	.byte	PATT	
		.word	song028_8_1
	.byte	PATT	
		.word	song028_8_2
	.byte	PATT	
		.word	song028_8_2
	.byte	PATT	
		.word	song028_8_3
song028_8_5:
	.byte		N12	, An1, v120
	.byte	W12
	.byte		N18	, An2, v127
	.byte	W24
	.byte		N12	, An1, v120
	.byte	W24
	.byte			An2, v127
	.byte	W24
	.byte			An1, v120
	.byte	W12
	.byte	PEND
song028_8_6:
	.byte		N12	, Cs2, v120
	.byte	W12
	.byte		N18	, Cs3, v127
	.byte	W24
	.byte		N12	, Cs2, v120
	.byte	W24
	.byte			Cs3, v127
	.byte	W24
	.byte			Cs2, v120
	.byte	W12
	.byte	PEND
song028_8_7:
	.byte		N12	, Ds2, v120
	.byte	W12
	.byte		N18	, Ds3, v127
	.byte	W24
	.byte		N12	, Ds2, v120
	.byte	W24
	.byte			Ds3, v127
	.byte	W24
	.byte			Ds2, v120
	.byte	W12
	.byte	PEND
song028_8_4:
	.byte		N12	, Gs1, v120
	.byte	W12
	.byte		N18	, Gs2, v127
	.byte	W24
	.byte		N12	, Cn2, v120
	.byte	W24
	.byte			Ds2
	.byte	W12
	.byte		N24	, Gs2, v127
	.byte	W24
	.byte	PEND
song028_8_8:
	.byte		N12	, Fn1, v120
	.byte	W12
	.byte		N18	, Fn2, v127
	.byte	W24
	.byte		N12	, Fn1, v120
	.byte	W24
	.byte			Fn2, v127
	.byte	W24
	.byte			Fn1, v120
	.byte	W12
	.byte	PEND
song028_8_9:
	.byte		N12	, As1, v120
	.byte	W12
	.byte		N18	, As2, v127
	.byte	W24
	.byte		N12	, As1, v120
	.byte	W24
	.byte			As2, v127
	.byte	W24
	.byte			As1, v120
	.byte	W12
	.byte	PEND
song028_8_10:
	.byte		N12	, Ds1, v120
	.byte	W12
	.byte		N18	, Ds2, v127
	.byte	W24
	.byte		N12	, Ds1, v120
	.byte	W24
	.byte			Ds2, v127
	.byte	W24
	.byte			Ds1, v120
	.byte	W12
	.byte	PEND
	.byte	PATT	
		.word	song028_8_4
	.byte	PATT	
		.word	song028_8_5
	.byte	PATT	
		.word	song028_8_6
	.byte	PATT	
		.word	song028_8_7
	.byte	PATT	
		.word	song028_8_4
	.byte	PATT	
		.word	song028_8_8
	.byte	PATT	
		.word	song028_8_9
	.byte	PATT	
		.word	song028_8_10
	.byte	PATT	
		.word	song028_8_4
	.byte		N18	, Gs1, v120
	.byte	W36
	.byte			Fs1, v127
	.byte	W36
	.byte			Ds2
	.byte	W24
	.byte	W96
	.byte		N12	, Ds1, v120
	.byte	W12
	.byte		N18	, Ds2, v127
	.byte	W24
	.byte		N12	, Ds1, v120
	.byte	W24
	.byte			Ds2, v127
	.byte	W12
	.byte		N24	, Gs1
	.byte	W24
	.byte	W96
	.byte		N12	, Gs1, v120
	.byte	W12
	.byte		N06	, Gs2
	.byte	W06
	.byte			Ds2
	.byte	W12
	.byte			Gs2
	.byte	W06
	.byte		N12	, Fs2
	.byte	W12
	.byte			Gs1
	.byte	W12
	.byte		N06	, Fs2
	.byte	W06
	.byte			Ds2
	.byte	W12
	.byte			Fs2
	.byte	W06
	.byte		N12	, Fn2
	.byte	W12
	.byte			Gs1
	.byte	W12
	.byte		N06	, En2
	.byte	W06
	.byte			Ds2
	.byte	W12
	.byte			En2
	.byte	W06
	.byte		N12	, Ds2
	.byte	W12
	.byte			Gs1
	.byte	W12
	.byte		N06	, Ds2
	.byte	W06
	.byte			Dn2
	.byte	W12
	.byte			Ds2
	.byte	W06
	.byte		N12	, Dn2
	.byte	W12
	.byte			Ds1
	.byte	W18
	.byte			Ds2, v127
	.byte	W18
	.byte		N18	, As1, v120
	.byte	W24
	.byte		N06	, Ds2, v127
	.byte	W06
	.byte		N18	, Ds1, v120
	.byte	W18
	.byte		N12	, Ds2, v127
	.byte	W12
	.byte			Gs1, v120
	.byte	W12
	.byte		N06	, Gs2
	.byte	W06
	.byte			Ds2
	.byte	W12
	.byte			Gs2
	.byte	W06
	.byte		N12	, Fs2
	.byte	W12
	.byte			Gs1
	.byte	W12
	.byte		N06	, Gs2
	.byte	W06
	.byte			Ds2
	.byte	W12
	.byte			Gs2
	.byte	W06
	.byte		N12	, Gs1
	.byte	W12
	.byte	VOICE	, 25
	.byte		N48	, Gs1, v104
	.byte	W72
	.byte			Fs1
	.byte	W24
	.byte	W48
	.byte		N24	, Ds1
	.byte	W48
	.byte		N72	, En1
	.byte	W96
	.byte		N24	, Bn1
	.byte	W48
	.byte		N42	, Gn1
	.byte	W48
	.byte		N48	, Cn2
	.byte	W72
	.byte			As1
	.byte	W24
	.byte	W48
	.byte		N24	, Gn1
	.byte	W48
	.byte		N72	, Gs1
	.byte	W96
	.byte	PATT	
		.word	song028_8_11
	.byte	GOTO	
		.word	song028_8_1
	.byte	FINE

	@********************** Track  9 **********************@

	.global song028_9
song028_9:	@ 0x08276FB9
	.byte	KEYSH	, 0
	.byte	VOICE	, 89
	.byte	VOL	, v057
	.byte	PAN	, c_v-30
	.byte	W96
	.byte	W96
	.byte	W96
song028_9_3:
	.byte	W48
	.byte		N03	, Cn2, v124
	.byte	W06
	.byte			Dn2
	.byte	W06
	.byte			En2
	.byte	W06
	.byte			Fs2
	.byte	W06
	.byte			Gs2
	.byte	W06
	.byte			Cn3
	.byte	W06
	.byte			En3
	.byte	W06
	.byte			Gs3
	.byte	W06
	.byte	PEND
song028_9_1:
	.byte		N04	, Cn5, v124
	.byte	W18
	.byte			Cn5, v076
	.byte	W18
	.byte		N04	
	.byte	W18
	.byte		N04	
	.byte	W24
	.byte		N04	
	.byte	W18
	.byte	PEND
	.byte	PATT	
		.word	song028_9_1
	.byte	PATT	
		.word	song028_9_1
song028_9_2:
	.byte		N04	, Cn5, v124
	.byte	W06
	.byte			Cn5, v076
	.byte	W06
	.byte		N04	
	.byte	W24
	.byte		N04	
	.byte	W12
	.byte			Cn5, v124
	.byte	W06
	.byte			Cn5, v076
	.byte	W06
	.byte		N04	
	.byte	W36
	.byte	PEND
	.byte	PATT	
		.word	song028_9_1
	.byte	PATT	
		.word	song028_9_1
	.byte	PATT	
		.word	song028_9_1
	.byte	PATT	
		.word	song028_9_2
	.byte	W96
	.byte	W96
	.byte	W96
	.byte	W96
	.byte	W96
	.byte	W96
	.byte	W96
	.byte	W96
	.byte	W96
	.byte	W96
	.byte	W96
	.byte	W96
	.byte	W96
	.byte	W96
	.byte	W96
	.byte	W96
	.byte	PATT	
		.word	song028_9_3
	.byte	PATT	
		.word	song028_9_1
	.byte	PATT	
		.word	song028_9_1
	.byte	PATT	
		.word	song028_9_1
	.byte	PATT	
		.word	song028_9_2
	.byte	PATT	
		.word	song028_9_1
	.byte	PATT	
		.word	song028_9_1
	.byte	PATT	
		.word	song028_9_1
	.byte	PATT	
		.word	song028_9_2
	.byte	PATT	
		.word	song028_9_1
	.byte	PATT	
		.word	song028_9_1
	.byte	PATT	
		.word	song028_9_1
	.byte	PATT	
		.word	song028_9_2
	.byte	PATT	
		.word	song028_9_1
	.byte	PATT	
		.word	song028_9_1
	.byte	PATT	
		.word	song028_9_1
	.byte	PATT	
		.word	song028_9_2
song028_9_4:
	.byte		N04	, Cn5, v076
	.byte	W06
	.byte			Cn5, v064
	.byte	W18
	.byte			Cn5, v076
	.byte	W06
	.byte			Cn5, v064
	.byte	W18
	.byte			Cn5, v076
	.byte	W06
	.byte			Cn5, v064
	.byte	W18
	.byte			Cn5, v076
	.byte	W06
	.byte			Cn5, v064
	.byte	W18
	.byte	PEND
	.byte	PATT	
		.word	song028_9_4
	.byte	PATT	
		.word	song028_9_4
	.byte	PATT	
		.word	song028_9_4
	.byte	PATT	
		.word	song028_9_1
	.byte	PATT	
		.word	song028_9_1
	.byte	PATT	
		.word	song028_9_1
	.byte	PATT	
		.word	song028_9_1
	.byte	W96
	.byte	W96
	.byte	W96
	.byte	W96
	.byte	PATT	
		.word	song028_9_4
	.byte	PATT	
		.word	song028_9_4
	.byte	PATT	
		.word	song028_9_4
	.byte	PATT	
		.word	song028_9_3
	.byte	GOTO	
		.word	song028_9_1
	.byte	FINE

	@********************** Track  10 **********************@

	.global song028_10
song028_10:	@ 0x082770D8
	.byte	KEYSH	, 0
	.byte	VOICE	, 89
	.byte	VOL	, v057
	.byte	PAN	, c_v+30
	.byte	W96
	.byte	W96
	.byte	W96
song028_10_3:
	.byte	W48
	.byte	W03
	.byte		N03	, Cs2, v124
	.byte	W06
	.byte			Ds2
	.byte	W06
	.byte			Fn2
	.byte	W06
	.byte			Gn2
	.byte	W06
	.byte			As2
	.byte	W06
	.byte			Dn3
	.byte	W06
	.byte			Fs3
	.byte	W06
	.byte			As3
	.byte	W03
	.byte	PEND
song028_10_1:
	.byte	W06
	.byte		N04	, Cn5, v076
	.byte	W24
	.byte		N04	
	.byte	W12
	.byte		N04	
	.byte	W06
	.byte			Cn5, v124
	.byte	W18
	.byte			Cn5, v076
	.byte	W30
	.byte	PEND
	.byte	PATT	
		.word	song028_10_1
	.byte	PATT	
		.word	song028_10_1
song028_10_2:
	.byte	W18
	.byte		N04	, Cn5, v124
	.byte	W06
	.byte			Cn5, v076
	.byte	W06
	.byte		N04	
	.byte	W12
	.byte		N04	
	.byte	W24
	.byte			Cn5, v124
	.byte	W06
	.byte			Cn5, v076
	.byte	W06
	.byte		N04	
	.byte	W18
	.byte	PEND
	.byte	PATT	
		.word	song028_10_1
	.byte	PATT	
		.word	song028_10_1
	.byte	PATT	
		.word	song028_10_1
	.byte	PATT	
		.word	song028_10_2
	.byte	W96
	.byte	W96
	.byte	W96
	.byte	W96
	.byte	W96
	.byte	W96
	.byte	W96
	.byte	W96
	.byte	W96
	.byte	W96
	.byte	W96
	.byte	W96
	.byte	W96
	.byte	W96
	.byte	W96
	.byte	W96
	.byte	PATT	
		.word	song028_10_3
	.byte	PATT	
		.word	song028_10_1
	.byte	PATT	
		.word	song028_10_1
	.byte	PATT	
		.word	song028_10_1
	.byte	PATT	
		.word	song028_10_2
	.byte	PATT	
		.word	song028_10_1
	.byte	PATT	
		.word	song028_10_1
	.byte	PATT	
		.word	song028_10_1
	.byte	PATT	
		.word	song028_10_2
	.byte	PATT	
		.word	song028_10_1
	.byte	PATT	
		.word	song028_10_1
	.byte	PATT	
		.word	song028_10_1
	.byte	PATT	
		.word	song028_10_2
	.byte	PATT	
		.word	song028_10_1
	.byte	PATT	
		.word	song028_10_1
	.byte	PATT	
		.word	song028_10_1
	.byte	PATT	
		.word	song028_10_2
song028_10_4:
	.byte	W12
	.byte		N04	, Cn5, v076
	.byte	W06
	.byte			Cn5, v064
	.byte	W18
	.byte			Cn5, v076
	.byte	W06
	.byte			Cn5, v064
	.byte	W18
	.byte			Cn5, v076
	.byte	W06
	.byte			Cn5, v064
	.byte	W18
	.byte			Cn5, v076
	.byte	W06
	.byte			Cn5, v064
	.byte	W06
	.byte	PEND
	.byte	PATT	
		.word	song028_10_4
	.byte	PATT	
		.word	song028_10_4
	.byte	PATT	
		.word	song028_10_4
	.byte	PATT	
		.word	song028_10_1
	.byte	PATT	
		.word	song028_10_1
	.byte	PATT	
		.word	song028_10_1
	.byte	PATT	
		.word	song028_10_1
	.byte	W96
	.byte	W96
	.byte	W96
	.byte	W96
	.byte	PATT	
		.word	song028_10_4
	.byte	PATT	
		.word	song028_10_4
	.byte	PATT	
		.word	song028_10_4
	.byte	PATT	
		.word	song028_10_3
	.byte	GOTO	
		.word	song028_10_1
	.byte	FINE

	@********************** Track  11 **********************@

	.global song028_11
song028_11:	@ 0x082771FC
	.byte	KEYSH	, 0
	.byte	VOICE	, 91
	.byte	VOL	, v056
	.byte	PAN	, c_v
	.byte	W96
	.byte	W96
	.byte	W96
	.byte	W96
song028_11_1:
	.byte	W84
	.byte		N11	, Cn6, v084
	.byte	W12
	.byte	W84
	.byte		N11	
	.byte	W12
	.byte	W84
	.byte		N11	
	.byte	W12
	.byte	W84
	.byte		N11	
	.byte	W12
	.byte	W84
	.byte		N11	
	.byte	W12
	.byte	W84
	.byte		N11	
	.byte	W12
	.byte	W84
	.byte		N11	
	.byte	W12
	.byte	W84
	.byte		N11	
	.byte	W12
	.byte	W96
	.byte	W96
	.byte	W96
	.byte	W96
	.byte	W96
	.byte	W96
	.byte	W96
	.byte	W96
	.byte	W96
	.byte	W96
	.byte	W96
	.byte	W96
	.byte	W96
	.byte	W96
	.byte	W96
	.byte	W96
	.byte	W96
	.byte	W84
	.byte		N11	
	.byte	W12
	.byte	W84
	.byte		N11	
	.byte	W12
	.byte	W84
	.byte		N11	
	.byte	W12
	.byte	W84
	.byte		N11	
	.byte	W12
	.byte	W84
	.byte		N11	
	.byte	W12
	.byte	W84
	.byte		N11	
	.byte	W12
	.byte	W84
	.byte		N11	
	.byte	W12
	.byte	W84
	.byte		N11	
	.byte	W12
	.byte	W84
	.byte		N11	
	.byte	W12
	.byte	W84
	.byte		N11	
	.byte	W12
	.byte	W84
	.byte		N11	
	.byte	W12
	.byte	W84
	.byte		N11	
	.byte	W12
	.byte	W84
	.byte		N11	
	.byte	W12
	.byte	W84
	.byte		N11	
	.byte	W12
	.byte	W84
	.byte		N11	
	.byte	W12
	.byte	W84
	.byte		N11	
	.byte	W12
	.byte	W96
	.byte	W96
	.byte	W96
	.byte	W96
	.byte	W84
	.byte		N11	
	.byte	W12
	.byte	W84
	.byte		N11	
	.byte	W12
	.byte	W84
	.byte		N11	
	.byte	W12
	.byte	W84
	.byte		N11	
	.byte	W12
	.byte	W96
	.byte	W96
	.byte	W96
	.byte	W96
	.byte	W96
	.byte	W96
	.byte	W96
	.byte	W96
	.byte	GOTO	
		.word	song028_11_1
	.byte	FINE

	.align 2
	.global song028
song028:	@ 0x08277284
	.byte	11		@ trackCount
	.byte	0		@ blockCount
	.byte	20		@ priority
	.byte	128		@ reverb

	.word	voicegroup016		@ voicegroup/tone

	.word	song028_1		@ track
	.word	song028_2		@ track
	.word	song028_3		@ track
	.word	song028_4		@ track
	.word	song028_5		@ track
	.word	song028_6		@ track
	.word	song028_7		@ track
	.word	song028_8		@ track
	.word	song028_9		@ track
	.word	song028_10		@ track
	.word	song028_11		@ track
