	.include "MPlayDef.s"

	.section .rodata

	@********************** Track  1 **********************@

	.align 2
	.global song034_1
song034_1:	@ 0x0827D9B0
	.byte	KEYSH	, 0
	.byte	TEMPO	, 80
	.byte	VOICE	, 127
	.byte	VOL	, v067
	.byte	PAN	, c_v
	.byte		N68	, As4, v127
	.byte	W96
	.byte	W96
	.byte	W96
	.byte	W96
	.byte		N11	, Cn4
	.byte		N68	, As4
	.byte	W48
	.byte		N11	, Cn4
	.byte	W48
	.byte		N11	
	.byte	W48
	.byte		N11	
	.byte	W48
	.byte		N11	
	.byte	W24
	.byte		N11	
	.byte	W24
	.byte		N11	
	.byte	W12
	.byte		N11	
	.byte	W12
	.byte			Dn4
	.byte	W12
	.byte		N05	, Ds4
	.byte	W06
	.byte		N05	
	.byte	W06
song034_1_13:
	.byte		N11	, Cn4, v127
	.byte	W12
	.byte		N05	, Ds4
	.byte	W06
	.byte		N05	
	.byte	W06
	.byte		N11	, Cn4
	.byte	W12
	.byte		N05	, Ds4
	.byte	W06
	.byte		N05	
	.byte	W06
	.byte		N11	, Cn4
	.byte	W12
	.byte		N05	, Ds4
	.byte	W06
	.byte		N05	
	.byte	W06
	.byte		N05	
	.byte	W06
	.byte		N05	
	.byte	W06
	.byte		N05	
	.byte	W06
	.byte		N05	
	.byte	W06
	.byte	PEND
song034_1_8:
	.byte		N11	, Cn4, v127
	.byte	W12
	.byte			Ds5, v088
	.byte	W12
	.byte			Cn4, v127
	.byte		N32	, As4
	.byte	W12
	.byte		N11	, Ds5, v088
	.byte	W12
	.byte			Cn4, v127
	.byte	W12
	.byte			Ds5, v088
	.byte	W12
	.byte			Cn4, v127
	.byte	W12
	.byte			Ds5, v088
	.byte	W12
	.byte	PEND
song034_1_9:
	.byte		N11	, Cn4, v127
	.byte	W12
	.byte			Ds5, v088
	.byte	W12
	.byte			Cn4, v127
	.byte		N32	, As4
	.byte	W12
	.byte		N11	, Ds5, v088
	.byte	W12
	.byte			Cn4, v127
	.byte	W12
	.byte			Ds5, v088
	.byte	W12
	.byte			Cn4, v127
	.byte	W12
	.byte		N05	, Ds4
	.byte	W06
	.byte		N05	
	.byte	W06
	.byte	PEND
song034_1_1:
	.byte		N11	, Cn4, v127
	.byte	W12
	.byte			Ds5, v088
	.byte	W12
	.byte			Cn4, v127
	.byte		N68	, As4
	.byte	W12
	.byte		N11	, Ds5, v088
	.byte	W12
	.byte			Cn4, v127
	.byte	W12
	.byte			Ds5, v088
	.byte	W12
	.byte			Cn4, v127
	.byte	W12
	.byte			Ds5, v088
	.byte	W12
	.byte	PEND
song034_1_10:
	.byte		N11	, Cn4, v127
	.byte	W12
	.byte			Ds5, v088
	.byte	W12
	.byte			Cn4, v127
	.byte	W12
	.byte			Ds5, v088
	.byte	W12
	.byte			Cn4, v127
	.byte	W12
	.byte			Ds5, v088
	.byte	W12
	.byte			Cn4, v127
	.byte	W12
	.byte		N05	, Ds5, v088
	.byte	W06
	.byte		N05	
	.byte	W06
	.byte	PEND
	.byte	PATT	
		.word	song034_1_1
song034_1_2:
	.byte		N11	, Cn4, v127
	.byte	W12
	.byte			Ds5, v088
	.byte	W12
	.byte			Cn4, v127
	.byte	W12
	.byte			Ds5, v088
	.byte	W12
	.byte			Cn4, v127
	.byte	W12
	.byte			Ds5, v088
	.byte	W12
	.byte			Cn4, v127
	.byte	W12
	.byte		N05	, Ds4
	.byte	W06
	.byte		N05	
	.byte	W06
	.byte	PEND
	.byte	PATT	
		.word	song034_1_1
song034_1_11:
	.byte		N11	, Cn4, v127
	.byte	W12
	.byte			Ds5, v088
	.byte	W12
	.byte			Cn4, v127
	.byte	W12
	.byte			Ds5, v088
	.byte	W12
	.byte			Cn4, v127
	.byte	W12
	.byte		N05	, Ds4
	.byte	W06
	.byte		N05	
	.byte	W06
	.byte		N05	
	.byte	W06
	.byte		N05	
	.byte	W06
	.byte		N05	
	.byte	W06
	.byte		N05	
	.byte	W06
	.byte	PEND
song034_1_3:
	.byte		N11	, Cn4, v127
	.byte	W12
	.byte			Ds5, v088
	.byte	W12
	.byte			Cn4, v127
	.byte	W12
	.byte			Ds5, v088
	.byte	W12
	.byte			Cn4, v127
	.byte	W12
	.byte			Ds5, v088
	.byte	W12
	.byte			Cn4, v127
	.byte	W12
	.byte			Ds5, v088
	.byte	W12
	.byte	PEND
	.byte	PATT	
		.word	song034_1_2
	.byte	PATT	
		.word	song034_1_3
	.byte	PATT	
		.word	song034_1_2
	.byte	PATT	
		.word	song034_1_3
	.byte	PATT	
		.word	song034_1_2
	.byte	PATT	
		.word	song034_1_3
song034_1_4:
	.byte		N11	, Cn4, v127
	.byte	W12
	.byte			Ds5, v088
	.byte	W12
	.byte			Cn4, v127
	.byte	W12
	.byte			Ds5, v088
	.byte	W12
	.byte		N05	, Ds4, v127
	.byte	W06
	.byte		N05	
	.byte	W12
	.byte			Cs4
	.byte	W06
	.byte		N05	
	.byte	W06
	.byte			Ds4
	.byte	W06
	.byte		N05	
	.byte	W06
	.byte		N05	
	.byte	W06
	.byte	PEND
	.byte	PATT	
		.word	song034_1_3
	.byte	PATT	
		.word	song034_1_2
	.byte	PATT	
		.word	song034_1_3
	.byte	PATT	
		.word	song034_1_2
	.byte	PATT	
		.word	song034_1_3
	.byte	PATT	
		.word	song034_1_2
	.byte	PATT	
		.word	song034_1_3
	.byte		N11	, Cn4, v127
	.byte	W12
	.byte			Ds5, v088
	.byte	W12
	.byte			Cn4, v127
	.byte	W12
	.byte			Ds5, v088
	.byte	W12
	.byte		N05	, Cs4, v127
	.byte	W06
	.byte			Ds4
	.byte	W12
	.byte		N05	
	.byte	W06
	.byte			Cs4
	.byte	W06
	.byte			Ds4
	.byte	W06
	.byte		N05	
	.byte	W06
	.byte		N05	
	.byte	W06
song034_1_6:
	.byte		N11	, Cn4, v127
	.byte	W12
	.byte		N05	, Ds4
	.byte	W06
	.byte		N05	
	.byte	W06
	.byte		N11	, Cn4
	.byte	W12
	.byte		N05	, Ds4
	.byte	W06
	.byte		N05	
	.byte	W06
	.byte		N11	, Cn4
	.byte	W12
	.byte		N05	, Ds4
	.byte	W06
	.byte		N05	
	.byte	W06
	.byte		N11	, Cn4
	.byte	W12
	.byte		N05	, Ds4
	.byte	W06
	.byte		N05	
	.byte	W06
	.byte	PEND
song034_1_7:
	.byte		N11	, Cn4, v127
	.byte	W12
	.byte		N05	, Ds4
	.byte	W06
	.byte		N05	
	.byte	W06
	.byte		N11	, Cn4
	.byte	W12
	.byte		N05	, Ds4
	.byte	W06
	.byte		N05	
	.byte	W06
	.byte		N05	
	.byte	W06
	.byte		N05	
	.byte	W06
	.byte		N05	
	.byte	W06
	.byte		N05	
	.byte	W06
	.byte		N05	
	.byte	W06
	.byte		N05	
	.byte	W06
	.byte		N05	
	.byte	W06
	.byte		N05	
	.byte	W06
	.byte	PEND
	.byte		N23	, Cn4
	.byte	W72
	.byte		N03	, Ds4
	.byte	W04
	.byte		N03	
	.byte	W04
	.byte		N03	
	.byte	W04
	.byte		N03	
	.byte	W04
	.byte		N03	
	.byte	W04
	.byte		N03	
	.byte	W04
song034_1_5:
	.byte		N11	, Cn4, v127
	.byte		N92	, As4
	.byte	W12
	.byte		N11	, Ds5, v088
	.byte	W12
	.byte			Cn4, v127
	.byte	W12
	.byte			Ds5, v088
	.byte	W12
	.byte			Cn4, v127
	.byte	W12
	.byte			Ds5, v088
	.byte	W12
	.byte			Cn4, v127
	.byte	W12
	.byte			Ds5, v088
	.byte	W12
	.byte	PEND
	.byte	PATT	
		.word	song034_1_2
	.byte	PATT	
		.word	song034_1_3
	.byte	PATT	
		.word	song034_1_4
	.byte	PATT	
		.word	song034_1_5
	.byte	PATT	
		.word	song034_1_2
	.byte	PATT	
		.word	song034_1_6
	.byte	PATT	
		.word	song034_1_7
	.byte	PATT	
		.word	song034_1_8
	.byte	PATT	
		.word	song034_1_9
	.byte	PATT	
		.word	song034_1_1
	.byte	PATT	
		.word	song034_1_10
	.byte	PATT	
		.word	song034_1_1
	.byte	PATT	
		.word	song034_1_2
	.byte	PATT	
		.word	song034_1_1
	.byte	PATT	
		.word	song034_1_11
	.byte	PATT	
		.word	song034_1_8
	.byte	PATT	
		.word	song034_1_9
	.byte	PATT	
		.word	song034_1_1
	.byte	PATT	
		.word	song034_1_10
	.byte	PATT	
		.word	song034_1_1
	.byte	PATT	
		.word	song034_1_2
	.byte	PATT	
		.word	song034_1_1
	.byte	PATT	
		.word	song034_1_11
	.byte		N11	, Cn4, v127
	.byte		N68	, As4
	.byte	W24
	.byte		N11	, Dn4
	.byte	W12
	.byte			Cn4
	.byte	W24
	.byte		N11	
	.byte	W12
	.byte			Dn4
	.byte	W12
	.byte			Cn4
	.byte	W12
song034_1_12:
	.byte	W12
	.byte		N11	, Cn4, v127
	.byte	W12
	.byte			Dn4
	.byte	W12
	.byte			Cn4
	.byte	W24
	.byte		N11	
	.byte	W12
	.byte			Dn4
	.byte	W12
	.byte			Cn4
	.byte	W12
	.byte	PEND
	.byte		N11	
	.byte	W24
	.byte			Dn4
	.byte	W12
	.byte			Cn4
	.byte	W24
	.byte		N11	
	.byte	W12
	.byte			Dn4
	.byte	W12
	.byte			Cn4
	.byte	W12
	.byte	PATT	
		.word	song034_1_12
	.byte		N11	, Cn4, v127
	.byte	W24
	.byte			Dn4
	.byte	W12
	.byte			Cn4
	.byte	W24
	.byte		N11	
	.byte	W12
	.byte			Dn4
	.byte	W12
	.byte		N05	, Ds4
	.byte	W06
	.byte		N05	
	.byte	W06
	.byte	PATT	
		.word	song034_1_13
song034_1_14:
	.byte		N11	, Cn4, v127
	.byte		N68	, As4
	.byte	W12
	.byte		N11	, Ds5, v088
	.byte	W12
	.byte			Cn4, v127
	.byte	W12
	.byte			Ds5, v088
	.byte	W12
	.byte			Cn4, v127
	.byte	W12
	.byte			Ds5, v088
	.byte	W12
	.byte			Cn4, v127
	.byte	W12
	.byte			Ds5, v088
	.byte	W12
	.byte	PEND
	.byte	PATT	
		.word	song034_1_10
	.byte	PATT	
		.word	song034_1_3
	.byte	PATT	
		.word	song034_1_4
	.byte	PATT	
		.word	song034_1_14
	.byte	PATT	
		.word	song034_1_2
	.byte	PATT	
		.word	song034_1_3
	.byte		N05	, Cs4, v127
	.byte	W06
	.byte			Ds4
	.byte	W06
	.byte		N05	
	.byte	W06
	.byte			Dn4
	.byte	W06
	.byte			Cs4
	.byte	W06
	.byte			Ds4
	.byte	W06
	.byte		N05	
	.byte	W06
	.byte			Dn4
	.byte	W06
	.byte			Ds4
	.byte	W06
	.byte		N05	
	.byte	W12
	.byte			Cs4
	.byte	W06
	.byte			Ds4
	.byte	W06
	.byte		N05	
	.byte	W06
	.byte		N05	
	.byte	W06
	.byte		N05	
	.byte	W06
	.byte	GOTO	
		.word	song034_1_8
	.byte	FINE

	@********************** Track  2 **********************@

	.global song034_2
song034_2:	@ 0x0827DCDB
	.byte	KEYSH	, 0
	.byte	VOICE	, 82
	.byte	VOL	, v070
	.byte	PAN	, c_v-22
	.byte	W96
	.byte	W96
	.byte	W96
	.byte	W96
	.byte	W96
	.byte	W96
	.byte	W96
	.byte	W96
song034_2_8:
	.byte	W96
	.byte	W96
	.byte	W96
	.byte	W96
	.byte	W96
	.byte	W96
	.byte	W96
	.byte	W96
song034_2_2:
	.byte	VOICE	, 43
	.byte	W12
	.byte		N04	, Fn2, v127
	.byte	W12
	.byte		N04	
	.byte	W12
	.byte		N04	
	.byte	W24
	.byte			Gn2
	.byte	W12
	.byte		N04	
	.byte	W12
	.byte		N04	
	.byte	W12
	.byte	PEND
song034_2_3:
	.byte	W12
	.byte		N04	, Fn2, v127
	.byte	W12
	.byte		N04	
	.byte	W12
	.byte		N04	
	.byte	W18
	.byte	VOICE	, 42
	.byte	W06
	.byte		N04	, Cn3
	.byte	W12
	.byte		N04	
	.byte	W12
	.byte		N04	
	.byte	W11
	.byte	VOICE	, 43
	.byte	W01
	.byte	PEND
song034_2_1:
	.byte		N04	, As2, v127
	.byte	W12
	.byte			Dn2
	.byte	W12
	.byte		N10	, As2
	.byte	W12
	.byte		N04	, Dn2
	.byte	W24
	.byte			As2
	.byte	W36
	.byte	PEND
	.byte	PATT	
		.word	song034_2_1
	.byte	PATT	
		.word	song034_2_2
	.byte	W06
	.byte	VOICE	, 42
	.byte	W06
	.byte		N04	, Gn2, v127
	.byte	W12
	.byte		N04	
	.byte	W12
	.byte		N04	
	.byte	W24
	.byte			As2
	.byte	W12
	.byte		N04	
	.byte	W12
	.byte		N04	
	.byte	W11
	.byte	VOICE	, 43
	.byte	W01
	.byte		N04	
	.byte	W11
	.byte	VOICE	, 42
	.byte	W01
	.byte		N04	, Cn2
	.byte	W11
	.byte	VOICE	, 43
	.byte	W01
	.byte		N09	, An2
	.byte	W11
	.byte	VOICE	, 42
	.byte	W01
	.byte		N04	, Cn2
	.byte	W23
	.byte	VOICE	, 43
	.byte	W01
	.byte		N04	, Fn2
	.byte	W32
	.byte	W03
	.byte	VOICE	, 43
	.byte	W01
	.byte		N04	, As2
	.byte	W11
	.byte	VOICE	, 42
	.byte	W01
	.byte		N04	, Cn2
	.byte	W11
	.byte	VOICE	, 43
	.byte	W01
	.byte		N09	, An2
	.byte	W11
	.byte	VOICE	, 42
	.byte	W01
	.byte		N04	, Cn2
	.byte	W24
	.byte			Cn3
	.byte	W12
	.byte		N04	
	.byte	W12
	.byte		N04	
	.byte	W12
	.byte	PATT	
		.word	song034_2_2
	.byte	PATT	
		.word	song034_2_3
	.byte	PATT	
		.word	song034_2_1
	.byte	PATT	
		.word	song034_2_1
song034_2_4:
	.byte	W06
	.byte	VOICE	, 42
	.byte	W06
	.byte		N04	, As1, v127
	.byte	W12
	.byte		N04	
	.byte	W12
	.byte		N04	
	.byte	W11
	.byte	VOICE	, 43
	.byte	W01
	.byte		N04	, Cn2
	.byte	W12
	.byte		N04	
	.byte	W12
	.byte		N04	
	.byte	W11
	.byte	VOICE	, 42
	.byte	W01
	.byte		N04	, As1
	.byte	W12
	.byte	PEND
	.byte		N04	
	.byte	W12
	.byte		N04	
	.byte	W11
	.byte	VOICE	, 43
	.byte	W01
	.byte		N04	, Cn2
	.byte	W12
	.byte		N04	
	.byte	W12
	.byte		N04	
	.byte	W11
	.byte	VOICE	, 42
	.byte	W01
	.byte		N02	, Gn2
	.byte	W06
	.byte		N02	
	.byte	W05
	.byte	VOICE	, 43
	.byte	W01
	.byte		N02	, Fn2
	.byte	W06
	.byte		N02	
	.byte	W05
	.byte	VOICE	, 42
	.byte	W01
	.byte		N02	, As1
	.byte	W06
	.byte		N02	
	.byte	W06
	.byte	PATT	
		.word	song034_2_4
	.byte		N04	, As1, v127
	.byte	W12
	.byte		N04	
	.byte	W11
	.byte	VOICE	, 43
	.byte	W01
	.byte		N04	, Cn2
	.byte	W12
	.byte		N04	
	.byte	W12
	.byte		N04	
	.byte	W11
	.byte	VOICE	, 42
	.byte	W01
	.byte		N02	, Gn2
	.byte	W06
	.byte		N02	
	.byte	W05
	.byte	VOICE	, 43
	.byte	W01
	.byte		N02	, Cn3
	.byte	W06
	.byte		N02	
	.byte	W05
	.byte	VOICE	, 42
	.byte	W01
	.byte		N02	, As2
	.byte	W06
	.byte		N02	
	.byte	W05
	.byte	VOICE	, 43
	.byte	W01
	.byte		N08	, Cn3
	.byte	W12
	.byte		N02	, Cn2
	.byte	W04
	.byte			Gn2
	.byte	W04
	.byte			As2
	.byte	W04
	.byte		N08	, Cn3
	.byte	W12
	.byte		N02	, Cn2
	.byte	W04
	.byte			Gn2
	.byte	W04
	.byte			As2
	.byte	W04
	.byte		N08	, Cn3
	.byte	W12
	.byte		N02	, Cn2
	.byte	W04
	.byte			Gn2
	.byte	W04
	.byte			As2
	.byte	W04
	.byte		N08	, Cn3
	.byte	W12
	.byte		N02	, Cn2
	.byte	W04
	.byte			Gn2
	.byte	W04
	.byte			As2
	.byte	W04
	.byte		N08	, Cn3
	.byte	W12
	.byte		N04	, En3
	.byte	W12
	.byte			Cn3
	.byte	W12
	.byte			As2
	.byte	W12
	.byte			An2
	.byte	W12
	.byte			As2
	.byte	W12
	.byte			Cn3
	.byte	W12
	.byte			En3
	.byte	W12
	.byte		N06	, Fn3
	.byte	W24
	.byte		N03	
	.byte	W06
	.byte			En3
	.byte	W06
	.byte			Dn3
	.byte	W06
	.byte			Cn3
	.byte	W06
	.byte			An2
	.byte	W06
	.byte			Dn3
	.byte	W06
	.byte			An2
	.byte	W06
	.byte			Gn2
	.byte	W06
	.byte			Fn2
	.byte	W06
	.byte			Cn3
	.byte	W06
	.byte			An2
	.byte	W06
	.byte			Fn2
	.byte	W06
	.byte		N96	, As1
	.byte	W96
	.byte			Cn2
	.byte	W96
	.byte			Cs2
	.byte	W96
	.byte			Ds2
	.byte	W96
	.byte			En2
	.byte	W96
	.byte			Fs2
	.byte	W96
	.byte			Gs2
	.byte	W96
	.byte		N48	, As2
	.byte	W48
	.byte			Cn3
	.byte	W48
	.byte	W96
	.byte	W96
	.byte	W96
	.byte	W96
	.byte	W96
	.byte	W96
	.byte	W96
	.byte	W96
	.byte	W96
	.byte	W96
	.byte	W96
	.byte	W96
	.byte	W96
	.byte	W96
	.byte	W96
	.byte	W96
	.byte	W96
	.byte	W96
	.byte	W96
	.byte	W96
	.byte	W96
	.byte	W92
	.byte	W03
	.byte	VOICE	, 42
	.byte	W01
song034_2_6:
	.byte		N06	, Cn3, v127
	.byte	W12
	.byte			Cn3, v048
	.byte	W12
	.byte		N11	, Cn3, v127
	.byte	W12
	.byte		N06	, Cn3, v048
	.byte	W12
	.byte		N06	
	.byte	W12
	.byte			As2, v127
	.byte	W12
	.byte			Cn3
	.byte	W12
	.byte			As2
	.byte	W12
	.byte	PEND
song034_2_5:
	.byte		N06	, As2, v127
	.byte	W12
	.byte			As2, v048
	.byte	W12
	.byte		N18	, As2, v127
	.byte	W24
	.byte		N06	, As2, v048
	.byte	W12
	.byte			As2, v127
	.byte	W12
	.byte			Cs3
	.byte	W12
	.byte			Cs3, v048
	.byte	W12
	.byte	PEND
song034_2_7:
	.byte		N06	, Cn3, v127
	.byte	W12
	.byte			Cn3, v048
	.byte	W12
	.byte		N11	, Cn3, v127
	.byte	W12
	.byte		N06	, Cn3, v048
	.byte	W12
	.byte		N06	
	.byte	W12
	.byte			Cn3, v127
	.byte	W12
	.byte		N06	
	.byte	W12
	.byte			As2
	.byte	W12
	.byte	PEND
	.byte	PATT	
		.word	song034_2_5
	.byte	PATT	
		.word	song034_2_6
	.byte	PATT	
		.word	song034_2_5
	.byte	PATT	
		.word	song034_2_7
	.byte	PATT	
		.word	song034_2_5
	.byte	GOTO	
		.word	song034_2_8
	.byte	FINE

	@********************** Track  3 **********************@

	.global song034_3
song034_3:	@ 0x0827DEF6
	.byte	KEYSH	, 0
	.byte	VOICE	, 21
	.byte	VOL	, v065
	.byte	PAN	, c_v+63
	.byte		N44	, Dn4, v084
	.byte	W48
	.byte			An3
	.byte	W48
song034_3_1:
	.byte		N44	, Dn4, v084
	.byte	W48
	.byte		N22	
	.byte	W24
	.byte			Fs4
	.byte	W24
	.byte	PEND
song034_3_2:
	.byte		N44	, Gn4, v084
	.byte	W48
	.byte		N23	, Bn3
	.byte	W24
	.byte		N04	
	.byte	W06
	.byte			Cs4
	.byte	W06
	.byte			Dn4
	.byte	W06
	.byte			Ds4
	.byte	W06
	.byte	PEND
song034_3_3:
	.byte		N10	, En4, v084
	.byte	W12
	.byte		N06	, An3
	.byte	W12
	.byte		N10	, En4
	.byte	W12
	.byte		N06	, An3
	.byte	W12
	.byte		N10	, Dn4
	.byte	W12
	.byte		N06	, En4
	.byte	W12
	.byte		N22	, An4, v096
	.byte	W24
	.byte	PEND
	.byte		N44	, Dn4, v084
	.byte	W48
	.byte			An3
	.byte	W48
	.byte	PATT	
		.word	song034_3_1
	.byte	PATT	
		.word	song034_3_2
	.byte	PATT	
		.word	song034_3_3
song034_3_5:
	.byte		N04	, Dn4, v084
	.byte	W06
	.byte		N02	, Dn4, v056
	.byte	W06
	.byte		N04	, Dn4, v084
	.byte	W12
	.byte			An3
	.byte	W06
	.byte		N02	, An3, v056
	.byte	W06
	.byte		N04	, An3, v084
	.byte	W12
	.byte			Dn4
	.byte	W06
	.byte		N02	, Dn4, v056
	.byte	W06
	.byte		N04	, Dn4, v084
	.byte	W12
	.byte			An3
	.byte	W06
	.byte		N02	, An3, v056
	.byte	W06
	.byte		N04	, An3, v084
	.byte	W06
	.byte		N02	, An3, v056
	.byte	W06
	.byte	PEND
song034_3_6:
	.byte		N04	, Dn4, v084
	.byte	W06
	.byte		N02	, Dn4, v056
	.byte	W06
	.byte		N04	, Dn4, v084
	.byte	W12
	.byte			An3
	.byte	W06
	.byte		N02	, An3, v056
	.byte	W06
	.byte		N04	, An3, v084
	.byte	W12
	.byte			Dn4
	.byte	W06
	.byte		N02	, Dn4, v056
	.byte	W06
	.byte		N04	, Dn4, v084
	.byte	W12
	.byte			Fs4
	.byte	W06
	.byte		N02	, Fs4, v056
	.byte	W06
	.byte		N04	, Fs4, v084
	.byte	W06
	.byte		N02	, Fs4, v056
	.byte	W06
	.byte	PEND
song034_3_7:
	.byte		N10	, Gn4, v084
	.byte	W12
	.byte		N04	, En4
	.byte	W12
	.byte			Bn3
	.byte	W06
	.byte		N02	, Bn3, v056
	.byte	W06
	.byte		N04	, En4, v084
	.byte	W12
	.byte			Dn4
	.byte	W06
	.byte		N02	, Dn4, v056
	.byte	W06
	.byte		N04	, En4, v084
	.byte	W12
	.byte			Bn3
	.byte	W06
	.byte			Cs4
	.byte	W06
	.byte			Dn4
	.byte	W06
	.byte			Ds4
	.byte	W06
	.byte	PEND
	.byte	PATT	
		.word	song034_3_3
song034_3_8:
	.byte		N04	, Dn4, v084
	.byte	W06
	.byte		N02	, Dn4, v056
	.byte	W06
	.byte		N04	, An3, v084
	.byte	W06
	.byte		N02	, An3, v056
	.byte	W06
	.byte		N04	, An4, v084
	.byte	W06
	.byte		N02	, An4, v056
	.byte	W06
	.byte		N04	, Fs4, v084
	.byte	W06
	.byte		N02	, Fs4, v056
	.byte	W06
	.byte		N04	, Dn4, v084
	.byte	W06
	.byte		N02	, Dn4, v056
	.byte	W06
	.byte		N04	, An3, v084
	.byte	W06
	.byte		N02	, An3, v056
	.byte	W06
	.byte		N04	, An4, v084
	.byte	W06
	.byte		N02	, An4, v056
	.byte	W06
	.byte		N04	, Fs4, v084
	.byte	W06
	.byte		N02	, Fs4, v056
	.byte	W06
	.byte	PEND
song034_3_9:
	.byte		N04	, Dn4, v084
	.byte	W06
	.byte		N02	, Dn4, v056
	.byte	W06
	.byte		N04	, An3, v084
	.byte	W06
	.byte		N02	, An3, v056
	.byte	W06
	.byte		N04	, An4, v084
	.byte	W06
	.byte		N02	, An4, v056
	.byte	W06
	.byte		N04	, Fs4, v084
	.byte	W06
	.byte		N02	, Fs4, v056
	.byte	W06
	.byte		N04	, Dn4, v084
	.byte	W06
	.byte			An3
	.byte	W06
	.byte			An4
	.byte	W06
	.byte			Fs4
	.byte	W06
	.byte			Dn4
	.byte	W06
	.byte		N10	, An4
	.byte	W12
	.byte		N04	, Fs4
	.byte	W06
	.byte	PEND
	.byte			Dn4
	.byte	W06
	.byte		N02	, Dn4, v056
	.byte	W06
	.byte		N04	, Cs4, v084
	.byte	W06
	.byte			Bn3
	.byte	W12
	.byte		N04	
	.byte	W06
	.byte		N10	, Fs4
	.byte	W12
	.byte		N04	, Dn4
	.byte	W06
	.byte		N02	, Dn4, v056
	.byte	W06
	.byte		N04	, Cs4, v084
	.byte	W06
	.byte			Bn3
	.byte	W12
	.byte		N04	
	.byte	W06
	.byte			Cs4
	.byte	W06
	.byte			Dn4
	.byte	W06
	.byte		N10	, Cn4
	.byte	W18
	.byte		N04	, Gn4
	.byte	W06
	.byte		N10	, En4
	.byte	W12
	.byte		N06	, An3
	.byte	W12
	.byte		N04	, En4
	.byte	W06
	.byte			Fs4
	.byte	W06
	.byte			Gn4
	.byte	W06
	.byte			Gs4
	.byte	W06
	.byte		N22	, An4, v096
	.byte	W24
	.byte	VOICE	, 21
	.byte	W96
	.byte	W96
	.byte	W96
	.byte	W96
	.byte	W96
	.byte	W96
	.byte	W96
	.byte	W96
	.byte		N06	, Dn3, v064
	.byte	W12
	.byte			Dn3, v096
	.byte	W12
	.byte			Dn3, v044
	.byte	W24
	.byte		N18	, An3, v076
	.byte	W24
	.byte		N06	, An3, v044
	.byte	W12
	.byte			Dn3, v064
	.byte	W12
	.byte			Dn3, v096
	.byte	W12
	.byte			Dn3, v044
	.byte	W12
	.byte			Dn3, v024
	.byte	W12
	.byte		N18	, An3, v076
	.byte	W24
	.byte		N06	, An3, v044
	.byte	W12
	.byte			Dn3, v096
	.byte	W12
	.byte			Dn3, v044
	.byte	W12
	.byte	W96
	.byte	W96
	.byte	W96
	.byte	W96
	.byte	W96
	.byte	W96
	.byte	W96
	.byte	W96
	.byte	W96
	.byte	W06
	.byte	VOICE	, 21
	.byte	W06
	.byte		N06	, Gn3, v076
	.byte	W24
	.byte		N12	, Gn3, v084
	.byte	W24
	.byte		N06	, Gn3, v076
	.byte	W24
	.byte			Gn3, v084
	.byte	W12
song034_3_4:
	.byte	W12
	.byte		N06	, An3, v076
	.byte	W24
	.byte		N12	, An3, v084
	.byte	W24
	.byte		N06	, An3, v076
	.byte	W24
	.byte			An3, v084
	.byte	W12
	.byte	PEND
	.byte	W12
	.byte			Gn3, v076
	.byte	W24
	.byte		N12	, Gn3, v084
	.byte	W24
	.byte		N06	, Gn3, v076
	.byte	W24
	.byte			Gn3, v084
	.byte	W12
	.byte	PATT	
		.word	song034_3_4
	.byte	W12
	.byte		N06	, As3, v080
	.byte	W24
	.byte		N12	, As3, v088
	.byte	W24
	.byte		N06	, As3, v080
	.byte	W24
	.byte			As3, v088
	.byte	W12
	.byte	W12
	.byte			Cn4, v084
	.byte	W24
	.byte		N12	, Cn4, v096
	.byte	W24
	.byte		N06	, Cn4, v084
	.byte	W24
	.byte			Cn4, v096
	.byte	W12
	.byte	W12
	.byte			Dn4, v088
	.byte	W24
	.byte		N12	, Dn4, v100
	.byte	W24
	.byte		N06	, Dn4, v088
	.byte	W24
	.byte			Dn4, v100
	.byte	W12
	.byte	W12
	.byte			En4, v088
	.byte	W24
	.byte		N12	, En4, v100
	.byte	W24
	.byte		N06	, En4, v088
	.byte	W24
	.byte			En4, v100
	.byte	W12
	.byte	PATT	
		.word	song034_3_5
	.byte	PATT	
		.word	song034_3_6
	.byte	PATT	
		.word	song034_3_7
	.byte	PATT	
		.word	song034_3_3
	.byte	PATT	
		.word	song034_3_8
	.byte	PATT	
		.word	song034_3_9
song034_3_10:
	.byte		N04	, Dn4, v084
	.byte	W06
	.byte		N02	, Dn4, v056
	.byte	W06
	.byte		N04	, Cs4, v084
	.byte	W06
	.byte			Bn3
	.byte	W12
	.byte		N04	
	.byte	W06
	.byte		N10	, Fs4
	.byte	W12
	.byte		N04	, Dn4
	.byte	W06
	.byte		N02	, Dn4, v056
	.byte	W06
	.byte		N04	, Cs4, v084
	.byte	W06
	.byte			Bn3
	.byte	W12
	.byte		N04	
	.byte	W06
	.byte		N18	, Cn4, v076
	.byte	W12
	.byte	PEND
song034_3_11:
	.byte	W12
	.byte		N06	, Cn4, v084
	.byte	W12
	.byte		N12	, Dn4
	.byte	W12
	.byte		N06	, En4
	.byte	W12
	.byte		N12	, Dn4
	.byte	W12
	.byte		N06	, En4
	.byte	W12
	.byte		N12	, Dn4
	.byte	W12
	.byte		N06	, En4
	.byte	W12
	.byte	PEND
	.byte	PATT	
		.word	song034_3_5
	.byte	PATT	
		.word	song034_3_6
	.byte	PATT	
		.word	song034_3_7
	.byte	PATT	
		.word	song034_3_3
	.byte	PATT	
		.word	song034_3_8
	.byte	PATT	
		.word	song034_3_9
	.byte	PATT	
		.word	song034_3_10
	.byte	PATT	
		.word	song034_3_11
	.byte	W96
	.byte	W96
	.byte	W96
	.byte	W96
	.byte	W96
	.byte	W96
song034_3_12:
	.byte	VOICE	, 22
	.byte	W12
	.byte		N18	, Fs3, v084
	.byte	W24
	.byte		N06	, Fs3, v104
	.byte	W24
	.byte			Fs3, v084
	.byte	W24
	.byte			Fs3, v104
	.byte	W12
	.byte	PEND
song034_3_13:
	.byte	W12
	.byte		N06	, En3, v084
	.byte	W24
	.byte			En3, v104
	.byte	W24
	.byte			En3, v084
	.byte	W23
	.byte	VOICE	, 21
	.byte	W01
	.byte		N06	, Gn3, v104
	.byte	W12
	.byte	PEND
	.byte	PATT	
		.word	song034_3_12
	.byte	PATT	
		.word	song034_3_13
	.byte	PATT	
		.word	song034_3_12
	.byte	PATT	
		.word	song034_3_13
	.byte	PATT	
		.word	song034_3_12
	.byte	PATT	
		.word	song034_3_13
	.byte	GOTO	
		.word	song034_3_5
	.byte	FINE

	@********************** Track  4 **********************@

	.global song034_4
song034_4:	@ 0x0827E20A
	.byte	KEYSH	, 0
	.byte	VOICE	, 45
	.byte	VOL	, v043
	.byte	PAN	, c_v
	.byte	W96
	.byte	W96
	.byte	W96
	.byte	W96
	.byte	W96
	.byte	W96
	.byte	W96
	.byte	W96
song034_4_3:
	.byte	W96
	.byte	W96
	.byte	W96
	.byte	W96
	.byte	W96
	.byte	W96
	.byte	W96
	.byte	W96
	.byte	MOD	, 0
	.byte	BEND	, c_v
	.byte	W01
	.byte		N10	, An3, v092
	.byte	W12
	.byte			As3
	.byte	W24
	.byte			Cn4
	.byte	W24
	.byte			Cs4
	.byte	W12
	.byte			Dn4
	.byte	W12
	.byte			An4
	.byte	W11
	.byte	W60
	.byte	W01
	.byte		N10	
	.byte	W24
	.byte			Gn4
	.byte	W11
	.byte	W96
	.byte	W96
	.byte	W01
	.byte			Gn3
	.byte	W12
	.byte			An3
	.byte	W24
	.byte			As3
	.byte	W24
	.byte			Cn4
	.byte	W12
	.byte			Dn4
	.byte	W12
	.byte			Gn4
	.byte	W11
	.byte	W60
	.byte	W01
	.byte			An4
	.byte	W24
	.byte			Fn4
	.byte	W11
	.byte	W96
	.byte	W96
	.byte	W96
	.byte	W96
	.byte	W96
	.byte	W96
	.byte	W96
	.byte	W96
	.byte	W96
song034_4_1:
	.byte	W72
	.byte		N06	, Cn4, v127
	.byte	W06
	.byte			Cs4
	.byte	W06
	.byte			Dn4
	.byte	W06
	.byte			Ds4
	.byte	W06
	.byte	PEND
song034_4_2:
	.byte		N06	, En4, v127
	.byte	W12
	.byte			Cn4
	.byte	W12
	.byte			Dn4
	.byte	W12
	.byte			As3
	.byte	W12
	.byte			Cn4
	.byte	W12
	.byte			An3
	.byte	W12
	.byte			As3
	.byte	W12
	.byte			Gn3
	.byte	W12
	.byte	PEND
	.byte			An3
	.byte	W12
	.byte			As3
	.byte	W12
	.byte			Cn4
	.byte	W12
	.byte			Dn4
	.byte	W12
	.byte			En4
	.byte	W12
	.byte			Fn4
	.byte	W12
	.byte			Gn4
	.byte	W12
	.byte			Gs4
	.byte	W12
	.byte			An4
	.byte	W96
	.byte	W96
	.byte	W96
	.byte	W96
	.byte	W96
	.byte	W96
	.byte	W96
	.byte	W96
	.byte	W96
	.byte	W96
	.byte	W96
	.byte	W96
	.byte	W96
	.byte	W96
	.byte	W96
	.byte	W96
	.byte	W96
	.byte	W96
	.byte	W96
	.byte	W96
	.byte	W96
	.byte	W96
	.byte	W96
	.byte	W96
	.byte	W96
	.byte	W96
	.byte	W96
	.byte	W96
	.byte	W96
	.byte	PATT	
		.word	song034_4_1
	.byte	PATT	
		.word	song034_4_2
	.byte		N06	, Fn3, v127
	.byte	W96
	.byte	W96
	.byte	W96
	.byte	W96
	.byte	W96
	.byte	W96
	.byte	W96
	.byte	W96
	.byte	GOTO	
		.word	song034_4_3
	.byte	FINE

	@********************** Track  5 **********************@

	.global song034_5
song034_5:	@ 0x0827E2C1
	.byte	KEYSH	, 0
	.byte	VOICE	, 6
	.byte	VOL	, v067
	.byte	PAN	, c_v
	.byte		N12	, Cn4, v104
	.byte	W24
	.byte		N24	, Fn4
	.byte	W24
	.byte		N12	, En4
	.byte	W12
	.byte			Dn4
	.byte	W12
	.byte			Cn4
	.byte	W12
	.byte			An3
	.byte	W12
song034_5_1:
	.byte	W12
	.byte		N12	, An3, v104
	.byte	W12
	.byte		N24	, Dn4
	.byte	W24
	.byte		N12	, An3
	.byte	W12
	.byte			Gn3
	.byte	W24
	.byte			Fn3
	.byte	W12
	.byte	PEND
song034_5_2:
	.byte	W12
	.byte		N12	, Fn3, v104
	.byte	W12
	.byte		N24	, Dn4
	.byte	W24
	.byte		N12	, An3
	.byte	W12
	.byte			Gn3
	.byte	W24
	.byte		N42	, An3
	.byte	W12
	.byte	PEND
song034_5_3:
	.byte	W36
	.byte		N36	, Gn3, v104
	.byte	W36
	.byte		N12	, Cn4
	.byte	W24
	.byte	PEND
song034_5_4:
	.byte		N12	, Cn4, v104
	.byte	W24
	.byte		N24	, Fn4
	.byte	W24
	.byte		N12	, En4
	.byte	W12
	.byte			Dn4
	.byte	W12
	.byte			Cn4
	.byte	W12
	.byte			An3
	.byte	W12
	.byte	PEND
	.byte	PATT	
		.word	song034_5_1
	.byte	PATT	
		.word	song034_5_2
	.byte	PATT	
		.word	song034_5_3
song034_5_8:
	.byte	PATT	
		.word	song034_5_4
	.byte	PATT	
		.word	song034_5_1
	.byte	PATT	
		.word	song034_5_2
	.byte	PATT	
		.word	song034_5_3
	.byte	PATT	
		.word	song034_5_4
	.byte	PATT	
		.word	song034_5_1
	.byte	W12
	.byte		N12	, Fn3, v104
	.byte	W12
	.byte			Dn4
	.byte	W12
	.byte			Fn3
	.byte	W12
	.byte			An3
	.byte	W12
	.byte			As3
	.byte	W24
	.byte		N22	, Ds4
	.byte	W12
	.byte	W12
	.byte		N06	
	.byte	W12
	.byte			Dn4
	.byte	W12
	.byte		N18	, Cn4
	.byte	W18
	.byte		N06	, Dn4
	.byte	W06
	.byte			En4
	.byte	W06
	.byte			Fn4
	.byte	W06
	.byte			Gn4
	.byte	W12
	.byte			Cn4
	.byte	W12
	.byte	W96
	.byte	W96
	.byte	W96
	.byte	W96
	.byte	W96
	.byte	W96
	.byte	W96
	.byte	W96
	.byte	W96
	.byte	W96
	.byte	MOD	, 0
	.byte	W12
	.byte		N36	, Dn4
	.byte	W18
	.byte	MOD	, 10
	.byte	W18
	.byte		0
	.byte		N12	, As3
	.byte	W12
	.byte			An3
	.byte	W24
	.byte			Gn3
	.byte	W12
	.byte	W12
	.byte			Dn3
	.byte	W12
	.byte			Fn3
	.byte	W12
	.byte			Dn3
	.byte	W12
	.byte			As3
	.byte	W12
	.byte		N36	, Dn4
	.byte	W12
	.byte	MOD	, 10
	.byte	W24
	.byte	W96
	.byte	W96
	.byte	W96
	.byte	W96
	.byte	W96
	.byte	W96
	.byte	W96
	.byte		0
	.byte	W10
	.byte		N06	, Gs3
	.byte	W04
	.byte		N68	, An3
	.byte	W22
	.byte	MOD	, 10
	.byte	W48
	.byte		0
	.byte		N06	, Gn3
	.byte	W06
	.byte			An3
	.byte	W06
	.byte		N48	, Gn3
	.byte	W24
	.byte	MOD	, 10
	.byte	W24
	.byte		0
	.byte		N24	, Fn3
	.byte	W24
	.byte			En3
	.byte	W24
	.byte		N36	, Fn3
	.byte	W36
	.byte		N60	, Cs3
	.byte	W24
	.byte	MOD	, 14
	.byte	W36
	.byte	W12
	.byte		0
	.byte	W12
	.byte		N12	, Ds3
	.byte	W12
	.byte			Fn3
	.byte	W12
	.byte			Gn3
	.byte	W12
	.byte			Gs3
	.byte	W12
	.byte			As3
	.byte	W12
	.byte			Dn4
	.byte	W12
	.byte		N06	, En4
	.byte	W06
	.byte			Cs4
	.byte	W06
	.byte		N24	, Gs3
	.byte	W12
	.byte	MOD	, 15
	.byte	W12
	.byte		0
	.byte		N06	, Fs3
	.byte	W06
	.byte			Gs3
	.byte	W06
	.byte		N12	, Fs3
	.byte	W12
	.byte		N36	, Cs4
	.byte	W12
	.byte	MOD	, 20
	.byte	W24
	.byte	W12
	.byte		0
	.byte	W12
	.byte		N12	, Ds4
	.byte	W12
	.byte			Fn4
	.byte	W12
	.byte			Fs4
	.byte	W12
	.byte			Gs4
	.byte	W12
	.byte			As4
	.byte	W12
	.byte			Fs4
	.byte	W12
	.byte			Gs4
	.byte	W12
	.byte		N24	, Ds4
	.byte	W24
	.byte		N12	, Gs4
	.byte	W12
	.byte		N18	, Ds4
	.byte	W24
	.byte		N12	
	.byte	W12
	.byte			Gs4
	.byte	W12
	.byte			As4
	.byte	W12
	.byte			Fn4
	.byte	W12
	.byte			Dn4
	.byte	W12
	.byte			En4
	.byte	W12
	.byte			Fn4
	.byte	W12
	.byte			Gn4
	.byte	W12
	.byte		N24	, Cn5
	.byte	W24
	.byte	PATT	
		.word	song034_5_4
	.byte	PATT	
		.word	song034_5_1
	.byte	PATT	
		.word	song034_5_2
	.byte	PATT	
		.word	song034_5_3
	.byte	PATT	
		.word	song034_5_4
	.byte	PATT	
		.word	song034_5_1
song034_5_5:
	.byte	W12
	.byte		N12	, Fn3, v104
	.byte	W12
	.byte			Dn4
	.byte	W12
	.byte			Fn3
	.byte	W12
	.byte			An3
	.byte	W12
	.byte			As3
	.byte	W24
	.byte		N42	, Ds4
	.byte	W12
	.byte	PEND
song034_5_6:
	.byte	W36
	.byte		N24	, Cn4, v104
	.byte	W24
	.byte		N06	, As3
	.byte	W12
	.byte			Cn4
	.byte	W12
	.byte			As3
	.byte	W12
	.byte	PEND
	.byte	PATT	
		.word	song034_5_4
	.byte	PATT	
		.word	song034_5_1
	.byte	PATT	
		.word	song034_5_2
	.byte	PATT	
		.word	song034_5_3
	.byte	PATT	
		.word	song034_5_4
	.byte	PATT	
		.word	song034_5_1
	.byte	PATT	
		.word	song034_5_5
	.byte	PATT	
		.word	song034_5_6
	.byte	W24
	.byte		N12	, Gn3, v104
	.byte	W24
	.byte		N12	
	.byte	W12
	.byte			Dn3
	.byte	W24
	.byte		N21	, An3
	.byte	W12
	.byte	W12
	.byte		N12	
	.byte	W12
	.byte			Gn3
	.byte	W12
	.byte			An3
	.byte	W24
	.byte		N24	, Gn3
	.byte	W36
	.byte		N12	, Cn4
	.byte	W24
	.byte		N15	, Dn4
	.byte	W24
	.byte		N12	, Cn4
	.byte	W24
	.byte		N15	, Dn4
	.byte	W24
	.byte		N10	, As3
	.byte	W12
	.byte		N12	
	.byte	W24
	.byte			An3
	.byte	W24
	.byte			As3
	.byte	W24
	.byte		N48	, Gn3
	.byte	W12
	.byte	W36
	.byte		N06	, An3
	.byte	W06
	.byte			As3
	.byte	W06
	.byte		N42	, Dn4
	.byte	W48
	.byte		N10	, Cn4
	.byte	W12
	.byte		N04	, Cn3
	.byte	W04
	.byte			Gn3
	.byte	W04
	.byte			As3
	.byte	W04
	.byte		N10	, Cn4
	.byte	W12
	.byte		N04	, Cn3
	.byte	W04
	.byte			Gn3
	.byte	W04
	.byte			As3
	.byte	W04
	.byte		N10	, Cn4
	.byte	W12
	.byte		N04	, Cn3
	.byte	W04
	.byte			Gn3
	.byte	W04
	.byte			As3
	.byte	W04
	.byte		N10	, Cn4
	.byte	W12
	.byte		N04	, Cn3
	.byte	W04
	.byte			Gn3
	.byte	W04
	.byte			As3
	.byte	W04
	.byte	BEND	, c_v
	.byte	W24
	.byte		N03	, Gs3
	.byte	W03
	.byte		N30	, An3
	.byte	W32
	.byte	W01
	.byte		N11	, Gn3
	.byte	W12
	.byte			An3
	.byte	W12
	.byte		N90	, As3
	.byte	W12
	.byte	W84
	.byte		N05	, An3
	.byte	W06
	.byte			As3
	.byte	W06
	.byte	BEND	, c_v-48
	.byte		N11	, Dn4
	.byte	W01
	.byte	BEND	, c_v-45
	.byte	W01
	.byte		c_v-41
	.byte	W01
	.byte		c_v-34
	.byte	W01
	.byte		c_v-31
	.byte	W01
	.byte		c_v-28
	.byte	W01
	.byte		c_v-21
	.byte	W01
	.byte		c_v-17
	.byte	W01
	.byte		c_v-14
	.byte	W01
	.byte		c_v-7
	.byte	W01
	.byte		c_v-4
	.byte	W01
	.byte		c_v
	.byte	W01
	.byte		N11	, Cn4
	.byte	W12
	.byte			An3
	.byte	W12
	.byte			Fn3
	.byte	W12
	.byte		N05	, Cn3
	.byte	W03
	.byte		N07	, Dn3
	.byte	W09
	.byte		N11	, Cn3
	.byte	W24
	.byte	BEND	, c_v-52
	.byte		N88	, As3
	.byte	W01
	.byte	BEND	, c_v-47
	.byte	W02
	.byte		c_v-42
	.byte	W01
	.byte		c_v-37
	.byte	W02
	.byte		c_v-32
	.byte	W01
	.byte		c_v-27
	.byte	W02
	.byte		c_v-22
	.byte	W01
	.byte		c_v-17
	.byte	W02
song034_5_7:
	.byte	BEND	, c_v-11
	.byte	W01
	.byte		c_v-6
	.byte	W02
	.byte		c_v
	.byte	W92
	.byte	W01
	.byte	PEND
	.byte		c_v
	.byte		N03	, Bn2, v104
	.byte	W03
	.byte		N07	, Cn3
	.byte	W09
	.byte		N10	, Dn3
	.byte	W12
	.byte			Fn3
	.byte	W12
	.byte			An2
	.byte	W12
	.byte			Gn3
	.byte	W12
	.byte			An2
	.byte	W12
	.byte			An3
	.byte	W12
	.byte		N16	, Cn3
	.byte	W12
	.byte	W06
	.byte		N04	, Gn3
	.byte	W06
	.byte		N10	, Fn3
	.byte	W12
	.byte		N03	, An3
	.byte	W03
	.byte		N19	, As3
	.byte	W21
	.byte		N13	, An3
	.byte	W14
	.byte		N04	, As3
	.byte	W04
	.byte			An3
	.byte	W06
	.byte		N20	, Gn3
	.byte	W24
	.byte	BEND	, c_v-48
	.byte		N11	, Dn4
	.byte	W01
	.byte	BEND	, c_v-45
	.byte	W01
	.byte		c_v-41
	.byte	W01
	.byte		c_v-34
	.byte	W01
	.byte		c_v-31
	.byte	W01
	.byte		c_v-28
	.byte	W01
	.byte		c_v-21
	.byte	W01
	.byte		c_v-17
	.byte	W01
	.byte		c_v-14
	.byte	W01
	.byte		c_v-7
	.byte	W01
	.byte		c_v-4
	.byte	W01
	.byte		c_v
	.byte	W01
	.byte		N11	, Cn4
	.byte	W12
	.byte			An3
	.byte	W12
	.byte			Fn3
	.byte	W12
	.byte		N05	, Cn3
	.byte	W03
	.byte		N07	, Dn3
	.byte	W09
	.byte		N11	, Cn3
	.byte	W24
	.byte	BEND	, c_v-52
	.byte		N92	, As3
	.byte	W01
	.byte	BEND	, c_v-47
	.byte	W02
	.byte		c_v-42
	.byte	W01
	.byte		c_v-37
	.byte	W02
	.byte		c_v-32
	.byte	W01
	.byte		c_v-27
	.byte	W02
	.byte		c_v-22
	.byte	W01
	.byte		c_v-17
	.byte	W02
	.byte	PATT	
		.word	song034_5_7
	.byte	GOTO	
		.word	song034_5_8
	.byte	FINE

	@********************** Track  6 **********************@

	.global song034_6
song034_6:	@ 0x0827E5B2
	.byte	KEYSH	, 0
	.byte	VOICE	, 48
	.byte	VOL	, v054
	.byte	PAN	, c_v-22
	.byte	W96
	.byte	W96
	.byte	W96
	.byte	W96
	.byte	W96
	.byte	W96
	.byte	W96
	.byte	W96
song034_6_5:
	.byte	W96
	.byte	W96
	.byte	W96
	.byte	W96
	.byte	W96
	.byte	W96
	.byte	W96
	.byte	W96
	.byte	W96
	.byte	W96
	.byte	W96
	.byte	W96
	.byte	W96
	.byte	W96
	.byte	W96
	.byte	W96
	.byte		N30	, Dn4, v104
	.byte	W36
	.byte		N42	, As3, v096
	.byte	W48
	.byte		N48	, Fn4, v104
	.byte	W12
	.byte	W48
	.byte		N18	, Fn3, v092
	.byte	W24
	.byte		N24	, Fn4, v104
	.byte	W24
	.byte	W96
	.byte	W96
	.byte	W96
	.byte	W96
	.byte	W96
	.byte	W96
	.byte	W96
	.byte	W96
	.byte	W96
	.byte	W96
	.byte	W96
	.byte	W96
	.byte	W96
	.byte	W96
	.byte	W96
	.byte	W96
	.byte	W96
	.byte	W96
	.byte	W96
	.byte	W96
	.byte	W96
song034_6_1:
	.byte	W24
	.byte	W01
	.byte		N06	, Cs4, v100
	.byte	W03
	.byte		N20	, Dn4
	.byte	W21
	.byte		N12	
	.byte	W12
	.byte		N06	, Cn4
	.byte	W24
	.byte			As3
	.byte	W11
	.byte	PEND
song034_6_2:
	.byte	W13
	.byte		N06	, As3, v100
	.byte	W12
	.byte			Cs4
	.byte	W03
	.byte		N20	, Dn4
	.byte	W21
	.byte		N12	, As3
	.byte	W12
	.byte		N06	, An3
	.byte	W24
	.byte			Gn3
	.byte	W11
	.byte	PEND
song034_6_3:
	.byte	W13
	.byte		N06	, Ds3, v100
	.byte	W12
	.byte			An3
	.byte	W03
	.byte		N20	, As3
	.byte	W21
	.byte		N12	, An3
	.byte	W12
	.byte		N06	, Gn3
	.byte	W24
	.byte		N36	, Cn4
	.byte	W11
	.byte	PEND
song034_6_4:
	.byte	W36
	.byte	W01
	.byte		N54	, An3, v100
	.byte	W56
	.byte	W03
	.byte	PEND
	.byte	W96
	.byte	W96
	.byte	W96
	.byte	W96
	.byte	PATT	
		.word	song034_6_1
	.byte	PATT	
		.word	song034_6_2
	.byte	PATT	
		.word	song034_6_3
	.byte	PATT	
		.word	song034_6_4
	.byte	W96
	.byte	W96
	.byte	W96
	.byte	W96
	.byte	W96
	.byte	W96
	.byte	W96
	.byte	W96
	.byte	W96
	.byte	W96
	.byte	W96
	.byte	W96
	.byte	W96
	.byte	W96
	.byte	GOTO	
		.word	song034_6_5
	.byte	FINE

	@********************** Track  7 **********************@

	.global song034_7
song034_7:	@ 0x0827E668
	.byte	KEYSH	, 0
	.byte	VOICE	, 31
	.byte	VOL	, v054
	.byte	PAN	, c_v
	.byte	MOD	, 0
	.byte	MODT	, 0
	.byte	TUNE	, c_v
	.byte	BEND	, c_v
	.byte	W24
	.byte	W01
	.byte		N06	, Gs4, v096
	.byte	W03
	.byte		N20	, An4
	.byte	W08
	.byte	MOD	, 10
	.byte	W12
	.byte		0
	.byte	W01
	.byte		N12	
	.byte	W12
	.byte		N06	, Gn4
	.byte	W24
	.byte			Fn4
	.byte	W11
	.byte	W13
	.byte		N06	
	.byte	W12
	.byte			Gs4
	.byte	W03
	.byte		N20	, An4
	.byte	W08
	.byte	MOD	, 10
	.byte	W12
	.byte		0
	.byte	W01
	.byte		N12	, Fn4
	.byte	W12
	.byte		N06	, En4
	.byte	W24
	.byte			Dn4
	.byte	W11
	.byte	W13
	.byte			As3
	.byte	W12
	.byte			En4
	.byte	W03
	.byte		N20	, Fn4
	.byte	W08
	.byte	MOD	, 10
	.byte	W12
	.byte		0
	.byte	W01
	.byte		N12	, En4
	.byte	W12
	.byte		N06	, Dn4
	.byte	W24
	.byte		N36	
	.byte	W11
	.byte	W12
	.byte	MOD	, 10
	.byte	W12
	.byte		0
	.byte	W01
	.byte		N12	, En4
	.byte	W12
	.byte		N54	, Cn4
	.byte	W23
	.byte	MOD	, 15
	.byte	W36
song034_7_1:
	.byte	VOICE	, 31
	.byte	VOL	, v054
	.byte	PAN	, c_v
	.byte	MOD	, 0
	.byte	MODT	, 0
	.byte	TUNE	, c_v
	.byte	BEND	, c_v
	.byte	W24
	.byte	W01
	.byte		N06	, Gs4, v100
	.byte	W03
	.byte		N20	, An4
	.byte	W08
	.byte	MOD	, 10
	.byte	W12
	.byte		0
	.byte	W01
	.byte		N12	
	.byte	W12
	.byte		N06	, Gn4
	.byte	W24
	.byte			Fn4
	.byte	W11
	.byte	PEND
song034_7_2:
	.byte	W13
	.byte		N06	, Fn4, v100
	.byte	W12
	.byte			Gs4
	.byte	W03
	.byte		N20	, An4
	.byte	W08
	.byte	MOD	, 10
	.byte	W12
	.byte		0
	.byte	W01
	.byte		N12	, Fn4
	.byte	W12
	.byte		N06	, En4
	.byte	W24
	.byte			Dn4
	.byte	W11
	.byte	PEND
song034_7_3:
	.byte	W13
	.byte		N06	, As3, v100
	.byte	W12
	.byte			En4
	.byte	W03
	.byte		N20	, Fn4
	.byte	W08
	.byte	MOD	, 10
	.byte	W12
	.byte		0
	.byte	W01
	.byte		N12	, En4
	.byte	W12
	.byte		N06	, Dn4
	.byte	W24
	.byte		N36	
	.byte	W11
	.byte	PEND
song034_7_4:
	.byte	W12
	.byte	MOD	, 10
	.byte	W12
	.byte		0
	.byte	W01
	.byte		N12	, En4, v100
	.byte	W12
	.byte		N54	, Cn4
	.byte	W23
	.byte	MOD	, 15
	.byte	W36
	.byte	PEND
song034_7_11:
	.byte	PATT	
		.word	song034_7_1
	.byte	PATT	
		.word	song034_7_2
	.byte	PATT	
		.word	song034_7_3
	.byte	PATT	
		.word	song034_7_4
	.byte	MOD	, 0
	.byte	W24
	.byte	W01
	.byte		N06	, Gs4, v100
	.byte	W03
	.byte		N20	, An4
	.byte	W08
	.byte	MOD	, 10
	.byte	W12
	.byte		0
	.byte	W01
	.byte		N12	
	.byte	W12
	.byte		N06	, Gn4
	.byte	W24
	.byte			Fn4
	.byte	W11
	.byte	PATT	
		.word	song034_7_2
	.byte	W13
	.byte		N06	, As3, v100
	.byte	W12
	.byte			En4
	.byte	W03
	.byte		N20	, Fn4
	.byte	W08
	.byte	MOD	, 10
	.byte	W12
	.byte		0
	.byte	W01
	.byte		N12	, En4
	.byte	W12
	.byte		N06	, Dn4
	.byte	W12
	.byte		N18	, As3
	.byte	W11
	.byte		N22	, Ds4, v104
	.byte	W12
	.byte	W12
	.byte		N06	
	.byte	W12
	.byte			Dn4
	.byte	W12
	.byte		N15	, Cn4
	.byte	W18
	.byte		N06	, Dn4
	.byte	W06
	.byte			En4
	.byte	W06
	.byte			Fn4
	.byte	W06
	.byte			Gn4
	.byte	W12
	.byte			Cn4
	.byte	W12
	.byte	W96
	.byte	W96
	.byte	W96
	.byte	W96
	.byte	W96
	.byte	W96
	.byte	W96
	.byte	W96
	.byte	W96
	.byte	W96
	.byte	W96
	.byte	W96
	.byte	W96
	.byte	W96
	.byte	W96
	.byte	W96
	.byte	W96
	.byte	W96
	.byte	W96
	.byte	W96
	.byte	W96
	.byte	W96
	.byte	W96
	.byte	W96
	.byte	W96
	.byte	W96
	.byte	W96
song034_7_5:
	.byte	PAN	, c_v
	.byte	MODT	, 0
	.byte	TUNE	, c_v
	.byte	BEND	, c_v
	.byte	W24
	.byte	W01
	.byte		N06	, Gs4, v080
	.byte	W03
	.byte		N20	, An4
	.byte	W08
	.byte	MOD	, 10
	.byte	W12
	.byte		0
	.byte	W01
	.byte		N12	
	.byte	W12
	.byte		N06	, Gn4
	.byte	W24
	.byte			Fn4
	.byte	W11
	.byte	PEND
song034_7_6:
	.byte	W13
	.byte		N06	, Fn4, v080
	.byte	W12
	.byte			Gs4
	.byte	W03
	.byte		N20	, An4
	.byte	W08
	.byte	MOD	, 10
	.byte	W12
	.byte		0
	.byte	W01
	.byte		N12	, Fn4
	.byte	W12
	.byte		N06	, En4
	.byte	W24
	.byte			Dn4
	.byte	W11
	.byte	PEND
song034_7_7:
	.byte	W13
	.byte		N06	, As3, v080
	.byte	W12
	.byte			En4
	.byte	W03
	.byte		N20	, Fn4
	.byte	W08
	.byte	MOD	, 10
	.byte	W12
	.byte		0
	.byte	W01
	.byte		N12	, En4
	.byte	W12
	.byte		N06	, Dn4
	.byte	W24
	.byte		N36	
	.byte	W11
	.byte	PEND
song034_7_8:
	.byte	W12
	.byte	MOD	, 10
	.byte	W12
	.byte		0
	.byte	W01
	.byte		N12	, En4, v080
	.byte	W12
	.byte		N54	, Cn4
	.byte	W23
	.byte	MOD	, 15
	.byte	W36
	.byte	PEND
	.byte	W96
	.byte	W96
	.byte	W96
	.byte	W96
	.byte	PATT	
		.word	song034_7_5
	.byte	PATT	
		.word	song034_7_6
	.byte	PATT	
		.word	song034_7_7
	.byte	PATT	
		.word	song034_7_8
	.byte	PATT	
		.word	song034_7_5
	.byte	PATT	
		.word	song034_7_6
	.byte	W13
	.byte		N06	, As3, v080
	.byte	W12
	.byte			En4
	.byte	W03
	.byte		N20	, Fn4
	.byte	W08
	.byte	MOD	, 10
	.byte	W12
	.byte		0
	.byte	W01
	.byte		N12	, En4
	.byte	W12
	.byte		N06	, Dn4
	.byte	W24
	.byte		N36	, Gn4
	.byte	W11
	.byte	W12
	.byte	MOD	, 10
	.byte	W12
	.byte		0
	.byte	W13
	.byte		N54	, En4
	.byte	W23
	.byte	MOD	, 15
	.byte	W36
	.byte	VOICE	, 23
	.byte	VOL	, v025
	.byte	PAN	, c_v+21
	.byte	MOD	, 0
	.byte	MODT	, 0
	.byte	TUNE	, c_v
	.byte	BEND	, c_v
	.byte	W13
	.byte		N03	, An4, v100
	.byte	W12
	.byte			Dn5
	.byte	W24
	.byte			An4
	.byte	W44
	.byte	W03
	.byte	W13
	.byte		N03	
	.byte	W12
	.byte			Dn5
	.byte	W12
	.byte			Gn4
	.byte	W12
	.byte		N03	
	.byte	W12
	.byte		N03	
	.byte	W32
	.byte	W03
	.byte	W13
	.byte		N03	
	.byte	W12
	.byte			Cn5
	.byte	W24
	.byte			Gn4
	.byte	W44
	.byte	W03
	.byte	W13
	.byte			Fn4
	.byte	W12
	.byte			Cn5
	.byte	W12
	.byte			Fn4
	.byte	W12
	.byte		N03	
	.byte	W12
	.byte		N03	
	.byte	W32
	.byte	W03
	.byte	W48
	.byte	VOICE	, 31
	.byte	VOL	, v025
	.byte	MODT	, 0
	.byte	MOD	, 0
	.byte	TUNE	, c_v
	.byte	BEND	, c_v
	.byte	W48
	.byte	W01
	.byte		N03	, Cn4
	.byte	W12
	.byte			An3
	.byte	W12
	.byte			As3
	.byte	W12
	.byte			Gn3
	.byte	W12
	.byte			An3
	.byte	W12
	.byte			Fn3
	.byte	W12
	.byte			Gn3
	.byte	W12
	.byte			En3
	.byte	W11
	.byte	W01
	.byte			Fn3
	.byte	W17
	.byte	PAN	, c_v
	.byte	W07
	.byte		N01	, Cn4
	.byte	W06
	.byte			Bn3
	.byte	W06
	.byte			Cn4
	.byte	W36
	.byte		N01	
	.byte	W06
	.byte			Bn3
	.byte	W06
	.byte			Cn4
	.byte	W11
song034_7_10:
	.byte	W01
	.byte		N01	, Cn4, v100
	.byte	W06
	.byte		N01	
	.byte	W06
	.byte			As3
	.byte	W12
	.byte			Fn3
	.byte	W06
	.byte		N01	
	.byte	W06
	.byte			Ds3
	.byte	W12
	.byte			Gn3
	.byte	W06
	.byte		N01	
	.byte	W06
	.byte			Fn3
	.byte	W12
	.byte			As3
	.byte	W06
	.byte		N01	
	.byte	W06
	.byte			Gn3
	.byte	W11
	.byte	PEND
song034_7_9:
	.byte	W24
	.byte	W01
	.byte		N01	, Cn4, v100
	.byte	W06
	.byte			Bn3
	.byte	W06
	.byte			Cn4
	.byte	W36
	.byte		N01	
	.byte	W06
	.byte			Bn3
	.byte	W06
	.byte			Cn4
	.byte	W11
	.byte	PEND
	.byte	W01
	.byte		N01	
	.byte	W06
	.byte		N01	
	.byte	W06
	.byte			As3
	.byte	W12
	.byte			Fn3
	.byte	W06
	.byte		N01	
	.byte	W06
	.byte			Ds3
	.byte	W12
	.byte			Gn3
	.byte	W06
	.byte		N01	
	.byte	W06
	.byte			As3
	.byte	W12
	.byte			Cs4
	.byte	W06
	.byte		N01	
	.byte	W06
	.byte		N03	, Fn4
	.byte	W11
	.byte	PATT	
		.word	song034_7_9
	.byte	PATT	
		.word	song034_7_10
	.byte	PATT	
		.word	song034_7_9
	.byte	W01
	.byte		N01	, Cn4, v100
	.byte	W06
	.byte		N01	
	.byte	W06
	.byte			As3
	.byte	W12
	.byte			Fn3
	.byte	W06
	.byte		N01	
	.byte	W06
	.byte			Ds3
	.byte	W12
	.byte			Gn3
	.byte	W06
	.byte		N01	
	.byte	W06
	.byte			As3
	.byte	W12
	.byte			Cs4
	.byte	W06
	.byte		N01	
	.byte	W06
	.byte		N03	, Fn4
	.byte	W08
	.byte	VOICE	, 23
	.byte	VOL	, v054
	.byte	MOD	, 0
	.byte	TUNE	, c_v+5
	.byte	PAN	, c_v
	.byte	W03
	.byte	GOTO	
		.word	song034_7_11
	.byte	FINE

	@********************** Track  8 **********************@

	.global song034_8
song034_8:	@ 0x0827E938
	.byte	KEYSH	, 0
	.byte	VOICE	, 24
	.byte	VOL	, v025
	.byte	TUNE	, c_v-10
	.byte	PAN	, c_v+21
	.byte	W01
	.byte		N12	, Cn4, v116
	.byte	W24
	.byte		N24	, Fn4
	.byte	W24
	.byte		N12	, En4
	.byte	W12
	.byte			Dn4
	.byte	W12
	.byte			Cn4
	.byte	W12
	.byte			An3
	.byte	W11
song034_8_1:
	.byte	W13
	.byte		N12	, An3, v116
	.byte	W12
	.byte		N24	, Dn4
	.byte	W24
	.byte		N12	, An3
	.byte	W12
	.byte			Gn3
	.byte	W24
	.byte			Fn3
	.byte	W11
	.byte	PEND
song034_8_2:
	.byte	W13
	.byte		N12	, Fn3, v116
	.byte	W12
	.byte		N24	, Dn4
	.byte	W24
	.byte		N12	, An3
	.byte	W12
	.byte			Gn3
	.byte	W24
	.byte		N42	, An3
	.byte	W11
	.byte	PEND
song034_8_3:
	.byte	W36
	.byte	W01
	.byte		N36	, Gn3, v116
	.byte	W36
	.byte		N12	, Cn4
	.byte	W23
	.byte	PEND
song034_8_4:
	.byte	W01
	.byte		N12	, Cn4, v116
	.byte	W24
	.byte		N24	, Fn4
	.byte	W24
	.byte		N12	, En4
	.byte	W12
	.byte			Dn4
	.byte	W12
	.byte			Cn4
	.byte	W12
	.byte			An3
	.byte	W11
	.byte	PEND
	.byte	PATT	
		.word	song034_8_1
	.byte	PATT	
		.word	song034_8_2
	.byte	PATT	
		.word	song034_8_3
song034_8_6:
	.byte	PATT	
		.word	song034_8_4
	.byte	PATT	
		.word	song034_8_1
	.byte	PATT	
		.word	song034_8_2
	.byte	PATT	
		.word	song034_8_3
	.byte	PATT	
		.word	song034_8_4
	.byte	PATT	
		.word	song034_8_1
	.byte	W13
	.byte		N12	, Fn3, v116
	.byte	W12
	.byte			Dn4
	.byte	W12
	.byte			Fn3
	.byte	W12
	.byte			An3
	.byte	W12
	.byte			As3
	.byte	W24
	.byte		N22	, Ds4
	.byte	W11
	.byte	W13
	.byte		N06	
	.byte	W12
	.byte			Dn4
	.byte	W12
	.byte		N18	, Cn4
	.byte	W18
	.byte		N06	, Dn4
	.byte	W06
	.byte			En4
	.byte	W06
	.byte			Fn4
	.byte	W06
	.byte			Gn4
	.byte	W12
	.byte			Cn4
	.byte	W11
	.byte	W96
	.byte	W96
	.byte	W96
	.byte	W96
	.byte	W96
	.byte	W96
	.byte	W96
	.byte	W96
	.byte	W96
	.byte	W96
	.byte	W96
	.byte	W96
	.byte	W96
	.byte	W96
	.byte	W96
	.byte	W96
	.byte	W96
	.byte	W96
	.byte	W96
	.byte	W01
	.byte		N03	, Gn3, v120
	.byte	W06
	.byte			Gn4
	.byte	W06
	.byte			An3
	.byte	W06
	.byte			An4
	.byte	W06
	.byte			As3
	.byte	W06
	.byte			As4
	.byte	W06
	.byte			Dn4
	.byte	W06
	.byte			Dn5
	.byte	W06
	.byte			Gn3
	.byte	W06
	.byte			Gn4
	.byte	W06
	.byte			An3
	.byte	W06
	.byte			An4
	.byte	W06
	.byte			As3
	.byte	W06
	.byte			As4
	.byte	W06
	.byte			Dn4
	.byte	W06
	.byte			Dn5
	.byte	W05
	.byte	W01
	.byte			Cn4
	.byte	W06
	.byte			Cn5
	.byte	W06
	.byte			Dn4
	.byte	W06
	.byte			Dn5
	.byte	W06
	.byte			En4
	.byte	W06
	.byte			En5
	.byte	W06
	.byte			Gn4
	.byte	W06
	.byte			Gn5
	.byte	W06
	.byte			Cn4
	.byte	W06
	.byte			Cn5
	.byte	W06
	.byte			Dn4
	.byte	W06
	.byte			Dn5
	.byte	W06
	.byte			En4
	.byte	W06
	.byte			En5
	.byte	W06
	.byte			Gn4
	.byte	W06
	.byte			Gn5
	.byte	W05
	.byte	W01
	.byte			Cs4
	.byte	W06
	.byte			Cs5
	.byte	W06
	.byte			Ds4
	.byte	W06
	.byte			Ds5
	.byte	W06
	.byte			Fn4
	.byte	W06
	.byte			Fn5
	.byte	W06
	.byte			Gs4
	.byte	W06
	.byte			Gs5
	.byte	W06
	.byte			Cs4
	.byte	W06
	.byte			Cs5
	.byte	W06
	.byte			Ds4
	.byte	W06
	.byte			Ds5
	.byte	W06
	.byte			Fn4
	.byte	W06
	.byte			Fn5
	.byte	W06
	.byte			Gs4
	.byte	W06
	.byte			Gs5
	.byte	W05
	.byte	W01
	.byte			Ds4
	.byte	W06
	.byte			Ds5
	.byte	W06
	.byte			Fn4
	.byte	W06
	.byte			Fn5
	.byte	W06
	.byte			Gn4
	.byte	W06
	.byte			Gn5
	.byte	W06
	.byte			An4
	.byte	W06
	.byte			An5
	.byte	W06
	.byte			Ds4
	.byte	W06
	.byte			Ds5
	.byte	W06
	.byte			Fn4
	.byte	W06
	.byte			Fn5
	.byte	W06
	.byte			Gn4
	.byte	W06
	.byte			Gn5
	.byte	W06
	.byte			An4
	.byte	W06
	.byte			An5
	.byte	W05
	.byte	W01
	.byte			En4
	.byte	W06
	.byte			En5
	.byte	W06
	.byte			Fs4
	.byte	W06
	.byte			Fs5
	.byte	W06
	.byte			Gs4
	.byte	W06
	.byte			Gs5
	.byte	W06
	.byte			As4
	.byte	W06
	.byte			As5
	.byte	W06
	.byte			En4
	.byte	W06
	.byte			En5
	.byte	W06
	.byte			Fs4
	.byte	W06
	.byte			Fs5
	.byte	W06
	.byte			Gs4
	.byte	W06
	.byte			Gs5
	.byte	W06
	.byte			As4
	.byte	W06
	.byte			As5
	.byte	W05
	.byte	W01
	.byte			Fs4
	.byte	W06
	.byte			Fs5
	.byte	W06
	.byte			Gs4
	.byte	W06
	.byte			Gs5
	.byte	W06
	.byte			As4
	.byte	W06
	.byte			As5
	.byte	W06
	.byte			Cn5
	.byte	W06
	.byte			Cn6
	.byte	W06
	.byte			Fs4
	.byte	W06
	.byte			Fs5
	.byte	W06
	.byte			Gs4
	.byte	W06
	.byte			Gs5
	.byte	W06
	.byte			As4
	.byte	W06
	.byte			As5
	.byte	W06
	.byte			Cn5
	.byte	W06
	.byte			Cn6
	.byte	W05
	.byte	W01
	.byte			Gs4
	.byte	W06
	.byte			Gs5
	.byte	W06
	.byte			As4
	.byte	W06
	.byte			As5
	.byte	W06
	.byte			Cn5
	.byte	W06
	.byte			Cn6
	.byte	W06
	.byte			Dn5
	.byte	W06
	.byte			Dn6
	.byte	W06
	.byte			Gs4
	.byte	W06
	.byte			Gs5
	.byte	W06
	.byte			As4
	.byte	W06
	.byte			As5
	.byte	W06
	.byte			Cn5
	.byte	W06
	.byte			Cn6
	.byte	W06
	.byte			Dn5
	.byte	W06
	.byte			Dn6
	.byte	W05
	.byte	W01
	.byte			As4
	.byte	W06
	.byte			As5
	.byte	W06
	.byte			Cn5
	.byte	W06
	.byte			Cn6
	.byte	W06
	.byte			Dn5
	.byte	W06
	.byte			Dn6
	.byte	W06
	.byte			En5
	.byte	W06
	.byte			En6
	.byte	W06
	.byte			As4
	.byte	W06
	.byte			As5
	.byte	W06
	.byte			Cn5
	.byte	W06
	.byte			Cn6
	.byte	W06
	.byte			Dn5
	.byte	W06
	.byte			Dn6
	.byte	W06
	.byte			En5
	.byte	W06
	.byte			En6
	.byte	W05
	.byte	W96
	.byte	W96
	.byte	W96
	.byte	W96
	.byte	W96
	.byte	W96
	.byte	W96
song034_8_5:
	.byte	W92
	.byte	W03
	.byte	TUNE	, c_v
	.byte	W01
	.byte	PEND
	.byte	W96
	.byte	W96
	.byte	W96
	.byte	W96
	.byte	W96
	.byte	W96
	.byte	W96
	.byte	PATT	
		.word	song034_8_5
	.byte	W36
	.byte	W01
	.byte		N03	, Gn4, v116
	.byte	W24
	.byte		N03	
	.byte	W12
	.byte			Dn4
	.byte	W23
	.byte	W01
	.byte			An4
	.byte	W48
	.byte		N03	
	.byte	W24
	.byte			Gn4
	.byte	W23
	.byte	W13
	.byte			Cn5
	.byte	W24
	.byte			Dn5
	.byte	W24
	.byte			Cn5
	.byte	W24
	.byte			Dn5
	.byte	W11
	.byte	W24
	.byte	W01
	.byte			As4
	.byte	W24
	.byte			An4
	.byte	W24
	.byte			As4
	.byte	W23
	.byte	W01
	.byte		N48	, Gn4
	.byte	W48
	.byte		N03	, An4
	.byte	W06
	.byte			As4
	.byte	W06
	.byte		N30	, Dn5
	.byte	W32
	.byte	W03
	.byte	W04
	.byte		N03	, En5
	.byte	W12
	.byte			Cn5
	.byte	W12
	.byte			Dn5
	.byte	W12
	.byte			As4
	.byte	W12
	.byte			Cn5
	.byte	W12
	.byte			An4
	.byte	W12
	.byte			As4
	.byte	W12
	.byte			Gn4
	.byte	W08
	.byte	W04
	.byte		N06	, Fn4
	.byte	W92
	.byte	W96
	.byte	W96
	.byte	W96
	.byte	W06
	.byte	BEND	, c_v
	.byte	W01
	.byte		N03	, Bn2
	.byte	W03
	.byte		N07	, Cn3
	.byte	W09
	.byte		N10	, Dn3
	.byte	W12
	.byte			Fn3
	.byte	W12
	.byte			An2
	.byte	W12
	.byte			Gn3
	.byte	W12
	.byte			An2
	.byte	W12
	.byte			An3
	.byte	W12
	.byte		N16	, Cn3
	.byte	W05
	.byte	W13
	.byte		N04	, Gn3
	.byte	W06
	.byte		N10	, Fn3
	.byte	W12
	.byte		N03	, An3
	.byte	W03
	.byte		N19	, As3
	.byte	W21
	.byte		N13	, An3
	.byte	W14
	.byte		N04	, As3
	.byte	W05
	.byte			An3
	.byte	W05
	.byte		N20	, Gn3
	.byte	W17
	.byte	W06
	.byte	BEND	, c_v-48
	.byte	W01
	.byte		c_v-45
	.byte		N11	, Dn4
	.byte	W01
	.byte	BEND	, c_v-41
	.byte	W01
	.byte		c_v-34
	.byte	W01
	.byte		c_v-31
	.byte	W01
	.byte		c_v-28
	.byte	W01
	.byte		c_v-21
	.byte	W01
	.byte		c_v-17
	.byte	W01
	.byte		c_v-14
	.byte	W01
	.byte		c_v-7
	.byte	W01
	.byte		c_v-4
	.byte	W01
	.byte		c_v
	.byte	W02
	.byte		N11	, Cn4
	.byte	W12
	.byte			An3
	.byte	W12
	.byte			Fn3
	.byte	W12
	.byte		N05	, Cn3
	.byte	W04
	.byte		N07	, Dn3
	.byte	W08
	.byte		N11	, Cn3
	.byte	W23
	.byte	BEND	, c_v-52
	.byte	W01
	.byte		c_v-47
	.byte		N92	, As3
	.byte	W02
	.byte	BEND	, c_v-42
	.byte	W01
	.byte		c_v-37
	.byte	W02
	.byte		c_v-32
	.byte	W01
	.byte		c_v-27
	.byte	W02
	.byte		c_v-22
	.byte	W01
	.byte		c_v-17
	.byte	W02
	.byte		c_v-11
	.byte	W01
	.byte		c_v-6
	.byte	W02
	.byte		c_v
	.byte	W84
	.byte	W03
	.byte	GOTO	
		.word	song034_8_6
	.byte	FINE

	@********************** Track  9 **********************@

	.global song034_9
song034_9:	@ 0x0827EBDE
	.byte	KEYSH	, 0
	.byte	VOICE	, 49
	.byte	VOL	, v067
	.byte	BENDR	, 6
	.byte	LFOS	, 44
	.byte	PAN	, c_v
	.byte	BEND	, c_v
	.byte	W01
	.byte		N10	, Fn1, v124
	.byte	W12
	.byte		N10	
	.byte	W12
	.byte		N11	, Fn2
	.byte	W12
	.byte		N11	
	.byte	W12
	.byte		N12	, En2
	.byte	W12
	.byte			Dn2
	.byte	W12
	.byte			Cn2
	.byte	W12
	.byte			Dn2
	.byte	W11
song034_9_1:
	.byte	W01
	.byte		N10	, Dn1, v124
	.byte	W12
	.byte		N12	, Dn2
	.byte	W12
	.byte		N10	, An1
	.byte	W12
	.byte		N10	
	.byte	W12
	.byte		N12	, Dn2
	.byte	W12
	.byte			An1
	.byte	W12
	.byte		N10	, Dn1
	.byte	W12
	.byte			An1
	.byte	W11
	.byte	PEND
song034_9_2:
	.byte	W01
	.byte		N09	, Gn1, v124
	.byte	W12
	.byte		N24	, Gn2
	.byte	W24
	.byte		N09	, Gn1
	.byte	W12
	.byte		N24	, Gn2
	.byte	W24
	.byte		N09	, Gn1
	.byte	W12
	.byte		N12	
	.byte	W11
	.byte	PEND
song034_9_3:
	.byte	W01
	.byte		N12	, Cn2, v124
	.byte	W12
	.byte			Cn3
	.byte	W12
	.byte			Cn2
	.byte	W12
	.byte			As2
	.byte	W12
	.byte			Cn2
	.byte	W12
	.byte			An2
	.byte	W12
	.byte			Cn2
	.byte	W12
	.byte			Gn2
	.byte	W11
	.byte	PEND
song034_9_4:
	.byte	BEND	, c_v
	.byte	W01
	.byte		N10	, Fn1, v124
	.byte	W12
	.byte		N10	
	.byte	W12
	.byte		N11	, Fn2
	.byte	W12
	.byte		N11	
	.byte	W12
	.byte		N12	, En2
	.byte	W12
	.byte			Dn2
	.byte	W12
	.byte			Cn2
	.byte	W12
	.byte			Dn2
	.byte	W11
	.byte	PEND
	.byte	PATT	
		.word	song034_9_1
	.byte	PATT	
		.word	song034_9_2
	.byte	PATT	
		.word	song034_9_3
song034_9_18:
	.byte	PATT	
		.word	song034_9_4
	.byte	PATT	
		.word	song034_9_1
	.byte	PATT	
		.word	song034_9_2
	.byte	PATT	
		.word	song034_9_3
	.byte	PATT	
		.word	song034_9_4
	.byte	PATT	
		.word	song034_9_1
	.byte	W01
	.byte		N09	, Gn1, v124
	.byte	W12
	.byte		N24	, Gn2
	.byte	W24
	.byte		N09	, Gn1
	.byte	W12
	.byte		N24	, Gn2
	.byte	W24
	.byte		N09	, Gn1
	.byte	W12
	.byte		N24	, Ds2
	.byte	W11
	.byte	W13
	.byte		N12	, Ds3
	.byte	W12
	.byte			Ds2
	.byte	W12
	.byte			Dn3
	.byte	W12
	.byte			Cn2
	.byte	W12
	.byte			Cn3
	.byte	W12
	.byte		N24	, Cn2
	.byte	W23
song034_9_5:
	.byte	W01
	.byte		N12	, Fn1, v124
	.byte	W24
	.byte		N24	, Fn2
	.byte	W24
	.byte		N12	, Ds2
	.byte	W12
	.byte			Dn2
	.byte	W12
	.byte			Cn2
	.byte	W12
	.byte		N06	, Fn2
	.byte	W11
	.byte	PEND
song034_9_6:
	.byte	W13
	.byte		N06	, Fn1, v124
	.byte	W12
	.byte		N18	, Fn2
	.byte	W24
	.byte		N12	
	.byte	W12
	.byte		N06	, An2
	.byte	W12
	.byte			Fn2
	.byte	W12
	.byte		N12	, Cn2
	.byte	W11
	.byte	PEND
song034_9_7:
	.byte	W01
	.byte		N12	, Gn1, v124
	.byte	W24
	.byte		N24	, Gn2
	.byte	W24
	.byte		N12	, Fn2
	.byte	W12
	.byte			En2
	.byte	W12
	.byte			Dn2
	.byte	W12
	.byte			Gn2
	.byte	W11
	.byte	PEND
	.byte	BEND	, c_v-27
	.byte	W01
	.byte		c_v-23
	.byte		N24	, As2
	.byte	W02
	.byte	BEND	, c_v-18
	.byte	W01
	.byte		c_v-13
	.byte	W02
	.byte		c_v-8
	.byte	W01
	.byte		c_v-3
	.byte	W01
	.byte		c_v
	.byte	W04
	.byte	MOD	, 12
	.byte	W12
	.byte		0
	.byte	W01
	.byte		N24	, Gn2
	.byte	W24
	.byte		N06	, Dn2
	.byte	W12
	.byte		N12	, Gn2
	.byte	W12
	.byte		N24	, Gn1
	.byte	W08
	.byte	BEND	, c_v
	.byte	W01
	.byte		c_v-2
	.byte	W02
	.byte		c_v-4
	.byte	W01
	.byte		c_v-6
	.byte	W02
	.byte		c_v-8
	.byte	W01
	.byte		c_v-13
	.byte	W01
	.byte		c_v-16
	.byte	W01
	.byte		c_v-19
	.byte	W01
	.byte		c_v-25
	.byte	W01
	.byte		c_v-31
	.byte	W01
	.byte		c_v-44
	.byte	W03
	.byte		c_v
	.byte	W01
	.byte		N12	, Cn2
	.byte	W24
	.byte		N24	, Cn3
	.byte	W24
	.byte		N12	, As2
	.byte	W12
	.byte			An2
	.byte	W12
	.byte			Gn2
	.byte	W12
	.byte		N06	, Cn3
	.byte	W11
	.byte	W13
	.byte			Cn2
	.byte	W12
	.byte		N24	, Cn3
	.byte	W23
	.byte	MOD	, 7
	.byte	W01
	.byte		N12	, En3
	.byte	W12
	.byte			Cn3
	.byte	W11
	.byte	MOD	, 0
	.byte	W01
	.byte		N12	, Gn2
	.byte	W12
	.byte			En2
	.byte	W11
	.byte	MOD	, 0
	.byte	W01
	.byte		N12	, Fn1
	.byte	W12
	.byte		N06	, Fn2
	.byte	W12
	.byte			Cn3
	.byte	W12
	.byte		N12	, Fn3
	.byte	W12
	.byte			En3
	.byte	W12
	.byte			Fn2
	.byte	W24
	.byte		N24	, Fn1
	.byte	W11
	.byte	W13
	.byte		N06	, Fn2
	.byte	W12
	.byte			Cn3
	.byte	W12
	.byte		N12	, Fn3
	.byte	W12
	.byte		N06	, Cn3
	.byte	W12
	.byte		N24	, Fn3
	.byte	W11
	.byte	MOD	, 15
	.byte	W12
	.byte		0
	.byte	W01
	.byte		N12	, Fn2
	.byte	W11
	.byte	PATT	
		.word	song034_9_5
	.byte	PATT	
		.word	song034_9_6
	.byte	PATT	
		.word	song034_9_7
	.byte	BEND	, c_v-27
	.byte	W01
	.byte		c_v-23
	.byte		N24	, As2, v124
	.byte	W02
	.byte	BEND	, c_v-18
	.byte	W01
	.byte		c_v-13
	.byte	W02
	.byte		c_v-8
	.byte	W01
	.byte		c_v-3
	.byte	W01
	.byte		c_v
	.byte	W04
	.byte	MOD	, 12
	.byte	W12
	.byte		0
	.byte	W01
	.byte		N24	, Gn2
	.byte	W24
	.byte		N06	, As2
	.byte	W12
	.byte		N12	, Gn2
	.byte	W12
	.byte		N24	, Dn3
	.byte	W08
	.byte	BEND	, c_v
	.byte	W01
	.byte		c_v-2
	.byte	W02
	.byte		c_v-4
	.byte	W01
	.byte		c_v-6
	.byte	W02
	.byte		c_v-8
	.byte	W01
	.byte		c_v-13
	.byte	W01
	.byte		c_v-16
	.byte	W01
	.byte		c_v-19
	.byte	W01
	.byte		c_v-25
	.byte	W01
	.byte		c_v-31
	.byte	W01
	.byte		c_v-44
	.byte	W03
song034_9_8:
	.byte	BEND	, c_v
	.byte	W01
	.byte		N12	, Cn2, v124
	.byte	W12
	.byte		N18	, Cn3
	.byte	W24
	.byte		N06	
	.byte	W12
	.byte		N12	, As2
	.byte	W24
	.byte			Cn2
	.byte	W12
	.byte		N18	, Cn3
	.byte	W11
	.byte	PEND
	.byte	W13
	.byte		N06	
	.byte	W12
	.byte		N12	, As2
	.byte	W24
	.byte		N06	
	.byte	W12
	.byte		N06	
	.byte	W12
	.byte			Dn3
	.byte	W12
	.byte		N06	
	.byte	W11
	.byte	PATT	
		.word	song034_9_8
	.byte	W13
	.byte		N06	, Cn3, v124
	.byte	W12
	.byte		N12	, As2
	.byte	W24
	.byte		N04	, Dn3
	.byte	W06
	.byte		N04	
	.byte	W06
	.byte		N12	, As2
	.byte	W12
	.byte			Fn2
	.byte	W12
	.byte			Dn2
	.byte	W11
	.byte	BEND	, c_v
	.byte	W01
	.byte		N12	, Cn2
	.byte	W12
	.byte		N18	, Cn3
	.byte	W24
	.byte		N06	
	.byte	W12
	.byte			As2
	.byte	W12
	.byte		N06	
	.byte	W12
	.byte		N12	, Cn2
	.byte	W12
	.byte		N18	, Cn3
	.byte	W11
	.byte	BEND	, c_v
	.byte	W13
	.byte		N06	
	.byte	W12
	.byte			As2
	.byte	W12
	.byte		N06	
	.byte	W12
	.byte			Cn3
	.byte	W12
	.byte			Cs3
	.byte	W12
	.byte			Dn3
	.byte	W12
	.byte			En3
	.byte	W11
	.byte	W01
	.byte			Fn3
	.byte	W12
	.byte		N24	, Fn1
	.byte	W24
	.byte		N60	, Fn2
	.byte	W13
	.byte	BEND	, c_v
	.byte	W03
	.byte		c_v-2
	.byte	W03
	.byte		c_v-5
	.byte	W03
	.byte		c_v-7
	.byte	W03
	.byte		c_v-10
	.byte	W03
	.byte		c_v-13
	.byte	W03
	.byte		c_v-15
	.byte	W03
	.byte		c_v-18
	.byte	W03
	.byte		c_v-21
	.byte	W03
	.byte		c_v-23
	.byte	W03
	.byte		c_v-26
	.byte	W03
	.byte		c_v-28
	.byte	W03
	.byte		c_v-31
	.byte	W03
	.byte		c_v-34
	.byte	W03
	.byte		c_v-36
	.byte	W03
	.byte		c_v-39
	.byte	W01
	.byte		c_v
	.byte	W01
	.byte		N30	, Cn2
	.byte	W36
	.byte		N24	
	.byte	W24
	.byte		N06	, Gn2
	.byte	W12
	.byte		N24	, Cn3
	.byte	W09
	.byte	BEND	, c_v
	.byte	W02
	.byte		c_v-5
	.byte	W01
	.byte		c_v-11
	.byte	W02
	.byte		c_v-16
	.byte	W01
	.byte		c_v-22
	.byte	W02
	.byte		c_v-27
	.byte	W01
	.byte		c_v-33
	.byte	W02
	.byte		c_v-38
	.byte	W01
	.byte		c_v-44
	.byte	W01
	.byte		c_v-46
	.byte	W01
	.byte		c_v
	.byte	W01
	.byte		N30	, Dn2
	.byte	W36
	.byte		N24	
	.byte	W24
	.byte		N06	, An2
	.byte	W12
	.byte		N24	, Dn3
	.byte	W23
	.byte	BEND	, c_v
	.byte	W01
	.byte		N30	, Ds2
	.byte	W36
	.byte		N24	
	.byte	W24
	.byte		N06	, As2
	.byte	W12
	.byte		N24	, Ds3
	.byte	W09
	.byte	BEND	, c_v
	.byte	W02
	.byte		c_v-5
	.byte	W01
	.byte		c_v-11
	.byte	W02
	.byte		c_v-16
	.byte	W01
	.byte		c_v-22
	.byte	W02
	.byte		c_v-27
	.byte	W01
	.byte		c_v-33
	.byte	W02
	.byte		c_v-38
	.byte	W01
	.byte		c_v-44
	.byte	W01
	.byte		c_v-46
	.byte	W01
	.byte		c_v
	.byte	W01
	.byte		N30	, Fn2
	.byte	W36
	.byte		N24	
	.byte	W24
	.byte		N06	, Cn3
	.byte	W12
	.byte		N24	, Fn3
	.byte	W23
	.byte	W01
	.byte		N12	, Fs1
	.byte	W12
	.byte			Fs2
	.byte	W12
	.byte			Fs1
	.byte	W12
	.byte			Fs2
	.byte	W12
	.byte			Fs1
	.byte	W12
	.byte			Fs2
	.byte	W12
	.byte			Fs1
	.byte	W12
	.byte			Fs2
	.byte	W11
	.byte	W01
	.byte			Gs1
	.byte	W12
	.byte			Gs2
	.byte	W12
	.byte			Gs1
	.byte	W12
	.byte			Gs2
	.byte	W12
	.byte			Gs1
	.byte	W12
	.byte			Gs2
	.byte	W12
	.byte			Gs1
	.byte	W12
	.byte			Gs2
	.byte	W11
	.byte	W01
	.byte			As1
	.byte	W12
	.byte			As2
	.byte	W12
	.byte			As1
	.byte	W12
	.byte			As2
	.byte	W12
	.byte			As1
	.byte	W12
	.byte			As2
	.byte	W12
	.byte			As1
	.byte	W12
	.byte			As2
	.byte	W11
	.byte	W01
	.byte			Cn2
	.byte	W12
	.byte			Cn3
	.byte	W12
	.byte			Cn2
	.byte	W12
	.byte			Cn3
	.byte	W12
	.byte			Cn2
	.byte	W12
	.byte			Cn3
	.byte	W12
	.byte			Cn2
	.byte	W12
	.byte			Cn3
	.byte	W11
song034_9_10:
	.byte	BEND	, c_v
	.byte	W01
	.byte		N18	, Fn1, v124
	.byte	W24
	.byte		N24	, Fn2
	.byte	W24
	.byte		N12	
	.byte	W12
	.byte			Cn2
	.byte	W24
	.byte			Dn2
	.byte	W11
	.byte	PEND
song034_9_9:
	.byte	W13
	.byte		N12	, Dn2, v124
	.byte	W12
	.byte		N24	, An1
	.byte	W24
	.byte		N12	
	.byte	W12
	.byte			Dn2
	.byte	W32
	.byte	W03
	.byte	PEND
song034_9_11:
	.byte	W01
	.byte		N18	, Gn1, v124
	.byte	W24
	.byte		N24	, Dn2
	.byte	W24
	.byte		N12	, Gn1
	.byte	W12
	.byte			Dn2
	.byte	W12
	.byte		N06	, Gn1
	.byte	W12
	.byte		N18	, Cn2
	.byte	W11
	.byte	PEND
song034_9_12:
	.byte	W13
	.byte		N12	, Cn2, v124
	.byte	W12
	.byte			Cn3
	.byte	W12
	.byte		N06	, Cn2
	.byte	W12
	.byte		N06	
	.byte	W12
	.byte		N12	
	.byte	W12
	.byte			Cn3
	.byte	W12
	.byte			Cn2
	.byte	W11
	.byte	PEND
song034_9_13:
	.byte	W01
	.byte		N18	, Fn1, v124
	.byte	W24
	.byte		N24	, Fn2
	.byte	W24
	.byte		N12	
	.byte	W12
	.byte			Cn2
	.byte	W24
	.byte			Dn2
	.byte	W11
	.byte	PEND
	.byte	PATT	
		.word	song034_9_9
song034_9_14:
	.byte	BEND	, c_v
	.byte	W01
	.byte		N18	, Gn1, v124
	.byte	W24
	.byte		N24	, Dn2
	.byte	W24
	.byte		N12	, Gn1
	.byte	W12
	.byte			Dn2
	.byte	W12
	.byte		N06	, Gn1
	.byte	W12
	.byte		N18	, Ds2
	.byte	W11
	.byte	PEND
song034_9_15:
	.byte	W13
	.byte		N12	, Ds2, v124
	.byte	W12
	.byte			Ds3
	.byte	W12
	.byte		N24	, Cn2
	.byte	W24
	.byte		N12	
	.byte	W12
	.byte		N24	, Cn3
	.byte	W07
	.byte	BEND	, c_v
	.byte	W01
	.byte		c_v-3
	.byte	W02
	.byte		c_v-7
	.byte	W01
	.byte		c_v-10
	.byte	W02
	.byte		c_v-14
	.byte	W01
	.byte		c_v-18
	.byte	W02
	.byte		c_v-21
	.byte	W01
	.byte		c_v-25
	.byte	W02
	.byte		c_v-29
	.byte	W01
	.byte		c_v-32
	.byte	W02
	.byte		c_v-36
	.byte	W01
	.byte	PEND
	.byte	PATT	
		.word	song034_9_10
	.byte	PATT	
		.word	song034_9_9
	.byte	PATT	
		.word	song034_9_11
	.byte	PATT	
		.word	song034_9_12
	.byte	PATT	
		.word	song034_9_13
	.byte	PATT	
		.word	song034_9_9
	.byte	PATT	
		.word	song034_9_14
	.byte	PATT	
		.word	song034_9_15
	.byte	BEND	, c_v
	.byte	W01
	.byte		N06	, Gn1, v124
	.byte	W12
	.byte		N18	, Gn2
	.byte	W24
	.byte		N06	, Gn1
	.byte	W12
	.byte		N24	, Gn2
	.byte	W24
	.byte		N12	, Gn1
	.byte	W12
	.byte			Gn2
	.byte	W11
	.byte	W01
	.byte		N06	, Cn2
	.byte	W12
	.byte		N18	, Cn3
	.byte	W24
	.byte		N06	, Cn2
	.byte	W12
	.byte		N24	, Cn3
	.byte	W24
	.byte		N12	, Cn2
	.byte	W12
	.byte			Cn3
	.byte	W11
	.byte	W01
	.byte		N06	, Fn1
	.byte	W12
	.byte		N18	, Fn2
	.byte	W24
	.byte		N06	, Fn1
	.byte	W12
	.byte		N24	, Fn2
	.byte	W24
	.byte		N12	, Fn1
	.byte	W12
	.byte			Fn2
	.byte	W11
	.byte	W01
	.byte		N06	, Dn2
	.byte	W12
	.byte		N12	, Dn3
	.byte	W12
	.byte		N24	, Cn3
	.byte	W24
	.byte			As2
	.byte	W24
	.byte			An2
	.byte	W23
	.byte	W01
	.byte		N06	, Gn1
	.byte	W12
	.byte		N18	, Gn2
	.byte	W24
	.byte		N06	, Gn1
	.byte	W12
	.byte		N24	, Gn2
	.byte	W24
	.byte		N12	, Gn1
	.byte	W12
	.byte			Gn2
	.byte	W11
	.byte	BEND	, c_v
	.byte	W01
	.byte		N12	, Cn2
	.byte	W12
	.byte		N18	, Cn3
	.byte	W24
	.byte		N06	
	.byte	W12
	.byte			As2
	.byte	W12
	.byte		N06	
	.byte	W12
	.byte		N12	, An2
	.byte	W12
	.byte			Gn2
	.byte	W11
song034_9_16:
	.byte	W01
	.byte		N12	, Fn1, v124
	.byte	W24
	.byte		N30	, Fn2
	.byte	W36
	.byte		N06	
	.byte	W12
	.byte		N06	
	.byte	W12
	.byte		N12	, Ds2
	.byte	W11
	.byte	PEND
song034_9_17:
	.byte	W13
	.byte		N06	, Ds1, v124
	.byte	W12
	.byte		N18	, Ds2
	.byte	W24
	.byte		N06	
	.byte	W12
	.byte			Gn2
	.byte	W12
	.byte			Ds2
	.byte	W12
	.byte		N12	, As1
	.byte	W11
	.byte	PEND
	.byte	PATT	
		.word	song034_9_16
	.byte	PATT	
		.word	song034_9_17
	.byte	BEND	, c_v
	.byte	W01
	.byte		N12	, Fn1, v124
	.byte	W24
	.byte		N30	, Fn2
	.byte	W36
	.byte		N06	
	.byte	W12
	.byte		N06	
	.byte	W12
	.byte		N12	, Ds2
	.byte	W11
	.byte	PATT	
		.word	song034_9_17
	.byte	PATT	
		.word	song034_9_16
	.byte	PATT	
		.word	song034_9_17
	.byte	GOTO	
		.word	song034_9_18
	.byte	W01
	.byte	FINE

	@********************** Track  10 **********************@

	.global song034_10
song034_10:	@ 0x0827F068
	.byte	KEYSH	, 0
	.byte	VOICE	, 89
	.byte	VOL	, v043
	.byte	PAN	, c_v-22
	.byte	W01
	.byte		N02	, Dn5, v104
	.byte	W06
	.byte			Dn4, v080
	.byte	W06
	.byte			Dn5, v104
	.byte	W06
	.byte			Dn4, v080
	.byte	W06
	.byte			Dn5, v104
	.byte	W06
	.byte			Dn4, v080
	.byte	W06
	.byte			Dn5, v104
	.byte	W06
	.byte			Dn4, v080
	.byte	W06
	.byte			Dn5, v104
	.byte	W06
	.byte			Dn4, v080
	.byte	W18
	.byte			Dn5, v104
	.byte	W06
	.byte			Dn4, v080
	.byte	W17
song034_10_1:
	.byte	W01
	.byte		N02	, Dn5, v104
	.byte	W06
	.byte			Dn4, v080
	.byte	W06
	.byte			Dn5, v104
	.byte	W06
	.byte			Dn4, v080
	.byte	W06
	.byte			Dn5, v104
	.byte	W06
	.byte			Dn4, v080
	.byte	W06
	.byte			Dn5, v104
	.byte	W06
	.byte			Dn4, v080
	.byte	W06
	.byte			Dn5, v104
	.byte	W06
	.byte			Dn4, v080
	.byte	W18
	.byte			Dn5, v104
	.byte	W06
	.byte			Dn4, v080
	.byte	W17
	.byte	PEND
	.byte	PATT	
		.word	song034_10_1
	.byte	PATT	
		.word	song034_10_1
	.byte	PATT	
		.word	song034_10_1
	.byte	PATT	
		.word	song034_10_1
	.byte	PATT	
		.word	song034_10_1
	.byte	PATT	
		.word	song034_10_1
song034_10_12:
	.byte	PATT	
		.word	song034_10_1
	.byte	PATT	
		.word	song034_10_1
	.byte	PATT	
		.word	song034_10_1
	.byte	PATT	
		.word	song034_10_1
	.byte	PATT	
		.word	song034_10_1
	.byte	PATT	
		.word	song034_10_1
	.byte	PATT	
		.word	song034_10_1
	.byte	PATT	
		.word	song034_10_1
song034_10_2:
	.byte	W01
	.byte		N02	, Dn5, v104
	.byte	W24
	.byte		N02	
	.byte	W12
	.byte			Dn4, v080
	.byte	W12
	.byte			Dn5, v104
	.byte	W24
	.byte		N02	
	.byte	W12
	.byte			Dn4, v080
	.byte	W11
	.byte	PEND
song034_10_3:
	.byte	W01
	.byte		N02	, Dn5, v104
	.byte	W24
	.byte		N02	
	.byte	W12
	.byte			Dn4, v080
	.byte	W18
	.byte			Dn5
	.byte	W06
	.byte			Dn5, v104
	.byte	W12
	.byte		N02	
	.byte	W12
	.byte			Dn4, v080
	.byte	W11
	.byte	PEND
	.byte	PATT	
		.word	song034_10_2
	.byte	PATT	
		.word	song034_10_3
	.byte	PATT	
		.word	song034_10_2
	.byte	PATT	
		.word	song034_10_3
	.byte	W01
	.byte		N02	, Dn5, v104
	.byte	W06
	.byte			Dn4, v080
	.byte	W06
	.byte			Dn5, v104
	.byte	W12
	.byte		N02	
	.byte	W06
	.byte			Dn4, v080
	.byte	W06
	.byte			Dn5, v104
	.byte	W12
	.byte			Dn5, v124
	.byte	W06
	.byte			Dn5, v064
	.byte	W06
	.byte			Dn5, v096
	.byte	W06
	.byte			Dn5, v124
	.byte	W06
	.byte		N01	, Fn4, v116
	.byte	W01
	.byte			En4
	.byte	W02
	.byte			Ds4
	.byte	W01
	.byte			Dn4
	.byte	W02
	.byte			Cs4
	.byte	W01
	.byte			Cn4
	.byte	W02
	.byte			Bn3
	.byte	W01
	.byte			As3
	.byte	W02
	.byte			An3
	.byte	W01
	.byte			Gs3
	.byte	W02
	.byte			Gn3
	.byte	W01
	.byte			As3
	.byte	W02
	.byte			En4
	.byte	W01
	.byte			As4
	.byte	W04
	.byte	W01
	.byte		N02	, Dn5, v104
	.byte	W06
	.byte		N03	, Dn4, v080
	.byte	W06
	.byte		N02	, Dn5, v104
	.byte	W12
	.byte		N02	
	.byte	W06
	.byte		N03	, Dn4, v080
	.byte	W06
	.byte		N02	, Dn5, v104
	.byte	W12
	.byte		N01	, As2, v116
	.byte	W01
	.byte			Bn2
	.byte	W02
	.byte			Cn3
	.byte	W01
	.byte			Cs3
	.byte	W02
	.byte			Dn3
	.byte	W01
	.byte			Ds3
	.byte	W02
	.byte			En3
	.byte	W01
	.byte			Fn3
	.byte	W02
	.byte			Fs3
	.byte	W01
	.byte			Gn3
	.byte	W02
	.byte			Gs3
	.byte	W01
	.byte			An3
	.byte	W02
	.byte			As3
	.byte	W01
	.byte			Bn3
	.byte	W02
	.byte			Cn4
	.byte	W03
	.byte		N01	
	.byte	W07
	.byte			Gn3
	.byte	W02
	.byte			Fs3
	.byte	W01
	.byte			Fn3
	.byte	W02
	.byte			En3
	.byte	W01
	.byte			Ds3
	.byte	W02
	.byte			Dn3
	.byte	W01
	.byte			Cs3
	.byte	W02
	.byte			Cn3
	.byte	W01
	.byte			Bn2
	.byte	W02
	.byte			As2
	.byte	W02
	.byte	PATT	
		.word	song034_10_2
	.byte	PATT	
		.word	song034_10_3
	.byte	PATT	
		.word	song034_10_2
	.byte	PATT	
		.word	song034_10_3
song034_10_4:
	.byte	W13
	.byte		N02	, Dn5, v056
	.byte	W06
	.byte			Dn4, v032
	.byte	W18
	.byte			Dn5, v076
	.byte	W06
	.byte			Dn4, v052
	.byte	W18
	.byte			Dn5, v096
	.byte	W06
	.byte			Dn4, v072
	.byte	W18
	.byte			Dn5, v116
	.byte	W06
	.byte			Dn4, v092
	.byte	W05
	.byte	PEND
	.byte	PATT	
		.word	song034_10_4
	.byte	PATT	
		.word	song034_10_4
	.byte	W13
	.byte		N02	, Dn5, v056
	.byte	W06
	.byte			Dn4, v032
	.byte	W18
	.byte			Dn5, v076
	.byte	W06
	.byte			Dn4, v052
	.byte	W12
	.byte			Dn4, v072
	.byte	W06
	.byte			Dn5, v096
	.byte	W06
	.byte			Dn4, v072
	.byte	W12
	.byte			Dn4, v092
	.byte	W06
	.byte			Dn5, v116
	.byte	W06
	.byte			Dn4, v092
	.byte	W05
	.byte	W13
	.byte			Dn5, v116
	.byte	W06
	.byte			Dn4, v092
	.byte	W18
	.byte			Dn5, v116
	.byte	W06
	.byte			Dn4, v092
	.byte	W18
	.byte			Dn5, v116
	.byte	W06
	.byte			Dn4, v092
	.byte	W18
	.byte			Dn5, v116
	.byte	W06
	.byte			Dn4, v092
	.byte	W05
	.byte	W13
	.byte			Dn5, v116
	.byte	W06
	.byte			Dn4, v092
	.byte	W18
	.byte			Dn5, v116
	.byte	W06
	.byte			Dn4, v092
	.byte	W12
	.byte		N02	
	.byte	W06
	.byte			Dn5, v116
	.byte	W06
	.byte			Dn4, v092
	.byte	W12
	.byte		N02	
	.byte	W06
	.byte			Dn5, v116
	.byte	W06
	.byte			Dn4, v092
	.byte	W05
	.byte	W01
	.byte			Dn5, v116
	.byte	W24
	.byte			Dn4, v092
	.byte	W24
	.byte		N02	
	.byte	W24
	.byte		N02	
	.byte	W23
song034_10_5:
	.byte	W01
	.byte		N02	, Dn5, v104
	.byte	W06
	.byte		N02	
	.byte	W06
	.byte			Dn4, v080
	.byte	W06
	.byte		N02	
	.byte	W06
	.byte			Dn5, v104
	.byte	W06
	.byte		N02	
	.byte	W06
	.byte			Dn4, v080
	.byte	W06
	.byte		N02	
	.byte	W06
	.byte			Dn5, v104
	.byte	W06
	.byte		N02	
	.byte	W06
	.byte			Dn4, v080
	.byte	W06
	.byte		N02	
	.byte	W06
	.byte			Dn5, v104
	.byte	W06
	.byte		N02	
	.byte	W06
	.byte			Dn4, v080
	.byte	W06
	.byte		N02	
	.byte	W05
	.byte	PEND
	.byte	PATT	
		.word	song034_10_5
	.byte	PATT	
		.word	song034_10_5
	.byte	PATT	
		.word	song034_10_5
song034_10_6:
	.byte	W01
	.byte		N02	, Dn5, v104
	.byte	W06
	.byte			Dn4, v080
	.byte	W18
	.byte			Dn5, v104
	.byte	W06
	.byte			Dn4, v080
	.byte	W18
	.byte			Dn5, v104
	.byte	W06
	.byte			Dn4, v080
	.byte	W18
	.byte			Dn5, v104
	.byte	W06
	.byte			Dn4, v080
	.byte	W17
	.byte	PEND
	.byte	PATT	
		.word	song034_10_6
	.byte	PATT	
		.word	song034_10_6
	.byte	PATT	
		.word	song034_10_6
song034_10_7:
	.byte	W01
	.byte		N02	, Dn5, v104
	.byte	W06
	.byte		N02	
	.byte	W06
	.byte			Dn4, v080
	.byte	W12
	.byte			Dn5, v104
	.byte	W06
	.byte		N02	
	.byte	W06
	.byte			Dn4, v080
	.byte	W12
	.byte			Dn5, v104
	.byte	W06
	.byte		N02	
	.byte	W06
	.byte			Dn4, v080
	.byte	W12
	.byte			Dn5, v104
	.byte	W06
	.byte		N02	
	.byte	W06
	.byte			Dn4, v080
	.byte	W11
	.byte	PEND
	.byte	PATT	
		.word	song034_10_7
	.byte	PATT	
		.word	song034_10_7
song034_10_8:
	.byte	W01
	.byte		N02	, Dn5, v104
	.byte	W06
	.byte		N02	
	.byte	W06
	.byte			Dn4, v080
	.byte	W12
	.byte			Dn5, v104
	.byte	W06
	.byte		N02	
	.byte	W06
	.byte			Dn4, v080
	.byte	W12
	.byte			Dn5, v104
	.byte	W06
	.byte		N02	
	.byte	W06
	.byte			Dn4, v080
	.byte	W06
	.byte		N02	
	.byte	W06
	.byte			Dn5, v104
	.byte	W06
	.byte		N02	
	.byte	W06
	.byte			Dn4, v080
	.byte	W06
	.byte		N02	
	.byte	W05
	.byte	PEND
	.byte	PATT	
		.word	song034_10_7
	.byte	PATT	
		.word	song034_10_7
	.byte	PATT	
		.word	song034_10_7
song034_10_9:
	.byte	W01
	.byte		N02	, Dn5, v104
	.byte	W06
	.byte		N02	
	.byte	W06
	.byte			Dn4, v080
	.byte	W12
	.byte			Dn5, v104
	.byte	W06
	.byte		N02	
	.byte	W06
	.byte			Dn4, v080
	.byte	W12
	.byte			Dn5, v104
	.byte	W06
	.byte			Dn4, v080
	.byte	W18
	.byte			Dn5, v104
	.byte	W06
	.byte			Dn4, v080
	.byte	W17
	.byte	PEND
	.byte	PATT	
		.word	song034_10_7
	.byte	PATT	
		.word	song034_10_7
	.byte	PATT	
		.word	song034_10_7
	.byte	PATT	
		.word	song034_10_8
	.byte	PATT	
		.word	song034_10_7
	.byte	PATT	
		.word	song034_10_7
	.byte	PATT	
		.word	song034_10_7
	.byte	PATT	
		.word	song034_10_9
song034_10_10:
	.byte	W01
	.byte		N03	, Dn5, v104
	.byte	W12
	.byte			Dn4, v080
	.byte	W48
	.byte		N03	
	.byte	W24
	.byte		N03	
	.byte	W11
	.byte	PEND
	.byte	PATT	
		.word	song034_10_10
	.byte	PATT	
		.word	song034_10_10
	.byte	PATT	
		.word	song034_10_10
	.byte	PATT	
		.word	song034_10_10
	.byte	W13
	.byte		N03	, Dn5, v116
	.byte	W06
	.byte			Dn4, v092
	.byte	W18
	.byte			Dn5, v116
	.byte	W06
	.byte			Dn4, v092
	.byte	W18
	.byte			Dn5, v116
	.byte	W06
	.byte			Dn4, v092
	.byte	W18
	.byte			Dn5, v116
	.byte	W06
	.byte			Dn4, v092
	.byte	W05
song034_10_11:
	.byte	W01
	.byte		N02	, Dn5, v104
	.byte	W12
	.byte			Dn4, v080
	.byte	W18
	.byte			Dn5, v104
	.byte	W12
	.byte			Dn4, v080
	.byte	W12
	.byte		N02	
	.byte	W18
	.byte			Dn5, v104
	.byte	W23
	.byte	PEND
	.byte	PATT	
		.word	song034_10_11
	.byte	PATT	
		.word	song034_10_11
	.byte	W01
	.byte		N02	, Dn5, v104
	.byte	W12
	.byte			Dn4, v080
	.byte	W18
	.byte			Dn5, v104
	.byte	W12
	.byte			Dn4, v080
	.byte	W06
	.byte		N01	, As2, v116
	.byte	W01
	.byte			Bn2
	.byte	W02
	.byte			Cn3
	.byte	W01
	.byte			Cs3
	.byte	W02
	.byte			Dn3
	.byte	W01
	.byte			Ds3
	.byte	W02
	.byte			En3
	.byte	W01
	.byte			Fn3
	.byte	W02
	.byte			Fs3
	.byte	W01
	.byte			Gn3
	.byte	W02
	.byte			Gs3
	.byte	W01
	.byte			An3
	.byte	W02
	.byte			As3
	.byte	W01
	.byte			Bn3
	.byte	W02
	.byte			Cn4
	.byte	W03
	.byte		N01	
	.byte	W07
	.byte			Gn3
	.byte	W02
	.byte			Fs3
	.byte	W01
	.byte			Fn3
	.byte	W02
	.byte			En3
	.byte	W01
	.byte			Ds3
	.byte	W02
	.byte			Dn3
	.byte	W01
	.byte			Cs3
	.byte	W02
	.byte			Cn3
	.byte	W01
	.byte			Bn2
	.byte	W02
	.byte			As2
	.byte	W02
	.byte	PATT	
		.word	song034_10_11
	.byte	PATT	
		.word	song034_10_11
	.byte	PATT	
		.word	song034_10_11
	.byte	W01
	.byte		N02	, Dn5, v104
	.byte	W12
	.byte			Dn4, v080
	.byte	W18
	.byte			Dn5, v104
	.byte	W12
	.byte			Dn4, v080
	.byte	W06
	.byte		N01	, As2, v096
	.byte	W01
	.byte			Bn2, v116
	.byte	W02
	.byte			Cn3
	.byte	W01
	.byte			Cs3
	.byte	W02
	.byte			Dn3
	.byte	W01
	.byte			Ds3
	.byte	W02
	.byte			En3
	.byte	W01
	.byte			Fn3
	.byte	W02
	.byte			Fs3
	.byte	W01
	.byte			Gn3
	.byte	W02
	.byte			Gs3
	.byte	W01
	.byte			An3
	.byte	W02
	.byte			As3
	.byte	W01
	.byte			Bn3
	.byte	W02
	.byte			Cn4
	.byte	W03
	.byte		N01	
	.byte	W07
	.byte			Gn3
	.byte	W02
	.byte			Fs3
	.byte	W01
	.byte			Fn3
	.byte	W02
	.byte			En3
	.byte	W01
	.byte			Ds3
	.byte	W02
	.byte			Dn3
	.byte	W01
	.byte			Cs3
	.byte	W02
	.byte			Cn3
	.byte	W01
	.byte			Bn2
	.byte	W02
	.byte			As2
	.byte	W02
	.byte	GOTO	
		.word	song034_10_12
	.byte	FINE

	@********************** Track  11 **********************@

	.global song034_11
song034_11:	@ 0x0827F468
	.byte	KEYSH	, 0
	.byte	VOICE	, 91
	.byte	VOL	, v043
	.byte	PAN	, c_v-22
	.byte	W60
	.byte	W01
	.byte		N12	, Dn5, v096
	.byte	W24
	.byte		N12	
	.byte	W11
song034_11_1:
	.byte	W60
	.byte	W01
	.byte		N12	, Dn5, v096
	.byte	W24
	.byte		N12	
	.byte	W11
	.byte	PEND
	.byte	PATT	
		.word	song034_11_1
	.byte	PATT	
		.word	song034_11_1
	.byte	PATT	
		.word	song034_11_1
	.byte	PATT	
		.word	song034_11_1
	.byte	PATT	
		.word	song034_11_1
	.byte	PATT	
		.word	song034_11_1
song034_11_8:
	.byte	PATT	
		.word	song034_11_1
	.byte	PATT	
		.word	song034_11_1
	.byte	PATT	
		.word	song034_11_1
	.byte	PATT	
		.word	song034_11_1
	.byte	PATT	
		.word	song034_11_1
	.byte	PATT	
		.word	song034_11_1
	.byte	PATT	
		.word	song034_11_1
	.byte	PATT	
		.word	song034_11_1
	.byte	W96
	.byte	W96
	.byte	W96
	.byte	W96
	.byte	W96
	.byte	W96
	.byte	W96
	.byte	W96
	.byte	W96
	.byte	W96
	.byte	W96
	.byte	W96
song034_11_2:
	.byte	W01
	.byte		N12	, Dn5, v100
	.byte	W24
	.byte		N12	
	.byte	W24
	.byte		N12	
	.byte	W24
	.byte		N12	
	.byte	W23
	.byte	PEND
	.byte	PATT	
		.word	song034_11_2
	.byte	PATT	
		.word	song034_11_2
	.byte	PATT	
		.word	song034_11_2
	.byte	PATT	
		.word	song034_11_2
	.byte	PATT	
		.word	song034_11_2
	.byte	W96
	.byte	W96
	.byte	W96
	.byte	W96
	.byte	W96
song034_11_3:
	.byte	W12
	.byte		N12	, Dn5, v096
	.byte	W24
	.byte		N12	
	.byte	W24
	.byte		N12	
	.byte	W24
	.byte		N12	
	.byte	W12
	.byte	PEND
	.byte	PATT	
		.word	song034_11_3
	.byte	PATT	
		.word	song034_11_3
	.byte	PATT	
		.word	song034_11_3
	.byte	W96
	.byte	W96
	.byte	W96
	.byte	W96
	.byte	W96
	.byte	W96
	.byte	W96
song034_11_4:
	.byte	W60
	.byte	W01
	.byte		N12	, Dn5, v100
	.byte	W24
	.byte		N12	
	.byte	W11
	.byte	PEND
	.byte	W96
	.byte	W96
	.byte	W96
	.byte	W96
	.byte	W96
	.byte	W96
	.byte	W96
	.byte	PATT	
		.word	song034_11_4
song034_11_5:
	.byte	W24
	.byte		N12	, Dn5, v096
	.byte	W48
	.byte		N12	
	.byte	W24
	.byte	PEND
	.byte	PATT	
		.word	song034_11_5
	.byte	PATT	
		.word	song034_11_5
	.byte	PATT	
		.word	song034_11_5
	.byte	PATT	
		.word	song034_11_5
	.byte		N12	, Dn5, v096
	.byte	W24
	.byte		N12	
	.byte	W24
	.byte		N12	
	.byte	W24
	.byte		N12	
	.byte	W24
song034_11_6:
	.byte	W24
	.byte		N06	, Dn5, v080
	.byte	W36
	.byte		N12	
	.byte	W36
	.byte	PEND
song034_11_7:
	.byte	W24
	.byte		N06	, Dn5, v080
	.byte	W36
	.byte		N12	
	.byte	W24
	.byte			Fs4
	.byte	W12
	.byte	PEND
	.byte	PATT	
		.word	song034_11_6
	.byte	W24
	.byte		N06	, Dn5, v080
	.byte	W72
	.byte	PATT	
		.word	song034_11_6
	.byte	PATT	
		.word	song034_11_7
	.byte	PATT	
		.word	song034_11_6
	.byte	W24
	.byte		N06	, Dn5, v080
	.byte	W72
	.byte	GOTO	
		.word	song034_11_8
	.byte	FINE

	@********************** Track  12 **********************@

	.global song034_12
song034_12:	@ 0x0827F590
	.byte	KEYSH	, 0
	.byte	VOICE	, 55
	.byte	MOD	, 0
	.byte	VOL	, v063
	.byte	PAN	, c_v
	.byte	MODT	, 0
	.byte	TUNE	, c_v+5
	.byte	BENDR	, 12
	.byte	BEND	, c_v
	.byte		N44	, Fn4, v084
	.byte	W48
	.byte			Cn4
	.byte	W48
song034_12_1:
	.byte		N44	, Fn4, v084
	.byte	W48
	.byte		N22	
	.byte	W24
	.byte			An4
	.byte	W24
	.byte	PEND
song034_12_2:
	.byte		N44	, As4, v084
	.byte	W48
	.byte		N23	, Dn4
	.byte	W24
	.byte		N04	
	.byte	W06
	.byte			En4
	.byte	W06
	.byte			Fn4
	.byte	W06
	.byte			Fs4
	.byte	W06
	.byte	PEND
song034_12_3:
	.byte		N10	, Gn4, v084
	.byte	W12
	.byte		N06	, Cn4
	.byte	W12
	.byte		N10	, Gn4
	.byte	W12
	.byte		N06	, Cn4
	.byte	W12
	.byte		N10	, Fn4
	.byte	W12
	.byte		N06	, Gn4
	.byte	W12
	.byte		N22	, Cn5, v096
	.byte	W24
	.byte	PEND
song034_12_4:
	.byte		N44	, Fn4, v084
	.byte	W48
	.byte			Cn4
	.byte	W48
	.byte	PEND
	.byte	PATT	
		.word	song034_12_1
	.byte	PATT	
		.word	song034_12_2
	.byte	PATT	
		.word	song034_12_3
song034_12_6:
	.byte	PATT	
		.word	song034_12_4
	.byte	PATT	
		.word	song034_12_1
	.byte	PATT	
		.word	song034_12_2
	.byte	PATT	
		.word	song034_12_3
	.byte	PATT	
		.word	song034_12_4
	.byte	PATT	
		.word	song034_12_1
	.byte	PATT	
		.word	song034_12_2
	.byte	PATT	
		.word	song034_12_3
	.byte	MOD	, 0
	.byte	BEND	, c_v
	.byte	W01
	.byte		N10	, An2, v120
	.byte	W12
	.byte			As2
	.byte	W24
	.byte			Cn3
	.byte	W24
	.byte			Cs3
	.byte	W12
	.byte			Dn3
	.byte	W12
	.byte			An3
	.byte	W11
	.byte	W60
	.byte	W01
	.byte		N10	
	.byte	W24
	.byte			Gn3
	.byte	W11
	.byte	W96
	.byte	W96
	.byte	W01
	.byte			Gn2
	.byte	W12
	.byte			An2
	.byte	W24
	.byte			As2
	.byte	W24
	.byte			Cn3
	.byte	W12
	.byte			Dn3
	.byte	W12
	.byte			Gn3
	.byte	W11
	.byte	W60
	.byte	W01
	.byte			An3
	.byte	W24
	.byte			Fn3
	.byte	W11
	.byte	W96
	.byte	W96
	.byte	W01
	.byte			An2
	.byte	W12
	.byte			As2
	.byte	W24
	.byte			Cn3
	.byte	W24
	.byte			Cs3
	.byte	W12
	.byte			Dn3
	.byte	W12
	.byte			An3
	.byte	W11
	.byte	W60
	.byte	W01
	.byte			Gn3
	.byte	W12
	.byte			An3
	.byte	W12
	.byte			As3
	.byte	W11
	.byte	W96
	.byte	W60
	.byte	W01
	.byte			Dn4
	.byte	W32
	.byte	W03
song034_12_5:
	.byte	W01
	.byte		N10	, Cn4, v120
	.byte	W12
	.byte			An3
	.byte	W24
	.byte			As3
	.byte	W12
	.byte			Gn3
	.byte	W24
	.byte			An3
	.byte	W12
	.byte			Fn3
	.byte	W11
	.byte	PEND
	.byte	W13
	.byte			Gn3
	.byte	W24
	.byte			An3
	.byte	W12
	.byte			As3
	.byte	W12
	.byte		N10	
	.byte	W12
	.byte			Dn4
	.byte	W12
	.byte		N10	
	.byte	W11
	.byte	PATT	
		.word	song034_12_5
	.byte	W13
	.byte		N10	, Gn3, v120
	.byte	W24
	.byte			An3
	.byte	W12
	.byte			As3
	.byte	W12
	.byte		N10	
	.byte	W12
	.byte			Dn4
	.byte	W23
	.byte	W01
	.byte			Cn4
	.byte	W12
	.byte			An3
	.byte	W12
	.byte			As3
	.byte	W12
	.byte			Gn3
	.byte	W12
	.byte			An3
	.byte	W12
	.byte			Fn3
	.byte	W12
	.byte			Gn3
	.byte	W12
	.byte			En3
	.byte	W11
	.byte	W01
	.byte			Fn3
	.byte	W12
	.byte			Gn3
	.byte	W12
	.byte			An3
	.byte	W12
	.byte			As3
	.byte	W12
	.byte			Cn4
	.byte	W12
	.byte			Dn4
	.byte	W12
	.byte			Ds4
	.byte	W12
	.byte			En4
	.byte	W11
	.byte	W01
	.byte			Fn4
	.byte	W92
	.byte	W03
	.byte	W96
	.byte	W96
	.byte	W96
	.byte	W96
	.byte	W96
	.byte	W96
	.byte	W96
	.byte	W96
	.byte	W96
	.byte	W96
	.byte	W96
	.byte	W96
	.byte	W96
	.byte	W96
	.byte	W96
	.byte	W96
	.byte	W96
	.byte	W96
	.byte	W96
	.byte	W96
	.byte	W96
	.byte	W96
	.byte	W96
	.byte	W96
	.byte	W96
	.byte	W96
	.byte	W96
	.byte	W96
	.byte	W96
	.byte	W96
	.byte	W96
	.byte	W96
	.byte	W96
	.byte	W96
	.byte	W96
	.byte	W96
	.byte	W96
	.byte	W96
	.byte	GOTO	
		.word	song034_12_6
	.byte	FINE

	@********************** Track  13 **********************@

	.global song034_13
song034_13:	@ 0x0827F6E3
	.byte	KEYSH	, 0
song034_13_1:
	.byte	VOICE	, 24
	.byte	VOL	, v025
	.byte	TUNE	, c_v-10
	.byte	PAN	, c_v+21
	.byte	W96
	.byte	PEND
	.byte	W96
	.byte	W96
	.byte	W96
	.byte	W96
	.byte	W96
	.byte	W96
	.byte	W96
song034_13_3:
	.byte	PATT	
		.word	song034_13_1
	.byte	W96
	.byte	W96
	.byte	W96
	.byte	W96
	.byte	W96
	.byte	W96
	.byte	W96
	.byte	W96
	.byte	W96
	.byte	W96
	.byte	W96
	.byte	W96
	.byte	W96
	.byte	W96
	.byte	W96
	.byte	W01
	.byte		N04	, An3, v100
	.byte	W12
	.byte			As3
	.byte	W24
	.byte			Cn4
	.byte	W24
	.byte			Cs4
	.byte	W12
	.byte			Dn4
	.byte	W12
	.byte			An4
	.byte	W11
	.byte	W60
	.byte	W01
	.byte			Gn4
	.byte	W12
	.byte			An4
	.byte	W12
	.byte			As4
	.byte	W11
	.byte	W96
	.byte	W60
	.byte	W01
	.byte			Dn5
	.byte	W32
	.byte	W03
song034_13_2:
	.byte	W01
	.byte		N04	, Cn5, v100
	.byte	W12
	.byte			An4
	.byte	W24
	.byte			As4
	.byte	W12
	.byte			Gn4
	.byte	W24
	.byte			An4
	.byte	W12
	.byte			Fn4
	.byte	W11
	.byte	PEND
	.byte	W13
	.byte			Gn4
	.byte	W24
	.byte			An4
	.byte	W12
	.byte			As4
	.byte	W12
	.byte		N04	
	.byte	W12
	.byte			Dn5
	.byte	W12
	.byte		N04	
	.byte	W11
	.byte	PATT	
		.word	song034_13_2
	.byte	W13
	.byte		N04	, Gn4, v100
	.byte	W24
	.byte			An4
	.byte	W12
	.byte			As4
	.byte	W12
	.byte		N04	
	.byte	W12
	.byte			Dn5
	.byte	W23
	.byte	W01
	.byte			En5
	.byte	W12
	.byte			Cn5
	.byte	W12
	.byte			Dn5
	.byte	W12
	.byte			As4
	.byte	W12
	.byte			Cn5
	.byte	W12
	.byte			An4
	.byte	W12
	.byte			As4
	.byte	W12
	.byte			Gn4
	.byte	W11
	.byte	W01
	.byte			An4
	.byte	W12
	.byte			As4
	.byte	W12
	.byte			Cn5
	.byte	W12
	.byte			Dn5
	.byte	W12
	.byte			En5
	.byte	W12
	.byte			Fn5
	.byte	W12
	.byte			Gn5
	.byte	W12
	.byte			Gs5
	.byte	W11
	.byte	W01
	.byte			An5
	.byte	W92
	.byte	W03
	.byte	W96
	.byte	W96
	.byte	W96
	.byte	W96
	.byte	W96
	.byte	W96
	.byte	W96
	.byte	W96
	.byte	W96
	.byte	W96
	.byte	W96
	.byte	W96
	.byte	W96
	.byte	W96
	.byte	W96
	.byte	W96
	.byte	W96
	.byte	W96
	.byte	W96
	.byte	W96
	.byte	W96
	.byte	W96
	.byte	W96
	.byte	W96
	.byte	W96
	.byte	W96
	.byte	W96
	.byte	W96
	.byte	W96
	.byte	W96
	.byte	W96
	.byte	W96
	.byte	W96
	.byte	W96
	.byte	W96
	.byte	W96
	.byte	W96
	.byte	W96
	.byte	GOTO	
		.word	song034_13_3
	.byte	FINE

	.align 2
	.global song034
song034:	@ 0x0827F7A8
	.byte	13		@ trackCount
	.byte	0		@ blockCount
	.byte	20		@ priority
	.byte	128		@ reverb

	.word	voicegroup017		@ voicegroup/tone

	.word	song034_1		@ track
	.word	song034_2		@ track
	.word	song034_3		@ track
	.word	song034_4		@ track
	.word	song034_5		@ track
	.word	song034_6		@ track
	.word	song034_7		@ track
	.word	song034_8		@ track
	.word	song034_9		@ track
	.word	song034_10		@ track
	.word	song034_11		@ track
	.word	song034_12		@ track
	.word	song034_13		@ track
