	.include "MPlayDef.s"

	.section .rodata

	@********************** Track  1 **********************@

	.align 2
	.global song064_1
song064_1:	@ 0x0829EBA8
	.byte	KEYSH	, 0
	.byte	TEMPO	, 160
	.byte	VOICE	, 127
	.byte	VOL	, v098
	.byte	PAN	, c_v
	.byte	W24
	.byte	TEMPO	, 35
	.byte		N11	, Gn7, v108
	.byte	W92
	.byte		N03	
	.byte	W04
	.byte		N11	
	.byte	W96
	.byte		N11	
	.byte	W11
	.byte		N11	
	.byte	W84
	.byte	W01
	.byte		N11	
	.byte	W60
	.byte		N11	
	.byte	W12
	.byte		N07	, Ds2
	.byte	W24
song064_1_1:
	.byte		N11	, Gn7, v108
	.byte	W12
	.byte		N11	
	.byte	W12
	.byte		N06	, Ds2
	.byte	W07
	.byte		N04	, En2
	.byte	W05
	.byte		N06	, Fn2
	.byte	W07
	.byte		N03	, Fs2
	.byte	W05
	.byte		N05	, Gn7
	.byte	W07
	.byte		N04	, Gs2
	.byte	W05
	.byte		N05	, As2
	.byte	W07
	.byte		N04	, Bn2
	.byte	W05
	.byte		N06	, Ds2
	.byte	W07
	.byte		N04	, En2
	.byte	W05
	.byte		N06	, Fn2
	.byte	W07
	.byte		N03	, Gn7
	.byte	W05
	.byte	PEND
song064_1_2:
	.byte		N11	, Gn7, v108
	.byte	W12
	.byte		N11	
	.byte	W12
	.byte		N06	, Ds2
	.byte	W07
	.byte		N04	, En2
	.byte	W05
	.byte		N06	, Fn2
	.byte	W07
	.byte		N04	, Fs2
	.byte	W05
	.byte		N05	, Gn7
	.byte	W07
	.byte		N04	, An2
	.byte	W05
	.byte		N05	, As2
	.byte	W07
	.byte		N04	, Bn2
	.byte	W05
	.byte		N06	, Ds2
	.byte	W07
	.byte		N04	, En2
	.byte	W05
	.byte		N07	, Fn2
	.byte	W07
	.byte		N03	, Gn7
	.byte	W05
	.byte	PEND
	.byte	PATT	
		.word	song064_1_1
song064_1_3:
	.byte		N11	, Gn7, v108
	.byte	W12
	.byte		N11	
	.byte	W12
	.byte		N06	, Ds2
	.byte	W07
	.byte		N04	, En2
	.byte	W05
	.byte		N06	, Fn2
	.byte	W07
	.byte		N03	, Fs2
	.byte	W05
	.byte		N06	, Gn7
	.byte	W07
	.byte		N04	, An2
	.byte	W05
	.byte		N05	, As2
	.byte	W07
	.byte		N04	, Bn2
	.byte	W05
	.byte		N06	, Ds2
	.byte	W07
	.byte		N04	, En2
	.byte	W05
	.byte		N07	, Fn2
	.byte	W07
	.byte		N03	, Gn7
	.byte	W05
	.byte	PEND
	.byte	PATT	
		.word	song064_1_1
	.byte	PATT	
		.word	song064_1_2
	.byte	PATT	
		.word	song064_1_1
	.byte	PATT	
		.word	song064_1_3
	.byte	PATT	
		.word	song064_1_1
	.byte	PATT	
		.word	song064_1_2
	.byte	PATT	
		.word	song064_1_1
	.byte	PATT	
		.word	song064_1_3
	.byte	PATT	
		.word	song064_1_1
	.byte	PATT	
		.word	song064_1_2
	.byte	PATT	
		.word	song064_1_1
song064_1_4:
	.byte		N11	, Gn7, v108
	.byte	W12
	.byte		N11	
	.byte	W12
	.byte		N06	, Ds2
	.byte	W07
	.byte		N04	, En2
	.byte	W05
	.byte		N06	, Fn2
	.byte	W07
	.byte		N03	, Fs2
	.byte	W05
	.byte		N06	, Gn7
	.byte	W48
	.byte	PEND
song064_1_5:
	.byte	W56
	.byte	W03
	.byte		N11	, Gn7, v108
	.byte	W12
	.byte		N07	, Ds2
	.byte	W24
	.byte	W01
	.byte	PEND
	.byte	PATT	
		.word	song064_1_1
	.byte	PATT	
		.word	song064_1_2
	.byte	PATT	
		.word	song064_1_1
	.byte	PATT	
		.word	song064_1_3
	.byte	PATT	
		.word	song064_1_1
	.byte	PATT	
		.word	song064_1_2
	.byte	PATT	
		.word	song064_1_1
	.byte	PATT	
		.word	song064_1_3
	.byte	PATT	
		.word	song064_1_1
	.byte	PATT	
		.word	song064_1_2
	.byte	PATT	
		.word	song064_1_1
	.byte	PATT	
		.word	song064_1_4
	.byte	PATT	
		.word	song064_1_5
	.byte	PATT	
		.word	song064_1_1
	.byte	PATT	
		.word	song064_1_2
	.byte	PATT	
		.word	song064_1_1
	.byte	PATT	
		.word	song064_1_3
	.byte	PATT	
		.word	song064_1_1
	.byte	PATT	
		.word	song064_1_2
	.byte	PATT	
		.word	song064_1_1
	.byte	PATT	
		.word	song064_1_3
	.byte	PATT	
		.word	song064_1_1
	.byte	PATT	
		.word	song064_1_2
	.byte	PATT	
		.word	song064_1_1
	.byte	PATT	
		.word	song064_1_3
	.byte	PATT	
		.word	song064_1_1
	.byte	PATT	
		.word	song064_1_2
	.byte	PATT	
		.word	song064_1_1
	.byte	PATT	
		.word	song064_1_3
	.byte	PATT	
		.word	song064_1_1
	.byte	PATT	
		.word	song064_1_2
	.byte	PATT	
		.word	song064_1_1
	.byte	PATT	
		.word	song064_1_4
	.byte	W56
	.byte	W03
	.byte		N11	, Gn7, v108
	.byte	W12
	.byte		N07	, Ds2
	.byte	W08
	.byte	FINE

	@********************** Track  2 **********************@

	.global song064_2
song064_2:	@ 0x0829ED56
	.byte	KEYSH	, 0
	.byte	VOICE	, 60
	.byte	VOL	, v059
	.byte	PAN	, c_v-19
	.byte	W24
song064_2_1:
	.byte		N04	, Ds7, v044
	.byte	W24
	.byte			Ds7, v016
	.byte	W12
	.byte			Ds7, v044
	.byte	W12
	.byte		N04	
	.byte	W12
	.byte		N04	
	.byte	W12
	.byte		N04	
	.byte	W24
	.byte	PEND
	.byte	PATT	
		.word	song064_2_1
	.byte	PATT	
		.word	song064_2_1
song064_2_2:
	.byte		N04	, Ds7, v044
	.byte	W24
	.byte			Ds7, v016
	.byte	W12
	.byte			Ds7, v044
	.byte	W12
	.byte		N04	
	.byte	W19
	.byte		N04	
	.byte	W05
	.byte		N04	
	.byte	W24
	.byte	PEND
	.byte	PATT	
		.word	song064_2_1
	.byte	PATT	
		.word	song064_2_1
	.byte	PATT	
		.word	song064_2_1
	.byte	PATT	
		.word	song064_2_2
	.byte	PATT	
		.word	song064_2_1
	.byte	PATT	
		.word	song064_2_1
	.byte	PATT	
		.word	song064_2_1
	.byte	PATT	
		.word	song064_2_2
	.byte	PATT	
		.word	song064_2_1
	.byte	PATT	
		.word	song064_2_1
	.byte	PATT	
		.word	song064_2_1
	.byte	PATT	
		.word	song064_2_1
	.byte	PATT	
		.word	song064_2_1
	.byte	PATT	
		.word	song064_2_1
	.byte	PATT	
		.word	song064_2_1
song064_2_3:
	.byte		N04	, Ds7, v044
	.byte	W24
	.byte			Ds7, v016
	.byte	W12
	.byte			Ds7, v044
	.byte	W08
	.byte		N03	
	.byte	W52
	.byte	PEND
	.byte	W96
	.byte	PATT	
		.word	song064_2_1
	.byte	PATT	
		.word	song064_2_1
	.byte	PATT	
		.word	song064_2_1
	.byte	PATT	
		.word	song064_2_2
	.byte	PATT	
		.word	song064_2_1
	.byte	PATT	
		.word	song064_2_1
	.byte	PATT	
		.word	song064_2_1
	.byte	PATT	
		.word	song064_2_1
	.byte	PATT	
		.word	song064_2_1
	.byte	PATT	
		.word	song064_2_1
	.byte	PATT	
		.word	song064_2_1
	.byte	PATT	
		.word	song064_2_3
	.byte	W96
	.byte	PATT	
		.word	song064_2_1
	.byte	PATT	
		.word	song064_2_1
	.byte	PATT	
		.word	song064_2_1
	.byte	PATT	
		.word	song064_2_2
	.byte	PATT	
		.word	song064_2_1
	.byte	PATT	
		.word	song064_2_1
	.byte	PATT	
		.word	song064_2_1
	.byte	PATT	
		.word	song064_2_2
	.byte	PATT	
		.word	song064_2_1
	.byte	PATT	
		.word	song064_2_1
	.byte	PATT	
		.word	song064_2_1
	.byte	PATT	
		.word	song064_2_2
	.byte	PATT	
		.word	song064_2_1
	.byte	PATT	
		.word	song064_2_1
	.byte	PATT	
		.word	song064_2_1
	.byte	PATT	
		.word	song064_2_1
	.byte	PATT	
		.word	song064_2_1
	.byte	PATT	
		.word	song064_2_1
	.byte	PATT	
		.word	song064_2_1
	.byte		N04	, Ds7, v044
	.byte	W24
	.byte			Ds7, v016
	.byte	W12
	.byte			Ds7, v044
	.byte	W08
	.byte		N03	
	.byte	W03
	.byte	FINE

	@********************** Track  3 **********************@

	.global song064_3
song064_3:	@ 0x0829EE8D
	.byte	KEYSH	, 0
	.byte	VOICE	, 62
	.byte	VOL	, v082
	.byte	PAN	, c_v-19
	.byte	W24
song064_3_1:
	.byte	W12
	.byte		N08	, Fs7, v060
	.byte	W72
	.byte			Gn7
	.byte	W12
	.byte	PEND
	.byte	PATT	
		.word	song064_3_1
	.byte	PATT	
		.word	song064_3_1
song064_3_2:
	.byte	W12
	.byte		N08	, Fs7, v060
	.byte	W42
	.byte	W01
	.byte			Gn7
	.byte	W28
	.byte	W01
	.byte		N08	
	.byte	W12
	.byte	PEND
	.byte	PATT	
		.word	song064_3_1
	.byte	PATT	
		.word	song064_3_1
	.byte	PATT	
		.word	song064_3_1
	.byte	PATT	
		.word	song064_3_2
	.byte	PATT	
		.word	song064_3_1
	.byte	PATT	
		.word	song064_3_1
	.byte	PATT	
		.word	song064_3_1
	.byte	PATT	
		.word	song064_3_2
	.byte	PATT	
		.word	song064_3_1
	.byte	PATT	
		.word	song064_3_1
	.byte	PATT	
		.word	song064_3_1
	.byte	PATT	
		.word	song064_3_1
	.byte	PATT	
		.word	song064_3_1
	.byte	PATT	
		.word	song064_3_1
	.byte	PATT	
		.word	song064_3_1
song064_3_3:
	.byte	W12
	.byte		N08	, Fs7, v060
	.byte	W36
	.byte			Gn7, v032
	.byte	W48
	.byte	PEND
	.byte	W96
	.byte	PATT	
		.word	song064_3_1
	.byte	PATT	
		.word	song064_3_1
	.byte	PATT	
		.word	song064_3_1
	.byte	PATT	
		.word	song064_3_2
	.byte	PATT	
		.word	song064_3_1
	.byte	PATT	
		.word	song064_3_1
	.byte	PATT	
		.word	song064_3_1
	.byte	PATT	
		.word	song064_3_1
	.byte	PATT	
		.word	song064_3_1
	.byte	PATT	
		.word	song064_3_1
	.byte	PATT	
		.word	song064_3_1
	.byte	PATT	
		.word	song064_3_3
	.byte	W96
	.byte	PATT	
		.word	song064_3_1
	.byte	PATT	
		.word	song064_3_1
	.byte	PATT	
		.word	song064_3_1
	.byte	PATT	
		.word	song064_3_2
	.byte	PATT	
		.word	song064_3_1
	.byte	PATT	
		.word	song064_3_1
	.byte	PATT	
		.word	song064_3_1
	.byte	PATT	
		.word	song064_3_2
	.byte	PATT	
		.word	song064_3_1
	.byte	PATT	
		.word	song064_3_1
	.byte	PATT	
		.word	song064_3_1
	.byte	PATT	
		.word	song064_3_2
	.byte	PATT	
		.word	song064_3_1
	.byte	PATT	
		.word	song064_3_1
	.byte	PATT	
		.word	song064_3_1
	.byte	PATT	
		.word	song064_3_1
	.byte	PATT	
		.word	song064_3_1
	.byte	PATT	
		.word	song064_3_1
	.byte	PATT	
		.word	song064_3_1
	.byte	W12
	.byte		N08	, Fs7, v060
	.byte	W36
	.byte			Gn7, v032
	.byte	W08
	.byte	FINE

	@********************** Track  4 **********************@

	.global song064_4
song064_4:	@ 0x0829EFAE
	.byte	KEYSH	, 0
	.byte	VOICE	, 46
	.byte	VOL	, v090
	.byte	PAN	, c_v-6
	.byte	W24
	.byte	W96
	.byte	W96
	.byte	W96
	.byte	W96
song064_4_1:
	.byte		N44	, Bn1, v112
	.byte	W48
	.byte		N32	, Gs1
	.byte	W48
	.byte	PEND
song064_4_2:
	.byte		N42	, Cs2, v112
	.byte	W48
	.byte		N36	, Gn1
	.byte	W48
	.byte	PEND
song064_4_3:
	.byte		N40	, Cn2, v112
	.byte	W48
	.byte		N42	, Fn1
	.byte	W48
	.byte	PEND
song064_4_4:
	.byte		N48	, En1, v112
	.byte	W48
	.byte		N44	, Fs1
	.byte	W48
	.byte	PEND
	.byte	PATT	
		.word	song064_4_1
	.byte	PATT	
		.word	song064_4_2
	.byte	PATT	
		.word	song064_4_3
	.byte	PATT	
		.word	song064_4_4
song064_4_5:
	.byte		N09	, En2, v112
	.byte	W19
	.byte		N24	, En1
	.byte	W28
	.byte	W01
	.byte		N09	, Ds2
	.byte	W19
	.byte		N24	, Ds1
	.byte	W28
	.byte	W01
	.byte	PEND
song064_4_7:
	.byte		N09	, Cs2, v112
	.byte	W19
	.byte		N28	, Cs1
	.byte	W28
	.byte	W01
	.byte		N09	, Ds2
	.byte	W19
	.byte		N28	, Ds1
	.byte	W28
	.byte	W01
	.byte	PEND
song064_4_8:
	.byte		N09	, En2, v112
	.byte	W19
	.byte		N28	, En1
	.byte	W28
	.byte	W01
	.byte		N09	, Ds2
	.byte	W19
	.byte		N28	, Ds1
	.byte	W28
	.byte	W01
	.byte	PEND
song064_4_9:
	.byte		N09	, Cs2, v112
	.byte	W19
	.byte		N23	, Cs1
	.byte	W28
	.byte	W01
	.byte		N09	, Fs2
	.byte	W24
	.byte		N23	, Fs1
	.byte	W24
	.byte	PEND
	.byte	PATT	
		.word	song064_4_5
song064_4_10:
	.byte		N09	, Cs2, v112
	.byte	W19
	.byte		N24	, Cs1
	.byte	W28
	.byte	W01
	.byte		N09	, Ds2
	.byte	W19
	.byte		N24	, Ds1
	.byte	W28
	.byte	W01
	.byte	PEND
	.byte	PATT	
		.word	song064_4_5
song064_4_11:
	.byte		N09	, Cs2, v112
	.byte	W19
	.byte		N24	, Cs1
	.byte	W28
	.byte	W01
	.byte		N48	, En1
	.byte	W48
	.byte	PEND
	.byte		N56	, An1
	.byte	W96
	.byte	VOICE	, 42
	.byte		N44	, Ds1, v080
	.byte	W48
	.byte			Dn1
	.byte	W48
	.byte			Cs1
	.byte	W48
	.byte			Gn1
	.byte	W48
	.byte			Cn1
	.byte	W48
	.byte			Fn1
	.byte	W48
	.byte			En1
	.byte	W48
	.byte			Fs1
	.byte	W48
song064_4_6:
	.byte		N09	, En2, v092
	.byte	W19
	.byte		N24	, En1
	.byte	W28
	.byte	W01
	.byte		N09	, Ds2
	.byte	W19
	.byte		N24	, Ds1
	.byte	W28
	.byte	W01
	.byte	PEND
song064_4_12:
	.byte		N09	, Cs2, v092
	.byte	W19
	.byte		N28	, Cs1
	.byte	W28
	.byte	W01
	.byte		N09	, Ds2
	.byte	W19
	.byte		N28	, Ds1
	.byte	W28
	.byte	W01
	.byte	PEND
song064_4_13:
	.byte		N09	, En2, v092
	.byte	W19
	.byte		N28	, En1
	.byte	W28
	.byte	W01
	.byte		N09	, Ds2
	.byte	W19
	.byte		N28	, Ds1
	.byte	W28
	.byte	W01
	.byte	PEND
song064_4_14:
	.byte		N09	, Cs2, v092
	.byte	W19
	.byte		N23	, Cs1
	.byte	W28
	.byte	W01
	.byte		N09	, Fs2
	.byte	W24
	.byte		N23	, Fs1
	.byte	W24
	.byte	PEND
	.byte	PATT	
		.word	song064_4_6
song064_4_15:
	.byte		N09	, Cs2, v092
	.byte	W19
	.byte		N24	, Cs1
	.byte	W28
	.byte	W01
	.byte		N09	, Ds2
	.byte	W19
	.byte		N24	, Ds1
	.byte	W28
	.byte	W01
	.byte	PEND
	.byte	PATT	
		.word	song064_4_6
	.byte		N09	, Cs2, v092
	.byte	W19
	.byte		N24	, Cs1
	.byte	W28
	.byte	W01
	.byte		TIE	, En1
	.byte	W04
	.byte	VOL	, v090
	.byte	W03
	.byte		v089
	.byte	W02
	.byte		v088
	.byte	W01
	.byte		v088
	.byte	W01
	.byte		v086
	.byte	W01
	.byte		v085
	.byte	W01
	.byte		v085
	.byte	W01
	.byte		v084
	.byte	W01
	.byte		v081
	.byte	W01
	.byte		v081
	.byte	W02
	.byte		v080
	.byte	W01
	.byte		v079
	.byte	W01
	.byte		v077
	.byte	W01
	.byte		v077
	.byte	W01
	.byte		v075
	.byte	W01
	.byte		v074
	.byte	W01
	.byte		v074
	.byte	W01
	.byte		v072
	.byte	W01
	.byte		v071
	.byte	W01
	.byte		v069
	.byte	W01
	.byte		v068
	.byte	W01
	.byte		v066
	.byte	W01
	.byte		v065
	.byte	W01
	.byte		v064
	.byte	W01
	.byte		v062
	.byte	W01
	.byte		v062
	.byte	W01
	.byte		v061
	.byte	W01
	.byte		v060
	.byte	W01
	.byte		v058
	.byte	W01
	.byte		v057
	.byte	W01
	.byte		v056
	.byte	W02
	.byte		v055
	.byte	W02
	.byte		v054
	.byte	W01
	.byte		v053
	.byte	W01
	.byte		v051
	.byte	W01
	.byte		v050
	.byte	W02
	.byte		v049
	.byte	W01
	.byte		v048
	.byte	W02
	.byte		v048
	.byte	W01
	.byte		v045
	.byte	W02
	.byte		v044
	.byte	W02
	.byte		v044
	.byte	W01
	.byte		v043
	.byte	W02
	.byte		v040
	.byte	W01
	.byte		v040
	.byte	W01
	.byte		v039
	.byte	W02
	.byte		v038
	.byte	W01
	.byte		v037
	.byte	W01
	.byte		v037
	.byte	W02
	.byte		v036
	.byte	W01
	.byte		v034
	.byte	W02
	.byte		v033
	.byte	W01
	.byte		v033
	.byte	W01
	.byte		v032
	.byte	W01
	.byte		v031
	.byte	W01
	.byte		v030
	.byte	W03
	.byte		v029
	.byte	W02
	.byte		v028
	.byte	W01
	.byte		v027
	.byte	W02
	.byte		v026
	.byte	W03
	.byte		v025
	.byte	W03
	.byte		v025
	.byte	W02
	.byte		v024
	.byte	W06
	.byte		v023
	.byte	W02
	.byte		EOT	
	.byte	W44
	.byte	W01
	.byte	VOL	, v090
	.byte	W02
	.byte		N44	, Bn1
	.byte	W48
	.byte			Gs1
	.byte	W48
	.byte			Cs2
	.byte	W48
	.byte			Gn1
	.byte	W48
	.byte			Cn2
	.byte	W48
	.byte			Fn1
	.byte	W48
	.byte			En1
	.byte	W48
	.byte			Fs1
	.byte	W48
	.byte	VOICE	, 46
	.byte		N44	, Bn1, v112
	.byte	W48
	.byte		N32	, Gs1
	.byte	W48
	.byte	PATT	
		.word	song064_4_2
	.byte	PATT	
		.word	song064_4_3
	.byte	PATT	
		.word	song064_4_4
	.byte	PATT	
		.word	song064_4_1
	.byte	PATT	
		.word	song064_4_2
	.byte	PATT	
		.word	song064_4_3
	.byte	PATT	
		.word	song064_4_4
	.byte	PATT	
		.word	song064_4_5
	.byte	PATT	
		.word	song064_4_7
	.byte	PATT	
		.word	song064_4_8
	.byte	PATT	
		.word	song064_4_9
	.byte	PATT	
		.word	song064_4_5
	.byte	PATT	
		.word	song064_4_10
	.byte	PATT	
		.word	song064_4_5
	.byte	PATT	
		.word	song064_4_11
	.byte		N56	, An1, v112
	.byte	W96
	.byte	PATT	
		.word	song064_4_1
	.byte	PATT	
		.word	song064_4_2
	.byte	PATT	
		.word	song064_4_3
	.byte	PATT	
		.word	song064_4_4
	.byte	PATT	
		.word	song064_4_6
	.byte	PATT	
		.word	song064_4_12
	.byte	PATT	
		.word	song064_4_13
	.byte	PATT	
		.word	song064_4_14
	.byte	PATT	
		.word	song064_4_6
	.byte	PATT	
		.word	song064_4_15
	.byte	PATT	
		.word	song064_4_6
	.byte		N09	, Cs2, v092
	.byte	W19
	.byte		N24	, Cs1
	.byte	W28
	.byte	W01
	.byte		N48	, En1
	.byte	W48
	.byte		N56	, An1
	.byte	W56
	.byte	W02
	.byte	FINE

	@********************** Track  5 **********************@

	.global song064_5
song064_5:	@ 0x0829F206
	.byte	KEYSH	, 0
	.byte	VOICE	, 82
	.byte	VOL	, v096
	.byte	PAN	, c_v
	.byte	W24
song064_5_1:
	.byte		N30	, Fs3, v112
	.byte	W30
	.byte	W01
	.byte		N08	, Ds3
	.byte	W09
	.byte		N07	, En3
	.byte	W08
	.byte		N08	, Fs3
	.byte	W09
	.byte		N09	, Gs3
	.byte	W10
	.byte		N11	, As3
	.byte	W12
	.byte		N16	, Bn3
	.byte	W17
	.byte	PEND
song064_5_2:
	.byte		N23	, Bn3, v112
	.byte	W24
	.byte			Gs3
	.byte	W24
	.byte		N17	, Gn3
	.byte	W18
	.byte		N28	, En3
	.byte	W30
	.byte	PEND
song064_5_3:
	.byte		N28	, Ds3, v112
	.byte	W30
	.byte	W01
	.byte		N08	
	.byte	W09
	.byte		N07	, Fs3
	.byte	W08
	.byte		N08	, As3
	.byte	W09
	.byte			Cs4
	.byte	W09
	.byte		N11	, Bn3
	.byte	W12
	.byte		N16	, Gs3
	.byte	W18
	.byte	PEND
song064_5_4:
	.byte		N44	, Ds4, v112
	.byte	W48
	.byte		N42	, Dn4
	.byte	W48
	.byte	PEND
	.byte	PATT	
		.word	song064_5_1
	.byte	PATT	
		.word	song064_5_2
	.byte	PATT	
		.word	song064_5_3
	.byte	PATT	
		.word	song064_5_4
	.byte	PATT	
		.word	song064_5_1
	.byte	PATT	
		.word	song064_5_2
	.byte	PATT	
		.word	song064_5_3
	.byte	PATT	
		.word	song064_5_4
song064_5_5:
	.byte		N08	, Ds4, v112
	.byte	W09
	.byte		N10	, Cs4
	.byte	W11
	.byte		N11	, Bn3
	.byte	W12
	.byte		N15	, Gs3
	.byte	W16
	.byte		N11	, Fs3
	.byte	W12
	.byte		N05	, Bn3
	.byte	W07
	.byte		N12	
	.byte	W13
	.byte		N11	, Cs4
	.byte	W16
	.byte	PEND
song064_5_6:
	.byte		N11	, Ds4, v112
	.byte	W12
	.byte		N07	, En4
	.byte	W08
	.byte		N11	, Fs4
	.byte	W12
	.byte		N14	, Bn3
	.byte	W16
	.byte		N42	
	.byte	W48
	.byte	PEND
song064_5_7:
	.byte		N08	, Ds4, v112
	.byte	W09
	.byte		N10	, Cs4
	.byte	W11
	.byte		N11	, Bn3
	.byte	W12
	.byte		N15	, Gs3
	.byte	W16
	.byte		N11	, Fs3
	.byte	W12
	.byte		N05	, Bn3
	.byte	W07
	.byte		N11	
	.byte	W13
	.byte		N15	, Cs4
	.byte	W16
	.byte	PEND
song064_5_8:
	.byte		N11	, Ds4, v112
	.byte	W12
	.byte		N07	, En4
	.byte	W08
	.byte		N11	, Fs4
	.byte	W12
	.byte		N14	, Ds4
	.byte	W16
	.byte		N36	, Gs4
	.byte	W48
	.byte	PEND
song064_5_9:
	.byte		N07	, Ds4, v112
	.byte	W09
	.byte		N09	, Cs4
	.byte	W11
	.byte		N10	, Bn3
	.byte	W12
	.byte		N15	, Gs3
	.byte	W16
	.byte		N11	, Fs3
	.byte	W12
	.byte		N05	, Bn3
	.byte	W07
	.byte		N12	
	.byte	W13
	.byte		N11	, Cs4
	.byte	W16
	.byte	PEND
song064_5_10:
	.byte		N10	, Ds4, v112
	.byte	W12
	.byte		N07	, En4
	.byte	W08
	.byte		N11	, Fs4
	.byte	W12
	.byte		N14	, Bn3
	.byte	W16
	.byte		N42	
	.byte	W48
	.byte	PEND
song064_5_11:
	.byte		N08	, Ds4, v112
	.byte	W09
	.byte		N10	, Cs4
	.byte	W11
	.byte		N11	, Bn3
	.byte	W12
	.byte		N14	, Gs3
	.byte	W16
	.byte		N11	, Fs3
	.byte	W12
	.byte		N05	, Bn3
	.byte	W07
	.byte		N12	
	.byte	W13
	.byte		N11	, Cs4
	.byte	W16
	.byte	PEND
song064_5_12:
	.byte		N10	, Ds4, v112
	.byte	W12
	.byte		N07	, En4
	.byte	W08
	.byte		N10	, Fs4
	.byte	W12
	.byte		N15	, Bn3
	.byte	W16
	.byte		N44	, Cs4
	.byte	W48
	.byte	PEND
	.byte		N28	, An4, v080
	.byte	W30
	.byte		N32	, Gn4
	.byte	W66
	.byte	W96
	.byte	W96
	.byte	W96
	.byte	W96
	.byte	W96
	.byte	W96
	.byte	W96
	.byte	W96
	.byte	W96
	.byte	W96
	.byte	W96
	.byte	W96
	.byte	W96
	.byte	W96
	.byte	W96
	.byte	W96
	.byte	W96
	.byte		N30	, Fs3, v127
	.byte	W30
	.byte	W01
	.byte		N08	, Ds3
	.byte	W09
	.byte		N07	, En3
	.byte	W08
	.byte		N08	, Fs3
	.byte	W09
	.byte		N09	, Gs3
	.byte	W10
	.byte		N11	, As3
	.byte	W12
	.byte		N16	, Bn3
	.byte	W17
	.byte		N23	
	.byte	W24
	.byte			Gs3
	.byte	W24
	.byte		N17	, Gn3
	.byte	W18
	.byte		N28	, En3
	.byte	W30
	.byte			Ds3
	.byte	W30
	.byte	W01
	.byte		N08	
	.byte	W09
	.byte		N07	, Fs3
	.byte	W08
	.byte		N08	, As3
	.byte	W09
	.byte			Cs4
	.byte	W09
	.byte		N11	, Bn3
	.byte	W12
	.byte		N16	, Gs3
	.byte	W18
	.byte		N44	, Ds4
	.byte	W48
	.byte		N42	, Dn4
	.byte	W48
	.byte		N30	, Fs4, v120
	.byte	W30
	.byte	W01
	.byte		N08	, Ds4
	.byte	W09
	.byte		N07	, En4
	.byte	W08
	.byte		N08	, Fs4
	.byte	W09
	.byte		N09	, Gs4
	.byte	W10
	.byte		N11	, As4
	.byte	W12
	.byte		N16	, Bn4
	.byte	W17
	.byte		N23	
	.byte	W24
	.byte			Gs4
	.byte	W24
	.byte		N17	, Gn4
	.byte	W18
	.byte		N28	, En4
	.byte	W30
	.byte			Ds4
	.byte	W30
	.byte	W01
	.byte		N08	
	.byte	W09
	.byte		N07	, Fs4
	.byte	W08
	.byte		N08	, As4
	.byte	W09
	.byte			Cs5
	.byte	W09
	.byte		N11	, Bn4
	.byte	W12
	.byte		N16	, Gs4
	.byte	W18
	.byte		N44	, Ds5
	.byte	W48
	.byte		N42	, Dn5
	.byte	W48
	.byte		N08	, Ds5
	.byte	W09
	.byte		N10	, Cs5
	.byte	W11
	.byte		N11	, Bn4
	.byte	W12
	.byte		N15	, Gs4
	.byte	W16
	.byte		N11	, Fs4
	.byte	W12
	.byte		N05	, Bn4
	.byte	W07
	.byte		N12	
	.byte	W13
	.byte		N11	, Cs5
	.byte	W16
	.byte			Ds5
	.byte	W12
	.byte		N07	, En5
	.byte	W08
	.byte		N11	, Fs5
	.byte	W12
	.byte		N14	, Bn4
	.byte	W16
	.byte		N42	
	.byte	W48
	.byte		N08	, Ds5
	.byte	W09
	.byte		N10	, Cs5
	.byte	W11
	.byte		N11	, Bn4
	.byte	W12
	.byte		N15	, Gs4
	.byte	W16
	.byte		N11	, Fs4
	.byte	W12
	.byte		N05	, Bn4
	.byte	W07
	.byte		N11	
	.byte	W13
	.byte		N15	, Cs5
	.byte	W16
	.byte		N11	, Ds5
	.byte	W12
	.byte		N07	, En5
	.byte	W08
	.byte		N11	, Fs5
	.byte	W12
	.byte		N14	, Ds5
	.byte	W16
	.byte		N36	, Gs5
	.byte	W48
	.byte		N07	, Ds5
	.byte	W09
	.byte		N09	, Cs5
	.byte	W11
	.byte		N10	, Bn4
	.byte	W12
	.byte		N15	, Gs4
	.byte	W16
	.byte		N11	, Fs4
	.byte	W12
	.byte		N05	, Bn4
	.byte	W07
	.byte		N12	
	.byte	W13
	.byte		N11	, Cs5
	.byte	W16
	.byte		N10	, Ds5
	.byte	W12
	.byte		N07	, En5
	.byte	W08
	.byte		N11	, Fs5
	.byte	W12
	.byte		N14	, Bn4
	.byte	W16
	.byte		N42	
	.byte	W48
	.byte		N08	, Ds5
	.byte	W09
	.byte		N10	, Cs5
	.byte	W11
	.byte		N11	, Bn4
	.byte	W12
	.byte		N14	, Gs4
	.byte	W16
	.byte		N11	, Fs4
	.byte	W12
	.byte		N05	, Bn4
	.byte	W07
	.byte		N12	
	.byte	W13
	.byte		N11	, Cs5
	.byte	W16
	.byte		N10	, Ds5
	.byte	W12
	.byte		N07	, En5
	.byte	W08
	.byte		N10	, Fs5
	.byte	W12
	.byte		N15	, Bn4
	.byte	W16
	.byte		N44	, Cs5
	.byte	W48
	.byte		N28	, An5, v092
	.byte	W30
	.byte		N32	, Gn5
	.byte	W66
	.byte	PATT	
		.word	song064_5_1
	.byte	PATT	
		.word	song064_5_2
	.byte	PATT	
		.word	song064_5_3
	.byte	PATT	
		.word	song064_5_4
	.byte	PATT	
		.word	song064_5_5
	.byte	PATT	
		.word	song064_5_6
	.byte	PATT	
		.word	song064_5_7
	.byte	PATT	
		.word	song064_5_8
	.byte	PATT	
		.word	song064_5_9
	.byte	PATT	
		.word	song064_5_10
	.byte	PATT	
		.word	song064_5_11
	.byte	PATT	
		.word	song064_5_12
	.byte		N28	, An4, v080
	.byte	W30
	.byte		N32	, Gn4
	.byte	W32
	.byte	FINE

	@********************** Track  6 **********************@

	.global song064_6
song064_6:	@ 0x0829F48C
	.byte	KEYSH	, 0
	.byte	VOICE	, 82
	.byte	VOL	, v086
	.byte	PAN	, c_v+36
	.byte	W24
	.byte		N44	, As2, v060
	.byte		N44	, Cs3, v072
	.byte	W48
	.byte			An2, v068
	.byte		N44	, Cn3, v080
	.byte	W48
	.byte			Gs2
	.byte		N44	, Bn2, v068
	.byte	W48
	.byte			En2, v088
	.byte		N44	, As2, v072
	.byte	W48
	.byte			Fs2, v080
	.byte		N44	, As2
	.byte	W48
	.byte			Bn2, v072
	.byte		N44	, Dn3, v080
	.byte	W48
song064_6_1:
	.byte		N44	, Bn2, v100
	.byte		N44	, Ds3, v092
	.byte	W48
	.byte			As2, v076
	.byte		N44	, Dn3, v088
	.byte	W48
	.byte	PEND
	.byte			As2, v060
	.byte		N44	, Cs3, v072
	.byte	W48
	.byte			Fs2, v076
	.byte		N44	, Cn3, v080
	.byte	W48
	.byte			Gs2
	.byte		N44	, Bn2, v068
	.byte	W48
	.byte			En2, v092
	.byte		N44	, As2, v072
	.byte	W48
	.byte			Fs2, v080
	.byte		N44	, As2, v068
	.byte	W48
	.byte			Bn2, v076
	.byte		N44	, Dn3, v096
	.byte	W48
	.byte	PATT	
		.word	song064_6_1
song064_6_3:
	.byte		N44	, As2, v060
	.byte		N44	, Cs3, v072
	.byte	W48
	.byte			An2, v076
	.byte		N44	, Cn3, v056
	.byte	W48
	.byte	PEND
song064_6_4:
	.byte		N44	, Gs2, v080
	.byte		N44	, Bn2, v068
	.byte	W48
	.byte			Gn2, v088
	.byte		N44	, As2, v072
	.byte	W48
	.byte	PEND
song064_6_5:
	.byte		N44	, Fs2, v080
	.byte		N44	, As2, v068
	.byte	W48
	.byte			Bn2, v096
	.byte		N44	, Dn3
	.byte	W48
	.byte	PEND
song064_6_6:
	.byte		N44	, Bn2, v100
	.byte		N44	, Ds3, v092
	.byte	W48
	.byte			As2, v076
	.byte		N44	, Dn3, v068
	.byte	W48
	.byte	PEND
song064_6_2:
	.byte		N44	, Bn2, v076
	.byte		N44	, Ds3, v092
	.byte	W48
	.byte			As2, v096
	.byte		N44	, Cs3, v084
	.byte	W48
	.byte	PEND
song064_6_7:
	.byte		N44	, Gs2, v092
	.byte		N44	, Bn2, v088
	.byte	W48
	.byte			As2, v084
	.byte		N44	, Cs3, v096
	.byte	W48
	.byte	PEND
	.byte	PATT	
		.word	song064_6_2
song064_6_8:
	.byte		N44	, Gs2, v092
	.byte		N44	, Bn2, v088
	.byte	W48
	.byte			As2, v084
	.byte		N44	, Dn3, v096
	.byte	W48
	.byte	PEND
song064_6_9:
	.byte		N12	, Cs3, v096
	.byte	W01
	.byte		N44	, Bn2, v092
	.byte	W17
	.byte		N28	, Ds3, v084
	.byte	W30
	.byte		N12	, Cs3, v092
	.byte	W01
	.byte		N44	, As2, v076
	.byte	W17
	.byte		N28	, Ds3, v084
	.byte	W30
	.byte	PEND
song064_6_10:
	.byte		N44	, Gs2, v088
	.byte		N12	, Cs3
	.byte	W18
	.byte		N28	, Ds3
	.byte	W30
	.byte		N44	, As2
	.byte		N11	, Cs3
	.byte	W18
	.byte		N28	, Ds3
	.byte	W30
	.byte	PEND
song064_6_11:
	.byte		N10	, Cs3, v096
	.byte	W01
	.byte		N44	, Bn2, v092
	.byte	W17
	.byte		N28	, Ds3, v084
	.byte	W30
	.byte	W01
	.byte		N44	, As2, v076
	.byte		N11	, Cs3, v092
	.byte	W17
	.byte		N28	, Ds3, v084
	.byte	W30
	.byte	PEND
song064_6_12:
	.byte		N42	, Gs2, v088
	.byte		N11	, Cs3
	.byte	W18
	.byte		N28	, Ds3
	.byte	W30
	.byte		TIE	, Bn2
	.byte	W02
	.byte			Gn3, v084
	.byte	W44
	.byte	W02
	.byte	PEND
	.byte	W56
	.byte	W01
	.byte		EOT	, Bn2
	.byte	W02
	.byte			Gn3
	.byte	W36
	.byte	W01
	.byte	W96
	.byte	W96
	.byte	W96
	.byte	W96
	.byte	W96
	.byte	W96
	.byte	W96
	.byte	W96
	.byte	W96
	.byte	W96
	.byte	W96
	.byte	W96
	.byte	W96
	.byte	W96
	.byte	W96
	.byte	W96
	.byte	W96
	.byte	W96
	.byte	W96
	.byte	W96
	.byte	W96
	.byte	W96
	.byte	W96
	.byte	W96
	.byte	W96
	.byte	W96
	.byte	W96
	.byte	W96
	.byte	W96
	.byte	W96
	.byte	W96
	.byte	W96
	.byte	W96
	.byte	W96
	.byte	PATT	
		.word	song064_6_3
	.byte	PATT	
		.word	song064_6_4
	.byte	PATT	
		.word	song064_6_5
	.byte	PATT	
		.word	song064_6_6
	.byte	PATT	
		.word	song064_6_2
	.byte	PATT	
		.word	song064_6_7
	.byte	PATT	
		.word	song064_6_2
	.byte	PATT	
		.word	song064_6_8
	.byte	PATT	
		.word	song064_6_9
	.byte	PATT	
		.word	song064_6_10
	.byte	PATT	
		.word	song064_6_11
	.byte	PATT	
		.word	song064_6_12
	.byte	W56
	.byte	W01
	.byte		EOT	, Bn2
	.byte	W02
	.byte			Gn3
	.byte	FINE

	@********************** Track  7 **********************@

	.global song064_7
song064_7:	@ 0x0829F616
	.byte	KEYSH	, 0
	.byte	VOICE	, 82
	.byte	VOL	, v078
	.byte	PAN	, c_v-44
	.byte	W24
	.byte		N44	, Ds1, v092
	.byte		N44	, Fs2, v072
	.byte	W48
	.byte			Dn1, v092
	.byte		N44	, Dn2, v076
	.byte	W48
	.byte			Cs1, v092
	.byte		N44	, En2, v088
	.byte	W48
	.byte			Gn1, v092
	.byte		N44	, Cs2, v072
	.byte	W48
	.byte			Cn1, v084
	.byte		N44	, Ds2
	.byte	W48
	.byte			Fn1, v092
	.byte		N44	, Gs2, v088
	.byte	W48
song064_7_1:
	.byte		N44	, En1, v092
	.byte		N44	, Gs2, v088
	.byte	W48
	.byte			Fs1, v100
	.byte		N44	, En2, v080
	.byte	W48
	.byte	PEND
	.byte			Bn0, v092
	.byte		N44	, Fs2, v072
	.byte	W48
	.byte			Gs1, v092
	.byte		N44	, Ds2, v072
	.byte	W48
	.byte			Cs1, v092
	.byte		N44	, En2, v088
	.byte	W48
	.byte			Gn1, v092
	.byte		N44	, Cs2, v088
	.byte	W48
	.byte			Cn1, v084
	.byte		N44	, Ds2
	.byte	W48
	.byte			Fn1, v100
	.byte		N44	, Gs2, v080
	.byte	W48
	.byte	PATT	
		.word	song064_7_1
song064_7_4:
	.byte		N44	, Ds2, v064
	.byte		N44	, Fs2, v072
	.byte	W48
	.byte			Ds2, v060
	.byte		N44	, Fs2, v084
	.byte	W48
	.byte	PEND
song064_7_5:
	.byte		N44	, Cs2, v076
	.byte		N44	, En2, v088
	.byte	W48
	.byte			Cs2
	.byte		N44	, En2, v072
	.byte	W48
	.byte	PEND
song064_7_6:
	.byte		N44	, Cn2, v084
	.byte		N44	, Ds2
	.byte	W48
	.byte			Fn2, v100
	.byte		N44	, Gs2, v088
	.byte	W48
	.byte	PEND
song064_7_7:
	.byte		N44	, En1, v092
	.byte		N44	, En2
	.byte	W48
	.byte			Fs1, v088
	.byte		N44	, En2, v068
	.byte	W48
	.byte	PEND
song064_7_2:
	.byte		N44	, En1, v080
	.byte		N44	, Gs2, v096
	.byte	W48
	.byte			Ds1, v068
	.byte		N44	, Fs2, v088
	.byte	W48
	.byte	PEND
song064_7_8:
	.byte		N44	, Cs1, v092
	.byte		N44	, En2, v096
	.byte	W48
	.byte			Ds1, v112
	.byte		N44	, Fs2, v092
	.byte	W48
	.byte	PEND
	.byte	PATT	
		.word	song064_7_2
song064_7_9:
	.byte		N44	, Cs1, v092
	.byte		N44	, En2, v096
	.byte	W48
	.byte			Fs1, v112
	.byte		N44	, Gs2, v092
	.byte	W48
	.byte	PEND
song064_7_3:
	.byte		N44	, En1, v108
	.byte		N44	, Gs2, v088
	.byte	W48
	.byte			Ds1
	.byte		N44	, Fs2, v084
	.byte	W48
	.byte	PEND
song064_7_10:
	.byte		N44	, Cs1, v072
	.byte		N44	, En2, v092
	.byte	W48
	.byte			Ds1, v072
	.byte		N44	, Fs2, v092
	.byte	W48
	.byte	PEND
	.byte	PATT	
		.word	song064_7_3
song064_7_11:
	.byte		N44	, Cs1, v072
	.byte		N40	, En2, v092
	.byte	W42
	.byte		TIE	, En2, v088
	.byte	W02
	.byte			Gn2, v096
	.byte	W52
	.byte	PEND
	.byte	W54
	.byte		EOT	
	.byte	W01
	.byte		EOT	, En2
	.byte	W40
	.byte	W01
	.byte	W96
	.byte	W96
	.byte	W96
	.byte	W96
	.byte	W96
	.byte	W96
	.byte	W96
	.byte	W96
	.byte	W96
	.byte	W96
	.byte	W96
	.byte	W96
	.byte	W96
	.byte	W96
	.byte	W96
	.byte	W96
	.byte	W96
	.byte	W96
	.byte	W96
	.byte	W96
	.byte	W96
	.byte	W96
	.byte	W96
	.byte	W96
	.byte	W96
	.byte	W96
	.byte	W96
	.byte	W96
	.byte	W96
	.byte	W96
	.byte	W96
	.byte	W96
	.byte	W96
	.byte	W96
	.byte	PATT	
		.word	song064_7_4
	.byte	PATT	
		.word	song064_7_5
	.byte	PATT	
		.word	song064_7_6
	.byte	PATT	
		.word	song064_7_7
	.byte	PATT	
		.word	song064_7_2
	.byte	PATT	
		.word	song064_7_8
	.byte	PATT	
		.word	song064_7_2
	.byte	PATT	
		.word	song064_7_9
	.byte	PATT	
		.word	song064_7_3
	.byte	PATT	
		.word	song064_7_10
	.byte	PATT	
		.word	song064_7_3
	.byte	PATT	
		.word	song064_7_11
	.byte	W54
	.byte		EOT	, Gn2
	.byte	W01
	.byte			En2
	.byte	FINE

	@********************** Track  8 **********************@

	.global song064_8
song064_8:	@ 0x0829F777
	.byte	KEYSH	, 0
	.byte	VOICE	, 107
	.byte	VOL	, v094
	.byte	PAN	, c_v
	.byte	W24
	.byte	W96
	.byte	W96
	.byte	W96
	.byte	W96
	.byte	W96
	.byte	W96
	.byte	W96
	.byte	W96
	.byte	W96
	.byte	W96
	.byte	W96
	.byte	W96
	.byte	W96
	.byte	W96
	.byte	W96
	.byte	W96
	.byte	W96
	.byte	W96
	.byte	W96
	.byte	W96
	.byte	W96
	.byte		N30	, Fs3, v120
	.byte	W30
	.byte	W01
	.byte		N08	, Ds3
	.byte	W09
	.byte		N07	, En3
	.byte	W08
	.byte		N08	, Fs3
	.byte	W09
	.byte		N09	, Gs3
	.byte	W10
	.byte		N11	, As3
	.byte	W12
	.byte		N16	, Bn3
	.byte	W17
	.byte		N23	
	.byte	W24
	.byte			Gs3
	.byte	W24
	.byte		N17	, Gn3
	.byte	W18
	.byte		N28	, En3
	.byte	W30
	.byte			Ds3
	.byte	W30
	.byte	W01
	.byte		N08	
	.byte	W09
	.byte		N07	, Fs3
	.byte	W08
	.byte		N08	, As3
	.byte	W09
	.byte			Cs4
	.byte	W09
	.byte		N11	, Bn3
	.byte	W12
	.byte		N16	, Gs3
	.byte	W18
	.byte		N44	, Ds4
	.byte	W48
	.byte		N42	, Dn4
	.byte	W48
	.byte		N08	, Ds4
	.byte	W09
	.byte		N10	, Cs4
	.byte	W11
	.byte		N11	, Bn3
	.byte	W12
	.byte		N15	, Gs3
	.byte	W16
	.byte		N11	, Fs3
	.byte	W12
	.byte		N05	, Bn3
	.byte	W07
	.byte		N12	
	.byte	W13
	.byte		N11	, Cs4
	.byte	W16
	.byte			Ds4
	.byte	W12
	.byte		N07	, En4
	.byte	W08
	.byte		N11	, Fs4
	.byte	W12
	.byte		N14	, Bn3
	.byte	W16
	.byte		N42	
	.byte	W48
	.byte		N08	, Ds4
	.byte	W09
	.byte		N10	, Cs4
	.byte	W11
	.byte		N11	, Bn3
	.byte	W12
	.byte		N15	, Gs3
	.byte	W16
	.byte		N11	, Fs3
	.byte	W12
	.byte		N05	, Bn3
	.byte	W07
	.byte		N11	
	.byte	W13
	.byte		N15	, Cs4
	.byte	W16
	.byte		N11	, Ds4
	.byte	W12
	.byte		N07	, En4
	.byte	W08
	.byte		N11	, Fs4
	.byte	W12
	.byte		N14	, Ds4
	.byte	W16
	.byte		N36	, Gs4
	.byte	W48
	.byte		N07	, Ds4
	.byte	W09
	.byte		N09	, Cs4
	.byte	W11
	.byte		N10	, Bn3
	.byte	W12
	.byte		N15	, Gs3
	.byte	W16
	.byte		N11	, Fs3
	.byte	W12
	.byte		N05	, Bn3
	.byte	W07
	.byte		N12	
	.byte	W13
	.byte		N11	, Cs4
	.byte	W16
	.byte		N10	, Ds4
	.byte	W12
	.byte		N07	, En4
	.byte	W08
	.byte		N11	, Fs4
	.byte	W12
	.byte		N14	, Bn3
	.byte	W16
	.byte		N42	
	.byte	W48
	.byte		N08	, Ds4
	.byte	W09
	.byte		N10	, Cs4
	.byte	W11
	.byte		N11	, Bn3
	.byte	W12
	.byte		N14	, Gs3
	.byte	W16
	.byte		N11	, Fs3
	.byte	W12
	.byte		N05	, Bn3
	.byte	W07
	.byte		N12	
	.byte	W13
	.byte		N11	, Cs4
	.byte	W16
	.byte		N10	, Ds4
	.byte	W12
	.byte		N07	, En4
	.byte	W08
	.byte		N10	, Fs4
	.byte	W12
	.byte		N15	, Bn3
	.byte	W16
	.byte		N96	, Cs4
	.byte	W32
	.byte	W02
	.byte	VOL	, v078
	.byte	W01
	.byte		v075
	.byte	W05
	.byte		v074
	.byte	W02
	.byte		v074
	.byte	W03
	.byte		v071
	.byte	W02
	.byte		v070
	.byte	W01
	.byte	W02
	.byte		v067
	.byte	W05
	.byte		v064
	.byte	W03
	.byte		v062
	.byte	W02
	.byte		v062
	.byte	W04
	.byte		v059
	.byte	W03
	.byte		v058
	.byte	W02
	.byte		v055
	.byte	W02
	.byte		v055
	.byte	W02
	.byte		v054
	.byte	W03
	.byte		v051
	.byte	W03
	.byte		v051
	.byte	W03
	.byte		v049
	.byte	W01
	.byte		v048
	.byte	W02
	.byte		v047
	.byte	W02
	.byte		v045
	.byte	W01
	.byte		v044
	.byte	W03
	.byte		v042
	.byte	W02
	.byte		v040
	.byte	W04
	.byte		v038
	.byte	W01
	.byte		v037
	.byte	W03
	.byte		v035
	.byte	W02
	.byte		v031
	.byte	W01
	.byte		v029
	.byte	W36
	.byte	W03
	.byte		v094
	.byte	W01
	.byte		N30	, Fs3, v127
	.byte	W30
	.byte	W01
	.byte		N08	, Ds3
	.byte	W09
	.byte		N07	, En3
	.byte	W08
	.byte		N08	, Fs3
	.byte	W09
	.byte		N09	, Gs3
	.byte	W10
	.byte		N11	, As3
	.byte	W12
	.byte		N16	, Bn3
	.byte	W17
	.byte		N23	
	.byte	W24
	.byte			Gs3
	.byte	W24
	.byte		N17	, Gn3
	.byte	W18
	.byte		N28	, En3
	.byte	W30
	.byte			Ds3
	.byte	W30
	.byte	W01
	.byte		N08	
	.byte	W09
	.byte		N07	, Fs3
	.byte	W08
	.byte		N08	, As3
	.byte	W09
	.byte			Cs4
	.byte	W09
	.byte		N11	, Bn3
	.byte	W12
	.byte		N16	, Gs3
	.byte	W18
	.byte		N44	, Ds4
	.byte	W48
	.byte		N42	, Dn4
	.byte	W42
	.byte	FINE

	@********************** Track  9 **********************@

	.global song064_9
song064_9:	@ 0x0829F8DF
	.byte	KEYSH	, 0
	.byte	VOICE	, 108
	.byte	VOL	, v094
	.byte	PAN	, c_v+36
	.byte	W24
	.byte	W96
	.byte	W96
	.byte	W96
	.byte	W96
	.byte	W96
	.byte	W96
	.byte	W96
	.byte	W96
	.byte	W96
	.byte	W96
	.byte	W96
	.byte	W96
	.byte	W96
	.byte	W96
	.byte	W96
	.byte	W96
	.byte	W96
	.byte	W96
	.byte	W96
	.byte	W96
	.byte	W96
	.byte		N44	, As2, v100
	.byte		N44	, Cs3
	.byte	W48
	.byte			An2
	.byte		N44	, Cn3
	.byte	W48
	.byte			Gs2
	.byte		N44	, Bn2
	.byte	W48
	.byte			En2, v108
	.byte		N44	, As2, v100
	.byte	W48
	.byte			Fs2
	.byte		N44	, As2
	.byte	W48
	.byte			Bn2
	.byte		N44	, Dn3
	.byte	W48
	.byte			Bn2, v120
	.byte		N44	, Ds3, v112
	.byte	W48
	.byte			As2, v100
	.byte		N44	, Dn3, v108
	.byte	W48
song064_9_1:
	.byte		N44	, Bn2, v100
	.byte		N44	, Ds3, v112
	.byte	W48
	.byte			As2, v116
	.byte		N44	, Cs3, v104
	.byte	W48
	.byte	PEND
	.byte			Gs2, v112
	.byte		N44	, Bn2, v108
	.byte	W48
	.byte			As2, v104
	.byte		N44	, Cs3, v116
	.byte	W48
	.byte	PATT	
		.word	song064_9_1
	.byte		N44	, Gs2, v112
	.byte		N44	, Bn2, v108
	.byte	W48
	.byte			As2, v104
	.byte		N44	, Dn3, v116
	.byte	W48
	.byte		N12	, Cs3
	.byte	W01
	.byte		N44	, Bn2, v112
	.byte	W17
	.byte		N28	, Ds3, v104
	.byte	W30
	.byte		N12	, Cs3, v112
	.byte	W01
	.byte		N44	, As2, v100
	.byte	W17
	.byte		N28	, Ds3, v104
	.byte	W30
	.byte		N44	, Gs2, v108
	.byte		N12	, Cs3
	.byte	W18
	.byte		N28	, Ds3
	.byte	W30
	.byte		N44	, As2
	.byte		N11	, Cs3
	.byte	W18
	.byte		N28	, Ds3
	.byte	W30
	.byte		N10	, Cs3, v116
	.byte	W01
	.byte		N44	, Bn2, v112
	.byte	W17
	.byte		N28	, Ds3, v104
	.byte	W30
	.byte	W01
	.byte		N44	, As2, v100
	.byte		N11	, Cs3, v112
	.byte	W17
	.byte		N28	, Ds3, v104
	.byte	W30
	.byte		N42	, Gs2, v108
	.byte		N11	, Cs3
	.byte	W18
	.byte		N28	, Ds3
	.byte	W30
	.byte		N92	, Bn2
	.byte	W02
	.byte			Gn3, v104
	.byte	W32
	.byte	VOL	, v086
	.byte	W01
	.byte		v083
	.byte	W05
	.byte		v081
	.byte	W02
	.byte		v081
	.byte	W03
	.byte		v078
	.byte	W02
	.byte		v077
	.byte	W01
	.byte	W02
	.byte		v074
	.byte	W05
	.byte		v071
	.byte	W03
	.byte		v069
	.byte	W02
	.byte		v068
	.byte	W04
	.byte		v066
	.byte	W03
	.byte		v063
	.byte	W03
	.byte		v061
	.byte	W01
	.byte		v060
	.byte	W02
	.byte		v059
	.byte	W03
	.byte		v057
	.byte	W03
	.byte		v056
	.byte	W03
	.byte		v054
	.byte	W01
	.byte		v053
	.byte	W02
	.byte		v051
	.byte	W02
	.byte		v050
	.byte	W01
	.byte		v048
	.byte	W03
	.byte		v046
	.byte	W02
	.byte		v044
	.byte	W04
	.byte		v042
	.byte	W01
	.byte		v041
	.byte	W03
	.byte		v039
	.byte	W02
	.byte		v034
	.byte	W01
	.byte		v033
	.byte	W36
	.byte	W03
	.byte		v094
	.byte	W01
	.byte		N44	, As2, v080
	.byte		N44	, Cs3
	.byte	W48
	.byte			An2
	.byte		N44	, Cn3
	.byte	W48
	.byte			Gs2
	.byte		N44	, Bn2
	.byte	W48
	.byte			Gn2, v088
	.byte		N44	, As2, v080
	.byte	W48
	.byte			Fs2
	.byte		N44	, As2
	.byte	W48
	.byte			Bn2, v096
	.byte		N44	, Dn3
	.byte	W48
	.byte			Bn2, v100
	.byte		N44	, Ds3, v092
	.byte	W48
	.byte			As2, v080
	.byte		N44	, Dn3
	.byte	W48
	.byte			As2, v052
	.byte		N44	, Cs3, v060
	.byte	W48
	.byte			Fs2, v068
	.byte		N44	, Cn3, v072
	.byte	W48
	.byte			Gs2, v068
	.byte		N44	, Bn2, v056
	.byte	W48
	.byte			En2, v080
	.byte		N44	, As2, v060
	.byte	W48
	.byte			Fs2, v068
	.byte		N44	, As2, v056
	.byte	W48
	.byte			Bn2, v068
	.byte		N44	, Dn3, v088
	.byte	W48
	.byte			Bn2, v100
	.byte		N44	, Ds3, v092
	.byte	W48
	.byte			As2, v076
	.byte		N44	, Dn3, v088
	.byte	W48
	.byte			As2, v052
	.byte		N44	, Cs3, v060
	.byte	W48
	.byte			An2, v068
	.byte		N44	, Cn3, v044
	.byte	W48
	.byte			Gs2, v068
	.byte		N44	, Bn2, v056
	.byte	W48
	.byte			Gn2, v080
	.byte		N44	, As2, v060
	.byte	W48
	.byte			Fs2, v068
	.byte		N44	, As2, v056
	.byte	W48
	.byte			Bn2, v088
	.byte		N44	, Dn3
	.byte	W48
	.byte			Bn2
	.byte		N44	, Ds3, v080
	.byte	W48
	.byte			As2, v064
	.byte		N44	, Dn3, v060
	.byte	W48
	.byte			Bn2, v068
	.byte		N44	, Ds3, v084
	.byte	W48
	.byte			As2, v088
	.byte		N44	, Cs3, v072
	.byte	W48
	.byte			Gs2, v092
	.byte		N44	, Bn2, v088
	.byte	W48
	.byte			As2, v084
	.byte		N44	, Cs3, v096
	.byte	W48
	.byte			Bn2, v076
	.byte		N44	, Ds3, v092
	.byte	W48
	.byte			As2, v096
	.byte		N44	, Cs3, v084
	.byte	W48
	.byte			Gs2, v092
	.byte		N44	, Bn2, v088
	.byte	W48
	.byte			As2, v084
	.byte		N44	, Dn3, v096
	.byte	W48
	.byte		N12	, Cs3
	.byte	W01
	.byte		N44	, Bn2, v092
	.byte	W17
	.byte		N28	, Ds3, v084
	.byte	W30
	.byte		N12	, Cs3, v092
	.byte	W01
	.byte		N44	, As2, v076
	.byte	W17
	.byte		N28	, Ds3, v084
	.byte	W30
	.byte		N44	, Gs2, v088
	.byte		N12	, Cs3
	.byte	W18
	.byte		N28	, Ds3
	.byte	W30
	.byte		N44	, As2
	.byte		N11	, Cs3
	.byte	W18
	.byte		N28	, Ds3
	.byte	W30
	.byte		N10	, Cs3, v096
	.byte	W01
	.byte		N44	, Bn2, v092
	.byte	W17
	.byte		N28	, Ds3, v084
	.byte	W30
	.byte	W01
	.byte		N44	, As2, v076
	.byte		N11	, Cs3, v092
	.byte	W17
	.byte		N28	, Ds3, v084
	.byte	W30
	.byte		N42	, Gs2, v088
	.byte		N11	, Cs3
	.byte	W18
	.byte		N28	, Ds3
	.byte	W30
	.byte		TIE	, Bn2
	.byte	W02
	.byte			Gn3, v084
	.byte	W44
	.byte	W02
	.byte	W56
	.byte	W01
	.byte		EOT	, Bn2
	.byte	W02
	.byte			Gn3
	.byte	FINE

	@********************** Track  10 **********************@

	.global song064_10
song064_10:	@ 0x0829FAEC
	.byte	KEYSH	, 0
	.byte	VOICE	, 108
	.byte	VOL	, v086
	.byte	PAN	, c_v-44
	.byte	W24
	.byte	W96
	.byte	W96
	.byte	W96
	.byte	W96
	.byte	W96
	.byte	W96
	.byte	W96
	.byte	W96
	.byte	W96
	.byte	W96
	.byte	W96
	.byte	W96
	.byte	W96
	.byte	W96
	.byte	W96
	.byte	W96
	.byte	W96
	.byte	W96
	.byte	W96
	.byte	W96
	.byte	W96
	.byte		N44	, Ds1, v112
	.byte		N44	, Fs2, v100
	.byte	W48
	.byte			Dn1, v112
	.byte		N44	, Dn2, v100
	.byte	W48
	.byte			Cs1, v112
	.byte		N44	, En2, v108
	.byte	W48
	.byte			Gn1, v112
	.byte		N44	, Cs2, v100
	.byte	W48
	.byte			Cn1, v104
	.byte		N44	, Ds2
	.byte	W48
	.byte			Fn1, v112
	.byte		N44	, Gs2, v108
	.byte	W48
	.byte			En1, v112
	.byte		N44	, Gs2, v108
	.byte	W48
	.byte			Fs1, v120
	.byte		N44	, En2, v100
	.byte	W48
song064_10_1:
	.byte		N44	, En1, v100
	.byte		N44	, Gs2, v116
	.byte	W48
	.byte			Ds1, v100
	.byte		N44	, Fs2, v108
	.byte	W48
	.byte	PEND
	.byte			Cs1, v112
	.byte		N44	, En2, v116
	.byte	W48
	.byte			Ds1, v127
	.byte		N44	, Fs2, v112
	.byte	W48
	.byte	PATT	
		.word	song064_10_1
	.byte		N44	, Cs1, v112
	.byte		N44	, En2, v116
	.byte	W48
	.byte			Fs1, v127
	.byte		N44	, Gs2, v112
	.byte	W48
song064_10_2:
	.byte		N44	, En1, v127
	.byte		N44	, Gs2, v108
	.byte	W48
	.byte			Ds1
	.byte		N44	, Fs2, v104
	.byte	W48
	.byte	PEND
	.byte			Cs1, v100
	.byte		N44	, En2, v112
	.byte	W48
	.byte			Ds1, v100
	.byte		N44	, Fs2, v112
	.byte	W48
	.byte	PATT	
		.word	song064_10_2
	.byte		N44	, Cs1, v100
	.byte		N40	, En2, v112
	.byte	W42
	.byte		N92	, En2, v108
	.byte	W02
	.byte		TIE	, Gn2, v116
	.byte	W36
	.byte	W02
	.byte	VOL	, v078
	.byte	W01
	.byte		v075
	.byte	W05
	.byte		v074
	.byte	W02
	.byte		v074
	.byte	W03
	.byte		v071
	.byte	W02
	.byte		v070
	.byte	W01
	.byte	W01
	.byte		v067
	.byte	W06
	.byte		v064
	.byte	W03
	.byte		v062
	.byte	W02
	.byte		v062
	.byte	W04
	.byte		v059
	.byte	W03
	.byte		v058
	.byte	W02
	.byte		v055
	.byte	W02
	.byte		v055
	.byte	W02
	.byte		v054
	.byte	W01
	.byte		v053
	.byte	W05
	.byte		v051
	.byte	W03
	.byte		v049
	.byte	W01
	.byte		v048
	.byte	W02
	.byte		v047
	.byte	W02
	.byte		v045
	.byte	W01
	.byte		v044
	.byte	W03
	.byte		v042
	.byte	W02
	.byte		v040
	.byte	W02
	.byte		EOT	
	.byte	W01
	.byte	VOL	, v038
	.byte	W02
	.byte		v037
	.byte	W02
	.byte		v035
	.byte	W03
	.byte		v031
	.byte	W01
	.byte		v029
	.byte	W36
	.byte	W03
	.byte		v086
	.byte	W01
	.byte		N44	, Ds2, v092
	.byte		N44	, Fs2
	.byte	W48
	.byte			Ds2
	.byte		N44	, Fs2
	.byte	W48
	.byte			Cs2
	.byte		N44	, En2, v100
	.byte	W48
	.byte			Cs2, v096
	.byte		N44	, En2, v092
	.byte	W48
	.byte			Cn2, v096
	.byte		N44	, Ds2
	.byte	W48
	.byte			Fn2, v108
	.byte		N44	, Gs2, v096
	.byte	W48
	.byte			En1, v104
	.byte		N44	, En2
	.byte	W48
	.byte			Fs1, v100
	.byte		N44	, En2, v092
	.byte	W48
	.byte			Bn0, v080
	.byte		N44	, Fs2, v064
	.byte	W48
	.byte			Gs1, v080
	.byte		N44	, Ds2, v060
	.byte	W48
	.byte			Cs1, v080
	.byte		N44	, En2
	.byte	W48
	.byte			Gn1
	.byte		N44	, Cs2, v076
	.byte	W48
	.byte			Cn1
	.byte		N44	, Ds2
	.byte	W48
	.byte			Fn1, v088
	.byte		N44	, Gs2, v072
	.byte	W48
	.byte			En1, v092
	.byte		N44	, Gs2, v088
	.byte	W48
	.byte			Fs1, v100
	.byte		N44	, En2, v080
	.byte	W48
	.byte			Ds2, v052
	.byte		N44	, Fs2, v064
	.byte	W48
	.byte			Ds2, v052
	.byte		N44	, Fs2, v072
	.byte	W48
	.byte			Cs2, v068
	.byte		N44	, En2, v080
	.byte	W48
	.byte			Cs2, v076
	.byte		N44	, En2, v064
	.byte	W48
	.byte			Cn2, v076
	.byte		N44	, Ds2
	.byte	W48
	.byte			Fn2, v088
	.byte		N44	, Gs2, v076
	.byte	W48
	.byte			En1, v084
	.byte		N44	, En2
	.byte	W48
	.byte			Fs1, v080
	.byte		N44	, En2, v056
	.byte	W48
	.byte			En1, v072
	.byte		N44	, Gs2, v084
	.byte	W48
	.byte			Ds1, v056
	.byte		N44	, Fs2, v076
	.byte	W48
	.byte			Cs1, v092
	.byte		N44	, En2, v096
	.byte	W48
	.byte			Ds1, v112
	.byte		N44	, Fs2, v092
	.byte	W48
	.byte			En1, v080
	.byte		N44	, Gs2, v096
	.byte	W48
	.byte			Ds1, v068
	.byte		N44	, Fs2, v088
	.byte	W48
	.byte			Cs1, v092
	.byte		N44	, En2, v096
	.byte	W48
	.byte			Fs1, v112
	.byte		N44	, Gs2, v092
	.byte	W48
song064_10_3:
	.byte		N44	, En1, v108
	.byte		N44	, Gs2, v088
	.byte	W48
	.byte			Ds1
	.byte		N44	, Fs2, v084
	.byte	W48
	.byte	PEND
	.byte			Cs1, v072
	.byte		N44	, En2, v092
	.byte	W48
	.byte			Ds1, v072
	.byte		N44	, Fs2, v092
	.byte	W48
	.byte	PATT	
		.word	song064_10_3
	.byte		N44	, Cs1, v072
	.byte		N40	, En2, v092
	.byte	W42
	.byte		TIE	, En2, v088
	.byte	W02
	.byte			Gn2, v096
	.byte	W52
	.byte	W54
	.byte		EOT	
	.byte	W01
	.byte		EOT	, En2
	.byte	FINE

	.align 2
	.global song064
song064:	@ 0x0829FCC0
	.byte	10		@ trackCount
	.byte	0		@ blockCount
	.byte	0		@ priority
	.byte	128		@ reverb

	.word	voicegroup008		@ voicegroup/tone

	.word	song064_1		@ track
	.word	song064_2		@ track
	.word	song064_3		@ track
	.word	song064_4		@ track
	.word	song064_5		@ track
	.word	song064_6		@ track
	.word	song064_7		@ track
	.word	song064_8		@ track
	.word	song064_9		@ track
	.word	song064_10		@ track
