	.include "MPlayDef.s"

	.section .rodata

	@********************** Track  1 **********************@

	.align 2
	.global song002_1
song002_1:	@ 0x08264E48
	.byte	KEYSH	, 0
	.byte	TEMPO	, 120
	.byte	VOICE	, 127
	.byte	VOL	, v090
	.byte	PAN	, c_v
	.byte	W03
	.byte	TEMPO	, 63
	.byte	W48
	.byte	TEMPO	, 63
	.byte		N03	, Gn7, v127
	.byte	W12
	.byte		N04	
	.byte	W12
	.byte		N05	, En6
	.byte	W12
	.byte		N04	, Gn7, v120
	.byte	W07
	.byte		N03	, En6, v092
	.byte	W12
	.byte			Gn7, v104
	.byte	W05
	.byte		N03	
	.byte	W12
	.byte		N06	, En6, v120
	.byte	W07
	.byte		N03	, En6, v020
	.byte	W11
	.byte			Gn7, v052
	.byte	W06
song002_1_4:
	.byte		N03	, Gn7, v127
	.byte	W12
	.byte		N03	
	.byte	W12
	.byte		N05	, En6
	.byte	W12
	.byte		N03	, Gn7, v120
	.byte	W07
	.byte		N03	
	.byte	W05
	.byte		N04	, En6, v080
	.byte	W07
	.byte		N03	, Gn7, v104
	.byte	W05
	.byte		N03	
	.byte	W12
	.byte		N06	, En6, v120
	.byte	W07
	.byte		N03	, En6, v020
	.byte	W11
	.byte			Gn7, v052
	.byte	W06
	.byte			Gn7, v127
	.byte	W12
	.byte		N03	
	.byte	W12
	.byte		N05	, En6
	.byte	W12
	.byte		N03	, Gn7, v120
	.byte	W07
	.byte			En6, v060
	.byte	W12
	.byte			Gn7, v104
	.byte	W05
	.byte		N03	
	.byte	W12
	.byte		N04	, En6, v120
	.byte	W07
	.byte		N03	, En6, v020
	.byte	W11
	.byte			Gn7, v052
	.byte	W06
song002_1_3:
	.byte		N03	, Gn7, v127
	.byte	W12
	.byte		N03	
	.byte	W12
	.byte		N04	, En6
	.byte	W12
	.byte		N03	, Gn7, v120
	.byte	W07
	.byte		N03	
	.byte	W05
	.byte			En6, v060
	.byte	W07
	.byte			En6, v104
	.byte	W05
	.byte			Gn7
	.byte	W12
	.byte		N04	, En6, v120
	.byte	W07
	.byte		N03	, En6, v020
	.byte	W11
	.byte			En6, v100
	.byte	W06
	.byte	PEND
song002_1_1:
	.byte		N03	, Gn7, v127
	.byte	W12
	.byte		N03	
	.byte	W12
	.byte		N04	, En6
	.byte	W12
	.byte		N03	, Gn7, v120
	.byte	W07
	.byte			En6, v060
	.byte	W12
	.byte			Gn7, v104
	.byte	W05
	.byte		N03	
	.byte	W12
	.byte		N04	, En6, v120
	.byte	W07
	.byte		N03	, En6, v020
	.byte	W11
	.byte			Gn7, v052
	.byte	W06
	.byte	PEND
song002_1_2:
	.byte		N03	, Gn7, v127
	.byte	W12
	.byte		N03	
	.byte	W12
	.byte		N04	, En6
	.byte	W12
	.byte		N03	, Gn7, v120
	.byte	W07
	.byte		N03	
	.byte	W05
	.byte			En6, v060
	.byte	W07
	.byte			Gn7, v104
	.byte	W05
	.byte		N03	
	.byte	W12
	.byte		N04	, En6, v120
	.byte	W07
	.byte		N03	, En6, v020
	.byte	W11
	.byte			Gn7, v052
	.byte	W06
	.byte	PEND
	.byte	PATT	
		.word	song002_1_1
	.byte		N03	, Gn7, v127
	.byte	W42
	.byte	W01
	.byte			En6
	.byte	W11
	.byte			Gn7, v104
	.byte	W01
	.byte			En6, v080
	.byte	W05
	.byte			Gn7, v127
	.byte	W18
	.byte		N03	
	.byte	W06
	.byte			Gn7, v120
	.byte	W12
	.byte	PATT	
		.word	song002_1_1
	.byte	PATT	
		.word	song002_1_2
	.byte	PATT	
		.word	song002_1_1
	.byte	PATT	
		.word	song002_1_3
	.byte	PATT	
		.word	song002_1_1
	.byte	PATT	
		.word	song002_1_2
	.byte	PATT	
		.word	song002_1_1
	.byte	PATT	
		.word	song002_1_3
	.byte	PATT	
		.word	song002_1_1
	.byte	PATT	
		.word	song002_1_2
	.byte	PATT	
		.word	song002_1_1
	.byte		N03	, Gn7, v127
	.byte	W12
	.byte		N03	
	.byte	W12
	.byte		N04	, En6
	.byte	W12
	.byte		N03	, Gn7, v120
	.byte	W07
	.byte		N03	
	.byte	W05
	.byte			En6, v060
	.byte	W07
	.byte			En6, v104
	.byte	W05
	.byte			Gn7
	.byte	W12
	.byte		N04	, En6, v120
	.byte	W07
	.byte		N03	, En6, v020
	.byte	W11
	.byte			En6, v100
	.byte		N03	, Gn7, v060
	.byte	W06
	.byte	PATT	
		.word	song002_1_1
	.byte	PATT	
		.word	song002_1_2
	.byte	PATT	
		.word	song002_1_1
	.byte	PATT	
		.word	song002_1_3
	.byte		N03	, Gn7, v127
	.byte	W12
	.byte		N04	
	.byte	W12
	.byte		N05	, En6
	.byte	W12
	.byte		N04	, Gn7, v120
	.byte	W07
	.byte		N03	, En6, v092
	.byte	W12
	.byte			Gn7, v104
	.byte	W05
	.byte		N03	
	.byte	W12
	.byte		N06	, En6, v120
	.byte	W07
	.byte		N03	, En6, v020
	.byte	W11
	.byte			Gn7, v052
	.byte	W06
	.byte	GOTO	
		.word	song002_1_4
	.byte		N03	, Gn7, v127
	.byte	W12
	.byte		N03	
	.byte	W12
	.byte		N05	, En6
	.byte	W12
	.byte		N03	, Gn7, v120
	.byte	W07
	.byte		N03	
	.byte	W05
	.byte		N04	, En6, v080
	.byte	W07
	.byte		N03	, Gn7, v104
	.byte	W05
	.byte		N03	
	.byte	W12
	.byte		N06	, En6, v120
	.byte	W07
	.byte		N03	, En6, v020
	.byte	W11
	.byte			Gn7, v052
	.byte	W03
	.byte	FINE

	@********************** Track  2 **********************@

	.global song002_2
song002_2:	@ 0x08264FF8
	.byte	KEYSH	, 0
	.byte	VOICE	, 126
	.byte	VOL	, v090
	.byte	PAN	, c_v-9
	.byte	W03
	.byte	W11
	.byte		N12	, An1, v127
	.byte	W12
	.byte		N06	, Fs1, v112
	.byte	W06
	.byte			Gs1, v127
	.byte	W06
	.byte		N12	, Fn1, v120
	.byte	W13
	.byte	W96
song002_2_2:
	.byte	W96
	.byte	W96
	.byte	W56
	.byte	W03
	.byte		N12	, An1, v127
	.byte	W13
	.byte		N06	, Fs1, v112
	.byte	W06
	.byte		N05	, Gs1, v127
	.byte	W05
	.byte		N12	, Fn1, v120
	.byte	W13
	.byte	W96
	.byte	W96
	.byte	W96
song002_2_1:
	.byte	W56
	.byte	W03
	.byte		N12	, An1, v127
	.byte	W12
	.byte		N06	, Fs1, v112
	.byte	W06
	.byte			Gs1, v127
	.byte	W06
	.byte		N12	, Fn1, v120
	.byte	W13
	.byte	PEND
	.byte	W96
	.byte	W96
	.byte	W96
	.byte	W96
	.byte	W96
	.byte	W96
	.byte	W96
	.byte	W96
	.byte	W96
	.byte	W96
	.byte	W96
	.byte	W96
	.byte	W96
	.byte	W96
	.byte	W96
	.byte	PATT	
		.word	song002_2_1
	.byte	W96
	.byte	GOTO	
		.word	song002_2_2
	.byte	FINE

	@********************** Track  3 **********************@

	.global song002_3
song002_3:	@ 0x08265056
	.byte	KEYSH	, 0
	.byte	VOICE	, 60
	.byte	VOL	, v070
	.byte	PAN	, c_v-14
	.byte	W03
	.byte	W48
song002_3_2:
	.byte		N12	, An4, v072
	.byte	W12
	.byte		N02	, Gs4, v040
	.byte	W12
	.byte		N12	, An4, v072
	.byte	W12
	.byte		N03	, Gs4, v040
	.byte	W12
	.byte		N12	, An4, v072
	.byte	W12
	.byte		N03	, Gs4, v040
	.byte	W12
	.byte		N12	, An4, v072
	.byte	W12
	.byte		N02	, Gs4, v040
	.byte	W12
	.byte	PEND
song002_3_1:
	.byte		N12	, An4, v072
	.byte	W12
	.byte		N04	, Gs4, v040
	.byte	W12
	.byte		N12	, An4, v072
	.byte	W12
	.byte		N04	, Gs4, v040
	.byte	W12
	.byte		N12	, An4, v072
	.byte	W12
	.byte		N04	, Gs4, v040
	.byte	W12
	.byte		N08	, An4, v072
	.byte	W07
	.byte		N10	, Gs4, v080
	.byte	W12
	.byte		N03	, Gs4, v040
	.byte	W05
	.byte	PEND
song002_3_3:
	.byte		N12	, An4, v072
	.byte	W12
	.byte		N03	, Gs4, v040
	.byte	W12
	.byte		N12	, An4, v072
	.byte	W12
	.byte		N03	, Gs4, v040
	.byte	W12
	.byte		N12	, An4, v072
	.byte	W12
	.byte		N04	, Gs4, v040
	.byte	W12
	.byte		N12	, An4, v072
	.byte	W12
	.byte		N04	, Gs4, v040
	.byte	W12
	.byte	PEND
	.byte	PATT	
		.word	song002_3_1
	.byte	PATT	
		.word	song002_3_2
	.byte	PATT	
		.word	song002_3_1
	.byte	PATT	
		.word	song002_3_3
	.byte		N12	, An4, v072
	.byte	W48
	.byte		N12	
	.byte	W12
	.byte		N04	, Gs4, v040
	.byte	W12
	.byte		N08	, An4, v072
	.byte	W07
	.byte		N11	, Gs4, v080
	.byte	W12
	.byte		N05	, Gs4, v040
	.byte	W05
	.byte	PATT	
		.word	song002_3_2
	.byte	PATT	
		.word	song002_3_1
	.byte	PATT	
		.word	song002_3_3
	.byte	PATT	
		.word	song002_3_1
	.byte	PATT	
		.word	song002_3_2
	.byte	PATT	
		.word	song002_3_1
	.byte	PATT	
		.word	song002_3_3
	.byte	PATT	
		.word	song002_3_1
	.byte	PATT	
		.word	song002_3_2
	.byte	PATT	
		.word	song002_3_1
	.byte	PATT	
		.word	song002_3_3
	.byte	PATT	
		.word	song002_3_1
	.byte	PATT	
		.word	song002_3_2
	.byte	PATT	
		.word	song002_3_1
	.byte	PATT	
		.word	song002_3_3
	.byte	PATT	
		.word	song002_3_1
	.byte	PATT	
		.word	song002_3_2
	.byte	GOTO	
		.word	song002_3_1
	.byte		N12	, An4, v072
	.byte	W12
	.byte		N04	, Gs4, v040
	.byte	W12
	.byte		N12	, An4, v072
	.byte	W12
	.byte		N04	, Gs4, v040
	.byte	W12
	.byte		N12	, An4, v072
	.byte	W12
	.byte		N04	, Gs4, v040
	.byte	W12
	.byte		N08	, An4, v072
	.byte	W07
	.byte		N10	, Gs4, v080
	.byte	W12
	.byte		N03	, Gs4, v040
	.byte	W03
	.byte	FINE

	@********************** Track  4 **********************@

	.global song002_4
song002_4:	@ 0x08265170
	.byte	KEYSH	, 0
	.byte	VOICE	, 46
	.byte	VOL	, v081
	.byte	PAN	, c_v-4
	.byte	W03
	.byte	W48
song002_4_1:
	.byte		N06	, An1, v116
	.byte	W24
	.byte			Cs2, v127
	.byte	W19
	.byte		N02	, En2, v096
	.byte	W17
	.byte		N02	
	.byte	W12
	.byte		N04	, Fs2, v100
	.byte	W06
	.byte		N03	, An1, v096
	.byte	W13
	.byte		N02	
	.byte	W05
	.byte	PEND
song002_4_2:
	.byte		N03	, Gn1, v116
	.byte	W12
	.byte		N06	, Gn1, v112
	.byte	W12
	.byte		N05	, Bn1, v096
	.byte	W12
	.byte		N04	, Dn2
	.byte	W12
	.byte			Gn2
	.byte	W48
	.byte	PEND
song002_4_3:
	.byte		N06	, En1, v127
	.byte	W24
	.byte			Gs1
	.byte	W19
	.byte		N03	, Bn1, v120
	.byte	W17
	.byte		N02	, Bn1, v096
	.byte	W12
	.byte		N04	, En2, v127
	.byte	W06
	.byte		N03	, En1, v096
	.byte	W13
	.byte		N02	
	.byte	W05
	.byte	PEND
	.byte		N03	, An2, v112
	.byte	W12
	.byte		N05	, An2, v096
	.byte	W12
	.byte			Fs2
	.byte	W12
	.byte		N04	, Fs2, v108
	.byte	W12
	.byte		N05	, En2, v096
	.byte	W48
	.byte	PATT	
		.word	song002_4_1
	.byte	PATT	
		.word	song002_4_2
	.byte	PATT	
		.word	song002_4_3
	.byte		N03	, An2, v112
	.byte	W12
	.byte			En2, v096
	.byte	W12
	.byte			Fs2
	.byte	W12
	.byte			Gs2, v108
	.byte	W12
	.byte			An2, v096
	.byte	W48
	.byte	PATT	
		.word	song002_4_1
song002_4_4:
	.byte		N04	, Bn1, v116
	.byte	W12
	.byte			Bn1, v112
	.byte	W12
	.byte		N03	, Ds2, v096
	.byte	W12
	.byte			Fs2
	.byte	W12
	.byte		N04	, Bn2
	.byte	W48
	.byte	PEND
	.byte	PATT	
		.word	song002_4_3
song002_4_5:
	.byte		N04	, An2, v112
	.byte	W12
	.byte			An2, v096
	.byte	W12
	.byte		N03	, Fs2
	.byte	W12
	.byte			Fs2, v108
	.byte	W12
	.byte		N04	, En2, v096
	.byte	W48
	.byte	PEND
	.byte	PATT	
		.word	song002_4_1
	.byte	PATT	
		.word	song002_4_4
song002_4_6:
	.byte		N06	, En2, v127
	.byte	W24
	.byte			En1
	.byte	W19
	.byte		N03	, Bn1, v120
	.byte	W17
	.byte		N02	, Bn1, v096
	.byte	W12
	.byte		N04	, En2, v127
	.byte	W06
	.byte		N03	, En1, v096
	.byte	W13
	.byte		N02	
	.byte	W05
	.byte	PEND
song002_4_7:
	.byte		N04	, An2, v112
	.byte	W12
	.byte			En2, v096
	.byte	W12
	.byte		N03	, Fs2
	.byte	W12
	.byte			Gs2, v108
	.byte	W12
	.byte		N04	, An2, v096
	.byte	W48
	.byte	PEND
	.byte	PATT	
		.word	song002_4_1
	.byte	PATT	
		.word	song002_4_4
	.byte	PATT	
		.word	song002_4_3
	.byte	PATT	
		.word	song002_4_5
	.byte	PATT	
		.word	song002_4_1
	.byte	PATT	
		.word	song002_4_4
	.byte	PATT	
		.word	song002_4_6
	.byte	PATT	
		.word	song002_4_7
	.byte	PATT	
		.word	song002_4_1
	.byte	GOTO	
		.word	song002_4_2
	.byte		N03	, Gn1, v116
	.byte	W12
	.byte		N06	, Gn1, v112
	.byte	W12
	.byte		N05	, Bn1, v096
	.byte	W12
	.byte		N04	, Dn2
	.byte	W12
	.byte			Gn2
	.byte	W04
	.byte	FINE

	@********************** Track  5 **********************@

	.global song002_5
song002_5:	@ 0x08265293
	.byte	KEYSH	, 0
	.byte	VOICE	, 88
	.byte	VOL	, v081
	.byte	PAN	, c_v-6
	.byte	W03
	.byte	W48
	.byte	W96
song002_5_1:
	.byte	W96
	.byte	W96
	.byte	W96
	.byte	W96
	.byte	W96
	.byte	W96
	.byte	W96
	.byte		N06	, An4, v127
	.byte	W10
	.byte		N04	, Cs5, v120
	.byte	W12
	.byte			En5
	.byte	W14
	.byte		N40	, An5
	.byte	W48
	.byte		N07	, Gs5
	.byte	W04
	.byte		N05	, An5
	.byte	W06
	.byte		N04	, Bn5
	.byte	W02
	.byte	W10
	.byte		N60	, Fs5
	.byte	W72
	.byte		N04	, An5
	.byte	W12
	.byte		N54	, Gs5
	.byte	W02
	.byte	W56
	.byte	W02
	.byte		N04	, An5
	.byte	W12
	.byte			Gs5
	.byte	W06
	.byte		N06	, An5
	.byte	W06
	.byte		N07	, Gs5
	.byte	W06
	.byte		N06	, Fs5
	.byte	W06
	.byte		N72	, En5
	.byte	W02
	.byte	W92
	.byte	W02
	.byte		N12	, An4
	.byte	W02
	.byte	W10
	.byte		N05	, Cs5
	.byte	W12
	.byte		N04	, En5, v124
	.byte	W12
	.byte		N40	, An5, v120
	.byte	W48
	.byte		N06	, Gs5
	.byte	W06
	.byte		N05	, An5
	.byte	W06
	.byte			Bn5
	.byte	W02
	.byte	W10
	.byte		N60	, Fs5
	.byte	W68
	.byte	W03
	.byte		N03	, Gs5
	.byte	W01
	.byte		N05	, An5
	.byte	W12
	.byte		N52	, Gs5
	.byte	W02
	.byte	W56
	.byte	W02
	.byte		N04	, En5
	.byte	W12
	.byte		N11	, Fs5
	.byte	W12
	.byte		N04	, Gs5
	.byte	W12
	.byte			An5
	.byte	W02
	.byte	W10
	.byte		N03	, En5
	.byte	W12
	.byte			Fs5
	.byte	W12
	.byte			Gs5
	.byte	W12
	.byte		N06	, An5
	.byte	W48
	.byte	W02
	.byte	W96
	.byte	W96
	.byte	W96
	.byte	W96
	.byte	W96
	.byte	W96
	.byte	W92
	.byte	W02
	.byte		N04	, An6
	.byte	W02
	.byte	W10
	.byte		N03	, En6
	.byte	W12
	.byte			Fs6
	.byte	W12
	.byte			Gs6
	.byte	W12
	.byte		N06	, An6
	.byte	W48
	.byte	W02
	.byte	W96
	.byte	GOTO	
		.word	song002_5_1
	.byte	FINE

	@********************** Track  6 **********************@

	.global song002_6
song002_6:	@ 0x08265336
	.byte	KEYSH	, 0
	.byte	VOICE	, 92
	.byte	VOL	, v081
	.byte	PAN	, c_v-6
	.byte	W03
	.byte	W48
song002_6_2:
	.byte		N04	, An3, v096
	.byte	W12
	.byte		N03	, Cs3
	.byte	W12
	.byte		N12	, En3, v100
	.byte	W12
	.byte		N03	, An3
	.byte	W24
	.byte			Cs3
	.byte	W12
	.byte		N12	, En3, v088
	.byte	W12
	.byte		N03	, An3, v100
	.byte	W12
	.byte	PEND
song002_6_3:
	.byte		N04	, Bn3, v100
	.byte	W24
	.byte			Fs3
	.byte	W24
	.byte			Bn3
	.byte	W48
	.byte		N03	, Gs3
	.byte	W12
	.byte			En3
	.byte	W12
	.byte		N11	, Fs3
	.byte	W12
	.byte		N03	, Gs3
	.byte	W24
	.byte			En3, v088
	.byte	W12
	.byte		N11	, Fs3, v100
	.byte	W12
	.byte		N03	, Gs3
	.byte	W12
	.byte		N04	, An3
	.byte	W24
	.byte			Fs3
	.byte	W24
	.byte			En3
	.byte	W48
	.byte			An3
	.byte	W12
	.byte		N03	, Cs3, v088
	.byte	W12
	.byte		N11	, En3, v100
	.byte	W12
	.byte		N04	, An3
	.byte	W24
	.byte			Cs3
	.byte	W12
	.byte		N10	, En3, v092
	.byte	W12
	.byte		N04	, An3, v100
	.byte	W12
	.byte			Bn3
	.byte	W24
	.byte		N03	, Fs3
	.byte	W24
	.byte		N04	, Bn3
	.byte	W48
	.byte		N03	, Gs3
	.byte	W12
	.byte			En3
	.byte	W12
	.byte		N11	, Fs3
	.byte	W12
	.byte		N03	, Gs3
	.byte	W24
	.byte		N04	, En3
	.byte	W12
	.byte		N11	, Fs3
	.byte	W12
	.byte		N03	, Gs3
	.byte	W12
	.byte		N04	, An3, v072
	.byte	W12
	.byte			En3
	.byte	W12
	.byte		N10	, Fs3
	.byte	W12
	.byte		N03	, Gs3
	.byte	W12
	.byte			An3
	.byte	W48
	.byte	W96
	.byte	W96
	.byte	W96
	.byte	W96
	.byte	W96
	.byte	W96
	.byte	W96
song002_6_1:
	.byte		N03	, An3, v072
	.byte	W12
	.byte			En3
	.byte	W12
	.byte		N11	, Fs3
	.byte	W12
	.byte		N04	, Gs3
	.byte	W12
	.byte		N03	, An3
	.byte	W48
	.byte	PEND
	.byte		N06	, An2, v127
	.byte	W10
	.byte		N04	, Cs3, v120
	.byte	W12
	.byte			En3
	.byte	W14
	.byte		N40	, An3
	.byte	W48
	.byte		N03	, Gs3
	.byte	W04
	.byte		N05	, An3
	.byte	W06
	.byte		N04	, Bn3
	.byte	W02
	.byte	W10
	.byte		N60	, Fs3
	.byte	W72
	.byte		N04	, An3
	.byte	W12
	.byte		N54	, Gs3
	.byte	W02
	.byte	W56
	.byte	W02
	.byte		N04	, An3
	.byte	W12
	.byte			Gs3
	.byte	W06
	.byte		N06	, An3
	.byte	W06
	.byte		N07	, Gs3
	.byte	W06
	.byte		N06	, Fs3
	.byte	W06
	.byte		N72	, En3
	.byte	W02
	.byte	W92
	.byte	W02
	.byte		N12	, An2
	.byte	W02
	.byte	W10
	.byte		N05	, Cs3
	.byte	W12
	.byte		N04	, En3, v124
	.byte	W12
	.byte		N40	, An3, v120
	.byte	W48
	.byte		N06	, Gs3
	.byte	W06
	.byte		N05	, An3
	.byte	W06
	.byte			Bn3
	.byte	W02
	.byte	W10
	.byte		N60	, Fs3
	.byte	W68
	.byte	W03
	.byte		N03	, Gs3
	.byte	W01
	.byte		N05	, An3
	.byte	W12
	.byte		N52	, Gs3
	.byte	W02
	.byte	W56
	.byte	W02
	.byte		N04	, En3
	.byte	W12
	.byte		N11	, Fs3
	.byte	W12
	.byte		N04	, Gs3
	.byte	W14
	.byte	PATT	
		.word	song002_6_1
	.byte	PATT	
		.word	song002_6_2
	.byte	GOTO	
		.word	song002_6_3
	.byte		N04	, Bn3, v100
	.byte	W24
	.byte			Fs3
	.byte	W24
	.byte			Bn3
	.byte	W04
	.byte	FINE

	@********************** Track  7 **********************@

	.global song002_7
song002_7:	@ 0x08265452
	.byte	KEYSH	, 0
	.byte	VOICE	, 76
	.byte	VOL	, v081
	.byte	PAN	, c_v+16
	.byte	W03
	.byte	W48
	.byte	W96
song002_7_7:
	.byte	W96
	.byte	W96
	.byte	W96
	.byte	W96
	.byte	W96
	.byte	W96
	.byte	W96
song002_7_1:
	.byte		N05	, An2, v068
	.byte	W12
	.byte			Cs3, v072
	.byte	W12
	.byte			En3
	.byte	W13
	.byte		N36	, An3, v080
	.byte	W44
	.byte	W03
	.byte		N05	, Gs3, v068
	.byte	W05
	.byte		N06	, An3
	.byte	W06
	.byte		N05	, Bn3, v072
	.byte	W01
	.byte	PEND
song002_7_2:
	.byte	W13
	.byte		N54	, Fs3, v080
	.byte	W68
	.byte	W02
	.byte		N02	, Gs3, v068
	.byte	W01
	.byte		N05	, An3, v084
	.byte	W12
	.byte	PEND
song002_7_3:
	.byte	W02
	.byte		N56	, Gs3, v068
	.byte	W56
	.byte	W02
	.byte		N04	, An3, v080
	.byte	W11
	.byte			Gs3, v068
	.byte	W06
	.byte		N07	, An3
	.byte	W05
	.byte			Gs3
	.byte	W06
	.byte		N06	, Fs3
	.byte	W08
	.byte	PEND
	.byte		N72	, En3
	.byte	W96
song002_7_4:
	.byte		N11	, An2, v068
	.byte	W12
	.byte		N04	, Cs3, v088
	.byte	W12
	.byte			En3, v076
	.byte	W12
	.byte		N36	, An3, v088
	.byte	W48
	.byte		N05	, Gs3, v072
	.byte	W07
	.byte			An3, v068
	.byte	W05
	.byte	PEND
song002_7_5:
	.byte		N04	, Bn3, v088
	.byte	W12
	.byte		N56	, Fs3, v072
	.byte	W68
	.byte	W03
	.byte		N02	, Gs3, v068
	.byte	W01
	.byte		N06	, An3, v076
	.byte	W12
	.byte	PEND
song002_7_6:
	.byte		N52	, Gs3, v080
	.byte	W60
	.byte		N04	, En3, v068
	.byte	W12
	.byte			Fs3, v088
	.byte	W12
	.byte		N03	, Gs3
	.byte	W12
	.byte	PEND
	.byte		N68	, An3, v084
	.byte	W96
	.byte	PATT	
		.word	song002_7_1
	.byte	PATT	
		.word	song002_7_2
	.byte	PATT	
		.word	song002_7_3
	.byte		N72	, En3, v068
	.byte	W96
	.byte	PATT	
		.word	song002_7_4
	.byte	PATT	
		.word	song002_7_5
	.byte	PATT	
		.word	song002_7_6
	.byte		N68	, An3, v084
	.byte	W96
	.byte	W96
	.byte	GOTO	
		.word	song002_7_7
	.byte	FINE

	@********************** Track  8 **********************@

	.global song002_8
song002_8:	@ 0x0826550F
	.byte	KEYSH	, 0
	.byte	VOICE	, 82
	.byte	VOL	, v077
	.byte	PAN	, c_v+56
	.byte	W03
	.byte	W48
song002_8_1:
	.byte	W12
	.byte		N03	, Cs3, v092
	.byte		N03	, En3
	.byte		N03	, An3
	.byte	W24
	.byte			Cs3
	.byte		N03	, En3
	.byte		N03	, An3
	.byte	W24
	.byte			Cs3
	.byte		N03	, En3
	.byte		N03	, An3, v100
	.byte	W09
	.byte	MOD	, 0
	.byte	W15
	.byte		N03	, Cs3, v092
	.byte		N02	, En3
	.byte		N03	, An3
	.byte	W12
	.byte	PEND
song002_8_9:
	.byte	W12
	.byte		N03	, Bn2, v092
	.byte		N03	, Dn3
	.byte		N03	, Gn3
	.byte	W24
	.byte			Bn2
	.byte		N03	, Dn3, v112
	.byte		N03	, Gn3, v092
	.byte	W24
	.byte			Bn2
	.byte		N03	, Dn3
	.byte		N03	, Gn3
	.byte	W24
	.byte			Bn2
	.byte		N03	, Dn3, v104
	.byte		N03	, Gn3, v092
	.byte	W12
song002_8_2:
	.byte	W12
	.byte		N04	, Bn2, v092
	.byte		N03	, En3
	.byte		N04	, Gs3, v112
	.byte	W24
	.byte			Bn2, v092
	.byte		N03	, En3
	.byte		N03	, Gs3
	.byte	W24
	.byte		N04	, Bn2
	.byte		N03	, En3
	.byte		N03	, Gs3
	.byte	W24
	.byte		N04	, Bn2
	.byte		N03	, En3
	.byte		N04	, Gs3, v112
	.byte	W12
	.byte	PEND
	.byte	W12
	.byte		N03	, Cs3, v092
	.byte		N03	, En3
	.byte		N04	, An3, v100
	.byte	W24
	.byte		N03	, Cs3, v092
	.byte		N03	, En3
	.byte		N03	, An3
	.byte	W12
	.byte			Bn2
	.byte		N03	, Cs3
	.byte		N04	, En3, v100
	.byte	W48
song002_8_3:
	.byte	W12
	.byte		N03	, Cs3, v092
	.byte		N03	, En3, v100
	.byte		N03	, An3, v092
	.byte	W24
	.byte			Cs3
	.byte		N03	, En3
	.byte		N03	, An3
	.byte	W24
	.byte			Cs3
	.byte		N03	, En3
	.byte		N03	, An3
	.byte	W24
	.byte			Cs3
	.byte		N03	, En3
	.byte		N03	, An3, v100
	.byte	W12
	.byte	PEND
	.byte	W12
	.byte			Bn2, v092
	.byte		N03	, Dn3
	.byte		N02	, Gn3
	.byte	W24
	.byte		N03	, Bn2
	.byte		N03	, Dn3
	.byte		N03	, Gn3
	.byte	W24
	.byte			Bn2
	.byte		N03	, Dn3, v112
	.byte		N03	, Gn3, v092
	.byte	W24
	.byte			Bn2
	.byte		N03	, Dn3, v104
	.byte		N03	, Gn3, v092
	.byte	W12
song002_8_4:
	.byte	W12
	.byte		N04	, Bn2, v092
	.byte		N03	, En3
	.byte		N04	, Gs3, v112
	.byte	W24
	.byte			Bn2, v092
	.byte		N03	, En3
	.byte		N03	, Gs3
	.byte	W24
	.byte		N04	, Bn2
	.byte		N02	, En3
	.byte		N03	, Gs3
	.byte	W24
	.byte		N04	, Bn2
	.byte		N03	, En3
	.byte		N03	, Gs3
	.byte	W12
	.byte	PEND
song002_8_5:
	.byte	W12
	.byte		N04	, En3, v092
	.byte	W12
	.byte			Fs3, v112
	.byte	W12
	.byte		N03	, Gs3
	.byte	W12
	.byte			An3
	.byte	W48
	.byte	PEND
	.byte	PATT	
		.word	song002_8_1
song002_8_6:
	.byte	W12
	.byte		N03	, Ds3, v092
	.byte		N03	, Fs3
	.byte		N03	, Bn3
	.byte	W24
	.byte			Ds3
	.byte		N03	, Fs3, v112
	.byte		N03	, Bn3, v092
	.byte	W24
	.byte			Ds3
	.byte		N03	, Fs3
	.byte		N03	, Bn3
	.byte	W24
	.byte			Ds3
	.byte		N03	, Fs3, v104
	.byte		N03	, Bn3, v092
	.byte	W12
	.byte	PEND
	.byte	PATT	
		.word	song002_8_2
song002_8_7:
	.byte	W12
	.byte		N03	, Cs3, v092
	.byte		N03	, En3
	.byte		N04	, An3, v100
	.byte	W24
	.byte		N03	, Cs3, v092
	.byte		N03	, En3
	.byte		N03	, An3
	.byte	W24
	.byte			En3, v104
	.byte	W12
	.byte		N12	, Fs3, v112
	.byte	W12
	.byte		N03	, En3
	.byte	W12
	.byte	PEND
	.byte	PATT	
		.word	song002_8_3
song002_8_8:
	.byte	W12
	.byte		N03	, Ds3, v092
	.byte		N03	, Fs3
	.byte		N02	, Bn3
	.byte	W24
	.byte		N03	, Ds3
	.byte		N03	, Fs3
	.byte		N03	, Bn3
	.byte	W24
	.byte			Ds3
	.byte		N03	, Fs3, v112
	.byte		N03	, Bn3, v092
	.byte	W24
	.byte			Ds3
	.byte		N03	, Fs3, v104
	.byte		N03	, Bn3, v092
	.byte	W12
	.byte	PEND
	.byte	PATT	
		.word	song002_8_4
	.byte	PATT	
		.word	song002_8_5
	.byte	PATT	
		.word	song002_8_1
	.byte	PATT	
		.word	song002_8_6
	.byte	PATT	
		.word	song002_8_2
	.byte	PATT	
		.word	song002_8_7
	.byte	PATT	
		.word	song002_8_3
	.byte	PATT	
		.word	song002_8_8
	.byte	PATT	
		.word	song002_8_4
	.byte	PATT	
		.word	song002_8_5
	.byte	PATT	
		.word	song002_8_1
	.byte	GOTO	
		.word	song002_8_9
	.byte	W12
	.byte		N03	, Bn2, v092
	.byte		N03	, Dn3
	.byte		N03	, Gn3
	.byte	W24
	.byte			Bn2
	.byte		N03	, Dn3, v112
	.byte		N03	, Gn3, v092
	.byte	W24
	.byte			Bn2
	.byte		N03	, Dn3
	.byte		N03	, Gn3
	.byte	W24
	.byte			Bn2
	.byte		N03	, Dn3, v104
	.byte		N03	, Gn3, v092
	.byte	W03
	.byte	FINE

	@********************** Track  9 **********************@

	.global song002_9
song002_9:	@ 0x082656C9
	.byte	KEYSH	, 0
	.byte	VOICE	, 116
	.byte	VOL	, v081
	.byte	PAN	, c_v-34
	.byte	W03
	.byte	W48
song002_9_2:
	.byte		N22	, An3, v040
	.byte	W24
	.byte		N18	, En3
	.byte	W24
	.byte		N28	, An3
	.byte	W36
	.byte		N05	, En3
	.byte	W12
	.byte	PEND
song002_9_3:
	.byte		N22	, Bn3, v040
	.byte	W24
	.byte			Fs3
	.byte	W24
	.byte		N30	, Bn3
	.byte	W48
song002_9_1:
	.byte		N22	, En3, v040
	.byte	W24
	.byte			Bn3
	.byte	W24
	.byte		N36	, En3
	.byte	W48
	.byte	PEND
	.byte		N22	, An3
	.byte	W24
	.byte			En3
	.byte	W24
	.byte		N07	, An3
	.byte	W12
	.byte			En3
	.byte	W12
	.byte		N06	, Fs3
	.byte	W12
	.byte			Gs3
	.byte	W12
	.byte		N22	, An3
	.byte	W24
	.byte			En3
	.byte	W24
	.byte		N36	, An3
	.byte	W48
	.byte		N22	, Bn3
	.byte	W24
	.byte			Fs3
	.byte	W24
	.byte		N36	, Bn3
	.byte	W48
	.byte	PATT	
		.word	song002_9_1
	.byte		N04	, An3, v040
	.byte	W12
	.byte		N05	, En3
	.byte	W12
	.byte			Fs3
	.byte	W12
	.byte			Gs3
	.byte	W12
	.byte		N36	, An3
	.byte	W48
	.byte	W96
	.byte	W96
	.byte	W96
	.byte	W96
	.byte	W96
	.byte	W96
	.byte	W96
	.byte	W96
	.byte	W96
	.byte	W96
	.byte	W96
	.byte	W96
	.byte	W96
	.byte	W96
	.byte	W96
	.byte	W96
	.byte	PATT	
		.word	song002_9_2
	.byte	GOTO	
		.word	song002_9_3
	.byte		N22	, Bn3, v040
	.byte	W24
	.byte			Fs3
	.byte	W24
	.byte		N30	, Bn3
	.byte	W30
	.byte	FINE

	.align 2
	.global song002
song002:	@ 0x0826574C
	.byte	9		@ trackCount
	.byte	0		@ blockCount
	.byte	20		@ priority
	.byte	128		@ reverb

	.word	voicegroup008		@ voicegroup/tone

	.word	song002_1		@ track
	.word	song002_2		@ track
	.word	song002_3		@ track
	.word	song002_4		@ track
	.word	song002_5		@ track
	.word	song002_6		@ track
	.word	song002_7		@ track
	.word	song002_8		@ track
	.word	song002_9		@ track
