	.include "MPlayDef.s"

	.section .rodata

	@********************** Track  1 **********************@

	.align 2
	.global song029_1
song029_1:	@ 0x082772B8
	.byte	KEYSH	, 0
	.byte	TEMPO	, 82
	.byte	VOICE	, 127
	.byte	VOL	, v085
	.byte	PAN	, c_v
	.byte	W96
	.byte	W96
	.byte	W96
	.byte	W72
	.byte		N11	, Cn5, v127
	.byte	W12
	.byte			Dn5
	.byte	W12
song029_1_2:
	.byte		N11	, Cn4, v127
	.byte		N92	, As4
	.byte	W12
	.byte		N11	, Cs5
	.byte	W12
	.byte			Cn4
	.byte	W12
	.byte			En4
	.byte	W12
	.byte			Cn4
	.byte	W12
	.byte			Ds5
	.byte	W12
	.byte			Cn4
	.byte	W12
	.byte			En4
	.byte	W12
	.byte	PEND
song029_1_1:
	.byte		N11	, Cn4, v127
	.byte	W12
	.byte			Cs5
	.byte	W12
	.byte			Cn4
	.byte	W12
	.byte			En4
	.byte	W12
	.byte			Cn4
	.byte	W12
	.byte			Ds5
	.byte	W12
	.byte			Cn4
	.byte	W12
	.byte			En4
	.byte	W12
	.byte	PEND
	.byte	PATT	
		.word	song029_1_1
	.byte	PATT	
		.word	song029_1_1
	.byte	PATT	
		.word	song029_1_2
	.byte	PATT	
		.word	song029_1_1
	.byte	PATT	
		.word	song029_1_1
	.byte	PATT	
		.word	song029_1_1
	.byte	PATT	
		.word	song029_1_2
	.byte	PATT	
		.word	song029_1_1
	.byte	PATT	
		.word	song029_1_1
	.byte	PATT	
		.word	song029_1_1
	.byte	PATT	
		.word	song029_1_2
	.byte	PATT	
		.word	song029_1_1
	.byte	PATT	
		.word	song029_1_1
	.byte	PATT	
		.word	song029_1_1
song029_1_3:
	.byte		N05	, Dn5, v124
	.byte	W06
	.byte			Dn5, v024
	.byte	W06
	.byte		N05	
	.byte	W06
	.byte			Dn5, v056
	.byte	W06
	.byte			Dn5, v024
	.byte	W06
	.byte		N05	
	.byte	W06
	.byte			Dn5, v076
	.byte	W06
	.byte			Dn5, v024
	.byte	W06
	.byte		N05	
	.byte	W06
	.byte			Dn5, v096
	.byte	W06
	.byte			Dn5, v024
	.byte	W06
	.byte		N05	
	.byte	W06
	.byte			Dn5, v116
	.byte	W06
	.byte			Dn5, v024
	.byte	W06
	.byte		N05	
	.byte	W06
	.byte		N05	
	.byte	W06
	.byte	PEND
	.byte			Dn5, v124
	.byte	W06
	.byte			Dn5, v024
	.byte	W06
	.byte		N05	
	.byte	W06
	.byte			Dn5, v056
	.byte	W06
	.byte			Dn5, v024
	.byte	W06
	.byte		N05	
	.byte	W06
	.byte			Dn5, v076
	.byte	W06
	.byte			Dn5, v024
	.byte	W06
	.byte		N05	
	.byte	W06
	.byte			Dn5, v096
	.byte	W06
	.byte			Dn5, v024
	.byte	W06
	.byte		N05	
	.byte	W06
	.byte			Dn5, v116
	.byte	W06
	.byte			Dn5, v024
	.byte	W06
	.byte		N05	
	.byte	W06
	.byte			Dn5, v116
	.byte	W06
	.byte	PATT	
		.word	song029_1_3
	.byte		N05	, Dn5, v084
	.byte	W06
	.byte			Dn5, v024
	.byte	W06
	.byte		N05	
	.byte	W06
	.byte			Dn5, v084
	.byte	W06
	.byte			Dn5, v024
	.byte	W06
	.byte		N05	
	.byte	W06
	.byte			Dn5, v084
	.byte	W06
	.byte			Dn5, v024
	.byte	W06
	.byte			Cn5, v084
	.byte	W06
	.byte			Dn5
	.byte	W03
	.byte			En5, v127
	.byte	W03
	.byte		N11	, Dn5
	.byte	W06
	.byte			En5, v096
	.byte	W06
	.byte			Dn5, v056
	.byte	W06
	.byte			En5, v064
	.byte	W06
	.byte			Dn5, v084
	.byte	W06
	.byte		N05	, En5, v127
	.byte	W06
	.byte	PATT	
		.word	song029_1_2
	.byte	PATT	
		.word	song029_1_1
	.byte	PATT	
		.word	song029_1_1
	.byte	PATT	
		.word	song029_1_1
	.byte	W54
	.byte		N05	, Dn5, v084
	.byte	W03
	.byte			En5, v127
	.byte	W03
	.byte		N11	, Dn5
	.byte	W06
	.byte			En5, v096
	.byte	W06
	.byte			Dn5, v056
	.byte	W06
	.byte			En5, v064
	.byte	W06
	.byte			Dn5, v084
	.byte	W06
	.byte		N05	, En5, v127
	.byte	W06
	.byte	PATT	
		.word	song029_1_2
	.byte	PATT	
		.word	song029_1_1
	.byte	PATT	
		.word	song029_1_1
	.byte	PATT	
		.word	song029_1_1
	.byte	PATT	
		.word	song029_1_2
	.byte	PATT	
		.word	song029_1_1
	.byte	PATT	
		.word	song029_1_1
	.byte	PATT	
		.word	song029_1_1
	.byte	PATT	
		.word	song029_1_2
	.byte	PATT	
		.word	song029_1_1
	.byte	PATT	
		.word	song029_1_1
	.byte	PATT	
		.word	song029_1_1
	.byte	PATT	
		.word	song029_1_2
	.byte	PATT	
		.word	song029_1_1
	.byte	PATT	
		.word	song029_1_1
	.byte	PATT	
		.word	song029_1_1
	.byte	PATT	
		.word	song029_1_2
	.byte	PATT	
		.word	song029_1_1
	.byte	PATT	
		.word	song029_1_1
	.byte	PATT	
		.word	song029_1_1
	.byte	PATT	
		.word	song029_1_2
	.byte	PATT	
		.word	song029_1_2
	.byte	PATT	
		.word	song029_1_2
	.byte		N05	, Dn5, v116
	.byte	W06
	.byte			Dn5, v036
	.byte	W06
	.byte			Dn5, v016
	.byte	W06
	.byte			Dn5, v116
	.byte	W06
	.byte			Dn5, v036
	.byte	W06
	.byte			Dn5, v016
	.byte	W06
	.byte			Dn5, v116
	.byte	W06
	.byte			Dn5, v036
	.byte	W06
	.byte			Cn5, v116
	.byte	W06
	.byte			Dn5, v084
	.byte	W03
	.byte			En5, v127
	.byte	W03
	.byte		N11	, Dn5
	.byte	W06
	.byte			En5, v096
	.byte	W06
	.byte			Dn5, v056
	.byte	W06
	.byte			En5, v064
	.byte	W06
	.byte			Dn5, v084
	.byte	W06
	.byte		N05	, En5, v127
	.byte	W06
	.byte		N92	, As4
	.byte	W96
	.byte	W96
	.byte	W96
	.byte	W96
	.byte		N05	, Dn5, v116
	.byte	W06
	.byte			Dn5, v036
	.byte	W06
	.byte			Dn5, v016
	.byte	W06
	.byte			Dn5, v044
	.byte	W06
	.byte			Dn5, v036
	.byte	W06
	.byte			Dn5, v016
	.byte	W06
	.byte			Dn5, v064
	.byte	W06
	.byte			Dn5, v036
	.byte	W06
	.byte			Dn5, v016
	.byte	W06
	.byte			Dn5, v084
	.byte	W06
	.byte			Dn5, v036
	.byte	W06
	.byte			Dn5, v016
	.byte	W06
	.byte			Dn5, v104
	.byte	W06
	.byte			Dn5, v036
	.byte	W06
	.byte		N05	
	.byte	W06
	.byte			Dn5, v016
	.byte	W06
	.byte			Dn5, v116
	.byte	W06
	.byte			Dn5, v036
	.byte	W06
	.byte			Dn5, v016
	.byte	W06
	.byte			Dn5, v044
	.byte	W06
	.byte			Dn5, v036
	.byte	W06
	.byte			Dn5, v016
	.byte	W06
	.byte			Dn5, v064
	.byte	W06
	.byte			Dn5, v036
	.byte	W06
	.byte			Dn5, v016
	.byte	W06
	.byte			Dn5, v084
	.byte	W06
	.byte			Dn5, v036
	.byte	W06
	.byte			Dn5, v016
	.byte	W06
	.byte			Dn5, v104
	.byte	W06
	.byte			Dn5, v036
	.byte	W06
	.byte		N05	
	.byte	W06
	.byte			Dn5, v104
	.byte	W06
	.byte			Dn5, v116
	.byte	W06
	.byte			Dn5, v036
	.byte	W06
	.byte			Dn5, v016
	.byte	W06
	.byte			Dn5, v044
	.byte	W06
	.byte			Dn5, v036
	.byte	W06
	.byte			Dn5, v016
	.byte	W06
	.byte			Dn5, v064
	.byte	W06
	.byte			Dn5, v036
	.byte	W06
	.byte			Dn5, v016
	.byte	W06
	.byte			Dn5, v084
	.byte	W06
	.byte			Dn5, v036
	.byte	W06
	.byte			Dn5, v016
	.byte	W06
	.byte			Dn5, v104
	.byte	W06
	.byte			Dn5, v036
	.byte	W06
	.byte		N05	
	.byte	W06
	.byte			Dn5, v056
	.byte	W03
	.byte			En5, v100
	.byte	W03
	.byte			Dn5, v124
	.byte	W06
	.byte			Dn5, v024
	.byte	W06
	.byte			Dn5, v124
	.byte	W06
	.byte			Dn5, v024
	.byte	W06
	.byte			Dn5, v124
	.byte	W06
	.byte			Dn5, v024
	.byte	W06
	.byte		N05	
	.byte	W06
	.byte			Cn5, v084
	.byte	W06
	.byte		N05	
	.byte	W06
	.byte			Dn5, v104
	.byte	W03
	.byte			En5, v127
	.byte	W03
	.byte		N11	, Dn5
	.byte	W06
	.byte			En5, v096
	.byte	W06
	.byte			Dn5, v076
	.byte	W06
	.byte			En5, v084
	.byte	W06
	.byte			Dn5, v104
	.byte	W06
	.byte		N05	, En5, v127
	.byte	W06
	.byte	GOTO	
		.word	song029_1_2
	.byte	FINE

	@********************** Track  2 **********************@

	.global song029_2
song029_2:	@ 0x0827756F
	.byte	KEYSH	, 0
	.byte	VOICE	, 16
	.byte	VOL	, v068
	.byte	PAN	, c_v
	.byte	W96
	.byte	W96
	.byte	W96
	.byte	W96
song029_2_7:
	.byte	W96
	.byte	W96
	.byte	W96
	.byte	W96
	.byte	W96
	.byte	W96
	.byte	W96
	.byte	W96
song029_2_1:
	.byte	VOICE	, 16
	.byte	PAN	, c_v
	.byte		N05	, Fn4, v104
	.byte	W06
	.byte		N05	
	.byte	W06
	.byte		N05	
	.byte	W06
	.byte		N05	
	.byte	W05
	.byte	VOICE	, 17
	.byte	W01
	.byte		N05	, Gs4
	.byte	W06
	.byte		N05	
	.byte	W06
	.byte			Fn4
	.byte	W05
	.byte	VOICE	, 16
	.byte	W01
	.byte		N05	, Gs4
	.byte	W06
	.byte			Fn4
	.byte	W05
	.byte	VOICE	, 17
	.byte	W01
	.byte		N05	, Gs4
	.byte	W06
	.byte		N05	
	.byte	W05
	.byte	VOICE	, 16
	.byte	W01
	.byte		N05	, Fn4
	.byte	W06
	.byte			Ds4
	.byte	W06
	.byte		N05	
	.byte	W05
	.byte	VOICE	, 17
	.byte	W01
	.byte		N05	, As4
	.byte	W06
	.byte		N05	
	.byte	W06
	.byte	PEND
song029_2_2:
	.byte		N05	, Fn4, v104
	.byte	W06
	.byte		N05	
	.byte	W05
	.byte	VOICE	, 16
	.byte	W01
	.byte		N05	
	.byte	W06
	.byte		N05	
	.byte	W05
	.byte	VOICE	, 17
	.byte	W01
	.byte		N05	, Gs4
	.byte	W06
	.byte		N05	
	.byte	W06
	.byte			Fn4
	.byte	W05
	.byte	VOICE	, 16
	.byte	W01
	.byte		N05	
	.byte	W06
	.byte			Gs4
	.byte	W05
	.byte	VOICE	, 17
	.byte	W01
	.byte		N05	, Cn5
	.byte	W05
	.byte	VOICE	, 16
	.byte	W01
	.byte		N05	, Bn4
	.byte	W06
	.byte		N05	
	.byte	W05
	.byte	VOICE	, 17
	.byte	W01
	.byte		N05	, Dn5
	.byte	W06
	.byte		N05	
	.byte	W05
	.byte	VOICE	, 16
	.byte	W01
	.byte		N05	, Gs4
	.byte	W06
	.byte			Fn4
	.byte	W05
	.byte	VOICE	, 17
	.byte	W01
	.byte	PEND
song029_2_3:
	.byte		N05	, Bn4, v104
	.byte	W06
	.byte		N05	
	.byte	W06
	.byte		N05	
	.byte	W05
	.byte	VOICE	, 16
	.byte	W01
	.byte		N05	, Gs4
	.byte	W06
	.byte		N05	
	.byte	W06
	.byte		N05	
	.byte	W05
	.byte	VOICE	, 17
	.byte	W01
	.byte		N05	
	.byte	W05
	.byte	VOICE	, 16
	.byte	W01
	.byte		N05	, Fs4
	.byte	W06
	.byte			En4
	.byte	W06
	.byte		N05	
	.byte	W06
	.byte		N05	
	.byte	W05
	.byte	VOICE	, 17
	.byte	W01
	.byte		N05	, En5
	.byte	W06
	.byte		N05	
	.byte	W06
	.byte		N05	
	.byte	W06
	.byte			Bn4
	.byte	W06
	.byte		N05	
	.byte	W05
	.byte	VOICE	, 16
	.byte	W01
	.byte	PEND
song029_2_4:
	.byte		N05	, Cs5, v100
	.byte	W06
	.byte		N05	
	.byte	W06
	.byte			Cs5, v048
	.byte	W05
	.byte	VOICE	, 17
	.byte	W01
	.byte		N05	, Cs4, v100
	.byte	W06
	.byte		N05	
	.byte	W06
	.byte			Cs4, v048
	.byte	W05
	.byte	VOICE	, 16
	.byte	W01
	.byte		N05	, Cs5, v100
	.byte	W06
	.byte		N05	
	.byte	W06
	.byte			Cs5, v048
	.byte	W05
	.byte	VOICE	, 18
	.byte	W01
	.byte		N05	, Cs4, v100
	.byte	W06
	.byte		N05	
	.byte	W06
	.byte			Cs4, v048
	.byte	W05
	.byte	VOICE	, 16
	.byte	W01
	.byte		N05	, Cs5, v100
	.byte	W06
	.byte		N05	
	.byte	W05
	.byte	VOICE	, 19
	.byte	W01
	.byte		N05	, Cs4, v048
	.byte	W06
	.byte		N05	
	.byte	W06
	.byte	PEND
	.byte	PATT	
		.word	song029_2_1
	.byte	PATT	
		.word	song029_2_2
	.byte	PATT	
		.word	song029_2_3
	.byte	PATT	
		.word	song029_2_4
	.byte	W96
	.byte	W96
	.byte	W96
	.byte	W96
	.byte	VOICE	, 16
	.byte	PAN	, c_v
	.byte		N03	, Fn5, v116
	.byte	W06
	.byte		N03	
	.byte	W06
	.byte		N03	
	.byte	W06
	.byte		N03	
	.byte	W05
	.byte	VOICE	, 17
	.byte	W01
	.byte		N03	, Gs5
	.byte	W06
	.byte		N03	
	.byte	W06
	.byte			Fn5
	.byte	W05
	.byte	VOICE	, 16
	.byte	W01
	.byte		N03	, Gs5
	.byte	W06
	.byte			Fn5
	.byte	W05
	.byte	VOICE	, 17
	.byte	W01
	.byte		N03	, Gs5
	.byte	W06
	.byte		N03	
	.byte	W05
	.byte	VOICE	, 16
	.byte	W01
	.byte		N03	, Fn5
	.byte	W06
	.byte			Ds5
	.byte	W06
	.byte		N03	
	.byte	W05
	.byte	VOICE	, 17
	.byte	W01
	.byte		N03	, As5
	.byte	W06
	.byte		N03	
	.byte	W06
	.byte			Fn5
	.byte	W06
	.byte		N03	
	.byte	W05
	.byte	VOICE	, 16
	.byte	W01
	.byte		N03	
	.byte	W06
	.byte		N03	
	.byte	W05
	.byte	VOICE	, 17
	.byte	W01
	.byte		N03	, Gs5
	.byte	W06
	.byte		N03	
	.byte	W06
	.byte			Fn5
	.byte	W05
	.byte	VOICE	, 16
	.byte	W01
	.byte		N03	
	.byte	W06
	.byte			Gs5
	.byte	W05
	.byte	VOICE	, 17
	.byte	W01
	.byte		N03	, Cn6
	.byte	W05
	.byte	VOICE	, 16
	.byte	W01
	.byte		N03	, Bn5
	.byte	W06
	.byte		N03	
	.byte	W05
	.byte	VOICE	, 17
	.byte	W01
	.byte		N03	, Dn6
	.byte	W06
	.byte		N03	
	.byte	W05
	.byte	VOICE	, 16
	.byte	W01
	.byte		N03	, Gs5
	.byte	W06
	.byte			Fn5
	.byte	W05
	.byte	VOICE	, 17
	.byte	W01
	.byte		N03	, Bn5
	.byte	W06
	.byte		N03	
	.byte	W06
	.byte		N03	
	.byte	W05
	.byte	VOICE	, 16
	.byte	W01
	.byte		N03	, Gs5
	.byte	W06
	.byte		N03	
	.byte	W06
	.byte		N03	
	.byte	W05
	.byte	VOICE	, 17
	.byte	W01
	.byte		N03	
	.byte	W05
	.byte	VOICE	, 16
	.byte	W01
	.byte		N03	, Fs5
	.byte	W06
	.byte			En5
	.byte	W06
	.byte		N03	
	.byte	W06
	.byte		N03	
	.byte	W05
	.byte	VOICE	, 17
	.byte	W01
	.byte		N03	, En6
	.byte	W06
	.byte		N03	
	.byte	W06
	.byte		N03	
	.byte	W06
	.byte			Bn5
	.byte	W06
	.byte		N03	
	.byte	W05
	.byte	VOICE	, 16
	.byte	W01
	.byte		N03	, Cs6, v112
	.byte	W06
	.byte		N03	
	.byte	W06
	.byte			Cs6, v060
	.byte	W05
	.byte	VOICE	, 17
	.byte	W01
	.byte		N03	, Cs5, v112
	.byte	W06
	.byte		N03	
	.byte	W06
	.byte			Cs5, v060
	.byte	W05
	.byte	VOICE	, 16
	.byte	W01
	.byte		N03	, Cs6, v112
	.byte	W06
	.byte		N03	
	.byte	W06
	.byte			Cs6, v060
	.byte	W05
	.byte	VOICE	, 18
	.byte	W01
	.byte		N03	, Cs5, v112
	.byte	W06
	.byte		N03	
	.byte	W06
	.byte			Cs5, v060
	.byte	W05
	.byte	VOICE	, 16
	.byte	W01
	.byte		N03	, Cs6, v112
	.byte	W06
	.byte		N03	
	.byte	W05
	.byte	VOICE	, 19
	.byte	W01
	.byte		N03	, Cs5, v060
	.byte	W06
	.byte		N03	
	.byte	W06
	.byte	W96
	.byte	W96
	.byte	W96
	.byte	W96
	.byte	W96
	.byte	W96
	.byte	W96
	.byte	W96
	.byte	W96
	.byte	W96
	.byte	W96
	.byte	W96
	.byte	W96
	.byte	W96
	.byte	W96
	.byte	W96
	.byte	W96
song029_2_5:
	.byte	W92
	.byte	W03
	.byte	PAN	, c_v
	.byte	W01
	.byte	PEND
song029_2_6:
	.byte	VOICE	, 17
	.byte		N05	, Gs4, v116
	.byte	W06
	.byte		N05	
	.byte	W06
	.byte	VOICE	, 16
	.byte		N05	, Gs3
	.byte	W06
	.byte			Gs4
	.byte	W06
	.byte	VOICE	, 17
	.byte		N11	
	.byte	W12
	.byte	VOICE	, 16
	.byte		N05	, Gs3
	.byte	W06
	.byte	VOICE	, 17
	.byte		N05	, Gs4
	.byte	W06
	.byte	VOICE	, 18
	.byte		N05	, Bn4
	.byte	W06
	.byte	VOICE	, 17
	.byte		N05	, Ds4
	.byte	W06
	.byte		N05	
	.byte	W06
	.byte	VOICE	, 18
	.byte		N11	, Bn3
	.byte	W12
	.byte	VOICE	, 16
	.byte		N05	, Ds4
	.byte	W06
	.byte	VOICE	, 17
	.byte		N05	, Gs4
	.byte	W06
	.byte		N05	
	.byte	W06
	.byte	PEND
	.byte	W96
	.byte	VOICE	, 17
	.byte		N05	, En5
	.byte	W06
	.byte		N05	
	.byte	W06
	.byte	VOICE	, 16
	.byte		N05	, En4
	.byte	W06
	.byte			En5
	.byte	W06
	.byte	VOICE	, 17
	.byte		N05	, Cs5
	.byte	W06
	.byte		N05	
	.byte	W06
	.byte	VOICE	, 16
	.byte		N05	, Cs4
	.byte	W06
	.byte	VOICE	, 17
	.byte		N05	, Cs5
	.byte	W06
	.byte	VOICE	, 18
	.byte		N05	, Gs5
	.byte	W06
	.byte	VOICE	, 17
	.byte		N05	, Gs4
	.byte	W06
	.byte		N05	
	.byte	W06
	.byte	VOICE	, 18
	.byte		N11	, En4
	.byte	W12
	.byte	VOICE	, 16
	.byte		N05	, Gs4
	.byte	W06
	.byte	VOICE	, 17
	.byte		N05	, Cs5
	.byte	W06
	.byte	VOICE	, 18
	.byte		N05	, Gs5
	.byte	W06
	.byte	PATT	
		.word	song029_2_5
	.byte	PATT	
		.word	song029_2_6
	.byte	W96
	.byte	VOICE	, 17
	.byte		N05	, En5, v116
	.byte	W06
	.byte		N05	
	.byte	W06
	.byte	VOICE	, 16
	.byte		N05	, En4
	.byte	W06
	.byte			En5
	.byte	W06
	.byte	VOICE	, 17
	.byte		N05	, Cs5
	.byte	W06
	.byte		N05	
	.byte	W06
	.byte	VOICE	, 16
	.byte		N05	, Cs4
	.byte	W06
	.byte	VOICE	, 17
	.byte		N05	, Cs5
	.byte	W06
	.byte	VOICE	, 18
	.byte		N05	, Gs5
	.byte	W06
	.byte	VOICE	, 17
	.byte		N05	, Gs4
	.byte	W06
	.byte		N05	
	.byte	W06
	.byte	VOICE	, 18
	.byte		N05	, Cs5
	.byte	W06
	.byte			Gs5
	.byte	W06
	.byte	VOICE	, 18
	.byte		N05	
	.byte	W06
	.byte		N05	
	.byte	W06
	.byte		N05	
	.byte	W06
	.byte	W96
	.byte	W96
	.byte	W96
	.byte	W96
	.byte	W96
	.byte	W96
	.byte	W96
	.byte	W96
	.byte	GOTO	
		.word	song029_2_7
	.byte	FINE

	@********************** Track  3 **********************@

	.global song029_3
song029_3:	@ 0x0827785A
	.byte	KEYSH	, 0
	.byte	VOICE	, 21
	.byte	PAN	, c_v-64
	.byte	VOL	, v082
	.byte		N06	, Cn3, v024
	.byte	W18
	.byte			Cn3, v056
	.byte	W18
	.byte			Cn3, v096
	.byte	W18
	.byte			Cn3, v056
	.byte	W18
	.byte			Cn3, v024
	.byte	W18
	.byte			Cn3, v056
	.byte	W06
song029_3_10:
	.byte	W12
	.byte		N06	, Cn3, v096
	.byte	W18
	.byte			Cn3, v056
	.byte	W18
	.byte			Cn3, v024
	.byte	W18
	.byte			Cn3, v056
	.byte	W18
	.byte			Cn3, v096
	.byte	W12
	.byte	PEND
song029_3_11:
	.byte	W06
	.byte		N06	, Cn3, v056
	.byte	W18
	.byte			Cn3, v024
	.byte	W18
	.byte			Cn3, v056
	.byte	W18
	.byte			Cn3, v096
	.byte	W18
	.byte			Cn3, v056
	.byte	W18
	.byte	PEND
	.byte			Cn3, v024
	.byte	W18
	.byte			Cn3, v056
	.byte	W18
	.byte			Cn3, v096
	.byte	W18
	.byte			Cn3, v056
	.byte	W18
	.byte			Cn3, v024
	.byte	W22
	.byte	PAN	, c_v-22
	.byte	W02
song029_3_1:
	.byte		N15	, Cn3, v084
	.byte	W18
	.byte		N04	, An2, v104
	.byte	W18
	.byte		N15	, Cn3, v084
	.byte	W18
	.byte		N05	, An2, v116
	.byte	W18
	.byte		N03	, Cn3, v104
	.byte	W06
	.byte		N17	, Dn3, v116
	.byte	W18
	.byte	PEND
	.byte	PATT	
		.word	song029_3_1
song029_3_2:
	.byte	W18
	.byte		N04	, Gs2, v104
	.byte	W36
	.byte		N05	, Gs2, v116
	.byte	W42
	.byte	PEND
	.byte	PATT	
		.word	song029_3_2
	.byte	PATT	
		.word	song029_3_1
	.byte	PATT	
		.word	song029_3_1
	.byte	PATT	
		.word	song029_3_2
	.byte	PATT	
		.word	song029_3_2
	.byte	W96
	.byte	W96
	.byte	W96
	.byte	W96
	.byte	W96
	.byte	W96
	.byte	W96
	.byte	W96
	.byte	PATT	
		.word	song029_3_1
	.byte	PATT	
		.word	song029_3_1
	.byte	PATT	
		.word	song029_3_2
	.byte	PATT	
		.word	song029_3_2
	.byte	PATT	
		.word	song029_3_1
	.byte	PATT	
		.word	song029_3_1
	.byte	PATT	
		.word	song029_3_2
	.byte	PATT	
		.word	song029_3_2
	.byte	W96
song029_3_4:
	.byte		N06	, An3, v092
	.byte	W12
	.byte		N05	, An3, v112
	.byte	W12
	.byte		N06	, An3, v052
	.byte	W12
	.byte			An3, v092
	.byte	W12
	.byte		N05	, An3, v112
	.byte	W12
	.byte		N06	, An3, v052
	.byte	W12
	.byte		N10	, An3, v112
	.byte	W12
	.byte		N04	, En3, v100
	.byte	W12
	.byte	PEND
song029_3_5:
	.byte		N06	, As3, v092
	.byte	W12
	.byte		N05	, As3, v112
	.byte	W12
	.byte		N06	, As3, v052
	.byte	W12
	.byte			As3, v092
	.byte	W12
	.byte		N05	, As3, v112
	.byte	W12
	.byte		N06	, As3, v052
	.byte	W12
	.byte		N10	, As3, v112
	.byte	W12
	.byte		N04	, Fn3, v100
	.byte	W12
	.byte	PEND
song029_3_6:
	.byte		N06	, Cn4, v092
	.byte	W12
	.byte		N05	, Cn4, v112
	.byte	W12
	.byte		N06	, Cn4, v052
	.byte	W12
	.byte			Cn4, v092
	.byte	W12
	.byte		N05	, Cn4, v112
	.byte	W12
	.byte		N06	, Cn4, v052
	.byte	W12
	.byte		N10	, Cn4, v112
	.byte	W12
	.byte		N04	, Gn3, v100
	.byte	W12
	.byte	PEND
song029_3_3:
	.byte		N06	, Fn3, v092
	.byte	W12
	.byte		N05	, Fn3, v112
	.byte	W12
	.byte		N06	, Fn3, v052
	.byte	W12
	.byte			Fn3, v092
	.byte	W12
	.byte		N05	, Fn3, v112
	.byte	W12
	.byte		N06	, Fn3, v052
	.byte	W12
	.byte		N10	, Fn3, v112
	.byte	W12
	.byte		N04	, Cn3, v100
	.byte	W12
	.byte	PEND
	.byte	PATT	
		.word	song029_3_3
song029_3_7:
	.byte		N06	, Gn3, v092
	.byte	W12
	.byte		N05	, Gn3, v112
	.byte	W12
	.byte		N06	, Gn3, v052
	.byte	W12
	.byte			Gn3, v092
	.byte	W12
	.byte		N05	, Gn3, v112
	.byte	W12
	.byte		N06	, Gn3, v052
	.byte	W12
	.byte		N10	, Gn3, v112
	.byte	W12
	.byte		N04	, Dn3, v100
	.byte	W12
	.byte	PEND
song029_3_8:
	.byte		N06	, Cn3, v092
	.byte	W12
	.byte		N05	, Cn3, v112
	.byte	W12
	.byte		N06	, Cn3, v052
	.byte	W12
	.byte			Cn3, v092
	.byte	W12
	.byte		N05	, Cn3, v112
	.byte	W12
	.byte		N06	, Cn3, v052
	.byte	W12
	.byte		N10	, Cn3, v112
	.byte	W12
	.byte		N04	, Gn3, v100
	.byte	W12
	.byte	PEND
song029_3_9:
	.byte		N06	, Fs3, v092
	.byte	W12
	.byte		N05	, Fs3, v112
	.byte	W12
	.byte		N06	, Fs3, v052
	.byte	W12
	.byte			Fs3, v092
	.byte	W12
	.byte		N05	, Fs3, v112
	.byte	W12
	.byte		N06	, Fs3, v052
	.byte	W12
	.byte		N10	, Fs3, v112
	.byte	W12
	.byte		N04	, Fs3, v100
	.byte	W12
	.byte	PEND
	.byte	PATT	
		.word	song029_3_4
	.byte	PATT	
		.word	song029_3_5
	.byte	PATT	
		.word	song029_3_6
	.byte	PATT	
		.word	song029_3_3
	.byte	PATT	
		.word	song029_3_3
	.byte	PATT	
		.word	song029_3_7
	.byte	PATT	
		.word	song029_3_8
	.byte	PATT	
		.word	song029_3_9
	.byte	W96
	.byte	W96
	.byte	W96
	.byte	W96
	.byte		N15	, Gs3, v096
	.byte	W18
	.byte		N04	, As3, v116
	.byte	W18
	.byte		N09	, Fn3, v084
	.byte	W18
	.byte		N05	, Fn3, v116
	.byte	W12
	.byte		N03	, Ds3, v084
	.byte	W06
	.byte		N05	, Fn3, v116
	.byte	W12
	.byte		N10	, Ds3
	.byte	W12
	.byte	W96
	.byte		N15	, Cn4, v096
	.byte	W18
	.byte		N04	, Cs4, v116
	.byte	W18
	.byte		N09	, Cn4, v084
	.byte	W18
	.byte		N05	, Cs4, v116
	.byte	W12
	.byte		N03	, Cn4, v084
	.byte	W06
	.byte		N05	, Cn4, v116
	.byte	W12
	.byte		N10	, Ds4, v120
	.byte	W12
	.byte	W92
	.byte	W02
	.byte	PAN	, c_v-64
	.byte	W02
	.byte		N06	, Ds3, v024
	.byte	W18
	.byte			Ds3, v056
	.byte	W18
	.byte			Ds3, v096
	.byte	W18
	.byte			Ds3, v056
	.byte	W18
	.byte			Ds3, v024
	.byte	W18
	.byte			Ds3, v056
	.byte	W06
	.byte	W12
	.byte			Ds3, v096
	.byte	W18
	.byte			Ds3, v056
	.byte	W18
	.byte			Ds3, v024
	.byte	W18
	.byte			Ds3, v056
	.byte	W18
	.byte			Ds3, v096
	.byte	W12
	.byte	W06
	.byte			En3, v056
	.byte	W18
	.byte			En3, v024
	.byte	W18
	.byte			En3, v056
	.byte	W18
	.byte			En3, v096
	.byte	W18
	.byte			En3, v056
	.byte	W18
	.byte			En3, v024
	.byte	W18
	.byte			En3, v056
	.byte	W18
	.byte			En3, v096
	.byte	W18
	.byte			En3, v056
	.byte	W18
	.byte			En3, v024
	.byte	W24
	.byte			Cn3
	.byte	W18
	.byte			Cn3, v056
	.byte	W18
	.byte			Cn3, v096
	.byte	W18
	.byte			Cn3, v056
	.byte	W18
	.byte			Cn3, v024
	.byte	W18
	.byte			Cn3, v056
	.byte	W06
	.byte	PATT	
		.word	song029_3_10
	.byte	PATT	
		.word	song029_3_11
	.byte		N06	, Cn3, v024
	.byte	W18
	.byte			Cn3, v056
	.byte	W18
	.byte			Cn3, v096
	.byte	W18
	.byte			Cn3, v056
	.byte	W18
	.byte			Cn3, v024
	.byte	W24
	.byte	GOTO	
		.word	song029_3_1
	.byte	FINE

	@********************** Track  4 **********************@

	.global song029_4
song029_4:	@ 0x08277ADE
	.byte	KEYSH	, 0
	.byte	VOICE	, 22
	.byte	PAN	, c_v+63
	.byte	VOL	, v082
	.byte	W96
	.byte	W96
	.byte	W96
	.byte	W96
song029_4_2:
	.byte	W96
	.byte	W96
song029_4_1:
	.byte		N15	, Cn3, v084
	.byte	W36
	.byte		N15	
	.byte	W36
	.byte		N04	, Cn3, v104
	.byte	W06
	.byte		N17	, Dn3, v116
	.byte	W18
	.byte	PEND
	.byte	PATT	
		.word	song029_4_1
	.byte	W96
	.byte	W96
	.byte	PATT	
		.word	song029_4_1
	.byte	PATT	
		.word	song029_4_1
	.byte	W96
	.byte	W96
	.byte	W96
	.byte	W96
	.byte	W96
	.byte	W96
	.byte	W96
	.byte	W96
	.byte	W96
	.byte	W96
	.byte	PATT	
		.word	song029_4_1
	.byte	PATT	
		.word	song029_4_1
	.byte	W96
	.byte	W96
	.byte	PATT	
		.word	song029_4_1
	.byte	PATT	
		.word	song029_4_1
	.byte	W96
	.byte	W96
	.byte	W96
	.byte	W96
	.byte	W96
	.byte	W96
	.byte	W96
	.byte	W96
	.byte	W96
	.byte	W96
	.byte	W96
	.byte	W96
	.byte	W96
	.byte	W96
	.byte	W96
	.byte	W96
	.byte	W96
	.byte	W96
	.byte	W96
	.byte	W96
	.byte	W96
	.byte	W96
	.byte	W96
	.byte	W96
	.byte	W96
	.byte	W96
	.byte	W96
	.byte	W96
	.byte	W96
	.byte	W96
	.byte	W96
	.byte	W96
	.byte	W96
	.byte	GOTO	
		.word	song029_4_2
	.byte	FINE

	@********************** Track  5 **********************@

	.global song029_5
song029_5:	@ 0x08277B53
	.byte	KEYSH	, 0
	.byte	VOICE	, 23
	.byte	VOL	, v079
	.byte	PAN	, c_v
	.byte	W96
	.byte	W96
	.byte	W96
	.byte	W96
song029_5_8:
	.byte	W96
	.byte	W96
	.byte	W96
	.byte	W96
	.byte	W96
	.byte	W96
	.byte	W96
	.byte	W96
	.byte	W96
	.byte	W96
	.byte	W96
	.byte	W96
	.byte	W96
	.byte	W96
	.byte	W96
	.byte	W96
	.byte	W96
	.byte	W96
	.byte	W96
	.byte	W96
	.byte	W96
	.byte	W96
	.byte	W96
	.byte	W96
	.byte	W96
song029_5_2:
	.byte		N03	, Gn3, v104
	.byte	W06
	.byte			An3
	.byte	W06
	.byte			Bn3
	.byte	W06
	.byte			Dn4
	.byte	W06
	.byte			Cn4
	.byte	W06
	.byte			Dn4
	.byte	W06
	.byte			En4
	.byte	W06
	.byte			Gn4
	.byte	W06
	.byte			Bn4
	.byte	W06
	.byte			An4
	.byte	W06
	.byte			Gn4
	.byte	W06
	.byte			An4
	.byte	W06
	.byte			Gn4
	.byte	W06
	.byte			En4
	.byte	W06
	.byte			Cn4
	.byte	W06
	.byte			Gn3
	.byte	W06
	.byte	PEND
song029_5_3:
	.byte		N03	, Fs3, v104
	.byte	W06
	.byte			Gs3
	.byte	W06
	.byte			Bn3
	.byte	W06
	.byte			Ds4
	.byte	W06
	.byte			Cs4
	.byte	W06
	.byte			Ds4
	.byte	W06
	.byte			En4
	.byte	W06
	.byte			Gs4
	.byte	W06
	.byte			Bn4
	.byte	W06
	.byte			Gs4
	.byte	W06
	.byte			Fs4
	.byte	W06
	.byte			Gs4
	.byte	W06
	.byte			Fs4
	.byte	W06
	.byte			Ds4
	.byte	W06
	.byte			Cs4
	.byte	W06
	.byte			Gs3
	.byte	W06
	.byte	PEND
song029_5_1:
	.byte		N03	, Fs3, v104
	.byte	W06
	.byte			Gs3
	.byte	W06
	.byte			As3
	.byte	W06
	.byte			Cs4
	.byte	W06
	.byte			As3
	.byte	W06
	.byte			Cs4
	.byte	W06
	.byte			Ds4
	.byte	W06
	.byte			Fs4
	.byte	W06
	.byte			As4
	.byte	W06
	.byte			Gs4
	.byte	W06
	.byte			Fs4
	.byte	W06
	.byte			Gs4
	.byte	W06
	.byte			Fs4
	.byte	W06
	.byte			Ds4
	.byte	W06
	.byte			As3
	.byte	W06
	.byte			Fs3
	.byte	W06
	.byte	PEND
song029_5_4:
	.byte		N03	, Fs3, v104
	.byte	W06
	.byte			Gs3
	.byte	W06
	.byte			An3
	.byte	W06
	.byte			Cn4
	.byte	W06
	.byte			An3
	.byte	W06
	.byte			Cn4
	.byte	W06
	.byte			Ds4
	.byte	W06
	.byte			Fs4
	.byte	W06
	.byte			An4
	.byte	W06
	.byte			Gs4
	.byte	W06
	.byte			Fs4
	.byte	W06
	.byte			Gs4
	.byte	W06
	.byte			Fs4
	.byte	W06
	.byte			Ds4
	.byte	W06
	.byte			Cn4
	.byte	W06
	.byte			An3
	.byte	W06
	.byte	PEND
song029_5_5:
	.byte		N03	, Gn3, v104
	.byte	W06
	.byte			Gs3
	.byte	W06
	.byte			Cn4
	.byte	W06
	.byte			Ds4
	.byte	W06
	.byte			Cn4
	.byte	W06
	.byte			Ds4
	.byte	W06
	.byte			Fn4
	.byte	W06
	.byte			Gn4
	.byte	W06
	.byte			As4
	.byte	W06
	.byte			Gs4
	.byte	W06
	.byte			Gn4
	.byte	W06
	.byte			Gs4
	.byte	W06
	.byte			Gn4
	.byte	W06
	.byte			Ds4
	.byte	W06
	.byte			Cn4
	.byte	W06
	.byte			Gs3
	.byte	W06
	.byte	PEND
song029_5_6:
	.byte		N03	, Fn3, v104
	.byte	W06
	.byte			Gs3
	.byte	W06
	.byte			Bn3
	.byte	W06
	.byte			Dn4
	.byte	W06
	.byte			Bn3
	.byte	W06
	.byte			Dn4
	.byte	W06
	.byte			Fn4
	.byte	W06
	.byte			Gs4
	.byte	W06
	.byte			Bn4
	.byte	W06
	.byte			As4
	.byte	W06
	.byte			Gs4
	.byte	W06
	.byte			As4
	.byte	W06
	.byte			Gs4
	.byte	W06
	.byte			Fn4
	.byte	W06
	.byte			Dn4
	.byte	W06
	.byte			Gs3
	.byte	W06
	.byte	PEND
	.byte	PATT	
		.word	song029_5_1
song029_5_7:
	.byte		N03	, Fs3, v104
	.byte	W06
	.byte			Gs3
	.byte	W06
	.byte			Cn4
	.byte	W06
	.byte			Ds4
	.byte	W06
	.byte			Cn4
	.byte	W06
	.byte			Ds4
	.byte	W06
	.byte			Fs4
	.byte	W06
	.byte			Gs4
	.byte	W06
	.byte			An4
	.byte	W06
	.byte			Gs4
	.byte	W06
	.byte			Fs4
	.byte	W06
	.byte			Gs4
	.byte	W06
	.byte			Fs4
	.byte	W06
	.byte			Ds4
	.byte	W06
	.byte			Cn4
	.byte	W06
	.byte			An3
	.byte	W06
	.byte	PEND
	.byte	PATT	
		.word	song029_5_2
	.byte	PATT	
		.word	song029_5_3
	.byte	PATT	
		.word	song029_5_1
	.byte	PATT	
		.word	song029_5_4
	.byte	PATT	
		.word	song029_5_5
	.byte	PATT	
		.word	song029_5_6
	.byte	PATT	
		.word	song029_5_1
	.byte	PATT	
		.word	song029_5_7
	.byte	W96
	.byte	W96
	.byte	W96
	.byte	W96
	.byte	W96
	.byte	W96
	.byte	W96
	.byte	W96
	.byte	W96
	.byte	W96
	.byte	W96
	.byte	W96
	.byte	W96
	.byte	W96
	.byte	W96
	.byte	W96
	.byte	GOTO	
		.word	song029_5_8
	.byte	FINE

	@********************** Track  6 **********************@

	.global song029_6
song029_6:	@ 0x08277CB0
	.byte	KEYSH	, 0
	.byte	VOICE	, 24
	.byte	PAN	, c_v-22
	.byte	VOL	, v076
	.byte	TUNE	, c_v-10
	.byte	W96
	.byte	W96
	.byte	W96
	.byte	W96
song029_6_3:
	.byte	W96
	.byte	W96
	.byte	W96
	.byte	W96
	.byte	W96
	.byte	W96
	.byte	W96
	.byte	W96
	.byte	W96
	.byte	W96
	.byte	W96
	.byte	W96
	.byte	W96
	.byte	W96
	.byte	W96
	.byte	W96
song029_6_1:
	.byte	W02
	.byte		N02	, Gn3, v120
	.byte	W06
	.byte			Gs3
	.byte	W06
	.byte			As3
	.byte	W06
	.byte			Dn4
	.byte	W06
	.byte			Cn4
	.byte	W06
	.byte			Dn4
	.byte	W06
	.byte			Ds4
	.byte	W06
	.byte			Gn4
	.byte	W06
	.byte			As4
	.byte	W06
	.byte			Gs4
	.byte	W06
	.byte			Gn4
	.byte	W06
	.byte			Gs4
	.byte	W06
	.byte			Gn4
	.byte	W06
	.byte			Ds4
	.byte	W06
	.byte			Cn4
	.byte	W06
	.byte			As3
	.byte	W04
	.byte	PEND
	.byte	PATT	
		.word	song029_6_1
song029_6_2:
	.byte	W02
	.byte		N02	, Fs3, v120
	.byte	W06
	.byte			Gs3
	.byte	W06
	.byte			As3
	.byte	W06
	.byte			Cs4
	.byte	W06
	.byte			Bn3
	.byte	W06
	.byte			Cs4
	.byte	W06
	.byte			Ds4
	.byte	W06
	.byte			Fs4
	.byte	W06
	.byte			As4
	.byte	W06
	.byte			Gs4
	.byte	W06
	.byte			Fs4
	.byte	W06
	.byte			Gs4
	.byte	W06
	.byte			Fs4
	.byte	W06
	.byte			Ds4
	.byte	W06
	.byte			Bn3
	.byte	W06
	.byte			Gs3
	.byte	W04
	.byte	PEND
	.byte	PATT	
		.word	song029_6_2
	.byte	W96
	.byte	W96
	.byte	W96
	.byte	W96
	.byte	W96
	.byte	W96
	.byte	W96
	.byte	W96
	.byte	W96
	.byte	W96
	.byte	W96
	.byte	W96
	.byte	W96
	.byte	W96
	.byte	W96
	.byte	W96
	.byte	W96
	.byte	W96
	.byte	W96
	.byte	W96
	.byte	W96
	.byte	W96
	.byte	W96
	.byte	W96
	.byte	W96
	.byte	W96
	.byte	W96
	.byte	W96
	.byte	W96
	.byte	W96
	.byte	W96
	.byte	W96
	.byte	W96
	.byte	W96
	.byte	W96
	.byte	W96
	.byte	W96
	.byte	GOTO	
		.word	song029_6_3
	.byte	FINE

	@********************** Track  7 **********************@

	.global song029_7
song029_7:	@ 0x08277D4B
	.byte	KEYSH	, 0
	.byte	VOICE	, 82
	.byte	PAN	, c_v
	.byte	VOL	, v085
	.byte		N72	, Ds2, v127
	.byte	W48
	.byte		TIE	, Cn2
	.byte	W24
	.byte		N72	, As2
	.byte	W24
	.byte	W48
	.byte		N48	, Cn3
	.byte		N48	, Gn3
	.byte	W06
	.byte		EOT	, Cn2
	.byte	W36
	.byte		TIE	, Bn2, v100
	.byte	W06
	.byte		N72	, Fs4, v127
	.byte	W72
	.byte			Bn3, v108
	.byte	W24
	.byte		EOT	, Bn2
	.byte		N96	, Gs2, v100
	.byte	W48
	.byte		N48	, Fs3, v120
	.byte	W48
song029_7_3:
	.byte	PAN	, c_v
	.byte		N48	, Gn3, v108
	.byte	W48
	.byte			Gn4, v127
	.byte	W48
	.byte			Fn4, v120
	.byte	W48
	.byte			Dn4, v108
	.byte	W48
	.byte		N96	, Bn3, v088
	.byte	W96
	.byte		N84	, Fs4, v108
	.byte	W96
	.byte		N48	, Gn2
	.byte		N48	, Gn3
	.byte	W48
	.byte			Gn3, v127
	.byte		N48	, Gn4
	.byte	W48
	.byte			Fn3, v120
	.byte		N48	, Fn4
	.byte	W48
	.byte			Dn3, v108
	.byte		N48	, Dn4
	.byte	W48
	.byte		N96	, Bn2, v088
	.byte		N96	, Bn3
	.byte	W96
	.byte		N84	, Fs3, v108
	.byte		N84	, Fs4
	.byte	W96
	.byte	W96
	.byte	W96
	.byte	W96
	.byte	W92
	.byte	W02
	.byte	PAN	, c_v+21
	.byte	W02
	.byte		N52	, Gn3, v096
	.byte	W48
	.byte			Gs3, v100
	.byte	W48
	.byte			As3, v104
	.byte	W48
	.byte			Gn3, v084
	.byte	W48
	.byte			Fs3, v080
	.byte	W48
	.byte			As3, v092
	.byte	W48
	.byte		N90	, Bn3, v100
	.byte	W96
song029_7_1:
	.byte		N03	, Gn4, v127
	.byte	W06
	.byte			Gs4
	.byte	W06
	.byte			As4
	.byte	W06
	.byte			Dn5
	.byte	W06
	.byte			Cn5
	.byte	W06
	.byte			Dn5
	.byte	W06
	.byte			Ds5
	.byte	W06
	.byte			Gn5
	.byte	W06
	.byte			As5
	.byte	W06
	.byte			Gs5
	.byte	W06
	.byte			Gn5
	.byte	W06
	.byte			Gs5
	.byte	W06
	.byte			Gn5
	.byte	W06
	.byte			Ds5
	.byte	W06
	.byte			Cn5
	.byte	W06
	.byte			As4
	.byte	W06
	.byte	PEND
	.byte	PATT	
		.word	song029_7_1
	.byte		N03	, Fs4, v127
	.byte	W06
	.byte			Gs4
	.byte	W06
	.byte			As4
	.byte	W06
	.byte			Cs5
	.byte	W06
	.byte			Bn4
	.byte	W06
	.byte			Cs5
	.byte	W06
	.byte			Ds5
	.byte	W06
	.byte			Fs5
	.byte	W06
	.byte			As5
	.byte	W06
	.byte			Gs5
	.byte	W06
	.byte			Fs5
	.byte	W06
	.byte			Gs5
	.byte	W06
	.byte			Fs5
	.byte	W06
	.byte			Ds5
	.byte	W06
	.byte			Bn4
	.byte	W06
	.byte			Gs4
	.byte	W06
	.byte			Fs4
	.byte	W06
	.byte			Gs4
	.byte	W06
	.byte			As4
	.byte	W06
	.byte			Cs5
	.byte	W06
	.byte			Bn4
	.byte	W06
	.byte			Cs5
	.byte	W06
	.byte			Ds5
	.byte	W06
	.byte			Fs5
	.byte	W06
	.byte			As5
	.byte	W06
	.byte			Gs5
	.byte	W06
	.byte			Fs5
	.byte	W06
	.byte			Gs5
	.byte	W06
	.byte			Fs5
	.byte	W06
	.byte			Ds5
	.byte	W06
	.byte			Bn4
	.byte	W06
	.byte			Gs4
	.byte	W04
	.byte	PAN	, c_v+21
	.byte	W02
	.byte		N48	, Ds4, v076
	.byte	W48
	.byte			Cn4, v072
	.byte	W48
	.byte			As3, v064
	.byte	W48
	.byte			Gn3, v060
	.byte	W48
	.byte		N24	, Fs3
	.byte	W24
	.byte		N72	, Cs4, v072
	.byte	W72
	.byte		N96	, Ds4, v076
	.byte	W96
	.byte	W96
	.byte			Cn4, v120
	.byte	W96
song029_7_2:
	.byte		N48	, Bn3, v116
	.byte	W48
	.byte			Fs4, v127
	.byte	W48
	.byte	PEND
	.byte		N44	, Fn4
	.byte	W44
	.byte	W02
	.byte		N48	, As3
	.byte	W48
	.byte			An3, v120
	.byte	W02
	.byte	W48
	.byte			En4, v127
	.byte	W48
	.byte		N96	, Cn4, v120
	.byte	W96
	.byte	PATT	
		.word	song029_7_2
	.byte		N44	, Fn4, v127
	.byte	W44
	.byte	W02
	.byte		N48	, As3
	.byte	W48
	.byte		N84	, An3, v120
	.byte	W02
	.byte	W96
	.byte		N96	, En3, v096
	.byte		N96	, Cn4, v120
	.byte	W92
	.byte	W01
	.byte		TIE	, Cs3, v096
	.byte	W03
	.byte		N48	, Bn3, v116
	.byte	W48
	.byte			Fs4, v127
	.byte	W44
	.byte	W01
	.byte		TIE	, Ds3, v096
	.byte	W02
	.byte		EOT	, Cs3
	.byte	W01
	.byte		N44	, Fn4, v127
	.byte	W44
	.byte	W02
	.byte		N48	, As3
	.byte	W44
	.byte	W03
	.byte		TIE	, En3, v096
	.byte	W01
	.byte		N48	, An3, v120
	.byte	W01
	.byte		EOT	, Ds3
	.byte	W01
	.byte	W48
	.byte		N48	, En4, v127
	.byte	W44
	.byte	W01
	.byte		TIE	, Ds3, v096
	.byte	W02
	.byte		EOT	, En3
	.byte	W01
	.byte		N96	, Cn4, v120
	.byte	W92
	.byte	W01
	.byte		TIE	, Dn3, v096
	.byte	W02
	.byte		EOT	, Ds3
	.byte	W01
	.byte		N48	, Bn3, v116
	.byte	W48
	.byte			Fs4, v127
	.byte	W44
	.byte	W01
	.byte		N96	, Cs3, v096
	.byte	W02
	.byte		EOT	, Dn3
	.byte	W01
	.byte		N44	, Fn4, v127
	.byte	W44
	.byte	W02
	.byte		N48	, As3
	.byte	W44
	.byte	W03
	.byte		N90	, Cn3, v096
	.byte	W01
	.byte		N84	, An3, v120
	.byte	W02
	.byte	W92
	.byte	W02
	.byte		N66	, Ds3, v112
	.byte	W02
	.byte	W68
	.byte	W02
	.byte		TIE	, Cs3, v104
	.byte	W24
	.byte	W02
	.byte	W80
	.byte	W03
	.byte		EOT	
	.byte	W11
	.byte		N66	, Fs3
	.byte	W02
	.byte	W68
	.byte	W02
	.byte		TIE	, Bn3, v112
	.byte	W24
	.byte	W02
	.byte	W80
	.byte	W03
	.byte		EOT	
	.byte	W10
	.byte		N48	, Gs3, v096
	.byte	W01
	.byte		N66	, Ds4, v127
	.byte	W02
	.byte	W44
	.byte	W01
	.byte		N48	, Fs3, v096
	.byte	W24
	.byte	W01
	.byte		TIE	, Cs4, v124
	.byte	W23
	.byte		N48	, En3, v096
	.byte	W03
	.byte	W44
	.byte	W01
	.byte			Ds3
	.byte	W36
	.byte	W02
	.byte		EOT	, Cs4
	.byte	W10
	.byte		N48	, As3
	.byte	W01
	.byte		N66	, Fs4, v124
	.byte	W02
	.byte	W44
	.byte	W01
	.byte		N48	, Fs3, v096
	.byte	W24
	.byte	W01
	.byte		N44	, Bn4, v127
	.byte	W23
	.byte		N48	, Gs3, v096
	.byte	W03
	.byte	W22
	.byte		N13	, As4, v127
	.byte	W12
	.byte		N54	, Gs4, v124
	.byte	W11
	.byte		N48	, Bn3, v096
	.byte	W48
	.byte	W03
	.byte		N72	, Bn1, v120
	.byte	W48
	.byte		TIE	, Gs1
	.byte	W24
	.byte		N72	, Fs2
	.byte	W24
	.byte	W48
	.byte		N48	, Gs2
	.byte		N48	, Ds3
	.byte	W06
	.byte		EOT	, Gs1
	.byte	W36
	.byte		TIE	, Gn2, v112
	.byte	W06
	.byte		N72	, Dn4, v120
	.byte	W72
	.byte			Gn3, v112
	.byte	W24
	.byte		EOT	, Gn2
	.byte		N96	, En2
	.byte	W48
	.byte		N48	, Dn3, v120
	.byte	W48
	.byte		N72	, Ds2
	.byte		N72	, Gn3, v112
	.byte	W48
	.byte		TIE	, Cn2, v120
	.byte	W24
	.byte		N48	, Ds3
	.byte	W24
	.byte	W24
	.byte		N36	, As3
	.byte	W24
	.byte		N48	, Cn3
	.byte	W06
	.byte		EOT	, Cn2
	.byte	W06
	.byte		N36	, Cn4
	.byte	W30
	.byte		TIE	, Bn2, v092
	.byte	W06
	.byte		N72	, Fs4, v120
	.byte	W72
	.byte			Bn3, v100
	.byte	W24
	.byte		EOT	, Bn2
	.byte		N96	, Gs2, v092
	.byte	W48
	.byte		N48	, Fs3, v112
	.byte	W48
	.byte	GOTO	
		.word	song029_7_3
	.byte	FINE

	@********************** Track  8 **********************@

	.global song029_8
song029_8:	@ 0x08277FAC
	.byte	KEYSH	, 0
	.byte	VOICE	, 25
	.byte	PAN	, c_v
	.byte	VOL	, v082
	.byte		N48	, Cn2, v104
	.byte	W72
	.byte	W01
	.byte			As1
	.byte	W23
song029_8_11:
	.byte	W48
	.byte	W01
	.byte		N24	, Gn1, v104
	.byte	W44
	.byte	W03
	.byte	PEND
song029_8_12:
	.byte	W01
	.byte		N72	, Gs1, v104
	.byte	W92
	.byte	W03
	.byte	PEND
song029_8_13:
	.byte	W01
	.byte		N24	, Ds2, v104
	.byte	W48
	.byte		N42	, Bn1
	.byte	W44
	.byte	W02
	.byte	VOICE	, 13
	.byte	W01
	.byte	PEND
song029_8_1:
	.byte	W01
	.byte		N06	, Cn3, v127
	.byte	W12
	.byte		N15	, Cn2, v124
	.byte	W18
	.byte		N06	
	.byte	W12
	.byte		N06	
	.byte	W06
	.byte		N12	, Ds2
	.byte	W18
	.byte		N18	, Cn2
	.byte	W18
	.byte		N06	, Gn2
	.byte	W06
	.byte			Fn2
	.byte	W05
	.byte	PEND
	.byte	PATT	
		.word	song029_8_1
song029_8_2:
	.byte	W01
	.byte		N06	, Gs2, v127
	.byte	W12
	.byte		N15	, Gs1, v124
	.byte	W18
	.byte		N06	
	.byte	W12
	.byte		N06	
	.byte	W06
	.byte		N12	, Bn1
	.byte	W18
	.byte		N18	, Gs1
	.byte	W18
	.byte		N06	, Ds2
	.byte	W06
	.byte			Cs2
	.byte	W05
	.byte	PEND
	.byte	PATT	
		.word	song029_8_2
	.byte	PATT	
		.word	song029_8_1
	.byte	PATT	
		.word	song029_8_1
	.byte	PATT	
		.word	song029_8_2
	.byte	PATT	
		.word	song029_8_2
	.byte	PATT	
		.word	song029_8_1
	.byte	PATT	
		.word	song029_8_1
	.byte	PATT	
		.word	song029_8_2
	.byte	PATT	
		.word	song029_8_2
	.byte	PATT	
		.word	song029_8_1
	.byte	PATT	
		.word	song029_8_1
	.byte	PATT	
		.word	song029_8_2
	.byte	PATT	
		.word	song029_8_2
song029_8_3:
	.byte	W01
	.byte		N07	, Cn2, v124
	.byte	W12
	.byte		N11	
	.byte	W12
	.byte			Ds2
	.byte	W18
	.byte		N05	, Cn2
	.byte	W12
	.byte			Ds2
	.byte	W12
	.byte			Cn2
	.byte	W06
	.byte		N11	, As1
	.byte	W12
	.byte			Fn2
	.byte	W11
	.byte	PEND
	.byte	W01
	.byte		N06	, Cn2
	.byte	W12
	.byte		N11	
	.byte	W12
	.byte			Ds2
	.byte	W18
	.byte		N05	, Cn2
	.byte	W06
	.byte			Ds2
	.byte	W06
	.byte			Gn2
	.byte	W06
	.byte			Fn2
	.byte	W12
	.byte			Gn2
	.byte	W12
	.byte			Ds2
	.byte	W06
	.byte			Cn2
	.byte	W05
	.byte	W01
	.byte		N11	, Fs2
	.byte	W18
	.byte			Ds2
	.byte	W18
	.byte		N05	
	.byte	W06
	.byte			Cs2
	.byte	W06
	.byte		N17	, Bn1
	.byte	W18
	.byte		N11	, Bn2
	.byte	W18
	.byte			Fs2
	.byte	W11
	.byte	W01
	.byte			Gs2
	.byte	W18
	.byte			Gs1
	.byte	W18
	.byte			Gs2
	.byte	W18
	.byte			Gs1
	.byte	W18
	.byte		N05	, Gs2
	.byte	W12
	.byte		N11	, Gs1
	.byte	W11
	.byte	PATT	
		.word	song029_8_1
	.byte	PATT	
		.word	song029_8_1
	.byte	PATT	
		.word	song029_8_2
	.byte	PATT	
		.word	song029_8_2
	.byte	PATT	
		.word	song029_8_3
song029_8_5:
	.byte	W01
	.byte		N11	, An1, v120
	.byte	W12
	.byte		N18	, An2, v127
	.byte	W24
	.byte		N12	, An1, v120
	.byte	W24
	.byte			An2, v127
	.byte	W24
	.byte		N11	, An1, v120
	.byte	W11
	.byte	PEND
song029_8_6:
	.byte	W01
	.byte		N11	, Cs2, v120
	.byte	W12
	.byte		N18	, Cs3, v127
	.byte	W24
	.byte		N12	, Cs2, v120
	.byte	W24
	.byte			Cs3, v127
	.byte	W24
	.byte		N11	, Cs2, v120
	.byte	W11
	.byte	PEND
song029_8_7:
	.byte	W01
	.byte		N11	, Ds2, v120
	.byte	W12
	.byte		N18	, Ds3, v127
	.byte	W24
	.byte		N12	, Ds2, v120
	.byte	W24
	.byte			Ds3, v127
	.byte	W24
	.byte		N11	, Ds2, v120
	.byte	W11
	.byte	PEND
song029_8_4:
	.byte	W01
	.byte		N11	, Gs1, v120
	.byte	W12
	.byte		N18	, Gs2, v127
	.byte	W24
	.byte		N12	, Cn2, v120
	.byte	W24
	.byte		N11	, Ds2
	.byte	W12
	.byte		N23	, Gs2, v127
	.byte	W23
	.byte	PEND
song029_8_8:
	.byte	W01
	.byte		N11	, Fn1, v120
	.byte	W12
	.byte		N18	, Fn2, v127
	.byte	W24
	.byte		N12	, Fn1, v120
	.byte	W24
	.byte			Fn2, v127
	.byte	W24
	.byte		N11	, Fn1, v120
	.byte	W11
	.byte	PEND
song029_8_9:
	.byte	W01
	.byte		N11	, As1, v120
	.byte	W12
	.byte		N18	, As2, v127
	.byte	W24
	.byte		N12	, As1, v120
	.byte	W24
	.byte			As2, v127
	.byte	W24
	.byte		N11	, As1, v120
	.byte	W11
	.byte	PEND
song029_8_10:
	.byte	W01
	.byte		N11	, Ds1, v120
	.byte	W12
	.byte		N18	, Ds2, v127
	.byte	W24
	.byte		N12	, Ds1, v120
	.byte	W24
	.byte			Ds2, v127
	.byte	W24
	.byte		N11	, Ds1, v120
	.byte	W11
	.byte	PEND
	.byte	PATT	
		.word	song029_8_4
	.byte	PATT	
		.word	song029_8_5
	.byte	PATT	
		.word	song029_8_6
	.byte	PATT	
		.word	song029_8_7
	.byte	PATT	
		.word	song029_8_4
	.byte	PATT	
		.word	song029_8_8
	.byte	PATT	
		.word	song029_8_9
	.byte	PATT	
		.word	song029_8_10
	.byte	PATT	
		.word	song029_8_4
	.byte	W01
	.byte		N18	, Gs1, v120
	.byte	W36
	.byte			Fs1, v127
	.byte	W36
	.byte			Ds2
	.byte	W23
	.byte	W96
	.byte	W01
	.byte		N12	, Ds1, v120
	.byte	W12
	.byte		N18	, Ds2, v127
	.byte	W24
	.byte		N12	, Ds1, v120
	.byte	W24
	.byte			Ds2, v127
	.byte	W12
	.byte		N24	, Gs1
	.byte	W23
	.byte	W96
	.byte	W01
	.byte		N12	, Gs1, v120
	.byte	W12
	.byte		N06	, Gs2
	.byte	W06
	.byte			Ds2
	.byte	W12
	.byte			Gs2
	.byte	W06
	.byte		N12	, Fs2
	.byte	W12
	.byte			Gs1
	.byte	W12
	.byte		N06	, Fs2
	.byte	W06
	.byte			Ds2
	.byte	W12
	.byte			Fs2
	.byte	W06
	.byte		N12	, Fn2
	.byte	W11
	.byte	W01
	.byte			Gs1
	.byte	W12
	.byte		N06	, En2
	.byte	W06
	.byte			Ds2
	.byte	W12
	.byte			En2
	.byte	W06
	.byte		N12	, Ds2
	.byte	W12
	.byte			Gs1
	.byte	W12
	.byte		N06	, Ds2
	.byte	W06
	.byte			Dn2
	.byte	W12
	.byte			Ds2
	.byte	W06
	.byte		N12	, Dn2
	.byte	W11
	.byte	W01
	.byte			Ds1
	.byte	W18
	.byte			Ds2, v127
	.byte	W18
	.byte		N18	, As1, v120
	.byte	W24
	.byte		N06	, Ds2, v127
	.byte	W06
	.byte		N18	, Ds1, v120
	.byte	W18
	.byte		N12	, Ds2, v127
	.byte	W11
	.byte	W01
	.byte			Gs1, v120
	.byte	W12
	.byte		N06	, Gs2
	.byte	W06
	.byte			Ds2
	.byte	W12
	.byte			Gs2
	.byte	W06
	.byte		N12	, Fs2
	.byte	W12
	.byte			Gs1
	.byte	W12
	.byte		N06	, Gs2
	.byte	W06
	.byte			Ds2
	.byte	W12
	.byte			Gs2
	.byte	W06
	.byte		N12	, Gs1
	.byte	W11
	.byte	VOICE	, 25
	.byte	W01
	.byte		N48	, Gs1, v104
	.byte	W72
	.byte			Fs1
	.byte	W23
	.byte	W48
	.byte	W01
	.byte		N24	, Ds1
	.byte	W44
	.byte	W03
	.byte	W01
	.byte		N72	, En1
	.byte	W92
	.byte	W03
	.byte	W01
	.byte		N24	, Bn1
	.byte	W48
	.byte		N42	, Gn1
	.byte	W44
	.byte	W03
	.byte	W01
	.byte		N48	, Cn2
	.byte	W72
	.byte			As1
	.byte	W23
	.byte	PATT	
		.word	song029_8_11
	.byte	PATT	
		.word	song029_8_12
	.byte	PATT	
		.word	song029_8_13
	.byte	GOTO	
		.word	song029_8_1
	.byte	FINE

	@********************** Track  9 **********************@

	.global song029_9
song029_9:	@ 0x08278230
	.byte	KEYSH	, 0
	.byte	VOICE	, 89
	.byte	VOL	, v051
	.byte	PAN	, c_v-64
	.byte	W96
	.byte	W96
	.byte	W96
song029_9_3:
	.byte	W48
	.byte	W01
	.byte		N03	, Cn2, v124
	.byte	W06
	.byte			Dn2
	.byte	W06
	.byte			En2
	.byte	W06
	.byte			Fs2
	.byte	W06
	.byte			Gs2
	.byte	W06
	.byte			Cn3
	.byte	W06
	.byte			En3
	.byte	W06
	.byte			Gs3
	.byte	W05
	.byte	PEND
song029_9_1:
	.byte	W01
	.byte		N04	, Cn5, v124
	.byte	W18
	.byte			Cn5, v076
	.byte	W18
	.byte		N04	
	.byte	W18
	.byte		N04	
	.byte	W24
	.byte		N04	
	.byte	W17
	.byte	PEND
	.byte	PATT	
		.word	song029_9_1
	.byte	PATT	
		.word	song029_9_1
song029_9_2:
	.byte	W01
	.byte		N04	, Cn5, v124
	.byte	W06
	.byte			Cn5, v076
	.byte	W06
	.byte		N04	
	.byte	W24
	.byte		N04	
	.byte	W12
	.byte			Cn5, v124
	.byte	W06
	.byte			Cn5, v076
	.byte	W06
	.byte		N04	
	.byte	W32
	.byte	W03
	.byte	PEND
	.byte	PATT	
		.word	song029_9_1
	.byte	PATT	
		.word	song029_9_1
	.byte	PATT	
		.word	song029_9_1
	.byte	PATT	
		.word	song029_9_2
	.byte	W96
	.byte	W96
	.byte	W96
	.byte	W96
	.byte	W96
	.byte	W96
	.byte	W96
	.byte	W96
	.byte	W96
	.byte	W96
	.byte	W96
	.byte	W96
	.byte	W96
	.byte	W96
	.byte	W96
	.byte	W96
	.byte	PATT	
		.word	song029_9_3
	.byte	PATT	
		.word	song029_9_1
	.byte	PATT	
		.word	song029_9_1
	.byte	PATT	
		.word	song029_9_1
	.byte	PATT	
		.word	song029_9_2
	.byte	PATT	
		.word	song029_9_1
	.byte	PATT	
		.word	song029_9_1
	.byte	PATT	
		.word	song029_9_1
	.byte	PATT	
		.word	song029_9_2
	.byte	PATT	
		.word	song029_9_1
	.byte	PATT	
		.word	song029_9_1
	.byte	PATT	
		.word	song029_9_1
	.byte	PATT	
		.word	song029_9_2
	.byte	PATT	
		.word	song029_9_1
	.byte	PATT	
		.word	song029_9_1
	.byte	PATT	
		.word	song029_9_1
	.byte	PATT	
		.word	song029_9_2
song029_9_4:
	.byte	W01
	.byte		N04	, Cn5, v076
	.byte	W06
	.byte			Cn5, v064
	.byte	W18
	.byte			Cn5, v076
	.byte	W06
	.byte			Cn5, v064
	.byte	W18
	.byte			Cn5, v076
	.byte	W06
	.byte			Cn5, v064
	.byte	W18
	.byte			Cn5, v076
	.byte	W06
	.byte			Cn5, v064
	.byte	W17
	.byte	PEND
	.byte	PATT	
		.word	song029_9_4
	.byte	PATT	
		.word	song029_9_4
	.byte	PATT	
		.word	song029_9_4
	.byte	PATT	
		.word	song029_9_1
	.byte	PATT	
		.word	song029_9_1
	.byte	PATT	
		.word	song029_9_1
	.byte	PATT	
		.word	song029_9_1
	.byte	W96
	.byte	W96
	.byte	W96
	.byte	W96
	.byte	PATT	
		.word	song029_9_4
	.byte	PATT	
		.word	song029_9_4
	.byte	PATT	
		.word	song029_9_4
	.byte	PATT	
		.word	song029_9_3
	.byte	GOTO	
		.word	song029_9_1
	.byte	FINE

	@********************** Track  10 **********************@

	.global song029_10
song029_10:	@ 0x08278354
	.byte	KEYSH	, 0
	.byte	VOICE	, 89
	.byte	VOL	, v051
	.byte	PAN	, c_v-22
	.byte	W96
	.byte	W96
	.byte	W96
song029_10_3:
	.byte	W52
	.byte		N03	, Cs2, v124
	.byte	W06
	.byte			Ds2
	.byte	W06
	.byte			Fn2
	.byte	W06
	.byte			Gn2
	.byte	W06
	.byte			As2
	.byte	W06
	.byte			Dn3
	.byte	W06
	.byte			Fs3
	.byte	W06
	.byte			As3
	.byte	W02
	.byte	PEND
song029_10_1:
	.byte	W07
	.byte		N04	, Cn5, v076
	.byte	W24
	.byte		N04	
	.byte	W12
	.byte		N04	
	.byte	W06
	.byte			Cn5, v124
	.byte	W18
	.byte			Cn5, v076
	.byte	W28
	.byte	W01
	.byte	PEND
	.byte	PATT	
		.word	song029_10_1
	.byte	PATT	
		.word	song029_10_1
song029_10_2:
	.byte	W19
	.byte		N04	, Cn5, v124
	.byte	W06
	.byte			Cn5, v076
	.byte	W06
	.byte		N04	
	.byte	W12
	.byte		N04	
	.byte	W24
	.byte			Cn5, v124
	.byte	W06
	.byte			Cn5, v076
	.byte	W06
	.byte		N04	
	.byte	W17
	.byte	PEND
	.byte	PATT	
		.word	song029_10_1
	.byte	PATT	
		.word	song029_10_1
	.byte	PATT	
		.word	song029_10_1
	.byte	PATT	
		.word	song029_10_2
	.byte	W96
	.byte	W96
	.byte	W96
	.byte	W96
	.byte	W96
	.byte	W96
	.byte	W96
	.byte	W96
	.byte	W96
	.byte	W96
	.byte	W96
	.byte	W96
	.byte	W96
	.byte	W96
	.byte	W96
	.byte	W96
	.byte	PATT	
		.word	song029_10_3
	.byte	PATT	
		.word	song029_10_1
	.byte	PATT	
		.word	song029_10_1
	.byte	PATT	
		.word	song029_10_1
	.byte	PATT	
		.word	song029_10_1
	.byte	PATT	
		.word	song029_10_1
	.byte	PATT	
		.word	song029_10_1
	.byte	PATT	
		.word	song029_10_1
	.byte	PATT	
		.word	song029_10_1
	.byte	PATT	
		.word	song029_10_1
	.byte	PATT	
		.word	song029_10_1
	.byte	PATT	
		.word	song029_10_1
	.byte	PATT	
		.word	song029_10_1
	.byte	PATT	
		.word	song029_10_1
	.byte	PATT	
		.word	song029_10_1
	.byte	PATT	
		.word	song029_10_1
	.byte	PATT	
		.word	song029_10_1
song029_10_4:
	.byte	W13
	.byte		N04	, Cn5, v076
	.byte	W06
	.byte			Cn5, v064
	.byte	W18
	.byte			Cn5, v076
	.byte	W06
	.byte			Cn5, v064
	.byte	W18
	.byte			Cn5, v076
	.byte	W06
	.byte			Cn5, v064
	.byte	W18
	.byte			Cn5, v076
	.byte	W06
	.byte			Cn5, v064
	.byte	W05
	.byte	PEND
	.byte	PATT	
		.word	song029_10_4
	.byte	PATT	
		.word	song029_10_4
	.byte	PATT	
		.word	song029_10_4
	.byte	PATT	
		.word	song029_10_1
	.byte	PATT	
		.word	song029_10_1
	.byte	PATT	
		.word	song029_10_1
	.byte	PATT	
		.word	song029_10_1
	.byte	W96
	.byte	W96
	.byte	W96
	.byte	W96
	.byte	PATT	
		.word	song029_10_4
	.byte	PATT	
		.word	song029_10_4
	.byte	PATT	
		.word	song029_10_4
	.byte	PATT	
		.word	song029_10_3
	.byte	GOTO	
		.word	song029_10_1
	.byte	W01
	.byte	FINE

	@********************** Track  11 **********************@

	.global song029_11
song029_11:	@ 0x08278479
	.byte	KEYSH	, 0
	.byte	VOICE	, 91
	.byte	VOL	, v050
	.byte	PAN	, c_v-22
	.byte	W96
	.byte	W96
	.byte	W96
	.byte	W96
song029_11_1:
	.byte	W84
	.byte	W01
	.byte		N11	, Cn6, v084
	.byte	W11
	.byte	PEND
	.byte	PATT	
		.word	song029_11_1
	.byte	PATT	
		.word	song029_11_1
	.byte	PATT	
		.word	song029_11_1
	.byte	PATT	
		.word	song029_11_1
	.byte	PATT	
		.word	song029_11_1
	.byte	PATT	
		.word	song029_11_1
	.byte	PATT	
		.word	song029_11_1
	.byte	W96
	.byte	W96
	.byte	W96
	.byte	W96
	.byte	W96
	.byte	W96
	.byte	W96
	.byte	W96
	.byte	W96
	.byte	W96
	.byte	W96
	.byte	W96
	.byte	W96
	.byte	W96
	.byte	W96
	.byte	W96
	.byte	W96
	.byte	PATT	
		.word	song029_11_1
	.byte	PATT	
		.word	song029_11_1
	.byte	PATT	
		.word	song029_11_1
	.byte	PATT	
		.word	song029_11_1
	.byte	PATT	
		.word	song029_11_1
	.byte	PATT	
		.word	song029_11_1
	.byte	PATT	
		.word	song029_11_1
	.byte	PATT	
		.word	song029_11_1
	.byte	PATT	
		.word	song029_11_1
	.byte	PATT	
		.word	song029_11_1
	.byte	PATT	
		.word	song029_11_1
	.byte	PATT	
		.word	song029_11_1
	.byte	PATT	
		.word	song029_11_1
	.byte	PATT	
		.word	song029_11_1
	.byte	PATT	
		.word	song029_11_1
	.byte	PATT	
		.word	song029_11_1
	.byte	W96
	.byte	W96
	.byte	W96
	.byte	W96
	.byte	PATT	
		.word	song029_11_1
	.byte	PATT	
		.word	song029_11_1
	.byte	PATT	
		.word	song029_11_1
	.byte	PATT	
		.word	song029_11_1
	.byte	W96
	.byte	W96
	.byte	W96
	.byte	W96
	.byte	W96
	.byte	W96
	.byte	W96
	.byte	W96
	.byte	GOTO	
		.word	song029_11_1
	.byte	FINE

	.align 2
	.global song029
song029:	@ 0x08278538
	.byte	11		@ trackCount
	.byte	0		@ blockCount
	.byte	20		@ priority
	.byte	128		@ reverb

	.word	voicegroup017		@ voicegroup/tone

	.word	song029_1		@ track
	.word	song029_2		@ track
	.word	song029_3		@ track
	.word	song029_4		@ track
	.word	song029_5		@ track
	.word	song029_6		@ track
	.word	song029_7		@ track
	.word	song029_8		@ track
	.word	song029_9		@ track
	.word	song029_10		@ track
	.word	song029_11		@ track
