	.include "asm/macros/c_decl.inc"
	.include "asm/macros/portable.inc"
	.include "sound/MPlayDef.s"

	mSectionRodata

	@********************** Track  1 **********************@

	mAlignWord
	.global song030_1
song030_1:	@ 0x0827856C
	.byte	KEYSH	, 0
	.byte	TEMPO	, 83
	.byte	VOICE	, 127
	.byte	VOL	, v080
	.byte		N05	, Dn5, v124
	.byte	W06
	.byte			Dn5, v024
	.byte	W06
	.byte		N05	
	.byte	W06
	.byte			Dn5, v056
	.byte	W06
	.byte			Dn5, v024
	.byte	W06
	.byte		N05	
	.byte	W06
	.byte			Dn5, v076
	.byte	W06
	.byte			Dn5, v024
	.byte	W06
	.byte		N05	
	.byte	W06
	.byte			Dn5, v096
	.byte	W06
	.byte			Dn5, v024
	.byte	W06
	.byte		N05	
	.byte	W06
	.byte			Dn5, v116
	.byte	W06
	.byte			Dn5, v024
	.byte	W06
	.byte		N05	
	.byte	W06
	.byte		N05	
	.byte	W06
	.byte			Dn5, v124
	.byte	W06
	.byte			Dn5, v024
	.byte	W06
	.byte		N05	
	.byte	W06
	.byte			Dn5, v056
	.byte	W06
	.byte			Dn5, v024
	.byte	W06
	.byte		N05	
	.byte	W06
	.byte			Dn5, v076
	.byte	W06
	.byte			Dn5, v024
	.byte	W06
	.byte		N05	
	.byte	W06
	.byte			Dn5, v096
	.byte	W06
	.byte			Dn5, v024
	.byte	W06
	.byte		N05	
	.byte	W06
	.byte			Dn5, v116
	.byte	W06
	.byte			Dn5, v024
	.byte	W06
	.byte		N05	
	.byte	W06
	.byte			Dn5, v116
	.byte	W06
	.byte			Dn5, v124
	.byte	W06
	.byte			Dn5, v024
	.byte	W06
	.byte		N05	
	.byte	W06
	.byte			Dn5, v056
	.byte	W06
	.byte			Dn5, v024
	.byte	W06
	.byte		N05	
	.byte	W06
	.byte			Dn5, v076
	.byte	W06
	.byte			Dn5, v024
	.byte	W06
	.byte		N05	
	.byte	W06
	.byte			Dn5, v096
	.byte	W06
	.byte			Dn5, v024
	.byte	W06
	.byte		N05	
	.byte	W06
	.byte			Dn5, v116
	.byte	W06
	.byte			Dn5, v024
	.byte	W06
	.byte		N05	
	.byte	W06
	.byte		N05	
	.byte	W06
	.byte			Dn5, v084
	.byte	W06
	.byte			Dn5, v024
	.byte	W06
	.byte		N05	
	.byte	W06
	.byte			Dn5, v084
	.byte	W06
	.byte			Dn5, v024
	.byte	W06
	.byte		N05	
	.byte	W06
	.byte			Dn5, v084
	.byte	W06
	.byte			Dn5, v024
	.byte	W06
	.byte			Cn5, v084
	.byte	W06
	.byte			Dn5
	.byte	W03
	.byte			En5, v127
	.byte	W03
	.byte		N11	, Dn5
	.byte	W06
	.byte			En5, v096
	.byte	W06
	.byte			Dn5, v056
	.byte	W06
	.byte			En5, v064
	.byte	W06
	.byte			Dn5, v084
	.byte	W06
	.byte		N05	, En5, v127
	.byte	W06
song030_1_2:
	.byte		N11	, Cn4, v127
	.byte		N92	, As4
	.byte	W12
	.byte		N11	, Cs5
	.byte	W12
	.byte			Cn4
	.byte	W12
	.byte			En4
	.byte	W12
	.byte			Cn4
	.byte	W12
	.byte			Ds5
	.byte	W12
	.byte			Cn4
	.byte	W12
	.byte			En4
	.byte	W12
	.byte	PEND
song030_1_1:
	.byte		N11	, Cn4, v127
	.byte	W12
	.byte			Cs5
	.byte	W12
	.byte			Cn4
	.byte	W12
	.byte			En4
	.byte	W12
	.byte			Cn4
	.byte	W12
	.byte			Ds5
	.byte	W12
	.byte			Cn4
	.byte	W12
	.byte			En4
	.byte	W12
	.byte	PEND
	.byte	PATT	
		mPtr	song030_1_1
	.byte	PATT	
		mPtr	song030_1_1
	.byte	PATT	
		mPtr	song030_1_2
	.byte	PATT	
		mPtr	song030_1_1
	.byte	PATT	
		mPtr	song030_1_1
	.byte	PATT	
		mPtr	song030_1_1
	.byte	PATT	
		mPtr	song030_1_2
	.byte	PATT	
		mPtr	song030_1_1
	.byte	PATT	
		mPtr	song030_1_1
	.byte	PATT	
		mPtr	song030_1_1
	.byte	PATT	
		mPtr	song030_1_2
	.byte	PATT	
		mPtr	song030_1_1
	.byte	PATT	
		mPtr	song030_1_1
	.byte	PATT	
		mPtr	song030_1_1
	.byte	PATT	
		mPtr	song030_1_2
	.byte	PATT	
		mPtr	song030_1_1
	.byte	PATT	
		mPtr	song030_1_1
	.byte	PATT	
		mPtr	song030_1_1
	.byte	PATT	
		mPtr	song030_1_2
	.byte	PATT	
		mPtr	song030_1_1
	.byte	PATT	
		mPtr	song030_1_1
	.byte	PATT	
		mPtr	song030_1_1
	.byte	PATT	
		mPtr	song030_1_2
	.byte	PATT	
		mPtr	song030_1_1
	.byte	PATT	
		mPtr	song030_1_1
	.byte		N05	, Dn5, v116
	.byte	W06
	.byte			Dn5, v036
	.byte	W06
	.byte			Dn5, v016
	.byte	W06
	.byte			Dn5, v116
	.byte	W06
	.byte			Dn5, v036
	.byte	W06
	.byte			Dn5, v016
	.byte	W06
	.byte			Dn5, v116
	.byte	W06
	.byte			Dn5, v036
	.byte	W06
	.byte			Cn5, v116
	.byte	W06
	.byte			Dn5, v084
	.byte	W03
	.byte			En5, v127
	.byte	W03
	.byte		N11	, Dn5
	.byte	W06
	.byte			En5, v096
	.byte	W06
	.byte			Dn5, v056
	.byte	W06
	.byte			En5, v064
	.byte	W06
	.byte			Dn5, v084
	.byte	W06
	.byte		N05	, En5, v127
	.byte	W06
	.byte	W54
	.byte			Dn5, v084
	.byte	W03
	.byte			En5, v127
	.byte	W03
	.byte		N11	, Dn5
	.byte	W06
	.byte			En5, v096
	.byte	W06
	.byte			Dn5, v056
	.byte	W06
	.byte			En5, v064
	.byte	W06
	.byte			Dn5, v084
	.byte	W06
	.byte		N05	, En5, v127
	.byte	W06
	.byte	PATT	
		mPtr	song030_1_2
	.byte	PATT	
		mPtr	song030_1_1
	.byte	PATT	
		mPtr	song030_1_1
	.byte	PATT	
		mPtr	song030_1_1
	.byte	PATT	
		mPtr	song030_1_2
	.byte	PATT	
		mPtr	song030_1_1
	.byte	PATT	
		mPtr	song030_1_1
	.byte	PATT	
		mPtr	song030_1_1
	.byte	PATT	
		mPtr	song030_1_2
	.byte	PATT	
		mPtr	song030_1_1
	.byte	PATT	
		mPtr	song030_1_1
	.byte	PATT	
		mPtr	song030_1_1
	.byte	PATT	
		mPtr	song030_1_2
	.byte	PATT	
		mPtr	song030_1_1
	.byte	PATT	
		mPtr	song030_1_1
	.byte		N05	, Dn5, v124
	.byte	W06
	.byte			Dn5, v024
	.byte	W06
	.byte			Dn5, v124
	.byte	W06
	.byte			Dn5, v024
	.byte	W06
	.byte			Dn5, v124
	.byte	W06
	.byte			Dn5, v024
	.byte	W06
	.byte		N05	
	.byte	W06
	.byte			Cn5, v084
	.byte	W06
	.byte		N05	
	.byte	W06
	.byte			Dn5, v104
	.byte	W03
	.byte			En5, v127
	.byte	W03
	.byte		N11	, Dn5
	.byte	W06
	.byte			En5, v096
	.byte	W06
	.byte			Dn5, v076
	.byte	W06
	.byte			En5, v084
	.byte	W06
	.byte			Dn5, v104
	.byte	W06
	.byte		N05	, En5, v127
	.byte	W06
	.byte	GOTO	
		mPtr	song030_1_2
	.byte	FINE

	@********************** Track  2 **********************@

	.global song030_2
song030_2:	@ 0x0827879E
	.byte	KEYSH	, 0
	.byte	VOICE	, 19
	.byte	VOL	, v064
	.byte	PAN	, c_v
	.byte	W96
	.byte	W96
	.byte	W96
	.byte	W96
song030_2_3:
	.byte	W96
	.byte	W96
	.byte	W96
	.byte	W96
	.byte	VOICE	, 16
	.byte	PAN	, c_v
	.byte		N03	, Cn3, v116
	.byte	W06
	.byte		N03	
	.byte	W06
	.byte		N03	
	.byte	W06
	.byte		N03	
	.byte	W06
	.byte			Ds3
	.byte	W06
	.byte		N03	
	.byte	W06
	.byte			Cn3
	.byte	W06
	.byte			Ds3
	.byte	W06
	.byte	VOICE	, 17
	.byte		N03	, Cn3
	.byte	W06
	.byte			Ds3
	.byte	W06
	.byte		N03	
	.byte	W06
	.byte			Cn3
	.byte	W06
	.byte			As2
	.byte	W06
	.byte		N03	
	.byte	W06
	.byte			Fn3
	.byte	W06
	.byte		N03	
	.byte	W06
	.byte	VOICE	, 18
	.byte		N03	, Cn3
	.byte	W06
	.byte		N03	
	.byte	W06
	.byte		N03	
	.byte	W06
	.byte		N03	
	.byte	W06
	.byte			Ds3
	.byte	W06
	.byte		N03	
	.byte	W06
	.byte			Cn3
	.byte	W06
	.byte		N03	
	.byte	W06
	.byte	VOICE	, 19
	.byte		N03	, Ds3
	.byte	W06
	.byte			Gn3
	.byte	W06
	.byte			Fs3
	.byte	W06
	.byte		N03	
	.byte	W06
	.byte	VOICE	, 20
	.byte		N03	, An3
	.byte	W06
	.byte		N03	
	.byte	W06
	.byte			Ds3
	.byte	W06
	.byte			Cn3
	.byte	W06
song030_2_1:
	.byte		N03	, Fs3, v116
	.byte	W06
	.byte		N03	
	.byte	W06
	.byte		N03	
	.byte	W06
	.byte			Ds3
	.byte	W06
	.byte	VOICE	, 19
	.byte		N03	
	.byte	W06
	.byte		N03	
	.byte	W06
	.byte		N03	
	.byte	W06
	.byte			Cs3
	.byte	W06
	.byte			Bn2
	.byte	W06
	.byte		N03	
	.byte	W06
	.byte		N03	
	.byte	W06
	.byte			Bn3
	.byte	W06
	.byte	VOICE	, 18
	.byte		N03	
	.byte	W06
	.byte		N03	
	.byte	W06
	.byte			Fs3
	.byte	W06
	.byte		N03	
	.byte	W06
	.byte	PEND
song030_2_2:
	.byte		N03	, Gs3, v112
	.byte	W06
	.byte		N03	
	.byte	W06
	.byte			Gs3, v060
	.byte	W06
	.byte			Gs2, v112
	.byte	W06
	.byte	VOICE	, 17
	.byte		N03	
	.byte	W06
	.byte			Gs2, v060
	.byte	W06
	.byte			Gs3, v112
	.byte	W06
	.byte		N03	
	.byte	W06
	.byte			Gs3, v060
	.byte	W06
	.byte			Gs2, v112
	.byte	W06
	.byte		N03	
	.byte	W06
	.byte			Gs2, v060
	.byte	W06
	.byte	VOICE	, 16
	.byte		N03	, Gs3, v112
	.byte	W06
	.byte		N03	
	.byte	W06
	.byte			Gs2, v060
	.byte	W06
	.byte		N03	
	.byte	W06
	.byte	PEND
	.byte	PAN	, c_v
	.byte		N03	, Cn3, v116
	.byte	W06
	.byte		N03	
	.byte	W06
	.byte		N03	
	.byte	W06
	.byte		N03	
	.byte	W06
	.byte	VOICE	, 19
	.byte		N03	, Ds3
	.byte	W06
	.byte		N03	
	.byte	W06
	.byte			Cn3
	.byte	W06
	.byte			Ds3
	.byte	W06
	.byte			Cn3
	.byte	W06
	.byte			Ds3
	.byte	W06
	.byte		N03	
	.byte	W06
	.byte			Cn3
	.byte	W06
	.byte	VOICE	, 18
	.byte		N03	, As2
	.byte	W06
	.byte		N03	
	.byte	W06
	.byte			Fn3
	.byte	W06
	.byte		N03	
	.byte	W06
	.byte			Cn3
	.byte	W06
	.byte		N03	
	.byte	W06
	.byte		N03	
	.byte	W06
	.byte		N03	
	.byte	W06
	.byte	VOICE	, 17
	.byte		N03	, Ds3
	.byte	W06
	.byte		N03	
	.byte	W06
	.byte			Cn3
	.byte	W06
	.byte		N03	
	.byte	W06
	.byte			Ds3
	.byte	W06
	.byte			Gn3
	.byte	W06
	.byte			Fs3
	.byte	W06
	.byte		N03	
	.byte	W06
	.byte	VOICE	, 16
	.byte		N03	, An3
	.byte	W06
	.byte		N03	
	.byte	W06
	.byte			Ds3
	.byte	W06
	.byte			Cn3
	.byte	W06
	.byte	PATT	
		mPtr	song030_2_1
	.byte	PATT	
		mPtr	song030_2_2
	.byte	W96
	.byte	W96
	.byte	W96
	.byte	W96
	.byte	W96
	.byte	W96
	.byte	W96
	.byte	W96
	.byte	VOICE	, 16
	.byte	PAN	, c_v
	.byte	W12
	.byte		N11	, Fn4, v096
	.byte	W12
	.byte			Gs4
	.byte	W18
	.byte		N05	, Fn4
	.byte	W06
	.byte	VOICE	, 17
	.byte	W06
	.byte		N05	, Gs4, v112
	.byte	W12
	.byte			Fn4, v096
	.byte	W06
	.byte		N11	, Ds4
	.byte	W12
	.byte			As4
	.byte	W12
	.byte	VOICE	, 18
	.byte	W12
	.byte		N11	, Fn4
	.byte	W12
	.byte			Gs4
	.byte	W18
	.byte		N05	, Fn4
	.byte	W06
	.byte	VOICE	, 19
	.byte		N05	, Gs4
	.byte	W06
	.byte			Cn5
	.byte	W06
	.byte			Bn4
	.byte	W12
	.byte	VOICE	, 20
	.byte		N05	, Dn5
	.byte	W12
	.byte			Gs4
	.byte	W06
	.byte			Fn4
	.byte	W06
	.byte		N11	, Bn4
	.byte	W18
	.byte			Gs4
	.byte	W06
	.byte	VOICE	, 19
	.byte	W12
	.byte		N05	
	.byte	W06
	.byte			Fs4
	.byte	W06
	.byte		N17	, En4
	.byte	W18
	.byte		N11	, En5
	.byte	W06
	.byte	VOICE	, 18
	.byte	W12
	.byte		N11	, Bn4
	.byte	W12
	.byte			Cs5
	.byte	W18
	.byte			Cs4
	.byte	W06
	.byte	VOICE	, 17
	.byte	W12
	.byte		N11	, Cs5
	.byte	W18
	.byte			Cs4
	.byte	W18
	.byte	VOICE	, 16
	.byte		N05	, Cs5
	.byte	W12
	.byte		N11	, Cs4
	.byte	W12
	.byte	PAN	, c_v
	.byte	W12
	.byte		N11	, Fn4
	.byte	W12
	.byte	VOICE	, 17
	.byte		N11	, Gs4
	.byte	W18
	.byte		N05	, Fn4
	.byte	W12
	.byte			Gs4, v112
	.byte	W12
	.byte			Fn4, v096
	.byte	W06
	.byte	VOICE	, 18
	.byte		N11	, Ds4
	.byte	W12
	.byte			As4
	.byte	W12
	.byte	W12
	.byte			Fn4
	.byte	W12
	.byte	VOICE	, 17
	.byte		N11	, Gs4
	.byte	W18
	.byte		N05	, Fn4
	.byte	W06
	.byte			Gs4
	.byte	W06
	.byte			Cn5
	.byte	W06
	.byte			Bn4
	.byte	W12
	.byte	VOICE	, 16
	.byte		N05	, Dn5
	.byte	W12
	.byte			Gs4
	.byte	W06
	.byte			Fn4
	.byte	W06
	.byte		N11	, Bn4
	.byte	W18
	.byte			Gs4
	.byte	W06
	.byte	VOICE	, 17
	.byte	W12
	.byte		N05	
	.byte	W06
	.byte			Fs4
	.byte	W06
	.byte		N17	, En4
	.byte	W18
	.byte		N11	, En5
	.byte	W06
	.byte	VOICE	, 18
	.byte	W12
	.byte		N11	, Bn4
	.byte	W12
	.byte			Cs5
	.byte	W18
	.byte			Cs4
	.byte	W06
	.byte	VOICE	, 19
	.byte	W12
	.byte		N11	, Cs5
	.byte	W18
	.byte			Cs4
	.byte	W18
	.byte	VOICE	, 18
	.byte		N05	, Cs5
	.byte	W12
	.byte		N11	, Cs4
	.byte	W12
	.byte	W96
	.byte	W96
	.byte	W96
	.byte	W96
	.byte	W96
	.byte	W96
	.byte	W96
	.byte	W96
	.byte	W96
	.byte	W96
	.byte	W96
	.byte	W96
	.byte	W96
	.byte	W96
	.byte	W96
	.byte	W96
	.byte	W96
	.byte	GOTO	
		mPtr	song030_2_3
	.byte	FINE

	@********************** Track  3 **********************@

	.global song030_3
song030_3:	@ 0x08278998
	.byte	KEYSH	, 0
	.byte	VOICE	, 21
	.byte	VOL	, v077
	.byte	PAN	, c_v-64
	.byte		N15	, Cn3, v084
	.byte	W18
	.byte		N04	, An2, v104
	.byte	W18
	.byte		N15	, Cn3, v084
	.byte	W18
	.byte		N05	, An2, v116
	.byte	W18
	.byte		N03	, Cn3, v104
	.byte	W06
	.byte		N17	, Dn3, v116
	.byte	W18
song030_3_2:
	.byte		N15	, Cn3, v084
	.byte	W18
	.byte		N04	, An2, v104
	.byte	W18
	.byte		N15	, Cn3, v084
	.byte	W18
	.byte		N05	, An2, v116
	.byte	W18
	.byte		N03	, Cn3, v104
	.byte	W06
	.byte		N17	, Dn3, v116
	.byte	W18
	.byte	PEND
song030_3_1:
	.byte	W18
	.byte		N04	, Gs2, v104
	.byte	W36
	.byte		N05	, Gs2, v116
	.byte	W42
	.byte	PEND
	.byte	PATT	
		mPtr	song030_3_1
song030_3_10:
	.byte	PATT	
		mPtr	song030_3_2
	.byte	PATT	
		mPtr	song030_3_2
	.byte	PATT	
		mPtr	song030_3_1
	.byte	PATT	
		mPtr	song030_3_1
	.byte	PATT	
		mPtr	song030_3_2
	.byte	PATT	
		mPtr	song030_3_2
	.byte	PATT	
		mPtr	song030_3_1
	.byte	PATT	
		mPtr	song030_3_1
	.byte	PATT	
		mPtr	song030_3_2
	.byte	PATT	
		mPtr	song030_3_2
	.byte	PATT	
		mPtr	song030_3_1
	.byte	PATT	
		mPtr	song030_3_1
	.byte	PATT	
		mPtr	song030_3_2
	.byte	PATT	
		mPtr	song030_3_2
	.byte	PATT	
		mPtr	song030_3_1
	.byte	PATT	
		mPtr	song030_3_1
	.byte	PATT	
		mPtr	song030_3_2
	.byte	PATT	
		mPtr	song030_3_2
	.byte	PATT	
		mPtr	song030_3_1
	.byte	PATT	
		mPtr	song030_3_1
	.byte	W96
	.byte	W96
	.byte	W96
	.byte	W96
	.byte	W96
	.byte	W96
	.byte	W96
	.byte	W96
	.byte	W96
song030_3_4:
	.byte		N06	, An3, v092
	.byte	W12
	.byte		N05	, An3, v112
	.byte	W12
	.byte		N06	, An3, v052
	.byte	W12
	.byte			An3, v092
	.byte	W12
	.byte		N05	, An3, v112
	.byte	W12
	.byte		N06	, An3, v052
	.byte	W12
	.byte		N10	, An3, v112
	.byte	W12
	.byte		N04	, En3, v100
	.byte	W12
	.byte	PEND
song030_3_5:
	.byte		N06	, As3, v092
	.byte	W12
	.byte		N05	, As3, v112
	.byte	W12
	.byte		N06	, As3, v052
	.byte	W12
	.byte			As3, v092
	.byte	W12
	.byte		N05	, As3, v112
	.byte	W12
	.byte		N06	, As3, v052
	.byte	W12
	.byte		N10	, As3, v112
	.byte	W12
	.byte		N04	, Fn3, v100
	.byte	W12
	.byte	PEND
song030_3_6:
	.byte		N06	, Cn4, v092
	.byte	W12
	.byte		N05	, Cn4, v112
	.byte	W12
	.byte		N06	, Cn4, v052
	.byte	W12
	.byte			Cn4, v092
	.byte	W12
	.byte		N05	, Cn4, v112
	.byte	W12
	.byte		N06	, Cn4, v052
	.byte	W12
	.byte		N10	, Cn4, v112
	.byte	W12
	.byte		N04	, Gn3, v100
	.byte	W12
	.byte	PEND
song030_3_3:
	.byte		N06	, Fn3, v092
	.byte	W12
	.byte		N05	, Fn3, v112
	.byte	W12
	.byte		N06	, Fn3, v052
	.byte	W12
	.byte			Fn3, v092
	.byte	W12
	.byte		N05	, Fn3, v112
	.byte	W12
	.byte		N06	, Fn3, v052
	.byte	W12
	.byte		N10	, Fn3, v112
	.byte	W12
	.byte		N04	, Cn3, v100
	.byte	W12
	.byte	PEND
	.byte	PATT	
		mPtr	song030_3_3
song030_3_7:
	.byte		N06	, Gn3, v092
	.byte	W12
	.byte		N05	, Gn3, v112
	.byte	W12
	.byte		N06	, Gn3, v052
	.byte	W12
	.byte			Gn3, v092
	.byte	W12
	.byte		N05	, Gn3, v112
	.byte	W12
	.byte		N06	, Gn3, v052
	.byte	W12
	.byte		N10	, Gn3, v112
	.byte	W12
	.byte		N04	, Dn3, v100
	.byte	W12
	.byte	PEND
song030_3_8:
	.byte		N06	, Cn3, v092
	.byte	W12
	.byte		N05	, Cn3, v112
	.byte	W12
	.byte		N06	, Cn3, v052
	.byte	W12
	.byte			Cn3, v092
	.byte	W12
	.byte		N05	, Cn3, v112
	.byte	W12
	.byte		N06	, Cn3, v052
	.byte	W12
	.byte		N10	, Cn3, v112
	.byte	W12
	.byte		N04	, Gn3, v100
	.byte	W12
	.byte	PEND
song030_3_9:
	.byte		N06	, Fs3, v092
	.byte	W12
	.byte		N05	, Fs3, v112
	.byte	W12
	.byte		N06	, Fs3, v052
	.byte	W12
	.byte			Fs3, v092
	.byte	W12
	.byte		N05	, Fs3, v112
	.byte	W12
	.byte		N06	, Fs3, v052
	.byte	W12
	.byte		N10	, Fs3, v112
	.byte	W12
	.byte		N04	, Fs3, v100
	.byte	W12
	.byte	PEND
	.byte	PATT	
		mPtr	song030_3_4
	.byte	PATT	
		mPtr	song030_3_5
	.byte	PATT	
		mPtr	song030_3_6
	.byte	PATT	
		mPtr	song030_3_3
	.byte	PATT	
		mPtr	song030_3_3
	.byte	PATT	
		mPtr	song030_3_7
	.byte	PATT	
		mPtr	song030_3_8
	.byte	PATT	
		mPtr	song030_3_9
	.byte	GOTO	
		mPtr	song030_3_10
	.byte	FINE

	@********************** Track  4 **********************@

	.global song030_4
song030_4:	@ 0x08278B60
	.byte	KEYSH	, 0
	.byte	VOICE	, 22
	.byte	VOL	, v077
	.byte	PAN	, c_v+63
	.byte	W96
	.byte	W96
song030_4_1:
	.byte		N15	, Cn3, v084
	.byte	W36
	.byte		N15	
	.byte	W36
	.byte		N04	, Cn3, v104
	.byte	W06
	.byte		N17	, Dn3, v116
	.byte	W18
	.byte	PEND
	.byte	PATT	
		mPtr	song030_4_1
song030_4_2:
	.byte	W96
	.byte	W96
	.byte	PATT	
		mPtr	song030_4_1
	.byte	PATT	
		mPtr	song030_4_1
	.byte	W96
	.byte	W96
	.byte	PATT	
		mPtr	song030_4_1
	.byte	PATT	
		mPtr	song030_4_1
	.byte	W96
	.byte	W96
	.byte	PATT	
		mPtr	song030_4_1
	.byte	PATT	
		mPtr	song030_4_1
	.byte	W96
	.byte	W96
	.byte	PATT	
		mPtr	song030_4_1
	.byte	PATT	
		mPtr	song030_4_1
	.byte	W96
	.byte	W96
	.byte	PATT	
		mPtr	song030_4_1
	.byte	PATT	
		mPtr	song030_4_1
	.byte	W96
	.byte	W96
	.byte	W96
	.byte	W96
	.byte	W96
	.byte	W96
	.byte	W96
	.byte	W96
	.byte	W96
	.byte	W96
	.byte	W96
	.byte	W96
	.byte	W96
	.byte	W96
	.byte	W96
	.byte	W96
	.byte	W96
	.byte	W96
	.byte	W96
	.byte	W96
	.byte	W96
	.byte	W96
	.byte	W96
	.byte	W96
	.byte	W96
	.byte	GOTO	
		mPtr	song030_4_2
	.byte	FINE

	@********************** Track  5 **********************@

	.global song030_5
song030_5:	@ 0x08278BD9
	.byte	KEYSH	, 0
	.byte	VOICE	, 23
	.byte	VOL	, v074
	.byte	PAN	, c_v-22
	.byte	W96
	.byte	W96
	.byte	W96
	.byte	W96
song030_5_1:
	.byte	W01
	.byte		N03	, Gn3, v088
	.byte	W06
	.byte			Gs3
	.byte	W06
	.byte			As3
	.byte	W06
	.byte			Dn4
	.byte	W06
	.byte			Cn4
	.byte	W06
	.byte			Dn4
	.byte	W06
	.byte			Ds4
	.byte	W06
	.byte			Gn4
	.byte	W06
	.byte			As4
	.byte	W06
	.byte			Gs4
	.byte	W06
	.byte			Gn4
	.byte	W06
	.byte			Gs4
	.byte	W06
	.byte			Gn4
	.byte	W06
	.byte			Ds4
	.byte	W06
	.byte			Cn4
	.byte	W06
	.byte			As3
	.byte	W05
	.byte	PEND
	.byte	PATT	
		mPtr	song030_5_1
song030_5_2:
	.byte	W01
	.byte		N03	, Fs3, v088
	.byte	W06
	.byte			Gs3
	.byte	W06
	.byte			As3
	.byte	W06
	.byte			Cs4
	.byte	W06
	.byte			Bn3
	.byte	W06
	.byte			Cs4
	.byte	W06
	.byte			Ds4
	.byte	W06
	.byte			Fs4
	.byte	W06
	.byte			As4
	.byte	W06
	.byte			Gs4
	.byte	W06
	.byte			Fs4
	.byte	W06
	.byte			Gs4
	.byte	W06
	.byte			Fs4
	.byte	W06
	.byte			Ds4
	.byte	W06
	.byte			Bn3
	.byte	W06
	.byte			Gs3
	.byte	W05
	.byte	PEND
	.byte	PATT	
		mPtr	song030_5_2
	.byte	W96
	.byte	W96
	.byte	W96
	.byte		N17	, Gs2, v076
	.byte	W18
	.byte			Gs1
	.byte	W18
	.byte			Gs2
	.byte	W18
	.byte			Gs1
	.byte	W18
	.byte		N11	, Gs2
	.byte	W12
	.byte			Gs1, v024
	.byte	W12
	.byte	W96
	.byte	W96
	.byte	W96
	.byte		N17	, Gs3, v076
	.byte	W18
	.byte			Gs2
	.byte	W18
	.byte			Gs3
	.byte	W18
	.byte			Gs2
	.byte	W18
	.byte		N11	, Gs3
	.byte	W12
	.byte			Gs2
	.byte	W12
	.byte	W96
	.byte	W96
	.byte	W96
	.byte	W96
	.byte	W96
	.byte	W96
	.byte	W96
	.byte	W96
	.byte	W12
	.byte			Cn2, v064
	.byte	W12
	.byte			Ds2
	.byte	W18
	.byte		N05	, Cn2
	.byte	W12
	.byte			Ds2, v076
	.byte	W12
	.byte			Cn2, v064
	.byte	W06
	.byte		N11	, As1
	.byte	W12
	.byte			Fn2
	.byte	W12
	.byte	W12
	.byte			Cn2
	.byte	W12
	.byte			Ds2
	.byte	W18
	.byte		N05	, Cn2
	.byte	W06
	.byte			Ds2
	.byte	W06
	.byte			Gn2
	.byte	W06
	.byte			Fs2
	.byte	W12
	.byte			An2
	.byte	W12
	.byte			Ds2
	.byte	W06
	.byte			Cn2
	.byte	W06
	.byte		N11	, Fs2
	.byte	W18
	.byte			Ds2
	.byte	W18
	.byte		N05	
	.byte	W06
	.byte			Cs2
	.byte	W06
	.byte		N17	, Bn1
	.byte	W18
	.byte		N11	, Bn2
	.byte	W18
	.byte			Fs2
	.byte	W12
	.byte			Gs2
	.byte	W18
	.byte			Gs1
	.byte	W18
	.byte			Gs2
	.byte	W18
	.byte			Gs1
	.byte	W18
	.byte		N05	, Gs2
	.byte	W12
	.byte		N11	, Gs1
	.byte	W12
	.byte	W12
	.byte			Cn3
	.byte	W12
	.byte			Ds3
	.byte	W18
	.byte		N05	, Cn3
	.byte	W12
	.byte			Ds3, v076
	.byte	W12
	.byte			Cn3, v064
	.byte	W06
	.byte		N11	, As2
	.byte	W12
	.byte			Fn3
	.byte	W12
	.byte	W12
	.byte			Cn3
	.byte	W12
	.byte			Ds3
	.byte	W18
	.byte		N05	, Cn3
	.byte	W06
	.byte			Ds3
	.byte	W06
	.byte			Gn3
	.byte	W06
	.byte			Fs3
	.byte	W12
	.byte			An3
	.byte	W12
	.byte			Ds3
	.byte	W06
	.byte			Cn3
	.byte	W06
	.byte		N11	, Fs3
	.byte	W18
	.byte			Ds3
	.byte	W18
	.byte		N05	
	.byte	W06
	.byte			Cs3
	.byte	W06
	.byte		N17	, Bn2
	.byte	W18
	.byte		N11	, Bn3
	.byte	W18
	.byte			Fs3
	.byte	W12
	.byte			Gs3
	.byte	W18
	.byte			Gs2
	.byte	W18
	.byte			Gs3
	.byte	W18
	.byte			Gs2
	.byte	W18
	.byte		N05	, Gs3
	.byte	W12
	.byte		N11	, Gs2
	.byte	W12
	.byte	PAN	, c_v
	.byte	W92
	.byte	W03
	.byte		c_v
	.byte	W01
	.byte		N96	, Cn4, v032
	.byte	W96
song030_5_3:
	.byte		N48	, Bn3, v028
	.byte	W48
	.byte			Fs4, v040
	.byte	W48
	.byte	PEND
	.byte		N44	, Fn4
	.byte	W44
	.byte	W02
	.byte		N48	, As3
	.byte	W48
	.byte			An3, v032
	.byte	W02
	.byte	W48
	.byte			En4, v040
	.byte	W48
	.byte		N96	, Cn4, v032
	.byte	W96
	.byte	PATT	
		mPtr	song030_5_3
	.byte		N44	, Fn4, v040
	.byte	W44
	.byte	W02
	.byte		N48	, As3
	.byte	W48
	.byte		N84	, An3, v032
	.byte	W02
	.byte	W96
	.byte		N03	, Gn3, v088
	.byte	W12
	.byte			Bn3
	.byte	W12
	.byte			Cn4
	.byte	W12
	.byte			En4
	.byte	W12
	.byte			Gn3, v052
	.byte	W12
	.byte			Bn3
	.byte	W12
	.byte			Cn4
	.byte	W12
	.byte			En4
	.byte	W12
	.byte			Fs3, v088
	.byte	W12
	.byte			Bn3
	.byte	W12
	.byte			Cs4
	.byte	W12
	.byte			En4
	.byte	W12
	.byte			Fs3, v056
	.byte	W12
	.byte			Bn3
	.byte	W12
	.byte			Cs4
	.byte	W12
	.byte			En4
	.byte	W12
song030_5_4:
	.byte		N03	, Fs3, v088
	.byte	W12
	.byte			As3
	.byte	W12
	.byte		N03	
	.byte	W12
	.byte			Ds4
	.byte	W12
	.byte			Fs3, v052
	.byte	W12
	.byte			As3
	.byte	W12
	.byte		N03	
	.byte	W12
	.byte			Ds4
	.byte	W12
	.byte	PEND
	.byte			Fs3, v088
	.byte	W12
	.byte			An3
	.byte	W12
	.byte		N03	
	.byte	W12
	.byte			Ds4
	.byte	W12
	.byte			Fs3, v052
	.byte	W12
	.byte			An3
	.byte	W12
	.byte		N03	
	.byte	W12
	.byte			Ds4
	.byte	W12
	.byte			Gn3, v088
	.byte	W12
	.byte			Cn4
	.byte	W12
	.byte		N03	
	.byte	W12
	.byte			Fn4
	.byte	W12
	.byte			Gn3, v052
	.byte	W12
	.byte			Cn4
	.byte	W12
	.byte		N03	
	.byte	W12
	.byte			Fn4
	.byte	W12
	.byte			Fn3, v088
	.byte	W12
	.byte			Bn3
	.byte	W12
	.byte		N03	
	.byte	W12
	.byte			Fn4
	.byte	W12
	.byte			Fn3, v052
	.byte	W12
	.byte			Bn3
	.byte	W12
	.byte		N03	
	.byte	W12
	.byte			Fn4
	.byte	W12
	.byte	PATT	
		mPtr	song030_5_4
	.byte		N03	, Fs3, v088
	.byte	W12
	.byte			Cn4
	.byte	W12
	.byte		N03	
	.byte	W12
	.byte			Fs4
	.byte	W12
	.byte			Fs3, v052
	.byte	W12
	.byte			Cn4
	.byte	W12
	.byte		N03	
	.byte	W12
	.byte			Fs4
	.byte	W12
	.byte	GOTO	
		mPtr	song030_5_1
	.byte	FINE

	@********************** Track  6 **********************@

	.global song030_6
song030_6:	@ 0x08278DB4
	.byte	KEYSH	, 0
	.byte	W01
	.byte	VOICE	, 24
	.byte	VOL	, v072
	.byte	PAN	, c_v+21
	.byte	W92
	.byte	W03
	.byte	W96
	.byte	W96
	.byte	W96
song030_6_1:
	.byte	W02
	.byte		N03	, Gn3, v088
	.byte	W06
	.byte			Gs3
	.byte	W06
	.byte			As3
	.byte	W06
	.byte			Dn4
	.byte	W06
	.byte			Cn4
	.byte	W06
	.byte			Dn4
	.byte	W06
	.byte			Ds4
	.byte	W06
	.byte			Gn4
	.byte	W06
	.byte			As4
	.byte	W06
	.byte			Gs4
	.byte	W06
	.byte			Gn4
	.byte	W06
	.byte			Gs4
	.byte	W06
	.byte			Gn4
	.byte	W06
	.byte			Ds4
	.byte	W06
	.byte			Cn4
	.byte	W06
	.byte			As3
	.byte	W04
	.byte	PEND
	.byte	PATT	
		mPtr	song030_6_1
song030_6_2:
	.byte	W02
	.byte		N03	, Fs3, v088
	.byte	W06
	.byte			Gs3
	.byte	W06
	.byte			As3
	.byte	W06
	.byte			Cs4
	.byte	W06
	.byte			Bn3
	.byte	W06
	.byte			Cs4
	.byte	W06
	.byte			Ds4
	.byte	W06
	.byte			Fs4
	.byte	W06
	.byte			As4
	.byte	W06
	.byte			Gs4
	.byte	W06
	.byte			Fs4
	.byte	W06
	.byte			Gs4
	.byte	W06
	.byte			Fs4
	.byte	W06
	.byte			Ds4
	.byte	W06
	.byte			Bn3
	.byte	W06
	.byte			Gs3
	.byte	W04
	.byte	PEND
	.byte	PATT	
		mPtr	song030_6_2
	.byte	W96
	.byte	W96
	.byte	W96
	.byte		N17	, Gs2, v076
	.byte	W18
	.byte			Gs1
	.byte	W18
	.byte			Gs2
	.byte	W18
	.byte			Gs1
	.byte	W18
	.byte		N11	, Gs2
	.byte	W12
	.byte			Gs1, v024
	.byte	W12
	.byte	W96
	.byte	W96
	.byte	W96
	.byte		N17	, Gs3, v076
	.byte	W18
	.byte			Gs2
	.byte	W18
	.byte			Gs3
	.byte	W18
	.byte			Gs2
	.byte	W18
	.byte		N11	, Gs3
	.byte	W12
	.byte			Gs2
	.byte	W12
	.byte	W96
	.byte	W96
	.byte	W96
	.byte	W96
	.byte	W96
	.byte	W96
	.byte	W96
	.byte	W96
	.byte	W12
	.byte			Cn2, v064
	.byte	W12
	.byte			Ds2
	.byte	W18
	.byte		N05	, Cn2
	.byte	W12
	.byte			Ds2, v076
	.byte	W12
	.byte			Cn2, v064
	.byte	W06
	.byte		N11	, As1
	.byte	W12
	.byte			Fn2
	.byte	W12
	.byte	W12
	.byte			Cn2
	.byte	W12
	.byte			Ds2
	.byte	W18
	.byte		N05	, Cn2
	.byte	W06
	.byte			Ds2
	.byte	W06
	.byte			Gn2
	.byte	W06
	.byte			Fs2
	.byte	W12
	.byte			An2
	.byte	W12
	.byte			Ds2
	.byte	W06
	.byte			Cn2
	.byte	W06
	.byte		N11	, Fs2
	.byte	W18
	.byte			Ds2
	.byte	W18
	.byte		N05	
	.byte	W06
	.byte			Cs2
	.byte	W06
	.byte		N17	, Bn1
	.byte	W18
	.byte		N11	, Bn2
	.byte	W18
	.byte			Fs2
	.byte	W12
	.byte			Gs2
	.byte	W18
	.byte			Gs1
	.byte	W18
	.byte			Gs2
	.byte	W18
	.byte			Gs1
	.byte	W18
	.byte		N05	, Gs2
	.byte	W12
	.byte		N11	, Gs1
	.byte	W12
	.byte	W12
	.byte			Cn3
	.byte	W12
	.byte			Ds3
	.byte	W18
	.byte		N05	, Cn3
	.byte	W12
	.byte			Ds3, v076
	.byte	W12
	.byte			Cn3, v064
	.byte	W06
	.byte		N11	, As2
	.byte	W12
	.byte			Fn3
	.byte	W12
	.byte	W12
	.byte			Cn3
	.byte	W12
	.byte			Ds3
	.byte	W18
	.byte		N05	, Cn3
	.byte	W06
	.byte			Ds3
	.byte	W06
	.byte			Gn3
	.byte	W06
	.byte			Fs3
	.byte	W12
	.byte			An3
	.byte	W12
	.byte			Ds3
	.byte	W06
	.byte			Cn3
	.byte	W06
	.byte		N11	, Fs3
	.byte	W18
	.byte			Ds3
	.byte	W18
	.byte		N05	
	.byte	W06
	.byte			Cs3
	.byte	W06
	.byte		N17	, Bn2
	.byte	W18
	.byte		N11	, Bn3
	.byte	W18
	.byte			Fs3
	.byte	W12
	.byte			Gs3
	.byte	W18
	.byte			Gs2
	.byte	W18
	.byte			Gs3
	.byte	W18
	.byte			Gs2
	.byte	W18
	.byte		N05	, Gs3
	.byte	W12
	.byte		N11	, Gs2
	.byte	W12
	.byte	W92
	.byte	W03
	.byte	PAN	, c_v
	.byte	W01
	.byte		N96	, Cn4, v032
	.byte	W96
song030_6_3:
	.byte		N48	, Bn3, v028
	.byte	W48
	.byte			Fs4, v040
	.byte	W48
	.byte	PEND
	.byte		N44	, Fn4
	.byte	W44
	.byte	W02
	.byte		N48	, As3
	.byte	W48
	.byte			An3, v032
	.byte	W02
	.byte	W48
	.byte			En4, v040
	.byte	W48
	.byte		N96	, Cn4, v032
	.byte	W96
	.byte	PATT	
		mPtr	song030_6_3
	.byte		N44	, Fn4, v040
	.byte	W44
	.byte	W02
	.byte		N48	, As3
	.byte	W48
	.byte		N84	, An3, v032
	.byte	W02
	.byte	W96
	.byte		N03	, Gn3, v088
	.byte	W06
	.byte			An3
	.byte	W06
	.byte			Bn3
	.byte	W06
	.byte			Dn4
	.byte	W06
	.byte			Cn4
	.byte	W06
	.byte			Dn4
	.byte	W06
	.byte			En4
	.byte	W06
	.byte			Gn4
	.byte	W06
	.byte			Gn3, v052
	.byte	W06
	.byte			An3
	.byte	W06
	.byte			Bn3
	.byte	W06
	.byte			Dn4
	.byte	W06
	.byte			Cn4
	.byte	W06
	.byte			Dn4
	.byte	W06
	.byte			En4
	.byte	W06
	.byte			Gn4
	.byte	W06
	.byte			Fs3, v088
	.byte	W06
	.byte			Gs3
	.byte	W06
	.byte			Bn3
	.byte	W06
	.byte			Ds4
	.byte	W06
	.byte			Cs4
	.byte	W06
	.byte			Ds4
	.byte	W06
	.byte			En4
	.byte	W06
	.byte			Gs4
	.byte	W06
	.byte			Fs3, v056
	.byte	W06
	.byte			Gs3
	.byte	W06
	.byte			Bn3
	.byte	W06
	.byte			Ds4
	.byte	W06
	.byte			Cs4
	.byte	W06
	.byte			Ds4
	.byte	W06
	.byte			En4
	.byte	W06
	.byte			Gs4
	.byte	W06
song030_6_4:
	.byte		N03	, Fs3, v088
	.byte	W06
	.byte			Gs3
	.byte	W06
	.byte			As3
	.byte	W06
	.byte			Cs4
	.byte	W06
	.byte			As3
	.byte	W06
	.byte			Cs4
	.byte	W06
	.byte			Ds4
	.byte	W06
	.byte			Fs4
	.byte	W06
	.byte			Fs3, v052
	.byte	W06
	.byte			Gs3
	.byte	W06
	.byte			As3
	.byte	W06
	.byte			Cs4
	.byte	W06
	.byte			As3
	.byte	W06
	.byte			Cs4
	.byte	W06
	.byte			Ds4
	.byte	W06
	.byte			Fs4
	.byte	W06
	.byte	PEND
	.byte			Fs3, v088
	.byte	W06
	.byte			Gs3
	.byte	W06
	.byte			An3
	.byte	W06
	.byte			Cn4
	.byte	W06
	.byte			An3
	.byte	W06
	.byte			Cn4
	.byte	W06
	.byte			Ds4
	.byte	W06
	.byte			Fs4
	.byte	W06
	.byte			Fs3, v052
	.byte	W06
	.byte			Gs3
	.byte	W06
	.byte			An3
	.byte	W06
	.byte			Cn4
	.byte	W06
	.byte			An3
	.byte	W06
	.byte			Cn4
	.byte	W06
	.byte			Ds4
	.byte	W06
	.byte			Fs4
	.byte	W06
	.byte			Gn3, v088
	.byte	W06
	.byte			Gs3
	.byte	W06
	.byte			Cn4
	.byte	W06
	.byte			Ds4
	.byte	W06
	.byte			Cn4
	.byte	W06
	.byte			Ds4
	.byte	W06
	.byte			Fn4
	.byte	W06
	.byte			Gn4
	.byte	W06
	.byte			Gn3, v052
	.byte	W06
	.byte			Gs3
	.byte	W06
	.byte			Cn4
	.byte	W06
	.byte			Ds4
	.byte	W06
	.byte			Cn4
	.byte	W06
	.byte			Ds4
	.byte	W06
	.byte			Fn4
	.byte	W06
	.byte			Gn4
	.byte	W06
	.byte			Fn3, v088
	.byte	W06
	.byte			Gs3
	.byte	W06
	.byte			Bn3
	.byte	W06
	.byte			Dn4
	.byte	W06
	.byte			Bn3
	.byte	W06
	.byte			Dn4
	.byte	W06
	.byte			Fn4
	.byte	W06
	.byte			Gs4
	.byte	W06
	.byte			Fn3, v052
	.byte	W06
	.byte			Gs3
	.byte	W06
	.byte			Bn3
	.byte	W06
	.byte			Dn4
	.byte	W06
	.byte			Bn3
	.byte	W06
	.byte			Dn4
	.byte	W06
	.byte			Fn4
	.byte	W06
	.byte			Gs4
	.byte	W06
	.byte	PATT	
		mPtr	song030_6_4
	.byte		N03	, Fs3, v088
	.byte	W06
	.byte			Gs3
	.byte	W06
	.byte			Cn4
	.byte	W06
	.byte			Ds4
	.byte	W06
	.byte			Cn4
	.byte	W06
	.byte			Ds4
	.byte	W06
	.byte			Fs4
	.byte	W06
	.byte			Gs4
	.byte	W06
	.byte			Fs3, v052
	.byte	W06
	.byte			Gs3
	.byte	W06
	.byte			Cn4
	.byte	W06
	.byte			Ds4
	.byte	W06
	.byte			Cn4
	.byte	W06
	.byte			Ds4
	.byte	W06
	.byte			Fs4
	.byte	W06
	.byte			Gs4
	.byte	W06
	.byte	GOTO	
		mPtr	song030_6_1
	.byte	FINE

	@********************** Track  7 **********************@

	.global song030_7
song030_7:	@ 0x08279000
	.byte	KEYSH	, 0
	.byte	VOICE	, 82
	.byte	VOL	, v080
	.byte	PAN	, c_v
	.byte		N03	, Gn4, v127
	.byte	W06
	.byte			Gs4
	.byte	W06
	.byte			As4
	.byte	W06
	.byte			Dn5
	.byte	W06
	.byte			Cn5
	.byte	W06
	.byte			Dn5
	.byte	W06
	.byte			Ds5
	.byte	W06
	.byte			Gn5
	.byte	W06
	.byte			As5
	.byte	W06
	.byte			Gs5
	.byte	W06
	.byte			Gn5
	.byte	W06
	.byte			Gs5
	.byte	W06
	.byte			Gn5
	.byte	W06
	.byte			Ds5
	.byte	W06
	.byte			Cn5
	.byte	W06
	.byte			As4
	.byte	W06
song030_7_2:
	.byte		N03	, Gn4, v127
	.byte	W06
	.byte			Gs4
	.byte	W06
	.byte			As4
	.byte	W06
	.byte			Dn5
	.byte	W06
	.byte			Cn5
	.byte	W06
	.byte			Dn5
	.byte	W06
	.byte			Ds5
	.byte	W06
	.byte			Gn5
	.byte	W06
	.byte			As5
	.byte	W06
	.byte			Gs5
	.byte	W06
	.byte			Gn5
	.byte	W06
	.byte			Gs5
	.byte	W06
	.byte			Gn5
	.byte	W06
	.byte			Ds5
	.byte	W06
	.byte			Cn5
	.byte	W06
	.byte			As4
	.byte	W06
	.byte	PEND
song030_7_1:
	.byte		N03	, Fs4, v127
	.byte	W06
	.byte			Gs4
	.byte	W06
	.byte			As4
	.byte	W06
	.byte			Cs5
	.byte	W06
	.byte			Bn4
	.byte	W06
	.byte			Cs5
	.byte	W06
	.byte			Ds5
	.byte	W06
	.byte			Fs5
	.byte	W06
	.byte			As5
	.byte	W06
	.byte			Gs5
	.byte	W06
	.byte			Fs5
	.byte	W06
	.byte			Gs5
	.byte	W06
	.byte			Fs5
	.byte	W06
	.byte			Ds5
	.byte	W06
	.byte			Bn4
	.byte	W06
	.byte			Gs4
	.byte	W06
	.byte	PEND
	.byte	PATT	
		mPtr	song030_7_1
song030_7_10:
	.byte	PATT	
		mPtr	song030_7_2
	.byte	PATT	
		mPtr	song030_7_2
	.byte	PATT	
		mPtr	song030_7_1
	.byte	PATT	
		mPtr	song030_7_1
	.byte	PAN	, c_v-22
	.byte		N48	, Ds4, v100
	.byte	W48
	.byte			Cn4, v096
	.byte	W48
song030_7_3:
	.byte		N48	, As3, v092
	.byte	W48
	.byte			Gn3, v084
	.byte	W48
	.byte	PEND
song030_7_4:
	.byte		N24	, Fs3, v084
	.byte	W24
	.byte		N72	, Cs4, v096
	.byte	W72
	.byte	PEND
	.byte		N96	, Ds4, v100
	.byte	W96
	.byte		N48	
	.byte	W48
	.byte			Cn4, v096
	.byte	W48
	.byte	PATT	
		mPtr	song030_7_3
	.byte	PATT	
		mPtr	song030_7_4
	.byte		N96	, Ds4, v100
	.byte	W96
song030_7_5:
	.byte	PAN	, c_v
	.byte		N48	, Gn2, v116
	.byte	W48
	.byte			Gn3, v127
	.byte	W48
	.byte	PEND
song030_7_6:
	.byte		N48	, Fn3, v127
	.byte	W48
	.byte			Dn3, v116
	.byte	W48
	.byte	PEND
	.byte		N96	, Bn2, v096
	.byte	W96
	.byte			Fs3, v116
	.byte	W96
	.byte	PATT	
		mPtr	song030_7_5
	.byte	PATT	
		mPtr	song030_7_6
	.byte		N96	, Bn2, v096
	.byte	W96
	.byte			Fs3, v116
	.byte	W96
	.byte	PAN	, c_v-22
	.byte		N52	, Gn2, v096
	.byte	W48
	.byte			Gs2, v100
	.byte	W48
song030_7_7:
	.byte		N52	, As2, v104
	.byte	W48
	.byte			Gn2, v084
	.byte	W48
	.byte	PEND
song030_7_8:
	.byte		N52	, Fs2, v080
	.byte	W48
	.byte			As2, v092
	.byte	W48
	.byte	PEND
	.byte		N90	, Bn2, v100
	.byte	W96
	.byte		N52	, Gn2, v096
	.byte	W48
	.byte			Gs2, v100
	.byte	W48
	.byte	PATT	
		mPtr	song030_7_7
	.byte	PATT	
		mPtr	song030_7_8
	.byte		N90	, Bn2, v100
	.byte	W96
	.byte	W92
	.byte	W03
	.byte	PAN	, c_v
	.byte	W01
	.byte		N96	, Cn3, v120
	.byte	W96
song030_7_9:
	.byte		N48	, Bn2, v116
	.byte	W48
	.byte			Fs3, v127
	.byte	W48
	.byte	PEND
	.byte		N44	, Fn3
	.byte	W44
	.byte	W02
	.byte		N48	, As2
	.byte	W48
	.byte			An2, v120
	.byte	W02
	.byte	W48
	.byte			En3, v127
	.byte	W48
	.byte		N96	, Cn3, v120
	.byte	W96
	.byte	PATT	
		mPtr	song030_7_9
	.byte		N44	, Fn3, v127
	.byte	W44
	.byte	W02
	.byte		N48	, As2
	.byte	W48
	.byte		N84	, An2, v120
	.byte	W02
	.byte	W96
	.byte		N96	, En2, v096
	.byte		N96	, Cn3, v120
	.byte	W92
	.byte	W01
	.byte		TIE	, Cs2, v096
	.byte	W03
	.byte		N48	, Bn2, v116
	.byte	W48
	.byte			Fs3, v127
	.byte	W44
	.byte	W01
	.byte		TIE	, Ds2, v096
	.byte	W02
	.byte		EOT	, Cs2
	.byte	W01
	.byte		N44	, Fn3, v127
	.byte	W44
	.byte	W02
	.byte		N48	, As2
	.byte	W44
	.byte	W03
	.byte		TIE	, En2, v096
	.byte	W01
	.byte		N48	, An2, v120
	.byte	W01
	.byte		EOT	, Ds2
	.byte	W01
	.byte	W48
	.byte		N48	, En3, v127
	.byte	W44
	.byte	W01
	.byte		TIE	, Ds2, v096
	.byte	W02
	.byte		EOT	, En2
	.byte	W01
	.byte		N96	, Cn3, v120
	.byte	W92
	.byte	W01
	.byte		TIE	, Dn2, v096
	.byte	W02
	.byte		EOT	, Ds2
	.byte	W01
	.byte		N48	, Bn2, v116
	.byte	W48
	.byte			Fs3, v127
	.byte	W44
	.byte	W01
	.byte		N96	, Cs2, v096
	.byte	W02
	.byte		EOT	, Dn2
	.byte	W01
	.byte		N44	, Fn3, v127
	.byte	W44
	.byte	W02
	.byte		N48	, As2
	.byte	W44
	.byte	W03
	.byte		N90	, Cn2, v096
	.byte	W01
	.byte		N84	, An2, v120
	.byte	W02
	.byte	W92
	.byte	W02
	.byte		N66	, Ds2, v112
	.byte	W02
	.byte	GOTO	
		mPtr	song030_7_10
	.byte	W66
	.byte	FINE

	@********************** Track  8 **********************@

	.global song030_8
song030_8:	@ 0x082791C0
	.byte	KEYSH	, 0
	.byte	VOICE	, 13
	.byte	VOL	, v077
	.byte	W01
	.byte	PAN	, c_v
	.byte		N07	, Cn2, v124
	.byte	W12
	.byte		N11	
	.byte	W12
	.byte			Ds2
	.byte	W18
	.byte		N05	, Cn2
	.byte	W12
	.byte			Ds2
	.byte	W12
	.byte			Cn2
	.byte	W06
	.byte		N11	, As1
	.byte	W12
	.byte			Fn2
	.byte	W11
song030_8_1:
	.byte	W01
	.byte		N06	, Cn2, v124
	.byte	W12
	.byte		N11	
	.byte	W12
	.byte			Ds2
	.byte	W18
	.byte		N05	, Cn2
	.byte	W06
	.byte			Ds2
	.byte	W06
	.byte			Gn2
	.byte	W06
	.byte			Fn2
	.byte	W12
	.byte			Gn2
	.byte	W12
	.byte			Ds2
	.byte	W06
	.byte			Cn2
	.byte	W05
	.byte	PEND
song030_8_2:
	.byte	W01
	.byte		N11	, Fs2, v124
	.byte	W18
	.byte			Ds2
	.byte	W18
	.byte		N05	
	.byte	W06
	.byte			Cs2
	.byte	W06
	.byte		N17	, Bn1
	.byte	W18
	.byte		N11	, Bn2
	.byte	W18
	.byte			Fs2
	.byte	W11
	.byte	PEND
song030_8_3:
	.byte	W01
	.byte		N11	, Gs2, v124
	.byte	W18
	.byte			Gs1
	.byte	W18
	.byte			Gs2
	.byte	W18
	.byte			Gs1
	.byte	W18
	.byte		N05	, Gs2
	.byte	W12
	.byte		N11	, Gs1
	.byte	W11
	.byte	PEND
song030_8_7:
	.byte	W01
	.byte		N07	, Cn2, v124
	.byte	W12
	.byte		N11	
	.byte	W12
	.byte			Ds2
	.byte	W18
	.byte		N05	, Cn2
	.byte	W12
	.byte			Ds2
	.byte	W12
	.byte			Cn2
	.byte	W06
	.byte		N11	, As1
	.byte	W12
	.byte			Fn2
	.byte	W11
	.byte	PEND
	.byte	PATT	
		mPtr	song030_8_1
	.byte	PATT	
		mPtr	song030_8_2
	.byte	PATT	
		mPtr	song030_8_3
	.byte	W96
	.byte	W96
	.byte	W96
song030_8_4:
	.byte		N17	, Gs2, v076
	.byte	W18
	.byte			Gs1
	.byte	W18
	.byte			Gs2
	.byte	W18
	.byte			Gs1
	.byte	W18
	.byte		N11	, Gs2
	.byte	W12
	.byte			Gs1, v024
	.byte	W12
	.byte	PEND
	.byte	W96
	.byte	W96
	.byte	W96
	.byte	PATT	
		mPtr	song030_8_4
song030_8_5:
	.byte	W01
	.byte		N06	, Cn3, v127
	.byte	W12
	.byte		N15	, Cn2, v124
	.byte	W18
	.byte		N06	
	.byte	W12
	.byte		N06	
	.byte	W06
	.byte		N12	, Ds2
	.byte	W18
	.byte		N18	, Cn2
	.byte	W18
	.byte		N06	, Gn2
	.byte	W06
	.byte			Fn2
	.byte	W05
	.byte	PEND
	.byte	PATT	
		mPtr	song030_8_5
song030_8_6:
	.byte	W01
	.byte		N06	, Gs2, v127
	.byte	W12
	.byte		N15	, Gs1, v124
	.byte	W18
	.byte		N06	
	.byte	W12
	.byte		N06	
	.byte	W06
	.byte		N12	, Bn1
	.byte	W18
	.byte		N18	, Gs1
	.byte	W18
	.byte		N06	, Ds2
	.byte	W06
	.byte			Cs2
	.byte	W05
	.byte	PEND
	.byte	PATT	
		mPtr	song030_8_6
	.byte	PATT	
		mPtr	song030_8_5
	.byte	PATT	
		mPtr	song030_8_5
	.byte	PATT	
		mPtr	song030_8_6
	.byte	PATT	
		mPtr	song030_8_6
	.byte	PATT	
		mPtr	song030_8_5
	.byte	PATT	
		mPtr	song030_8_5
	.byte	PATT	
		mPtr	song030_8_6
	.byte	PATT	
		mPtr	song030_8_6
	.byte	PATT	
		mPtr	song030_8_5
	.byte	PATT	
		mPtr	song030_8_5
	.byte	PATT	
		mPtr	song030_8_6
	.byte	PATT	
		mPtr	song030_8_6
	.byte	PATT	
		mPtr	song030_8_7
song030_8_9:
	.byte	W01
	.byte		N11	, An1, v120
	.byte	W12
	.byte		N18	, An2, v127
	.byte	W24
	.byte		N12	, An1, v120
	.byte	W24
	.byte			An2, v127
	.byte	W24
	.byte		N11	, An1, v120
	.byte	W11
	.byte	PEND
song030_8_10:
	.byte	W01
	.byte		N11	, Cs2, v120
	.byte	W12
	.byte		N18	, Cs3, v127
	.byte	W24
	.byte		N12	, Cs2, v120
	.byte	W24
	.byte			Cs3, v127
	.byte	W24
	.byte		N11	, Cs2, v120
	.byte	W11
	.byte	PEND
song030_8_11:
	.byte	W01
	.byte		N11	, Ds2, v120
	.byte	W12
	.byte		N18	, Ds3, v127
	.byte	W24
	.byte		N12	, Ds2, v120
	.byte	W24
	.byte			Ds3, v127
	.byte	W24
	.byte		N11	, Ds2, v120
	.byte	W11
	.byte	PEND
song030_8_8:
	.byte	W01
	.byte		N11	, Gs1, v120
	.byte	W12
	.byte		N18	, Gs2, v127
	.byte	W24
	.byte		N12	, Cn2, v120
	.byte	W24
	.byte		N11	, Ds2
	.byte	W12
	.byte		N23	, Gs2, v127
	.byte	W23
	.byte	PEND
song030_8_12:
	.byte	W01
	.byte		N11	, Fn1, v120
	.byte	W12
	.byte		N18	, Fn2, v127
	.byte	W24
	.byte		N12	, Fn1, v120
	.byte	W24
	.byte			Fn2, v127
	.byte	W24
	.byte		N11	, Fn1, v120
	.byte	W11
	.byte	PEND
song030_8_13:
	.byte	W01
	.byte		N11	, As1, v120
	.byte	W12
	.byte		N18	, As2, v127
	.byte	W24
	.byte		N12	, As1, v120
	.byte	W24
	.byte			As2, v127
	.byte	W24
	.byte		N11	, As1, v120
	.byte	W11
	.byte	PEND
song030_8_14:
	.byte	W01
	.byte		N11	, Ds1, v120
	.byte	W12
	.byte		N18	, Ds2, v127
	.byte	W24
	.byte		N12	, Ds1, v120
	.byte	W24
	.byte			Ds2, v127
	.byte	W24
	.byte		N11	, Ds1, v120
	.byte	W11
	.byte	PEND
	.byte	PATT	
		mPtr	song030_8_8
	.byte	PATT	
		mPtr	song030_8_9
	.byte	PATT	
		mPtr	song030_8_10
	.byte	PATT	
		mPtr	song030_8_11
	.byte	PATT	
		mPtr	song030_8_8
	.byte	PATT	
		mPtr	song030_8_12
	.byte	PATT	
		mPtr	song030_8_13
	.byte	PATT	
		mPtr	song030_8_14
	.byte	W01
	.byte		N11	, Gs1, v120
	.byte	W12
	.byte		N18	, Gs2, v127
	.byte	W24
	.byte		N12	, Cn2, v120
	.byte	W24
	.byte		N11	, Ds2
	.byte	W12
	.byte		N22	, Gs2, v127
	.byte	W23
	.byte	GOTO	
		mPtr	song030_8_7
	.byte	FINE

	@********************** Track  9 **********************@

	.global song030_9
song030_9:	@ 0x082793AF
	.byte	KEYSH	, 0
	.byte	VOICE	, 89
	.byte	VOL	, v048
	.byte	PAN	, c_v-30
	.byte	W96
	.byte	W96
	.byte	W96
	.byte	W96
song030_9_4:
	.byte	W96
	.byte	W96
	.byte	W96
song030_9_3:
	.byte	W48
	.byte	W01
	.byte		N03	, Cn2, v124
	.byte	W06
	.byte			Dn2
	.byte	W06
	.byte			En2
	.byte	W06
	.byte			Fs2
	.byte	W06
	.byte			Gs2
	.byte	W06
	.byte			Cn3
	.byte	W06
	.byte			En3
	.byte	W06
	.byte			Gs3
	.byte	W05
	.byte	PEND
song030_9_1:
	.byte	W01
	.byte		N04	, Cn5, v124
	.byte	W18
	.byte			Cn5, v076
	.byte	W18
	.byte		N04	
	.byte	W18
	.byte		N04	
	.byte	W24
	.byte		N04	
	.byte	W17
	.byte	PEND
	.byte	PATT	
		mPtr	song030_9_1
	.byte	PATT	
		mPtr	song030_9_1
song030_9_2:
	.byte	W01
	.byte		N04	, Cn5, v124
	.byte	W06
	.byte			Cn5, v076
	.byte	W06
	.byte		N04	
	.byte	W24
	.byte		N04	
	.byte	W12
	.byte			Cn5, v124
	.byte	W06
	.byte			Cn5, v076
	.byte	W06
	.byte		N04	
	.byte	W32
	.byte	W03
	.byte	PEND
	.byte	PATT	
		mPtr	song030_9_1
	.byte	PATT	
		mPtr	song030_9_1
	.byte	PATT	
		mPtr	song030_9_1
	.byte	PATT	
		mPtr	song030_9_2
	.byte	PATT	
		mPtr	song030_9_1
	.byte	PATT	
		mPtr	song030_9_1
	.byte	PATT	
		mPtr	song030_9_1
	.byte	PATT	
		mPtr	song030_9_2
	.byte	PATT	
		mPtr	song030_9_1
	.byte	PATT	
		mPtr	song030_9_1
	.byte	PATT	
		mPtr	song030_9_1
	.byte	PATT	
		mPtr	song030_9_2
	.byte	PATT	
		mPtr	song030_9_1
	.byte	PATT	
		mPtr	song030_9_1
	.byte	PATT	
		mPtr	song030_9_1
	.byte	PATT	
		mPtr	song030_9_2
	.byte	PATT	
		mPtr	song030_9_1
	.byte	PATT	
		mPtr	song030_9_1
	.byte	PATT	
		mPtr	song030_9_1
	.byte	PATT	
		mPtr	song030_9_2
	.byte	PATT	
		mPtr	song030_9_3
	.byte	PATT	
		mPtr	song030_9_1
	.byte	PATT	
		mPtr	song030_9_1
	.byte	PATT	
		mPtr	song030_9_1
	.byte	PATT	
		mPtr	song030_9_1
	.byte	PATT	
		mPtr	song030_9_1
	.byte	PATT	
		mPtr	song030_9_1
	.byte	PATT	
		mPtr	song030_9_1
	.byte	PATT	
		mPtr	song030_9_1
	.byte	PATT	
		mPtr	song030_9_1
	.byte	PATT	
		mPtr	song030_9_1
	.byte	PATT	
		mPtr	song030_9_1
	.byte	PATT	
		mPtr	song030_9_1
	.byte	PATT	
		mPtr	song030_9_1
	.byte	PATT	
		mPtr	song030_9_1
	.byte	PATT	
		mPtr	song030_9_1
	.byte	PATT	
		mPtr	song030_9_1
	.byte	GOTO	
		mPtr	song030_9_4
	.byte	FINE

	@********************** Track  10 **********************@

	.global song030_10
song030_10:	@ 0x082794C1
	.byte	KEYSH	, 0
	.byte	VOICE	, 89
	.byte	VOL	, v048
	.byte	PAN	, c_v+30
	.byte	W96
	.byte	W96
	.byte	W96
	.byte	W96
song030_10_4:
	.byte	W96
	.byte	W96
	.byte	W96
song030_10_3:
	.byte	W52
	.byte		N03	, Cs2, v124
	.byte	W06
	.byte			Ds2
	.byte	W06
	.byte			Fn2
	.byte	W06
	.byte			Gn2
	.byte	W06
	.byte			As2
	.byte	W06
	.byte			Dn3
	.byte	W06
	.byte			Fs3
	.byte	W06
	.byte			As3
	.byte	W02
	.byte	PEND
song030_10_1:
	.byte	W07
	.byte		N04	, Cn5, v076
	.byte	W24
	.byte		N04	
	.byte	W12
	.byte		N04	
	.byte	W06
	.byte			Cn5, v124
	.byte	W18
	.byte			Cn5, v076
	.byte	W28
	.byte	W01
	.byte	PEND
	.byte	PATT	
		mPtr	song030_10_1
	.byte	PATT	
		mPtr	song030_10_1
song030_10_2:
	.byte	W19
	.byte		N04	, Cn5, v124
	.byte	W06
	.byte			Cn5, v076
	.byte	W06
	.byte		N04	
	.byte	W12
	.byte		N04	
	.byte	W24
	.byte			Cn5, v124
	.byte	W06
	.byte			Cn5, v076
	.byte	W06
	.byte		N04	
	.byte	W17
	.byte	PEND
	.byte	PATT	
		mPtr	song030_10_1
	.byte	PATT	
		mPtr	song030_10_1
	.byte	PATT	
		mPtr	song030_10_1
	.byte	PATT	
		mPtr	song030_10_2
	.byte	PATT	
		mPtr	song030_10_1
	.byte	PATT	
		mPtr	song030_10_1
	.byte	PATT	
		mPtr	song030_10_1
	.byte	PATT	
		mPtr	song030_10_2
	.byte	PATT	
		mPtr	song030_10_1
	.byte	PATT	
		mPtr	song030_10_1
	.byte	PATT	
		mPtr	song030_10_1
	.byte	PATT	
		mPtr	song030_10_2
	.byte	PATT	
		mPtr	song030_10_1
	.byte	PATT	
		mPtr	song030_10_1
	.byte	PATT	
		mPtr	song030_10_1
	.byte	PATT	
		mPtr	song030_10_2
	.byte	PATT	
		mPtr	song030_10_1
	.byte	PATT	
		mPtr	song030_10_1
	.byte	PATT	
		mPtr	song030_10_1
	.byte	PATT	
		mPtr	song030_10_2
	.byte	PATT	
		mPtr	song030_10_3
	.byte	PATT	
		mPtr	song030_10_1
	.byte	PATT	
		mPtr	song030_10_1
	.byte	PATT	
		mPtr	song030_10_1
	.byte	PATT	
		mPtr	song030_10_1
	.byte	PATT	
		mPtr	song030_10_1
	.byte	PATT	
		mPtr	song030_10_1
	.byte	PATT	
		mPtr	song030_10_1
	.byte	PATT	
		mPtr	song030_10_1
	.byte	PATT	
		mPtr	song030_10_1
	.byte	PATT	
		mPtr	song030_10_1
	.byte	PATT	
		mPtr	song030_10_1
	.byte	PATT	
		mPtr	song030_10_1
	.byte	PATT	
		mPtr	song030_10_1
	.byte	PATT	
		mPtr	song030_10_1
	.byte	PATT	
		mPtr	song030_10_1
	.byte	PATT	
		mPtr	song030_10_1
	.byte	GOTO	
		mPtr	song030_10_4
	.byte	FINE

	@********************** Track  11 **********************@

	.global song030_11
song030_11:	@ 0x082795D3
	.byte	KEYSH	, 0
	.byte	VOICE	, 91
	.byte	VOL	, v047
	.byte	PAN	, c_v
	.byte	W96
	.byte	W96
	.byte	W96
	.byte	W96
song030_11_2:
	.byte	W96
	.byte	W96
	.byte	W96
	.byte	W96
song030_11_1:
	.byte	W84
	.byte	W01
	.byte		N11	, Cn6, v084
	.byte	W11
	.byte	PEND
	.byte	PATT	
		mPtr	song030_11_1
	.byte	PATT	
		mPtr	song030_11_1
	.byte	PATT	
		mPtr	song030_11_1
	.byte	PATT	
		mPtr	song030_11_1
	.byte	PATT	
		mPtr	song030_11_1
	.byte	PATT	
		mPtr	song030_11_1
	.byte	PATT	
		mPtr	song030_11_1
	.byte	PATT	
		mPtr	song030_11_1
	.byte	PATT	
		mPtr	song030_11_1
	.byte	PATT	
		mPtr	song030_11_1
	.byte	PATT	
		mPtr	song030_11_1
	.byte	PATT	
		mPtr	song030_11_1
	.byte	PATT	
		mPtr	song030_11_1
	.byte	PATT	
		mPtr	song030_11_1
	.byte	PATT	
		mPtr	song030_11_1
	.byte	PATT	
		mPtr	song030_11_1
	.byte	PATT	
		mPtr	song030_11_1
	.byte	PATT	
		mPtr	song030_11_1
	.byte	PATT	
		mPtr	song030_11_1
	.byte	PATT	
		mPtr	song030_11_1
	.byte	PATT	
		mPtr	song030_11_1
	.byte	PATT	
		mPtr	song030_11_1
	.byte	PATT	
		mPtr	song030_11_1
	.byte	W96
	.byte	PATT	
		mPtr	song030_11_1
	.byte	PATT	
		mPtr	song030_11_1
	.byte	PATT	
		mPtr	song030_11_1
	.byte	PATT	
		mPtr	song030_11_1
	.byte	PATT	
		mPtr	song030_11_1
	.byte	PATT	
		mPtr	song030_11_1
	.byte	PATT	
		mPtr	song030_11_1
	.byte	PATT	
		mPtr	song030_11_1
	.byte	PATT	
		mPtr	song030_11_1
	.byte	PATT	
		mPtr	song030_11_1
	.byte	PATT	
		mPtr	song030_11_1
	.byte	PATT	
		mPtr	song030_11_1
	.byte	PATT	
		mPtr	song030_11_1
	.byte	PATT	
		mPtr	song030_11_1
	.byte	PATT	
		mPtr	song030_11_1
	.byte	PATT	
		mPtr	song030_11_1
	.byte	GOTO	
		mPtr	song030_11_2
	.byte	FINE

	@********************** Track  12 **********************@

	.global song030_12
song030_12:	@ 0x082796B4
	.byte	KEYSH	, 0
	.byte	VOICE	, 109
	.byte	VOL	, v080
	.byte	PAN	, c_v
	.byte	W96
	.byte	W96
	.byte	W96
	.byte	W96
song030_12_3:
	.byte	W96
	.byte	W96
	.byte	W96
	.byte	W96
	.byte	W96
	.byte	W96
	.byte	W96
	.byte	W96
	.byte	W96
	.byte	W96
	.byte	W96
	.byte	W96
song030_12_1:
	.byte	PAN	, c_v
	.byte		N48	, Gn3, v116
	.byte	W48
	.byte			Gn4, v127
	.byte	W48
	.byte	PEND
song030_12_2:
	.byte		N48	, Fn4, v127
	.byte	W48
	.byte			Dn4, v116
	.byte	W48
	.byte	PEND
	.byte		N96	, Bn3, v096
	.byte	W96
	.byte			Fs4, v116
	.byte	W96
	.byte	PATT	
		mPtr	song030_12_1
	.byte	PATT	
		mPtr	song030_12_2
	.byte		N96	, Bn3, v096
	.byte	W96
	.byte			Fs4, v116
	.byte	W96
	.byte	W96
	.byte	W96
	.byte	W96
	.byte	W96
	.byte	W96
	.byte	W96
	.byte	W96
	.byte	W96
	.byte	W96
	.byte	W96
	.byte	W96
	.byte	W96
	.byte	W96
	.byte	W96
	.byte	W96
	.byte	W96
	.byte	W96
	.byte	W96
	.byte	W96
	.byte	W96
	.byte	W96
	.byte	W96
	.byte	W96
	.byte	W96
	.byte	W96
	.byte	GOTO	
		mPtr	song030_12_3
	.byte	FINE
    
	mAlignWord
	.global song030
song030:	@ 0x08279718
	.byte	12		@ trackCount
	.byte	0		@ blockCount
	.byte	20		@ priority
	.byte	128		@ reverb

	mAlignWord
	mPtr	voicegroup017		@ voicegroup/tone

	mPtr	song030_1		@ track
	mPtr	song030_2		@ track
	mPtr	song030_3		@ track
	mPtr	song030_4		@ track
	mPtr	song030_5		@ track
	mPtr	song030_6		@ track
	mPtr	song030_7		@ track
	mPtr	song030_8		@ track
	mPtr	song030_9		@ track
	mPtr	song030_10		@ track
	mPtr	song030_11		@ track
	mPtr	song030_12		@ track
