	.include "MPlayDef.s"

	.section .rodata

	@********************** Track  1 **********************@

	.align 2
	.global song069_1
song069_1:	@ 0x082A1C90
	.byte	KEYSH	, 0
	.byte	TEMPO	, 75
	.byte	VOICE	, 127
	.byte	VOL	, v080
	.byte	PAN	, c_v
	.byte		N06	, Bn6, v120
	.byte	W06
	.byte		N05	, Fs5
	.byte	W06
	.byte		N11	
	.byte		N11	, Bn6
	.byte	W12
	.byte	TEMPO	, 75
	.byte		N06	, Gn7, v127
	.byte	W12
	.byte		N12	
	.byte	W11
	.byte		N07	, Fs5
	.byte		N07	, Bn6
	.byte	W08
	.byte		N04	, Gn5
	.byte	W05
	.byte		N06	, Ds5
	.byte	W06
	.byte		N04	, Gn7
	.byte	W06
	.byte		N06	
	.byte	W06
	.byte		N04	, Gn5
	.byte	W06
	.byte		N12	, Gn7
	.byte	W12
	.byte		N11	, Fs5
	.byte		N11	, Bn6
	.byte	W12
	.byte		N06	, En5
	.byte	W06
	.byte		N04	, Gn5
	.byte	W06
song069_1_1:
	.byte		N06	, Gn7, v127
	.byte	W12
	.byte		N12	
	.byte	W11
	.byte		N07	, Fs5
	.byte		N07	, Bn6
	.byte	W08
	.byte		N04	, Gn5
	.byte	W05
	.byte		N06	, Ds5
	.byte	W06
	.byte		N04	, Gn7
	.byte	W06
	.byte		N06	
	.byte	W06
	.byte		N04	, Gn5
	.byte	W06
	.byte		N12	, Gn7
	.byte	W12
	.byte		N11	, Fs5
	.byte		N11	, Bn6
	.byte	W12
	.byte		N06	, En5
	.byte	W06
	.byte		N04	, Gn5
	.byte	W06
	.byte	PEND
	.byte	PATT	
		.word	song069_1_1
	.byte	PATT	
		.word	song069_1_1
	.byte	PATT	
		.word	song069_1_1
	.byte	PATT	
		.word	song069_1_1
	.byte	PATT	
		.word	song069_1_1
	.byte	PATT	
		.word	song069_1_1
	.byte	PATT	
		.word	song069_1_1
	.byte	PATT	
		.word	song069_1_1
	.byte	PATT	
		.word	song069_1_1
	.byte	PATT	
		.word	song069_1_1
	.byte	PATT	
		.word	song069_1_1
	.byte	PATT	
		.word	song069_1_1
	.byte	PATT	
		.word	song069_1_1
	.byte		N06	, Gn7, v127
	.byte	W12
	.byte		N11	, Fs5
	.byte		N11	, Bn6
	.byte	W12
	.byte		N07	, Fs5
	.byte		N07	, Bn6
	.byte	W07
	.byte		N04	, Gn5
	.byte	W05
	.byte		N06	, Ds5
	.byte	W06
	.byte		N04	, Gn7
	.byte	W06
	.byte		N06	, Gn5
	.byte		N06	, Bn6
	.byte	W06
	.byte		N04	, Gn5
	.byte	W06
	.byte		N12	, Fs5
	.byte		N12	, Bn6
	.byte	W12
	.byte		N07	, Fs5
	.byte		N07	, Gn7
	.byte	W07
	.byte		N04	, Gn5
	.byte	W05
	.byte		N06	, Ds5
	.byte	W06
	.byte		N04	, Gn5
	.byte	W06
song069_1_2:
	.byte		N11	, Fs5, v120
	.byte		N11	, Bn6
	.byte	W12
	.byte			Gn7, v100
	.byte	W12
	.byte			Fs5, v120
	.byte		N11	, Bn6
	.byte	W12
	.byte			Gn7, v100
	.byte	W12
	.byte			Fs5, v120
	.byte		N11	, Bn6
	.byte	W12
	.byte			Gn7, v100
	.byte	W12
	.byte			Fs5, v120
	.byte		N11	, Bn6
	.byte	W12
	.byte			Gn7, v100
	.byte	W12
	.byte	PEND
	.byte	PATT	
		.word	song069_1_2
	.byte	PATT	
		.word	song069_1_2
song069_1_3:
	.byte		N11	, Fs5, v120
	.byte		N11	, Bn6
	.byte	W12
	.byte			Gn7, v100
	.byte	W12
	.byte			Fs5, v120
	.byte		N11	, Bn6
	.byte	W12
	.byte			Gn7, v100
	.byte	W06
	.byte		N06	, Fs5, v120
	.byte		N06	, Bn6
	.byte	W06
	.byte		N12	, En6
	.byte	W12
	.byte		N11	, Fs5
	.byte		N11	, Bn6
	.byte	W12
	.byte		N06	, En6
	.byte	W06
	.byte		N05	, Gs6
	.byte	W06
	.byte		N11	, Gn7, v100
	.byte	W12
	.byte	PEND
	.byte	PATT	
		.word	song069_1_2
	.byte	PATT	
		.word	song069_1_2
	.byte	PATT	
		.word	song069_1_2
	.byte	PATT	
		.word	song069_1_3
	.byte	PATT	
		.word	song069_1_1
	.byte	GOTO	
		.word	song069_1_1
	.byte		N06	, Gn7, v127
	.byte	W12
	.byte		N12	
	.byte	W11
	.byte		N07	, Fs5
	.byte		N07	, Bn6
	.byte	W08
	.byte		N04	, Gn5
	.byte	W05
	.byte		N06	, Ds5
	.byte	W06
	.byte		N04	, Gn7
	.byte	W06
	.byte		N06	
	.byte	W06
	.byte		N04	, Gn5
	.byte	W06
	.byte		N12	, Gn7
	.byte	W12
	.byte		N11	, Fs5
	.byte		N11	, Bn6
	.byte	W12
	.byte		N06	, En5
	.byte	W06
	.byte		N04	, Gn5
	.byte	W05
	.byte	FINE

	@********************** Track  2 **********************@

	.global song069_2
song069_2:	@ 0x082A1E05
	.byte	KEYSH	, 0
	.byte	VOICE	, 60
	.byte	VOL	, v050
	.byte	PAN	, c_v-19
	.byte	W24
song069_2_1:
	.byte		N05	, Ds7, v052
	.byte	W06
	.byte		N03	, Bn6, v020
	.byte	W18
	.byte		N05	, Ds7, v024
	.byte	W06
	.byte		N03	, Bn6, v004
	.byte	W18
	.byte		N05	, Ds7, v052
	.byte	W06
	.byte		N03	, Bn6, v020
	.byte	W18
	.byte		N05	, Ds7, v052
	.byte	W06
	.byte		N03	, Bn6, v020
	.byte	W18
	.byte	PEND
song069_2_5:
	.byte	PATT	
		.word	song069_2_1
	.byte	PATT	
		.word	song069_2_1
	.byte	PATT	
		.word	song069_2_1
	.byte	PATT	
		.word	song069_2_1
song069_2_2:
	.byte		N05	, Ds7, v052
	.byte	W06
	.byte		N03	, Bn6, v020
	.byte	W18
	.byte		N05	, Ds7, v024
	.byte	W06
	.byte		N03	, Bn6, v004
	.byte	W18
	.byte		N05	, Ds7, v052
	.byte	W06
	.byte		N03	, Bn6, v020
	.byte	W18
	.byte		N05	, Ds7, v052
	.byte	W06
	.byte		N03	, Bn6, v020
	.byte	W06
	.byte		N05	, Ds7, v052
	.byte	W06
	.byte		N03	, Bn6, v020
	.byte	W06
	.byte	PEND
song069_2_3:
	.byte	W12
	.byte		N05	, Ds7, v024
	.byte	W06
	.byte		N03	, Bn6, v004
	.byte	W18
	.byte		N05	, Ds7, v052
	.byte	W06
	.byte		N03	, Bn6, v020
	.byte	W18
	.byte		N05	, Ds7, v052
	.byte	W06
	.byte		N03	, Bn6, v020
	.byte	W18
	.byte		N05	, Ds7, v052
	.byte	W06
	.byte		N03	, Bn6, v020
	.byte	W06
	.byte	PEND
song069_2_4:
	.byte	W12
	.byte		N05	, Ds7, v024
	.byte	W06
	.byte		N03	, Bn6, v004
	.byte	W18
	.byte		N05	, Ds7, v052
	.byte	W06
	.byte		N03	, Bn6, v020
	.byte	W18
	.byte		N05	, Ds7, v052
	.byte	W06
	.byte		N03	, Bn6, v020
	.byte	W30
	.byte	PEND
	.byte	PATT	
		.word	song069_2_1
	.byte	PATT	
		.word	song069_2_1
	.byte	PATT	
		.word	song069_2_1
	.byte	PATT	
		.word	song069_2_1
	.byte	PATT	
		.word	song069_2_1
	.byte	PATT	
		.word	song069_2_2
	.byte	PATT	
		.word	song069_2_3
	.byte	PATT	
		.word	song069_2_4
	.byte	PATT	
		.word	song069_2_1
	.byte	PATT	
		.word	song069_2_1
	.byte	PATT	
		.word	song069_2_1
	.byte	PATT	
		.word	song069_2_1
	.byte	PATT	
		.word	song069_2_1
	.byte	PATT	
		.word	song069_2_2
	.byte	PATT	
		.word	song069_2_3
	.byte	PATT	
		.word	song069_2_4
	.byte	PATT	
		.word	song069_2_1
	.byte	GOTO	
		.word	song069_2_5
	.byte		N05	, Ds7, v052
	.byte	W06
	.byte		N03	, Bn6, v020
	.byte	W18
	.byte		N05	, Ds7, v024
	.byte	W06
	.byte		N03	, Bn6, v004
	.byte	W18
	.byte		N05	, Ds7, v052
	.byte	W06
	.byte		N03	, Bn6, v020
	.byte	W18
	.byte		N05	, Ds7, v052
	.byte	W06
	.byte		N03	, Bn6, v020
	.byte	W03
	.byte	FINE

	@********************** Track  3 **********************@

	.global song069_3
song069_3:	@ 0x082A1F23
	.byte	KEYSH	, 0
	.byte	VOICE	, 61
	.byte	VOL	, v070
	.byte	PAN	, c_v-19
	.byte	W24
song069_3_1:
	.byte	W12
	.byte		N12	, Gn7, v068
	.byte	W24
	.byte		N12	
	.byte	W24
	.byte		N12	
	.byte	W24
	.byte		N12	
	.byte	W12
	.byte	PEND
song069_3_5:
	.byte	PATT	
		.word	song069_3_1
	.byte	PATT	
		.word	song069_3_1
	.byte	PATT	
		.word	song069_3_1
	.byte	PATT	
		.word	song069_3_1
song069_3_2:
	.byte	W12
	.byte		N12	, Gn7, v068
	.byte	W24
	.byte		N12	
	.byte	W24
	.byte		N12	
	.byte	W36
	.byte	PEND
song069_3_3:
	.byte		N12	, Gn7, v068
	.byte	W24
	.byte		N12	
	.byte	W24
	.byte		N12	
	.byte	W24
	.byte		N11	
	.byte	W12
	.byte		N11	
	.byte	W12
	.byte	PEND
song069_3_4:
	.byte		N12	, Gn7, v068
	.byte	W24
	.byte		N12	
	.byte	W24
	.byte		N12	
	.byte	W24
	.byte		N12	
	.byte	W24
	.byte	PEND
	.byte	PATT	
		.word	song069_3_1
	.byte	PATT	
		.word	song069_3_1
	.byte	PATT	
		.word	song069_3_1
	.byte	PATT	
		.word	song069_3_1
	.byte	PATT	
		.word	song069_3_1
	.byte	PATT	
		.word	song069_3_2
	.byte	PATT	
		.word	song069_3_3
	.byte	PATT	
		.word	song069_3_4
	.byte	PATT	
		.word	song069_3_1
	.byte	PATT	
		.word	song069_3_1
	.byte	PATT	
		.word	song069_3_1
	.byte	PATT	
		.word	song069_3_1
	.byte	PATT	
		.word	song069_3_1
	.byte	PATT	
		.word	song069_3_2
	.byte	PATT	
		.word	song069_3_3
	.byte	PATT	
		.word	song069_3_4
	.byte	PATT	
		.word	song069_3_1
	.byte	GOTO	
		.word	song069_3_5
	.byte	PATT	
		.word	song069_3_1
	.byte	FINE

	@********************** Track  4 **********************@

	.global song069_4
song069_4:	@ 0x082A1FCE
	.byte	KEYSH	, 0
	.byte	VOICE	, 46
	.byte	VOL	, v076
	.byte	PAN	, c_v-4
	.byte	W24
song069_4_1:
	.byte	W01
	.byte		N05	, As1, v100
	.byte	W06
	.byte		N05	
	.byte	W06
	.byte		N05	
	.byte	W06
	.byte			As2
	.byte	W06
	.byte			As1
	.byte	W12
	.byte			An1
	.byte	W06
	.byte			As2
	.byte	W06
	.byte			As1
	.byte	W12
	.byte		N05	
	.byte	W06
	.byte			As2
	.byte	W06
	.byte			As1
	.byte	W06
	.byte			Cn2
	.byte	W06
	.byte			An1
	.byte	W06
	.byte			Cn3
	.byte	W05
	.byte	PEND
song069_4_2:
	.byte	W01
	.byte		N05	, Cn2, v100
	.byte	W12
	.byte			As2
	.byte	W06
	.byte			As1
	.byte	W12
	.byte			Cn2
	.byte	W12
	.byte		N05	
	.byte	W06
	.byte			As1
	.byte	W06
	.byte			Cn3
	.byte	W06
	.byte			As1
	.byte	W06
	.byte			As2
	.byte	W06
	.byte			As1
	.byte	W06
	.byte			Cn3
	.byte	W06
	.byte			Cn2
	.byte	W11
	.byte	PEND
song069_4_3:
	.byte	W01
	.byte		N05	, Ds1, v100
	.byte	W06
	.byte			Fn1
	.byte	W06
	.byte			Ds1
	.byte	W06
	.byte			Fn2
	.byte	W06
	.byte			Fn1
	.byte	W12
	.byte			Ds1
	.byte	W06
	.byte			Ds2
	.byte	W06
	.byte			Fn1
	.byte	W12
	.byte		N05	
	.byte	W06
	.byte			Fn2
	.byte	W06
	.byte			Gs1
	.byte	W06
	.byte			As1
	.byte	W06
	.byte			Fn1
	.byte	W06
	.byte			As2
	.byte	W05
	.byte	PEND
song069_4_4:
	.byte	W01
	.byte		N05	, Ds1, v100
	.byte	W12
	.byte			Cs2
	.byte	W06
	.byte			Cs1
	.byte	W12
	.byte			Ds1
	.byte	W12
	.byte		N05	
	.byte	W06
	.byte			Cs2
	.byte	W06
	.byte			Ds3
	.byte	W06
	.byte			Cs2
	.byte	W06
	.byte			Cn3
	.byte	W06
	.byte			Cs2
	.byte	W06
	.byte			Ds3
	.byte	W06
	.byte			Ds2
	.byte	W11
	.byte	PEND
	.byte	PATT	
		.word	song069_4_1
	.byte	PATT	
		.word	song069_4_2
	.byte	PATT	
		.word	song069_4_3
	.byte	PATT	
		.word	song069_4_4
	.byte	PATT	
		.word	song069_4_1
	.byte	PATT	
		.word	song069_4_2
	.byte	PATT	
		.word	song069_4_3
	.byte	PATT	
		.word	song069_4_4
	.byte	PATT	
		.word	song069_4_1
	.byte	PATT	
		.word	song069_4_2
	.byte	PATT	
		.word	song069_4_3
	.byte	W01
	.byte		N05	, Ds2, v100
	.byte	W12
	.byte			Ds3
	.byte	W06
	.byte			Cn2
	.byte	W12
	.byte			As1
	.byte	W12
	.byte		N05	
	.byte	W06
	.byte			Cn2
	.byte	W06
	.byte			As2
	.byte	W06
	.byte			As1
	.byte	W06
	.byte			Fn2
	.byte	W06
	.byte			As1
	.byte	W06
	.byte			As2
	.byte	W06
	.byte			As1
	.byte	W11
song069_4_5:
	.byte		N04	, Ds2, v112
	.byte	W12
	.byte		N03	
	.byte	W12
	.byte		N04	
	.byte	W12
	.byte		N05	
	.byte	W06
	.byte		N10	, Dn2
	.byte	W12
	.byte		N03	
	.byte	W06
	.byte		N05	, Ds2
	.byte	W12
	.byte			Dn2
	.byte	W12
	.byte		N11	, Ds2
	.byte	W12
	.byte	PEND
	.byte		N05	, Dn2
	.byte	W12
	.byte		N04	
	.byte	W12
	.byte		N03	
	.byte	W12
	.byte		N06	
	.byte	W06
	.byte		N10	, Cs2
	.byte	W12
	.byte		N06	
	.byte	W06
	.byte		N05	, Dn2
	.byte	W12
	.byte		N03	, Cs2
	.byte	W12
	.byte		N11	, Dn2
	.byte	W12
	.byte		N06	, Cn2
	.byte	W12
	.byte		N04	
	.byte	W12
	.byte		N04	
	.byte	W12
	.byte		N06	
	.byte	W06
	.byte		N10	, Bn1
	.byte	W12
	.byte		N06	
	.byte	W06
	.byte		N04	, Cn2
	.byte	W12
	.byte		N04	
	.byte	W12
	.byte		N11	
	.byte	W12
	.byte		N05	, As1
	.byte	W12
	.byte		N04	
	.byte	W12
	.byte		N05	
	.byte	W12
	.byte			An1
	.byte	W06
	.byte		N10	, As1
	.byte	W12
	.byte		N05	
	.byte	W06
	.byte		N06	, An1
	.byte	W12
	.byte		N11	, Gn1
	.byte	W12
	.byte			An1
	.byte	W12
	.byte	PATT	
		.word	song069_4_5
	.byte		N05	, Gn2, v112
	.byte	W12
	.byte		N04	
	.byte	W12
	.byte		N03	
	.byte	W12
	.byte		N06	
	.byte	W06
	.byte		N10	, Fs2
	.byte	W12
	.byte		N06	
	.byte	W06
	.byte		N05	, Gn2
	.byte	W12
	.byte		N03	, Fs2
	.byte	W12
	.byte		N11	, Gn2
	.byte	W12
	.byte		N06	, Fn2
	.byte	W12
	.byte		N04	
	.byte	W12
	.byte		N04	
	.byte	W12
	.byte		N06	
	.byte	W06
	.byte		N10	, En2
	.byte	W12
	.byte		N06	
	.byte	W06
	.byte		N04	, Fn2
	.byte	W12
	.byte		N04	
	.byte	W12
	.byte		N11	
	.byte	W12
	.byte		N05	
	.byte	W12
	.byte		N04	
	.byte	W12
	.byte		N05	
	.byte	W12
	.byte			En2
	.byte	W06
	.byte		N10	, Fn2
	.byte	W12
	.byte		N05	
	.byte	W06
	.byte		N06	, En2
	.byte	W12
	.byte		N11	, Dn2
	.byte	W12
	.byte			Fn1
	.byte	W12
	.byte	PATT	
		.word	song069_4_1
	.byte	GOTO	
		.word	song069_4_2
	.byte	W01
	.byte		N05	, Cn2, v100
	.byte	W12
	.byte			As2
	.byte	W06
	.byte			As1
	.byte	W12
	.byte			Cn2
	.byte	W12
	.byte		N05	
	.byte	W06
	.byte			As1
	.byte	W06
	.byte			Cn3
	.byte	W06
	.byte			As1
	.byte	W06
	.byte			As2
	.byte	W06
	.byte			As1
	.byte	W06
	.byte			Cn3
	.byte	W06
	.byte			Cn2
	.byte	W05
	.byte	FINE

	@********************** Track  5 **********************@

	.global song069_5
song069_5:	@ 0x082A2168
	.byte	KEYSH	, 0
	.byte	VOICE	, 98
	.byte	VOL	, v083
	.byte	PAN	, c_v
	.byte	W24
song069_5_3:
	.byte		N12	, Bn2, v120
	.byte	W12
	.byte		N04	, Gn2, v104
	.byte	W12
	.byte		N03	, En2, v116
	.byte	W12
	.byte		N40	, Dn2, v124
	.byte	W48
	.byte		N23	, Cn3, v104
	.byte	W12
	.byte	PEND
song069_5_1:
	.byte	W12
	.byte		N03	, Bn2, v116
	.byte	W12
	.byte		N04	, Cn3
	.byte	W12
	.byte		N03	, Bn2, v108
	.byte	W12
	.byte		N04	, Cn3, v112
	.byte	W12
	.byte		N18	, Dn3, v120
	.byte	W24
	.byte		N23	, Bn2, v124
	.byte	W12
	.byte	PEND
song069_5_2:
	.byte	W12
	.byte		N03	, Gn2, v112
	.byte	W12
	.byte			En2, v124
	.byte	W12
	.byte		N20	, Dn2, v120
	.byte	W24
	.byte		N21	, Gn2, v104
	.byte	W24
	.byte		N24	, Fn2, v120
	.byte	W12
	.byte	PEND
	.byte	W12
	.byte		N03	, En2, v116
	.byte	W12
	.byte		N04	, Fn2, v120
	.byte	W12
	.byte			En2
	.byte	W12
	.byte			Fn2
	.byte	W12
	.byte		N18	, Gn2, v112
	.byte	W21
	.byte		N04	, Gn1, v072
	.byte	W04
	.byte		N02	, An1, v104
	.byte	W03
	.byte		N01	, Bn1, v112
	.byte	W01
	.byte			Cs2, v120
	.byte	W02
	.byte			Dn2
	.byte	W01
	.byte			En2, v116
	.byte	W02
	.byte			Fs2, v104
	.byte	W02
	.byte		N12	, Bn2, v120
	.byte	W02
	.byte		N03	, En2, v004
	.byte	W10
	.byte		N04	, Gn2, v104
	.byte	W12
	.byte		N03	, En2, v116
	.byte	W12
	.byte		N40	, Dn2, v124
	.byte	W48
	.byte		N23	, Cn3, v104
	.byte	W12
	.byte	PATT	
		.word	song069_5_1
	.byte	PATT	
		.word	song069_5_2
	.byte	W12
	.byte		N03	, En2, v116
	.byte	W12
	.byte		N04	, Fn2, v120
	.byte	W12
	.byte			En2
	.byte	W12
	.byte			Fn2
	.byte	W12
	.byte		N22	, Gn2, v112
	.byte	W36
	.byte	W96
	.byte	W96
	.byte	W96
	.byte	W96
	.byte	W96
	.byte	W96
	.byte	W96
	.byte	W96
	.byte		N40	, En3, v124
	.byte	W48
	.byte		N12	, Dn3, v127
	.byte	W24
	.byte		N09	, Cn3, v124
	.byte	W12
	.byte		N23	, Bn2, v127
	.byte	W12
	.byte	W12
	.byte		N05	, Cn3, v124
	.byte	W12
	.byte		N04	, Bn2, v127
	.byte	W12
	.byte			An2
	.byte	W12
	.byte		N23	, Gn2
	.byte	W24
	.byte		N11	, An2
	.byte	W12
	.byte		N12	, Gn2
	.byte	W12
	.byte	W12
	.byte		N04	, Dn2
	.byte	W12
	.byte		N03	, En2
	.byte	W12
	.byte		N04	, Gn2
	.byte	W12
	.byte		N23	, An2
	.byte	W24
	.byte		N04	, Gn2, v124
	.byte	W12
	.byte		N22	, Bn2, v127
	.byte	W12
	.byte	W12
	.byte		N04	, Cn3
	.byte	W12
	.byte		N03	, Bn2
	.byte	W12
	.byte		N44	, Gn2
	.byte	W60
	.byte		N42	, En3
	.byte	W48
	.byte		N11	, Dn3
	.byte	W24
	.byte		N05	, Cn3
	.byte	W12
	.byte		N24	, Bn2
	.byte	W12
	.byte	W12
	.byte		N04	, Cn3
	.byte	W12
	.byte		N03	, Bn2
	.byte	W12
	.byte			An2
	.byte	W12
	.byte		N24	, Gn2
	.byte	W24
	.byte		N12	, An2
	.byte	W12
	.byte		N05	, Gn2
	.byte	W12
	.byte	W12
	.byte		N03	, Dn2
	.byte	W12
	.byte		N12	, En2
	.byte	W12
	.byte		N03	, Fs2
	.byte	W24
	.byte		N03	
	.byte	W12
	.byte		N13	, Gn2
	.byte	W12
	.byte		N04	, An2
	.byte	W12
	.byte	W12
	.byte		N04	
	.byte	W12
	.byte		N13	, Bn2
	.byte	W12
	.byte		N04	, Cn3
	.byte	W11
	.byte		N23	, Dn3
	.byte	W22
	.byte		N04	, Cs3, v092
	.byte	W01
	.byte			Bn2, v112
	.byte	W02
	.byte			An2, v127
	.byte	W03
	.byte		N03	, Gs2, v116
	.byte	W01
	.byte			Fs2, v127
	.byte	W02
	.byte			En2
	.byte	W01
	.byte			Dn2, v116
	.byte	W01
	.byte			Cs2, v127
	.byte	W01
	.byte			Bn1
	.byte	W02
	.byte			An1, v116
	.byte	W01
	.byte			Gs1, v080
	.byte	W01
	.byte			Fs1, v104
	.byte	W01
	.byte			En1, v076
	.byte	W01
	.byte			Dn1, v100
	.byte	W09
	.byte	PATT	
		.word	song069_5_3
	.byte	GOTO	
		.word	song069_5_1
	.byte	PATT	
		.word	song069_5_1
	.byte	W11
	.byte	FINE

	@********************** Track  6 **********************@

	.global song069_6
song069_6:	@ 0x082A22D1
	.byte	KEYSH	, 0
	.byte	VOICE	, 76
	.byte	VOL	, v076
	.byte	PAN	, c_v
	.byte	W09
	.byte		N04	, As2, v072
	.byte	W04
	.byte		N02	, Cn3, v104
	.byte	W03
	.byte		N01	, Dn3, v112
	.byte	W01
	.byte			En3, v120
	.byte	W02
	.byte			Fn3
	.byte	W01
	.byte			Gn3, v116
	.byte	W02
	.byte			An3, v104
	.byte	W02
song069_6_3:
	.byte		N12	, Dn4, v120
	.byte	W12
	.byte		N04	, As3, v104
	.byte	W12
	.byte		N03	, Gn3, v116
	.byte	W12
	.byte		N40	, Fn3, v124
	.byte	W48
	.byte		N23	, Ds4, v104
	.byte	W12
	.byte	PEND
song069_6_1:
	.byte	W12
	.byte		N03	, Dn4, v116
	.byte	W12
	.byte		N04	, Ds4
	.byte	W12
	.byte		N03	, Dn4, v108
	.byte	W12
	.byte		N04	, Ds4, v112
	.byte	W12
	.byte		N18	, Fn4, v120
	.byte	W24
	.byte		N23	, Dn4, v124
	.byte	W12
	.byte	PEND
song069_6_2:
	.byte	W12
	.byte		N03	, As3, v112
	.byte	W12
	.byte			Gn3, v124
	.byte	W12
	.byte		N20	, Fn3, v120
	.byte	W24
	.byte		N04	, An3, v100
	.byte		N21	, As3, v104
	.byte	W24
	.byte		N24	, Gs3, v120
	.byte	W12
	.byte	PEND
song069_6_4:
	.byte	W12
	.byte		N03	, Gn3, v116
	.byte	W12
	.byte		N04	, Gs3, v120
	.byte	W12
	.byte			Gn3
	.byte	W12
	.byte			Gs3
	.byte	W12
	.byte		N18	, As3, v112
	.byte	W21
	.byte		N04	, As2, v072
	.byte	W04
	.byte		N02	, Cn3, v104
	.byte	W03
	.byte		N01	, Dn3, v112
	.byte	W01
	.byte			En3, v120
	.byte	W02
	.byte			Fn3
	.byte	W01
	.byte			Gn3, v116
	.byte	W02
	.byte			An3, v104
	.byte	W02
	.byte	PEND
song069_6_5:
	.byte		N12	, Dn4, v120
	.byte	W02
	.byte		N03	, Gn3, v004
	.byte	W10
	.byte		N04	, As3, v104
	.byte	W12
	.byte		N03	, Gn3, v116
	.byte	W12
	.byte		N40	, Fn3, v124
	.byte	W48
	.byte		N23	, Ds4, v104
	.byte	W12
	.byte	PEND
	.byte	PATT	
		.word	song069_6_1
	.byte	PATT	
		.word	song069_6_2
	.byte	W12
	.byte		N03	, Gn3, v116
	.byte	W12
	.byte		N04	, Gs3, v120
	.byte	W12
	.byte			Gn3
	.byte	W12
	.byte			Gs3
	.byte	W12
	.byte		N22	, As3, v112
	.byte	W36
	.byte	PATT	
		.word	song069_6_3
	.byte	PATT	
		.word	song069_6_1
	.byte	PATT	
		.word	song069_6_2
	.byte	PATT	
		.word	song069_6_4
	.byte	PATT	
		.word	song069_6_5
	.byte	PATT	
		.word	song069_6_1
	.byte	W12
	.byte		N03	, As3, v112
	.byte	W12
	.byte			Gn3, v124
	.byte	W12
	.byte		N20	, Fn3, v120
	.byte	W24
	.byte		N21	, As3, v104
	.byte	W24
	.byte		N24	, Ds4, v120
	.byte	W12
	.byte	W12
	.byte		N03	, Dn4, v127
	.byte	W12
	.byte		N04	, Cn4
	.byte	W12
	.byte			As3
	.byte	W12
	.byte			Cn4
	.byte	W12
	.byte		N22	, As3
	.byte	W36
	.byte		N40	, Gn4, v096
	.byte	W48
	.byte		N12	, Fn4, v108
	.byte	W24
	.byte		N09	, Ds4, v096
	.byte	W12
	.byte		N23	, Dn4, v104
	.byte	W12
	.byte	W12
	.byte		N05	, Ds4, v096
	.byte	W12
	.byte		N04	, Dn4, v112
	.byte	W12
	.byte			Cn4, v100
	.byte	W12
	.byte		N23	, As3, v096
	.byte	W24
	.byte		N11	, Cn4, v104
	.byte	W12
	.byte		N12	, As3
	.byte	W12
	.byte	W12
	.byte		N04	, Fn3, v108
	.byte	W12
	.byte		N03	, Gn3, v104
	.byte	W12
	.byte		N04	, As3, v112
	.byte	W12
	.byte		N23	, Cn4, v116
	.byte	W24
	.byte		N04	, As3, v096
	.byte	W12
	.byte		N22	, Dn4, v120
	.byte	W12
	.byte	W12
	.byte		N04	, Ds4, v116
	.byte	W12
	.byte		N03	, Dn4, v124
	.byte	W12
	.byte		N44	, As3, v112
	.byte	W60
	.byte		N42	, Gn4, v104
	.byte	W48
	.byte		N11	, Fn4, v096
	.byte	W24
	.byte		N05	, Ds4, v108
	.byte	W12
	.byte		N24	, Dn4, v116
	.byte	W12
	.byte	W12
	.byte		N04	, Ds4, v104
	.byte	W12
	.byte		N03	, Dn4, v116
	.byte	W12
	.byte			Cn4, v112
	.byte	W12
	.byte		N24	, As3, v108
	.byte	W24
	.byte		N12	, Cn4, v116
	.byte	W12
	.byte		N05	, As3, v104
	.byte	W12
	.byte	W12
	.byte		N03	, Fn3, v100
	.byte	W12
	.byte		N12	, Gn3, v116
	.byte	W12
	.byte		N03	, An3, v112
	.byte	W24
	.byte			An3, v104
	.byte	W12
	.byte		N13	, As3, v108
	.byte	W12
	.byte		N04	, Cn4, v120
	.byte	W12
	.byte	W12
	.byte			Cn4, v116
	.byte	W12
	.byte		N13	, Dn4, v100
	.byte	W12
	.byte		N04	, Ds4, v108
	.byte	W11
	.byte		N23	, Fn4, v116
	.byte	W22
	.byte		N04	, En4, v064
	.byte	W01
	.byte			Dn4, v084
	.byte	W02
	.byte			Cn4, v096
	.byte	W03
	.byte		N03	, Bn3, v088
	.byte	W01
	.byte			An3, v108
	.byte	W02
	.byte			Gn3, v100
	.byte	W01
	.byte			Fn3, v088
	.byte	W01
	.byte			En3, v104
	.byte	W01
	.byte			Dn3, v100
	.byte	W02
	.byte			Cn3, v084
	.byte	W01
	.byte			Bn2, v052
	.byte	W01
	.byte			An2, v072
	.byte	W01
	.byte			Gn2, v048
	.byte	W01
	.byte			Fn2, v072
	.byte	W09
	.byte	PATT	
		.word	song069_6_3
	.byte	GOTO	
		.word	song069_6_1
	.byte	PATT	
		.word	song069_6_1
	.byte	W11
	.byte	FINE

	@********************** Track  7 **********************@

	.global song069_7
song069_7:	@ 0x082A24AF
	.byte	KEYSH	, 0
	.byte	VOICE	, 0
	.byte	VOL	, v060
	.byte	PAN	, c_v
	.byte	MOD	, 0
	.byte	W24
	.byte	W96
song069_7_1:
	.byte	W96
	.byte	W96
	.byte	W96
	.byte	W96
	.byte	W96
	.byte	W96
	.byte	W96
	.byte		N12	, Dn5, v076
	.byte	W12
	.byte		N04	, As4
	.byte	W12
	.byte		N03	, Gn4
	.byte	W12
	.byte		N40	, Fn4
	.byte	W48
	.byte		N23	, Ds5
	.byte	W12
	.byte	W12
	.byte		N03	, Dn5
	.byte	W12
	.byte		N04	, Ds5
	.byte	W12
	.byte		N03	, Dn5
	.byte	W12
	.byte		N04	, Ds5
	.byte	W12
	.byte		N18	, Fn5
	.byte	W24
	.byte		N23	, Dn5
	.byte	W12
	.byte	W12
	.byte		N03	, As4
	.byte	W12
	.byte			Gn4
	.byte	W12
	.byte		N20	, Fn4
	.byte	W24
	.byte		N21	, As4
	.byte	W24
	.byte		N24	, Gs4
	.byte	W12
	.byte	W12
	.byte		N03	, Gn4
	.byte	W12
	.byte		N04	, Gs4
	.byte	W12
	.byte			Gn4
	.byte	W12
	.byte			Gs4
	.byte	W12
	.byte		N18	, As4
	.byte	W21
	.byte		N04	, As3
	.byte	W04
	.byte		N02	, Cn4
	.byte	W03
	.byte		N01	, Dn4
	.byte	W01
	.byte			En4
	.byte	W02
	.byte			Fn4
	.byte	W01
	.byte			Gn4
	.byte	W02
	.byte			An4
	.byte	W02
	.byte		N12	, Dn5
	.byte	W02
	.byte		N03	, Gn4
	.byte	W10
	.byte		N04	, As4
	.byte	W12
	.byte		N03	, Gn4
	.byte	W12
	.byte		N40	, Fn4
	.byte	W48
	.byte		N23	, Ds5
	.byte	W12
	.byte	W12
	.byte		N03	, Dn5
	.byte	W12
	.byte		N04	, Ds5
	.byte	W12
	.byte		N03	, Dn5
	.byte	W12
	.byte		N04	, Ds5
	.byte	W12
	.byte		N18	, Fn4
	.byte	W24
	.byte		N23	, Dn5
	.byte	W12
	.byte	W12
	.byte		N03	, As4
	.byte	W12
	.byte			Gn4
	.byte	W12
	.byte		N20	, Fn4
	.byte	W24
	.byte		N21	, As4
	.byte	W24
	.byte		N24	, Ds5
	.byte	W12
	.byte	W12
	.byte		N03	, Dn5, v100
	.byte	W12
	.byte		N04	, Cn5
	.byte	W12
	.byte			As4
	.byte	W12
	.byte			Cn5
	.byte	W12
	.byte		N22	, As4
	.byte	W36
	.byte	W96
	.byte	W96
	.byte	W96
	.byte	W96
	.byte	W96
	.byte	W96
	.byte	W96
	.byte	W96
	.byte	W96
	.byte	GOTO	
		.word	song069_7_1
	.byte	FINE

	@********************** Track  8 **********************@

	.global song069_8
song069_8:	@ 0x082A2565
	.byte	KEYSH	, 0
	.byte	VOICE	, 118
	.byte	VOL	, v080
	.byte	PAN	, c_v-34
	.byte	W24
	.byte	W96
song069_8_3:
	.byte	W96
	.byte	W96
	.byte	W96
	.byte	W96
	.byte	W96
	.byte	W96
	.byte	W96
	.byte	W96
	.byte	W96
	.byte	W96
	.byte	W96
	.byte	W96
	.byte	W96
	.byte	W96
	.byte	W96
song069_8_1:
	.byte		N05	, Ds2, v092
	.byte	W06
	.byte			Gn2
	.byte	W06
	.byte			As2
	.byte	W06
	.byte			Ds3
	.byte	W06
	.byte			As2
	.byte	W06
	.byte			Gn2
	.byte	W06
	.byte			Ds2
	.byte	W06
	.byte			Cs2
	.byte	W06
	.byte			Ds2
	.byte	W06
	.byte			Gn2
	.byte	W06
	.byte			As2
	.byte	W06
	.byte			Ds3
	.byte	W06
	.byte			As2
	.byte	W06
	.byte			Gn2
	.byte	W06
	.byte			Ds2
	.byte	W06
	.byte			Fn1
	.byte	W06
	.byte	PEND
song069_8_2:
	.byte		N05	, As1, v092
	.byte	W06
	.byte			Dn2
	.byte	W06
	.byte			Fn2
	.byte	W06
	.byte			As2
	.byte	W06
	.byte			Fn2
	.byte	W06
	.byte			Dn2
	.byte	W06
	.byte			As1
	.byte	W06
	.byte			Fn1
	.byte	W06
	.byte		N05	
	.byte	W06
	.byte			As1
	.byte	W06
	.byte			Fn2
	.byte	W06
	.byte			As2
	.byte	W06
	.byte			Fn2
	.byte	W06
	.byte			Cn2
	.byte	W06
	.byte			Fn1
	.byte	W06
	.byte			Dn1
	.byte	W06
	.byte	PEND
	.byte			Ds2
	.byte	W06
	.byte			Gn2
	.byte	W06
	.byte			As2
	.byte	W06
	.byte			Ds3
	.byte	W06
	.byte			As2
	.byte	W06
	.byte			Gn2
	.byte	W06
	.byte			Ds2
	.byte	W06
	.byte			Cs2
	.byte	W06
	.byte			Ds2
	.byte	W06
	.byte			Gn2
	.byte	W06
	.byte			As2
	.byte	W06
	.byte			Ds3
	.byte	W06
	.byte			As2
	.byte	W06
	.byte			Gn2
	.byte	W06
	.byte			Ds2
	.byte	W06
	.byte			As1
	.byte	W06
	.byte		N05	
	.byte	W06
	.byte			Dn2
	.byte	W06
	.byte			Fn2
	.byte	W06
	.byte			As2
	.byte	W06
	.byte			Fn2
	.byte	W06
	.byte			Dn2
	.byte	W06
	.byte			As1
	.byte	W06
	.byte			Fn1
	.byte	W06
	.byte			Cn2
	.byte	W06
	.byte			Fn2
	.byte	W06
	.byte			Cn3
	.byte	W06
	.byte			Fn3
	.byte	W06
	.byte			Cn3
	.byte	W06
	.byte			Gn2
	.byte	W06
	.byte			Cn2
	.byte	W06
	.byte			Fn1
	.byte	W06
	.byte	PATT	
		.word	song069_8_1
	.byte	PATT	
		.word	song069_8_2
	.byte		N05	, Fn2, v092
	.byte	W06
	.byte			An2
	.byte	W06
	.byte			Cn3
	.byte	W06
	.byte			Fn3
	.byte	W06
	.byte			Cn3
	.byte	W06
	.byte			An2
	.byte	W06
	.byte			Fn2
	.byte	W06
	.byte			Ds2
	.byte	W06
	.byte			Fn2
	.byte	W06
	.byte			An2
	.byte	W06
	.byte			Cn3
	.byte	W06
	.byte			Fn3
	.byte	W06
	.byte			Cn3
	.byte	W06
	.byte			An2
	.byte	W06
	.byte			Fn2
	.byte	W06
	.byte			Cn2
	.byte	W06
	.byte			Fn2
	.byte	W06
	.byte			An2
	.byte	W06
	.byte			Cn3
	.byte	W06
	.byte			Fn3
	.byte	W06
	.byte			Cn3
	.byte	W06
	.byte			An2
	.byte	W06
	.byte			Fn2
	.byte	W06
	.byte			Cn2
	.byte	W06
	.byte			Fn3
	.byte	W06
	.byte			Cn3
	.byte	W06
	.byte			An2
	.byte	W06
	.byte			Fn2
	.byte	W06
	.byte			Cn2
	.byte	W06
	.byte			An2
	.byte	W06
	.byte			Fn2
	.byte	W06
	.byte			An1
	.byte	W06
	.byte	W96
	.byte	GOTO	
		.word	song069_8_3
	.byte	FINE

	@********************** Track  9 **********************@

	.global song069_9
song069_9:	@ 0x082A2657
	.byte	KEYSH	, 0
	.byte	VOICE	, 118
	.byte	VOL	, v073
	.byte	PAN	, c_v+56
	.byte	W24
song069_9_1:
	.byte	W01
	.byte		N06	, As2, v052
	.byte	W06
	.byte			As1, v040
	.byte	W06
	.byte		N06	
	.byte	W06
	.byte			As2, v052
	.byte	W06
	.byte			As1, v040
	.byte	W06
	.byte		N06	
	.byte	W06
	.byte			Gn2, v052
	.byte	W06
	.byte			As1, v040
	.byte	W06
	.byte			Fn2, v052
	.byte	W06
	.byte			As1, v040
	.byte	W06
	.byte		N06	
	.byte	W06
	.byte			As2, v052
	.byte	W06
	.byte			As1, v040
	.byte	W06
	.byte			As2, v052
	.byte	W06
	.byte			As1, v040
	.byte	W06
	.byte			Cn2
	.byte	W05
	.byte	PEND
song069_9_2:
	.byte	W01
	.byte		N06	, Cn3, v052
	.byte	W06
	.byte			Cn2, v040
	.byte	W06
	.byte		N06	
	.byte	W06
	.byte			Cn3, v052
	.byte	W06
	.byte			Cn2, v040
	.byte	W06
	.byte		N06	
	.byte	W06
	.byte			As2, v052
	.byte	W06
	.byte			Cn2, v040
	.byte	W06
	.byte			Fn2, v052
	.byte	W06
	.byte			Cn2, v040
	.byte	W06
	.byte			Gn2, v052
	.byte	W06
	.byte			Cn2, v040
	.byte	W06
	.byte			As2, v052
	.byte	W06
	.byte			Cn2, v040
	.byte	W06
	.byte			As2, v052
	.byte	W06
	.byte			Fn2, v040
	.byte	W05
	.byte	PEND
song069_9_3:
	.byte	W01
	.byte		N06	, Fn3, v052
	.byte	W06
	.byte			Fn2, v040
	.byte	W06
	.byte		N06	
	.byte	W06
	.byte			Fn3, v052
	.byte	W06
	.byte			Fn2, v040
	.byte	W06
	.byte		N06	
	.byte	W06
	.byte			Ds3, v052
	.byte	W06
	.byte			Fn2, v040
	.byte	W06
	.byte			Cn3, v052
	.byte	W06
	.byte			Fn2, v040
	.byte	W06
	.byte		N06	
	.byte	W06
	.byte			Fn3, v052
	.byte	W06
	.byte			Fn2, v040
	.byte	W06
	.byte			Fn3, v052
	.byte	W06
	.byte			Fn2, v040
	.byte	W06
	.byte		N06	
	.byte	W05
	.byte	PEND
song069_9_4:
	.byte	W01
	.byte		N06	, Ds3, v052
	.byte	W06
	.byte			Ds2, v040
	.byte	W06
	.byte		N06	
	.byte	W06
	.byte			Ds3, v052
	.byte	W06
	.byte			Ds2, v040
	.byte	W06
	.byte		N06	
	.byte	W06
	.byte			Cs3, v052
	.byte	W06
	.byte			Ds2, v040
	.byte	W06
	.byte			As2, v052
	.byte	W06
	.byte			Ds2, v040
	.byte	W06
	.byte		N06	
	.byte	W06
	.byte			Ds3, v052
	.byte	W06
	.byte			Ds2, v040
	.byte	W06
	.byte			Ds3, v052
	.byte	W06
	.byte			Ds2, v040
	.byte	W06
	.byte		N06	
	.byte	W05
	.byte	PEND
	.byte	PATT	
		.word	song069_9_1
	.byte	PATT	
		.word	song069_9_2
	.byte	PATT	
		.word	song069_9_3
	.byte	PATT	
		.word	song069_9_4
	.byte	PATT	
		.word	song069_9_1
	.byte	PATT	
		.word	song069_9_2
	.byte	PATT	
		.word	song069_9_3
	.byte	PATT	
		.word	song069_9_4
	.byte	PATT	
		.word	song069_9_1
	.byte	PATT	
		.word	song069_9_2
	.byte	PATT	
		.word	song069_9_3
	.byte	W01
	.byte		N06	, Ds3, v052
	.byte	W06
	.byte			Ds2, v040
	.byte	W06
	.byte			Dn2
	.byte	W06
	.byte			Dn3, v052
	.byte	W06
	.byte			Cn2, v040
	.byte	W06
	.byte			As1
	.byte	W06
	.byte			As2, v052
	.byte	W06
	.byte			Cn2, v040
	.byte	W06
	.byte			Cn3, v052
	.byte	W06
	.byte			As1, v040
	.byte	W06
	.byte		N06	
	.byte	W06
	.byte			As2, v052
	.byte	W06
	.byte			As1, v040
	.byte	W06
	.byte			As2, v052
	.byte	W06
	.byte			As1, v040
	.byte	W06
	.byte		N06	
	.byte	W05
	.byte	W96
	.byte	W96
	.byte	W96
	.byte	W96
	.byte	W96
	.byte	W96
	.byte	W96
	.byte	W96
	.byte	PATT	
		.word	song069_9_1
	.byte	GOTO	
		.word	song069_9_2
	.byte	PATT	
		.word	song069_9_2
	.byte	W01
	.byte	FINE

	@********************** Track  10 **********************@

	.global song069_10
song069_10:	@ 0x082A279C
	.byte	KEYSH	, 0
	.byte	VOICE	, 118
	.byte	VOL	, v073
	.byte	PAN	, c_v-34
	.byte	W24
song069_10_1:
	.byte		N06	, As2, v052
	.byte	W06
	.byte			As1, v040
	.byte	W06
	.byte		N06	
	.byte	W06
	.byte			As2, v052
	.byte	W06
	.byte			As1, v040
	.byte	W06
	.byte		N06	
	.byte	W06
	.byte			Gn2, v052
	.byte	W06
	.byte			As1, v040
	.byte	W06
	.byte			Fn2, v052
	.byte	W06
	.byte			As1, v040
	.byte	W06
	.byte		N06	
	.byte	W06
	.byte			As2, v052
	.byte	W06
	.byte			As1, v040
	.byte	W06
	.byte			As2, v052
	.byte	W06
	.byte			As1, v040
	.byte	W06
	.byte			Cn2
	.byte	W06
	.byte	PEND
song069_10_2:
	.byte		N06	, Cn3, v052
	.byte	W06
	.byte			Cn2, v040
	.byte	W06
	.byte		N06	
	.byte	W06
	.byte			Cn3, v052
	.byte	W06
	.byte			Cn2, v040
	.byte	W06
	.byte		N06	
	.byte	W06
	.byte			As2, v052
	.byte	W06
	.byte			Cn2, v040
	.byte	W06
	.byte			Fn2, v052
	.byte	W06
	.byte			Cn2, v040
	.byte	W06
	.byte			Gn2, v052
	.byte	W06
	.byte			Cn2, v040
	.byte	W06
	.byte			As2, v052
	.byte	W06
	.byte			Cn2, v040
	.byte	W06
	.byte			As2, v052
	.byte	W06
	.byte			Fn2, v040
	.byte	W06
	.byte	PEND
song069_10_3:
	.byte		N06	, Fn3, v052
	.byte	W06
	.byte			Fn2, v040
	.byte	W06
	.byte		N06	
	.byte	W06
	.byte			Fn3, v052
	.byte	W06
	.byte			Fn2, v040
	.byte	W06
	.byte		N06	
	.byte	W06
	.byte			Ds3, v052
	.byte	W06
	.byte			Fn2, v040
	.byte	W06
	.byte			Cn3, v052
	.byte	W06
	.byte			Fn2, v040
	.byte	W06
	.byte		N06	
	.byte	W06
	.byte			Fn3, v052
	.byte	W06
	.byte			Fn2, v040
	.byte	W06
	.byte			Fn3, v052
	.byte	W06
	.byte			Fn2, v040
	.byte	W06
	.byte		N06	
	.byte	W06
	.byte	PEND
song069_10_4:
	.byte		N06	, Ds3, v052
	.byte	W06
	.byte			Ds2, v040
	.byte	W06
	.byte		N06	
	.byte	W06
	.byte			Ds3, v052
	.byte	W06
	.byte			Ds2, v040
	.byte	W06
	.byte		N06	
	.byte	W06
	.byte			Cs3, v052
	.byte	W06
	.byte			Ds2, v040
	.byte	W06
	.byte			As2, v052
	.byte	W06
	.byte			Ds2, v040
	.byte	W06
	.byte		N06	
	.byte	W06
	.byte			Ds3, v052
	.byte	W06
	.byte			Ds2, v040
	.byte	W06
	.byte			Ds3, v052
	.byte	W06
	.byte			Ds2, v040
	.byte	W06
	.byte		N06	
	.byte	W06
	.byte	PEND
	.byte	PATT	
		.word	song069_10_1
	.byte	PATT	
		.word	song069_10_2
	.byte	PATT	
		.word	song069_10_3
	.byte	PATT	
		.word	song069_10_4
	.byte	PATT	
		.word	song069_10_1
	.byte	PATT	
		.word	song069_10_2
	.byte	PATT	
		.word	song069_10_3
	.byte	PATT	
		.word	song069_10_4
	.byte	PATT	
		.word	song069_10_1
	.byte	PATT	
		.word	song069_10_2
	.byte	PATT	
		.word	song069_10_3
	.byte		N06	, Ds3, v052
	.byte	W06
	.byte			Ds2, v040
	.byte	W06
	.byte			Dn2
	.byte	W06
	.byte			Dn3, v052
	.byte	W06
	.byte			Cn2, v040
	.byte	W06
	.byte			As1
	.byte	W06
	.byte			As2, v052
	.byte	W06
	.byte			Cn2, v040
	.byte	W06
	.byte			Cn3, v052
	.byte	W06
	.byte			As1, v040
	.byte	W06
	.byte		N06	
	.byte	W06
	.byte			As2, v052
	.byte	W06
	.byte			As1, v040
	.byte	W06
	.byte			As2, v052
	.byte	W06
	.byte			As1, v040
	.byte	W06
	.byte		N06	
	.byte	W06
	.byte	W96
	.byte	W96
	.byte	W96
	.byte	W96
	.byte	W96
	.byte	W96
	.byte	W96
	.byte	W96
	.byte	PATT	
		.word	song069_10_1
	.byte	GOTO	
		.word	song069_10_2
	.byte	PATT	
		.word	song069_10_2
	.byte	FINE

	.align 2
	.global song069
song069:	@ 0x082A28DC
	.byte	10		@ trackCount
	.byte	0		@ blockCount
	.byte	0		@ priority
	.byte	128		@ reverb

	.word	voicegroup008		@ voicegroup/tone

	.word	song069_1		@ track
	.word	song069_2		@ track
	.word	song069_3		@ track
	.word	song069_4		@ track
	.word	song069_5		@ track
	.word	song069_6		@ track
	.word	song069_7		@ track
	.word	song069_8		@ track
	.word	song069_9		@ track
	.word	song069_10		@ track
