	.include "asm/macros/c_decl.inc"
	.include "asm/macros/portable.inc"
	.include "sound/MPlayDef.s"

	mSectionRodata

	@********************** Track  1 **********************@

	mAlignWord
	.global song044_1
song044_1:	@ 0x08288030
	.byte	KEYSH	, 0
	.byte	TEMPO	, 75
	.byte	VOICE	, 127
	.byte	VOL	, v070
	.byte	W96
	.byte	W96
	.byte	W96
	.byte	TEMPO	, 74
	.byte	W24
	.byte	TEMPO	, 74
	.byte	W24
	.byte	TEMPO	, 73
	.byte	W24
	.byte	TEMPO	, 72
	.byte	W24
song044_1_5:
	.byte	TEMPO	, 76
	.byte		N12	, Gs7, v116
	.byte	W24
	.byte		N12	
	.byte	W24
	.byte		N12	
	.byte	W24
	.byte		N12	
	.byte	W24
song044_1_1:
	.byte		N12	, Gs7, v116
	.byte	W24
	.byte		N12	
	.byte	W24
	.byte		N12	
	.byte	W24
	.byte		N12	
	.byte	W24
	.byte	PEND
	.byte	PATT	
		mPtr	song044_1_1
song044_1_2:
	.byte		N12	, Gs7, v116
	.byte	W24
	.byte		N12	
	.byte	W24
	.byte		N12	
	.byte	W24
	.byte		N12	
	.byte	W12
	.byte		N06	
	.byte	W06
	.byte		N06	
	.byte	W06
	.byte	PEND
	.byte	PATT	
		mPtr	song044_1_1
	.byte	PATT	
		mPtr	song044_1_1
	.byte	PATT	
		mPtr	song044_1_1
	.byte		N12	, Gs7, v116
	.byte	W24
	.byte		N12	
	.byte	W24
	.byte		N12	
	.byte	W24
	.byte		N11	
	.byte	W12
	.byte		N11	
	.byte	W12
	.byte	PATT	
		mPtr	song044_1_1
	.byte	PATT	
		mPtr	song044_1_1
	.byte	PATT	
		mPtr	song044_1_1
	.byte	PATT	
		mPtr	song044_1_2
	.byte	PATT	
		mPtr	song044_1_1
	.byte	PATT	
		mPtr	song044_1_1
	.byte	PATT	
		mPtr	song044_1_1
	.byte		N12	, Gs7, v116
	.byte	W24
	.byte		N12	
	.byte	W24
	.byte		N11	
	.byte	W12
	.byte		N11	
	.byte	W12
	.byte		N11	
	.byte	W12
	.byte		N06	
	.byte	W06
	.byte		N06	
	.byte	W06
	.byte	PATT	
		mPtr	song044_1_1
	.byte	PATT	
		mPtr	song044_1_1
	.byte	PATT	
		mPtr	song044_1_1
	.byte	PATT	
		mPtr	song044_1_2
	.byte	PATT	
		mPtr	song044_1_1
	.byte	PATT	
		mPtr	song044_1_1
	.byte	PATT	
		mPtr	song044_1_1
	.byte		N12	, Gs7, v116
	.byte	W96
	.byte	W96
	.byte	W96
	.byte	W72
	.byte		N12	
	.byte	W12
	.byte			Gs7, v104
	.byte	W12
	.byte	PATT	
		mPtr	song044_1_1
	.byte	PATT	
		mPtr	song044_1_1
	.byte	PATT	
		mPtr	song044_1_1
song044_1_3:
	.byte		N12	, Gs7, v116
	.byte	W24
	.byte		N12	
	.byte	W24
	.byte		N11	
	.byte	W12
	.byte		N11	
	.byte	W12
	.byte		N05	
	.byte	W06
	.byte		N05	
	.byte	W06
	.byte		N05	
	.byte	W06
	.byte		N05	
	.byte	W06
	.byte	PEND
	.byte	W96
	.byte	W96
	.byte	W96
	.byte	W96
	.byte	W96
	.byte	W96
	.byte	W96
	.byte	W96
	.byte	W96
	.byte	W96
	.byte	W96
	.byte	W96
	.byte	W96
	.byte	W96
	.byte	W96
	.byte	W48
	.byte		N09	
	.byte	W12
	.byte		N09	
	.byte	W12
	.byte		N09	
	.byte	W12
	.byte		N09	
	.byte	W12
	.byte	PATT	
		mPtr	song044_1_1
	.byte	PATT	
		mPtr	song044_1_1
	.byte	PATT	
		mPtr	song044_1_1
	.byte	PATT	
		mPtr	song044_1_2
	.byte	PATT	
		mPtr	song044_1_1
	.byte	PATT	
		mPtr	song044_1_1
	.byte	PATT	
		mPtr	song044_1_1
	.byte	PATT	
		mPtr	song044_1_2
	.byte	PATT	
		mPtr	song044_1_1
	.byte	PATT	
		mPtr	song044_1_1
	.byte	PATT	
		mPtr	song044_1_1
	.byte	PATT	
		mPtr	song044_1_2
	.byte	PATT	
		mPtr	song044_1_1
	.byte	PATT	
		mPtr	song044_1_1
	.byte	PATT	
		mPtr	song044_1_1
	.byte		N12	, Gs7, v116
	.byte	W24
	.byte		N12	
	.byte	W24
	.byte		N12	
	.byte	W24
	.byte		N06	
	.byte	W06
	.byte		N06	
	.byte	W06
	.byte		N06	
	.byte	W06
	.byte		N06	
	.byte	W06
	.byte	PATT	
		mPtr	song044_1_1
	.byte	PATT	
		mPtr	song044_1_1
	.byte	PATT	
		mPtr	song044_1_1
	.byte	PATT	
		mPtr	song044_1_3
song044_1_4:
	.byte		N06	, Gs7, v116
	.byte	W12
	.byte			Gs7, v084
	.byte	W12
	.byte		N06	
	.byte	W12
	.byte		N06	
	.byte	W12
	.byte			Gs7, v116
	.byte	W12
	.byte			Gs7, v084
	.byte	W12
	.byte		N06	
	.byte	W12
	.byte		N06	
	.byte	W12
	.byte	PEND
	.byte	PATT	
		mPtr	song044_1_4
	.byte		N04	, Gs7, v116
	.byte	W06
	.byte			Gs7, v084
	.byte	W06
	.byte		N04	
	.byte	W06
	.byte		N04	
	.byte	W06
	.byte			Gs7, v116
	.byte	W06
	.byte			Gs7, v084
	.byte	W06
	.byte		N04	
	.byte	W06
	.byte		N04	
	.byte	W06
	.byte			Gs7, v116
	.byte	W06
	.byte			Gs7, v084
	.byte	W06
	.byte		N04	
	.byte	W06
	.byte		N04	
	.byte	W06
	.byte			Gs7, v116
	.byte	W06
	.byte			Gs7, v084
	.byte	W06
	.byte		N04	
	.byte	W06
	.byte		N04	
	.byte	W06
	.byte			Gs7, v116
	.byte	W06
	.byte			Gs7, v084
	.byte	W06
	.byte		N04	
	.byte	W06
	.byte		N04	
	.byte	W06
	.byte			Gs7, v116
	.byte	W06
	.byte			Gs7, v084
	.byte	W06
	.byte		N04	
	.byte	W06
	.byte		N04	
	.byte	W06
	.byte			Gs7, v116
	.byte	W06
	.byte		N04	
	.byte	W06
	.byte		N04	
	.byte	W06
	.byte		N04	
	.byte	W06
	.byte		N04	
	.byte	W06
	.byte		N04	
	.byte	W06
	.byte		N04	
	.byte	W06
	.byte		N04	
	.byte	W06
	.byte	GOTO	
		mPtr	song044_1_5
	.byte	FINE

	@********************** Track  2 **********************@

	.global song044_2
song044_2:	@ 0x08288207
	.byte	KEYSH	, 0
	.byte	VOICE	, 27
	.byte	VOL	, v070
	.byte	PAN	, c_v
	.byte		N05	, An2, v084
	.byte	W06
	.byte			As2, v096
	.byte	W06
	.byte			Cs3, v100
	.byte	W06
	.byte			Dn3, v104
	.byte	W06
	.byte			As3, v116
	.byte	W06
	.byte			An3, v104
	.byte	W06
	.byte			Gn3, v096
	.byte	W06
	.byte			An3, v104
	.byte	W06
	.byte			Gn3
	.byte	W06
	.byte			Fn3, v096
	.byte	W06
	.byte			Gn3, v104
	.byte	W06
	.byte			En3, v096
	.byte	W06
	.byte			Dn3
	.byte	W06
	.byte			Cs3
	.byte	W06
	.byte			En3, v104
	.byte	W06
	.byte			As3, v116
	.byte	W06
	.byte		N03	, Dn4
	.byte	W04
	.byte			Cs4, v096
	.byte	W04
	.byte			Dn4, v116
	.byte	W04
	.byte			An3, v104
	.byte	W04
	.byte			Gn3, v096
	.byte	W04
	.byte			An3, v116
	.byte	W04
	.byte		N05	, Fn3, v104
	.byte	W06
	.byte			En3, v084
	.byte	W06
	.byte			Fn3, v096
	.byte	W06
	.byte			Dn3, v064
	.byte	W06
	.byte			En3, v076
	.byte	W06
	.byte			Fn3, v084
	.byte	W06
	.byte			Gn3, v096
	.byte	W06
	.byte			As3, v104
	.byte	W06
	.byte			Cs4, v084
	.byte	W06
	.byte			Dn4, v096
	.byte	W06
	.byte			En4, v104
	.byte	W06
	.byte			Cs4, v084
	.byte	W06
	.byte			Dn4, v100
	.byte	W04
	.byte			En4, v080
	.byte	W04
	.byte			Dn4, v068
	.byte	W04
	.byte			En4, v056
	.byte	W04
	.byte			Dn4, v052
	.byte	W04
	.byte			En4, v044
	.byte	W04
	.byte			Dn4
	.byte	W04
	.byte			En4, v048
	.byte	W04
	.byte			Dn4
	.byte	W04
	.byte			En4, v052
	.byte	W04
	.byte			Dn4
	.byte	W04
	.byte			En4, v056
	.byte	W04
	.byte			Dn4, v060
	.byte	W04
	.byte			En4, v064
	.byte	W04
	.byte			Dn4, v068
	.byte	W04
	.byte			En4, v076
	.byte	W04
	.byte			Dn4, v080
	.byte	W04
	.byte			En4, v088
	.byte	W04
	.byte			Dn4, v092
	.byte	W04
	.byte			En4, v100
	.byte	W04
	.byte			Dn4, v108
	.byte	W04
	.byte			En4, v116
	.byte	W04
	.byte			Dn4, v120
	.byte	W04
	.byte			En4, v124
	.byte	W04
	.byte	W96
song044_2_7:
	.byte	W96
	.byte	W96
	.byte	W96
	.byte	W96
	.byte	W96
	.byte	W96
	.byte	W96
	.byte	W96
	.byte	W96
	.byte	W96
	.byte	W96
	.byte	W92
	.byte	W03
	.byte	PAN	, c_v
	.byte	VOL	, v053
	.byte	W01
song044_2_1:
	.byte		N05	, Cn3, v084
	.byte	W06
	.byte			As2, v096
	.byte	W06
	.byte			Cn3, v100
	.byte	W06
	.byte			Dn3, v104
	.byte	W06
	.byte			An3, v116
	.byte	W06
	.byte			Cn3, v104
	.byte	W06
	.byte			Gn3, v096
	.byte	W06
	.byte			Cn3, v104
	.byte	W06
	.byte			Fn3
	.byte	W06
	.byte			Cn3, v096
	.byte	W06
	.byte			Ds3, v104
	.byte	W06
	.byte			An2, v096
	.byte	W06
	.byte			Dn3
	.byte	W06
	.byte			Cs3
	.byte	W06
	.byte			Fn3, v104
	.byte	W06
	.byte			Ds3, v116
	.byte	W06
	.byte	PEND
song044_2_2:
	.byte		N03	, Dn4, v116
	.byte	W04
	.byte			Cn4, v096
	.byte	W04
	.byte			Dn4, v116
	.byte	W04
	.byte			As3, v104
	.byte	W04
	.byte			An3, v096
	.byte	W04
	.byte			As3, v116
	.byte	W04
	.byte		N05	, Fn3, v104
	.byte	W06
	.byte			En3, v084
	.byte	W06
	.byte			Fn3, v096
	.byte	W06
	.byte			Dn3, v064
	.byte	W06
	.byte			En3, v076
	.byte	W06
	.byte			Fn3, v084
	.byte	W06
	.byte			Gn3, v096
	.byte	W06
	.byte			As3, v104
	.byte	W06
	.byte			Cn4, v084
	.byte	W06
	.byte			Dn4, v096
	.byte	W06
	.byte			Fn4, v104
	.byte	W06
	.byte			Dn4, v084
	.byte	W06
	.byte	PEND
	.byte			Dn4, v100
	.byte	W04
	.byte			Ds4, v080
	.byte	W04
	.byte			Dn4, v068
	.byte	W04
	.byte			Ds4, v056
	.byte	W04
	.byte			Dn4, v052
	.byte	W04
	.byte			Ds4, v044
	.byte	W04
	.byte			Dn4
	.byte	W04
	.byte			Ds4, v048
	.byte	W04
	.byte			Dn4
	.byte	W04
	.byte			Ds4, v052
	.byte	W04
	.byte			Dn4
	.byte	W04
	.byte			Ds4, v056
	.byte	W04
	.byte			Dn4, v060
	.byte	W04
	.byte			Ds4, v064
	.byte	W04
	.byte			Dn4, v068
	.byte	W04
	.byte			Ds4, v076
	.byte	W04
	.byte			Dn4, v080
	.byte	W04
	.byte			Ds4, v088
	.byte	W04
	.byte			Dn4, v092
	.byte	W06
	.byte			Cn4, v108
	.byte	W06
	.byte			As3, v120
	.byte	W05
	.byte			An3, v124
	.byte	W07
	.byte			Fs3, v064
	.byte	W06
	.byte			Gn3, v084
	.byte	W06
	.byte			Dn4, v104
	.byte	W06
	.byte			Dn3, v064
	.byte	W06
	.byte			Ds3, v084
	.byte	W06
	.byte			As3, v104
	.byte	W06
	.byte			Cn3, v076
	.byte	W06
	.byte			Dn3, v096
	.byte	W06
	.byte			An3, v116
	.byte	W06
	.byte			Gn3, v104
	.byte	W06
	.byte			Fs3, v100
	.byte	W06
	.byte			Ds3, v096
	.byte	W06
	.byte			Dn3, v092
	.byte	W06
	.byte			Cn3, v096
	.byte	W06
	.byte			As2, v100
	.byte	W06
	.byte			An2, v104
	.byte	W06
	.byte	W96
	.byte	W96
	.byte	W96
	.byte	W92
	.byte	W03
	.byte	VOL	, v053
	.byte	W01
	.byte	PATT	
		mPtr	song044_2_1
	.byte	PATT	
		mPtr	song044_2_2
	.byte		N03	, Dn4, v100
	.byte	W04
	.byte			Ds4, v080
	.byte	W04
	.byte			Dn4, v068
	.byte	W04
	.byte			Ds4, v056
	.byte	W04
	.byte			Dn4, v052
	.byte	W04
	.byte			Ds4, v044
	.byte	W04
	.byte			Dn4
	.byte	W04
	.byte			Ds4, v048
	.byte	W04
	.byte			Dn4
	.byte	W04
	.byte			Ds4, v052
	.byte	W04
	.byte			Dn4
	.byte	W04
	.byte			Ds4, v056
	.byte	W04
	.byte			Dn4, v060
	.byte	W04
	.byte			Ds4, v064
	.byte	W04
	.byte			Dn4, v068
	.byte	W04
	.byte			Ds4, v076
	.byte	W04
	.byte			Dn4, v080
	.byte	W04
	.byte			Ds4, v088
	.byte	W04
	.byte		N05	, Dn4, v092
	.byte	W06
	.byte			Cn4, v108
	.byte	W06
	.byte			As3, v120
	.byte	W05
	.byte			An3, v124
	.byte	W06
	.byte		N06	, Gn3
	.byte	W01
	.byte	W96
	.byte	W96
	.byte	W96
	.byte	W96
song044_2_5:
	.byte	PAN	, c_v-30
	.byte	W24
	.byte		N05	, Gn3, v084
	.byte	W06
	.byte			Dn4, v096
	.byte	W06
	.byte			Gn4, v104
	.byte	W06
	.byte			Dn4, v096
	.byte	W30
	.byte			Gn3, v084
	.byte	W06
	.byte			Dn4, v096
	.byte	W06
	.byte			Gn4, v104
	.byte	W12
	.byte	PEND
song044_2_3:
	.byte	W24
	.byte		N05	, Gn3, v084
	.byte	W06
	.byte			Dn4, v096
	.byte	W06
	.byte			Gn4, v104
	.byte	W06
	.byte			Dn4, v096
	.byte	W30
	.byte			Fs4, v104
	.byte	W06
	.byte			Dn4, v096
	.byte	W06
	.byte			Cn4, v084
	.byte	W06
	.byte			As3
	.byte	W06
	.byte	PEND
song044_2_6:
	.byte	W24
	.byte		N05	, Gn3, v084
	.byte	W06
	.byte			Dn4, v096
	.byte	W06
	.byte			Gn4, v104
	.byte	W06
	.byte			Dn4, v096
	.byte	W30
	.byte			Gn3, v084
	.byte	W06
	.byte			Dn4, v096
	.byte	W06
	.byte			Gn4, v104
	.byte	W12
	.byte	PEND
	.byte	PATT	
		mPtr	song044_2_3
song044_2_4:
	.byte		TIE	, Dn2, v076
	.byte		N92	, Fs2, v084
	.byte	W96
	.byte	PEND
	.byte			Ds2
	.byte	W96
	.byte			Gn2
	.byte	W96
	.byte			As1
	.byte	W96
	.byte		EOT	, Dn2
	.byte		N96	, Dn2, v076
	.byte		TIE	, Ds2, v084
	.byte	W96
	.byte		N48	, An1, v076
	.byte	W48
	.byte		EOT	, Ds2
	.byte		N48	
	.byte		N44	, An2, v084
	.byte	W48
	.byte		N96	, Dn2, v076
	.byte		N44	, Fn2, v084
	.byte	W48
	.byte			An1
	.byte	W48
	.byte		N96	, As1, v076
	.byte		N92	, Ds2, v084
	.byte	W96
	.byte	PATT	
		mPtr	song044_2_4
	.byte		N92	, Ds2, v084
	.byte	W96
	.byte			Gn2
	.byte	W96
	.byte			As1
	.byte	W96
	.byte		TIE	, Fs2
	.byte	W96
	.byte		EOT	, Dn2
	.byte		N48	, Gs1, v076
	.byte	W48
	.byte		EOT	, Fs2
	.byte		N48	, Dn2
	.byte		N44	, Gs2, v084
	.byte	W48
	.byte		N96	, Cs2, v076
	.byte		N44	, Gn2, v084
	.byte	W48
	.byte			En2
	.byte	W48
	.byte		N48	, En2, v076
	.byte		N92	, As2, v084
	.byte	W96
	.byte	W96
	.byte	W96
	.byte	W96
	.byte	W96
	.byte	W96
	.byte	W96
	.byte	W96
	.byte	W96
	.byte	W96
	.byte	W96
	.byte	W96
	.byte	W96
	.byte	W96
	.byte	W96
	.byte	W96
	.byte	W96
	.byte	W96
	.byte	W96
	.byte	W96
	.byte	W96
	.byte	PATT	
		mPtr	song044_2_5
	.byte	PATT	
		mPtr	song044_2_3
	.byte	PATT	
		mPtr	song044_2_6
	.byte	PATT	
		mPtr	song044_2_3
	.byte	GOTO	
		mPtr	song044_2_7
	.byte	FINE

	@********************** Track  3 **********************@

	.global song044_3
song044_3:	@ 0x082884DC
	.byte	KEYSH	, 0
	.byte	VOICE	, 28
	.byte	VOL	, v085
	.byte		N68	, Dn3, v127
	.byte	W72
	.byte		N17	, Dn3, v100
	.byte	W18
	.byte		TIE	, Dn3, v127
	.byte	W06
	.byte	W92
	.byte		EOT	
	.byte	W04
	.byte		N44	
	.byte	W48
	.byte		N44	
	.byte	W48
	.byte		N23	
	.byte	W24
	.byte			Dn3, v056
	.byte	W24
	.byte			Dn3, v096
	.byte	W24
	.byte		N24	, Dn3, v127
	.byte	W24
song044_3_3:
	.byte		N92	, Gn3, v127
	.byte	W96
	.byte			Fs3
	.byte	W96
	.byte			Fn3
	.byte	W96
	.byte			En3
	.byte	W96
	.byte			Gn3
	.byte	W96
	.byte			Fs3
	.byte	W96
	.byte			Fn3
	.byte	W96
	.byte			En3
	.byte	W96
	.byte			Gn3
	.byte	W96
	.byte	W96
	.byte	W96
	.byte	W96
	.byte	W96
	.byte	W96
	.byte	W96
	.byte	W96
	.byte		N92	
	.byte	W96
	.byte			Fs3, v104
	.byte	W96
	.byte			As3
	.byte	W96
	.byte			En3, v127
	.byte	W96
	.byte	W96
	.byte	W96
	.byte	W96
song044_3_1:
	.byte		N44	, Gn3, v127
	.byte	W48
	.byte			Fn3, v104
	.byte	W48
	.byte	PEND
song044_3_2:
	.byte		N44	, Ds3, v104
	.byte	W48
	.byte			Dn3
	.byte	W48
	.byte	PEND
	.byte	PATT	
		mPtr	song044_3_1
	.byte	PATT	
		mPtr	song044_3_2
	.byte	PATT	
		mPtr	song044_3_1
	.byte	PATT	
		mPtr	song044_3_2
	.byte	PATT	
		mPtr	song044_3_1
	.byte	PATT	
		mPtr	song044_3_2
	.byte	W96
	.byte	W96
	.byte	W96
	.byte	W96
	.byte	W96
	.byte	W96
	.byte	W96
	.byte	W96
	.byte	W96
	.byte	W96
	.byte	W96
	.byte	W96
	.byte	W96
	.byte	W96
	.byte	W96
	.byte	W96
	.byte		N92	, Fn3, v127
	.byte	W96
	.byte			Gn3, v104
	.byte	W96
	.byte			Gs3
	.byte	W96
	.byte	W96
	.byte			En3, v127
	.byte	W96
	.byte			Fn3, v104
	.byte	W96
	.byte			Gs3
	.byte	W96
	.byte	W96
	.byte			Fn3, v127
	.byte	W96
	.byte			Gn3, v104
	.byte	W96
	.byte			Gs3
	.byte	W96
	.byte	W96
	.byte			En3, v127
	.byte	W96
	.byte			Fn3, v104
	.byte	W96
	.byte			Gs3
	.byte	W96
	.byte	W96
	.byte	PATT	
		mPtr	song044_3_1
	.byte	PATT	
		mPtr	song044_3_2
	.byte	PATT	
		mPtr	song044_3_1
	.byte	PATT	
		mPtr	song044_3_2
	.byte	PATT	
		mPtr	song044_3_1
	.byte	PATT	
		mPtr	song044_3_2
	.byte	PATT	
		mPtr	song044_3_1
	.byte	PATT	
		mPtr	song044_3_2
	.byte	GOTO	
		mPtr	song044_3_3
	.byte	FINE

	@********************** Track  4 **********************@

	.global song044_4
song044_4:	@ 0x082885B9
	.byte	KEYSH	, 0
	.byte	VOICE	, 29
	.byte	VOL	, v077
	.byte	W96
	.byte	W96
	.byte	W96
	.byte	W96
song044_4_9:
	.byte	VOICE	, 29
	.byte		TIE	, Cn3, v104
	.byte	W96
	.byte	W96
	.byte	W92
	.byte	W03
	.byte		EOT	
	.byte	W01
	.byte		N92	, Dn3
	.byte	W96
	.byte		TIE	, Cn3
	.byte	W96
	.byte	W96
	.byte	W92
	.byte	W03
	.byte		EOT	
	.byte	W01
	.byte		N92	, Dn3
	.byte	W96
	.byte	W96
	.byte	W96
	.byte	W96
	.byte	W96
	.byte	W96
	.byte	W96
	.byte	W96
	.byte	W96
	.byte	VOL	, v077
	.byte		TIE	, Cn3
	.byte	W96
	.byte	W96
	.byte	W92
	.byte	W03
	.byte		EOT	
	.byte	W01
	.byte		N92	, Dn3
	.byte	W92
	.byte	W03
	.byte	VOICE	, 33
	.byte	W01
	.byte		N92	, Cn3, v092
	.byte	W92
	.byte	W03
	.byte	VOICE	, 29
	.byte	W01
	.byte		N44	, Cn3, v104
	.byte	W44
	.byte	W03
	.byte	VOICE	, 33
	.byte	W01
	.byte		N92	, Cn3, v096
	.byte	W44
	.byte	W03
	.byte	VOICE	, 29
	.byte	W01
	.byte	W03
	.byte	VOL	, v076
	.byte	W01
	.byte		v072
	.byte	W01
	.byte		v067
	.byte	W01
	.byte		v061
	.byte	W01
	.byte		v058
	.byte	W01
	.byte		v053
	.byte	W01
	.byte		v047
	.byte	W01
	.byte		v043
	.byte	W01
	.byte		v038
	.byte	W01
	.byte		v033
	.byte	W01
	.byte		v029
	.byte	W01
	.byte		v024
	.byte	W01
	.byte		v018
	.byte	W01
	.byte		v014
	.byte	W02
	.byte		v015
	.byte	W01
	.byte		v017
	.byte	W01
	.byte		v017
	.byte	W01
	.byte		v019
	.byte	W01
	.byte		v020
	.byte	W01
	.byte		v021
	.byte	W01
	.byte		v022
	.byte	W01
	.byte		v024
	.byte	W01
	.byte		v024
	.byte	W01
	.byte		v026
	.byte	W01
	.byte		v027
	.byte	W01
	.byte		v028
	.byte	W01
	.byte		v029
	.byte	W01
	.byte		v031
	.byte	W01
	.byte		v031
	.byte	W01
	.byte		v033
	.byte	W01
	.byte		v034
	.byte	W01
	.byte		v035
	.byte	W01
	.byte		v036
	.byte	W01
	.byte		v038
	.byte	W01
	.byte		v038
	.byte	W01
	.byte		v040
	.byte	W01
	.byte		v041
	.byte	W01
	.byte		v042
	.byte	W01
	.byte		v043
	.byte	W01
	.byte		v045
	.byte	W01
	.byte		v046
	.byte	W01
	.byte		v046
	.byte	W01
	.byte		v048
	.byte	W01
	.byte		v048
	.byte	W01
	.byte		v050
	.byte		N44	, En3, v100
	.byte	W01
	.byte	VOL	, v051
	.byte	W01
	.byte		v052
	.byte	W01
	.byte		v053
	.byte	W01
	.byte		v055
	.byte	W01
	.byte		v055
	.byte	W01
	.byte		v057
	.byte	W01
	.byte		v058
	.byte	W01
	.byte		v059
	.byte	W01
	.byte		v060
	.byte	W01
	.byte		v062
	.byte	W01
	.byte		v063
	.byte	W01
	.byte		v064
	.byte	W01
	.byte		v065
	.byte	W01
	.byte		v066
	.byte	W01
	.byte		v068
	.byte	W01
	.byte		v069
	.byte	W01
	.byte		v070
	.byte	W01
	.byte		v071
	.byte	W01
	.byte		v072
	.byte	W01
	.byte		v073
	.byte	W01
	.byte		v075
	.byte	W01
	.byte		v076
	.byte	W01
	.byte		v077
	.byte	W01
	.byte		v077
	.byte	W02
	.byte		v078
	.byte	W02
	.byte		v079
	.byte	W03
	.byte		v080
	.byte	W02
	.byte		v080
	.byte	W03
	.byte		v081
	.byte	W02
	.byte		v082
	.byte	W02
	.byte		v082
	.byte	W03
	.byte		v083
	.byte	W02
	.byte		v084
	.byte	W02
	.byte	VOICE	, 29
	.byte	W01
	.byte	VOL	, v085
	.byte		N11	, Cn3, v124
	.byte	W12
	.byte			Cn3, v112
	.byte	W36
	.byte			Cn3, v124
	.byte	W12
	.byte			Cn3, v112
	.byte	W36
song044_4_1:
	.byte		N11	, Cn3, v124
	.byte	W12
	.byte			Cn3, v112
	.byte	W32
	.byte	W03
	.byte	VOICE	, 33
	.byte	W01
	.byte		N11	, Ds3, v124
	.byte	W12
	.byte			Cn3, v112
	.byte	W32
	.byte	W03
	.byte	VOICE	, 29
	.byte	W01
	.byte	PEND
	.byte		N11	, Cn3, v124
	.byte	W12
	.byte			Cn3, v112
	.byte	W36
	.byte			Cn3, v124
	.byte	W12
	.byte			Cn3, v112
	.byte	W36
	.byte	PATT	
		mPtr	song044_4_1
song044_4_2:
	.byte		N11	, Cn3, v116
	.byte	W12
	.byte			Cn3, v100
	.byte	W36
	.byte			Cn3, v116
	.byte	W12
	.byte			Cn3, v100
	.byte	W36
	.byte	PEND
song044_4_7:
	.byte		N11	, Cn3, v116
	.byte	W12
	.byte			Cn3, v100
	.byte	W32
	.byte	W03
	.byte	VOICE	, 33
	.byte	W01
	.byte		N11	, Ds3, v116
	.byte	W12
	.byte			Cn3, v100
	.byte	W32
	.byte	W03
	.byte	VOICE	, 29
	.byte	W01
	.byte	PEND
	.byte	PATT	
		mPtr	song044_4_2
song044_4_8:
	.byte		N11	, Cn3, v116
	.byte	W12
	.byte			Cn3, v100
	.byte	W32
	.byte	W03
	.byte	VOICE	, 33
	.byte	W01
	.byte		N11	, Ds3, v116
	.byte	W12
	.byte			Cn3, v100
	.byte	W36
	.byte	PEND
	.byte	W96
	.byte	W96
	.byte	W96
	.byte	W96
	.byte	W96
	.byte	W96
	.byte	W96
	.byte	W96
	.byte	W96
	.byte	W96
	.byte	W96
	.byte	W96
	.byte	W96
	.byte	W96
	.byte	W96
	.byte	W96
song044_4_3:
	.byte	VOICE	, 29
	.byte	VOL	, v077
	.byte		N92	, As2, v116
	.byte	W96
	.byte	PEND
song044_4_4:
	.byte		N92	, Cn3, v116
	.byte	W92
	.byte	W03
	.byte	VOICE	, 33
	.byte	W01
	.byte	PEND
	.byte		N92	, Dn3
	.byte	W96
	.byte			Bn2
	.byte	W96
song044_4_5:
	.byte	VOICE	, 29
	.byte	VOL	, v077
	.byte		N92	, Dn3, v116
	.byte	W96
	.byte	PEND
song044_4_6:
	.byte		N92	, Ds3, v116
	.byte	W92
	.byte	W03
	.byte	VOICE	, 29
	.byte	W01
	.byte	PEND
	.byte		TIE	, Cs3
	.byte	W96
	.byte	W92
	.byte	W03
	.byte		EOT	
	.byte	W01
	.byte	PATT	
		mPtr	song044_4_3
	.byte	PATT	
		mPtr	song044_4_4
	.byte		N92	, Dn3, v116
	.byte	W96
	.byte			Bn2
	.byte	W96
	.byte	PATT	
		mPtr	song044_4_5
	.byte	PATT	
		mPtr	song044_4_6
	.byte		TIE	, Cs3, v116
	.byte	W96
	.byte	W92
	.byte	W03
	.byte	VOICE	, 29
	.byte	W01
	.byte		EOT	
	.byte	PATT	
		mPtr	song044_4_2
	.byte	PATT	
		mPtr	song044_4_7
	.byte	PATT	
		mPtr	song044_4_2
	.byte	PATT	
		mPtr	song044_4_7
	.byte	PATT	
		mPtr	song044_4_2
	.byte	PATT	
		mPtr	song044_4_7
	.byte	PATT	
		mPtr	song044_4_2
	.byte	PATT	
		mPtr	song044_4_8
	.byte	GOTO	
		mPtr	song044_4_9
	.byte	FINE

	@********************** Track  5 **********************@

	.global song044_5
song044_5:	@ 0x082887B9
	.byte	KEYSH	, 0
	.byte	VOICE	, 30
	.byte	VOL	, v077
	.byte	W96
	.byte	W96
	.byte	W96
	.byte	W96
song044_5_7:
	.byte		N92	, Cn3, v116
	.byte	W96
song044_5_1:
	.byte		N40	, Bn2, v112
	.byte	W48
	.byte		N23	, Gn2, v096
	.byte	W24
	.byte			An2, v100
	.byte	W24
	.byte	PEND
song044_5_2:
	.byte		N64	, As2, v104
	.byte	W72
	.byte		N23	, Cn3, v112
	.byte	W24
	.byte	PEND
	.byte		N84	, An2, v104
	.byte	W96
	.byte		N92	, Cn3, v116
	.byte	W96
	.byte	PATT	
		mPtr	song044_5_1
	.byte	PATT	
		mPtr	song044_5_2
	.byte		N84	, An2, v104
	.byte	W96
	.byte	W96
	.byte	W96
	.byte	W96
	.byte	W96
song044_5_3:
	.byte	VOL	, v077
	.byte		N48	, Dn2, v064
	.byte	W44
	.byte	W02
	.byte			Gn2, v076
	.byte	W48
	.byte	W02
	.byte	PEND
	.byte			Fn2, v072
	.byte	W44
	.byte	W02
	.byte		N40	, Ds2, v064
	.byte	W48
	.byte	W02
	.byte		N96	, Cn3, v096
	.byte	W03
	.byte	VOL	, v077
	.byte	W01
	.byte		v074
	.byte	W01
	.byte		v070
	.byte	W01
	.byte		v065
	.byte	W01
	.byte		v060
	.byte	W01
	.byte		v055
	.byte	W01
	.byte		v048
	.byte	W01
	.byte		v040
	.byte	W01
	.byte		v035
	.byte	W01
	.byte		v027
	.byte	W01
	.byte		v019
	.byte	W01
	.byte		v014
	.byte	W02
	.byte		v014
	.byte	W01
	.byte		v015
	.byte	W01
	.byte		v016
	.byte	W01
	.byte		v017
	.byte	W01
	.byte		v018
	.byte	W01
	.byte		v019
	.byte	W01
	.byte		v019
	.byte	W01
	.byte		v020
	.byte	W01
	.byte		v021
	.byte	W01
	.byte		v022
	.byte	W01
	.byte		v023
	.byte	W01
	.byte		v024
	.byte	W01
	.byte		v024
	.byte	W01
	.byte		v025
	.byte	W01
	.byte		v026
	.byte	W01
	.byte		v027
	.byte	W01
	.byte		v028
	.byte	W01
	.byte		v029
	.byte	W01
	.byte		v029
	.byte	W01
	.byte		v030
	.byte	W01
	.byte		v031
	.byte	W01
	.byte		v032
	.byte	W01
	.byte		v034
	.byte	W01
	.byte		v034
	.byte	W01
	.byte		v036
	.byte	W01
	.byte		v037
	.byte	W01
	.byte		v038
	.byte	W01
	.byte		v039
	.byte	W01
	.byte		v041
	.byte	W01
	.byte		v042
	.byte	W01
	.byte		v043
	.byte	W01
	.byte		v044
	.byte	W01
	.byte		v046
	.byte	W01
	.byte		v047
	.byte	W01
	.byte		v048
	.byte	W01
	.byte		v049
	.byte	W01
	.byte		v051
	.byte	W01
	.byte		v052
	.byte	W01
	.byte		v053
	.byte	W01
	.byte		v054
	.byte	W01
	.byte		v055
	.byte	W01
	.byte		v057
	.byte	W01
	.byte		v058
	.byte	W01
	.byte		v060
	.byte	W01
	.byte		v061
	.byte	W01
	.byte		v063
	.byte	W01
	.byte		v064
	.byte	W01
	.byte		v065
	.byte	W01
	.byte		v067
	.byte	W01
	.byte		v068
	.byte	W01
	.byte		v070
	.byte	W01
	.byte		v071
	.byte	W01
	.byte		v072
	.byte	W01
	.byte		v074
	.byte	W01
	.byte		v075
	.byte	W01
	.byte		v077
	.byte	W01
	.byte		v077
	.byte	W24
	.byte	W96
	.byte	W96
	.byte	W96
	.byte	W96
	.byte	W96
	.byte	PATT	
		mPtr	song044_5_3
	.byte		N48	, Fn2, v072
	.byte	W44
	.byte	W02
	.byte		N44	, Ds2, v064
	.byte	W48
	.byte	W02
	.byte		N90	, Bn2, v104
	.byte	W03
	.byte	VOL	, v077
	.byte	W01
	.byte		v074
	.byte	W01
	.byte		v070
	.byte	W01
	.byte		v065
	.byte	W01
	.byte		v060
	.byte	W01
	.byte		v055
	.byte	W01
	.byte		v048
	.byte	W01
	.byte		v040
	.byte	W01
	.byte		v035
	.byte	W01
	.byte		v027
	.byte	W01
	.byte		v019
	.byte	W01
	.byte		v014
	.byte	W02
	.byte		v014
	.byte	W01
	.byte		v015
	.byte	W01
	.byte		v016
	.byte	W01
	.byte		v017
	.byte	W01
	.byte		v018
	.byte	W01
	.byte		v019
	.byte	W01
	.byte		v019
	.byte	W01
	.byte		v020
	.byte	W01
	.byte		v021
	.byte	W01
	.byte		v022
	.byte	W01
	.byte		v023
	.byte	W01
	.byte		v024
	.byte	W01
	.byte		v024
	.byte	W01
	.byte		v025
	.byte	W01
	.byte		v026
	.byte	W01
	.byte		v027
	.byte	W01
	.byte		v028
	.byte	W01
	.byte		v029
	.byte	W01
	.byte		v029
	.byte	W01
	.byte		v030
	.byte	W01
	.byte		v031
	.byte	W01
	.byte		v032
	.byte	W01
	.byte		v034
	.byte	W01
	.byte		v034
	.byte	W01
	.byte		v036
	.byte	W01
	.byte		v037
	.byte	W01
	.byte		v038
	.byte	W01
	.byte		v039
	.byte	W01
	.byte		v041
	.byte	W01
	.byte		v042
	.byte	W01
	.byte		v043
	.byte	W01
	.byte		v044
	.byte	W01
	.byte		v046
	.byte	W01
	.byte		v047
	.byte	W01
	.byte		v048
	.byte	W01
	.byte		v049
	.byte	W01
	.byte		v051
	.byte	W01
	.byte		v052
	.byte	W01
	.byte		v053
	.byte	W01
	.byte		v054
	.byte	W01
	.byte		v055
	.byte	W01
	.byte		v057
	.byte	W01
	.byte		v058
	.byte	W01
	.byte		v060
	.byte	W01
	.byte		v061
	.byte	W01
	.byte		v063
	.byte	W01
	.byte		v064
	.byte	W01
	.byte		v065
	.byte	W01
	.byte		v067
	.byte	W01
	.byte		v068
	.byte	W01
	.byte		v070
	.byte	W01
	.byte		v071
	.byte	W01
	.byte		v072
	.byte	W01
	.byte		v074
	.byte	W01
	.byte		v075
	.byte	W01
	.byte		v077
	.byte	W01
	.byte		v077
	.byte	W24
	.byte	W96
	.byte	W96
	.byte	W96
	.byte	W92
	.byte	W03
	.byte		N11	, Cn3, v116
	.byte	W01
song044_5_4:
	.byte	W11
	.byte		N10	, Cn3, v104
	.byte	W36
	.byte		N11	, Cn3, v116
	.byte	W12
	.byte		N10	, Cn3, v104
	.byte	W36
	.byte		N11	, Cn3, v116
	.byte	W01
	.byte	PEND
song044_5_5:
	.byte	W11
	.byte		N10	, Cn3, v104
	.byte	W36
	.byte		N11	, Dn3, v124
	.byte	W12
	.byte		N10	, Bn2, v104
	.byte	W36
	.byte		N11	, Cn3, v116
	.byte	W01
	.byte	PEND
	.byte	PATT	
		mPtr	song044_5_4
song044_5_6:
	.byte	W11
	.byte		N10	, Cn3, v104
	.byte	W36
	.byte		N11	, Dn3, v124
	.byte	W12
	.byte		N10	, Bn2, v104
	.byte	W36
	.byte	W01
	.byte	PEND
	.byte	W96
	.byte	W96
	.byte	W96
	.byte	W96
	.byte	W96
	.byte	W96
	.byte	W96
	.byte	W96
	.byte	W96
	.byte	W96
	.byte	W96
	.byte	W96
	.byte	W96
	.byte	W96
	.byte	W96
	.byte	W96
	.byte		N92	, As2, v120
	.byte	W96
	.byte		TIE	, Cn3, v124
	.byte	W96
	.byte	W92
	.byte	W03
	.byte		EOT	
	.byte	W01
	.byte		N92	, Gn2, v120
	.byte	W96
	.byte			Dn3
	.byte	W96
	.byte		TIE	, Ds3, v124
	.byte	W96
	.byte	W44
	.byte	W03
	.byte		EOT	
	.byte	W01
	.byte		N44	, Cs3, v120
	.byte	W48
	.byte			As2
	.byte	W48
	.byte			Fs2
	.byte	W48
	.byte		N92	, As2
	.byte	W96
	.byte		N44	, Cn3, v124
	.byte	W48
	.byte			Fn3
	.byte	W48
	.byte		N88	, Cn3
	.byte	W96
	.byte		N44	, Gn2, v120
	.byte	W48
	.byte			As2
	.byte	W48
	.byte		N92	, Dn3
	.byte	W96
	.byte		N44	, Ds3, v124
	.byte	W48
	.byte			Fs3
	.byte	W48
	.byte			Gs3
	.byte	W48
	.byte			Fs3, v120
	.byte	W48
	.byte			As3
	.byte	W48
	.byte			Fs3
	.byte	W44
	.byte	W03
	.byte		N11	, Cn3, v116
	.byte	W01
	.byte	PATT	
		mPtr	song044_5_4
	.byte	PATT	
		mPtr	song044_5_5
	.byte	PATT	
		mPtr	song044_5_4
	.byte	PATT	
		mPtr	song044_5_5
	.byte	PATT	
		mPtr	song044_5_4
	.byte	PATT	
		mPtr	song044_5_5
	.byte	PATT	
		mPtr	song044_5_4
	.byte	PATT	
		mPtr	song044_5_6
	.byte	GOTO	
		mPtr	song044_5_7
	.byte	FINE

	@********************** Track  6 **********************@

	.global song044_6
song044_6:	@ 0x08288A07
	.byte	KEYSH	, 0
	.byte	VOICE	, 32
	.byte	VOL	, v046
	.byte	PAN	, c_v
	.byte	W96
	.byte	W96
	.byte	W96
	.byte	W96
song044_6_10:
	.byte	W96
	.byte	W96
	.byte	W96
	.byte	W96
	.byte	W96
	.byte	W96
	.byte	W96
	.byte	W72
	.byte	PAN	, c_v
	.byte	W22
	.byte		N16	, Cn3, v096
	.byte	W02
song044_6_1:
	.byte	W18
	.byte		N17	, Fn3, v104
	.byte	W18
	.byte		N05	, En3, v100
	.byte	W06
	.byte		N04	, Fn3
	.byte	W04
	.byte		N23	, Cn3, v080
	.byte	W24
	.byte	W02
	.byte		N22	, Fn3, v104
	.byte	W22
	.byte		N16	, Cn3, v096
	.byte	W02
	.byte	PEND
song044_6_2:
	.byte	W18
	.byte		N17	, Fn3, v104
	.byte	W18
	.byte		N05	, En3, v100
	.byte	W06
	.byte			Fn3
	.byte	W06
	.byte		N23	, Gn3, v080
	.byte	W24
	.byte		N22	, As3, v104
	.byte	W22
	.byte		N16	, Cn3, v096
	.byte	W02
	.byte	PEND
song044_6_3:
	.byte	W18
	.byte		N17	, Fn3, v104
	.byte	W18
	.byte		N05	, Gs3, v100
	.byte	W06
	.byte			As3
	.byte	W06
	.byte		N23	, Cn4, v104
	.byte	W24
	.byte			Ds3, v080
	.byte	W24
	.byte	PEND
song044_6_4:
	.byte		N17	, Fn3, v096
	.byte	W24
	.byte		N11	, Cn4, v104
	.byte	W12
	.byte			As3, v100
	.byte	W24
	.byte		N23	, Gs3, v096
	.byte	W24
	.byte		N11	, Gn3, v100
	.byte	W12
	.byte	PEND
song044_6_5:
	.byte		N23	, Ds3, v096
	.byte	W24
	.byte		N11	, Cs4, v100
	.byte	W12
	.byte		N23	, Cn4, v096
	.byte	W24
	.byte			Ds4, v104
	.byte	W24
	.byte			Cn4
	.byte	W12
	.byte	PEND
song044_6_6:
	.byte	W24
	.byte		N11	, As3, v100
	.byte	W12
	.byte		N23	, Gs3, v092
	.byte	W24
	.byte			Cn4, v104
	.byte	W36
	.byte	PEND
	.byte			Gn3, v100
	.byte	W24
	.byte		N11	, Gs3
	.byte	W12
	.byte		N23	, Gn3, v096
	.byte	W24
	.byte		N11	, Fn3, v084
	.byte	W12
	.byte		N08	, Cs3, v100
	.byte	W10
	.byte		N13	, Cn3, v096
	.byte	W14
	.byte	W92
	.byte	W02
	.byte		N16	
	.byte	W02
	.byte	PATT	
		mPtr	song044_6_1
	.byte	PATT	
		mPtr	song044_6_2
	.byte	PATT	
		mPtr	song044_6_3
	.byte	PATT	
		mPtr	song044_6_4
	.byte	PATT	
		mPtr	song044_6_5
	.byte	PATT	
		mPtr	song044_6_6
	.byte		N11	, En3, v100
	.byte	W12
	.byte			Gs3, v104
	.byte	W12
	.byte			Cs4, v116
	.byte	W12
	.byte		N23	, Cn4
	.byte	W24
	.byte			En4, v124
	.byte	W24
	.byte		N11	, Cn4, v104
	.byte	W12
	.byte		N32	, Fn4, v124
	.byte	W96
	.byte	W96
	.byte	W96
	.byte	W96
song044_6_8:
	.byte	PAN	, c_v+30
	.byte	W24
	.byte		N10	, Fn4, v056
	.byte	W12
	.byte		N06	, Fn4, v104
	.byte	W36
	.byte		N10	, Fn4, v056
	.byte	W12
	.byte		N06	, Fn4, v104
	.byte	W12
	.byte	PEND
song044_6_7:
	.byte	W24
	.byte		N10	, Fn4, v056
	.byte	W12
	.byte		N06	, Fn4, v104
	.byte	W36
	.byte		N10	, En4, v056
	.byte	W12
	.byte		N06	, En4, v104
	.byte	W12
	.byte	PEND
song044_6_9:
	.byte	W24
	.byte		N10	, Fn4, v056
	.byte	W12
	.byte		N06	, Fn4, v104
	.byte	W36
	.byte		N10	, Fn4, v056
	.byte	W12
	.byte		N06	, Fn4, v104
	.byte	W12
	.byte	PEND
	.byte	PATT	
		mPtr	song044_6_7
	.byte	W96
	.byte	W96
	.byte	W96
	.byte	W96
	.byte	W96
	.byte	W96
	.byte	W96
	.byte	W96
	.byte	W96
	.byte	W96
	.byte	W96
	.byte	W96
	.byte	W96
	.byte	W96
	.byte	W96
	.byte	W96
	.byte	W96
	.byte	W96
	.byte	W96
	.byte	W96
	.byte	W96
	.byte	W96
	.byte	W96
	.byte	W96
	.byte	W96
	.byte	W96
	.byte	W96
	.byte	W96
	.byte	W96
	.byte	W96
	.byte	W96
	.byte	W96
	.byte	W96
	.byte	W96
	.byte	W96
	.byte	W96
	.byte	PATT	
		mPtr	song044_6_8
	.byte	PATT	
		mPtr	song044_6_7
	.byte	PATT	
		mPtr	song044_6_9
	.byte	PATT	
		mPtr	song044_6_7
	.byte	GOTO	
		mPtr	song044_6_10
	.byte	FINE

	@********************** Track  7 **********************@

	.global song044_7
song044_7:	@ 0x08288B68
	.byte	KEYSH	, 0
	.byte	VOICE	, 35
	.byte	VOL	, v067
	.byte	PAN	, c_v
	.byte	W96
	.byte	W96
	.byte	W96
	.byte	W96
song044_7_1:
	.byte	W96
	.byte	W96
	.byte	W96
	.byte	W96
	.byte	W96
	.byte	W96
	.byte	W96
	.byte	W96
	.byte	W96
	.byte	W96
	.byte	W96
	.byte	W96
	.byte	W96
	.byte	W96
	.byte	W96
	.byte	W96
	.byte	W96
	.byte	W96
	.byte	W96
	.byte	W96
	.byte	W96
	.byte	W96
	.byte	W96
	.byte	W96
	.byte	W96
	.byte	W96
	.byte	W96
	.byte	W96
	.byte	W96
	.byte	W96
	.byte	W96
	.byte		N92	, Ds3, v076
	.byte	W96
	.byte		TIE	, Dn3, v080
	.byte	W96
	.byte	W92
	.byte	W03
	.byte		EOT	
	.byte	W01
	.byte		TIE	, Cn3, v076
	.byte	W96
	.byte	W44
	.byte	W03
	.byte		EOT	
	.byte	W01
	.byte		N44	, As2, v127
	.byte	W48
	.byte		N23	, Gs2
	.byte	W24
	.byte		N68	, Ds3, v104
	.byte	W72
	.byte		N92	, Gn2, v084
	.byte	W96
	.byte		N88	, Cn3
	.byte	W96
	.byte		N44	, Bn2, v127
	.byte	W48
	.byte			Cn3
	.byte	W48
	.byte		N88	, Dn3, v104
	.byte	W96
	.byte		N44	, Cn3, v127
	.byte	W48
	.byte			Dn3
	.byte	W48
	.byte		N88	, Ds3, v104
	.byte	W96
	.byte		N44	, Gn3, v120
	.byte	W48
	.byte			Fs3, v116
	.byte	W48
	.byte			En3
	.byte	W48
	.byte			An2, v100
	.byte	W48
	.byte		N92	, Cn3, v112
	.byte	W96
	.byte			Fs3, v120
	.byte	W96
	.byte	W96
	.byte	W96
	.byte	W96
	.byte	W96
	.byte	W96
	.byte	W96
	.byte	W96
	.byte	W96
	.byte	W96
	.byte	W96
	.byte	W96
	.byte	W96
	.byte	W96
	.byte	W96
	.byte	W96
	.byte	W96
	.byte	W96
	.byte	W96
	.byte	W96
	.byte	W96
	.byte	W96
	.byte	W96
	.byte	W96
	.byte	W96
	.byte	GOTO	
		mPtr	song044_7_1
	.byte	FINE

	@********************** Track  8 **********************@

	.global song044_8
song044_8:	@ 0x08288BFE
	.byte	KEYSH	, 0
	.byte	VOICE	, 37
	.byte	VOL	, v053
	.byte	PAN	, c_v
	.byte	W96
	.byte	W96
	.byte	W96
	.byte	W96
song044_8_2:
	.byte	W96
	.byte	W96
	.byte	W96
	.byte	W96
	.byte	W96
	.byte	W96
	.byte	W96
	.byte	W96
	.byte	W96
	.byte	W96
	.byte	W96
	.byte	W96
	.byte	W96
	.byte	W96
	.byte	W96
	.byte	W96
	.byte	W96
	.byte	W96
	.byte	W96
	.byte	W96
	.byte	W96
	.byte	W96
	.byte	W96
	.byte	W96
	.byte	W96
	.byte	W96
	.byte	W96
	.byte	W96
	.byte	W96
	.byte	W96
	.byte	W96
song044_8_1:
	.byte	W48
	.byte		N23	, Dn3, v084
	.byte	W24
	.byte			Cn3, v076
	.byte	W24
	.byte	PEND
	.byte		N44	, Ds3, v084
	.byte	W48
	.byte		N92	, Fs3, v092
	.byte	W48
	.byte	W48
	.byte		N44	, Dn3, v084
	.byte	W48
	.byte		N88	, As2, v076
	.byte	W96
	.byte		N44	, Gn2, v072
	.byte	W48
	.byte			Dn3, v076
	.byte	W48
	.byte			An2
	.byte	W48
	.byte			Ds3, v080
	.byte	W48
	.byte		N92	, An2, v076
	.byte	W96
	.byte			As2, v080
	.byte	W96
	.byte	PATT	
		mPtr	song044_8_1
	.byte		N44	, Ds3, v084
	.byte	W48
	.byte			Fs3, v092
	.byte	W48
	.byte		N23	, Gn3
	.byte	W24
	.byte		N68	, Dn3, v084
	.byte	W72
	.byte		N88	, As2, v076
	.byte	W96
	.byte		N44	, Fs2, v072
	.byte	W48
	.byte			Dn3, v076
	.byte	W48
	.byte			Gs2
	.byte	W48
	.byte			Dn3, v080
	.byte	W48
	.byte		N92	, Cs3, v076
	.byte	W96
	.byte			En3, v084
	.byte	W96
	.byte	W96
	.byte	W96
	.byte	W96
	.byte	W96
	.byte	W96
	.byte	W96
	.byte	W96
	.byte	W96
	.byte	W96
	.byte	W96
	.byte	W96
	.byte	W96
	.byte	W96
	.byte	W96
	.byte	W96
	.byte	W96
	.byte	W96
	.byte	W96
	.byte	W96
	.byte	W96
	.byte	W96
	.byte	W96
	.byte	W96
	.byte	W96
	.byte	GOTO	
		mPtr	song044_8_2
	.byte	FINE

	@********************** Track  9 **********************@

	.global song044_9
song044_9:	@ 0x08288C9E
	.byte	KEYSH	, 0
	.byte	VOICE	, 14
	.byte	VOL	, v056
	.byte		N06	, Dn2, v116
	.byte	W06
	.byte			Dn3
	.byte	W06
	.byte		N03	, Dn2
	.byte	W06
	.byte		N03	
	.byte	W06
	.byte		N06	, Dn3
	.byte	W06
	.byte		N03	, Dn2
	.byte	W06
	.byte		N06	
	.byte	W06
	.byte			Dn3
	.byte	W06
	.byte		N03	, Dn2
	.byte	W06
	.byte		N03	
	.byte	W06
	.byte		N06	, Dn3
	.byte	W06
	.byte		N03	, Dn2
	.byte	W06
	.byte		N06	
	.byte	W06
	.byte			Dn3
	.byte	W06
	.byte		N03	, Dn2
	.byte	W06
	.byte		N03	
	.byte	W06
	.byte		N06	
	.byte	W06
	.byte			Dn3
	.byte	W06
	.byte		N03	, Dn2
	.byte	W06
	.byte		N03	
	.byte	W06
	.byte		N06	, Dn3
	.byte	W06
	.byte		N03	, Dn2
	.byte	W06
	.byte		N06	
	.byte	W06
	.byte			Dn3
	.byte	W06
	.byte		N03	, Dn2
	.byte	W06
	.byte		N03	
	.byte	W06
	.byte		N06	, Dn3
	.byte	W06
	.byte		N03	, Dn2
	.byte	W06
	.byte		N06	
	.byte	W06
	.byte			Dn3
	.byte	W06
	.byte			Dn2
	.byte	W06
	.byte			Cn2
	.byte	W06
	.byte			Dn2
	.byte	W06
	.byte			Dn3
	.byte	W06
	.byte		N03	, Dn2
	.byte	W06
	.byte		N03	
	.byte	W06
	.byte		N06	, Dn3
	.byte	W06
	.byte		N03	, Dn2
	.byte	W06
	.byte		N06	
	.byte	W06
	.byte			Dn3
	.byte	W06
	.byte		N03	, Dn2
	.byte	W06
	.byte		N03	
	.byte	W06
	.byte		N06	, Dn3
	.byte	W06
	.byte		N03	, Dn2
	.byte	W06
	.byte		N24	
	.byte	W24
	.byte		N11	, As2
	.byte	W12
	.byte		N05	, As3
	.byte	W12
	.byte		N11	, An2
	.byte	W12
	.byte		N05	, An3
	.byte	W12
	.byte		N11	, Gn2
	.byte	W12
	.byte		N05	, Gn3
	.byte	W12
	.byte		N23	, Fs2
	.byte	W24
song044_9_1:
	.byte		N03	, Gn2, v116
	.byte	W06
	.byte		N12	, Gn1
	.byte	W12
	.byte		N03	, Gn3
	.byte	W06
	.byte		N06	, Gn2
	.byte	W06
	.byte			Gn3
	.byte	W06
	.byte		N03	, Gn2
	.byte	W06
	.byte			Gn1
	.byte	W06
	.byte			Gn2
	.byte	W06
	.byte		N12	, Gn1
	.byte	W12
	.byte		N03	, Gn3
	.byte	W06
	.byte		N06	, Gn2
	.byte	W06
	.byte			Gn3
	.byte	W06
	.byte		N03	, Gn2
	.byte	W06
	.byte			Gn1
	.byte	W06
	.byte	PEND
song044_9_2:
	.byte		N03	, Fs2, v116
	.byte	W06
	.byte		N12	, Fs1
	.byte	W12
	.byte		N03	, Fs3
	.byte	W06
	.byte		N06	, Fs2
	.byte	W06
	.byte			Fs3
	.byte	W06
	.byte		N03	, Fs2
	.byte	W06
	.byte			Fs1
	.byte	W06
	.byte			Fs2
	.byte	W06
	.byte		N12	, Fs1
	.byte	W12
	.byte		N03	, Fs3
	.byte	W06
	.byte		N06	, Fs2
	.byte	W06
	.byte			Fs3
	.byte	W06
	.byte		N03	, Fs2
	.byte	W06
	.byte			Fs1
	.byte	W06
	.byte	PEND
song044_9_3:
	.byte		N03	, Fn2, v116
	.byte	W06
	.byte		N12	, Fn1
	.byte	W12
	.byte		N03	, Fn3
	.byte	W06
	.byte		N06	, Fn2
	.byte	W06
	.byte			Fn3
	.byte	W06
	.byte		N03	, Fn2
	.byte	W06
	.byte			Fn1
	.byte	W06
	.byte			Fn2
	.byte	W06
	.byte		N12	, Fn1
	.byte	W12
	.byte		N03	, Fn3
	.byte	W06
	.byte		N06	, Fn2
	.byte	W06
	.byte			Fn3
	.byte	W06
	.byte		N03	, Fn2
	.byte	W06
	.byte			Fn1
	.byte	W06
	.byte	PEND
song044_9_4:
	.byte		N03	, En2, v116
	.byte	W06
	.byte		N12	, En1
	.byte	W12
	.byte		N03	, En3
	.byte	W06
	.byte		N06	, En2
	.byte	W06
	.byte			En3
	.byte	W06
	.byte		N03	, En2
	.byte	W06
	.byte			En1
	.byte	W06
	.byte			En2
	.byte	W06
	.byte		N12	, En1
	.byte	W12
	.byte		N03	, En3
	.byte	W06
	.byte		N06	, En2
	.byte	W06
	.byte			En3
	.byte	W06
	.byte		N03	, En2
	.byte	W06
	.byte			En1
	.byte	W06
	.byte	PEND
	.byte	PATT	
		mPtr	song044_9_1
	.byte	PATT	
		mPtr	song044_9_2
	.byte	PATT	
		mPtr	song044_9_3
	.byte	PATT	
		mPtr	song044_9_4
	.byte	PATT	
		mPtr	song044_9_1
	.byte	PATT	
		mPtr	song044_9_2
	.byte	PATT	
		mPtr	song044_9_3
	.byte	PATT	
		mPtr	song044_9_4
	.byte	PATT	
		mPtr	song044_9_3
song044_9_5:
	.byte		N03	, As2, v116
	.byte	W06
	.byte		N12	, As1
	.byte	W12
	.byte		N03	, As3
	.byte	W06
	.byte		N06	, As2
	.byte	W06
	.byte			As3
	.byte	W06
	.byte		N03	, As2
	.byte	W06
	.byte			As1
	.byte	W06
	.byte			As2
	.byte	W06
	.byte		N12	, As1
	.byte	W12
	.byte		N03	, As3
	.byte	W06
	.byte		N06	, As2
	.byte	W06
	.byte			As3
	.byte	W06
	.byte		N03	, As2
	.byte	W06
	.byte			As1
	.byte	W06
	.byte	PEND
	.byte			Ds2
	.byte	W06
	.byte		N12	, Ds1
	.byte	W12
	.byte		N03	, Ds3
	.byte	W06
	.byte		N06	, Ds2
	.byte	W06
	.byte			Ds3
	.byte	W06
	.byte		N03	, Ds2
	.byte	W06
	.byte			Ds1
	.byte	W06
	.byte			Ds2
	.byte	W06
	.byte		N12	, Ds1
	.byte	W12
	.byte		N03	, Ds3
	.byte	W06
	.byte		N06	, Ds2
	.byte	W06
	.byte			Ds3
	.byte	W06
	.byte		N03	, Ds2
	.byte	W06
	.byte			Ds1
	.byte	W06
song044_9_6:
	.byte		N03	, Dn2, v116
	.byte	W06
	.byte		N12	, Dn1
	.byte	W12
	.byte		N03	, Dn3
	.byte	W06
	.byte		N06	, Dn2
	.byte	W06
	.byte			Dn3
	.byte	W06
	.byte		N03	, Dn2
	.byte	W06
	.byte			Dn1
	.byte	W06
	.byte			Dn2
	.byte	W06
	.byte		N12	, Dn1
	.byte	W12
	.byte		N03	, Dn3
	.byte	W06
	.byte		N06	, Dn2
	.byte	W06
	.byte			Dn3
	.byte	W06
	.byte		N03	, Dn2
	.byte	W06
	.byte			Dn1
	.byte	W06
	.byte	PEND
	.byte	PATT	
		mPtr	song044_9_1
	.byte	PATT	
		mPtr	song044_9_2
	.byte	PATT	
		mPtr	song044_9_5
	.byte	PATT	
		mPtr	song044_9_4
	.byte	PATT	
		mPtr	song044_9_3
song044_9_7:
	.byte		N03	, Gn2, v116
	.byte	W06
	.byte		N12	, Gn1
	.byte	W12
	.byte		N03	, Gn3
	.byte	W06
	.byte		N06	, Gn2
	.byte	W06
	.byte			Gn3
	.byte	W06
	.byte		N03	, Gn2
	.byte	W06
	.byte			Gn1
	.byte	W06
	.byte			Fn2
	.byte	W06
	.byte		N12	, Fn1
	.byte	W12
	.byte		N03	, Fn3
	.byte	W06
	.byte		N06	, Fn2
	.byte	W06
	.byte			Fn3
	.byte	W06
	.byte		N03	, Fn2
	.byte	W06
	.byte			Fn1
	.byte	W06
	.byte	PEND
	.byte	PATT	
		mPtr	song044_9_6
	.byte	PATT	
		mPtr	song044_9_7
song044_9_8:
	.byte		N03	, Ds2, v116
	.byte	W06
	.byte		N12	, Ds1
	.byte	W12
	.byte		N03	, Ds3
	.byte	W06
	.byte		N06	, Ds2
	.byte	W06
	.byte			Ds3
	.byte	W06
	.byte		N03	, Ds2
	.byte	W06
	.byte			Ds1
	.byte	W06
	.byte			Dn2
	.byte	W06
	.byte		N12	, Dn3
	.byte	W12
	.byte		N03	, Dn2
	.byte	W06
	.byte		N06	, Dn3
	.byte	W06
	.byte			Dn2
	.byte	W06
	.byte		N03	
	.byte	W06
	.byte		N03	
	.byte	W06
	.byte	PEND
	.byte	PATT	
		mPtr	song044_9_7
	.byte	PATT	
		mPtr	song044_9_8
	.byte	PATT	
		mPtr	song044_9_7
	.byte	PATT	
		mPtr	song044_9_8
	.byte	PATT	
		mPtr	song044_9_7
	.byte	PATT	
		mPtr	song044_9_8
song044_9_9:
	.byte		N12	, Dn1, v116
	.byte	W12
	.byte		N18	, Dn2
	.byte	W24
	.byte		N12	, Cn2
	.byte	W18
	.byte		N03	, As1
	.byte	W06
	.byte			An1
	.byte	W06
	.byte			Gn1
	.byte	W06
	.byte			Fs1
	.byte	W06
	.byte			Gn1
	.byte	W06
	.byte			An1
	.byte	W06
	.byte			Dn2
	.byte	W06
	.byte	PEND
	.byte	PATT	
		mPtr	song044_9_9
song044_9_10:
	.byte		N12	, Gn1, v116
	.byte	W12
	.byte		N18	, Gn2
	.byte	W24
	.byte		N12	, Fn2
	.byte	W18
	.byte		N03	, Ds2
	.byte	W06
	.byte			Dn2
	.byte	W06
	.byte			Cn2
	.byte	W06
	.byte			As1
	.byte	W06
	.byte			Cn2
	.byte	W06
	.byte			Dn2
	.byte	W06
	.byte			Gn2
	.byte	W06
	.byte	PEND
	.byte	PATT	
		mPtr	song044_9_10
	.byte		N12	, Cn2, v116
	.byte	W12
	.byte		N18	, Cn3
	.byte	W24
	.byte		N12	, As2
	.byte	W18
	.byte		N03	, Gs2
	.byte	W06
	.byte			Gn2
	.byte	W06
	.byte			Fn2
	.byte	W06
	.byte			En2
	.byte	W06
	.byte			Fn2
	.byte	W06
	.byte			Gn2
	.byte	W06
	.byte			Cn3
	.byte	W06
	.byte		N12	, Fn1
	.byte	W12
	.byte		N18	, Fn2
	.byte	W24
	.byte		N24	, Cn2
	.byte	W24
	.byte		N18	, Fn2
	.byte	W24
	.byte		N12	, Fn1
	.byte	W12
	.byte			As1
	.byte	W12
	.byte		N18	, As2
	.byte	W24
	.byte		N12	, An2
	.byte	W18
	.byte		N03	, Gn2
	.byte	W06
	.byte			Fn2
	.byte	W06
	.byte			Ds2
	.byte	W06
	.byte			Dn2
	.byte	W06
	.byte			Cn2
	.byte	W06
	.byte			Dn2
	.byte	W06
	.byte			As1
	.byte	W06
	.byte		N12	, Ds2
	.byte	W12
	.byte		N18	, Ds3
	.byte	W24
	.byte			As2
	.byte	W24
	.byte			Gn2
	.byte	W24
	.byte		N12	, Ds2
	.byte	W12
	.byte	PATT	
		mPtr	song044_9_9
	.byte	PATT	
		mPtr	song044_9_9
	.byte	PATT	
		mPtr	song044_9_10
	.byte	PATT	
		mPtr	song044_9_10
	.byte		N12	, Bn1, v116
	.byte	W12
	.byte		N18	, Bn2
	.byte	W24
	.byte		N12	, An2
	.byte	W18
	.byte		N03	, Gn2
	.byte	W06
	.byte			Fs2
	.byte	W06
	.byte			En2
	.byte	W06
	.byte			Dn2
	.byte	W06
	.byte			En2
	.byte	W06
	.byte			Fs2
	.byte	W06
	.byte			Bn2
	.byte	W06
	.byte		N12	, En1
	.byte	W12
	.byte		N18	, En2
	.byte	W24
	.byte		N24	, Bn1
	.byte	W24
	.byte		N18	, En2
	.byte	W24
	.byte		N12	, En1
	.byte	W12
	.byte			An1
	.byte	W12
	.byte		N18	, An2
	.byte	W24
	.byte		N12	, Gn2
	.byte	W18
	.byte		N03	, Fn2
	.byte	W06
	.byte			En2
	.byte	W06
	.byte			Dn2
	.byte	W06
	.byte			Cs2
	.byte	W06
	.byte			Bn1
	.byte	W06
	.byte			Cs2
	.byte	W06
	.byte			An1
	.byte	W06
	.byte		N12	
	.byte	W12
	.byte		N18	, An2
	.byte	W24
	.byte			En2
	.byte	W24
	.byte			Cs2
	.byte	W24
	.byte		N12	, An1
	.byte	W12
	.byte	PATT	
		mPtr	song044_9_3
	.byte	PATT	
		mPtr	song044_9_1
song044_9_11:
	.byte		N03	, Gs2, v116
	.byte	W06
	.byte		N12	, Gs1
	.byte	W12
	.byte		N03	, Gs3
	.byte	W06
	.byte		N06	, Gs2
	.byte	W06
	.byte			Gs3
	.byte	W06
	.byte		N03	, Gs2
	.byte	W06
	.byte			Gs1
	.byte	W06
	.byte			Gs2
	.byte	W06
	.byte		N12	, Gs1
	.byte	W12
	.byte		N03	, Gs3
	.byte	W06
	.byte		N06	, Gs2
	.byte	W06
	.byte			Gs3
	.byte	W06
	.byte		N03	, Gs2
	.byte	W06
	.byte			Gs1
	.byte	W06
	.byte	PEND
	.byte	PATT	
		mPtr	song044_9_11
song044_9_13:
	.byte		N03	, An2, v116
	.byte	W06
	.byte		N12	, An1
	.byte	W12
	.byte		N03	, An3
	.byte	W06
	.byte		N06	, An2
	.byte	W06
	.byte			An3
	.byte	W06
	.byte		N03	, An2
	.byte	W06
	.byte			An1
	.byte	W06
	.byte			An2
	.byte	W06
	.byte		N12	, An1
	.byte	W12
	.byte		N03	, An3
	.byte	W06
	.byte		N06	, An2
	.byte	W06
	.byte			An3
	.byte	W06
	.byte		N03	, An2
	.byte	W06
	.byte			An1
	.byte	W06
	.byte	PEND
	.byte	PATT	
		mPtr	song044_9_5
song044_9_12:
	.byte		N03	, Cs3, v116
	.byte	W06
	.byte		N12	, Cs2
	.byte	W12
	.byte		N03	, Cs4
	.byte	W06
	.byte		N06	, Cs3
	.byte	W06
	.byte			Cs4
	.byte	W06
	.byte		N03	, Cs3
	.byte	W06
	.byte			Cs2
	.byte	W06
	.byte			Cs3
	.byte	W06
	.byte		N12	, Cs2
	.byte	W12
	.byte		N03	, Cs4
	.byte	W06
	.byte		N06	, Cs3
	.byte	W06
	.byte			Cs4
	.byte	W06
	.byte		N03	, Cs3
	.byte	W06
	.byte			Cs2
	.byte	W06
	.byte	PEND
	.byte	PATT	
		mPtr	song044_9_12
	.byte	PATT	
		mPtr	song044_9_3
	.byte	PATT	
		mPtr	song044_9_1
	.byte	PATT	
		mPtr	song044_9_11
	.byte	PATT	
		mPtr	song044_9_11
	.byte	PATT	
		mPtr	song044_9_13
	.byte	PATT	
		mPtr	song044_9_5
	.byte	PATT	
		mPtr	song044_9_12
	.byte	PATT	
		mPtr	song044_9_12
	.byte	PATT	
		mPtr	song044_9_7
	.byte	PATT	
		mPtr	song044_9_8
	.byte	PATT	
		mPtr	song044_9_7
	.byte	PATT	
		mPtr	song044_9_8
	.byte	PATT	
		mPtr	song044_9_7
	.byte	PATT	
		mPtr	song044_9_8
	.byte	PATT	
		mPtr	song044_9_7
	.byte	PATT	
		mPtr	song044_9_8
	.byte	GOTO	
		mPtr	song044_9_1
	.byte	FINE

	@********************** Track  10 **********************@

	.global song044_10
song044_10:	@ 0x082890BE
	.byte	KEYSH	, 0
	.byte	VOICE	, 39
	.byte	VOL	, v042
	.byte	PAN	, c_v
	.byte	W96
	.byte	W96
	.byte	W96
	.byte	W96
song044_10_4:
	.byte		N06	, Gn3, v096
	.byte	W12
	.byte		N12	, Gn4, v116
	.byte	W18
	.byte		N06	, Gn3, v096
	.byte	W06
	.byte		N12	, Dn4, v116
	.byte	W12
	.byte		N06	, As3, v124
	.byte	W06
	.byte			An3, v104
	.byte	W06
	.byte			Gn3, v084
	.byte	W06
	.byte			An3, v104
	.byte	W06
	.byte			As3
	.byte	W06
	.byte			Cn4
	.byte	W06
	.byte			Dn4, v116
	.byte	W06
	.byte			Gn4, v120
	.byte	W06
	.byte	PEND
	.byte			Fs3, v096
	.byte	W12
	.byte		N12	, Fs4, v116
	.byte	W18
	.byte		N06	, Fs3, v096
	.byte	W06
	.byte		N12	, Dn4, v116
	.byte	W12
	.byte		N06	, As3, v124
	.byte	W06
	.byte			An3, v104
	.byte	W06
	.byte			Fs3, v084
	.byte	W06
	.byte			An3, v104
	.byte	W06
	.byte			As3
	.byte	W06
	.byte			Cn4
	.byte	W06
	.byte			Dn4, v116
	.byte	W06
	.byte			Fs4, v120
	.byte	W06
	.byte			Fn3, v096
	.byte	W12
	.byte		N12	, Fn4, v116
	.byte	W18
	.byte		N06	, Fn3, v096
	.byte	W06
	.byte		N12	, Dn4, v116
	.byte	W12
	.byte		N06	, As3, v124
	.byte	W06
	.byte			An3, v104
	.byte	W06
	.byte			Fn3, v084
	.byte	W06
	.byte			An3, v104
	.byte	W06
	.byte			As3
	.byte	W06
	.byte			Cn4
	.byte	W06
	.byte			Dn4, v116
	.byte	W06
	.byte			Fn4, v120
	.byte	W06
	.byte		N12	, As4
	.byte	W12
	.byte		N06	, An4, v116
	.byte	W06
	.byte			Gn4, v112
	.byte	W12
	.byte			As4, v120
	.byte	W06
	.byte			En4, v112
	.byte	W12
	.byte		N04	, Dn4, v100
	.byte	W04
	.byte			En4, v112
	.byte	W04
	.byte			Dn5, v120
	.byte	W04
	.byte			Cn4, v100
	.byte	W04
	.byte			En4, v112
	.byte	W04
	.byte			Cn5, v120
	.byte	W04
	.byte			As3, v100
	.byte	W04
	.byte			En4, v112
	.byte	W04
	.byte			As4, v120
	.byte	W04
	.byte			Cn4, v100
	.byte	W04
	.byte			En4, v112
	.byte	W04
	.byte			Cn5, v120
	.byte	W04
	.byte		N06	, Dn4, v096
	.byte	W12
	.byte		N12	, Dn5, v116
	.byte	W18
	.byte		N06	, Dn4, v096
	.byte	W06
	.byte		N12	, Cn5, v116
	.byte	W12
	.byte		N06	, Dn5, v124
	.byte	W06
	.byte			Cn5, v104
	.byte	W06
	.byte			As4, v084
	.byte	W06
	.byte			Cn5, v104
	.byte	W06
	.byte			Gn4
	.byte	W06
	.byte			An4
	.byte	W06
	.byte			As4, v116
	.byte	W06
	.byte			Dn5, v120
	.byte	W06
	.byte			Dn4, v096
	.byte	W12
	.byte		N12	, Dn5, v116
	.byte	W18
	.byte		N06	, Dn4, v096
	.byte	W06
	.byte		N12	, Cn5, v116
	.byte	W12
	.byte		N06	, Dn5, v124
	.byte	W06
	.byte			Cn5, v104
	.byte	W06
	.byte			As4, v084
	.byte	W06
	.byte			Cn5, v104
	.byte	W06
	.byte			Fs4
	.byte	W06
	.byte			An4
	.byte	W06
	.byte			As4, v116
	.byte	W06
	.byte			Dn5, v120
	.byte	W06
	.byte			Dn4, v096
	.byte	W12
	.byte		N12	, Dn5, v116
	.byte	W18
	.byte		N06	, Dn4, v096
	.byte	W06
	.byte		N12	, Cn5, v116
	.byte	W12
	.byte		N06	, Dn5, v124
	.byte	W06
	.byte			Cn5, v104
	.byte	W06
	.byte			As4, v084
	.byte	W06
	.byte			Cn5, v104
	.byte	W06
	.byte			Gn4
	.byte	W06
	.byte			An4
	.byte	W06
	.byte			As4, v116
	.byte	W06
	.byte		N18	, Dn5, v120
	.byte	W06
	.byte	W12
	.byte		N06	, Cn5, v116
	.byte	W06
	.byte			As4, v112
	.byte	W12
	.byte			Dn5, v120
	.byte	W06
	.byte			As4, v112
	.byte	W12
	.byte		N04	, Gn4, v100
	.byte	W04
	.byte			As4, v112
	.byte	W04
	.byte			Gn5, v120
	.byte	W04
	.byte			Fn4, v100
	.byte	W04
	.byte			As4, v112
	.byte	W04
	.byte			Fn5, v120
	.byte	W04
	.byte			En4, v100
	.byte	W04
	.byte			As4, v112
	.byte	W04
	.byte			En5, v120
	.byte	W04
	.byte			Gn4, v100
	.byte	W04
	.byte			As4, v112
	.byte	W04
	.byte			Gn5, v120
	.byte	W04
	.byte	W96
	.byte	W96
	.byte	W96
	.byte	W96
	.byte	W96
	.byte	W96
	.byte	W96
	.byte	W96
	.byte	W96
	.byte	W96
	.byte	W96
	.byte	W96
	.byte	W96
	.byte	W96
	.byte	W96
	.byte	W96
	.byte	W96
	.byte	W96
	.byte	W96
song044_10_1:
	.byte		N04	, Dn4, v104
	.byte	W06
	.byte		N12	, Dn4, v116
	.byte	W12
	.byte		N04	, Dn4, v104
	.byte	W06
	.byte		N10	, As3
	.byte	W12
	.byte		N04	, Dn4
	.byte	W06
	.byte			As3
	.byte	W06
	.byte			Gn3, v116
	.byte	W06
	.byte			An3, v104
	.byte	W06
	.byte			As3
	.byte	W06
	.byte			As3, v116
	.byte	W06
	.byte			Ds4
	.byte	W06
	.byte			Dn4, v104
	.byte	W06
	.byte			Cn4, v116
	.byte	W06
	.byte			As3, v104
	.byte	W06
	.byte	PEND
song044_10_5:
	.byte		N04	, Dn4, v104
	.byte	W06
	.byte		N12	, As3, v116
	.byte	W12
	.byte		N04	, As3, v104
	.byte	W06
	.byte			Dn4
	.byte	W06
	.byte			As3
	.byte	W06
	.byte			Fn4
	.byte	W06
	.byte		N12	, Dn4, v116
	.byte	W12
	.byte		N10	, Fs4, v124
	.byte	W12
	.byte		N04	, Dn4, v104
	.byte	W06
	.byte		N06	, An4, v116
	.byte	W06
	.byte			Fs4, v112
	.byte	W06
	.byte			Ds4, v104
	.byte	W06
	.byte			Dn4, v100
	.byte	W06
	.byte	PEND
	.byte	PATT	
		mPtr	song044_10_1
	.byte		N04	, Dn4, v104
	.byte	W06
	.byte		N12	, As3, v116
	.byte	W12
	.byte		N04	, As3, v104
	.byte	W06
	.byte			Dn4
	.byte	W06
	.byte			As3
	.byte	W06
	.byte			Fn4
	.byte	W06
	.byte		N12	, Dn4, v116
	.byte	W12
	.byte		N10	, Fs4, v124
	.byte	W12
	.byte		N04	, Dn4, v104
	.byte	W06
	.byte		N06	, An4, v116
	.byte	W06
	.byte			Fs4, v112
	.byte	W06
	.byte			Ds4, v104
	.byte	W06
	.byte		N05	, Dn4, v100
	.byte	W05
	.byte	VOICE	, 34
	.byte	PAN	, c_v+30
	.byte	W01
song044_10_2:
	.byte		N01	, Fs3, v044
	.byte	W12
	.byte			Gn3, v056
	.byte	W12
	.byte			An3, v064
	.byte	W12
	.byte			Dn4, v076
	.byte	W12
	.byte			Fs4, v064
	.byte	W12
	.byte			An4, v076
	.byte	W12
	.byte			Fs4, v064
	.byte	W12
	.byte			Dn4, v076
	.byte	W12
	.byte	PEND
	.byte	PATT	
		mPtr	song044_10_2
song044_10_3:
	.byte		N01	, Gn3, v044
	.byte	W12
	.byte			An3, v056
	.byte	W12
	.byte			As3, v064
	.byte	W12
	.byte			Dn4, v076
	.byte	W12
	.byte			Gn4, v064
	.byte	W12
	.byte			As4, v076
	.byte	W12
	.byte			Gn4, v064
	.byte	W12
	.byte			Dn4, v076
	.byte	W12
	.byte	PEND
	.byte	PATT	
		mPtr	song044_10_3
	.byte	PATT	
		mPtr	song044_10_3
	.byte		N01	, Fn3, v044
	.byte	W06
	.byte			An3, v060
	.byte	W06
	.byte			Fn4, v076
	.byte	W24
	.byte			Ds4
	.byte	W24
	.byte			Dn4, v064
	.byte	W06
	.byte			Gn4, v076
	.byte	W18
	.byte			Ds4
	.byte	W12
	.byte			Fn3, v044
	.byte	W12
	.byte			Gn3, v056
	.byte	W12
	.byte			An3, v064
	.byte	W12
	.byte			Cn4, v076
	.byte	W12
	.byte			Fn4, v064
	.byte	W12
	.byte			An4, v076
	.byte	W12
	.byte			Fn4, v064
	.byte	W12
	.byte			Dn4, v076
	.byte	W12
	.byte			Gn3, v044
	.byte	W12
	.byte			An3, v056
	.byte	W12
	.byte			As3, v064
	.byte	W12
	.byte			Dn4, v076
	.byte	W12
	.byte			Gn4, v064
	.byte	W12
	.byte			As4, v076
	.byte	W12
	.byte			Gn4, v064
	.byte	W12
	.byte			Dn4, v076
	.byte	W11
	.byte	VOICE	, 34
	.byte	PAN	, c_v+30
	.byte	W01
	.byte		N01	, Fs3, v044
	.byte	W06
	.byte			Dn3
	.byte	W06
	.byte			Gn3, v056
	.byte	W06
	.byte			Dn3
	.byte	W06
	.byte			An3, v064
	.byte	W06
	.byte			Dn3
	.byte	W06
	.byte			Dn4, v076
	.byte	W06
	.byte			Fs3
	.byte	W06
	.byte			Fs4, v064
	.byte	W06
	.byte			An3
	.byte	W06
	.byte			An4, v076
	.byte	W06
	.byte			Cn4
	.byte	W06
	.byte			Fs4, v064
	.byte	W06
	.byte			An3
	.byte	W06
	.byte			Dn4, v076
	.byte	W06
	.byte			Fs3
	.byte	W06
	.byte			Fs3, v044
	.byte	W06
	.byte			Dn3
	.byte	W06
	.byte			An3, v056
	.byte	W06
	.byte			Dn3
	.byte	W06
	.byte			Cn4, v064
	.byte	W06
	.byte			Dn3
	.byte	W06
	.byte			Ds4, v076
	.byte	W06
	.byte			Fs3
	.byte	W06
	.byte			Fs4, v064
	.byte	W06
	.byte			An3
	.byte	W06
	.byte			An4, v076
	.byte	W06
	.byte			Cn4
	.byte	W06
	.byte			Fs4, v064
	.byte	W06
	.byte			An3
	.byte	W06
	.byte			Ds4, v076
	.byte	W06
	.byte			Fs3
	.byte	W06
	.byte			Gn3, v044
	.byte	W06
	.byte			Dn3
	.byte	W06
	.byte			An3, v056
	.byte	W06
	.byte			Dn3
	.byte	W06
	.byte			As3, v064
	.byte	W06
	.byte			Dn3
	.byte	W06
	.byte			Dn4, v076
	.byte	W06
	.byte			Gn3
	.byte	W06
	.byte			Gn4, v064
	.byte	W06
	.byte			As3
	.byte	W06
	.byte			As4, v076
	.byte	W06
	.byte			Dn4
	.byte	W06
	.byte			Gn4, v064
	.byte	W06
	.byte			As3
	.byte	W06
	.byte			Dn4, v076
	.byte	W06
	.byte			Gn3
	.byte	W06
	.byte			Gn3, v044
	.byte	W06
	.byte			Dn3
	.byte	W06
	.byte			An3, v056
	.byte	W06
	.byte			Dn3
	.byte	W06
	.byte			As3, v064
	.byte	W06
	.byte			Dn3
	.byte	W06
	.byte			Dn4, v076
	.byte	W06
	.byte			Gn3
	.byte	W06
	.byte			Fn3, v044
	.byte	W04
	.byte			Gn3, v056
	.byte	W04
	.byte			An3, v076
	.byte	W04
	.byte			Gn3, v044
	.byte	W04
	.byte			An3, v064
	.byte	W04
	.byte			As3, v084
	.byte	W04
	.byte			Gn3, v044
	.byte	W04
	.byte			As3, v056
	.byte	W04
	.byte			Dn4, v064
	.byte	W04
	.byte			Fn4, v076
	.byte	W04
	.byte			Gn4, v084
	.byte	W04
	.byte			As4, v096
	.byte	W04
	.byte			Bn4, v084
	.byte	W06
	.byte			Dn4
	.byte	W06
	.byte			Fs4, v064
	.byte	W06
	.byte			Fs3
	.byte	W06
	.byte			Dn4, v056
	.byte	W06
	.byte			Fs3
	.byte	W06
	.byte			Bn4, v084
	.byte	W06
	.byte			Dn4
	.byte	W06
	.byte			Fs4, v064
	.byte	W06
	.byte			Fs3
	.byte	W06
	.byte			Dn4, v056
	.byte	W06
	.byte			Fs3
	.byte	W06
	.byte			Bn4, v084
	.byte	W06
	.byte			Dn4
	.byte	W06
	.byte			Fs4, v064
	.byte	W06
	.byte			Fs3
	.byte	W06
	.byte			Gs3, v044
	.byte	W06
	.byte			Bn3, v060
	.byte	W06
	.byte			Fs4, v076
	.byte	W06
	.byte			Gs3, v044
	.byte	W06
	.byte			En3
	.byte	W06
	.byte			Bn2
	.byte	W06
	.byte			Dn4, v076
	.byte	W06
	.byte			Gs3, v044
	.byte	W06
	.byte			En3
	.byte	W06
	.byte			Bn2
	.byte	W06
	.byte			Bn3, v064
	.byte	W06
	.byte			Gs4, v076
	.byte	W06
	.byte			Gs3, v044
	.byte	W06
	.byte			En3
	.byte	W06
	.byte			Dn4, v076
	.byte	W06
	.byte			Gs4, v044
	.byte	W06
	.byte			An4, v084
	.byte	W06
	.byte			Cs4
	.byte	W06
	.byte			En4, v064
	.byte	W06
	.byte			Gn3
	.byte	W06
	.byte			Cs4, v056
	.byte	W06
	.byte			Gn3
	.byte	W06
	.byte			An4, v084
	.byte	W06
	.byte			Cs4
	.byte	W06
	.byte			En4, v064
	.byte	W06
	.byte			Gn3
	.byte	W06
	.byte			Cs4, v056
	.byte	W06
	.byte			Gn3
	.byte	W06
	.byte			An4, v084
	.byte	W06
	.byte			Cs4
	.byte	W06
	.byte			En4, v064
	.byte	W06
	.byte			Gn3
	.byte	W06
	.byte			As4, v084
	.byte	W06
	.byte			Cs4
	.byte	W06
	.byte			Fn4, v064
	.byte	W06
	.byte			Gn3
	.byte	W06
	.byte			Cs4, v056
	.byte	W06
	.byte			Gn3
	.byte	W06
	.byte			As4, v084
	.byte	W06
	.byte			Cs4
	.byte	W06
	.byte			En3, v044
	.byte	W04
	.byte			Gn3, v056
	.byte	W04
	.byte			As3, v076
	.byte	W04
	.byte			Gn3, v044
	.byte	W04
	.byte			As3, v064
	.byte	W04
	.byte			Cs4, v084
	.byte	W04
	.byte			Gn3, v044
	.byte	W04
	.byte			As3, v056
	.byte	W04
	.byte			Cs4, v064
	.byte	W04
	.byte			En4, v076
	.byte	W04
	.byte			Gn4, v084
	.byte	W04
	.byte			As4, v096
	.byte	W04
	.byte	VOICE	, 39
	.byte	PAN	, c_v
	.byte		N06	, Fn3, v084
	.byte	W12
	.byte		N12	, Fn4, v104
	.byte	W18
	.byte		N06	, Fn3, v084
	.byte	W06
	.byte		N12	, Cn4, v104
	.byte	W12
	.byte		N06	, Gs3, v116
	.byte	W06
	.byte			Gn3, v096
	.byte	W06
	.byte			Fn3, v076
	.byte	W06
	.byte			Gn3, v096
	.byte	W06
	.byte			Gs3
	.byte	W06
	.byte			As3
	.byte	W06
	.byte			Cn4, v104
	.byte	W06
	.byte			Fn4, v112
	.byte	W06
	.byte			Gn3, v084
	.byte	W12
	.byte		N12	, Gn4, v104
	.byte	W18
	.byte		N06	, Gn3, v084
	.byte	W06
	.byte		N12	, Dn4, v104
	.byte	W12
	.byte		N06	, As3, v116
	.byte	W06
	.byte			An3, v096
	.byte	W06
	.byte			Gn3, v076
	.byte	W06
	.byte			An3, v096
	.byte	W06
	.byte			As3
	.byte	W06
	.byte			Cn4
	.byte	W06
	.byte			Dn4, v104
	.byte	W06
	.byte			Gn4, v112
	.byte	W06
	.byte			Gn3, v084
	.byte	W06
	.byte		N12	, Gn4, v104
	.byte	W12
	.byte		N06	, Dn4, v084
	.byte	W06
	.byte		N04	, Gs4, v116
	.byte	W06
	.byte			Dn4, v084
	.byte	W06
	.byte		N06	, Gn3
	.byte	W06
	.byte		N12	, Gn4, v104
	.byte	W12
	.byte		N06	, Dn4, v084
	.byte	W06
	.byte		N04	, Gs4, v116
	.byte	W06
	.byte			Dn4, v084
	.byte	W06
	.byte		N06	, Gn3
	.byte	W06
	.byte			Dn4
	.byte	W06
	.byte			Gn4, v104
	.byte	W06
	.byte		N04	, Gs4, v116
	.byte	W06
	.byte		N12	, As4, v112
	.byte	W12
	.byte		N06	, Gs4, v104
	.byte	W06
	.byte			Gn4, v100
	.byte	W06
	.byte			Gs4, v112
	.byte	W06
	.byte			Gn4, v104
	.byte	W06
	.byte			Fn4, v100
	.byte	W06
	.byte		N10	, Dn4, v096
	.byte	W12
	.byte		N04	
	.byte	W06
	.byte			Bn3, v084
	.byte	W06
	.byte			Dn4, v096
	.byte	W06
	.byte			Gs3, v084
	.byte	W06
	.byte			Bn3, v092
	.byte	W06
	.byte			Dn4, v096
	.byte	W06
	.byte			Gn4, v100
	.byte	W06
	.byte		N06	, An3, v084
	.byte	W12
	.byte		N12	, An4, v104
	.byte	W18
	.byte		N06	, An3, v084
	.byte	W06
	.byte		N12	, En4, v104
	.byte	W12
	.byte		N06	, Cn4, v116
	.byte	W06
	.byte			Bn3, v096
	.byte	W06
	.byte			An3, v076
	.byte	W06
	.byte			Bn3, v096
	.byte	W06
	.byte			Cn4
	.byte	W06
	.byte			Dn4
	.byte	W06
	.byte			En4, v104
	.byte	W06
	.byte			An4, v112
	.byte	W06
	.byte			As3, v084
	.byte	W12
	.byte		N12	, As4, v104
	.byte	W18
	.byte		N06	, As3, v084
	.byte	W06
	.byte		N12	, Fn4, v104
	.byte	W12
	.byte		N06	, Cs4, v116
	.byte	W06
	.byte			Cn4, v096
	.byte	W06
	.byte			As3, v076
	.byte	W06
	.byte			Cn4, v096
	.byte	W06
	.byte			Cs4
	.byte	W06
	.byte			Ds4
	.byte	W06
	.byte			Fn4, v104
	.byte	W06
	.byte			As4, v112
	.byte	W06
	.byte			Bn3, v084
	.byte	W06
	.byte		N12	, Bn4, v104
	.byte	W12
	.byte		N06	, Fs4, v084
	.byte	W06
	.byte		N04	, Cs5, v116
	.byte	W06
	.byte			Fs4, v084
	.byte	W06
	.byte		N06	, Bn3
	.byte	W06
	.byte		N12	, Bn4, v104
	.byte	W12
	.byte		N06	, Fs4, v084
	.byte	W06
	.byte		N04	, Cs5, v116
	.byte	W06
	.byte			Fs4, v084
	.byte	W06
	.byte		N06	, Bn3
	.byte	W06
	.byte			Fs4
	.byte	W06
	.byte			Bn4, v104
	.byte	W06
	.byte		N04	, Cs5, v116
	.byte	W06
	.byte		N12	, Ds5, v112
	.byte	W12
	.byte		N06	, Cs5, v104
	.byte	W06
	.byte			Bn4, v100
	.byte	W06
	.byte			Cs5, v112
	.byte	W06
	.byte			Bn4, v104
	.byte	W06
	.byte			Gs4, v100
	.byte	W06
	.byte		N10	, Fs4, v096
	.byte	W12
	.byte		N04	
	.byte	W06
	.byte			Ds4, v084
	.byte	W06
	.byte			Fs4, v096
	.byte	W06
	.byte			Cs4, v084
	.byte	W06
	.byte			Ds4, v092
	.byte	W06
	.byte			Fs4, v096
	.byte	W06
	.byte			Bn4, v100
	.byte	W06
	.byte	PAN	, c_v-24
	.byte		N06	, Fn3, v096
	.byte	W12
	.byte		N12	, Fn4, v116
	.byte	W18
	.byte		N06	, Fn3, v096
	.byte	W06
	.byte		N12	, Cn4, v116
	.byte	W12
	.byte		N06	, Gs3, v124
	.byte	W06
	.byte			Gn3, v104
	.byte	W06
	.byte			Fn3, v084
	.byte	W06
	.byte			Gn3, v104
	.byte	W06
	.byte			Gs3
	.byte	W06
	.byte			As3
	.byte	W06
	.byte			Cn4, v116
	.byte	W06
	.byte			Fn4, v120
	.byte	W06
	.byte	PATT	
		mPtr	song044_10_4
	.byte		N06	, Gn3, v096
	.byte	W06
	.byte		N12	, Gn4, v116
	.byte	W12
	.byte		N06	, Dn4, v096
	.byte	W06
	.byte		N04	, Gs4, v124
	.byte	W06
	.byte			Dn4, v096
	.byte	W06
	.byte		N06	, Gn3
	.byte	W06
	.byte		N12	, Gn4, v116
	.byte	W12
	.byte		N06	, Dn4, v096
	.byte	W06
	.byte		N04	, Gs4, v124
	.byte	W06
	.byte			Dn4, v096
	.byte	W06
	.byte		N06	, Gn3
	.byte	W06
	.byte			Dn4
	.byte	W06
	.byte			Gn4, v116
	.byte	W06
	.byte		N04	, Gs4, v124
	.byte	W06
	.byte		N12	, As4, v120
	.byte	W12
	.byte		N06	, Gs4, v116
	.byte	W06
	.byte			Gn4, v112
	.byte	W06
	.byte			Gs4, v120
	.byte	W06
	.byte			Gn4, v116
	.byte	W06
	.byte			Fn4, v112
	.byte	W06
	.byte		N10	, Dn4, v104
	.byte	W12
	.byte		N04	
	.byte	W06
	.byte			Bn3, v096
	.byte	W06
	.byte			Dn4, v104
	.byte	W06
	.byte			Gs3, v096
	.byte	W06
	.byte			Bn3, v100
	.byte	W06
	.byte			Dn4, v104
	.byte	W06
	.byte			Gn4, v112
	.byte	W06
	.byte		N06	, An3, v096
	.byte	W12
	.byte		N12	, An4, v116
	.byte	W18
	.byte		N06	, An3, v096
	.byte	W06
	.byte		N12	, En4, v116
	.byte	W12
	.byte		N06	, Cn4, v124
	.byte	W06
	.byte			Bn3, v104
	.byte	W06
	.byte			An3, v084
	.byte	W06
	.byte			Bn3, v104
	.byte	W06
	.byte			Cn4
	.byte	W06
	.byte			Dn4
	.byte	W06
	.byte			En4, v116
	.byte	W06
	.byte			An4, v120
	.byte	W06
	.byte			As3, v096
	.byte	W12
	.byte		N12	, As4, v116
	.byte	W18
	.byte		N06	, As3, v096
	.byte	W06
	.byte		N12	, Fn4, v116
	.byte	W12
	.byte		N06	, Cs4, v124
	.byte	W06
	.byte			Cn4, v104
	.byte	W06
	.byte			As3, v084
	.byte	W06
	.byte			Cn4, v104
	.byte	W06
	.byte			Cs4
	.byte	W06
	.byte			Ds4
	.byte	W06
	.byte			Fn4, v116
	.byte	W06
	.byte			As4, v120
	.byte	W06
	.byte			Bn3, v096
	.byte	W06
	.byte		N12	, Bn4, v116
	.byte	W12
	.byte		N06	, Fs4, v096
	.byte	W06
	.byte		N04	, Cs5, v124
	.byte	W06
	.byte			Fs4, v096
	.byte	W06
	.byte		N06	, Bn3
	.byte	W06
	.byte		N12	, Bn4, v116
	.byte	W12
	.byte		N06	, Fs4, v096
	.byte	W06
	.byte		N04	, Cs5, v124
	.byte	W06
	.byte			Fs4, v096
	.byte	W06
	.byte		N06	, Bn3
	.byte	W06
	.byte			Fs4
	.byte	W06
	.byte			Bn4, v116
	.byte	W06
	.byte		N04	, Cs5, v124
	.byte	W06
	.byte		N12	, Ds5, v120
	.byte	W12
	.byte		N06	, Cs5, v116
	.byte	W06
	.byte			Bn4, v112
	.byte	W06
	.byte			Cs5, v120
	.byte	W06
	.byte			Bn4, v116
	.byte	W06
	.byte			Gs4, v112
	.byte	W06
	.byte		N10	, Fs4, v104
	.byte	W12
	.byte		N04	
	.byte	W06
	.byte			Ds4, v096
	.byte	W06
	.byte			Fs4, v104
	.byte	W06
	.byte			Cs4, v096
	.byte	W06
	.byte			Ds4, v100
	.byte	W06
	.byte			Fs4, v104
	.byte	W06
	.byte			Bn4, v112
	.byte	W05
	.byte	PAN	, c_v
	.byte	W01
	.byte	PATT	
		mPtr	song044_10_1
	.byte	PATT	
		mPtr	song044_10_5
	.byte	PATT	
		mPtr	song044_10_1
song044_10_6:
	.byte		N04	, Dn4, v104
	.byte	W06
	.byte		N12	, As3, v116
	.byte	W12
	.byte		N04	, As3, v104
	.byte	W06
	.byte			Dn4
	.byte	W06
	.byte			As3
	.byte	W06
	.byte			Fn4
	.byte	W06
	.byte		N12	, Dn4, v116
	.byte	W12
	.byte		N10	, Fs4, v124
	.byte	W12
	.byte		N04	, Dn4, v104
	.byte	W06
	.byte		N06	, An4, v116
	.byte	W06
	.byte			Fs4, v112
	.byte	W06
	.byte			Ds4, v104
	.byte	W06
	.byte		N05	, Dn4, v100
	.byte	W06
	.byte	PEND
	.byte	PATT	
		mPtr	song044_10_1
	.byte	PATT	
		mPtr	song044_10_5
	.byte	PATT	
		mPtr	song044_10_1
	.byte	PATT	
		mPtr	song044_10_6
	.byte	GOTO	
		mPtr	song044_10_4
	.byte	FINE

	@********************** Track  11 **********************@

	.global song044_11
song044_11:	@ 0x0828978D
	.byte	KEYSH	, 0
	.byte	VOICE	, 40
	.byte	VOL	, v038
	.byte	PAN	, c_v
	.byte	TUNE	, c_v
	.byte	W96
	.byte	W96
	.byte	W96
	.byte	W96
song044_11_5:
	.byte	W96
	.byte	W96
	.byte	W96
	.byte	W96
	.byte		N06	, Gn3, v096
	.byte	W12
	.byte		N12	, Gn4, v116
	.byte	W18
	.byte		N06	, Gn3, v096
	.byte	W06
	.byte		N12	, Dn4, v116
	.byte	W12
	.byte		N06	, As3, v124
	.byte	W06
	.byte			An3, v104
	.byte	W06
	.byte			Gn3, v084
	.byte	W06
	.byte			An3, v104
	.byte	W06
	.byte			As3
	.byte	W06
	.byte			Cn4
	.byte	W06
	.byte			Dn4, v116
	.byte	W06
	.byte			Gn4, v120
	.byte	W06
	.byte			Fs3, v096
	.byte	W12
	.byte		N12	, Fs4, v116
	.byte	W18
	.byte		N06	, Fs3, v096
	.byte	W06
	.byte		N12	, Dn4, v116
	.byte	W12
	.byte		N06	, As3, v124
	.byte	W06
	.byte			An3, v104
	.byte	W06
	.byte			Fs3, v084
	.byte	W06
	.byte			An3, v104
	.byte	W06
	.byte			As3
	.byte	W06
	.byte			Cn4
	.byte	W06
	.byte			Dn4, v116
	.byte	W06
	.byte			Fs4, v120
	.byte	W06
	.byte			Fn3, v096
	.byte	W12
	.byte		N12	, Fn4, v116
	.byte	W18
	.byte		N06	, Fn3, v096
	.byte	W06
	.byte		N12	, Dn4, v116
	.byte	W12
	.byte		N06	, As3, v124
	.byte	W06
	.byte			An3, v104
	.byte	W06
	.byte			Fn3, v084
	.byte	W06
	.byte			An3, v104
	.byte	W06
	.byte			As3
	.byte	W06
	.byte			Cn4
	.byte	W06
	.byte			Dn4, v116
	.byte	W06
	.byte			Fn4, v120
	.byte	W06
	.byte		N12	, As4
	.byte	W12
	.byte		N06	, An4, v116
	.byte	W06
	.byte			Gn4, v112
	.byte	W12
	.byte			As4, v120
	.byte	W06
	.byte			En4, v112
	.byte	W12
	.byte		N04	, Dn4, v100
	.byte	W04
	.byte			En4, v112
	.byte	W04
	.byte			Dn5, v120
	.byte	W04
	.byte			Cn4, v100
	.byte	W04
	.byte			En4, v112
	.byte	W04
	.byte			Cn5, v120
	.byte	W04
	.byte			As3, v100
	.byte	W04
	.byte			En4, v112
	.byte	W04
	.byte			As4, v120
	.byte	W04
	.byte			Cn4, v100
	.byte	W04
	.byte			En4, v112
	.byte	W04
	.byte			Cn5, v120
	.byte	W04
	.byte	W96
	.byte	W96
	.byte	W96
	.byte	W96
	.byte	W96
	.byte	W96
	.byte	W96
	.byte	W96
	.byte	W96
	.byte	W96
	.byte	W96
	.byte	W96
	.byte	W96
	.byte	W96
	.byte	W96
	.byte	W96
	.byte	W96
	.byte	W96
	.byte	W96
song044_11_1:
	.byte		N04	, As3, v104
	.byte	W06
	.byte		N12	, As3, v116
	.byte	W12
	.byte		N04	, As3, v104
	.byte	W06
	.byte		N10	, Gn3
	.byte	W12
	.byte		N04	, As3
	.byte	W06
	.byte			Gn3
	.byte	W06
	.byte			Dn3, v116
	.byte	W06
	.byte			Ds3, v104
	.byte	W06
	.byte			Fn3
	.byte	W06
	.byte			Fn3, v116
	.byte	W06
	.byte			As3
	.byte	W06
	.byte			An3, v104
	.byte	W06
	.byte			Gn3, v116
	.byte	W06
	.byte			Fn3, v104
	.byte	W06
	.byte	PEND
song044_11_3:
	.byte		N04	, As3, v104
	.byte	W06
	.byte		N12	, Gn3, v116
	.byte	W12
	.byte		N04	, Gn3, v104
	.byte	W06
	.byte			As3
	.byte	W06
	.byte			Gn3
	.byte	W06
	.byte			Cs4
	.byte	W06
	.byte		N12	, As3, v116
	.byte	W12
	.byte		N10	, Dn4, v124
	.byte	W12
	.byte		N04	, As3, v104
	.byte	W06
	.byte		N06	, Fs4, v116
	.byte	W06
	.byte			Dn4, v112
	.byte	W06
	.byte			Cn4, v104
	.byte	W06
	.byte			As3, v100
	.byte	W06
	.byte	PEND
	.byte	PATT	
		mPtr	song044_11_1
song044_11_4:
	.byte		N04	, As3, v104
	.byte	W06
	.byte		N12	, Gn3, v116
	.byte	W12
	.byte		N04	, Gn3, v104
	.byte	W06
	.byte			As3
	.byte	W06
	.byte			Gn3
	.byte	W06
	.byte			Cs4
	.byte	W06
	.byte		N12	, As3, v116
	.byte	W12
	.byte		N10	, Dn4, v124
	.byte	W12
	.byte		N04	, As3, v104
	.byte	W06
	.byte		N06	, Fs4, v116
	.byte	W06
	.byte			Dn4, v112
	.byte	W06
	.byte			Cn4, v104
	.byte	W06
	.byte		N05	, As3, v100
	.byte	W06
	.byte	PEND
	.byte	W02
	.byte	VOICE	, 36
	.byte	PAN	, c_v
	.byte	TUNE	, c_v-10
	.byte	W01
	.byte		N01	, Fs3, v044
	.byte	W12
	.byte			Gn3, v056
	.byte	W12
	.byte			An3, v064
	.byte	W12
	.byte			Dn4, v076
	.byte	W12
	.byte			Fs4, v064
	.byte	W12
	.byte			An4, v076
	.byte	W12
	.byte			Fs4, v064
	.byte	W12
	.byte			Dn4, v076
	.byte	W09
	.byte	W03
	.byte			Fs3, v044
	.byte	W12
	.byte			Gn3, v056
	.byte	W12
	.byte			An3, v064
	.byte	W12
	.byte			Dn4, v076
	.byte	W12
	.byte			Fs4, v064
	.byte	W12
	.byte			An4, v076
	.byte	W12
	.byte			Fs4, v064
	.byte	W12
	.byte			Dn4, v076
	.byte	W09
song044_11_2:
	.byte	W03
	.byte		N01	, Gn3, v044
	.byte	W12
	.byte			An3, v056
	.byte	W12
	.byte			As3, v064
	.byte	W12
	.byte			Dn4, v076
	.byte	W12
	.byte			Gn4, v064
	.byte	W12
	.byte			As4, v076
	.byte	W12
	.byte			Gn4, v064
	.byte	W12
	.byte			Dn4, v076
	.byte	W09
	.byte	PEND
	.byte	PATT	
		mPtr	song044_11_2
	.byte	PATT	
		mPtr	song044_11_2
	.byte	W03
	.byte		N01	, Fn3, v044
	.byte	W06
	.byte			An3, v060
	.byte	W06
	.byte			Fn4, v076
	.byte	W24
	.byte			Ds4
	.byte	W24
	.byte			Dn4, v064
	.byte	W06
	.byte			Gn4, v076
	.byte	W18
	.byte			Ds4
	.byte	W09
	.byte	W03
	.byte			Fn3, v044
	.byte	W12
	.byte			Gn3, v056
	.byte	W12
	.byte			An3, v064
	.byte	W12
	.byte			Cn4, v076
	.byte	W12
	.byte			Fn4, v064
	.byte	W12
	.byte			An4, v076
	.byte	W12
	.byte			Fn4, v064
	.byte	W12
	.byte			Dn4, v076
	.byte	W09
	.byte	PATT	
		mPtr	song044_11_2
	.byte	W02
	.byte	VOICE	, 36
	.byte	PAN	, c_v
	.byte	TUNE	, c_v-10
	.byte	W01
	.byte		N01	, Fs3, v044
	.byte	W06
	.byte			Dn3
	.byte	W06
	.byte			Gn3, v056
	.byte	W06
	.byte			Dn3
	.byte	W06
	.byte			An3, v064
	.byte	W06
	.byte			Dn3
	.byte	W06
	.byte			Dn4, v076
	.byte	W06
	.byte			Fs3
	.byte	W06
	.byte			Fs4, v064
	.byte	W06
	.byte			An3
	.byte	W06
	.byte			An4, v076
	.byte	W06
	.byte			Cn4
	.byte	W06
	.byte			Fs4, v064
	.byte	W06
	.byte			An3
	.byte	W06
	.byte			Dn4, v076
	.byte	W06
	.byte			Fs3
	.byte	W03
	.byte	W03
	.byte			Fs3, v044
	.byte	W06
	.byte			Dn3
	.byte	W06
	.byte			An3, v056
	.byte	W06
	.byte			Dn3
	.byte	W06
	.byte			Cn4, v064
	.byte	W06
	.byte			Dn3
	.byte	W06
	.byte			Ds4, v076
	.byte	W06
	.byte			Fs3
	.byte	W06
	.byte			Fs4, v064
	.byte	W06
	.byte			An3
	.byte	W06
	.byte			An4, v076
	.byte	W06
	.byte			Cn4
	.byte	W06
	.byte			Fs4, v064
	.byte	W06
	.byte			An3
	.byte	W06
	.byte			Ds4, v076
	.byte	W06
	.byte			Fs3
	.byte	W03
	.byte	W03
	.byte			Gn3, v044
	.byte	W06
	.byte			Dn3
	.byte	W06
	.byte			An3, v056
	.byte	W06
	.byte			Dn3
	.byte	W06
	.byte			As3, v064
	.byte	W06
	.byte			Dn3
	.byte	W06
	.byte			Dn4, v076
	.byte	W06
	.byte			Gn3
	.byte	W06
	.byte			Gn4, v064
	.byte	W06
	.byte			As3
	.byte	W06
	.byte			As4, v076
	.byte	W06
	.byte			Dn4
	.byte	W06
	.byte			Gn4, v064
	.byte	W06
	.byte			As3
	.byte	W06
	.byte			Dn4, v076
	.byte	W06
	.byte			Gn3
	.byte	W03
	.byte	W03
	.byte			Gn3, v044
	.byte	W06
	.byte			Dn3
	.byte	W06
	.byte			An3, v056
	.byte	W06
	.byte			Dn3
	.byte	W06
	.byte			As3, v064
	.byte	W06
	.byte			Dn3
	.byte	W06
	.byte			Dn4, v076
	.byte	W06
	.byte			Gn3
	.byte	W06
	.byte			Fn3, v044
	.byte	W04
	.byte			Gn3, v056
	.byte	W04
	.byte			An3, v076
	.byte	W04
	.byte			Gn3, v044
	.byte	W04
	.byte			An3, v064
	.byte	W04
	.byte			As3, v084
	.byte	W04
	.byte			Gn3, v044
	.byte	W04
	.byte			As3, v056
	.byte	W04
	.byte			Dn4, v064
	.byte	W04
	.byte			Fn4, v076
	.byte	W04
	.byte			Gn4, v084
	.byte	W04
	.byte			As4, v096
	.byte	W01
	.byte	W03
	.byte			Bn4, v084
	.byte	W06
	.byte			Dn4
	.byte	W06
	.byte			Fs4, v064
	.byte	W06
	.byte			Fs3
	.byte	W06
	.byte			Dn4, v056
	.byte	W06
	.byte			Fs3
	.byte	W06
	.byte			Bn4, v084
	.byte	W06
	.byte			Dn4
	.byte	W06
	.byte			Fs4, v064
	.byte	W06
	.byte			Fs3
	.byte	W06
	.byte			Dn4, v056
	.byte	W06
	.byte			Fs3
	.byte	W06
	.byte			Bn4, v084
	.byte	W06
	.byte			Dn4
	.byte	W06
	.byte			Fs4, v064
	.byte	W06
	.byte			Fs3
	.byte	W03
	.byte	W03
	.byte			Gs3, v044
	.byte	W06
	.byte			Bn3, v060
	.byte	W06
	.byte			Fs4, v076
	.byte	W06
	.byte			Gs3, v044
	.byte	W06
	.byte			En3
	.byte	W06
	.byte			Bn2
	.byte	W06
	.byte			Dn4, v076
	.byte	W06
	.byte			Gs3, v044
	.byte	W06
	.byte			En3
	.byte	W06
	.byte			Bn2
	.byte	W06
	.byte			Bn3, v064
	.byte	W06
	.byte			Gs4, v076
	.byte	W06
	.byte			Gs3, v044
	.byte	W06
	.byte			En3
	.byte	W06
	.byte			Dn4, v076
	.byte	W06
	.byte			Gs4, v044
	.byte	W03
	.byte	W03
	.byte			An4, v084
	.byte	W06
	.byte			Cs4
	.byte	W06
	.byte			En4, v064
	.byte	W06
	.byte			Gn3
	.byte	W06
	.byte			Cs4, v056
	.byte	W06
	.byte			Gn3
	.byte	W06
	.byte			An4, v084
	.byte	W06
	.byte			Cs4
	.byte	W06
	.byte			En4, v064
	.byte	W06
	.byte			Gn3
	.byte	W06
	.byte			Cs4, v056
	.byte	W06
	.byte			Gn3
	.byte	W06
	.byte			An4, v084
	.byte	W06
	.byte			Cs4
	.byte	W06
	.byte			En4, v064
	.byte	W06
	.byte			Gn3
	.byte	W03
	.byte	W03
	.byte			As4, v084
	.byte	W06
	.byte			Cs4
	.byte	W06
	.byte			Fn4, v064
	.byte	W06
	.byte			Gn3
	.byte	W06
	.byte			Cs4, v056
	.byte	W06
	.byte			Gn3
	.byte	W06
	.byte			As4, v084
	.byte	W06
	.byte			Cs4
	.byte	W06
	.byte			En3, v044
	.byte	W04
	.byte			Gn3, v056
	.byte	W04
	.byte			As3, v076
	.byte	W04
	.byte			Gn3, v044
	.byte	W04
	.byte			As3, v064
	.byte	W04
	.byte			Cs4, v084
	.byte	W04
	.byte			Gn3, v044
	.byte	W04
	.byte			As3, v056
	.byte	W04
	.byte			Cs4, v064
	.byte	W04
	.byte			En4, v076
	.byte	W04
	.byte			Gn4, v084
	.byte	W04
	.byte			As4, v096
	.byte	W01
	.byte	W96
	.byte	W96
	.byte	W96
	.byte	W96
	.byte	W96
	.byte	W96
	.byte	W96
	.byte	W96
	.byte	VOICE	, 40
	.byte	PAN	, c_v+20
	.byte	TUNE	, c_v
	.byte		N06	, Cn3
	.byte	W12
	.byte		N12	, Cn4, v116
	.byte	W18
	.byte		N06	, Cn3, v096
	.byte	W06
	.byte		N12	, Gn3, v116
	.byte	W12
	.byte		N06	, Ds3, v124
	.byte	W06
	.byte			Dn3, v104
	.byte	W06
	.byte			Cn3, v084
	.byte	W06
	.byte			Dn3, v104
	.byte	W06
	.byte			Ds3
	.byte	W06
	.byte			Fn3
	.byte	W06
	.byte			Gn3, v116
	.byte	W06
	.byte			Cn4, v120
	.byte	W06
	.byte			Dn3, v096
	.byte	W12
	.byte		N12	, Dn4, v116
	.byte	W18
	.byte		N06	, Dn3, v096
	.byte	W06
	.byte		N12	, An3, v116
	.byte	W12
	.byte		N06	, Fn3, v124
	.byte	W06
	.byte			En3, v104
	.byte	W06
	.byte			Dn3, v084
	.byte	W06
	.byte			En3, v104
	.byte	W06
	.byte			Fn3
	.byte	W06
	.byte			Gn3
	.byte	W06
	.byte			An3, v116
	.byte	W06
	.byte			Dn4, v120
	.byte	W06
	.byte			Dn3, v096
	.byte	W06
	.byte		N12	, Dn4, v116
	.byte	W12
	.byte		N06	, Gn3, v096
	.byte	W06
	.byte		N04	, Fn4, v124
	.byte	W06
	.byte			Gn3, v096
	.byte	W06
	.byte		N06	, Dn3
	.byte	W06
	.byte		N12	, Dn4, v116
	.byte	W12
	.byte		N06	, Gn3, v096
	.byte	W06
	.byte		N04	, Fn4, v124
	.byte	W06
	.byte			Gn3, v096
	.byte	W06
	.byte		N06	, Dn3
	.byte	W06
	.byte			Gn3
	.byte	W06
	.byte			Dn4, v116
	.byte	W06
	.byte		N04	, Fn4, v124
	.byte	W06
	.byte		N12	, Gn4, v120
	.byte	W12
	.byte		N06	, Fn4, v116
	.byte	W06
	.byte			Dn4, v112
	.byte	W06
	.byte			Fn4, v120
	.byte	W06
	.byte			Dn4, v116
	.byte	W06
	.byte			Bn3, v112
	.byte	W06
	.byte		N10	, Gn3, v104
	.byte	W12
	.byte		N04	
	.byte	W06
	.byte			Fn3, v096
	.byte	W06
	.byte			Gn3, v104
	.byte	W06
	.byte			Dn3, v096
	.byte	W06
	.byte			Fn3, v100
	.byte	W06
	.byte			Gn3, v104
	.byte	W06
	.byte			Dn4, v112
	.byte	W06
	.byte		N06	, En3, v096
	.byte	W12
	.byte		N12	, En4, v116
	.byte	W18
	.byte		N06	, En3, v096
	.byte	W06
	.byte		N12	, Bn3, v116
	.byte	W12
	.byte		N06	, Gn3, v124
	.byte	W06
	.byte			Fs3, v104
	.byte	W06
	.byte			En3, v084
	.byte	W06
	.byte			Fs3, v104
	.byte	W06
	.byte			Gn3
	.byte	W06
	.byte			An3
	.byte	W06
	.byte			Bn3, v116
	.byte	W06
	.byte			En4, v120
	.byte	W06
	.byte			Fn3, v096
	.byte	W12
	.byte		N12	, Fn4, v116
	.byte	W18
	.byte		N06	, Fn3, v096
	.byte	W06
	.byte		N12	, Cn4, v116
	.byte	W12
	.byte		N06	, Gs3, v124
	.byte	W06
	.byte			Gn3, v104
	.byte	W06
	.byte			Fn3, v084
	.byte	W06
	.byte			Gn3, v104
	.byte	W06
	.byte			Gs3
	.byte	W06
	.byte			As3
	.byte	W06
	.byte			Cn4, v116
	.byte	W06
	.byte			Fn4, v120
	.byte	W06
	.byte			Fs3, v096
	.byte	W06
	.byte		N12	, Fs4, v116
	.byte	W12
	.byte		N06	, Cs4, v096
	.byte	W06
	.byte		N04	, Gs4, v124
	.byte	W06
	.byte			Cs4, v096
	.byte	W06
	.byte		N06	, Fs3
	.byte	W06
	.byte		N12	, Fs4, v116
	.byte	W12
	.byte		N06	, Cs4, v096
	.byte	W06
	.byte		N04	, Gs4, v124
	.byte	W06
	.byte			Cs4, v096
	.byte	W06
	.byte		N06	, Fs3
	.byte	W06
	.byte			Cs4
	.byte	W06
	.byte			Fs4, v116
	.byte	W06
	.byte		N04	, Gs4, v124
	.byte	W06
	.byte		N12	, As4, v120
	.byte	W12
	.byte		N06	, Gs4, v116
	.byte	W06
	.byte			Fs4, v112
	.byte	W06
	.byte			Gs4, v120
	.byte	W06
	.byte			Fs4, v116
	.byte	W06
	.byte			Ds4, v112
	.byte	W06
	.byte		N10	, Cs4, v104
	.byte	W12
	.byte		N04	
	.byte	W06
	.byte			As3, v096
	.byte	W06
	.byte			Cs4, v104
	.byte	W06
	.byte			Gs3, v096
	.byte	W06
	.byte			As3, v100
	.byte	W06
	.byte			Cs4, v104
	.byte	W06
	.byte			Fs4, v112
	.byte	W05
	.byte	PAN	, c_v
	.byte	W01
	.byte	PATT	
		mPtr	song044_11_1
	.byte	PATT	
		mPtr	song044_11_3
	.byte	PATT	
		mPtr	song044_11_1
	.byte	PATT	
		mPtr	song044_11_4
	.byte	PATT	
		mPtr	song044_11_1
	.byte	PATT	
		mPtr	song044_11_3
	.byte	PATT	
		mPtr	song044_11_1
	.byte	PATT	
		mPtr	song044_11_4
	.byte	GOTO	
		mPtr	song044_11_5
	.byte	FINE

	@********************** Track  12 **********************@

	.global song044_12
song044_12:	@ 0x08289C78
	.byte	KEYSH	, 0
	.byte	VOICE	, 89
	.byte	VOL	, v042
	.byte	W96
	.byte	W96
	.byte	W96
	.byte	W96
song044_12_1:
	.byte		N03	, Dn5, v104
	.byte	W06
	.byte			Dn5, v064
	.byte	W18
	.byte			Dn5, v104
	.byte	W06
	.byte			Dn5, v064
	.byte	W12
	.byte			Dn5, v096
	.byte	W06
	.byte			Dn5, v104
	.byte	W06
	.byte			Dn5, v064
	.byte	W18
	.byte			Dn5, v104
	.byte	W06
	.byte			Dn5, v064
	.byte	W12
	.byte			Dn5, v096
	.byte	W06
	.byte	PEND
	.byte	PATT	
		mPtr	song044_12_1
	.byte	PATT	
		mPtr	song044_12_1
song044_12_2:
	.byte		N03	, Dn5, v104
	.byte	W06
	.byte			Dn5, v064
	.byte	W18
	.byte			Dn5, v104
	.byte	W06
	.byte			Dn5, v064
	.byte	W06
	.byte		N02	, Dn5, v096
	.byte	W04
	.byte		N02	
	.byte	W04
	.byte		N02	
	.byte	W16
	.byte		N03	, Dn5, v104
	.byte	W06
	.byte			Dn5, v064
	.byte	W06
	.byte			Dn5, v104
	.byte	W06
	.byte			Dn5, v064
	.byte	W18
	.byte	PEND
	.byte	PATT	
		mPtr	song044_12_1
	.byte	PATT	
		mPtr	song044_12_1
	.byte	PATT	
		mPtr	song044_12_1
	.byte	PATT	
		mPtr	song044_12_2
	.byte	PATT	
		mPtr	song044_12_1
	.byte	PATT	
		mPtr	song044_12_1
	.byte	PATT	
		mPtr	song044_12_1
	.byte	PATT	
		mPtr	song044_12_2
	.byte	PATT	
		mPtr	song044_12_1
	.byte	PATT	
		mPtr	song044_12_1
	.byte	PATT	
		mPtr	song044_12_1
	.byte	PATT	
		mPtr	song044_12_2
	.byte	PATT	
		mPtr	song044_12_1
	.byte	PATT	
		mPtr	song044_12_1
	.byte	PATT	
		mPtr	song044_12_1
	.byte	PATT	
		mPtr	song044_12_2
	.byte	PATT	
		mPtr	song044_12_1
	.byte	PATT	
		mPtr	song044_12_1
	.byte	PATT	
		mPtr	song044_12_1
song044_12_3:
	.byte		N03	, Dn5, v104
	.byte	W06
	.byte			Dn5, v064
	.byte	W06
	.byte			Dn5, v104
	.byte	W06
	.byte			Dn5, v124
	.byte	W06
	.byte			Dn5, v084
	.byte	W06
	.byte			Dn5, v064
	.byte	W06
	.byte		N02	, Dn5, v096
	.byte	W04
	.byte		N02	
	.byte	W04
	.byte		N02	
	.byte	W04
	.byte		N03	, Dn5, v104
	.byte	W06
	.byte			Dn5, v064
	.byte	W06
	.byte			Dn5, v104
	.byte	W06
	.byte			Dn5, v124
	.byte	W06
	.byte			Dn5, v084
	.byte	W06
	.byte			Dn5, v064
	.byte	W06
	.byte		N02	, Dn5, v096
	.byte	W04
	.byte		N02	
	.byte	W04
	.byte		N02	
	.byte	W04
	.byte	PEND
	.byte	PATT	
		mPtr	song044_12_3
	.byte	PATT	
		mPtr	song044_12_3
song044_12_4:
	.byte		N03	, Dn5, v104
	.byte	W06
	.byte			Dn5, v084
	.byte	W06
	.byte			Dn5, v064
	.byte	W06
	.byte			Dn5, v116
	.byte	W06
	.byte			Dn5, v084
	.byte	W06
	.byte			Dn5, v064
	.byte	W06
	.byte			Dn5, v124
	.byte	W06
	.byte			Dn5, v084
	.byte	W06
	.byte		N02	, Dn5, v096
	.byte	W04
	.byte		N02	
	.byte	W04
	.byte		N02	
	.byte	W04
	.byte		N03	, Dn5, v104
	.byte	W06
	.byte			Dn5, v124
	.byte	W06
	.byte		N02	
	.byte	W06
	.byte		N03	
	.byte	W06
	.byte		N03	
	.byte	W06
	.byte		N03	
	.byte	W06
	.byte	PEND
song044_12_5:
	.byte		N03	, Dn5, v104
	.byte	W06
	.byte			Dn5, v064
	.byte	W18
	.byte			Dn5, v104
	.byte	W06
	.byte			Dn5, v064
	.byte	W18
	.byte			Dn5, v104
	.byte	W06
	.byte			Dn5, v064
	.byte	W18
	.byte			Dn5, v104
	.byte	W06
	.byte			Dn5, v064
	.byte	W18
	.byte	PEND
song044_12_6:
	.byte		N03	, Dn5, v104
	.byte	W06
	.byte			Dn5, v064
	.byte	W18
	.byte			Dn5, v104
	.byte	W06
	.byte			Dn5, v064
	.byte	W18
	.byte			Dn5, v104
	.byte	W06
	.byte			Dn5, v064
	.byte	W18
	.byte			Dn5, v104
	.byte	W06
	.byte			Dn5, v064
	.byte	W12
	.byte			Dn5, v096
	.byte	W06
	.byte	PEND
	.byte	PATT	
		mPtr	song044_12_1
	.byte	PATT	
		mPtr	song044_12_2
	.byte	W96
	.byte	W96
	.byte	W96
	.byte	W96
	.byte	W96
	.byte	W96
	.byte	W96
	.byte	W96
	.byte	PATT	
		mPtr	song044_12_3
	.byte	PATT	
		mPtr	song044_12_3
	.byte	PATT	
		mPtr	song044_12_3
	.byte	PATT	
		mPtr	song044_12_4
	.byte	PATT	
		mPtr	song044_12_5
	.byte	PATT	
		mPtr	song044_12_6
	.byte	PATT	
		mPtr	song044_12_1
	.byte		N03	, Dn5, v104
	.byte	W06
	.byte			Dn5, v064
	.byte	W18
	.byte			Dn5, v104
	.byte	W06
	.byte			Dn5, v064
	.byte	W06
	.byte		N02	, Dn5, v096
	.byte	W04
	.byte		N02	
	.byte	W04
	.byte		N02	
	.byte	W52
	.byte	PATT	
		mPtr	song044_12_1
	.byte	PATT	
		mPtr	song044_12_1
	.byte	PATT	
		mPtr	song044_12_1
	.byte	PATT	
		mPtr	song044_12_2
	.byte	PATT	
		mPtr	song044_12_1
	.byte	PATT	
		mPtr	song044_12_1
	.byte	PATT	
		mPtr	song044_12_1
	.byte	PATT	
		mPtr	song044_12_2
	.byte	PATT	
		mPtr	song044_12_1
	.byte	PATT	
		mPtr	song044_12_1
	.byte	PATT	
		mPtr	song044_12_1
	.byte	PATT	
		mPtr	song044_12_2
	.byte	PATT	
		mPtr	song044_12_1
	.byte	PATT	
		mPtr	song044_12_1
	.byte	PATT	
		mPtr	song044_12_1
	.byte	PATT	
		mPtr	song044_12_2
	.byte	PATT	
		mPtr	song044_12_5
	.byte	PATT	
		mPtr	song044_12_6
	.byte	PATT	
		mPtr	song044_12_1
	.byte	PATT	
		mPtr	song044_12_2
	.byte	PATT	
		mPtr	song044_12_5
	.byte	PATT	
		mPtr	song044_12_6
	.byte	PATT	
		mPtr	song044_12_1
	.byte	PATT	
		mPtr	song044_12_2
	.byte	GOTO	
		mPtr	song044_12_1
	.byte	FINE

	@********************** Track  13 **********************@

	.global song044_13
song044_13:	@ 0x08289E9F
	.byte	KEYSH	, 0
	.byte	VOICE	, 91
	.byte	VOL	, v042
	.byte	W96
	.byte	W96
	.byte	W96
	.byte	W96
song044_13_1:
	.byte	W12
	.byte		N11	, Dn5, v104
	.byte	W24
	.byte		N05	
	.byte	W24
	.byte		N11	
	.byte	W24
	.byte		N05	
	.byte	W12
	.byte	PEND
	.byte	PATT	
		mPtr	song044_13_1
	.byte	PATT	
		mPtr	song044_13_1
song044_13_2:
	.byte	W12
	.byte		N11	, Dn5, v104
	.byte	W24
	.byte		N05	
	.byte	W12
	.byte		N11	
	.byte	W36
	.byte		N11	
	.byte	W12
	.byte	PEND
	.byte	PATT	
		mPtr	song044_13_1
	.byte	PATT	
		mPtr	song044_13_1
	.byte	PATT	
		mPtr	song044_13_1
	.byte	PATT	
		mPtr	song044_13_2
	.byte	PATT	
		mPtr	song044_13_1
	.byte	PATT	
		mPtr	song044_13_1
	.byte	PATT	
		mPtr	song044_13_1
	.byte	PATT	
		mPtr	song044_13_2
	.byte	PATT	
		mPtr	song044_13_1
	.byte	PATT	
		mPtr	song044_13_1
	.byte	PATT	
		mPtr	song044_13_1
	.byte	PATT	
		mPtr	song044_13_2
	.byte	PATT	
		mPtr	song044_13_1
	.byte	PATT	
		mPtr	song044_13_1
	.byte	PATT	
		mPtr	song044_13_1
	.byte	PATT	
		mPtr	song044_13_2
	.byte	PATT	
		mPtr	song044_13_1
	.byte	PATT	
		mPtr	song044_13_1
	.byte	PATT	
		mPtr	song044_13_1
	.byte	W96
	.byte	W96
	.byte	W96
	.byte	W96
song044_13_3:
	.byte	W12
	.byte		N11	, Dn5, v104
	.byte	W24
	.byte		N11	
	.byte	W24
	.byte		N11	
	.byte	W24
	.byte		N11	
	.byte	W12
	.byte	PEND
song044_13_4:
	.byte	W12
	.byte		N11	, Dn5, v104
	.byte	W24
	.byte		N11	
	.byte	W24
	.byte		N11	
	.byte	W24
	.byte		N05	
	.byte	W12
	.byte	PEND
	.byte	PATT	
		mPtr	song044_13_3
	.byte	PATT	
		mPtr	song044_13_4
	.byte	W96
	.byte	W96
	.byte	W96
	.byte	W96
	.byte	W96
	.byte	W96
	.byte	W96
	.byte	W96
	.byte	W96
	.byte	W96
	.byte	W96
	.byte	W96
	.byte	PATT	
		mPtr	song044_13_3
	.byte	PATT	
		mPtr	song044_13_4
	.byte	PATT	
		mPtr	song044_13_3
	.byte	W12
	.byte		N11	, Dn5, v104
	.byte	W24
	.byte		N11	
	.byte	W60
	.byte	PATT	
		mPtr	song044_13_1
	.byte	PATT	
		mPtr	song044_13_1
	.byte	PATT	
		mPtr	song044_13_1
	.byte	PATT	
		mPtr	song044_13_2
	.byte	PATT	
		mPtr	song044_13_1
	.byte	PATT	
		mPtr	song044_13_1
	.byte	PATT	
		mPtr	song044_13_1
	.byte	PATT	
		mPtr	song044_13_2
	.byte	PATT	
		mPtr	song044_13_1
	.byte	PATT	
		mPtr	song044_13_1
	.byte	PATT	
		mPtr	song044_13_1
	.byte	PATT	
		mPtr	song044_13_2
	.byte	PATT	
		mPtr	song044_13_1
	.byte	PATT	
		mPtr	song044_13_1
	.byte	PATT	
		mPtr	song044_13_1
	.byte	PATT	
		mPtr	song044_13_2
	.byte	PATT	
		mPtr	song044_13_3
	.byte	PATT	
		mPtr	song044_13_4
	.byte	PATT	
		mPtr	song044_13_3
	.byte	PATT	
		mPtr	song044_13_4
	.byte	PATT	
		mPtr	song044_13_3
	.byte	PATT	
		mPtr	song044_13_4
	.byte	PATT	
		mPtr	song044_13_3
	.byte	PATT	
		mPtr	song044_13_4
	.byte	GOTO	
		mPtr	song044_13_1
	.byte	FINE
    
	mAlignWord
	.global song044
song044:	@ 0x08289FF0
	.byte	13		@ trackCount
	.byte	0		@ blockCount
	.byte	20		@ priority
	.byte	128		@ reverb

	mAlignWord
	mPtr	voicegroup016		@ voicegroup/tone

	mPtr	song044_1		@ track
	mPtr	song044_2		@ track
	mPtr	song044_3		@ track
	mPtr	song044_4		@ track
	mPtr	song044_5		@ track
	mPtr	song044_6		@ track
	mPtr	song044_7		@ track
	mPtr	song044_8		@ track
	mPtr	song044_9		@ track
	mPtr	song044_10		@ track
	mPtr	song044_11		@ track
	mPtr	song044_12		@ track
	mPtr	song044_13		@ track
