	.include "MPlayDef.s"

	.section .rodata

	@********************** Track  1 **********************@

	.align 2
	.global song036_1
song036_1:	@ 0x0827F7E4
	.byte	KEYSH	, 0
song036_1_8:
	.byte	TEMPO	, 72
	.byte	VOICE	, 127
	.byte	VOL	, v100
	.byte	W96
	.byte	W96
	.byte	W96
	.byte	W96
song036_1_1:
	.byte		N06	, Cn4, v127
	.byte	W24
	.byte		N06	
	.byte	W24
	.byte		N06	
	.byte	W24
	.byte		N06	
	.byte	W24
	.byte	PEND
	.byte	PATT	
		.word	song036_1_1
	.byte	PATT	
		.word	song036_1_1
	.byte	W48
	.byte		N06	, Cn4, v127
	.byte	W12
	.byte			Cn4, v076
	.byte	W12
	.byte			Cn4, v104
	.byte	W12
	.byte			Cn4, v127
	.byte	W12
	.byte	PATT	
		.word	song036_1_1
song036_1_2:
	.byte		N06	, Cn4, v127
	.byte	W24
	.byte		N06	
	.byte	W24
	.byte		N06	
	.byte	W18
	.byte			Cn4, v064
	.byte	W06
	.byte			Cn4, v127
	.byte	W24
	.byte	PEND
	.byte	PATT	
		.word	song036_1_1
song036_1_3:
	.byte		N06	, Cn4, v127
	.byte	W24
	.byte		N06	
	.byte	W24
	.byte		N06	
	.byte	W18
	.byte			Cn4, v064
	.byte	W06
	.byte			Cn4, v127
	.byte	W12
	.byte		N06	
	.byte	W12
	.byte	PEND
	.byte	PATT	
		.word	song036_1_1
	.byte	PATT	
		.word	song036_1_2
	.byte	PATT	
		.word	song036_1_1
	.byte		N06	, Cn4, v127
	.byte	W24
	.byte		N06	
	.byte	W24
	.byte		N06	
	.byte	W12
	.byte		N05	
	.byte	W06
	.byte			Cn4, v064
	.byte	W06
	.byte		N06	, Cn4, v127
	.byte	W12
	.byte		N06	
	.byte	W12
	.byte	PATT	
		.word	song036_1_1
	.byte	PATT	
		.word	song036_1_2
	.byte	PATT	
		.word	song036_1_1
	.byte	PATT	
		.word	song036_1_3
	.byte	PATT	
		.word	song036_1_1
	.byte	PATT	
		.word	song036_1_2
	.byte	PATT	
		.word	song036_1_1
	.byte		N06	, Cn4, v127
	.byte	W24
	.byte		N06	
	.byte	W24
	.byte		N06	
	.byte	W18
	.byte			Cn4, v064
	.byte	W06
	.byte			Cn4, v127
	.byte	W12
	.byte		N06	
	.byte	W11
	.byte		N23	, Cn6, v036
	.byte	W01
song036_1_4:
	.byte		N06	, Cn4, v127
	.byte	W36
	.byte		N06	
	.byte	W11
	.byte		N23	, Cn6, v036
	.byte	W24
	.byte	W01
	.byte		N06	, Cn4, v127
	.byte	W12
	.byte			Cn4, v064
	.byte	W11
	.byte		N23	, Cn6, v036
	.byte	W01
	.byte	PEND
	.byte		N06	, Cn4, v127
	.byte	W24
	.byte		N06	
	.byte	W23
	.byte		N23	, Cn6, v036
	.byte	W01
	.byte		N06	, Cn4, v127
	.byte	W24
	.byte		N06	
	.byte	W12
	.byte			Cn4, v064
	.byte	W11
	.byte		N23	, Cn6, v036
	.byte	W01
	.byte	PATT	
		.word	song036_1_4
	.byte		N06	, Cn4, v127
	.byte	W24
	.byte		N06	
	.byte	W23
	.byte		N23	, Cn6, v036
	.byte	W01
	.byte		N06	, Cn4, v127
	.byte	W12
	.byte			Cn4, v064
	.byte	W12
	.byte			Cn4, v127
	.byte	W12
	.byte		N06	
	.byte	W11
	.byte		N23	, Cn6, v056
	.byte	W01
song036_1_5:
	.byte		N06	, Cn4, v127
	.byte	W23
	.byte		N23	, Cn6, v036
	.byte	W13
	.byte		N06	, Cn4, v127
	.byte	W11
	.byte		N23	, Cn6, v056
	.byte	W24
	.byte			Cn6, v036
	.byte	W01
	.byte		N06	, Cn4, v127
	.byte	W12
	.byte			Cn4, v064
	.byte	W11
	.byte		N23	, Cn6, v056
	.byte	W01
	.byte	PEND
	.byte		N06	, Cn4, v127
	.byte	W23
	.byte		N23	, Cn6, v036
	.byte	W01
	.byte		N06	, Cn4, v127
	.byte	W23
	.byte		N23	, Cn6, v056
	.byte	W01
	.byte		N06	, Cn4, v127
	.byte	W23
	.byte		N23	, Cn6, v036
	.byte	W01
	.byte		N06	, Cn4, v127
	.byte	W12
	.byte			Cn4, v064
	.byte	W11
	.byte		N23	, Cn6, v056
	.byte	W01
	.byte	PATT	
		.word	song036_1_5
	.byte		N06	, Cn4, v127
	.byte	W23
	.byte		N23	, Cn6, v036
	.byte	W01
	.byte		N06	, Cn4, v127
	.byte	W23
	.byte		N23	, Cn6, v056
	.byte	W01
	.byte		N06	, Cn4, v127
	.byte	W23
	.byte		N23	, Cn6, v036
	.byte	W01
	.byte		N06	, Cn4, v127
	.byte	W12
	.byte			Cn4, v064
	.byte	W12
	.byte	PATT	
		.word	song036_1_1
	.byte	PATT	
		.word	song036_1_2
	.byte	PATT	
		.word	song036_1_1
	.byte	PATT	
		.word	song036_1_3
	.byte	PATT	
		.word	song036_1_1
	.byte	PATT	
		.word	song036_1_2
	.byte	PATT	
		.word	song036_1_1
	.byte		N06	, Cn4, v127
	.byte	W24
	.byte		N06	
	.byte	W24
	.byte		N06	
	.byte	W12
	.byte		N05	
	.byte	W06
	.byte			Cn4, v064
	.byte	W06
	.byte		N06	, Cn4, v127
	.byte	W12
	.byte		N05	
	.byte	W06
	.byte			Cn4, v064
	.byte	W05
	.byte		N23	, Cn6, v044
	.byte	W01
song036_1_6:
	.byte		N06	, Cn4, v127
	.byte	W23
	.byte		N23	, Cn6, v044
	.byte	W01
	.byte		N06	, Cn4, v127
	.byte	W23
	.byte		N23	, Cn6, v044
	.byte	W01
	.byte		N06	, Cn4, v127
	.byte	W23
	.byte		N23	, Cn6, v044
	.byte	W01
	.byte		N06	, Cn4, v127
	.byte	W23
	.byte		N23	, Cn6, v044
	.byte	W01
	.byte	PEND
song036_1_7:
	.byte		N06	, Cn4, v127
	.byte	W23
	.byte		N23	, Cn6, v044
	.byte	W01
	.byte		N06	, Cn4, v127
	.byte	W23
	.byte		N23	, Cn6, v044
	.byte	W01
	.byte		N06	, Cn4, v127
	.byte	W18
	.byte			Cn4, v064
	.byte	W05
	.byte		N23	, Cn6, v044
	.byte	W01
	.byte		N06	, Cn4, v127
	.byte	W23
	.byte		N23	, Cn6, v044
	.byte	W01
	.byte	PEND
	.byte	PATT	
		.word	song036_1_6
	.byte		N06	, Cn4, v127
	.byte	W23
	.byte		N23	, Cn6, v044
	.byte	W01
	.byte		N06	, Cn4, v127
	.byte	W23
	.byte		N23	, Cn6, v044
	.byte	W01
	.byte		N06	, Cn4, v127
	.byte	W18
	.byte			Cn4, v064
	.byte	W05
	.byte		N23	, Cn6, v044
	.byte	W01
	.byte		N06	, Cn4, v127
	.byte	W12
	.byte		N06	
	.byte	W11
	.byte		N23	, Cn6, v044
	.byte	W01
	.byte	PATT	
		.word	song036_1_6
	.byte	PATT	
		.word	song036_1_7
	.byte		N06	, Cn4, v127
	.byte	W23
	.byte		N23	, Cn6, v044
	.byte	W01
	.byte		N06	, Cn4, v127
	.byte	W23
	.byte		N23	, Cn6, v044
	.byte	W01
	.byte		N06	, Cn4, v127
	.byte	W23
	.byte		N23	, Cn6, v044
	.byte	W01
	.byte		N06	, Cn4, v127
	.byte	W12
	.byte		N06	
	.byte	W12
	.byte	W44
	.byte	W03
	.byte		N23	, Cn6, v064
	.byte	W01
	.byte		N06	, Cn4, v127
	.byte	W12
	.byte		N05	
	.byte	W06
	.byte			Cn4, v064
	.byte	W05
	.byte		N23	, Cn6
	.byte	W01
	.byte		N06	, Cn4, v127
	.byte	W12
	.byte		N05	
	.byte	W06
	.byte			Cn4, v064
	.byte	W06
	.byte	GOTO	
		.word	song036_1_8
	.byte	FINE

	@********************** Track  2 **********************@

	.global song036_2
song036_2:	@ 0x0827FA3E
	.byte	KEYSH	, 0
song036_2_10:
	.byte	VOICE	, 1
	.byte	VOL	, v081
	.byte	PAN	, c_v
	.byte	BENDR	, 12
	.byte	BEND	, c_v
	.byte		N23	, Gn2, v096
	.byte	W24
	.byte		N11	, Dn3, v112
	.byte	W12
	.byte		N23	, Cn3, v100
	.byte	W24
	.byte			Gn3, v116
	.byte	W23
	.byte	VOICE	, 2
	.byte	W01
	.byte		N36	, Dn3, v104
	.byte	W12
song036_2_1:
	.byte	W44
	.byte	W03
	.byte	VOICE	, 1
	.byte	W01
	.byte		N11	, Fn3, v108
	.byte	W12
	.byte			Gn3, v116
	.byte	W12
	.byte			An3, v120
	.byte	W12
	.byte		N36	, Cn4, v127
	.byte	W12
	.byte	PEND
	.byte	W24
	.byte		N11	, As3, v120
	.byte	W12
	.byte		N23	, An3, v116
	.byte	W24
	.byte			Fn3, v120
	.byte	W24
	.byte		N36	, Gs3, v116
	.byte	W12
	.byte	W23
	.byte	VOICE	, 2
	.byte	W01
	.byte		N06	, Gn3
	.byte	W24
	.byte			Fn3
	.byte	W24
	.byte			Ds3
	.byte	W24
	.byte	VOICE	, 1
	.byte		N23	, Gn2, v096
	.byte	W24
	.byte		N11	, Dn3, v112
	.byte	W12
	.byte		N23	, Cn3, v100
	.byte	W24
	.byte			Gn3, v116
	.byte	W23
	.byte	VOICE	, 2
	.byte	W01
	.byte		N36	, Dn3, v104
	.byte	W12
	.byte	PATT	
		.word	song036_2_1
	.byte	W24
	.byte		N11	, As3, v120
	.byte	W12
	.byte		N23	, An3, v116
	.byte	W24
	.byte			Fn3, v120
	.byte	W24
	.byte		N24	, Gs3, v116
	.byte	W12
	.byte	W11
	.byte	VOICE	, 2
	.byte	W01
	.byte		N06	, Ds4
	.byte	W24
	.byte		N06	
	.byte	W23
	.byte	VOICE	, 1
	.byte	W01
	.byte		N06	
	.byte	W12
	.byte		N12	, Fn4, v124
	.byte	W12
	.byte		N06	, Ds4, v116
	.byte	W12
	.byte	W96
	.byte	W96
	.byte	W96
	.byte	W96
	.byte	W96
	.byte	W96
	.byte	W96
	.byte	W92
	.byte	W03
	.byte	VOL	, v076
	.byte	W01
song036_2_2:
	.byte		N80	, En3, v092
	.byte	W84
	.byte		TIE	, Fs3, v096
	.byte	W12
	.byte	PEND
	.byte	W90
	.byte		EOT	
	.byte	W06
	.byte		N78	, Fn3, v092
	.byte	W84
	.byte		N44	, En3, v096
	.byte	W12
	.byte	W36
	.byte		N48	, Ds3
	.byte	W60
	.byte	PATT	
		.word	song036_2_2
	.byte	W90
	.byte		EOT	, Fs3
	.byte	W06
	.byte		N78	, Fn3, v092
	.byte	W84
	.byte		N44	, An3, v096
	.byte	W12
	.byte	W36
	.byte		N32	, Gs3
	.byte	W36
	.byte		N21	, Gn3
	.byte	W23
	.byte	VOICE	, 2
	.byte	W01
song036_2_3:
	.byte		N18	, An3, v116
	.byte	W36
	.byte			Gn3, v112
	.byte	W32
	.byte	W03
	.byte	VOICE	, 1
	.byte	W01
	.byte		N11	, Fn3
	.byte	W12
	.byte		N44	, En3, v104
	.byte	W12
	.byte	PEND
	.byte	W36
	.byte		N56	, Ds3
	.byte	W56
	.byte	W03
	.byte	VOICE	, 2
	.byte	W01
	.byte	PATT	
		.word	song036_2_3
	.byte	W36
	.byte		N56	, Ds3, v104
	.byte	W56
	.byte	W03
	.byte	VOICE	, 1
	.byte	W01
song036_2_4:
	.byte		N11	, An3, v116
	.byte	W11
	.byte	VOICE	, 2
	.byte	W01
	.byte		N12	, An4, v124
	.byte	W23
	.byte	VOICE	, 1
	.byte	W01
	.byte		N11	, Gn3, v112
	.byte	W11
	.byte	VOICE	, 2
	.byte	W01
	.byte		N12	, Gn4, v120
	.byte	W23
	.byte	VOICE	, 1
	.byte	W01
	.byte		N11	, Fn4, v112
	.byte	W12
	.byte		N44	, En4, v104
	.byte	W12
	.byte	PEND
	.byte	W36
	.byte		N56	, Ds4
	.byte	W56
	.byte	W03
	.byte	VOICE	, 1
	.byte	W01
	.byte	PATT	
		.word	song036_2_4
	.byte	W36
	.byte		N56	, Ds4, v104
	.byte	W60
song036_2_5:
	.byte	VOICE	, 1
	.byte	VOL	, v085
	.byte		N23	, Gn2, v096
	.byte	W24
	.byte		N11	, Dn3, v112
	.byte	W12
	.byte		N23	, Cn3, v100
	.byte	W24
	.byte			Gn3, v116
	.byte	W24
	.byte		N56	, Dn3, v104
	.byte	W12
	.byte	PEND
song036_2_6:
	.byte	W48
	.byte		N11	, Dn3, v108
	.byte	W12
	.byte			Dn3, v116
	.byte	W12
	.byte			En3, v120
	.byte	W12
	.byte		N32	, Fn3, v127
	.byte	W12
	.byte	PEND
song036_2_7:
	.byte	W24
	.byte		N11	, En3, v120
	.byte	W12
	.byte		N23	, Dn3, v116
	.byte	W24
	.byte			Cn3, v108
	.byte	W24
	.byte		N44	, Gs3, v116
	.byte	W12
	.byte	PEND
song036_2_8:
	.byte	W36
	.byte		N32	, Gn3, v112
	.byte	W36
	.byte		N18	, Fn3
	.byte	W24
	.byte	PEND
	.byte		N23	, Gn3, v096
	.byte	W24
	.byte		N11	, Dn4, v112
	.byte	W12
	.byte		N23	, Cn4, v100
	.byte	W24
	.byte			Gn4, v116
	.byte	W24
	.byte		N56	, Dn4, v104
	.byte	W12
song036_2_9:
	.byte	W48
	.byte		N11	, Dn4, v108
	.byte	W12
	.byte			Dn4, v116
	.byte	W12
	.byte			En4, v120
	.byte	W12
	.byte		N36	, Fn4, v127
	.byte	W12
	.byte	PEND
	.byte	W24
	.byte		N13	, Gn4, v120
	.byte	W12
	.byte		N23	, En4, v116
	.byte	W24
	.byte			Dn4, v108
	.byte	W24
	.byte		N32	, Cn4, v116
	.byte	W12
	.byte	W24
	.byte		N10	, Cn4, v112
	.byte	W12
	.byte		N12	, As3
	.byte	W24
	.byte		N32	, Dn4
	.byte	W36
	.byte	PATT	
		.word	song036_2_5
	.byte	PATT	
		.word	song036_2_6
	.byte	PATT	
		.word	song036_2_7
	.byte	PATT	
		.word	song036_2_8
	.byte	BEND	, c_v
	.byte		N23	, Gn3, v096
	.byte	W24
	.byte		N11	, Dn4, v112
	.byte	W12
	.byte		N23	, Cn4, v100
	.byte	W24
	.byte			Gn4, v116
	.byte	W24
	.byte		N56	, Dn4, v104
	.byte	W12
	.byte	PATT	
		.word	song036_2_9
	.byte	W24
	.byte		N13	, Gn4, v120
	.byte	W12
	.byte		N23	, En4, v116
	.byte	W24
	.byte			Dn4, v108
	.byte	W24
	.byte		TIE	, Cn4, v096
	.byte	W12
	.byte	W24
	.byte	BEND	, c_v+3
	.byte	W01
	.byte		c_v+6
	.byte	W01
	.byte		c_v+9
	.byte	W01
	.byte		c_v+15
	.byte	W01
	.byte		c_v+19
	.byte	W01
	.byte		c_v+22
	.byte	W01
	.byte		c_v+28
	.byte	W01
	.byte		c_v+31
	.byte	W01
	.byte		c_v+35
	.byte	W01
	.byte		c_v+41
	.byte	W01
	.byte		c_v+44
	.byte	W01
	.byte		c_v+47
	.byte	W01
	.byte		c_v+54
	.byte	W01
	.byte		c_v+57
	.byte	W01
	.byte		c_v+63
	.byte	W56
	.byte	W01
	.byte		EOT	
	.byte	W01
	.byte	GOTO	
		.word	song036_2_10
	.byte	FINE

	@********************** Track  3 **********************@

	.global song036_3
song036_3:	@ 0x0827FC58
	.byte	KEYSH	, 0
song036_3_5:
	.byte	VOICE	, 7
	.byte	VOL	, v043
	.byte	W96
	.byte	W96
	.byte	W96
	.byte	W96
	.byte	W96
	.byte	W96
	.byte	W96
	.byte	W96
	.byte	W96
	.byte	W96
	.byte	W96
	.byte	W96
	.byte	W96
	.byte	W96
	.byte	W96
	.byte	W92
	.byte	W03
	.byte		v043
	.byte	W01
song036_3_1:
	.byte		N05	, Cn3, v127
	.byte	W12
	.byte			Cn3, v064
	.byte	W12
	.byte			Cn3, v056
	.byte	W12
	.byte			Cn3, v116
	.byte	W12
	.byte			Cn3, v064
	.byte	W12
	.byte			Cs3, v100
	.byte	W12
	.byte			Ds3, v112
	.byte	W12
	.byte			Cn3, v127
	.byte	W12
	.byte	PEND
song036_3_2:
	.byte		N05	, Cn3, v064
	.byte	W12
	.byte			Cn3, v056
	.byte	W12
	.byte			Cn3, v044
	.byte	W12
	.byte			Cn3, v036
	.byte	W12
	.byte			Cn3, v024
	.byte	W12
	.byte			Cn3, v127
	.byte	W12
	.byte			Cn3, v064
	.byte	W12
	.byte			Cs3, v120
	.byte	W12
	.byte	PEND
song036_3_3:
	.byte		N05	, Cs3, v064
	.byte	W12
	.byte			Cs3, v056
	.byte	W24
	.byte			Fs2, v112
	.byte	W12
	.byte			Fs2, v064
	.byte	W12
	.byte			Fn2, v096
	.byte	W12
	.byte			Fs2, v104
	.byte	W12
	.byte			As2, v116
	.byte	W12
	.byte	PEND
	.byte			As2, v064
	.byte	W12
	.byte			As2, v056
	.byte	W12
	.byte			As2, v044
	.byte	W12
	.byte			An2, v116
	.byte	W12
	.byte			An2, v064
	.byte	W12
	.byte			An2, v056
	.byte	W12
	.byte			An2, v044
	.byte	W12
	.byte			An2, v036
	.byte	W12
	.byte	PATT	
		.word	song036_3_1
	.byte	PATT	
		.word	song036_3_2
	.byte	PATT	
		.word	song036_3_3
	.byte		N05	, As2, v064
	.byte	W12
	.byte			As2, v056
	.byte	W12
	.byte			As2, v044
	.byte	W12
	.byte			An2, v116
	.byte	W12
	.byte			An2, v064
	.byte	W12
	.byte			En3, v116
	.byte	W12
	.byte			En3, v064
	.byte	W12
	.byte			En3, v056
	.byte	W11
	.byte	VOL	, v055
	.byte	W01
	.byte		N06	, Fs3, v116
	.byte	W12
	.byte			Gs3, v120
	.byte	W06
	.byte		N04	, Fn3, v116
	.byte	W06
	.byte			Fn3, v076
	.byte	W06
	.byte			Fn3, v036
	.byte	W06
	.byte		N06	, Ds3, v116
	.byte	W12
	.byte			Fn3, v120
	.byte	W06
	.byte		N04	, Cs3, v116
	.byte	W06
	.byte			Cs3, v076
	.byte	W06
	.byte			Cs3, v036
	.byte	W06
	.byte		N06	, As2, v096
	.byte	W06
	.byte			Cn3, v104
	.byte	W06
	.byte			Cs3, v112
	.byte	W06
	.byte			Ds3, v116
	.byte	W06
	.byte	W06
	.byte			Fn3
	.byte	W12
	.byte		N12	, As2
	.byte	W12
	.byte			Gs2
	.byte	W12
	.byte			As2
	.byte	W12
	.byte			Gs2
	.byte	W12
	.byte		N06	, As2
	.byte	W12
	.byte		N12	, En3
	.byte	W17
	.byte	VOL	, v055
	.byte	W01
	.byte		N06	, Fs3
	.byte	W12
	.byte			Gs3, v120
	.byte	W06
	.byte		N04	, Fn3, v116
	.byte	W06
	.byte			Fn3, v076
	.byte	W06
	.byte			Fn3, v036
	.byte	W06
	.byte		N06	, Ds3, v116
	.byte	W12
	.byte			Fn3, v120
	.byte	W06
	.byte		N04	, Cs3, v116
	.byte	W06
	.byte			Cs3, v076
	.byte	W06
	.byte			Cs3, v036
	.byte	W06
	.byte		N06	, Ds3, v112
	.byte	W12
	.byte			Gs3, v116
	.byte	W12
	.byte		N05	, Gs3, v064
	.byte	W12
	.byte			Gs3, v056
	.byte	W12
	.byte			Gs3, v044
	.byte	W12
	.byte			Gs3, v036
	.byte	W12
	.byte			Gs3, v024
	.byte	W44
	.byte	W03
	.byte	VOL	, v055
	.byte	W01
song036_3_4:
	.byte		N04	, Fn3, v116
	.byte	W06
	.byte		N03	, Fn3, v076
	.byte	W06
	.byte		N04	, Fs3, v116
	.byte	W06
	.byte		N03	, Fs3, v076
	.byte	W06
	.byte			Fs3, v036
	.byte	W12
	.byte		N04	, Gs3, v120
	.byte	W06
	.byte		N03	, Gs3, v080
	.byte	W06
	.byte			Gs3, v052
	.byte	W06
	.byte			Gs3, v040
	.byte	W06
	.byte			Gs3, v032
	.byte	W12
	.byte		N04	, As3, v120
	.byte	W06
	.byte		N03	, As3, v080
	.byte	W18
	.byte	PEND
	.byte	W06
	.byte		N04	, Ds4, v120
	.byte	W06
	.byte		N03	, Ds4, v060
	.byte	W06
	.byte		N04	, Gs3, v120
	.byte	W06
	.byte		N03	, Gs3, v060
	.byte	W06
	.byte		N04	, Gs3, v084
	.byte	W06
	.byte			Gs3, v116
	.byte	W06
	.byte			Fs3, v104
	.byte	W12
	.byte			Ds4, v120
	.byte	W06
	.byte		N03	, Ds4, v060
	.byte	W06
	.byte		N04	, Gs3, v120
	.byte	W06
	.byte		N03	, Gs3, v060
	.byte	W06
	.byte		N04	, Gs3, v084
	.byte	W06
	.byte			Gs3, v116
	.byte	W06
	.byte			Fs3, v104
	.byte	W05
	.byte	VOL	, v055
	.byte	W01
	.byte	PATT	
		.word	song036_3_4
	.byte	W06
	.byte		N04	, Ds4, v120
	.byte	W06
	.byte		N03	, Ds4, v060
	.byte	W06
	.byte		N04	, Gs3, v120
	.byte	W06
	.byte		N03	, Gs3, v060
	.byte	W06
	.byte		N04	, Gs3, v084
	.byte	W06
	.byte			Gs3, v116
	.byte	W06
	.byte			Fs3, v104
	.byte	W12
	.byte			Ds4, v120
	.byte	W06
	.byte		N03	, Ds4, v060
	.byte	W06
	.byte		N04	, Gs4, v120
	.byte	W06
	.byte		N03	, Gs4, v080
	.byte	W06
	.byte			Gs4, v060
	.byte	W06
	.byte			Gs4, v040
	.byte	W06
	.byte			Gs4, v032
	.byte	W06
	.byte	W96
	.byte	W96
	.byte	W96
	.byte	W96
	.byte	W96
	.byte	W96
	.byte	W96
	.byte	W96
	.byte	W96
	.byte	W96
	.byte	W96
	.byte	W96
	.byte	W96
	.byte	W96
	.byte	W96
	.byte	W96
	.byte	GOTO	
		.word	song036_3_5
	.byte	FINE

	@********************** Track  4 **********************@

	.global song036_4
song036_4:	@ 0x0827FE31
	.byte	KEYSH	, 0
song036_4_6:
	.byte	VOICE	, 6
	.byte	MOD	, 0
	.byte	VOL	, v047
	.byte	W96
	.byte	W96
	.byte	W96
	.byte	W96
	.byte	W96
	.byte	W96
	.byte	W96
	.byte	W92
	.byte	W03
	.byte	PAN	, c_v
	.byte	W01
song036_4_1:
	.byte	MOD	, 0
	.byte		N04	, Ds3, v088
	.byte	W02
	.byte		N32	, En3, v096
	.byte	W32
	.byte	W02
	.byte		N23	, Cs3
	.byte	W23
	.byte		N12	, Bn2, v080
	.byte	W13
	.byte			Cs3, v088
	.byte	W12
	.byte		N66	, Gs3, v104
	.byte	W12
	.byte	PEND
song036_4_2:
	.byte	W24
	.byte	MOD	, 10
	.byte	W36
	.byte		0
	.byte		N24	, Gs3, v108
	.byte	W24
	.byte	W01
	.byte		N40	, Gn3, v096
	.byte	W11
	.byte	PEND
song036_4_3:
	.byte	W12
	.byte	MOD	, 10
	.byte	W24
	.byte		0
	.byte		N19	, Bn2, v100
	.byte	W24
	.byte		N11	, An2, v092
	.byte	W12
	.byte			Bn2, v100
	.byte	W12
	.byte		N44	, Fs3
	.byte	W12
	.byte	PEND
song036_4_4:
	.byte	W12
	.byte	MOD	, 10
	.byte	W24
	.byte		0
	.byte		N48	, Fn3, v096
	.byte	W30
	.byte	MOD	, 14
	.byte	W24
	.byte		0
	.byte	W06
	.byte	PEND
	.byte	PATT	
		.word	song036_4_1
	.byte	PATT	
		.word	song036_4_2
song036_4_5:
	.byte	W12
	.byte	MOD	, 10
	.byte	W24
	.byte		0
	.byte		N19	, Bn2, v100
	.byte	W24
	.byte		N11	, An2, v096
	.byte	W12
	.byte			Bn2, v100
	.byte	W12
	.byte		N23	, Fs3
	.byte	W12
	.byte	PEND
	.byte	W12
	.byte		N11	, Gn3
	.byte	W12
	.byte			An3, v108
	.byte	W12
	.byte		N23	, Fs3, v100
	.byte	W24
	.byte		N30	, Fn3, v092
	.byte	W12
	.byte	MOD	, 12
	.byte	W23
	.byte	PAN	, c_v
	.byte	W01
	.byte	PATT	
		.word	song036_4_1
	.byte	PATT	
		.word	song036_4_2
	.byte	PATT	
		.word	song036_4_3
	.byte	PATT	
		.word	song036_4_4
	.byte	PATT	
		.word	song036_4_1
	.byte	PATT	
		.word	song036_4_2
	.byte	PATT	
		.word	song036_4_5
	.byte	W12
	.byte		N11	, Gn3, v100
	.byte	W12
	.byte			An3, v108
	.byte	W12
	.byte		N23	, Fs3, v100
	.byte	W24
	.byte		N30	, Fn3, v092
	.byte	W12
	.byte	MOD	, 12
	.byte	W24
	.byte	W96
	.byte	W96
	.byte	W96
	.byte		0
	.byte	VOL	, v043
	.byte	W06
	.byte		N04	, Ds3, v088
	.byte	W02
	.byte		N09	, En3, v096
	.byte	W09
	.byte		N06	, Dn3, v080
	.byte	W07
	.byte		N15	, En3, v096
	.byte	W06
	.byte	MOD	, 5
	.byte	W12
	.byte		0
	.byte		N04	, Ds3, v088
	.byte	W02
	.byte		N15	, En3, v096
	.byte	W16
	.byte		N36	, An3, v104
	.byte	W12
	.byte	MOD	, 10
	.byte	W24
	.byte	W96
	.byte	W96
	.byte	W96
	.byte	W96
	.byte	W96
	.byte	W96
	.byte	W96
	.byte	W96
	.byte	W96
	.byte	W96
	.byte	W96
	.byte	W96
	.byte		0
	.byte	VOL	, v043
	.byte		N23	
	.byte	W24
	.byte		N11	, En4, v112
	.byte	W12
	.byte		N23	, Dn4, v104
	.byte	W12
	.byte	MOD	, 5
	.byte	W12
	.byte		N23	, An4, v112
	.byte	W24
	.byte		N60	, En4, v120
	.byte	W12
	.byte	W12
	.byte	MOD	, 10
	.byte	W84
	.byte	W96
	.byte	W96
	.byte		0
	.byte		N23	, An3, v104
	.byte	W24
	.byte		N11	, En4, v112
	.byte	W12
	.byte		N23	, Dn4, v104
	.byte	W12
	.byte	MOD	, 5
	.byte	W12
	.byte		N23	, An4, v112
	.byte	W24
	.byte		N54	, En4
	.byte	W12
	.byte	W12
	.byte	MOD	, 10
	.byte	W36
	.byte		0
	.byte		N11	
	.byte	W12
	.byte		N11	
	.byte	W12
	.byte			Fs4
	.byte	W12
	.byte		N32	, Gn4
	.byte	W12
	.byte	W24
	.byte		N11	, An4
	.byte	W12
	.byte		N23	, Fs4
	.byte	W24
	.byte			En4
	.byte	W24
	.byte		TIE	, Dn4
	.byte	W12
	.byte	W12
	.byte	MOD	, 12
	.byte	W80
	.byte	W03
	.byte		EOT	
	.byte	W01
	.byte	GOTO	
		.word	song036_4_6
	.byte	FINE

	@********************** Track  5 **********************@

	.global song036_5
song036_5:	@ 0x0827FF8C
	.byte	KEYSH	, 0
song036_5_9:
	.byte	VOICE	, 8
	.byte	VOL	, v055
	.byte	PAN	, c_v-40
	.byte	W96
	.byte	W96
	.byte	W96
	.byte	W96
	.byte	W96
	.byte	W96
	.byte	W96
	.byte	W96
	.byte	W96
	.byte	W96
	.byte	W96
	.byte	W96
	.byte	W96
	.byte	W96
	.byte	W96
	.byte	W96
	.byte		N04	, Cn3, v104
	.byte	W11
	.byte		N12	, Cn3, v084
	.byte	W19
	.byte		N04	, Cn3, v104
	.byte	W28
	.byte	W01
	.byte		N12	, Cn3, v084
	.byte	W19
	.byte		N04	, Cn3, v104
	.byte	W18
song036_5_1:
	.byte	W11
	.byte		N12	, Dn3, v084
	.byte	W19
	.byte		N04	, Dn3, v104
	.byte	W28
	.byte	W01
	.byte		N12	, Dn3, v084
	.byte	W19
	.byte		N04	, Dn3, v104
	.byte	W12
	.byte			Dn3, v084
	.byte	W06
	.byte	PEND
song036_5_2:
	.byte	W11
	.byte		N12	, Fn3, v084
	.byte	W19
	.byte		N04	, Fn3, v104
	.byte	W28
	.byte	W01
	.byte		N12	, Fn3, v084
	.byte	W19
	.byte		N04	, Fn3, v104
	.byte	W18
	.byte	PEND
song036_5_3:
	.byte	W11
	.byte		N12	, Gn3, v084
	.byte	W19
	.byte		N04	, Gn3, v104
	.byte	W17
	.byte		N12	, Gn3, v084
	.byte	W19
	.byte		N04	, Gn3, v104
	.byte	W18
	.byte			Gn3, v124
	.byte	W12
	.byte	PEND
	.byte	W11
	.byte		N12	, Cn3, v084
	.byte	W19
	.byte		N04	, Cn3, v104
	.byte	W28
	.byte	W01
	.byte		N12	, Cn3, v084
	.byte	W19
	.byte		N04	, Cn3, v104
	.byte	W18
	.byte	PATT	
		.word	song036_5_1
	.byte	PATT	
		.word	song036_5_2
	.byte	PATT	
		.word	song036_5_3
	.byte	W96
	.byte	W96
	.byte	W96
	.byte	W96
song036_5_4:
	.byte		N06	, Fn2, v096
	.byte	W12
	.byte		N06	
	.byte	W24
	.byte			En2
	.byte	W12
	.byte		N06	
	.byte	W24
	.byte			Dn2
	.byte	W12
	.byte		N18	, Gn2
	.byte	W12
	.byte	PEND
song036_5_5:
	.byte	W12
	.byte		N06	, Gn2, v096
	.byte	W24
	.byte			Gs2
	.byte	W24
	.byte			Gn2
	.byte	W24
	.byte		N06	
	.byte	W12
	.byte	PEND
	.byte	PATT	
		.word	song036_5_4
	.byte	PATT	
		.word	song036_5_5
	.byte		TIE	, Gn2, v096
	.byte	W96
	.byte	W48
	.byte		EOT	
	.byte		N48	, Fn2
	.byte	W48
song036_5_6:
	.byte		N24	, An2, v096
	.byte	W24
	.byte			Gn2
	.byte	W24
	.byte			Fn2
	.byte	W24
	.byte		N72	, Gn2
	.byte	W24
	.byte	PEND
	.byte	W48
	.byte		N42	, Fn2
	.byte	W48
	.byte		TIE	, Gn2
	.byte	W96
	.byte	W48
	.byte		EOT	
	.byte		N48	, Fn2
	.byte	W48
song036_5_7:
	.byte		N24	, An2, v096
	.byte	W24
	.byte			Gn2
	.byte	W24
	.byte			Fn2
	.byte	W24
	.byte			Gn2
	.byte	W24
	.byte	PEND
song036_5_8:
	.byte		N48	, Gs2, v096
	.byte	W48
	.byte		N42	, Fn2
	.byte	W48
	.byte	PEND
	.byte		TIE	, Gn2
	.byte	W96
	.byte	W48
	.byte		EOT	
	.byte		N48	, Fn2
	.byte	W48
	.byte	PATT	
		.word	song036_5_6
	.byte	W48
	.byte		N42	, Fn2, v096
	.byte	W48
	.byte		TIE	, Gn2
	.byte	W96
	.byte	W48
	.byte		EOT	
	.byte		N48	, Fn2
	.byte	W48
	.byte	PATT	
		.word	song036_5_7
	.byte	PATT	
		.word	song036_5_8
	.byte	GOTO	
		.word	song036_5_9
	.byte	FINE

	@********************** Track  6 **********************@

	.global song036_6
song036_6:	@ 0x082800A0
	.byte	KEYSH	, 0
song036_6_11:
	.byte	VOICE	, 3
	.byte	VOL	, v055
	.byte		N96	, Dn2, v104
	.byte	W96
	.byte			Cn2, v100
	.byte	W96
song036_6_1:
	.byte		N48	, Gn2, v104
	.byte	W48
	.byte		N36	, An2, v112
	.byte	W36
	.byte			As2, v116
	.byte	W12
	.byte	PEND
song036_6_2:
	.byte	W24
	.byte		N24	, As1, v104
	.byte	W24
	.byte			Fn2, v092
	.byte	W24
	.byte			As2, v116
	.byte	W24
	.byte	PEND
	.byte		N96	, Dn2, v104
	.byte	W96
	.byte			Cn2, v100
	.byte	W96
	.byte	PATT	
		.word	song036_6_1
	.byte	PATT	
		.word	song036_6_2
song036_6_3:
	.byte		N16	, Dn2, v096
	.byte	W18
	.byte		N06	, Dn2, v124
	.byte	W12
	.byte			An1, v096
	.byte	W06
	.byte		N08	, Dn2, v104
	.byte	W12
	.byte		N16	, Dn2, v096
	.byte	W18
	.byte		N06	, Dn2, v124
	.byte	W12
	.byte			An1, v096
	.byte	W06
	.byte		N08	, Dn2, v104
	.byte	W12
	.byte	PEND
song036_6_4:
	.byte		N16	, En2, v096
	.byte	W18
	.byte		N06	, En2, v124
	.byte	W12
	.byte			Bn1, v096
	.byte	W06
	.byte		N08	, En2, v104
	.byte	W12
	.byte		N16	, En2, v096
	.byte	W18
	.byte		N06	, En2, v124
	.byte	W12
	.byte			Bn1, v096
	.byte	W06
	.byte		N08	, En2, v104
	.byte	W12
	.byte	PEND
song036_6_5:
	.byte	BEND	, c_v
	.byte		N16	, Gn2, v096
	.byte	W18
	.byte		N06	, Gn2, v124
	.byte	W12
	.byte			Dn2, v096
	.byte	W06
	.byte			Gn2, v104
	.byte	W06
	.byte		N05	, Dn3, v096
	.byte	W06
	.byte	BEND	, c_v-57
	.byte		N12	, Gn3, v092
	.byte	W01
	.byte	BEND	, c_v-50
	.byte	W01
	.byte		c_v-43
	.byte	W01
	.byte		c_v-28
	.byte	W01
	.byte		c_v-21
	.byte	W01
	.byte		c_v-14
	.byte	W01
	.byte		c_v
	.byte	W06
	.byte		N12	, Fs3, v124
	.byte	W12
	.byte			En3, v096
	.byte	W12
	.byte			Dn3, v104
	.byte	W12
	.byte	PEND
song036_6_6:
	.byte		N16	, An2, v096
	.byte	W18
	.byte		N06	, An2, v124
	.byte	W06
	.byte			En2, v096
	.byte	W12
	.byte		N06	
	.byte	W06
	.byte		N05	, An2, v104
	.byte	W06
	.byte		N16	, An2, v096
	.byte	W18
	.byte		N06	, An2, v124
	.byte	W06
	.byte			En2, v096
	.byte	W12
	.byte		N06	
	.byte	W06
	.byte		N05	, An2, v104
	.byte	W06
	.byte	PEND
	.byte	PATT	
		.word	song036_6_3
	.byte	PATT	
		.word	song036_6_4
	.byte	PATT	
		.word	song036_6_5
	.byte	PATT	
		.word	song036_6_6
song036_6_7:
	.byte		N16	, Dn2, v096
	.byte	W18
	.byte		N06	, Dn2, v124
	.byte	W12
	.byte			An1, v096
	.byte	W06
	.byte		N08	, Dn2, v104
	.byte	W12
	.byte		N16	, Dn2, v096
	.byte	W18
	.byte		N06	, Dn2, v124
	.byte	W12
	.byte			An1, v096
	.byte	W06
	.byte		N14	, Dn2, v104
	.byte	W12
	.byte	PEND
song036_6_8:
	.byte		N16	, En2, v096
	.byte	W18
	.byte		N06	, En2, v124
	.byte	W12
	.byte			Bn1, v096
	.byte	W06
	.byte		N08	, En2, v104
	.byte	W12
	.byte		N16	, En2, v096
	.byte	W18
	.byte		N06	, En2, v124
	.byte	W12
	.byte			Bn1, v096
	.byte	W06
	.byte		N14	, En2, v104
	.byte	W12
	.byte	PEND
	.byte	PATT	
		.word	song036_6_5
	.byte	PATT	
		.word	song036_6_6
	.byte	PATT	
		.word	song036_6_7
	.byte	PATT	
		.word	song036_6_8
	.byte	PATT	
		.word	song036_6_5
	.byte		N16	, An2, v096
	.byte	W18
	.byte		N06	, An2, v124
	.byte	W06
	.byte			En2, v096
	.byte	W12
	.byte		N06	
	.byte	W06
	.byte		N05	, An2, v104
	.byte	W06
	.byte		N16	, An2, v096
	.byte	W18
	.byte		N06	, An2, v124
	.byte	W06
	.byte			En2, v096
	.byte	W06
	.byte		N05	, An2, v104
	.byte	W06
	.byte		N06	, En2, v096
	.byte	W06
	.byte		N05	, An2, v104
	.byte	W06
song036_6_9:
	.byte		N16	, Gn2, v096
	.byte	W18
	.byte		N06	, Gn2, v124
	.byte	W18
	.byte		N16	, Fs2, v096
	.byte	W18
	.byte		N06	, Fs2, v124
	.byte	W18
	.byte		N12	, En2, v096
	.byte	W12
	.byte		N17	, An1, v104
	.byte	W12
	.byte	PEND
song036_6_10:
	.byte	W06
	.byte		N12	, An2, v104
	.byte	W12
	.byte		N06	, An1, v096
	.byte	W06
	.byte		N12	, An2, v104
	.byte	W12
	.byte		N06	, An1, v096
	.byte	W06
	.byte			An2, v104
	.byte	W12
	.byte			An1, v096
	.byte	W12
	.byte			An1, v124
	.byte	W06
	.byte		N12	, En2, v096
	.byte	W12
	.byte			An2, v124
	.byte	W12
	.byte	PEND
	.byte	PATT	
		.word	song036_6_9
	.byte	PATT	
		.word	song036_6_10
	.byte	PATT	
		.word	song036_6_9
	.byte	PATT	
		.word	song036_6_10
	.byte	PATT	
		.word	song036_6_9
	.byte	PATT	
		.word	song036_6_10
	.byte	PATT	
		.word	song036_6_3
	.byte	PATT	
		.word	song036_6_4
	.byte	PATT	
		.word	song036_6_5
	.byte	PATT	
		.word	song036_6_6
	.byte	PATT	
		.word	song036_6_3
	.byte	PATT	
		.word	song036_6_4
	.byte	PATT	
		.word	song036_6_5
	.byte		N16	, As2, v096
	.byte	W18
	.byte		N06	, As2, v124
	.byte	W06
	.byte			Fn2, v096
	.byte	W12
	.byte		N06	
	.byte	W06
	.byte		N05	, As2, v104
	.byte	W06
	.byte		N16	, As2, v096
	.byte	W18
	.byte		N06	, As2, v124
	.byte	W06
	.byte			Fn2, v096
	.byte	W12
	.byte		N06	
	.byte	W06
	.byte		N05	, As2, v104
	.byte	W06
	.byte	PATT	
		.word	song036_6_3
	.byte	PATT	
		.word	song036_6_4
	.byte	PATT	
		.word	song036_6_5
	.byte	PATT	
		.word	song036_6_6
	.byte	PATT	
		.word	song036_6_3
	.byte	PATT	
		.word	song036_6_4
	.byte	BEND	, c_v
	.byte		N16	, Gn2, v100
	.byte	W18
	.byte		N06	, Gn2, v124
	.byte	W12
	.byte			Dn2, v096
	.byte	W06
	.byte			Gn2, v104
	.byte	W06
	.byte		N05	, Dn3, v096
	.byte	W06
	.byte	BEND	, c_v-57
	.byte		N12	, Gn3, v084
	.byte	W01
	.byte	BEND	, c_v-50
	.byte	W01
	.byte		c_v-43
	.byte	W01
	.byte		c_v-28
	.byte	W01
	.byte		c_v-21
	.byte	W01
	.byte		c_v-14
	.byte	W01
	.byte		c_v
	.byte	W06
	.byte		N12	, Fs3, v124
	.byte	W12
	.byte			En3, v096
	.byte	W12
	.byte		N24	, As2, v104
	.byte	W12
	.byte	W12
	.byte		N12	, As1, v116
	.byte	W24
	.byte		N54	
	.byte	W60
	.byte	GOTO	
		.word	song036_6_11
	.byte	FINE

	@********************** Track  7 **********************@

	.global song036_7
song036_7:	@ 0x082802F7
	.byte	KEYSH	, 0
song036_7_12:
	.byte	VOICE	, 4
	.byte	VOL	, v039
	.byte	PAN	, c_v
	.byte		N03	, Fs4, v084
	.byte	W06
	.byte			Gn4, v096
	.byte	W06
	.byte			An4, v104
	.byte	W06
	.byte			Dn5, v116
	.byte	W12
	.byte			Dn5, v084
	.byte	W12
	.byte			Dn5, v064
	.byte	W12
	.byte			Dn5, v116
	.byte	W12
	.byte			Dn5, v064
	.byte	W06
	.byte		N12	, En5, v104
	.byte	W12
	.byte		N03	, Dn5, v116
	.byte	W06
	.byte			Dn5, v044
	.byte	W06
song036_7_2:
	.byte		N03	, Dn5, v036
	.byte	W06
	.byte			Dn5, v016
	.byte	W06
	.byte		N03	
	.byte	W06
	.byte		N03	
	.byte	W78
	.byte	PEND
song036_7_1:
	.byte		N03	, Fs4, v084
	.byte	W06
	.byte			Gn4, v096
	.byte	W06
	.byte			An4, v104
	.byte	W06
	.byte			Dn5, v116
	.byte	W12
	.byte			Dn5, v084
	.byte	W12
	.byte			Dn5, v064
	.byte	W12
	.byte			Dn5, v116
	.byte	W12
	.byte			Dn5, v064
	.byte	W06
	.byte		N12	, En5, v104
	.byte	W12
	.byte		N03	, Dn5, v116
	.byte	W06
	.byte			Dn5, v044
	.byte	W06
	.byte	PEND
	.byte			Dn5, v036
	.byte	W06
	.byte			Fn5, v084
	.byte	W06
	.byte			Fn5, v036
	.byte	W06
	.byte			Dn5, v104
	.byte	W06
	.byte			Dn5, v044
	.byte	W06
	.byte			An4, v096
	.byte	W06
	.byte			An4, v044
	.byte	W06
	.byte		N11	, Gn4, v076
	.byte	W12
	.byte		N03	, Gn5, v096
	.byte	W03
	.byte			Gn4, v044
	.byte	W03
	.byte			An5, v096
	.byte	W03
	.byte			An4, v044
	.byte	W03
	.byte			Gn5, v096
	.byte	W03
	.byte			Gn4, v044
	.byte	W03
	.byte			Fn5, v096
	.byte	W03
	.byte			Fn4, v044
	.byte	W03
	.byte			En5, v096
	.byte	W03
	.byte			En4, v044
	.byte	W03
	.byte			Dn5, v096
	.byte	W03
	.byte			Dn4, v044
	.byte	W03
	.byte			An4, v096
	.byte	W05
	.byte	VOL	, v035
	.byte	TUNE	, c_v+5
	.byte	W01
	.byte	PATT	
		.word	song036_7_1
	.byte	PATT	
		.word	song036_7_2
	.byte	PATT	
		.word	song036_7_1
	.byte		N03	, Dn5, v036
	.byte	W06
	.byte			Fn5, v084
	.byte	W06
	.byte			Fn5, v036
	.byte	W06
	.byte			Dn5, v104
	.byte	W06
	.byte			Dn5, v044
	.byte	W06
	.byte			An4, v096
	.byte	W06
	.byte			An4, v044
	.byte	W06
	.byte		N11	, Gn4, v076
	.byte	W12
	.byte		N03	, Gn5, v096
	.byte	W03
	.byte			Gn4, v044
	.byte	W03
	.byte			An5, v096
	.byte	W03
	.byte			An4, v044
	.byte	W03
	.byte			Gn5, v096
	.byte	W03
	.byte			Gn4, v044
	.byte	W03
	.byte			Dn5, v100
	.byte	W03
	.byte			Dn4, v052
	.byte	W03
	.byte			Gn5, v104
	.byte	W03
	.byte			Gn4, v056
	.byte	W03
	.byte			An5, v112
	.byte	W03
	.byte			An4, v060
	.byte	W03
	.byte			Gn5, v116
	.byte	W06
	.byte	W96
	.byte	W96
	.byte	W96
	.byte	W96
	.byte	W96
	.byte	W96
	.byte	W96
	.byte	W92
	.byte	W03
	.byte	VOL	, v035
	.byte	PAN	, c_v+40
	.byte	TUNE	, c_v+5
	.byte	W01
	.byte	PATT	
		.word	song036_7_1
	.byte	PATT	
		.word	song036_7_2
	.byte	PATT	
		.word	song036_7_1
song036_7_3:
	.byte		N03	, Dn5, v036
	.byte	W06
	.byte			En5, v084
	.byte	W06
	.byte			En5, v036
	.byte	W06
	.byte			Cs5, v104
	.byte	W06
	.byte			Cs5, v044
	.byte	W06
	.byte			An4, v096
	.byte	W06
	.byte			An4, v044
	.byte	W06
	.byte		N11	, Fn4, v076
	.byte	W12
	.byte		N03	, Gn5, v096
	.byte	W03
	.byte			Gn4, v044
	.byte	W03
	.byte			An5, v096
	.byte	W03
	.byte			An4, v044
	.byte	W03
	.byte			Gn5, v096
	.byte	W03
	.byte			Gn4, v044
	.byte	W03
	.byte			Cs5, v100
	.byte	W03
	.byte			Cs4, v052
	.byte	W03
	.byte			Gn5, v104
	.byte	W03
	.byte			Gn4, v056
	.byte	W03
	.byte			An5, v112
	.byte	W03
	.byte			An4, v060
	.byte	W03
	.byte			Gn5, v116
	.byte	W06
	.byte	PEND
	.byte	PATT	
		.word	song036_7_1
	.byte	PATT	
		.word	song036_7_2
	.byte	PATT	
		.word	song036_7_1
	.byte	PATT	
		.word	song036_7_3
	.byte	MOD	, 127
	.byte	VOL	, v035
	.byte	PAN	, c_v
	.byte	LFOS	, 127
	.byte		TIE	, Cn7, v084
	.byte	W02
	.byte	VOL	, v034
	.byte	W03
	.byte		v033
	.byte	W02
	.byte		v033
	.byte	W03
	.byte		v032
	.byte	W02
	.byte		v031
	.byte	W03
	.byte		v030
	.byte	W02
	.byte		v029
	.byte	W03
	.byte		v029
	.byte	W02
	.byte		v028
	.byte	W03
	.byte		v027
	.byte	W02
	.byte		v026
	.byte	W03
	.byte		v025
	.byte	W02
	.byte		v025
	.byte	W03
	.byte		v024
	.byte	W02
	.byte		v023
	.byte	W03
	.byte		v022
	.byte	W02
	.byte		v022
	.byte	W03
	.byte		v021
	.byte	W02
	.byte		v020
	.byte	W03
	.byte		v019
	.byte	W18
	.byte		v018
	.byte	W09
	.byte		v018
	.byte	W09
	.byte		v017
	.byte	W09
	.byte		v016
	.byte	W01
song036_7_4:
	.byte	W08
	.byte	VOL	, v015
	.byte	W09
	.byte		v014
	.byte	W09
	.byte		v014
	.byte	W09
	.byte		v013
	.byte	W09
	.byte		v012
	.byte	W09
	.byte		v011
	.byte	W09
	.byte		v011
	.byte	W09
	.byte		v010
	.byte	W09
	.byte		v009
	.byte	W09
	.byte		v008
	.byte	W01
	.byte	PEND
	.byte		EOT	, Cn7
	.byte	VOL	, v007
	.byte	W06
	.byte		v035
	.byte		TIE	, Cn7, v084
	.byte	W02
	.byte	VOL	, v034
	.byte	W03
	.byte		v033
	.byte	W02
	.byte		v033
	.byte	W03
	.byte		v032
	.byte	W02
	.byte		v031
	.byte	W03
	.byte		v030
	.byte	W02
	.byte		v029
	.byte	W03
	.byte		v029
	.byte	W02
	.byte		v028
	.byte	W03
	.byte		v027
	.byte	W02
	.byte		v026
	.byte	W03
	.byte		v025
	.byte	W02
	.byte		v025
	.byte	W03
	.byte		v024
	.byte	W02
	.byte		v023
	.byte	W03
	.byte		v022
	.byte	W02
	.byte		v022
	.byte	W03
	.byte		v021
	.byte	W02
	.byte		v020
	.byte	W03
	.byte		v019
	.byte	W18
	.byte		v018
	.byte	W09
	.byte		v018
	.byte	W09
	.byte		v017
	.byte	W09
	.byte		v016
	.byte	W01
	.byte	PATT	
		.word	song036_7_4
	.byte		EOT	, Cn7
	.byte	VOL	, v007
	.byte	W06
	.byte		v035
	.byte	PAN	, c_v+40
	.byte		TIE	, Cn7, v096
	.byte	W02
	.byte	VOL	, v034
	.byte	W03
	.byte		v033
	.byte	W02
	.byte		v033
	.byte	W03
	.byte		v032
	.byte	W02
	.byte		v031
	.byte	W03
	.byte		v030
	.byte	W02
	.byte		v029
	.byte	W03
	.byte		v029
	.byte	W02
	.byte		v028
	.byte	W03
	.byte		v027
	.byte	W02
	.byte		v026
	.byte	W03
	.byte		v025
	.byte	W02
	.byte		v025
	.byte	W03
	.byte		v024
	.byte	W02
	.byte		v023
	.byte	W03
	.byte		v022
	.byte	W02
	.byte		v022
	.byte	W03
	.byte		v021
	.byte	W02
	.byte		v020
	.byte	W03
	.byte		v019
	.byte	W18
	.byte		v018
	.byte	W09
	.byte		v018
	.byte	W09
	.byte		v017
	.byte	W09
	.byte		v016
	.byte	W01
	.byte	PATT	
		.word	song036_7_4
	.byte		EOT	, Cn7
	.byte	VOL	, v007
	.byte	W06
	.byte		v035
	.byte		TIE	, Cn7, v096
	.byte	W02
	.byte	VOL	, v034
	.byte	W03
	.byte		v033
	.byte	W02
	.byte		v033
	.byte	W03
	.byte		v032
	.byte	W02
	.byte		v031
	.byte	W03
	.byte		v030
	.byte	W02
	.byte		v029
	.byte	W03
	.byte		v029
	.byte	W02
	.byte		v028
	.byte	W03
	.byte		v027
	.byte	W02
	.byte		v026
	.byte	W03
	.byte		v025
	.byte	W02
	.byte		v025
	.byte	W03
	.byte		v024
	.byte	W02
	.byte		v023
	.byte	W03
	.byte		v022
	.byte	W02
	.byte		v022
	.byte	W03
	.byte		v021
	.byte	W02
	.byte		v020
	.byte	W03
	.byte		v019
	.byte	W18
	.byte		v018
	.byte	W09
	.byte		v018
	.byte	W09
	.byte		v017
	.byte	W09
	.byte		v016
	.byte	W01
	.byte	PATT	
		.word	song036_7_4
	.byte		EOT	, Cn7
	.byte	VOL	, v007
	.byte	W06
	.byte	MOD	, 0
	.byte	VOL	, v047
	.byte	PAN	, c_v+40
	.byte	W12
	.byte		N06	, Fs4, v084
	.byte	W12
	.byte			Fs4, v056
	.byte	W12
	.byte			Fs4, v044
	.byte	W12
	.byte			Gn4, v092
	.byte	W12
	.byte			Gn4, v060
	.byte	W12
	.byte			An4, v092
	.byte	W12
	.byte			Dn5, v104
	.byte	W12
song036_7_6:
	.byte		N05	, Dn5, v076
	.byte	W12
	.byte			Dn5, v064
	.byte	W12
	.byte			Dn5, v056
	.byte	W12
	.byte			Dn5, v044
	.byte	W12
	.byte			Dn5, v036
	.byte	W48
	.byte	PEND
song036_7_7:
	.byte	W12
	.byte		N06	, Fs4, v084
	.byte	W12
	.byte			Fs4, v056
	.byte	W12
	.byte			Fs4, v044
	.byte	W12
	.byte			Gn4, v092
	.byte	W12
	.byte			Gn4, v060
	.byte	W12
	.byte			An4, v092
	.byte	W12
	.byte			As4, v104
	.byte	W12
	.byte	PEND
song036_7_8:
	.byte		N05	, As4, v076
	.byte	W12
	.byte			As4, v064
	.byte	W12
	.byte			As4, v056
	.byte	W12
	.byte			As4, v044
	.byte	W12
	.byte			As4, v036
	.byte	W48
	.byte	PEND
song036_7_9:
	.byte	W12
	.byte		N06	, Fs4, v076
	.byte	W12
	.byte			Fs4, v044
	.byte	W12
	.byte			Fs4, v036
	.byte	W12
	.byte			Gn4, v080
	.byte	W12
	.byte			Gn4, v052
	.byte	W12
	.byte			An4, v080
	.byte	W12
	.byte			Dn5, v096
	.byte	W12
	.byte	PEND
song036_7_10:
	.byte		N05	, Dn5, v064
	.byte	W12
	.byte			Dn5, v056
	.byte	W12
	.byte			Dn5, v044
	.byte	W12
	.byte			Dn5, v036
	.byte	W12
	.byte			Dn5, v024
	.byte	W48
	.byte	PEND
song036_7_5:
	.byte	W12
	.byte		N06	, Fs4, v084
	.byte	W12
	.byte			Fs4, v056
	.byte	W12
	.byte			Fs4, v044
	.byte	W12
	.byte			Gn4, v092
	.byte	W12
	.byte			Gn4, v060
	.byte	W12
	.byte			An4, v092
	.byte	W12
	.byte			Dn5, v104
	.byte	W12
	.byte	PEND
song036_7_11:
	.byte		N05	, Dn5, v076
	.byte	W12
	.byte			Dn5, v064
	.byte	W12
	.byte			Dn5, v056
	.byte	W12
	.byte		N06	, Cn5, v104
	.byte	W12
	.byte		N05	, Cn5, v076
	.byte	W12
	.byte		N06	, En5, v104
	.byte	W12
	.byte		N05	, En5, v076
	.byte	W12
	.byte			En5, v064
	.byte	W12
	.byte	PEND
	.byte	PATT	
		.word	song036_7_5
	.byte	PATT	
		.word	song036_7_6
	.byte	PATT	
		.word	song036_7_7
	.byte	PATT	
		.word	song036_7_8
	.byte	PATT	
		.word	song036_7_9
	.byte	PATT	
		.word	song036_7_10
	.byte	PATT	
		.word	song036_7_5
	.byte	PATT	
		.word	song036_7_11
	.byte	GOTO	
		.word	song036_7_12
	.byte	FINE

	@********************** Track  8 **********************@

	.global song036_8
song036_8:	@ 0x08280660
	.byte	KEYSH	, 0
song036_8_6:
	.byte	VOICE	, 5
	.byte	VOL	, v031
	.byte	TUNE	, c_v-10
	.byte	PAN	, c_v
	.byte	W96
	.byte	W96
	.byte	W96
	.byte	W96
song036_8_1:
	.byte	W01
	.byte		N03	, Fs4, v076
	.byte	W06
	.byte			Gn4, v084
	.byte	W06
	.byte			An4, v096
	.byte	W06
	.byte			Dn5, v104
	.byte	W12
	.byte			Dn5, v076
	.byte	W12
	.byte			Dn5, v056
	.byte	W12
	.byte			Dn5, v104
	.byte	W12
	.byte			Dn5, v056
	.byte	W06
	.byte		N12	, En5, v096
	.byte	W12
	.byte		N03	, Dn5, v104
	.byte	W06
	.byte			Dn5, v036
	.byte	W05
	.byte	PEND
song036_8_2:
	.byte	W01
	.byte		N03	, Dn5, v024
	.byte	W06
	.byte			Dn5, v004
	.byte	W06
	.byte		N03	
	.byte	W06
	.byte		N03	
	.byte	W76
	.byte	W01
	.byte	PEND
	.byte	PATT	
		.word	song036_8_1
	.byte	W01
	.byte		N03	, Dn5, v024
	.byte	W06
	.byte			Fn5, v076
	.byte	W06
	.byte			Fn5, v024
	.byte	W06
	.byte			Dn5, v096
	.byte	W06
	.byte			Dn5, v036
	.byte	W06
	.byte			An4, v084
	.byte	W06
	.byte			An4, v036
	.byte	W06
	.byte		N11	, Gn4, v064
	.byte	W12
	.byte		N03	, Gn5, v084
	.byte	W03
	.byte			Gn4, v036
	.byte	W03
	.byte			An5, v084
	.byte	W03
	.byte			An4, v036
	.byte	W03
	.byte			Gn5, v084
	.byte	W03
	.byte			Gn4, v036
	.byte	W03
	.byte			Dn5, v092
	.byte	W03
	.byte			Dn4, v040
	.byte	W03
	.byte			Gn5, v096
	.byte	W03
	.byte			Gn4, v044
	.byte	W03
	.byte			An5, v100
	.byte	W03
	.byte			An4, v052
	.byte	W03
	.byte			Gn5, v116
	.byte	W05
	.byte	W96
	.byte	W96
	.byte	W96
	.byte	W96
	.byte	W96
	.byte	W96
	.byte	W96
	.byte	W96
	.byte	VOL	, v027
	.byte	PAN	, c_v+40
	.byte	W01
	.byte		N03	, Fs4, v076
	.byte	W06
	.byte			Gn4, v084
	.byte	W06
	.byte			An4, v096
	.byte	W06
	.byte			Dn5, v104
	.byte	W12
	.byte			Dn5, v076
	.byte	W12
	.byte			Dn5, v056
	.byte	W12
	.byte			Dn5, v104
	.byte	W12
	.byte			Dn5, v056
	.byte	W06
	.byte		N12	, En5, v096
	.byte	W12
	.byte		N03	, Dn5, v104
	.byte	W06
	.byte			Dn5, v036
	.byte	W05
	.byte	PATT	
		.word	song036_8_2
	.byte	PATT	
		.word	song036_8_1
song036_8_3:
	.byte	W01
	.byte		N03	, Dn5, v024
	.byte	W06
	.byte			En5, v076
	.byte	W06
	.byte			En5, v024
	.byte	W06
	.byte			Cs5, v096
	.byte	W06
	.byte			Cs5, v036
	.byte	W06
	.byte			An4, v084
	.byte	W06
	.byte			An4, v036
	.byte	W06
	.byte		N11	, Fn4, v064
	.byte	W12
	.byte		N03	, Gn5, v084
	.byte	W03
	.byte			Gn4, v036
	.byte	W03
	.byte			An5, v084
	.byte	W03
	.byte			An4, v036
	.byte	W03
	.byte			Gn5, v084
	.byte	W03
	.byte			Gn4, v036
	.byte	W03
	.byte			Cs5, v092
	.byte	W03
	.byte			Cs4, v040
	.byte	W03
	.byte			Gn5, v096
	.byte	W03
	.byte			Gn4, v044
	.byte	W03
	.byte			An5, v100
	.byte	W03
	.byte			An4, v052
	.byte	W03
	.byte			Gn5, v116
	.byte	W05
	.byte	PEND
	.byte	PATT	
		.word	song036_8_1
	.byte	PATT	
		.word	song036_8_2
	.byte	PATT	
		.word	song036_8_1
	.byte	PATT	
		.word	song036_8_3
	.byte	W96
	.byte	W96
	.byte	W96
	.byte	W96
	.byte	W96
	.byte	W96
	.byte	W96
	.byte	W96
	.byte	W01
	.byte	VOL	, v039
	.byte	PAN	, c_v
	.byte	W92
	.byte	W03
	.byte	W96
	.byte	W96
	.byte	W96
	.byte	W96
	.byte	W96
	.byte	W96
	.byte	W96
song036_8_4:
	.byte	W13
	.byte		N06	, Fs4, v076
	.byte	W12
	.byte			Fs4, v044
	.byte	W12
	.byte			Fs4, v036
	.byte	W12
	.byte			Gn4, v080
	.byte	W12
	.byte			Gn4, v052
	.byte	W12
	.byte			An4, v080
	.byte	W12
	.byte			Dn5, v096
	.byte	W11
	.byte	PEND
song036_8_5:
	.byte	W01
	.byte		N05	, Dn5, v064
	.byte	W12
	.byte			Dn5, v056
	.byte	W12
	.byte			Dn5, v044
	.byte	W12
	.byte			Dn5, v036
	.byte	W12
	.byte			Dn5, v024
	.byte	W44
	.byte	W03
	.byte	PEND
	.byte	W13
	.byte		N06	, Fs4, v076
	.byte	W12
	.byte			Fs4, v044
	.byte	W12
	.byte			Fs4, v036
	.byte	W12
	.byte			Gn4, v080
	.byte	W12
	.byte			Gn4, v052
	.byte	W12
	.byte			An4, v080
	.byte	W12
	.byte			As4, v096
	.byte	W11
	.byte	W01
	.byte		N05	, As4, v064
	.byte	W12
	.byte			As4, v056
	.byte	W12
	.byte			As4, v044
	.byte	W12
	.byte			As4, v036
	.byte	W12
	.byte			As4, v024
	.byte	W44
	.byte	W03
	.byte	PATT	
		.word	song036_8_4
	.byte	PATT	
		.word	song036_8_5
	.byte	PATT	
		.word	song036_8_4
	.byte	W01
	.byte		N05	, Dn5, v064
	.byte	W12
	.byte			Dn5, v056
	.byte	W12
	.byte			Dn5, v044
	.byte	W12
	.byte		N06	, Cn5, v096
	.byte	W12
	.byte		N05	, Cn5, v064
	.byte	W12
	.byte		N06	, En5, v096
	.byte	W12
	.byte		N05	, En5, v064
	.byte	W12
	.byte			En5, v056
	.byte	W11
	.byte	GOTO	
		.word	song036_8_6
	.byte	FINE

	@********************** Track  9 **********************@

	.global song036_9
song036_9:	@ 0x0828081A
	.byte	KEYSH	, 0
song036_9_3:
	.byte	VOICE	, 89
	.byte	VOL	, v039
	.byte	W96
	.byte	W96
	.byte	W96
	.byte	W96
song036_9_1:
	.byte		N03	, Cn5, v084
	.byte	W30
	.byte			Cn5, v056
	.byte	W06
	.byte			Cn5, v084
	.byte	W06
	.byte			Cn5, v056
	.byte	W06
	.byte			Cn5, v084
	.byte	W24
	.byte		N03	
	.byte	W06
	.byte			Cn5, v056
	.byte	W06
	.byte			Cn5, v084
	.byte	W06
	.byte			Cn5, v056
	.byte	W06
	.byte	PEND
	.byte			Cn5, v084
	.byte	W30
	.byte			Cn5, v056
	.byte	W06
	.byte			Cn5, v084
	.byte	W06
	.byte			Cn5, v056
	.byte	W06
	.byte			Cn5, v084
	.byte	W06
	.byte			Cn5, v124
	.byte	W18
	.byte			Cn5, v084
	.byte	W06
	.byte			Cn5, v056
	.byte	W06
	.byte			Cn5, v084
	.byte	W06
	.byte		N03	
	.byte	W06
	.byte	PATT	
		.word	song036_9_1
	.byte	W96
	.byte	PATT	
		.word	song036_9_1
song036_9_2:
	.byte		N03	, Cn5, v084
	.byte	W30
	.byte			Cn5, v056
	.byte	W06
	.byte			Cn5, v084
	.byte	W06
	.byte			Cn5, v056
	.byte	W06
	.byte			Cn5, v084
	.byte	W12
	.byte		N03	
	.byte	W06
	.byte			Cn5, v056
	.byte	W06
	.byte			Cn5, v084
	.byte	W06
	.byte			Cn5, v056
	.byte	W06
	.byte			Cn5, v084
	.byte	W06
	.byte		N03	
	.byte	W06
	.byte	PEND
	.byte	PATT	
		.word	song036_9_1
	.byte	PATT	
		.word	song036_9_2
	.byte	PATT	
		.word	song036_9_1
	.byte	PATT	
		.word	song036_9_2
	.byte	PATT	
		.word	song036_9_1
	.byte	PATT	
		.word	song036_9_2
	.byte	PATT	
		.word	song036_9_1
	.byte	PATT	
		.word	song036_9_2
	.byte	PATT	
		.word	song036_9_1
	.byte	PATT	
		.word	song036_9_2
	.byte	PATT	
		.word	song036_9_1
	.byte	PATT	
		.word	song036_9_2
	.byte	PATT	
		.word	song036_9_1
	.byte	PATT	
		.word	song036_9_2
	.byte	W96
	.byte	W96
	.byte	W96
	.byte	W96
	.byte	W96
	.byte	W96
	.byte	W96
	.byte	W96
	.byte	PATT	
		.word	song036_9_1
	.byte	PATT	
		.word	song036_9_2
	.byte	PATT	
		.word	song036_9_1
	.byte	PATT	
		.word	song036_9_2
	.byte	PATT	
		.word	song036_9_1
	.byte	PATT	
		.word	song036_9_2
	.byte	PATT	
		.word	song036_9_1
	.byte	PATT	
		.word	song036_9_2
	.byte	PATT	
		.word	song036_9_1
	.byte	PATT	
		.word	song036_9_2
	.byte	PATT	
		.word	song036_9_1
	.byte	PATT	
		.word	song036_9_2
	.byte	PATT	
		.word	song036_9_1
	.byte	PATT	
		.word	song036_9_2
	.byte		N03	, Cn5, v084
	.byte	W30
	.byte			Cn5, v056
	.byte	W06
	.byte			Cn5, v084
	.byte	W06
	.byte			Cn5, v056
	.byte	W06
	.byte			Cn5, v084
	.byte	W24
	.byte		N03	
	.byte	W06
	.byte			Cn5, v056
	.byte	W18
	.byte	W12
	.byte			Cn5, v084
	.byte	W24
	.byte		N03	
	.byte	W24
	.byte		N03	
	.byte	W06
	.byte			Cn5, v056
	.byte	W06
	.byte			Cn5, v084
	.byte	W06
	.byte			Cn5, v056
	.byte	W06
	.byte			Cn5, v084
	.byte	W06
	.byte		N03	
	.byte	W06
	.byte	GOTO	
		.word	song036_9_3
	.byte	FINE

	@********************** Track  10 **********************@

	.global song036_10
song036_10:	@ 0x0828094E
	.byte	KEYSH	, 0
song036_10_3:
	.byte	VOICE	, 91
	.byte	VOL	, v039
	.byte	W96
	.byte	W96
	.byte	W96
	.byte	W96
song036_10_1:
	.byte	W12
	.byte		N18	, Cn6, v084
	.byte	W48
	.byte		N12	
	.byte	W36
	.byte	PEND
	.byte	W12
	.byte		N18	
	.byte	W84
	.byte	PATT	
		.word	song036_10_1
	.byte	W96
	.byte	PATT	
		.word	song036_10_1
song036_10_2:
	.byte	W12
	.byte		N18	, Cn6, v084
	.byte	W42
	.byte		N06	
	.byte	W42
	.byte	PEND
	.byte	PATT	
		.word	song036_10_1
	.byte	PATT	
		.word	song036_10_2
	.byte	PATT	
		.word	song036_10_1
	.byte	PATT	
		.word	song036_10_2
	.byte	PATT	
		.word	song036_10_1
	.byte	PATT	
		.word	song036_10_2
	.byte	PATT	
		.word	song036_10_1
	.byte	PATT	
		.word	song036_10_2
	.byte	PATT	
		.word	song036_10_1
	.byte	PATT	
		.word	song036_10_2
	.byte	PATT	
		.word	song036_10_1
	.byte	PATT	
		.word	song036_10_2
	.byte	PATT	
		.word	song036_10_1
	.byte	PATT	
		.word	song036_10_2
	.byte	W96
	.byte	W96
	.byte	W96
	.byte	W96
	.byte	W96
	.byte	W96
	.byte	W96
	.byte	W96
	.byte	PATT	
		.word	song036_10_1
	.byte	PATT	
		.word	song036_10_2
	.byte	PATT	
		.word	song036_10_1
	.byte	PATT	
		.word	song036_10_2
	.byte	PATT	
		.word	song036_10_1
	.byte	PATT	
		.word	song036_10_2
	.byte	PATT	
		.word	song036_10_1
	.byte	PATT	
		.word	song036_10_2
	.byte	PATT	
		.word	song036_10_1
	.byte	PATT	
		.word	song036_10_2
	.byte	PATT	
		.word	song036_10_1
	.byte	PATT	
		.word	song036_10_2
	.byte	PATT	
		.word	song036_10_1
	.byte	PATT	
		.word	song036_10_2
	.byte	W12
	.byte		N18	, Cn6, v084
	.byte	W48
	.byte		N12	
	.byte	W24
	.byte		N24	
	.byte	W12
	.byte	W96
	.byte	GOTO	
		.word	song036_10_3
	.byte	FINE

	.align 2
	.global song036
song036:	@ 0x08280A1C
	.byte	10		@ trackCount
	.byte	0		@ blockCount
	.byte	20		@ priority
	.byte	128		@ reverb

	.word	voicegroup016		@ voicegroup/tone

	.word	song036_1		@ track
	.word	song036_2		@ track
	.word	song036_3		@ track
	.word	song036_4		@ track
	.word	song036_5		@ track
	.word	song036_6		@ track
	.word	song036_7		@ track
	.word	song036_8		@ track
	.word	song036_9		@ track
	.word	song036_10		@ track
