	.include "asm/macros/c_decl.inc"
	.include "asm/macros/portable.inc"
	.include "sound/MPlayDef.s"

	mSectionRodata

	@********************** Track  1 **********************@

	mAlignWord
	.global song076_1
song076_1:	@ 0x082A513C
	.byte	KEYSH	, 0
	.byte	TEMPO	, 85
	.byte	VOICE	, 127
	.byte	VOL	, v085
	.byte	PAN	, c_v
	.byte		N11	, Fs5, v120
	.byte	W12
	.byte		N06	, En6
	.byte	W06
	.byte		N05	, Gs6
	.byte	W06
	.byte	TEMPO	, 85
	.byte		N11	, Gn7, v100
	.byte	W12
	.byte			Fs5, v120
	.byte	W12
	.byte			Gn7, v100
	.byte	W12
	.byte			Fs5, v120
	.byte	W12
	.byte			Gn7, v100
	.byte	W12
	.byte			Fs5, v120
	.byte	W12
	.byte			Gn7, v100
	.byte	W12
	.byte			Fs5, v120
	.byte	W12
song076_1_1:
	.byte		N11	, Gn7, v100
	.byte	W12
	.byte			Fs5, v120
	.byte	W12
	.byte			Gn7, v100
	.byte	W12
	.byte			Fs5, v120
	.byte	W12
	.byte			Gn7, v100
	.byte	W12
	.byte			Fs5, v120
	.byte	W12
	.byte			Gn7, v100
	.byte	W12
	.byte			Fs5, v120
	.byte	W12
	.byte	PEND
	.byte	PATT	
		.word	song076_1_1
song076_1_2:
	.byte		N11	, Gn7, v100
	.byte	W12
	.byte			Fs5, v120
	.byte	W12
	.byte			Gn7, v100
	.byte	W12
	.byte			Fs5, v120
	.byte	W12
	.byte			Gn7, v100
	.byte	W06
	.byte		N06	, Fs5, v120
	.byte	W06
	.byte		N12	, En6
	.byte	W12
	.byte		N11	, Fs5
	.byte	W12
	.byte		N06	, En6
	.byte	W06
	.byte		N05	, Gs6
	.byte	W06
	.byte	PEND
	.byte	PATT	
		.word	song076_1_1
	.byte	PATT	
		.word	song076_1_1
	.byte	PATT	
		.word	song076_1_1
song076_1_3:
	.byte		N11	, Gn7, v100
	.byte	W12
	.byte			Fs5, v120
	.byte	W12
	.byte			Gn7, v100
	.byte	W12
	.byte		N06	, Fs5, v120
	.byte	W06
	.byte		N05	, En6
	.byte	W06
	.byte		N11	, Gn7, v100
	.byte	W06
	.byte			Fs5, v120
	.byte	W06
	.byte		N12	, En6
	.byte	W12
	.byte		N11	, Fs5
	.byte	W12
	.byte		N06	, En6
	.byte	W06
	.byte		N05	, Gs6
	.byte	W06
	.byte	PEND
	.byte	PATT	
		.word	song076_1_1
	.byte	PATT	
		.word	song076_1_1
	.byte	PATT	
		.word	song076_1_1
	.byte	PATT	
		.word	song076_1_2
	.byte	PATT	
		.word	song076_1_1
	.byte	PATT	
		.word	song076_1_1
	.byte	PATT	
		.word	song076_1_1
	.byte	PATT	
		.word	song076_1_2
	.byte	PATT	
		.word	song076_1_1
	.byte	PATT	
		.word	song076_1_1
	.byte	PATT	
		.word	song076_1_1
	.byte	PATT	
		.word	song076_1_2
	.byte	PATT	
		.word	song076_1_1
	.byte	PATT	
		.word	song076_1_1
	.byte	PATT	
		.word	song076_1_1
	.byte	PATT	
		.word	song076_1_3
	.byte	PATT	
		.word	song076_1_1
	.byte	PATT	
		.word	song076_1_1
	.byte	PATT	
		.word	song076_1_1
	.byte	PATT	
		.word	song076_1_2
	.byte	PATT	
		.word	song076_1_1
	.byte	PATT	
		.word	song076_1_1
	.byte	PATT	
		.word	song076_1_1
	.byte	PATT	
		.word	song076_1_2
	.byte	PATT	
		.word	song076_1_1
	.byte	PATT	
		.word	song076_1_1
	.byte	PATT	
		.word	song076_1_1
	.byte	PATT	
		.word	song076_1_2
	.byte	PATT	
		.word	song076_1_1
	.byte	PATT	
		.word	song076_1_1
	.byte	PATT	
		.word	song076_1_1
	.byte	PATT	
		.word	song076_1_2
	.byte	PATT	
		.word	song076_1_1
	.byte	PATT	
		.word	song076_1_1
	.byte	PATT	
		.word	song076_1_1
	.byte	PATT	
		.word	song076_1_2
	.byte	PATT	
		.word	song076_1_1
	.byte	PATT	
		.word	song076_1_1
	.byte	PATT	
		.word	song076_1_1
	.byte	PATT	
		.word	song076_1_2
	.byte	PATT	
		.word	song076_1_1
	.byte	PATT	
		.word	song076_1_1
	.byte	PATT	
		.word	song076_1_1
	.byte	PATT	
		.word	song076_1_2
	.byte	PATT	
		.word	song076_1_1
	.byte	PATT	
		.word	song076_1_1
	.byte	PATT	
		.word	song076_1_1
	.byte	PATT	
		.word	song076_1_2
song076_1_4:
	.byte		N11	, Fs5, v120
	.byte	W12
	.byte			Gn7, v100
	.byte	W12
	.byte			Fs5, v120
	.byte	W12
	.byte			Gn7, v100
	.byte	W12
	.byte			Fs5, v120
	.byte	W12
	.byte			Gn7, v100
	.byte	W12
	.byte			Fs5, v120
	.byte	W12
	.byte			Gn7, v100
	.byte	W12
	.byte	PEND
	.byte	PATT	
		.word	song076_1_4
	.byte	PATT	
		.word	song076_1_4
song076_1_5:
	.byte		N11	, Fs5, v120
	.byte	W12
	.byte			Gn7, v100
	.byte	W12
	.byte			Fs5, v120
	.byte	W12
	.byte			Gn7, v100
	.byte	W06
	.byte		N06	, Fs5, v120
	.byte	W06
	.byte		N12	, En6
	.byte	W12
	.byte		N11	, Fs5
	.byte	W12
	.byte		N06	, En6
	.byte	W06
	.byte		N05	, Gs6
	.byte	W06
	.byte		N11	, Gn7, v100
	.byte	W12
	.byte	PEND
	.byte	PATT	
		.word	song076_1_4
	.byte	PATT	
		.word	song076_1_4
	.byte	PATT	
		.word	song076_1_4
	.byte	PATT	
		.word	song076_1_5
	.byte	PATT	
		.word	song076_1_1
	.byte	PATT	
		.word	song076_1_1
	.byte	PATT	
		.word	song076_1_1
	.byte	PATT	
		.word	song076_1_2
	.byte	PATT	
		.word	song076_1_1
	.byte	GOTO	
		.word	song076_1_1
	.byte		N11	, Gn7, v100
	.byte	W12
	.byte			Fs5, v120
	.byte	W12
	.byte			Gn7, v100
	.byte	W12
	.byte			Fs5, v120
	.byte	W12
	.byte			Gn7, v100
	.byte	W12
	.byte			Fs5, v120
	.byte	W12
	.byte			Gn7, v100
	.byte	W12
	.byte			Fs5, v120
	.byte	W11
	.byte	FINE

	@********************** Track  2 **********************@

	.global song076_2
song076_2:	@ 0x082A5361
	.byte	KEYSH	, 0
	.byte	VOICE	, 60
	.byte	VOL	, v053
	.byte	PAN	, c_v-19
	.byte	W24
song076_2_1:
	.byte		N04	, Ds7, v072
	.byte	W24
	.byte		N04	
	.byte	W24
	.byte		N04	
	.byte	W24
	.byte		N04	
	.byte	W24
	.byte	PEND
song076_2_4:
	.byte	PATT	
		.word	song076_2_1
	.byte	PATT	
		.word	song076_2_1
	.byte	PATT	
		.word	song076_2_1
song076_2_2:
	.byte		N04	, Ds7, v072
	.byte	W12
	.byte		N04	
	.byte	W12
	.byte		N04	
	.byte	W12
	.byte		N04	
	.byte	W12
	.byte		N04	
	.byte	W12
	.byte		N04	
	.byte	W12
	.byte		N04	
	.byte	W24
	.byte	PEND
	.byte	PATT	
		.word	song076_2_2
	.byte	PATT	
		.word	song076_2_1
	.byte	PATT	
		.word	song076_2_1
	.byte	PATT	
		.word	song076_2_2
	.byte	PATT	
		.word	song076_2_2
	.byte	PATT	
		.word	song076_2_1
	.byte	PATT	
		.word	song076_2_1
	.byte	PATT	
		.word	song076_2_2
	.byte	PATT	
		.word	song076_2_2
	.byte	PATT	
		.word	song076_2_2
	.byte	PATT	
		.word	song076_2_2
	.byte	PATT	
		.word	song076_2_2
	.byte	PATT	
		.word	song076_2_2
	.byte	PATT	
		.word	song076_2_2
	.byte	PATT	
		.word	song076_2_1
	.byte	PATT	
		.word	song076_2_2
	.byte	PATT	
		.word	song076_2_2
	.byte	PATT	
		.word	song076_2_1
	.byte	PATT	
		.word	song076_2_1
	.byte	PATT	
		.word	song076_2_2
	.byte	PATT	
		.word	song076_2_2
	.byte	PATT	
		.word	song076_2_1
	.byte	PATT	
		.word	song076_2_1
	.byte	PATT	
		.word	song076_2_2
	.byte	PATT	
		.word	song076_2_2
	.byte	PATT	
		.word	song076_2_2
	.byte	PATT	
		.word	song076_2_2
	.byte	PATT	
		.word	song076_2_2
	.byte	PATT	
		.word	song076_2_2
	.byte	PATT	
		.word	song076_2_2
	.byte	PATT	
		.word	song076_2_1
	.byte	PATT	
		.word	song076_2_1
	.byte	PATT	
		.word	song076_2_1
	.byte	PATT	
		.word	song076_2_1
	.byte	PATT	
		.word	song076_2_1
	.byte	PATT	
		.word	song076_2_1
	.byte	PATT	
		.word	song076_2_1
	.byte	PATT	
		.word	song076_2_1
	.byte	PATT	
		.word	song076_2_1
	.byte	PATT	
		.word	song076_2_2
	.byte	PATT	
		.word	song076_2_2
	.byte	PATT	
		.word	song076_2_2
	.byte	PATT	
		.word	song076_2_2
	.byte	PATT	
		.word	song076_2_2
	.byte	PATT	
		.word	song076_2_2
	.byte	PATT	
		.word	song076_2_2
	.byte	PATT	
		.word	song076_2_1
	.byte	PATT	
		.word	song076_2_1
	.byte	PATT	
		.word	song076_2_1
	.byte	PATT	
		.word	song076_2_1
	.byte	PATT	
		.word	song076_2_1
	.byte	PATT	
		.word	song076_2_1
song076_2_3:
	.byte	W12
	.byte		N04	, Ds7, v072
	.byte	W24
	.byte		N04	
	.byte	W24
	.byte		N04	
	.byte	W24
	.byte		N04	
	.byte	W12
	.byte	PEND
	.byte	PATT	
		.word	song076_2_3
	.byte	PATT	
		.word	song076_2_3
	.byte	PATT	
		.word	song076_2_3
	.byte	PATT	
		.word	song076_2_3
	.byte	PATT	
		.word	song076_2_3
	.byte	PATT	
		.word	song076_2_3
	.byte	PATT	
		.word	song076_2_1
	.byte	PATT	
		.word	song076_2_1
	.byte	PATT	
		.word	song076_2_1
	.byte	PATT	
		.word	song076_2_1
	.byte	PATT	
		.word	song076_2_1
	.byte	GOTO	
		.word	song076_2_4
	.byte		N04	, Ds7, v072
	.byte	W24
	.byte		N04	
	.byte	W24
	.byte		N04	
	.byte	W24
	.byte		N04	
	.byte	W04
	.byte	FINE

	@********************** Track  3 **********************@

	.global song076_3
song076_3:	@ 0x082A54EC
	.byte	KEYSH	, 0
	.byte	VOICE	, 61
	.byte	VOL	, v074
	.byte	PAN	, c_v-19
	.byte	W24
song076_3_1:
	.byte	W12
	.byte		N11	, Fs7, v072
	.byte	W24
	.byte		N11	
	.byte	W24
	.byte		N11	
	.byte	W24
	.byte		N11	
	.byte	W12
	.byte	PEND
song076_3_3:
	.byte	PATT	
		.word	song076_3_1
	.byte	PATT	
		.word	song076_3_1
	.byte	PATT	
		.word	song076_3_1
	.byte	W84
	.byte		N11	, Gn7, v072
	.byte	W12
	.byte	W84
	.byte		N11	
	.byte	W12
	.byte	PATT	
		.word	song076_3_1
	.byte	PATT	
		.word	song076_3_1
	.byte	W84
	.byte		N11	, Gn7, v072
	.byte	W12
	.byte	W84
	.byte		N11	
	.byte	W12
	.byte	PATT	
		.word	song076_3_1
	.byte	PATT	
		.word	song076_3_1
	.byte	W84
	.byte		N11	, Gn7, v072
	.byte	W12
	.byte	W84
	.byte		N11	
	.byte	W12
	.byte	W84
	.byte		N11	
	.byte	W12
	.byte	W84
	.byte		N11	
	.byte	W12
	.byte	W84
	.byte		N11	
	.byte	W12
	.byte	W84
	.byte		N11	
	.byte	W12
	.byte	W84
	.byte		N11	
	.byte	W12
	.byte	PATT	
		.word	song076_3_1
	.byte	W84
	.byte		N11	, Gn7, v072
	.byte	W12
	.byte	W84
	.byte		N11	
	.byte	W12
	.byte	PATT	
		.word	song076_3_1
	.byte	PATT	
		.word	song076_3_1
	.byte	W84
	.byte		N11	, Gn7, v072
	.byte	W12
	.byte	W84
	.byte		N11	
	.byte	W12
	.byte	PATT	
		.word	song076_3_1
	.byte	PATT	
		.word	song076_3_1
	.byte	W84
	.byte		N11	, Gn7, v072
	.byte	W12
	.byte	W84
	.byte		N11	
	.byte	W12
	.byte	W84
	.byte		N11	
	.byte	W12
	.byte	W84
	.byte		N11	
	.byte	W12
	.byte	W84
	.byte		N11	
	.byte	W12
	.byte	W84
	.byte		N11	
	.byte	W12
	.byte	W84
	.byte		N11	
	.byte	W12
	.byte	PATT	
		.word	song076_3_1
	.byte	PATT	
		.word	song076_3_1
	.byte	PATT	
		.word	song076_3_1
	.byte	PATT	
		.word	song076_3_1
	.byte	PATT	
		.word	song076_3_1
	.byte	PATT	
		.word	song076_3_1
	.byte	PATT	
		.word	song076_3_1
	.byte	PATT	
		.word	song076_3_1
	.byte	PATT	
		.word	song076_3_1
	.byte	W84
	.byte		N11	, Gn7, v072
	.byte	W12
	.byte	W84
	.byte		N11	
	.byte	W12
	.byte	W84
	.byte		N11	
	.byte	W12
	.byte	W84
	.byte		N11	
	.byte	W12
	.byte	W84
	.byte		N11	
	.byte	W12
	.byte	W84
	.byte		N11	
	.byte	W12
	.byte	W84
	.byte		N11	
	.byte	W12
	.byte	PATT	
		.word	song076_3_1
	.byte	PATT	
		.word	song076_3_1
	.byte	PATT	
		.word	song076_3_1
	.byte	PATT	
		.word	song076_3_1
	.byte	PATT	
		.word	song076_3_1
	.byte	PATT	
		.word	song076_3_1
song076_3_2:
	.byte		N11	, Fs7, v072
	.byte	W24
	.byte		N11	
	.byte	W24
	.byte		N11	
	.byte	W24
	.byte			Gn7
	.byte	W24
	.byte	PEND
	.byte	PATT	
		.word	song076_3_2
	.byte	PATT	
		.word	song076_3_2
	.byte	PATT	
		.word	song076_3_2
	.byte	PATT	
		.word	song076_3_2
	.byte	PATT	
		.word	song076_3_2
	.byte	PATT	
		.word	song076_3_2
	.byte	PATT	
		.word	song076_3_1
	.byte	PATT	
		.word	song076_3_1
	.byte	PATT	
		.word	song076_3_1
	.byte	PATT	
		.word	song076_3_1
	.byte	PATT	
		.word	song076_3_1
	.byte	GOTO	
		.word	song076_3_3
	.byte	W12
	.byte		N11	, Fs7, v072
	.byte	W24
	.byte		N11	
	.byte	W24
	.byte		N11	
	.byte	W24
	.byte		N11	
	.byte	W11
	.byte	FINE

	@********************** Track  4 **********************@

	.global song076_4
song076_4:	@ 0x082A5640
	.byte	KEYSH	, 0
	.byte	VOICE	, 46
	.byte	VOL	, v081
	.byte	PAN	, c_v-4
	.byte	W24
song076_4_17:
	.byte	W01
	.byte		N16	, Cn2, v104
	.byte	W24
	.byte			Bn1, v108
	.byte	W24
	.byte			As1, v100
	.byte	W12
	.byte			An1, v112
	.byte	W24
	.byte			Cn2, v104
	.byte	W11
	.byte	PEND
song076_4_18:
	.byte	W13
	.byte		N16	, Cn2, v104
	.byte	W12
	.byte			Bn1, v108
	.byte	W24
	.byte			As1, v100
	.byte	W24
	.byte			An1, v112
	.byte	W23
	.byte	PEND
song076_4_19:
	.byte	W01
	.byte		N16	, Cn2, v104
	.byte	W24
	.byte			Bn1, v108
	.byte	W24
	.byte			As1, v104
	.byte	W12
	.byte			An1, v112
	.byte	W24
	.byte			Cn2, v108
	.byte	W11
	.byte	PEND
song076_4_20:
	.byte	W13
	.byte		N16	, Cn2, v096
	.byte	W12
	.byte			Gn1, v100
	.byte	W24
	.byte		N09	, Cn2
	.byte	W12
	.byte		N16	, Gn1, v108
	.byte	W12
	.byte		N13	, Cn2, v100
	.byte	W12
	.byte		N14	, Dn2, v104
	.byte	W11
	.byte	PEND
song076_4_1:
	.byte	W01
	.byte		N18	, Fn2, v108
	.byte	W24
	.byte		N17	, Cn2, v100
	.byte	W24
	.byte		N14	, Fn2, v104
	.byte	W12
	.byte		N18	, Cn2, v092
	.byte	W24
	.byte		N21	, Dn2, v108
	.byte	W11
	.byte	PEND
song076_4_2:
	.byte	W13
	.byte		N21	, An1, v108
	.byte	W24
	.byte		N17	, Dn2
	.byte	W24
	.byte		N12	, An1, v112
	.byte	W12
	.byte		N10	, Dn2, v104
	.byte	W12
	.byte		N15	, An1, v100
	.byte	W11
	.byte	PEND
song076_4_3:
	.byte	W01
	.byte		N16	, Cn2, v108
	.byte	W24
	.byte			Bn1, v116
	.byte	W24
	.byte			As1, v100
	.byte	W12
	.byte			An1, v108
	.byte	W24
	.byte			Cn2, v112
	.byte	W11
	.byte	PEND
song076_4_4:
	.byte	W13
	.byte		N16	, Cn2, v096
	.byte	W12
	.byte			Bn1, v104
	.byte	W24
	.byte			As1, v108
	.byte	W24
	.byte			An1, v112
	.byte	W23
	.byte	PEND
song076_4_5:
	.byte	W01
	.byte		N16	, Fn2, v104
	.byte	W24
	.byte			Cn2, v112
	.byte	W24
	.byte		N15	, Fn2, v108
	.byte	W12
	.byte			Cn2, v096
	.byte	W24
	.byte		N22	, Dn2, v108
	.byte	W11
	.byte	PEND
song076_4_6:
	.byte	W13
	.byte		N18	, An1, v104
	.byte	W24
	.byte			Dn2
	.byte	W24
	.byte		N20	, En2, v112
	.byte	W24
	.byte		N11	, An1, v104
	.byte	W11
	.byte	PEND
song076_4_7:
	.byte	W01
	.byte		N17	, Cn2, v108
	.byte	W24
	.byte		N16	, Bn1
	.byte	W24
	.byte		N12	, As1, v104
	.byte	W12
	.byte		N15	, An1
	.byte	W24
	.byte		N16	, Cn2, v112
	.byte	W11
	.byte	PEND
song076_4_8:
	.byte	W13
	.byte		N14	, Cn2, v108
	.byte	W12
	.byte		N15	, Gn1, v100
	.byte	W24
	.byte		N14	, Cn2
	.byte	W12
	.byte		N12	, Bn1, v104
	.byte	W12
	.byte		N11	, Cn2, v096
	.byte	W12
	.byte		N13	, Dn2, v104
	.byte	W11
	.byte	PEND
song076_4_9:
	.byte	W01
	.byte		N16	, En2, v104
	.byte	W24
	.byte		N13	, Bn1, v112
	.byte	W24
	.byte		N16	, En2
	.byte	W12
	.byte			Bn1, v104
	.byte	W24
	.byte		N32	, An1, v116
	.byte	W11
	.byte	PEND
song076_4_10:
	.byte	W24
	.byte	W01
	.byte		N17	, En2, v120
	.byte	W24
	.byte		N14	, An1, v108
	.byte	W12
	.byte		N16	, En2
	.byte	W24
	.byte		N13	, An1, v104
	.byte	W11
	.byte	PEND
song076_4_11:
	.byte	W01
	.byte		N14	, Dn2, v116
	.byte	W24
	.byte		N16	, An1
	.byte	W24
	.byte		N13	, Dn2
	.byte	W12
	.byte		N15	, An1, v112
	.byte	W24
	.byte		N32	, Gn1
	.byte	W11
	.byte	PEND
song076_4_12:
	.byte	W24
	.byte	W01
	.byte		N13	, Dn2, v116
	.byte	W24
	.byte		N12	, Gn1, v108
	.byte	W12
	.byte			Dn2
	.byte	W24
	.byte		N11	, Gn1
	.byte	W11
	.byte	PEND
song076_4_13:
	.byte	W01
	.byte		N14	, En2, v116
	.byte	W24
	.byte		N12	, Bn1, v112
	.byte	W24
	.byte		N15	, En2, v104
	.byte	W12
	.byte		N14	, Bn1, v108
	.byte	W24
	.byte		N32	, An1, v116
	.byte	W11
	.byte	PEND
song076_4_14:
	.byte	W24
	.byte	W01
	.byte		N12	, En2, v116
	.byte	W24
	.byte		N13	, An1
	.byte	W12
	.byte		N12	, En2, v108
	.byte	W24
	.byte		N11	, An1, v116
	.byte	W11
	.byte	PEND
song076_4_15:
	.byte	W01
	.byte		N13	, Dn2, v120
	.byte	W24
	.byte			Cn2, v116
	.byte	W24
	.byte		N15	, Bn1
	.byte	W12
	.byte		N16	, An1
	.byte	W24
	.byte		N30	, Gn2, v124
	.byte	W11
	.byte	PEND
song076_4_16:
	.byte	W24
	.byte	W01
	.byte		N14	, Fn2, v120
	.byte	W24
	.byte			En2, v124
	.byte	W24
	.byte		N16	, Dn2
	.byte	W23
	.byte	PEND
	.byte	PATT	
		.word	song076_4_1
	.byte	PATT	
		.word	song076_4_2
	.byte	PATT	
		.word	song076_4_3
	.byte	PATT	
		.word	song076_4_4
	.byte	PATT	
		.word	song076_4_5
	.byte	PATT	
		.word	song076_4_6
	.byte	PATT	
		.word	song076_4_7
	.byte	PATT	
		.word	song076_4_8
	.byte	PATT	
		.word	song076_4_9
	.byte	PATT	
		.word	song076_4_10
	.byte	PATT	
		.word	song076_4_11
	.byte	PATT	
		.word	song076_4_12
	.byte	PATT	
		.word	song076_4_13
	.byte	PATT	
		.word	song076_4_14
	.byte	PATT	
		.word	song076_4_15
	.byte	PATT	
		.word	song076_4_16
song076_4_21:
	.byte	W01
	.byte		N13	, Cn2, v108
	.byte	W24
	.byte		N14	, Bn1
	.byte	W24
	.byte		N15	, As1, v096
	.byte	W12
	.byte		N13	, An1, v108
	.byte	W24
	.byte		N15	, Cn2, v104
	.byte	W11
	.byte	PEND
song076_4_22:
	.byte	W13
	.byte		N13	, Cn2, v104
	.byte	W12
	.byte		N14	, Bn1, v112
	.byte	W24
	.byte		N13	, As1, v100
	.byte	W24
	.byte			An1, v112
	.byte	W23
	.byte	PEND
song076_4_23:
	.byte	W01
	.byte		N13	, Cn2, v100
	.byte	W24
	.byte		N11	, Bn1, v112
	.byte	W24
	.byte		N14	, As1, v100
	.byte	W12
	.byte		N13	, An1, v120
	.byte	W24
	.byte		N14	, Cn2, v104
	.byte	W11
	.byte	PEND
song076_4_24:
	.byte	W13
	.byte		N13	, Cn2, v096
	.byte	W12
	.byte		N14	, Bn1, v100
	.byte	W24
	.byte			Cn2, v108
	.byte	W24
	.byte			Dn2, v112
	.byte	W23
	.byte	PEND
	.byte	PATT	
		.word	song076_4_17
	.byte	PATT	
		.word	song076_4_18
	.byte	PATT	
		.word	song076_4_19
	.byte	PATT	
		.word	song076_4_20
	.byte	PATT	
		.word	song076_4_9
	.byte	PATT	
		.word	song076_4_10
	.byte	PATT	
		.word	song076_4_11
	.byte	PATT	
		.word	song076_4_12
	.byte	PATT	
		.word	song076_4_13
	.byte	PATT	
		.word	song076_4_14
	.byte	PATT	
		.word	song076_4_15
	.byte	PATT	
		.word	song076_4_16
	.byte	PATT	
		.word	song076_4_21
	.byte	PATT	
		.word	song076_4_22
	.byte	PATT	
		.word	song076_4_23
	.byte	PATT	
		.word	song076_4_24
	.byte	W01
	.byte		N15	, Cn2, v108
	.byte	W24
	.byte		N12	, Bn1, v116
	.byte	W24
	.byte			As1, v104
	.byte	W12
	.byte			An1, v112
	.byte	W24
	.byte		N14	, Cn2, v100
	.byte	W11
	.byte	W13
	.byte		N13	, Cn2, v096
	.byte	W12
	.byte		N14	, Bn1, v108
	.byte	W24
	.byte			As1, v104
	.byte	W24
	.byte		N15	, An1, v112
	.byte	W23
	.byte	W01
	.byte		N13	, Cn2, v108
	.byte	W24
	.byte		N11	, Bn1, v116
	.byte	W24
	.byte		N14	, As1, v104
	.byte	W12
	.byte		N13	, An1, v120
	.byte	W24
	.byte		N16	, Cn2, v104
	.byte	W11
	.byte	W13
	.byte		N15	, Cn2, v096
	.byte	W12
	.byte		N13	, Bn1, v100
	.byte	W24
	.byte		N09	, As1
	.byte	W12
	.byte		N16	, Bn1, v108
	.byte	W12
	.byte		N13	, Cn2, v100
	.byte	W12
	.byte		N14	, Dn2, v104
	.byte	W11
	.byte	W01
	.byte		N13	, Gn2, v108
	.byte	W12
	.byte		N07	, Gn1, v096
	.byte	W12
	.byte		N10	
	.byte	W12
	.byte		N12	, Gn2, v108
	.byte	W12
	.byte		N05	, Gn1, v080
	.byte	W12
	.byte		N08	, Gn1, v104
	.byte	W12
	.byte		N12	, Gn2
	.byte	W12
	.byte		N11	, Gn1, v096
	.byte	W11
	.byte	W01
	.byte			Gn2, v112
	.byte	W12
	.byte		N07	, Gn1, v096
	.byte	W12
	.byte		N11	, Gn1, v100
	.byte	W12
	.byte		N12	, Gn2, v108
	.byte	W12
	.byte		N06	, Gn1, v100
	.byte	W12
	.byte		N10	, Gn1, v096
	.byte	W12
	.byte		N13	, Gn2, v104
	.byte	W12
	.byte		N08	, Gn1
	.byte	W11
	.byte	W01
	.byte		N11	, Gn2, v112
	.byte	W12
	.byte		N07	, Gn1, v100
	.byte	W12
	.byte		N09	
	.byte	W12
	.byte		N13	, Gn2, v112
	.byte	W12
	.byte		N07	, Gn1, v096
	.byte	W12
	.byte		N09	, Gn1, v104
	.byte	W12
	.byte		N12	, Gn2, v112
	.byte	W12
	.byte		N11	, Gn1, v092
	.byte	W11
	.byte	W01
	.byte		N12	, Gn2, v112
	.byte	W12
	.byte		N11	, Gn1, v104
	.byte	W12
	.byte		N12	, Fn2, v108
	.byte	W12
	.byte		N13	, Gn1, v096
	.byte	W12
	.byte		N11	, En2, v116
	.byte	W12
	.byte		N14	, Gn1, v100
	.byte	W12
	.byte		N12	, Dn2
	.byte	W12
	.byte			Gn1
	.byte	W11
	.byte	PATT	
		.word	song076_4_17
	.byte	PATT	
		.word	song076_4_18
	.byte	PATT	
		.word	song076_4_19
	.byte	PATT	
		.word	song076_4_20
	.byte	PATT	
		.word	song076_4_17
	.byte	GOTO	
		.word	song076_4_18
	.byte	W13
	.byte		N16	, Cn2, v104
	.byte	W12
	.byte			Bn1, v108
	.byte	W24
	.byte			As1, v100
	.byte	W24
	.byte			An1, v112
	.byte	W16
	.byte	FINE

	@********************** Track  5 **********************@

	.global song076_5
song076_5:	@ 0x082A59A5
	.byte	KEYSH	, 0
	.byte	VOICE	, 98
	.byte	VOL	, v070
	.byte	PAN	, c_v+56
	.byte	W24
song076_5_1:
	.byte	W12
	.byte		N04	, An2, v096
	.byte	W24
	.byte			An2, v088
	.byte	W24
	.byte			An2, v100
	.byte	W24
	.byte			An2, v112
	.byte	W12
	.byte	PEND
song076_5_2:
	.byte	W12
	.byte		N04	, An2, v100
	.byte	W24
	.byte			An2, v088
	.byte	W24
	.byte			An2, v104
	.byte	W24
	.byte			An2, v100
	.byte	W12
	.byte	PEND
	.byte	PATT	
		.word	song076_5_1
	.byte	PATT	
		.word	song076_5_2
	.byte	PATT	
		.word	song076_5_2
song076_5_3:
	.byte	W12
	.byte		N04	, Bn2, v104
	.byte	W24
	.byte		N04	
	.byte	W24
	.byte			Bn2, v100
	.byte	W24
	.byte			Bn2, v104
	.byte	W12
	.byte	PEND
song076_5_4:
	.byte	W12
	.byte		N04	, An2, v092
	.byte	W24
	.byte			An2, v100
	.byte	W24
	.byte			An2, v096
	.byte	W24
	.byte			An2, v088
	.byte	W12
	.byte	PEND
song076_5_5:
	.byte	W12
	.byte		N04	, An2, v104
	.byte	W24
	.byte		N04	
	.byte	W24
	.byte		N04	
	.byte	W24
	.byte			An2, v096
	.byte	W12
	.byte	PEND
song076_5_6:
	.byte	W12
	.byte		N04	, An2, v104
	.byte	W24
	.byte			An2, v092
	.byte	W24
	.byte		N04	
	.byte	W24
	.byte			An2, v108
	.byte	W12
	.byte	PEND
song076_5_7:
	.byte	W12
	.byte		N04	, Bn2, v104
	.byte	W24
	.byte		N04	
	.byte	W24
	.byte		N04	
	.byte	W24
	.byte			Bn2, v096
	.byte	W12
	.byte	PEND
song076_5_8:
	.byte	W12
	.byte		N04	, An2, v084
	.byte	W24
	.byte			An2, v088
	.byte	W24
	.byte			An2, v080
	.byte	W24
	.byte			An2, v072
	.byte	W12
	.byte	PEND
	.byte	PATT	
		.word	song076_5_1
	.byte	W96
	.byte	W96
	.byte	W96
	.byte	W96
	.byte	W96
	.byte	W96
	.byte		N04	, Bn2, v120
	.byte	W12
	.byte			Bn2, v104
	.byte	W12
	.byte			An2, v112
	.byte	W12
	.byte			An2, v116
	.byte	W12
	.byte			Gs2, v112
	.byte	W12
	.byte			Gs2, v116
	.byte	W12
	.byte		N09	, Fs2, v112
	.byte	W12
	.byte		N19	, En3, v104
	.byte	W12
song076_5_9:
	.byte	W12
	.byte		N09	, En3, v108
	.byte	W12
	.byte		N14	, Dn3
	.byte	W24
	.byte		N13	, Cs3
	.byte	W24
	.byte		N22	, Bn2
	.byte	W24
	.byte	PEND
	.byte	PATT	
		.word	song076_5_2
	.byte	PATT	
		.word	song076_5_3
	.byte	PATT	
		.word	song076_5_4
	.byte	PATT	
		.word	song076_5_5
	.byte	PATT	
		.word	song076_5_6
	.byte	PATT	
		.word	song076_5_7
	.byte	PATT	
		.word	song076_5_8
	.byte	PATT	
		.word	song076_5_1
	.byte		N36	, Cs3, v100
	.byte	W48
	.byte		N12	, Cs3, v092
	.byte	W12
	.byte		N11	, Dn3
	.byte	W12
	.byte		N08	, En3, v100
	.byte	W12
	.byte		N06	, Cs3, v096
	.byte	W12
	.byte	W12
	.byte			Bn2, v100
	.byte	W24
	.byte		N07	, As2, v096
	.byte	W24
	.byte		N30	, Cs3, v108
	.byte	W36
	.byte		N36	, Bn2, v116
	.byte	W48
	.byte		N12	, An2, v104
	.byte	W12
	.byte			Gs2, v096
	.byte	W12
	.byte			Fs2
	.byte	W12
	.byte		N24	, Gs2, v104
	.byte	W12
	.byte	W12
	.byte		N13	, An2, v100
	.byte	W12
	.byte		N10	, Bn2, v088
	.byte	W12
	.byte		N44	, En2, v096
	.byte	W60
	.byte		N36	, Cs3, v100
	.byte	W48
	.byte		N12	
	.byte	W12
	.byte			Dn3
	.byte	W12
	.byte		N07	, En3, v104
	.byte	W12
	.byte		N06	, Cs3
	.byte	W12
	.byte	W12
	.byte			Bn2, v112
	.byte	W24
	.byte		N09	, As2, v092
	.byte	W24
	.byte		N28	, Cs3, v108
	.byte	W36
	.byte		N04	, Bn2, v100
	.byte	W12
	.byte			Bn2, v108
	.byte	W12
	.byte			An2, v120
	.byte	W12
	.byte			An2, v108
	.byte	W12
	.byte			Gs2, v112
	.byte	W12
	.byte			Gs2, v108
	.byte	W12
	.byte		N09	, Fs2, v116
	.byte	W12
	.byte		N19	, En3, v104
	.byte	W12
	.byte	W12
	.byte		N09	, En3, v108
	.byte	W12
	.byte		N08	, Dn3
	.byte	W24
	.byte			Cs3
	.byte	W24
	.byte		N22	, Bn2
	.byte	W24
	.byte	PATT	
		.word	song076_5_1
	.byte	PATT	
		.word	song076_5_2
	.byte	PATT	
		.word	song076_5_1
	.byte	W12
	.byte		N04	, An2, v100
	.byte	W24
	.byte			An2, v088
	.byte	W24
	.byte			An2, v104
	.byte	W12
	.byte		N14	, En2, v092
	.byte	W12
	.byte		N06	, An2, v100
	.byte	W12
	.byte		N04	, Cs3, v112
	.byte	W24
	.byte		N05	, Cn3, v108
	.byte	W24
	.byte		N11	, Bn2, v112
	.byte	W12
	.byte		N05	, An2, v104
	.byte	W24
	.byte			Cs3, v108
	.byte	W12
	.byte	W12
	.byte		N10	
	.byte	W12
	.byte		N04	, Cn3, v120
	.byte	W24
	.byte			Bn2, v116
	.byte	W24
	.byte		N23	, An2, v108
	.byte	W24
	.byte		N05	, Cs3
	.byte	W24
	.byte			Cn3, v112
	.byte	W24
	.byte		N12	, Bn2
	.byte	W12
	.byte		N05	, An2, v100
	.byte	W24
	.byte			Bn2, v112
	.byte	W12
	.byte	W12
	.byte		N42	, An2
	.byte	W84
	.byte		N36	, Fn2, v104
	.byte	W48
	.byte		N11	, Fn2, v084
	.byte	W12
	.byte			Fs2, v092
	.byte	W12
	.byte		N07	, Gs2
	.byte	W12
	.byte		N14	, An2
	.byte	W12
	.byte	W12
	.byte		N12	, Bn2
	.byte	W24
	.byte		N06	, Cn3, v088
	.byte	W06
	.byte		N19	, Cs3, v084
	.byte	W18
	.byte		N09	, Bn2, v092
	.byte	W12
	.byte		N24	, As2, v076
	.byte	W24
	.byte		N44	, Bn2, v096
	.byte	W48
	.byte		N12	, Bn2, v092
	.byte	W12
	.byte			Cs3, v080
	.byte	W12
	.byte		N11	, Dn3, v092
	.byte	W12
	.byte		N06	, Cn3, v088
	.byte	W06
	.byte		N17	, Cs3, v092
	.byte	W06
	.byte	W12
	.byte		N12	, Bn2, v100
	.byte	W12
	.byte		N11	, An2
	.byte	W12
	.byte		N42	, Gs2, v092
	.byte	W60
	.byte		N40	, Fn2, v108
	.byte	W48
	.byte		N12	, Fn2, v096
	.byte	W12
	.byte			Fs2, v092
	.byte	W12
	.byte		N11	, Gs2, v104
	.byte	W12
	.byte		N16	, An2, v108
	.byte	W12
	.byte	W12
	.byte		N12	, Bn2
	.byte	W24
	.byte		N06	, Cn3, v092
	.byte	W06
	.byte		N18	, Cs3, v096
	.byte	W18
	.byte		N12	, Bn2, v100
	.byte	W12
	.byte		N19	, As2, v088
	.byte	W24
	.byte		N52	, Bn2, v108
	.byte	W84
	.byte		N19	, En3, v104
	.byte	W12
	.byte	PATT	
		.word	song076_5_9
	.byte	PATT	
		.word	song076_5_1
	.byte	PATT	
		.word	song076_5_2
	.byte	PATT	
		.word	song076_5_1
song076_5_10:
	.byte	W12
	.byte		N04	, An2, v100
	.byte	W24
	.byte			An2, v088
	.byte	W24
	.byte			An2, v104
	.byte	W36
	.byte	PEND
	.byte	PATT	
		.word	song076_5_1
	.byte	PATT	
		.word	song076_5_2
	.byte	PATT	
		.word	song076_5_1
	.byte	PATT	
		.word	song076_5_10
	.byte	W96
	.byte	W96
	.byte	W96
	.byte	W96
	.byte	PATT	
		.word	song076_5_1
	.byte	PATT	
		.word	song076_5_2
	.byte	PATT	
		.word	song076_5_1
	.byte	PATT	
		.word	song076_5_2
	.byte	PATT	
		.word	song076_5_1
	.byte	GOTO	
		.word	song076_5_2
	.byte	W12
	.byte		N04	, An2, v100
	.byte	W24
	.byte			An2, v088
	.byte	W24
	.byte			An2, v104
	.byte	W24
	.byte			An2, v100
	.byte	W04
	.byte	FINE

	@********************** Track  6 **********************@

	.global song076_6
song076_6:	@ 0x082A5C3F
	.byte	KEYSH	, 0
	.byte	VOICE	, 103
	.byte	VOL	, v070
	.byte	PAN	, c_v-31
	.byte	W24
	.byte	W96
song076_6_9:
	.byte	W96
	.byte	W96
	.byte	W96
	.byte	W96
	.byte	W96
	.byte	W96
	.byte	W96
	.byte	W96
	.byte	W96
	.byte	W96
	.byte	W96
song076_6_1:
	.byte	W13
	.byte		N04	, Cn3, v096
	.byte	W11
	.byte		N12	, Cn3, v084
	.byte	W24
	.byte	W01
	.byte		N06	, Cn3, v096
	.byte	W11
	.byte		N11	, Cn3, v092
	.byte	W36
	.byte	PEND
song076_6_2:
	.byte	W12
	.byte		N05	, Fn2, v108
	.byte	W11
	.byte		N10	, Fn2, v104
	.byte	W60
	.byte	W02
	.byte		N13	, Fn2, v112
	.byte	W11
	.byte	PEND
song076_6_3:
	.byte	W14
	.byte		N07	, As2, v088
	.byte	W11
	.byte		N11	, As2, v092
	.byte	W24
	.byte	W01
	.byte		N07	
	.byte	W11
	.byte		N09	
	.byte	W32
	.byte	W03
	.byte	PEND
song076_6_4:
	.byte	W10
	.byte		N08	, Ds2, v100
	.byte	W12
	.byte		N09	
	.byte	W24
	.byte	W01
	.byte		N15	, Ds2, v112
	.byte	W48
	.byte	W01
	.byte	PEND
song076_6_5:
	.byte	W14
	.byte		N05	, Cn3, v088
	.byte	W10
	.byte		N11	, Cn3, v100
	.byte	W24
	.byte	W01
	.byte		N06	, Cn3, v088
	.byte	W12
	.byte		N08	, Cn3, v092
	.byte	W32
	.byte	W03
	.byte	PEND
song076_6_6:
	.byte	W92
	.byte	W03
	.byte		N13	, As2, v104
	.byte	W01
	.byte	PEND
song076_6_7:
	.byte	W24
	.byte	W01
	.byte		N11	, Gs2, v120
	.byte	W24
	.byte			Gn2
	.byte	W23
	.byte		N16	, Fn2
	.byte	W24
	.byte	PEND
	.byte	W96
	.byte	W96
	.byte	W96
	.byte	W96
	.byte	W96
	.byte	W96
	.byte	W96
	.byte	W96
	.byte	W96
	.byte	PATT	
		.word	song076_6_1
	.byte	PATT	
		.word	song076_6_2
	.byte	PATT	
		.word	song076_6_3
	.byte	PATT	
		.word	song076_6_4
	.byte	PATT	
		.word	song076_6_5
	.byte	PATT	
		.word	song076_6_6
	.byte	PATT	
		.word	song076_6_7
	.byte	W96
	.byte	W96
	.byte	W96
	.byte	W96
	.byte	W96
	.byte	W96
	.byte	W96
	.byte	W96
	.byte	W96
	.byte	PATT	
		.word	song076_6_1
	.byte	PATT	
		.word	song076_6_2
	.byte	PATT	
		.word	song076_6_3
	.byte	PATT	
		.word	song076_6_4
	.byte	PATT	
		.word	song076_6_5
	.byte	PATT	
		.word	song076_6_6
	.byte	PATT	
		.word	song076_6_7
	.byte	W96
	.byte	W96
	.byte	W96
	.byte	W96
	.byte	W96
	.byte	W96
	.byte	W96
	.byte	W96
	.byte	W96
	.byte	W14
	.byte		N05	, Ds3, v088
	.byte	W10
	.byte		N11	, Ds3, v100
	.byte	W24
	.byte	W01
	.byte		N06	, Ds3, v088
	.byte	W12
	.byte		N08	, Ds3, v092
	.byte	W24
	.byte	W01
	.byte		N05	, Ds3, v088
	.byte	W10
song076_6_8:
	.byte	W14
	.byte		N05	, Ds3, v088
	.byte	W10
	.byte		N11	, Ds3, v100
	.byte	W24
	.byte	W01
	.byte		N06	, Ds3, v088
	.byte	W12
	.byte		N08	, Ds3, v092
	.byte	W32
	.byte	W03
	.byte	PEND
	.byte	PATT	
		.word	song076_6_8
	.byte	PATT	
		.word	song076_6_8
	.byte	W96
	.byte	W96
	.byte	W96
	.byte	W96
	.byte	W96
	.byte	GOTO	
		.word	song076_6_9
	.byte	FINE

	@********************** Track  7 **********************@

	.global song076_7
song076_7:	@ 0x082A5D5C
	.byte	KEYSH	, 0
	.byte	VOICE	, 104
	.byte	VOL	, v063
	.byte	PAN	, c_v-31
	.byte	W24
song076_7_13:
	.byte		N13	, Gs2, v116
	.byte	W24
	.byte		N15	, Gn2
	.byte	W24
	.byte		N13	, Fs2, v104
	.byte	W12
	.byte		N15	, Fn2
	.byte	W24
	.byte			Gs2, v120
	.byte	W12
	.byte	PEND
song076_7_14:
	.byte	W12
	.byte		N14	, Gs2, v112
	.byte	W12
	.byte		N15	, Gn2, v116
	.byte	W24
	.byte		N14	, Fs2, v108
	.byte	W24
	.byte		N24	, Fn2, v112
	.byte	W24
	.byte	PEND
song076_7_15:
	.byte		N15	, Gs2, v116
	.byte	W24
	.byte			Gn2, v120
	.byte	W24
	.byte		N14	, Fs2, v104
	.byte	W12
	.byte		N18	, Fn2, v116
	.byte	W24
	.byte		N14	, Gs2
	.byte	W12
	.byte	PEND
song076_7_16:
	.byte	W12
	.byte		N11	, Gs2, v104
	.byte	W12
	.byte		N24	, Ds2, v088
	.byte	W24
	.byte		N15	, Gs2, v100
	.byte	W12
	.byte		N42	, Ds2, v108
	.byte	W36
	.byte	PEND
	.byte	W96
	.byte	W96
song076_7_1:
	.byte		N14	, Gs2, v120
	.byte	W24
	.byte		N16	, Gn2, v116
	.byte	W24
	.byte		N14	, Fs2, v108
	.byte	W12
	.byte		N16	, Fn2, v116
	.byte	W24
	.byte		N14	, Gs2, v124
	.byte	W12
	.byte	PEND
song076_7_2:
	.byte	W12
	.byte		N13	, Gs2, v104
	.byte	W12
	.byte		N14	, Gn2, v112
	.byte	W24
	.byte			Fs2, v108
	.byte	W24
	.byte		N28	, Fn2, v120
	.byte	W24
	.byte	PEND
	.byte	W96
	.byte	W96
song076_7_3:
	.byte		N13	, Gs2, v120
	.byte	W24
	.byte		N16	, Gn2
	.byte	W24
	.byte		N15	, Fs2, v100
	.byte	W12
	.byte		N18	, Fn2, v112
	.byte	W24
	.byte		N16	, Gs2, v116
	.byte	W12
	.byte	PEND
song076_7_4:
	.byte	W12
	.byte		N14	, Gs2, v108
	.byte	W12
	.byte		N21	, Ds2, v088
	.byte	W24
	.byte		N12	, Gs2, v108
	.byte	W12
	.byte			Gn2, v112
	.byte	W12
	.byte		N11	, Gs2, v100
	.byte	W12
	.byte		N12	, As2, v084
	.byte	W12
	.byte	PEND
song076_7_5:
	.byte		N13	, Cn3, v096
	.byte	W36
	.byte		N12	, Cn3, v108
	.byte	W36
	.byte		N11	, Cn3, v100
	.byte	W12
	.byte		N30	, Fn2, v088
	.byte	W12
	.byte	PEND
song076_7_6:
	.byte	W24
	.byte		N24	, Fn2, v104
	.byte	W36
	.byte		N32	, Fn2, v108
	.byte	W36
	.byte	PEND
song076_7_7:
	.byte		N23	, As2, v096
	.byte	W36
	.byte		N22	
	.byte	W36
	.byte		N13	
	.byte	W12
	.byte		N24	, Ds2, v092
	.byte	W12
	.byte	PEND
song076_7_8:
	.byte	W24
	.byte		N23	, Ds2, v092
	.byte	W36
	.byte			Ds2, v100
	.byte	W36
	.byte	PEND
song076_7_9:
	.byte		N13	, Cn3, v108
	.byte	W36
	.byte		N12	, Cn3, v100
	.byte	W36
	.byte		N09	, Cn3, v104
	.byte	W12
	.byte		N28	, Fn2, v108
	.byte	W12
	.byte	PEND
song076_7_10:
	.byte	W24
	.byte		N24	, Fn2, v100
	.byte	W36
	.byte		N30	
	.byte	W36
	.byte	PEND
song076_7_11:
	.byte	W14
	.byte		N09	, As2, v096
	.byte	W18
	.byte		N15	, Gs2, v116
	.byte	W24
	.byte		N14	, Gn2, v120
	.byte	W28
	.byte		N13	, Ds3, v112
	.byte	W12
	.byte	PEND
song076_7_12:
	.byte	W12
	.byte		N11	, Ds3, v108
	.byte	W12
	.byte		N17	, Cs3, v112
	.byte	W24
	.byte			Cn3, v116
	.byte	W24
	.byte		N23	, As2, v100
	.byte	W24
	.byte	PEND
	.byte	W96
	.byte	W96
	.byte	PATT	
		.word	song076_7_1
	.byte	PATT	
		.word	song076_7_2
	.byte	W96
	.byte	W96
	.byte	PATT	
		.word	song076_7_3
	.byte	PATT	
		.word	song076_7_4
	.byte	PATT	
		.word	song076_7_5
	.byte	PATT	
		.word	song076_7_6
	.byte	PATT	
		.word	song076_7_7
	.byte	PATT	
		.word	song076_7_8
	.byte	PATT	
		.word	song076_7_9
	.byte	PATT	
		.word	song076_7_10
	.byte	PATT	
		.word	song076_7_11
	.byte	PATT	
		.word	song076_7_12
song076_7_17:
	.byte		N17	, Gs2, v120
	.byte	W24
	.byte		N15	, Gn2, v108
	.byte	W24
	.byte		N11	, Fs2, v100
	.byte	W12
	.byte		N16	, Fn2, v116
	.byte	W24
	.byte		N15	, Gs2, v120
	.byte	W12
	.byte	PEND
song076_7_18:
	.byte	W12
	.byte		N11	, Gs2, v108
	.byte	W12
	.byte		N16	, Gn2, v112
	.byte	W24
	.byte		N13	, Fs2, v104
	.byte	W24
	.byte		N23	, Fn2
	.byte	W24
	.byte	PEND
song076_7_19:
	.byte		N15	, Gs2, v112
	.byte	W24
	.byte			Gn2
	.byte	W24
	.byte		N11	, Fs2, v104
	.byte	W12
	.byte		N16	, Fn2, v116
	.byte	W24
	.byte		N14	, Gs2, v112
	.byte	W12
	.byte	PEND
song076_7_20:
	.byte	W12
	.byte		N12	, Gs2, v104
	.byte	W12
	.byte		N16	, Gn2, v108
	.byte	W24
	.byte		N15	, Gs2, v116
	.byte	W24
	.byte		N24	, As2, v096
	.byte	W24
	.byte	PEND
	.byte	PATT	
		.word	song076_7_13
	.byte	PATT	
		.word	song076_7_14
	.byte	PATT	
		.word	song076_7_15
	.byte	PATT	
		.word	song076_7_16
	.byte	PATT	
		.word	song076_7_5
	.byte	PATT	
		.word	song076_7_6
	.byte	PATT	
		.word	song076_7_7
	.byte	PATT	
		.word	song076_7_8
	.byte	PATT	
		.word	song076_7_9
	.byte	PATT	
		.word	song076_7_10
	.byte	PATT	
		.word	song076_7_11
	.byte	PATT	
		.word	song076_7_12
	.byte	PATT	
		.word	song076_7_17
	.byte	PATT	
		.word	song076_7_18
	.byte	PATT	
		.word	song076_7_19
	.byte	PATT	
		.word	song076_7_20
	.byte		N15	, Gs2, v116
	.byte	W24
	.byte			Gn2
	.byte	W24
	.byte		N11	, Fs2, v108
	.byte	W12
	.byte		N15	, Fn2, v112
	.byte	W24
	.byte		N12	, Gs2, v116
	.byte	W12
	.byte	W12
	.byte		N10	, Gs2, v112
	.byte	W12
	.byte		N16	, Gn2, v116
	.byte	W24
	.byte		N14	, Fs2, v112
	.byte	W24
	.byte		N19	, Fn2, v108
	.byte	W24
	.byte		N17	, Gs2, v120
	.byte	W24
	.byte		N16	, Gn2, v116
	.byte	W24
	.byte		N11	, Fs2, v112
	.byte	W12
	.byte		N17	, Fn2, v116
	.byte	W24
	.byte		N13	, Gs2
	.byte	W12
	.byte	W12
	.byte		N11	, Gs2, v112
	.byte	W12
	.byte		N14	, Gn2, v108
	.byte	W24
	.byte		N11	, Gs2, v116
	.byte	W12
	.byte		N32	, Ds2, v100
	.byte	W36
	.byte		N12	, Ds2, v116
	.byte	W36
	.byte			Ds2, v108
	.byte	W36
	.byte			Ds2, v116
	.byte	W24
	.byte		N12	
	.byte	W36
	.byte			Ds2, v112
	.byte	W36
	.byte		N23	, Ds2, v116
	.byte	W24
	.byte		N15	, Ds3, v112
	.byte	W36
	.byte			Ds3, v124
	.byte	W36
	.byte		N22	, Ds3, v116
	.byte	W24
	.byte		N12	, Ds3, v120
	.byte	W36
	.byte		N13	, Ds3, v116
	.byte	W36
	.byte		N23	, Ds3, v120
	.byte	W24
	.byte	PATT	
		.word	song076_7_13
	.byte	PATT	
		.word	song076_7_14
	.byte	PATT	
		.word	song076_7_15
	.byte	PATT	
		.word	song076_7_16
	.byte	PATT	
		.word	song076_7_13
	.byte	GOTO	
		.word	song076_7_14
	.byte	PATT	
		.word	song076_7_14
	.byte	FINE

	@********************** Track  8 **********************@

	.global song076_8
song076_8:	@ 0x082A5FE2
	.byte	KEYSH	, 0
	.byte	VOICE	, 76
	.byte	VOL	, v081
	.byte	PAN	, c_v-24
	.byte	W24
song076_8_17:
	.byte		N10	, En4, v116
	.byte	W24
	.byte		N11	, Ds4
	.byte	W24
	.byte		N12	, Dn4
	.byte	W12
	.byte			Cn4, v120
	.byte	W24
	.byte			En4, v112
	.byte	W12
	.byte	PEND
song076_8_18:
	.byte	W12
	.byte		N12	, En4, v108
	.byte	W12
	.byte		N14	, Ds4
	.byte	W24
	.byte		N12	, Dn4, v124
	.byte	W24
	.byte		N22	, Cn4, v120
	.byte	W24
	.byte	PEND
song076_8_19:
	.byte		N11	, En4, v112
	.byte	W24
	.byte		N10	, Ds4, v108
	.byte	W24
	.byte		N12	, Dn4, v116
	.byte	W12
	.byte			Cn4, v112
	.byte	W24
	.byte		N11	, Dn4, v120
	.byte	W12
	.byte	PEND
song076_8_20:
	.byte	W12
	.byte		N32	, Cn4, v116
	.byte	W32
	.byte	W01
	.byte		N04	, Bn3, v084
	.byte	W02
	.byte			An3
	.byte	W02
	.byte			Gn3, v092
	.byte	W02
	.byte			Fn3, v080
	.byte	W02
	.byte			En3, v100
	.byte	W01
	.byte			Dn3, v096
	.byte	W02
	.byte			Cn3, v088
	.byte	W01
	.byte			Bn2
	.byte	W01
	.byte			An2, v080
	.byte	W02
	.byte			Gn2, v068
	.byte	W01
	.byte			Fn2, v052
	.byte	W01
	.byte			En2, v060
	.byte	W01
	.byte			Dn2, v056
	.byte	W01
	.byte			Cn2, v060
	.byte	W02
	.byte			Bn1, v004
	.byte	W04
	.byte			Gn1, v084
	.byte	W02
	.byte			An1, v100
	.byte	W02
	.byte			As1, v108
	.byte	W02
	.byte			Cn2
	.byte	W02
	.byte			Dn2
	.byte	W02
	.byte			En2, v104
	.byte	W01
	.byte			Fn2
	.byte	W02
	.byte		N06	, Gn2
	.byte	W01
	.byte		N04	, An2, v108
	.byte	W02
	.byte			As2, v100
	.byte	W02
	.byte			Cn3
	.byte	W01
	.byte			Dn3, v104
	.byte	W02
	.byte			En3, v096
	.byte	W02
	.byte			Fn3, v092
	.byte	W03
	.byte	PEND
song076_8_1:
	.byte		N08	, An3, v116
	.byte	W24
	.byte		N10	
	.byte	W24
	.byte		N12	, Gn3
	.byte	W12
	.byte		N10	, An3, v112
	.byte	W24
	.byte		N11	, Bn3, v104
	.byte	W12
	.byte	PEND
song076_8_2:
	.byte	W12
	.byte		N10	, Bn3, v104
	.byte	W12
	.byte		N11	, Gn3, v120
	.byte	W24
	.byte			Bn3, v100
	.byte	W12
	.byte			Cn4, v108
	.byte	W12
	.byte		N12	, Dn4, v120
	.byte	W24
	.byte	PEND
song076_8_3:
	.byte		N28	, Cn4, v124
	.byte	W24
	.byte	W02
	.byte		N04	, Bn3, v064
	.byte	W03
	.byte			An3, v088
	.byte	W03
	.byte			Gn3, v096
	.byte	W03
	.byte			Fn3, v092
	.byte	W02
	.byte			En3, v084
	.byte	W02
	.byte		N05	, Dn3, v088
	.byte	W02
	.byte		N04	, Cn3, v068
	.byte	W02
	.byte			Bn2, v092
	.byte	W01
	.byte			An2, v096
	.byte	W02
	.byte			Gn2
	.byte	W01
	.byte			Fn2
	.byte	W01
	.byte			En2, v100
	.byte	W02
	.byte			Dn2, v088
	.byte	W01
	.byte			Cn2, v092
	.byte	W01
	.byte			Bn1, v096
	.byte	W01
	.byte			An1
	.byte	W01
	.byte			Gn1, v072
	.byte	W02
	.byte			Fn1, v052
	.byte	W02
	.byte			En1, v024
	.byte	W02
	.byte			Bn0, v040
	.byte		N04	, Cn1, v004
	.byte		N04	, Dn1
	.byte	W01
	.byte			An0, v056
	.byte	W01
	.byte			Gn0, v040
	.byte	W32
	.byte	W02
	.byte	PEND
song076_8_4:
	.byte	W68
	.byte	W02
	.byte		N04	, Bn1, v040
	.byte	W03
	.byte			Cn2, v100
	.byte	W03
	.byte			Dn2, v108
	.byte	W03
	.byte			En2
	.byte	W02
	.byte			Fn2
	.byte	W02
	.byte			Gn2, v100
	.byte	W01
	.byte			An2, v092
	.byte	W02
	.byte			Bn2, v068
	.byte	W01
	.byte			Cn3, v060
	.byte	W03
	.byte			Dn3, v008
	.byte	W06
	.byte	PEND
song076_8_5:
	.byte		N13	, Cn4, v092
	.byte	W24
	.byte			Bn3, v088
	.byte	W24
	.byte		N11	, An3, v100
	.byte	W12
	.byte		N10	, Bn3, v108
	.byte	W24
	.byte		N11	, Gn3
	.byte	W12
	.byte	PEND
song076_8_6:
	.byte	W12
	.byte		N10	, Gn3, v112
	.byte	W12
	.byte		N11	, Fn3, v108
	.byte	W24
	.byte		N12	, En3, v112
	.byte	W24
	.byte		N11	, Fn3, v120
	.byte	W24
	.byte	PEND
song076_8_7:
	.byte		N22	, Cn4, v112
	.byte	W20
	.byte		N04	, Bn3, v072
	.byte	W02
	.byte		N05	, An3, v080
	.byte	W03
	.byte		N04	, Gn3, v072
	.byte	W01
	.byte			Fn3, v092
	.byte	W02
	.byte			En3, v084
	.byte	W01
	.byte			Dn3, v092
	.byte	W02
	.byte			Cn3, v076
	.byte	W01
	.byte			Bn2, v060
	.byte	W02
	.byte			An2, v036
	.byte	W01
	.byte			Gn2, v028
	.byte	W03
	.byte			En2, v004
	.byte	W02
	.byte			Bn1
	.byte	W01
	.byte			Fn1, v072
	.byte		N04	, Gn1, v024
	.byte	W01
	.byte			En1, v088
	.byte	W01
	.byte			Dn1, v100
	.byte	W01
	.byte			Cn1, v072
	.byte	W02
	.byte			Bn0, v056
	.byte	W48
	.byte	W02
	.byte	PEND
song076_8_8:
	.byte	W68
	.byte		N04	, Dn2, v048
	.byte	W02
	.byte			En2, v092
	.byte	W03
	.byte			Fs2, v108
	.byte	W02
	.byte			Gs2, v104
	.byte	W03
	.byte			An2, v112
	.byte	W01
	.byte		N03	, Bn2
	.byte	W02
	.byte		N04	, Cs3
	.byte	W02
	.byte			Dn3, v108
	.byte	W01
	.byte			En3, v104
	.byte	W02
	.byte			Fs3, v100
	.byte	W01
	.byte			Gs3, v108
	.byte	W01
	.byte			An3, v104
	.byte	W02
	.byte			Bn3
	.byte	W02
	.byte		N02	, Cs4, v108
	.byte		N02	, Dn4, v088
	.byte	W04
	.byte	PEND
song076_8_9:
	.byte		N42	, En4, v108
	.byte	W48
	.byte		N10	, En4, v100
	.byte	W12
	.byte		N11	, Fn4, v088
	.byte	W12
	.byte		N07	, Gn4, v092
	.byte	W12
	.byte		N12	, En4, v100
	.byte	W12
	.byte	PEND
song076_8_10:
	.byte	W12
	.byte		N11	, Dn4, v112
	.byte	W24
	.byte		N12	, Cs4, v116
	.byte	W24
	.byte		N32	, En4, v096
	.byte	W36
	.byte	PEND
song076_8_11:
	.byte		N48	, Dn4, v112
	.byte	W48
	.byte		N12	, Cn4
	.byte	W12
	.byte			Bn3, v108
	.byte	W12
	.byte			An3
	.byte	W12
	.byte		N23	, Bn3, v120
	.byte	W12
	.byte	PEND
song076_8_12:
	.byte	W12
	.byte		N12	, Cn4, v112
	.byte	W12
	.byte		N10	, Dn4
	.byte	W12
	.byte		N52	, Gn3, v100
	.byte	W60
	.byte	PEND
song076_8_13:
	.byte		N60	, En4, v100
	.byte	W60
	.byte		N12	, Fn4
	.byte	W12
	.byte		N11	, Gn4, v104
	.byte	W12
	.byte		N12	, En4, v112
	.byte	W12
	.byte	PEND
song076_8_14:
	.byte	W12
	.byte		N12	, Dn4, v108
	.byte	W24
	.byte			Cs4, v112
	.byte	W24
	.byte		N32	, En4
	.byte	W36
	.byte	PEND
song076_8_15:
	.byte		N05	, Dn4, v112
	.byte	W12
	.byte		N06	
	.byte	W12
	.byte		N05	, Cn4, v116
	.byte	W12
	.byte		N06	, Cn4, v100
	.byte	W12
	.byte		N05	, Bn3, v112
	.byte	W12
	.byte		N06	, Bn3, v104
	.byte	W12
	.byte		N10	, An3, v124
	.byte	W12
	.byte		N24	, Gn4, v116
	.byte	W12
	.byte	PEND
song076_8_16:
	.byte	W24
	.byte		N14	, Fn4, v120
	.byte	W24
	.byte		N13	, En4, v116
	.byte	W24
	.byte		N17	, Dn4, v124
	.byte	W24
	.byte	PEND
	.byte	PATT	
		.word	song076_8_1
	.byte	PATT	
		.word	song076_8_2
	.byte	PATT	
		.word	song076_8_3
	.byte	PATT	
		.word	song076_8_4
	.byte	PATT	
		.word	song076_8_5
	.byte	PATT	
		.word	song076_8_6
	.byte	PATT	
		.word	song076_8_7
	.byte	PATT	
		.word	song076_8_8
	.byte	PATT	
		.word	song076_8_9
	.byte	PATT	
		.word	song076_8_10
	.byte	PATT	
		.word	song076_8_11
	.byte	PATT	
		.word	song076_8_12
	.byte	PATT	
		.word	song076_8_13
	.byte	PATT	
		.word	song076_8_14
	.byte	PATT	
		.word	song076_8_15
	.byte	PATT	
		.word	song076_8_16
	.byte	PATT	
		.word	song076_8_17
	.byte	PATT	
		.word	song076_8_18
	.byte	PATT	
		.word	song076_8_19
	.byte	PATT	
		.word	song076_8_20
	.byte	PATT	
		.word	song076_8_17
	.byte	PATT	
		.word	song076_8_18
	.byte	PATT	
		.word	song076_8_19
	.byte	PATT	
		.word	song076_8_20
	.byte	W01
	.byte		N42	, Gs2, v076
	.byte	W44
	.byte	W03
	.byte		N11	, Gs2, v072
	.byte	W13
	.byte		N10	, An2, v080
	.byte	W13
	.byte		N13	, Bn2, v076
	.byte	W12
	.byte		N08	, Cn3, v084
	.byte	W10
	.byte	W12
	.byte			Dn3, v080
	.byte	W24
	.byte		N04	, Dn3, v092
	.byte	W04
	.byte		N19	, En3, v088
	.byte	W18
	.byte		N12	, Dn3, v084
	.byte	W13
	.byte		N24	, Cs3, v072
	.byte	W23
	.byte		N42	, Dn3, v092
	.byte	W02
	.byte	W48
	.byte	W01
	.byte		N12	, Dn3, v088
	.byte	W12
	.byte		N11	, En3, v092
	.byte	W12
	.byte		N09	, Fn3, v088
	.byte	W13
	.byte		N19	, En3
	.byte	W01
	.byte		N04	, Dn3, v052
	.byte	W09
	.byte	W10
	.byte		N16	, Dn3, v092
	.byte	W14
	.byte		N11	, Cn3, v088
	.byte	W11
	.byte		N48	, Bn2, v084
	.byte	W60
	.byte	W01
	.byte	W04
	.byte		N40	, Gs2
	.byte	W44
	.byte	W02
	.byte		N11	, Gs2, v080
	.byte	W13
	.byte		N09	, An2, v084
	.byte	W12
	.byte		N12	, Bn2, v080
	.byte	W12
	.byte		N09	, Cn3, v088
	.byte	W09
	.byte	W13
	.byte		N11	, Dn3, v092
	.byte	W23
	.byte		N05	, Dn3, v104
	.byte	W04
	.byte		N18	, En3, v080
	.byte	W18
	.byte		N13	, Dn3, v088
	.byte	W13
	.byte		N24	, Cs3
	.byte	W24
	.byte	W01
	.byte		N05	, Dn3, v104
	.byte		N05	, Dn4, v108
	.byte	W12
	.byte		N06	, Dn3, v100
	.byte		N06	, Dn4, v112
	.byte	W12
	.byte		N05	, Cn3, v104
	.byte		N05	, Cn4, v116
	.byte	W12
	.byte		N06	, Cn3, v092
	.byte		N06	, Cn4, v100
	.byte	W12
	.byte		N05	, Bn2
	.byte		N05	, Bn3, v112
	.byte	W12
	.byte		N06	, Bn2, v096
	.byte		N06	, Bn3, v104
	.byte	W12
	.byte		N10	, An2, v112
	.byte		N10	, An3, v124
	.byte	W12
	.byte		N24	, Gn3, v104
	.byte		N24	, Gn4, v116
	.byte	W12
	.byte	PATT	
		.word	song076_8_16
	.byte	PATT	
		.word	song076_8_17
	.byte	PATT	
		.word	song076_8_18
	.byte	PATT	
		.word	song076_8_19
	.byte	PATT	
		.word	song076_8_20
	.byte		N10	, Cn4, v084
	.byte		N10	, En4, v104
	.byte	W24
	.byte		N11	, Bn3, v088
	.byte		N11	, Ds4, v108
	.byte	W24
	.byte		N12	, An3, v088
	.byte		N12	, Dn4, v108
	.byte	W12
	.byte			Gn3, v088
	.byte		N12	, Cn4, v108
	.byte	W24
	.byte			Cn4, v084
	.byte		N12	, En4, v104
	.byte	W12
	.byte	W12
	.byte			Cn4, v080
	.byte		N12	, En4, v100
	.byte	W12
	.byte		N14	, Bn3, v076
	.byte		N14	, Ds4, v096
	.byte	W24
	.byte		N12	, An3, v092
	.byte		N12	, Dn4, v112
	.byte	W24
	.byte		N22	, Gn3, v088
	.byte		N22	, Cn4, v108
	.byte	W24
	.byte		N11	, Cn4, v084
	.byte		N11	, En4, v104
	.byte	W24
	.byte		N10	, Bn3, v080
	.byte		N10	, Ds4, v100
	.byte	W24
	.byte		N12	, An3, v088
	.byte		N12	, Dn4, v108
	.byte	W12
	.byte			Gn3, v080
	.byte		N12	, Cn4, v100
	.byte	W24
	.byte		N11	, An3, v088
	.byte		N11	, Dn4, v108
	.byte	W12
	.byte	W12
	.byte		N32	, Gn3, v088
	.byte		N32	, Cn4, v116
	.byte	W32
	.byte	W01
	.byte		N04	, Bn3, v084
	.byte	W02
	.byte			An3
	.byte	W02
	.byte			Gn3, v092
	.byte	W02
	.byte			Fn3, v080
	.byte	W02
	.byte			En3, v100
	.byte	W01
	.byte			Dn3, v096
	.byte	W02
	.byte			Cn3, v088
	.byte	W01
	.byte			Bn2
	.byte	W01
	.byte			An2, v080
	.byte	W02
	.byte			Gn2, v068
	.byte	W01
	.byte			Fn2, v052
	.byte	W01
	.byte			En2, v060
	.byte	W01
	.byte			Dn2, v056
	.byte	W01
	.byte			Cn2, v060
	.byte	W02
	.byte			Bn1, v004
	.byte	W04
	.byte			Gn1, v084
	.byte	W02
	.byte			An1, v100
	.byte	W02
	.byte			As1, v108
	.byte	W02
	.byte			Cn2
	.byte	W02
	.byte			Dn2
	.byte	W02
	.byte			En2, v104
	.byte	W01
	.byte			Fn2
	.byte	W02
	.byte		N06	, Gn2
	.byte	W01
	.byte		N04	, An2, v108
	.byte	W02
	.byte			As2, v100
	.byte	W02
	.byte			Cn3
	.byte	W01
	.byte			Dn3, v104
	.byte	W02
	.byte			En3, v096
	.byte	W02
	.byte			Fn3, v092
	.byte	W03
	.byte		N44	, Gn3, v116
	.byte	W48
	.byte		N04	, En3, v100
	.byte	W03
	.byte		N10	, Fn3, v112
	.byte	W11
	.byte		N06	, En3, v104
	.byte	W10
	.byte		N04	, Dn3, v100
	.byte	W13
	.byte		N23	, En3, v120
	.byte	W11
	.byte	W12
	.byte		N05	, Dn3, v100
	.byte	W11
	.byte		N04	, Cn3, v092
	.byte	W12
	.byte		N23	, Dn3, v100
	.byte	W23
	.byte		N13	, En3
	.byte	W12
	.byte		N04	, Fn3, v108
	.byte	W13
	.byte		N24	, Gn3, v116
	.byte	W13
	.byte	W11
	.byte		N11	, An3, v104
	.byte	W12
	.byte		N05	, Bn3, v116
	.byte	W13
	.byte		N24	, Cn4, v112
	.byte	W24
	.byte		N10	, Dn4, v108
	.byte	W11
	.byte		N04	, En4
	.byte	W13
	.byte		N56	, Fn4, v112
	.byte	W12
	.byte	W32
	.byte	W02
	.byte		N04	, Gn1, v032
	.byte	W01
	.byte			Gs1, v052
	.byte	W01
	.byte			As1, v040
	.byte	W01
	.byte			Cn2, v076
	.byte	W01
	.byte			Dn2, v084
	.byte	W01
	.byte			Ds2, v072
	.byte	W01
	.byte			Fn2, v104
	.byte	W01
	.byte			Gn2, v112
	.byte	W01
	.byte			Gs2, v120
	.byte	W01
	.byte			As2, v124
	.byte	W01
	.byte			An2, v080
	.byte	W01
	.byte			Cn3, v120
	.byte	W02
	.byte			Dn3, v108
	.byte	W01
	.byte			Ds3, v120
	.byte	W03
	.byte			En3, v060
	.byte		N04	, Fn3, v112
	.byte	W01
	.byte			Gn3, v104
	.byte	W01
	.byte			An5, v108
	.byte	W04
	.byte			Gn5, v096
	.byte	W02
	.byte			Fn5, v120
	.byte	W02
	.byte			En5
	.byte	W02
	.byte			Dn5, v112
	.byte	W02
	.byte			Cn5, v124
	.byte	W02
	.byte			Bn4
	.byte	W01
	.byte			An4, v116
	.byte	W02
	.byte			Gn4, v120
	.byte	W01
	.byte		N06	, Fn4
	.byte	W02
	.byte		N04	, En4, v116
	.byte	W01
	.byte		N06	, Dn4, v124
	.byte	W01
	.byte		N05	, Cn4
	.byte	W02
	.byte			Bn3, v120
	.byte	W01
	.byte			An3, v124
	.byte	W01
	.byte			Gn3, v120
	.byte	W02
	.byte		N04	, Fn3, v112
	.byte	W01
	.byte			En3, v100
	.byte	W01
	.byte			Dn3, v076
	.byte	W01
	.byte			Cn3, v072
	.byte	W02
	.byte			Bn2, v060
	.byte	W01
	.byte			An2, v056
	.byte	W01
	.byte			Gn2, v072
	.byte	W01
	.byte			En2, v084
	.byte		N04	, Fn2, v060
	.byte	W01
	.byte			Dn2, v084
	.byte	W01
	.byte			Cn2, v092
	.byte	W01
	.byte			Bn1, v096
	.byte	W01
	.byte			An1, v092
	.byte	W01
	.byte			Gn1, v080
	.byte	W01
	.byte			Fn1, v036
	.byte	W01
	.byte	PATT	
		.word	song076_8_17
	.byte	PATT	
		.word	song076_8_18
	.byte	PATT	
		.word	song076_8_19
	.byte	PATT	
		.word	song076_8_20
	.byte	PATT	
		.word	song076_8_17
	.byte	GOTO	
		.word	song076_8_18
	.byte	W12
	.byte		N12	, En4, v108
	.byte	W12
	.byte		N14	, Ds4
	.byte	W24
	.byte		N12	, Dn4, v124
	.byte	W24
	.byte		N22	, Cn4, v120
	.byte	W22
	.byte	FINE
    
	mAlignWord
	.global song076
song076:	@ 0x082A6538
	.byte	8		@ trackCount
	.byte	0		@ blockCount
	.byte	0		@ priority
	.byte	128		@ reverb

	mAlignWord
	.word	voicegroup008		@ voicegroup/tone

	.word	song076_1		@ track
	.word	song076_2		@ track
	.word	song076_3		@ track
	.word	song076_4		@ track
	.word	song076_5		@ track
	.word	song076_6		@ track
	.word	song076_7		@ track
	.word	song076_8		@ track
