	.include "asm/macros/c_decl.inc"
	.include "asm/macros/portable.inc"
	.include "sound/MPlayDef.s"

	mSectionRodata

	@********************** Track  1 **********************@

	mAlignWord
	.global song054_1
song054_1:	@ 0x082922F0
	.byte	KEYSH	, 0
	.byte	TEMPO	, 80
	.byte	VOICE	, 126
	.byte	VOL	, v085
	.byte	PAN	, c_v
	.byte	W03
	.byte	TEMPO	, 80
	.byte	W96
	.byte	W96
song054_1_6:
	.byte	W96
	.byte	W96
	.byte	W96
	.byte	W96
	.byte	W96
	.byte	W56
	.byte	W03
	.byte		N11	, Gn7, v127
	.byte	W12
	.byte			Fs1
	.byte	W12
	.byte		N06	, Gn7
	.byte	W07
	.byte		N05	, Gs1
	.byte	W06
song054_1_1:
	.byte		N11	, Gn7, v127
	.byte	W12
	.byte		N11	
	.byte	W12
	.byte			Dn1
	.byte	W12
	.byte			Gn7
	.byte	W17
	.byte		N06	, En1
	.byte	W06
	.byte		N11	, Gn7
	.byte	W12
	.byte			Fs1
	.byte	W12
	.byte		N06	, Gn7
	.byte	W07
	.byte		N05	, Gs1
	.byte	W06
	.byte	PEND
	.byte	PATT	
		mPtr	song054_1_1
	.byte	PATT	
		mPtr	song054_1_1
	.byte	PATT	
		mPtr	song054_1_1
	.byte	PATT	
		mPtr	song054_1_1
	.byte	PATT	
		mPtr	song054_1_1
	.byte	PATT	
		mPtr	song054_1_1
	.byte	PATT	
		mPtr	song054_1_1
	.byte	PATT	
		mPtr	song054_1_1
	.byte	PATT	
		mPtr	song054_1_1
	.byte	PATT	
		mPtr	song054_1_1
	.byte	PATT	
		mPtr	song054_1_1
	.byte	PATT	
		mPtr	song054_1_1
	.byte	PATT	
		mPtr	song054_1_1
	.byte	PATT	
		mPtr	song054_1_1
	.byte	PATT	
		mPtr	song054_1_1
	.byte	PATT	
		mPtr	song054_1_1
	.byte	PATT	
		mPtr	song054_1_1
	.byte	PATT	
		mPtr	song054_1_1
	.byte	PATT	
		mPtr	song054_1_1
	.byte	PATT	
		mPtr	song054_1_1
	.byte	PATT	
		mPtr	song054_1_1
	.byte	PATT	
		mPtr	song054_1_1
	.byte	PATT	
		mPtr	song054_1_1
	.byte	PATT	
		mPtr	song054_1_1
	.byte	PATT	
		mPtr	song054_1_1
	.byte	PATT	
		mPtr	song054_1_1
	.byte	PATT	
		mPtr	song054_1_1
	.byte	PATT	
		mPtr	song054_1_1
	.byte	PATT	
		mPtr	song054_1_1
	.byte	PATT	
		mPtr	song054_1_1
	.byte	PATT	
		mPtr	song054_1_1
	.byte	PATT	
		mPtr	song054_1_1
	.byte	PATT	
		mPtr	song054_1_1
	.byte	PATT	
		mPtr	song054_1_1
	.byte	PATT	
		mPtr	song054_1_1
	.byte	PATT	
		mPtr	song054_1_1
	.byte	PATT	
		mPtr	song054_1_1
	.byte	PATT	
		mPtr	song054_1_1
	.byte	PATT	
		mPtr	song054_1_1
	.byte	PATT	
		mPtr	song054_1_1
	.byte	PATT	
		mPtr	song054_1_1
	.byte	PATT	
		mPtr	song054_1_1
	.byte		N11	, Gn7, v127
	.byte	W12
	.byte		N11	
	.byte	W44
	.byte	W03
	.byte		N11	
	.byte	W12
	.byte			Fs1
	.byte	W12
	.byte		N06	, Gn7
	.byte	W07
	.byte		N05	, Gs1
	.byte	W06
	.byte	PATT	
		mPtr	song054_1_1
	.byte	PATT	
		mPtr	song054_1_1
	.byte	PATT	
		mPtr	song054_1_1
	.byte	PATT	
		mPtr	song054_1_1
	.byte	PATT	
		mPtr	song054_1_1
	.byte	PATT	
		mPtr	song054_1_1
	.byte	PATT	
		mPtr	song054_1_1
	.byte	PATT	
		mPtr	song054_1_1
	.byte	PATT	
		mPtr	song054_1_1
	.byte	PATT	
		mPtr	song054_1_1
	.byte	PATT	
		mPtr	song054_1_1
	.byte	PATT	
		mPtr	song054_1_1
	.byte	PATT	
		mPtr	song054_1_1
	.byte	PATT	
		mPtr	song054_1_1
	.byte	PATT	
		mPtr	song054_1_1
	.byte	PATT	
		mPtr	song054_1_1
	.byte	PATT	
		mPtr	song054_1_1
	.byte	PATT	
		mPtr	song054_1_1
	.byte	PATT	
		mPtr	song054_1_1
	.byte	PATT	
		mPtr	song054_1_1
	.byte	PATT	
		mPtr	song054_1_1
	.byte	PATT	
		mPtr	song054_1_1
	.byte	PATT	
		mPtr	song054_1_1
	.byte	PATT	
		mPtr	song054_1_1
song054_1_2:
	.byte		N11	, Dn1, v127
	.byte	W12
	.byte			Gn7
	.byte	W12
	.byte		N11	
	.byte	W12
	.byte			Dn1
	.byte	W11
	.byte			Gn7
	.byte	W12
	.byte			Fs1
	.byte	W12
	.byte		N06	, Gn7
	.byte	W07
	.byte		N05	, Gs1
	.byte	W06
	.byte		N11	, Gn7
	.byte	W12
	.byte	PEND
	.byte	PATT	
		mPtr	song054_1_2
	.byte	PATT	
		mPtr	song054_1_2
	.byte	PATT	
		mPtr	song054_1_2
song054_1_3:
	.byte		N11	, Dn1, v127
	.byte	W12
	.byte			Gn7
	.byte	W12
	.byte			Dn1
	.byte	W12
	.byte		N11	
	.byte	W11
	.byte			Gn7
	.byte	W12
	.byte			Fs1
	.byte	W12
	.byte		N06	, Gn7
	.byte	W07
	.byte		N05	, Gs1
	.byte	W06
	.byte		N11	, Dn1
	.byte	W12
	.byte	PEND
	.byte	PATT	
		mPtr	song054_1_3
	.byte	PATT	
		mPtr	song054_1_3
	.byte		N11	, Dn1, v127
	.byte	W12
	.byte			Gn7
	.byte	W12
	.byte		N11	
	.byte	W12
	.byte			Dn1
	.byte	W11
	.byte			Gn7
	.byte	W12
	.byte			Fs1
	.byte	W12
	.byte		N06	, Gn7
	.byte	W07
	.byte		N05	, Gs1
	.byte	W06
	.byte		N11	, Fs1
	.byte	W12
song054_1_4:
	.byte		N11	, Dn1, v127
	.byte	W12
	.byte			Gn7
	.byte	W12
	.byte			Dn1
	.byte	W12
	.byte			Gn7
	.byte	W11
	.byte			Dn1
	.byte	W12
	.byte			Fs1
	.byte	W12
	.byte		N06	, Gn7
	.byte	W07
	.byte		N05	, Gs1
	.byte	W06
	.byte		N11	, Dn1
	.byte	W12
	.byte	PEND
song054_1_5:
	.byte		N11	, Dn1, v127
	.byte	W12
	.byte			Gn7
	.byte	W12
	.byte			Dn1
	.byte	W12
	.byte			Gn7
	.byte	W11
	.byte			Dn1
	.byte	W12
	.byte		N11	
	.byte	W12
	.byte		N06	, Gn7
	.byte	W07
	.byte		N05	, Dn1
	.byte	W06
	.byte		N11	
	.byte	W12
	.byte	PEND
	.byte		N11	
	.byte	W12
	.byte			Gn7
	.byte	W12
	.byte			Dn1
	.byte	W12
	.byte			Gn7
	.byte	W11
	.byte			Dn1
	.byte	W12
	.byte			Fs1
	.byte	W12
	.byte		N06	, Dn1
	.byte	W07
	.byte		N05	, Gs1
	.byte	W06
	.byte		N11	, Dn1
	.byte	W12
	.byte	PATT	
		mPtr	song054_1_4
	.byte		N11	, Dn1, v127
	.byte	W12
	.byte			Gn7
	.byte	W12
	.byte			Dn1
	.byte	W12
	.byte			Gn7
	.byte	W11
	.byte			Dn1
	.byte	W12
	.byte			Fs1
	.byte	W12
	.byte		N06	, Gn7
	.byte	W07
	.byte		N05	, Fs1
	.byte	W06
	.byte		N11	, Dn1
	.byte	W12
	.byte	PATT	
		mPtr	song054_1_5
	.byte		N11	, Dn1, v127
	.byte	W12
	.byte		N11	
	.byte	W12
	.byte			Gn7
	.byte	W12
	.byte			Dn1
	.byte	W11
	.byte		N05	
	.byte	W07
	.byte		N11	, Gn7
	.byte	W12
	.byte		N05	, Dn1
	.byte	W05
	.byte		N06	, Gn7
	.byte	W07
	.byte		N05	, Gs1
	.byte	W06
	.byte		N11	, Dn1
	.byte	W12
	.byte		N11	
	.byte	W12
	.byte			Gn7
	.byte	W12
	.byte			Dn1
	.byte	W12
	.byte		N11	
	.byte	W11
	.byte		N05	, Gn7
	.byte	W07
	.byte			Dn1
	.byte	W06
	.byte		N05	
	.byte	W06
	.byte		N05	
	.byte	W05
	.byte		N06	, Gn7
	.byte	W07
	.byte		N05	
	.byte	W06
	.byte		N11	, Dn1
	.byte	W12
	.byte	W96
	.byte	W96
	.byte	GOTO	
		mPtr	song054_1_6
	.byte	FINE

	@********************** Track  2 **********************@

	.global song054_2
song054_2:	@ 0x08292587
	.byte	KEYSH	, 0
	.byte	VOICE	, 120
	.byte	VOL	, v050
	.byte	PAN	, c_v-19
	.byte	W03
song054_2_1:
	.byte	W12
	.byte		N05	, Ds7, v072
	.byte	W06
	.byte		N03	, Bn6, v040
	.byte	W18
	.byte		N05	, Ds7, v044
	.byte	W06
	.byte		N03	, Bn6, v016
	.byte	W18
	.byte		N05	, Ds7, v072
	.byte	W06
	.byte		N03	, Bn6, v040
	.byte	W18
	.byte		N05	, Ds7, v072
	.byte	W06
	.byte		N03	, Bn6, v040
	.byte	W06
	.byte	PEND
	.byte	PATT	
		mPtr	song054_2_1
song054_2_5:
	.byte	PATT	
		mPtr	song054_2_1
	.byte	PATT	
		mPtr	song054_2_1
	.byte	PATT	
		mPtr	song054_2_1
	.byte	PATT	
		mPtr	song054_2_1
	.byte	PATT	
		mPtr	song054_2_1
	.byte	PATT	
		mPtr	song054_2_1
	.byte	PATT	
		mPtr	song054_2_1
	.byte	PATT	
		mPtr	song054_2_1
	.byte	PATT	
		mPtr	song054_2_1
song054_2_3:
	.byte	W12
	.byte		N05	, Ds7, v072
	.byte	W06
	.byte		N03	, Bn6, v040
	.byte	W18
	.byte		N05	, Ds7, v044
	.byte	W06
	.byte		N03	, Bn6, v016
	.byte	W06
	.byte		N05	, Ds7, v072
	.byte	W06
	.byte		N06	, Bn6, v084
	.byte	W18
	.byte		N05	, Ds7, v072
	.byte	W06
	.byte		N03	, Bn6, v040
	.byte	W18
	.byte	PEND
song054_2_2:
	.byte		N05	, Ds7, v072
	.byte	W06
	.byte		N03	, Bn6, v040
	.byte	W18
	.byte		N05	, Ds7, v044
	.byte	W06
	.byte		N03	, Bn6, v016
	.byte	W18
	.byte		N05	, Ds7, v072
	.byte	W06
	.byte		N03	, Bn6, v040
	.byte	W18
	.byte		N05	, Ds7, v072
	.byte	W06
	.byte		N03	, Bn6, v040
	.byte	W18
	.byte	PEND
	.byte	PATT	
		mPtr	song054_2_2
	.byte	PATT	
		mPtr	song054_2_2
	.byte	PATT	
		mPtr	song054_2_2
	.byte	PATT	
		mPtr	song054_2_2
	.byte	PATT	
		mPtr	song054_2_2
	.byte	PATT	
		mPtr	song054_2_2
	.byte	PATT	
		mPtr	song054_2_2
	.byte	PATT	
		mPtr	song054_2_2
	.byte	PATT	
		mPtr	song054_2_2
	.byte	PATT	
		mPtr	song054_2_2
	.byte	PATT	
		mPtr	song054_2_2
	.byte	PATT	
		mPtr	song054_2_2
	.byte	PATT	
		mPtr	song054_2_2
	.byte	PATT	
		mPtr	song054_2_2
	.byte	PATT	
		mPtr	song054_2_2
	.byte	PATT	
		mPtr	song054_2_2
	.byte	PATT	
		mPtr	song054_2_2
	.byte	PATT	
		mPtr	song054_2_2
	.byte	PATT	
		mPtr	song054_2_2
	.byte	PATT	
		mPtr	song054_2_2
	.byte	PATT	
		mPtr	song054_2_2
	.byte	PATT	
		mPtr	song054_2_2
	.byte	PATT	
		mPtr	song054_2_2
	.byte	PATT	
		mPtr	song054_2_2
	.byte	PATT	
		mPtr	song054_2_2
	.byte	PATT	
		mPtr	song054_2_2
	.byte	PATT	
		mPtr	song054_2_2
	.byte	PATT	
		mPtr	song054_2_2
	.byte	PATT	
		mPtr	song054_2_2
	.byte	PATT	
		mPtr	song054_2_2
	.byte	PATT	
		mPtr	song054_2_2
	.byte	PATT	
		mPtr	song054_2_1
	.byte	PATT	
		mPtr	song054_2_1
	.byte	PATT	
		mPtr	song054_2_1
	.byte	PATT	
		mPtr	song054_2_1
	.byte	PATT	
		mPtr	song054_2_1
	.byte	PATT	
		mPtr	song054_2_1
	.byte	PATT	
		mPtr	song054_2_1
	.byte	PATT	
		mPtr	song054_2_3
	.byte	PATT	
		mPtr	song054_2_2
	.byte	PATT	
		mPtr	song054_2_2
	.byte	PATT	
		mPtr	song054_2_2
	.byte	PATT	
		mPtr	song054_2_2
	.byte	PATT	
		mPtr	song054_2_2
	.byte	PATT	
		mPtr	song054_2_2
	.byte	PATT	
		mPtr	song054_2_2
	.byte	PATT	
		mPtr	song054_2_2
	.byte	PATT	
		mPtr	song054_2_2
	.byte	PATT	
		mPtr	song054_2_2
	.byte	PATT	
		mPtr	song054_2_2
	.byte	PATT	
		mPtr	song054_2_2
	.byte	PATT	
		mPtr	song054_2_2
	.byte	PATT	
		mPtr	song054_2_2
	.byte	PATT	
		mPtr	song054_2_2
	.byte	PATT	
		mPtr	song054_2_2
	.byte	PATT	
		mPtr	song054_2_2
	.byte	PATT	
		mPtr	song054_2_2
	.byte	PATT	
		mPtr	song054_2_2
	.byte	PATT	
		mPtr	song054_2_2
	.byte	PATT	
		mPtr	song054_2_2
	.byte	PATT	
		mPtr	song054_2_2
	.byte	PATT	
		mPtr	song054_2_2
	.byte	PATT	
		mPtr	song054_2_2
	.byte	PATT	
		mPtr	song054_2_2
	.byte	PATT	
		mPtr	song054_2_2
	.byte	PATT	
		mPtr	song054_2_2
	.byte	PATT	
		mPtr	song054_2_2
	.byte	PATT	
		mPtr	song054_2_2
	.byte	PATT	
		mPtr	song054_2_2
	.byte	PATT	
		mPtr	song054_2_2
	.byte	PATT	
		mPtr	song054_2_2
song054_2_4:
	.byte	W12
	.byte		N05	, Ds7, v044
	.byte	W06
	.byte		N03	, Bn6, v016
	.byte	W18
	.byte		N05	, Ds7, v072
	.byte	W06
	.byte		N03	, Bn6, v040
	.byte	W18
	.byte		N05	, Ds7, v072
	.byte	W06
	.byte		N03	, Bn6, v040
	.byte	W18
	.byte		N05	, Ds7, v072
	.byte	W06
	.byte		N03	, Bn6, v040
	.byte	W06
	.byte	PEND
	.byte	PATT	
		mPtr	song054_2_4
	.byte	PATT	
		mPtr	song054_2_4
	.byte	PATT	
		mPtr	song054_2_4
	.byte	PATT	
		mPtr	song054_2_4
	.byte	PATT	
		mPtr	song054_2_4
	.byte	PATT	
		mPtr	song054_2_4
	.byte	PATT	
		mPtr	song054_2_4
	.byte	PATT	
		mPtr	song054_2_1
	.byte	PATT	
		mPtr	song054_2_1
	.byte	GOTO	
		mPtr	song054_2_5
	.byte	PATT	
		mPtr	song054_2_1
	.byte	W12
	.byte		N05	, Ds7, v072
	.byte	W06
	.byte		N03	, Bn6, v040
	.byte	W18
	.byte		N05	, Ds7, v044
	.byte	W06
	.byte		N03	, Bn6, v016
	.byte	W18
	.byte		N05	, Ds7, v072
	.byte	W06
	.byte		N03	, Bn6, v040
	.byte	W18
	.byte		N05	, Ds7, v072
	.byte	W06
	.byte		N03	, Bn6, v040
	.byte	W03
	.byte	FINE

	@********************** Track  3 **********************@

	.global song054_3
song054_3:	@ 0x08292805
	.byte	KEYSH	, 0
	.byte	VOICE	, 121
	.byte	VOL	, v070
	.byte	PAN	, c_v-19
	.byte	W03
song054_3_1:
	.byte		N12	, Gn7, v068
	.byte	W24
	.byte		N12	
	.byte	W24
	.byte		N12	
	.byte	W24
	.byte		N12	
	.byte	W24
	.byte	PEND
	.byte	PATT	
		mPtr	song054_3_1
song054_3_8:
	.byte	PATT	
		mPtr	song054_3_1
	.byte	PATT	
		mPtr	song054_3_1
	.byte	PATT	
		mPtr	song054_3_1
	.byte	PATT	
		mPtr	song054_3_1
	.byte	PATT	
		mPtr	song054_3_1
	.byte	PATT	
		mPtr	song054_3_1
	.byte	PATT	
		mPtr	song054_3_1
	.byte	PATT	
		mPtr	song054_3_1
	.byte	PATT	
		mPtr	song054_3_1
song054_3_5:
	.byte		N12	, Gn7, v068
	.byte	W24
	.byte		N12	
	.byte	W36
	.byte			Gn7, v088
	.byte	W24
	.byte			Gn7, v068
	.byte	W12
	.byte	PEND
song054_3_2:
	.byte	W12
	.byte		N12	, Gn7, v068
	.byte	W24
	.byte		N12	
	.byte	W24
	.byte		N12	
	.byte	W24
	.byte		N12	
	.byte	W12
	.byte	PEND
	.byte	PATT	
		mPtr	song054_3_2
	.byte	PATT	
		mPtr	song054_3_2
	.byte	PATT	
		mPtr	song054_3_2
	.byte	PATT	
		mPtr	song054_3_2
	.byte	PATT	
		mPtr	song054_3_2
	.byte	PATT	
		mPtr	song054_3_2
song054_3_3:
	.byte	W12
	.byte		N12	, Gn7, v068
	.byte	W24
	.byte		N12	
	.byte	W24
	.byte		N12	
	.byte	W24
	.byte		N11	
	.byte	W12
	.byte	PEND
	.byte	PATT	
		mPtr	song054_3_2
	.byte	PATT	
		mPtr	song054_3_2
	.byte	PATT	
		mPtr	song054_3_2
	.byte	PATT	
		mPtr	song054_3_2
	.byte	PATT	
		mPtr	song054_3_2
	.byte	PATT	
		mPtr	song054_3_2
	.byte	PATT	
		mPtr	song054_3_2
	.byte	PATT	
		mPtr	song054_3_3
song054_3_4:
	.byte		N11	, Gn7, v068
	.byte	W12
	.byte		N12	
	.byte	W24
	.byte		N12	
	.byte	W24
	.byte		N12	
	.byte	W24
	.byte		N12	
	.byte	W12
	.byte	PEND
	.byte	PATT	
		mPtr	song054_3_2
	.byte	PATT	
		mPtr	song054_3_2
	.byte	PATT	
		mPtr	song054_3_3
	.byte	PATT	
		mPtr	song054_3_4
	.byte	PATT	
		mPtr	song054_3_2
	.byte	PATT	
		mPtr	song054_3_2
	.byte	PATT	
		mPtr	song054_3_2
	.byte	PATT	
		mPtr	song054_3_4
	.byte	PATT	
		mPtr	song054_3_2
	.byte	PATT	
		mPtr	song054_3_2
	.byte	PATT	
		mPtr	song054_3_3
	.byte	PATT	
		mPtr	song054_3_4
	.byte	PATT	
		mPtr	song054_3_2
	.byte	PATT	
		mPtr	song054_3_2
	.byte	PATT	
		mPtr	song054_3_2
	.byte	PATT	
		mPtr	song054_3_1
	.byte	PATT	
		mPtr	song054_3_1
	.byte	PATT	
		mPtr	song054_3_1
	.byte	PATT	
		mPtr	song054_3_1
	.byte	PATT	
		mPtr	song054_3_1
	.byte	PATT	
		mPtr	song054_3_1
	.byte	PATT	
		mPtr	song054_3_1
	.byte	PATT	
		mPtr	song054_3_5
	.byte	PATT	
		mPtr	song054_3_2
	.byte	PATT	
		mPtr	song054_3_2
	.byte	PATT	
		mPtr	song054_3_2
	.byte	PATT	
		mPtr	song054_3_2
	.byte	PATT	
		mPtr	song054_3_2
	.byte	PATT	
		mPtr	song054_3_2
	.byte	PATT	
		mPtr	song054_3_2
	.byte	PATT	
		mPtr	song054_3_3
	.byte	PATT	
		mPtr	song054_3_4
	.byte	PATT	
		mPtr	song054_3_2
	.byte	PATT	
		mPtr	song054_3_2
	.byte	PATT	
		mPtr	song054_3_3
	.byte	PATT	
		mPtr	song054_3_4
	.byte	PATT	
		mPtr	song054_3_2
	.byte	PATT	
		mPtr	song054_3_2
	.byte	PATT	
		mPtr	song054_3_2
	.byte	PATT	
		mPtr	song054_3_4
	.byte	PATT	
		mPtr	song054_3_2
	.byte	PATT	
		mPtr	song054_3_2
	.byte	PATT	
		mPtr	song054_3_3
	.byte	PATT	
		mPtr	song054_3_4
	.byte	PATT	
		mPtr	song054_3_2
	.byte	PATT	
		mPtr	song054_3_2
	.byte	PATT	
		mPtr	song054_3_2
	.byte	PATT	
		mPtr	song054_3_2
	.byte	PATT	
		mPtr	song054_3_2
	.byte	PATT	
		mPtr	song054_3_2
	.byte	PATT	
		mPtr	song054_3_2
	.byte	PATT	
		mPtr	song054_3_2
	.byte	PATT	
		mPtr	song054_3_2
	.byte	PATT	
		mPtr	song054_3_2
	.byte	PATT	
		mPtr	song054_3_3
song054_3_6:
	.byte		N12	, Gn7, v080
	.byte	W24
	.byte		N12	
	.byte	W24
	.byte		N12	
	.byte	W24
	.byte		N12	
	.byte	W24
	.byte	PEND
	.byte	PATT	
		mPtr	song054_3_6
	.byte	PATT	
		mPtr	song054_3_6
	.byte	PATT	
		mPtr	song054_3_6
song054_3_7:
	.byte		N12	, Gn7, v088
	.byte	W24
	.byte		N12	
	.byte	W24
	.byte		N12	
	.byte	W24
	.byte		N12	
	.byte	W24
	.byte	PEND
	.byte	PATT	
		mPtr	song054_3_7
	.byte	PATT	
		mPtr	song054_3_7
	.byte	PATT	
		mPtr	song054_3_7
	.byte	PATT	
		mPtr	song054_3_1
	.byte	PATT	
		mPtr	song054_3_1
	.byte	GOTO	
		mPtr	song054_3_8
	.byte	PATT	
		mPtr	song054_3_1
	.byte		N12	, Gn7, v068
	.byte	W24
	.byte		N12	
	.byte	W24
	.byte		N12	
	.byte	W24
	.byte		N12	
	.byte	W12
	.byte	FINE

	@********************** Track  4 **********************@

	.global song054_4
song054_4:	@ 0x08292A29
	.byte	KEYSH	, 0
	.byte	VOICE	, 57
	.byte	VOL	, v076
	.byte	PAN	, c_v-6
	.byte	W03
song054_4_1:
	.byte	W01
	.byte		N05	, An1, v127
	.byte	W06
	.byte			An1, v116
	.byte	W06
	.byte			Gn1, v112
	.byte	W06
	.byte			An1, v104
	.byte	W24
	.byte			Cn2, v112
	.byte	W06
	.byte			Cn2, v104
	.byte	W06
	.byte			As1, v116
	.byte	W06
	.byte			Cn2, v127
	.byte	W32
	.byte	W03
	.byte	PEND
song054_4_2:
	.byte	W01
	.byte		N05	, Bn1, v127
	.byte	W06
	.byte			Bn1, v116
	.byte	W06
	.byte			An1, v112
	.byte	W06
	.byte			Bn1, v104
	.byte	W18
	.byte			As1, v116
	.byte	W06
	.byte			As1, v112
	.byte	W06
	.byte			An1, v104
	.byte	W06
	.byte			As1, v116
	.byte	W40
	.byte	W01
	.byte	PEND
song054_4_18:
	.byte	PATT	
		mPtr	song054_4_1
song054_4_19:
	.byte	W01
	.byte		N05	, Bn1, v127
	.byte	W06
	.byte			Bn1, v116
	.byte	W06
	.byte			An1, v112
	.byte	W06
	.byte			Bn1, v104
	.byte	W18
	.byte			As1, v116
	.byte	W06
	.byte			As1, v112
	.byte	W06
	.byte			An1, v104
	.byte	W06
	.byte			As1, v116
	.byte	W18
	.byte			Gn1, v124
	.byte	W06
	.byte		N05	
	.byte	W06
	.byte			As1
	.byte	W06
	.byte			Gs1, v127
	.byte	W05
	.byte	PEND
	.byte	PATT	
		mPtr	song054_4_1
	.byte	PATT	
		mPtr	song054_4_2
song054_4_3:
	.byte	W01
	.byte		N05	, An1, v127
	.byte	W06
	.byte			An1, v116
	.byte	W06
	.byte			Gn1, v112
	.byte	W06
	.byte			An1, v104
	.byte	W18
	.byte			Cn2, v116
	.byte	W06
	.byte			Cn2, v112
	.byte	W06
	.byte			As1, v104
	.byte	W06
	.byte			Cn2, v116
	.byte	W40
	.byte	W01
	.byte	PEND
song054_4_4:
	.byte	W01
	.byte		N05	, Gn1, v127
	.byte	W06
	.byte			Gn1, v116
	.byte	W06
	.byte			Fn1, v112
	.byte	W06
	.byte			Gn1, v104
	.byte	W18
	.byte			As1, v116
	.byte	W06
	.byte			As1, v112
	.byte	W06
	.byte			An1, v104
	.byte	W06
	.byte			As1, v116
	.byte	W18
	.byte			Gn1, v124
	.byte	W06
	.byte		N05	
	.byte	W06
	.byte			As1
	.byte	W06
	.byte			Gs1, v127
	.byte	W05
	.byte	PEND
	.byte	PATT	
		mPtr	song054_4_1
	.byte	PATT	
		mPtr	song054_4_2
	.byte	PATT	
		mPtr	song054_4_3
	.byte	PATT	
		mPtr	song054_4_4
song054_4_5:
	.byte	W01
	.byte		N05	, An1, v127
	.byte	W06
	.byte			An1, v116
	.byte	W06
	.byte			An1, v112
	.byte	W06
	.byte			Gn1, v104
	.byte	W06
	.byte			An1, v116
	.byte	W06
	.byte			An1, v127
	.byte	W06
	.byte			An1, v116
	.byte	W06
	.byte			Cn2, v112
	.byte	W06
	.byte			Cn2, v104
	.byte	W06
	.byte			As1, v116
	.byte	W06
	.byte			Cn2, v127
	.byte	W06
	.byte		N05	
	.byte	W06
	.byte		N05	
	.byte	W06
	.byte			Cn2, v124
	.byte	W06
	.byte		N05	
	.byte	W06
	.byte			Cn2, v127
	.byte	W05
	.byte	PEND
song054_4_6:
	.byte	W01
	.byte		N05	, Fs1, v127
	.byte	W06
	.byte			Fs1, v116
	.byte	W06
	.byte			En1, v112
	.byte	W06
	.byte			Fs1, v104
	.byte	W06
	.byte			Fs1, v116
	.byte	W06
	.byte			Fs1, v127
	.byte	W06
	.byte			Fn1, v116
	.byte	W06
	.byte			Fn1, v112
	.byte	W06
	.byte			Fn1, v104
	.byte	W06
	.byte			Fn1, v116
	.byte	W06
	.byte			Dn1, v127
	.byte	W06
	.byte			Fn1
	.byte	W06
	.byte			Ds1, v124
	.byte	W06
	.byte			Fs1
	.byte	W06
	.byte			Gs1
	.byte	W06
	.byte			As1, v127
	.byte	W05
	.byte	PEND
song054_4_7:
	.byte	W01
	.byte		N05	, An1, v127
	.byte	W06
	.byte			An1, v116
	.byte	W06
	.byte			An1, v112
	.byte	W06
	.byte			Gn1, v104
	.byte	W06
	.byte			An1, v116
	.byte	W06
	.byte			An1, v127
	.byte	W06
	.byte			Cn2, v116
	.byte	W06
	.byte			Cn2, v112
	.byte	W06
	.byte			As1, v104
	.byte	W06
	.byte			Cn2, v116
	.byte	W06
	.byte			Cn2, v127
	.byte	W06
	.byte		N05	
	.byte	W06
	.byte		N05	
	.byte	W06
	.byte			An1, v124
	.byte	W06
	.byte			Cn2
	.byte	W06
	.byte			Cn2, v127
	.byte	W05
	.byte	PEND
song054_4_8:
	.byte	W01
	.byte		N05	, Bn1, v127
	.byte	W06
	.byte			Bn1, v116
	.byte	W06
	.byte			An1, v112
	.byte	W06
	.byte			Bn1, v104
	.byte	W06
	.byte			Bn1, v116
	.byte	W06
	.byte			Bn1, v127
	.byte	W06
	.byte			As1, v116
	.byte	W06
	.byte			As1, v112
	.byte	W06
	.byte			As1, v104
	.byte	W06
	.byte			As1, v116
	.byte	W06
	.byte			Gn1, v127
	.byte	W06
	.byte			As1
	.byte	W06
	.byte			Gn1, v124
	.byte	W06
	.byte		N05	
	.byte	W06
	.byte			As1
	.byte	W06
	.byte			Gs1, v127
	.byte	W05
	.byte	PEND
	.byte	PATT	
		mPtr	song054_4_5
	.byte	PATT	
		mPtr	song054_4_6
	.byte	PATT	
		mPtr	song054_4_7
	.byte	PATT	
		mPtr	song054_4_8
	.byte	PATT	
		mPtr	song054_4_5
	.byte	PATT	
		mPtr	song054_4_6
	.byte	PATT	
		mPtr	song054_4_7
	.byte	PATT	
		mPtr	song054_4_8
	.byte	PATT	
		mPtr	song054_4_5
	.byte	PATT	
		mPtr	song054_4_6
	.byte	PATT	
		mPtr	song054_4_7
	.byte	PATT	
		mPtr	song054_4_8
song054_4_9:
	.byte	W01
	.byte	VOL	, v066
	.byte	BENDR	, 59
	.byte		N05	, An1, v127
	.byte	W06
	.byte			An1, v116
	.byte	W06
	.byte			An2, v112
	.byte	W06
	.byte			An1, v104
	.byte	W06
	.byte			An2, v116
	.byte	W06
	.byte			An1, v127
	.byte	W06
	.byte			An1, v116
	.byte	W06
	.byte			An2, v112
	.byte	W06
	.byte			An3, v104
	.byte	W06
	.byte			An1, v116
	.byte	W06
	.byte			An1, v127
	.byte	W06
	.byte			En2
	.byte	W06
	.byte			An1, v124
	.byte	W06
	.byte			En3
	.byte	W06
	.byte			An1
	.byte	W06
	.byte			An2, v127
	.byte	W05
	.byte	PEND
song054_4_10:
	.byte	W01
	.byte		N05	, An1, v127
	.byte	W06
	.byte			An1, v116
	.byte	W06
	.byte			An2, v112
	.byte	W06
	.byte			An1, v104
	.byte	W06
	.byte			An2, v116
	.byte	W06
	.byte			An1, v127
	.byte	W06
	.byte			An1, v116
	.byte	W06
	.byte			En2, v112
	.byte	W06
	.byte			An2, v104
	.byte	W06
	.byte			An3, v116
	.byte	W06
	.byte			An1, v127
	.byte	W06
	.byte			En2
	.byte	W06
	.byte			An1, v124
	.byte	W06
	.byte			En3
	.byte	W06
	.byte			An2
	.byte	W06
	.byte			An1, v127
	.byte	W05
	.byte	PEND
song054_4_11:
	.byte	W01
	.byte		N05	, Gs1, v127
	.byte	W06
	.byte			Gs1, v116
	.byte	W06
	.byte			Gs2, v112
	.byte	W06
	.byte			Gs1, v104
	.byte	W06
	.byte			Gs2, v116
	.byte	W06
	.byte			Gs1, v127
	.byte	W06
	.byte			Gs1, v116
	.byte	W06
	.byte			Gs2, v112
	.byte	W06
	.byte			Gs3, v104
	.byte	W06
	.byte			Gs1, v116
	.byte	W06
	.byte			Gs1, v127
	.byte	W06
	.byte			Ds2
	.byte	W06
	.byte			Gs1, v124
	.byte	W06
	.byte			Ds3
	.byte	W06
	.byte			Gs1
	.byte	W06
	.byte			Gs2, v127
	.byte	W05
	.byte	PEND
song054_4_12:
	.byte	W01
	.byte		N05	, Gs1, v127
	.byte	W06
	.byte			Gs1, v116
	.byte	W06
	.byte			Gs2, v112
	.byte	W06
	.byte			Gs1, v104
	.byte	W06
	.byte			Gs2, v116
	.byte	W06
	.byte			Gs1, v127
	.byte	W06
	.byte			Gs1, v116
	.byte	W06
	.byte			Ds2, v112
	.byte	W06
	.byte			Gs2, v104
	.byte	W06
	.byte			Gs3, v116
	.byte	W06
	.byte			Gs1, v127
	.byte	W06
	.byte			Ds2
	.byte	W06
	.byte			Gs1, v124
	.byte	W06
	.byte			Ds3
	.byte	W06
	.byte			Gs2
	.byte	W06
	.byte			Gs1, v127
	.byte	W05
	.byte	PEND
song054_4_13:
	.byte	W01
	.byte		N05	, Fn1, v127
	.byte	W06
	.byte			Fn1, v116
	.byte	W06
	.byte			Fn2, v112
	.byte	W06
	.byte			Fn1, v104
	.byte	W06
	.byte			Fn2, v116
	.byte	W06
	.byte			Fn1, v127
	.byte	W06
	.byte			Fn1, v116
	.byte	W06
	.byte			Fn2, v112
	.byte	W06
	.byte			Fn3, v104
	.byte	W06
	.byte			Fn1, v116
	.byte	W06
	.byte			Fn1, v127
	.byte	W06
	.byte			Cn2
	.byte	W06
	.byte			Fn1, v124
	.byte	W06
	.byte			Cn3
	.byte	W06
	.byte			Fn1
	.byte	W06
	.byte			Fn2, v127
	.byte	W05
	.byte	PEND
song054_4_14:
	.byte	W01
	.byte		N05	, Fn1, v127
	.byte	W06
	.byte			Fn1, v116
	.byte	W06
	.byte			Fn2, v112
	.byte	W06
	.byte			Fn1, v104
	.byte	W06
	.byte			Fn2, v116
	.byte	W06
	.byte			Fn1, v127
	.byte	W06
	.byte			Fn1, v116
	.byte	W06
	.byte			Cn2, v112
	.byte	W06
	.byte			Fn2, v104
	.byte	W06
	.byte			Fn3, v116
	.byte	W06
	.byte			Fn1, v127
	.byte	W06
	.byte			Cn2
	.byte	W06
	.byte			Fn1, v124
	.byte	W06
	.byte			Cn3
	.byte	W06
	.byte			Fn2
	.byte	W06
	.byte			Fn1, v127
	.byte	W05
	.byte	PEND
song054_4_15:
	.byte	W01
	.byte		N05	, Ds1, v127
	.byte	W06
	.byte			Ds1, v116
	.byte	W06
	.byte			Ds2, v112
	.byte	W06
	.byte			Ds1, v104
	.byte	W06
	.byte			Ds2, v116
	.byte	W06
	.byte			Ds1, v127
	.byte	W06
	.byte			Ds1, v116
	.byte	W06
	.byte			Ds2, v112
	.byte	W06
	.byte			Ds3, v104
	.byte	W06
	.byte			Ds1, v116
	.byte	W06
	.byte			Ds1, v127
	.byte	W06
	.byte			As1
	.byte	W06
	.byte			Ds1, v124
	.byte	W06
	.byte			As2
	.byte	W06
	.byte			Ds1
	.byte	W06
	.byte			Ds2, v127
	.byte	W05
	.byte	PEND
song054_4_16:
	.byte	W01
	.byte		N05	, Dn1, v127
	.byte	W06
	.byte			Dn1, v116
	.byte	W06
	.byte			Dn2, v112
	.byte	W06
	.byte			Dn1, v104
	.byte	W06
	.byte			Dn2, v116
	.byte	W06
	.byte			Dn1, v127
	.byte	W06
	.byte			Gn1, v116
	.byte	W06
	.byte			Dn2, v112
	.byte	W06
	.byte			Gn2, v104
	.byte	W06
	.byte			Gn3, v116
	.byte	W06
	.byte			Gn1, v127
	.byte	W06
	.byte			Dn2
	.byte	W06
	.byte			Gn1, v124
	.byte	W06
	.byte			Dn3
	.byte	W06
	.byte			Gn2
	.byte	W06
	.byte			Gn1, v127
	.byte	W05
	.byte	PEND
	.byte	PATT	
		mPtr	song054_4_9
	.byte	PATT	
		mPtr	song054_4_10
	.byte	PATT	
		mPtr	song054_4_11
	.byte	PATT	
		mPtr	song054_4_12
	.byte	PATT	
		mPtr	song054_4_13
	.byte	PATT	
		mPtr	song054_4_14
	.byte	PATT	
		mPtr	song054_4_15
	.byte	PATT	
		mPtr	song054_4_16
	.byte	PATT	
		mPtr	song054_4_5
	.byte	PATT	
		mPtr	song054_4_8
	.byte	PATT	
		mPtr	song054_4_7
song054_4_17:
	.byte	W01
	.byte		N05	, Gn1, v127
	.byte	W06
	.byte			Gn1, v116
	.byte	W06
	.byte			Fn1, v112
	.byte	W06
	.byte			Gn1, v104
	.byte	W06
	.byte			Gn1, v116
	.byte	W06
	.byte			Gn1, v127
	.byte	W06
	.byte			As1, v116
	.byte	W06
	.byte			Gn1, v112
	.byte	W06
	.byte			As1, v104
	.byte	W06
	.byte			As1, v116
	.byte	W06
	.byte			Gn1, v127
	.byte	W06
	.byte			As1
	.byte	W06
	.byte			Gn1, v124
	.byte	W06
	.byte			As1
	.byte	W06
	.byte			Cn2
	.byte	W06
	.byte			Dn2, v127
	.byte	W05
	.byte	PEND
	.byte	PATT	
		mPtr	song054_4_5
	.byte	PATT	
		mPtr	song054_4_8
	.byte	PATT	
		mPtr	song054_4_7
	.byte	PATT	
		mPtr	song054_4_17
	.byte	PATT	
		mPtr	song054_4_5
	.byte	PATT	
		mPtr	song054_4_6
	.byte	PATT	
		mPtr	song054_4_7
	.byte	PATT	
		mPtr	song054_4_8
	.byte	PATT	
		mPtr	song054_4_5
	.byte	PATT	
		mPtr	song054_4_6
	.byte	PATT	
		mPtr	song054_4_7
	.byte	PATT	
		mPtr	song054_4_8
	.byte	PATT	
		mPtr	song054_4_9
	.byte	PATT	
		mPtr	song054_4_10
	.byte	PATT	
		mPtr	song054_4_11
	.byte	PATT	
		mPtr	song054_4_12
	.byte	PATT	
		mPtr	song054_4_13
	.byte	PATT	
		mPtr	song054_4_14
	.byte	PATT	
		mPtr	song054_4_15
	.byte	PATT	
		mPtr	song054_4_16
	.byte	PATT	
		mPtr	song054_4_9
	.byte	PATT	
		mPtr	song054_4_10
	.byte	PATT	
		mPtr	song054_4_11
	.byte	PATT	
		mPtr	song054_4_12
	.byte	PATT	
		mPtr	song054_4_13
	.byte	PATT	
		mPtr	song054_4_14
	.byte	PATT	
		mPtr	song054_4_15
	.byte	PATT	
		mPtr	song054_4_16
	.byte	PATT	
		mPtr	song054_4_5
	.byte	PATT	
		mPtr	song054_4_6
	.byte	PATT	
		mPtr	song054_4_7
	.byte	PATT	
		mPtr	song054_4_8
	.byte	PATT	
		mPtr	song054_4_5
	.byte	PATT	
		mPtr	song054_4_6
	.byte	PATT	
		mPtr	song054_4_7
	.byte	PATT	
		mPtr	song054_4_8
	.byte	PATT	
		mPtr	song054_4_5
	.byte	PATT	
		mPtr	song054_4_6
	.byte	PATT	
		mPtr	song054_4_7
	.byte	PATT	
		mPtr	song054_4_8
	.byte	PATT	
		mPtr	song054_4_5
	.byte	PATT	
		mPtr	song054_4_6
	.byte	PATT	
		mPtr	song054_4_7
	.byte	PATT	
		mPtr	song054_4_8
	.byte	PATT	
		mPtr	song054_4_1
	.byte	PATT	
		mPtr	song054_4_2
	.byte	GOTO	
		mPtr	song054_4_18
	.byte	PATT	
		mPtr	song054_4_1
	.byte	PATT	
		mPtr	song054_4_19
	.byte	FINE

	@********************** Track  5 **********************@

	.global song054_5
song054_5:	@ 0x08292ED0
	.byte	KEYSH	, 0
	.byte	VOICE	, 0
	.byte	VOL	, v060
	.byte	BENDR	, 13
	.byte	LFOS	, 28
	.byte	MODT	, 0
	.byte	MOD	, 1
	.byte	W01
	.byte	PAN	, c_v+6
	.byte	W02
	.byte	W96
	.byte	W96
song054_5_15:
	.byte	W96
	.byte	W96
	.byte	W96
	.byte	W96
	.byte	W96
	.byte	W96
	.byte	W96
	.byte	W96
	.byte	W96
	.byte	W96
song054_5_2:
	.byte	W01
	.byte		N24	, An4, v108
	.byte	W24
	.byte			En5
	.byte	W24
	.byte			Ds5
	.byte	W14
	.byte	MOD	, 1
	.byte	W10
	.byte		N24	, Bn4
	.byte	W23
	.byte	PEND
song054_5_1:
	.byte	W01
	.byte		N24	, Dn5, v108
	.byte	W24
	.byte			Cn5
	.byte	W02
	.byte	MOD	, 1
	.byte	W22
	.byte		N24	, Gs4
	.byte	W24
	.byte			Bn4
	.byte	W23
	.byte	PEND
	.byte	MOD	, 2
	.byte	W01
	.byte		N36	, An4
	.byte	W36
	.byte		N06	, Gs4
	.byte	W06
	.byte			Gn4
	.byte	W06
	.byte		N48	, Fs4
	.byte	W12
	.byte	MOD	, 5
	.byte	W11
	.byte		7
	.byte	W24
	.byte	W01
	.byte		N96	, Fn4
	.byte	W23
	.byte	MOD	, 9
	.byte	W18
	.byte		9
	.byte	W18
	.byte		9
	.byte	W32
	.byte	W01
	.byte		9
	.byte	W01
	.byte		9
	.byte	W02
	.byte	W01
	.byte		6
	.byte		N24	, An4
	.byte	W04
	.byte	MOD	, 2
	.byte	W01
	.byte		1
	.byte	W02
	.byte		1
	.byte	W02
	.byte		1
	.byte	W15
	.byte		N24	, En5
	.byte	W24
	.byte			Ds5
	.byte	W24
	.byte			Bn4
	.byte	W23
	.byte	W01
	.byte			Dn5
	.byte	W24
	.byte			Cn5
	.byte	W24
	.byte			Gs4
	.byte	W06
	.byte	MOD	, 1
	.byte	W18
	.byte		N24	, Bn4
	.byte	W21
	.byte	MOD	, 1
	.byte	W02
	.byte	W01
	.byte		N48	, An4
	.byte	W28
	.byte	MOD	, 2
	.byte	W20
	.byte		N48	, Cn5
	.byte	W13
	.byte	MOD	, 5
	.byte	W21
	.byte		7
	.byte	W13
	.byte	W01
	.byte		N48	, Ds5
	.byte	W02
	.byte	MOD	, 9
	.byte	W12
	.byte		9
	.byte	W32
	.byte	W02
	.byte		N48	, Fn5
	.byte	W05
	.byte	MOD	, 9
	.byte	W40
	.byte	W01
	.byte		9
	.byte	W01
	.byte	W01
	.byte		1
	.byte		N24	, An4
	.byte	W01
	.byte	MOD	, 1
	.byte	W01
	.byte	VOL	, v073
	.byte	PAN	, c_v+6
	.byte	W22
	.byte		N24	, En5
	.byte	W24
	.byte			Ds5
	.byte	W14
	.byte	MOD	, 1
	.byte	W10
	.byte		N24	, Bn4
	.byte	W23
	.byte	PATT	
		mPtr	song054_5_1
	.byte	MOD	, 2
	.byte	W01
	.byte		N36	, An4, v108
	.byte	W36
	.byte		N06	, Gs4
	.byte	W06
	.byte		N07	, Gn4
	.byte	W06
	.byte		N48	, Fs4
	.byte	W05
	.byte	MOD	, 5
	.byte	W18
	.byte		7
	.byte	W24
	.byte	W01
	.byte		TIE	, Fn4
	.byte	W23
	.byte	MOD	, 9
	.byte	W18
	.byte		9
	.byte	W18
	.byte		9
	.byte	W32
	.byte	W01
	.byte		9
	.byte	W01
	.byte		1
	.byte	W02
	.byte	W01
	.byte		N24	, An4
	.byte	W03
	.byte		EOT	, Fn4
	.byte	W21
	.byte		N24	, En5
	.byte	W24
	.byte			Ds5
	.byte	W24
	.byte			Bn4
	.byte	W23
song054_5_3:
	.byte	W01
	.byte		N24	, Dn5, v108
	.byte	W24
	.byte			Cn5
	.byte	W24
	.byte			Gs4
	.byte	W24
	.byte			Bn4
	.byte	W23
	.byte	PEND
song054_5_4:
	.byte	W01
	.byte		N48	, An4, v108
	.byte	W48
	.byte			Cn5
	.byte	W36
	.byte	MOD	, 1
	.byte	W11
	.byte	PEND
	.byte	W01
	.byte		1
	.byte		N48	, Ds5
	.byte	W13
	.byte	MOD	, 1
	.byte	W13
	.byte		3
	.byte	W22
	.byte		N48	, Fn5
	.byte	W44
	.byte	W03
song054_5_5:
	.byte	W01
	.byte		N84	, En5, v108
	.byte	W02
	.byte	MOD	, 1
	.byte	W02
	.byte		1
	.byte	W36
	.byte	W03
	.byte		1
	.byte	W05
	.byte		1
	.byte	W06
	.byte		1
	.byte	W07
	.byte		3
	.byte	W07
	.byte		6
	.byte	W06
	.byte		9
	.byte	W10
	.byte		N06	, Ds5
	.byte	W03
	.byte	MOD	, 6
	.byte	W03
	.byte		3
	.byte		N07	, Dn5
	.byte	W04
	.byte	MOD	, 1
	.byte	W01
	.byte	PEND
	.byte		1
	.byte	W01
	.byte		N84	, Cn5
	.byte	W01
	.byte	MOD	, 1
	.byte	W48
	.byte	W03
	.byte		1
	.byte	W06
	.byte		1
	.byte	W04
	.byte		2
	.byte	W09
	.byte		5
	.byte	W13
	.byte		N06	, Ds5
	.byte	W05
	.byte	MOD	, 2
	.byte	W01
	.byte		N07	, En5
	.byte	W01
	.byte	MOD	, 1
	.byte	W02
	.byte		1
	.byte	W01
	.byte		1
	.byte	W01
song054_5_6:
	.byte	W01
	.byte		N84	, Ds5, v108
	.byte	W44
	.byte	MOD	, 1
	.byte	W03
	.byte		1
	.byte	W05
	.byte		2
	.byte	W09
	.byte		5
	.byte	W23
	.byte		1
	.byte		N08	, Cs5
	.byte	W01
	.byte	MOD	, 1
	.byte	W05
	.byte		N07	, Bn4
	.byte	W05
	.byte	PEND
	.byte	W01
	.byte		TIE	, As4
	.byte	W36
	.byte	W02
	.byte	MOD	, 1
	.byte	W07
	.byte		1
	.byte	W06
	.byte		1
	.byte	W07
	.byte		3
	.byte	W28
	.byte		1
	.byte	W01
	.byte		1
	.byte	W08
	.byte	W01
	.byte		N84	, Cn5
	.byte	W03
	.byte		EOT	, As4
	.byte	W42
	.byte	W01
	.byte	MOD	, 1
	.byte	W06
	.byte		1
	.byte	W07
	.byte		2
	.byte	W24
	.byte	W01
	.byte		N06	, Dn5
	.byte	W02
	.byte	MOD	, 1
	.byte	W02
	.byte		1
	.byte	W02
	.byte		N07	, Ds5
	.byte	W05
song054_5_7:
	.byte	W01
	.byte		N60	, Dn5, v108
	.byte	W32
	.byte	W01
	.byte	MOD	, 1
	.byte	W05
	.byte		1
	.byte	W08
	.byte		1
	.byte	W08
	.byte		3
	.byte	W06
	.byte		N24	, Cn5
	.byte	W01
	.byte	MOD	, 1
	.byte	W01
	.byte		1
	.byte	W02
	.byte		1
	.byte	W20
	.byte		N12	, Dn5
	.byte	W11
	.byte	PEND
song054_5_8:
	.byte	W01
	.byte		N84	, Ds5, v108
	.byte	W28
	.byte	W01
	.byte	MOD	, 1
	.byte	W05
	.byte		1
	.byte	W06
	.byte		2
	.byte	W10
	.byte		5
	.byte	W32
	.byte	W02
	.byte		N08	, Dn5
	.byte	W02
	.byte	MOD	, 2
	.byte	W02
	.byte		1
	.byte	W01
	.byte		1
	.byte	W01
	.byte		N07	, Ds5
	.byte	W05
	.byte	PEND
song054_5_9:
	.byte	W01
	.byte		N48	, Fn5, v108
	.byte	W48
	.byte			Gn5
	.byte	W44
	.byte	W03
	.byte	PEND
song054_5_10:
	.byte	W01
	.byte		N84	, En5, v108
	.byte	W42
	.byte	MOD	, 1
	.byte	W06
	.byte		1
	.byte	W03
	.byte		2
	.byte	W32
	.byte	W01
	.byte		N06	, Ds5
	.byte	W03
	.byte	MOD	, 1
	.byte	W02
	.byte		1
	.byte	W01
	.byte		N07	, Dn5
	.byte	W05
	.byte	PEND
	.byte	W01
	.byte		N84	, Cn5
	.byte	W36
	.byte	MOD	, 1
	.byte	W04
	.byte		1
	.byte	W05
	.byte		2
	.byte	W12
	.byte		5
	.byte	W24
	.byte	W03
	.byte		N07	, Ds5
	.byte	W01
	.byte	MOD	, 1
	.byte	W01
	.byte		1
	.byte	W04
	.byte		N06	, En5
	.byte	W05
song054_5_11:
	.byte	W01
	.byte		N84	, Ds5, v108
	.byte	W32
	.byte	W01
	.byte	MOD	, 1
	.byte	W07
	.byte		1
	.byte	W09
	.byte		2
	.byte	W09
	.byte		5
	.byte	W24
	.byte		1
	.byte	W02
	.byte		1
	.byte		N06	, Cs5
	.byte	W01
	.byte	MOD	, 1
	.byte	W05
	.byte		N06	, Bn4
	.byte	W05
	.byte	PEND
song054_5_12:
	.byte	W01
	.byte		N48	, As4, v108
	.byte	W30
	.byte	MOD	, 1
	.byte	W09
	.byte		1
	.byte	W09
	.byte		1
	.byte		N48	, Bn4
	.byte	W09
	.byte	MOD	, 3
	.byte	W36
	.byte	W02
	.byte	PEND
song054_5_13:
	.byte	W01
	.byte		N84	, Cn5, v108
	.byte	W01
	.byte	MOD	, 1
	.byte	W02
	.byte		1
	.byte	W02
	.byte		1
	.byte	W36
	.byte	W01
	.byte		1
	.byte	W05
	.byte		1
	.byte	W12
	.byte		2
	.byte	W10
	.byte		5
	.byte	W15
	.byte		N06	, Dn5
	.byte	W06
	.byte		N07	, Ds5
	.byte	W02
	.byte	MOD	, 2
	.byte	W01
	.byte		1
	.byte	W02
	.byte	PEND
song054_5_14:
	.byte	MOD	, 1
	.byte	W01
	.byte		N60	, Dn5, v108
	.byte	W32
	.byte	W03
	.byte	MOD	, 1
	.byte	W05
	.byte		1
	.byte	W06
	.byte		1
	.byte	W12
	.byte		3
	.byte	W02
	.byte		N24	, Cn5
	.byte	W18
	.byte	MOD	, 1
	.byte	W01
	.byte		1
	.byte	W03
	.byte		1
	.byte	W02
	.byte		N12	, Dn5
	.byte	W11
	.byte	PEND
	.byte	W01
	.byte		N48	, Ds5
	.byte	W24
	.byte	W03
	.byte	MOD	, 1
	.byte	W05
	.byte		1
	.byte	W07
	.byte		2
	.byte	W09
	.byte		N36	, As5
	.byte	W04
	.byte	MOD	, 5
	.byte	W24
	.byte		2
	.byte	W02
	.byte		1
	.byte	W02
	.byte		1
	.byte	W04
	.byte		N06	, Gs5
	.byte	W06
	.byte		N07	, Gn5
	.byte	W05
	.byte	W01
	.byte		N48	, Fn5
	.byte	W48
	.byte			Gn5
	.byte	W23
	.byte	MOD	, 5
	.byte	W16
	.byte		1
	.byte	W08
	.byte	W66
	.byte	W01
	.byte		N08	, En3
	.byte	W06
	.byte			An3
	.byte	W06
	.byte			Cn4
	.byte	W06
	.byte			Dn4
	.byte	W06
	.byte			Ds4
	.byte	W05
	.byte	W01
	.byte		N72	, En4
	.byte	W32
	.byte	W03
	.byte	MOD	, 1
	.byte	W03
	.byte		1
	.byte	W03
	.byte		2
	.byte	W07
	.byte		5
	.byte	W05
	.byte		7
	.byte	W24
	.byte		5
	.byte	W02
	.byte		1
	.byte	W01
	.byte		1
	.byte	W01
	.byte	W03
	.byte		N07	, Fs4
	.byte	W06
	.byte			Gn4
	.byte	W05
	.byte	W01
	.byte		N84	, Fs4
	.byte	W28
	.byte	W01
	.byte	MOD	, 1
	.byte	W06
	.byte		1
	.byte	W10
	.byte		2
	.byte	W20
	.byte		5
	.byte	W19
	.byte		N06	, En4
	.byte	W02
	.byte	MOD	, 2
	.byte	W02
	.byte		1
	.byte	W01
	.byte		1
	.byte	W01
	.byte		N07	, Ds4
	.byte	W01
	.byte	MOD	, 1
	.byte	W04
	.byte	W01
	.byte		N60	, Dn4
	.byte	W44
	.byte	W03
	.byte	MOD	, 1
	.byte	W13
	.byte		N36	, Ds4
	.byte	W12
	.byte	MOD	, 1
	.byte	W23
	.byte	W01
	.byte		N84	, En4
	.byte	W24
	.byte	W03
	.byte	MOD	, 1
	.byte	W08
	.byte		1
	.byte	W07
	.byte		2
	.byte	W09
	.byte		5
	.byte	W17
	.byte		7
	.byte	W16
	.byte		5
	.byte		N06	, An4
	.byte	W02
	.byte	MOD	, 1
	.byte	W01
	.byte		1
	.byte	W02
	.byte		1
	.byte	W01
	.byte		N06	, Cn5
	.byte	W05
	.byte	W01
	.byte		N60	, Dn5
	.byte	W30
	.byte	W01
	.byte	MOD	, 1
	.byte	W06
	.byte		1
	.byte	W07
	.byte		2
	.byte	W06
	.byte		5
	.byte	W10
	.byte		7
	.byte		N12	, Cn5
	.byte	W07
	.byte	MOD	, 3
	.byte	W01
	.byte		1
	.byte	W02
	.byte		1
	.byte	W17
	.byte		N06	, Dn5
	.byte	W03
	.byte		N18	, Ds5
	.byte	W05
	.byte	W13
	.byte		N13	, Dn5
	.byte	W12
	.byte		N04	, Cn5
	.byte	W12
	.byte		N24	, Dn5
	.byte	W24
	.byte			Cn5
	.byte	W24
	.byte		N05	, Bn4
	.byte	W06
	.byte		N07	, Cn5
	.byte	W05
	.byte	W01
	.byte		N84	, Bn4
	.byte	W32
	.byte	W02
	.byte	MOD	, 1
	.byte	W03
	.byte		1
	.byte	W05
	.byte		1
	.byte	W06
	.byte		3
	.byte	W07
	.byte		6
	.byte	W06
	.byte		9
	.byte	W32
	.byte		1
	.byte	W01
	.byte		1
	.byte	W01
	.byte	PATT	
		mPtr	song054_5_2
	.byte	PATT	
		mPtr	song054_5_1
	.byte	MOD	, 2
	.byte	W01
	.byte		N36	, An4, v108
	.byte	W36
	.byte		N06	, Gs4
	.byte	W06
	.byte			Gn4
	.byte	W06
	.byte		N48	, Fs4
	.byte	W05
	.byte	MOD	, 5
	.byte	W18
	.byte		7
	.byte	W24
	.byte	W01
	.byte		N92	, Fn4
	.byte	W23
	.byte	MOD	, 9
	.byte	W18
	.byte		9
	.byte	W18
	.byte		9
	.byte	W32
	.byte	W01
	.byte		9
	.byte	W01
	.byte		1
	.byte	W02
	.byte	W01
	.byte		N24	, An4
	.byte	W24
	.byte			En5
	.byte	W24
	.byte			Ds5
	.byte	W24
	.byte			Bn4
	.byte	W23
	.byte	PATT	
		mPtr	song054_5_3
	.byte	PATT	
		mPtr	song054_5_4
	.byte	W01
	.byte	MOD	, 1
	.byte		N44	, Ds5, v108
	.byte	W13
	.byte	MOD	, 1
	.byte	W13
	.byte		3
	.byte	W22
	.byte		N48	, An5
	.byte	W44
	.byte	W03
	.byte	PATT	
		mPtr	song054_5_5
	.byte	MOD	, 1
	.byte	W01
	.byte		N84	, Cn5, v108
	.byte	W01
	.byte	MOD	, 1
	.byte	W48
	.byte	W03
	.byte		1
	.byte	W06
	.byte		1
	.byte	W04
	.byte		2
	.byte	W09
	.byte		5
	.byte	W13
	.byte		N06	, Ds5
	.byte	W05
	.byte	MOD	, 2
	.byte	W01
	.byte		N06	, En5
	.byte	W01
	.byte	MOD	, 1
	.byte	W02
	.byte		1
	.byte	W01
	.byte		1
	.byte	W01
	.byte	PATT	
		mPtr	song054_5_6
	.byte	W01
	.byte		N96	, As4, v108
	.byte	W36
	.byte	W02
	.byte	MOD	, 1
	.byte	W07
	.byte		1
	.byte	W06
	.byte		1
	.byte	W07
	.byte		3
	.byte	W28
	.byte		1
	.byte	W01
	.byte		1
	.byte	W08
	.byte	W01
	.byte		N84	, Cn5
	.byte	W44
	.byte	W02
	.byte	MOD	, 1
	.byte	W06
	.byte		1
	.byte	W07
	.byte		2
	.byte	W24
	.byte	W01
	.byte		N06	, Dn5
	.byte	W02
	.byte	MOD	, 1
	.byte	W02
	.byte		1
	.byte	W02
	.byte		N07	, Ds5
	.byte	W05
	.byte	PATT	
		mPtr	song054_5_7
	.byte	PATT	
		mPtr	song054_5_8
	.byte	PATT	
		mPtr	song054_5_9
	.byte	PATT	
		mPtr	song054_5_10
	.byte	W01
	.byte		N84	, Cn5, v108
	.byte	W36
	.byte	MOD	, 1
	.byte	W04
	.byte		1
	.byte	W05
	.byte		2
	.byte	W12
	.byte		5
	.byte	W24
	.byte	W03
	.byte		N05	, Ds5
	.byte	W01
	.byte	MOD	, 1
	.byte	W01
	.byte		1
	.byte	W04
	.byte		N06	, En5
	.byte	W05
	.byte	PATT	
		mPtr	song054_5_11
	.byte	PATT	
		mPtr	song054_5_12
	.byte	PATT	
		mPtr	song054_5_13
	.byte	PATT	
		mPtr	song054_5_14
	.byte	W01
	.byte		N48	, Ds5, v108
	.byte	W24
	.byte	W03
	.byte	MOD	, 1
	.byte	W05
	.byte		1
	.byte	W07
	.byte		2
	.byte	W09
	.byte		N36	, As5
	.byte	W04
	.byte	MOD	, 5
	.byte	W24
	.byte		2
	.byte	W02
	.byte		1
	.byte	W02
	.byte		1
	.byte	W04
	.byte		N06	, Gs5
	.byte	W06
	.byte			Gn5
	.byte	W05
	.byte	PATT	
		mPtr	song054_5_9
	.byte	W01
	.byte	PAN	, c_v-64
	.byte		N18	, An4, v088
	.byte	W32
	.byte	W02
	.byte	PAN	, c_v+61
	.byte	W02
	.byte		N18	, Cn5
	.byte	W56
	.byte	W02
	.byte	PAN	, c_v-64
	.byte	W01
	.byte	W01
	.byte		N18	, Bn4
	.byte	W32
	.byte	W02
	.byte	PAN	, c_v+63
	.byte	W02
	.byte		N18	, As4
	.byte	W56
	.byte	W02
	.byte	PAN	, c_v-64
	.byte	W01
	.byte	W01
	.byte		N18	, An4
	.byte	W36
	.byte	PAN	, c_v+63
	.byte		N18	, Cn5
	.byte	W56
	.byte	W03
	.byte	W01
	.byte	PAN	, c_v-64
	.byte		N18	, Bn4
	.byte	W32
	.byte	W02
	.byte	PAN	, c_v+63
	.byte	W02
	.byte		N18	, As4
	.byte	W56
	.byte	W03
	.byte	PAN	, c_v-64
	.byte	W01
	.byte		N18	, An4
	.byte	W32
	.byte	W03
	.byte	PAN	, c_v+63
	.byte	W01
	.byte		N18	, Cn5
	.byte	W44
	.byte	W03
	.byte	PAN	, c_v-64
	.byte	W12
	.byte	W01
	.byte		N18	, Bn4
	.byte	W32
	.byte	PAN	, c_v+63
	.byte	W04
	.byte		N18	, As4
	.byte	W54
	.byte	PAN	, c_v-64
	.byte	W05
	.byte	W01
	.byte		N18	, An4
	.byte	W32
	.byte	W02
	.byte	PAN	, c_v+63
	.byte	W02
	.byte		N18	, Cn5
	.byte	W56
	.byte	PAN	, c_v-64
	.byte	W03
	.byte	W01
	.byte		N18	, Bn4
	.byte	W32
	.byte	W02
	.byte	PAN	, c_v+63
	.byte	W02
	.byte		N18	, As4
	.byte	W52
	.byte	W01
	.byte	PAN	, c_v+53
	.byte	W01
	.byte		c_v+33
	.byte	W01
	.byte		c_v-17
	.byte	W01
	.byte		c_v-64
	.byte	W03
	.byte	W13
	.byte		N05	, En5
	.byte	W12
	.byte		N04	, An5
	.byte	W05
	.byte	PAN	, c_v-63
	.byte	W01
	.byte		c_v-50
	.byte	W01
	.byte		c_v-3
	.byte	W01
	.byte		c_v+63
	.byte	W04
	.byte		N06	, En6
	.byte	W24
	.byte		N04	, En5
	.byte	W12
	.byte		N05	, Dn6
	.byte	W05
	.byte	PAN	, c_v+62
	.byte	W03
	.byte		c_v+58
	.byte	W03
	.byte		c_v+47
	.byte	W01
	.byte		c_v+36
	.byte		N04	, An5
	.byte	W01
	.byte	PAN	, c_v+17
	.byte	W01
	.byte		c_v-55
	.byte	W01
	.byte		c_v-64
	.byte	W08
	.byte	W13
	.byte		N04	, En5
	.byte	W12
	.byte			An5
	.byte	W08
	.byte	PAN	, c_v-62
	.byte	W02
	.byte		c_v-46
	.byte	W01
	.byte		c_v-31
	.byte	W01
	.byte		c_v
	.byte		N05	, En6
	.byte	W01
	.byte	PAN	, c_v+19
	.byte	W01
	.byte		c_v+41
	.byte	W01
	.byte		c_v+63
	.byte	W21
	.byte		N04	, En5
	.byte	W12
	.byte		N05	, Dn6
	.byte	W12
	.byte		N04	, An5
	.byte	W05
	.byte	PAN	, c_v+55
	.byte	W01
	.byte		c_v+44
	.byte	W01
	.byte		c_v+20
	.byte	W01
	.byte		c_v-9
	.byte	W01
	.byte		c_v-35
	.byte	W01
	.byte		c_v-64
	.byte	W01
	.byte	W13
	.byte		N05	, En5
	.byte	W12
	.byte		N04	, An5
	.byte	W10
	.byte	PAN	, c_v-58
	.byte	W02
	.byte		c_v-11
	.byte		N04	, En6
	.byte	W01
	.byte	PAN	, c_v+30
	.byte	W01
	.byte		c_v+57
	.byte	W01
	.byte		c_v+63
	.byte	W21
	.byte		N04	, En5
	.byte	W12
	.byte			Dn6
	.byte	W11
	.byte	PAN	, c_v+58
	.byte	W01
	.byte		c_v+50
	.byte		N04	, An5
	.byte	W01
	.byte	PAN	, c_v+20
	.byte	W02
	.byte		c_v-21
	.byte	W01
	.byte		c_v-41
	.byte	W01
	.byte		c_v-56
	.byte	W01
	.byte		c_v-64
	.byte	W05
	.byte	W13
	.byte		N05	, En5
	.byte	W12
	.byte		N04	, An5
	.byte	W03
	.byte	PAN	, c_v-63
	.byte	W01
	.byte		c_v-54
	.byte	W01
	.byte		c_v-42
	.byte	W01
	.byte		c_v-10
	.byte	W01
	.byte		c_v+10
	.byte	W01
	.byte		c_v+29
	.byte	W01
	.byte		c_v+43
	.byte	W01
	.byte		c_v+58
	.byte	W01
	.byte		c_v+63
	.byte	W01
	.byte		N04	, En6
	.byte	W24
	.byte			En5
	.byte	W12
	.byte			Dn6
	.byte	W10
	.byte	PAN	, c_v+62
	.byte	W02
	.byte		c_v+52
	.byte		N04	, An5
	.byte	W01
	.byte	PAN	, c_v+43
	.byte	W01
	.byte		c_v+33
	.byte	W01
	.byte		c_v+22
	.byte	W01
	.byte		c_v-11
	.byte	W01
	.byte		c_v-28
	.byte	W01
	.byte		c_v-51
	.byte	W01
	.byte		c_v-64
	.byte	W04
	.byte	W01
	.byte		N04	, En5
	.byte	W12
	.byte			An5
	.byte	W04
	.byte	PAN	, c_v-59
	.byte	W01
	.byte		c_v-45
	.byte	W01
	.byte		c_v-28
	.byte	W01
	.byte		c_v-2
	.byte	W01
	.byte		c_v+63
	.byte	W04
	.byte		N04	, En6
	.byte	W12
	.byte			En5
	.byte	W04
	.byte	PAN	, c_v+52
	.byte	W01
	.byte		c_v+37
	.byte	W01
	.byte		c_v+19
	.byte	W01
	.byte		c_v-19
	.byte	W01
	.byte		c_v-64
	.byte	W04
	.byte		N04	, An5
	.byte	W12
	.byte			Dn6
	.byte	W01
	.byte	PAN	, c_v-61
	.byte	W01
	.byte		c_v-50
	.byte	W01
	.byte		c_v-34
	.byte	W01
	.byte		c_v-13
	.byte	W01
	.byte		c_v+7
	.byte	W01
	.byte		c_v+41
	.byte	W01
	.byte		c_v+63
	.byte	W05
	.byte		N04	, En5
	.byte	W12
	.byte			An5
	.byte	W06
	.byte	PAN	, c_v+50
	.byte	W01
	.byte		c_v+30
	.byte	W01
	.byte		c_v+9
	.byte	W01
	.byte		c_v-12
	.byte	W01
	.byte		c_v-33
	.byte	W01
	.byte		c_v-54
	.byte	W01
	.byte		c_v-64
	.byte		N05	, En5
	.byte	W12
	.byte		N04	, An5
	.byte	W04
	.byte	PAN	, c_v-63
	.byte	W01
	.byte		c_v-46
	.byte	W01
	.byte		c_v-30
	.byte	W01
	.byte		c_v-12
	.byte	W01
	.byte		c_v+4
	.byte	W01
	.byte		c_v+24
	.byte	W01
	.byte		c_v+41
	.byte	W01
	.byte		c_v+55
	.byte	W01
	.byte		c_v+63
	.byte		N05	, En6
	.byte	W12
	.byte		N04	, En5
	.byte	W07
	.byte	PAN	, c_v+61
	.byte	W01
	.byte		c_v+50
	.byte	W01
	.byte		c_v+35
	.byte	W01
	.byte		c_v+17
	.byte	W01
	.byte		c_v-45
	.byte	W01
	.byte		c_v-64
	.byte		N04	, An5
	.byte	W12
	.byte		N05	, Dn6
	.byte	W05
	.byte	PAN	, c_v-63
	.byte	W03
	.byte		c_v-52
	.byte	W01
	.byte		c_v-38
	.byte	W01
	.byte		c_v+17
	.byte	W01
	.byte		c_v+40
	.byte	W01
	.byte		c_v+63
	.byte		N04	, An5
	.byte	W12
	.byte			En5
	.byte	W07
	.byte	PAN	, c_v+60
	.byte	W01
	.byte		c_v+45
	.byte	W01
	.byte		c_v-4
	.byte	W01
	.byte		c_v-25
	.byte	W01
	.byte		c_v-54
	.byte	W01
	.byte		c_v-64
	.byte		N05	, An5
	.byte	W12
	.byte			En6
	.byte	W02
	.byte	PAN	, c_v-53
	.byte	W01
	.byte		c_v-43
	.byte	W01
	.byte		c_v-32
	.byte	W01
	.byte		c_v-16
	.byte	W01
	.byte		c_v+3
	.byte	W01
	.byte		c_v+20
	.byte	W01
	.byte		c_v+63
	.byte	W04
	.byte		N05	, En5
	.byte	W12
	.byte		N04	, An5
	.byte	W01
	.byte	PAN	, c_v+54
	.byte	W02
	.byte		c_v+27
	.byte	W01
	.byte		c_v+6
	.byte	W01
	.byte		c_v-16
	.byte	W01
	.byte		c_v-32
	.byte	W01
	.byte		c_v-46
	.byte	W01
	.byte		c_v-59
	.byte	W04
	.byte		N04	, Dn6
	.byte	W12
	.byte	PAN	, c_v-54
	.byte		N05	, En5
	.byte	W01
	.byte	PAN	, c_v-44
	.byte	W01
	.byte		c_v-31
	.byte	W01
	.byte		c_v-14
	.byte	W01
	.byte		c_v+4
	.byte	W01
	.byte		c_v+21
	.byte	W01
	.byte		c_v+39
	.byte	W01
	.byte		c_v+58
	.byte	W05
	.byte		N05	, An5
	.byte	W12
	.byte			En6
	.byte	W02
	.byte	PAN	, c_v+59
	.byte	W01
	.byte		c_v+50
	.byte	W01
	.byte		c_v+39
	.byte	W01
	.byte		c_v+18
	.byte	W01
	.byte		c_v-24
	.byte	W01
	.byte		c_v-46
	.byte	W01
	.byte		c_v-63
	.byte	W03
	.byte	W01
	.byte		N05	, En5
	.byte	W12
	.byte		N04	, An5
	.byte	W02
	.byte	PAN	, c_v-63
	.byte	W02
	.byte		c_v-47
	.byte	W01
	.byte		c_v-15
	.byte	W01
	.byte		c_v+5
	.byte	W01
	.byte		c_v+23
	.byte	W01
	.byte		c_v+44
	.byte	W01
	.byte		c_v+63
	.byte	W03
	.byte		N05	, Dn6
	.byte	W12
	.byte			En5
	.byte	W04
	.byte	PAN	, c_v+62
	.byte	W01
	.byte		c_v+40
	.byte	W01
	.byte		c_v+22
	.byte	W01
	.byte		c_v-9
	.byte	W01
	.byte		c_v-37
	.byte	W01
	.byte		c_v-56
	.byte	W01
	.byte		c_v-64
	.byte	W02
	.byte		N04	, An5
	.byte	W12
	.byte		N05	, En6
	.byte	W03
	.byte	PAN	, c_v-63
	.byte	W01
	.byte		c_v-40
	.byte	W01
	.byte		c_v-25
	.byte	W01
	.byte		c_v-5
	.byte	W01
	.byte		c_v+20
	.byte	W01
	.byte		c_v+37
	.byte	W01
	.byte		c_v+63
	.byte	W03
	.byte		N04	, An5
	.byte	W12
	.byte		N05	, En5
	.byte	W04
	.byte	PAN	, c_v+62
	.byte	W01
	.byte		c_v+53
	.byte	W01
	.byte		c_v+40
	.byte	W01
	.byte		c_v+24
	.byte	W01
	.byte		c_v-42
	.byte	W01
	.byte		c_v-64
	.byte	W02
	.byte	W21
	.byte		c_v+6
	.byte	W72
	.byte	W03
	.byte	W96
	.byte	GOTO	
		mPtr	song054_5_15
	.byte	FINE

	@********************** Track  6 **********************@

	.global song054_6
song054_6:	@ 0x082935CC
	.byte	KEYSH	, 0
	.byte	VOICE	, 98
	.byte	VOL	, v080
	.byte	PAN	, c_v+16
	.byte	BENDR	, 12
	.byte	W03
	.byte	W96
	.byte	W96
song054_6_12:
	.byte	W96
	.byte	W96
	.byte		N23	, An3, v127
	.byte	W24
	.byte		N24	, En4
	.byte	W24
	.byte			Ds4
	.byte	W24
	.byte			Bn3
	.byte	W24
song054_6_1:
	.byte		N24	, Dn4, v127
	.byte	W24
	.byte			Cn4
	.byte	W24
	.byte			Gs3
	.byte	W24
	.byte			Bn3
	.byte	W24
	.byte	PEND
	.byte		N36	, An3
	.byte	W36
	.byte		N06	, Gs3
	.byte	W06
	.byte			Gn3
	.byte	W06
	.byte		N44	, Fs3
	.byte	W48
	.byte		N92	, Fn3
	.byte	W96
	.byte		N24	, An3
	.byte	W24
	.byte			En4
	.byte	W24
	.byte			Ds4
	.byte	W24
	.byte			Bn3
	.byte	W24
	.byte	PATT	
		mPtr	song054_6_1
	.byte		N48	, An3, v127
	.byte	W48
	.byte		N44	, Cn4
	.byte	W48
	.byte			Dn4
	.byte	W48
	.byte			Ds4
	.byte	W48
song054_6_3:
	.byte		N23	, En3, v127
	.byte	W24
	.byte		N24	, Cn4
	.byte	W24
	.byte			Bn3
	.byte	W24
	.byte			Fs3
	.byte	W24
	.byte	PEND
song054_6_2:
	.byte		N24	, An3, v127
	.byte	W24
	.byte			Gn3
	.byte	W24
	.byte			Ds3
	.byte	W24
	.byte			Fs3
	.byte	W24
	.byte	PEND
	.byte		N36	, En3
	.byte	W36
	.byte		N07	, Dn3
	.byte	W06
	.byte		N06	, Cs3
	.byte	W06
	.byte		N44	, Bn2
	.byte	W48
	.byte		N92	, Gs2
	.byte	W96
song054_6_4:
	.byte		N24	, En3, v127
	.byte	W24
	.byte			Cn4
	.byte	W24
	.byte			Bn3
	.byte	W24
	.byte			Fs3
	.byte	W24
	.byte	PEND
	.byte	PATT	
		mPtr	song054_6_2
song054_6_5:
	.byte		N36	, En3, v127
	.byte	W36
	.byte		N07	, Dn3
	.byte	W06
	.byte		N06	, Cs3
	.byte	W06
	.byte		N44	, Cn3
	.byte	W48
	.byte	PEND
	.byte		N92	, Gs2
	.byte	W96
	.byte	PATT	
		mPtr	song054_6_3
	.byte	PATT	
		mPtr	song054_6_2
	.byte		N36	, Cn3, v127
	.byte	W36
	.byte		N07	, Bn2
	.byte	W06
	.byte		N06	, As2
	.byte	W06
	.byte		N44	, An2
	.byte	W48
	.byte			Gs2
	.byte	W48
	.byte			Fn2
	.byte	W48
	.byte	PATT	
		mPtr	song054_6_4
	.byte	PATT	
		mPtr	song054_6_2
	.byte	PATT	
		mPtr	song054_6_5
	.byte		N92	, Gs2, v127
	.byte	W96
	.byte		TIE	, Cn2
	.byte		TIE	, Gn2
	.byte	W96
	.byte	W92
	.byte	W03
	.byte		EOT	, Cn2
	.byte			Gn2
	.byte	W01
	.byte		N44	, As1
	.byte		TIE	, Ds2
	.byte	W48
	.byte		N48	, Gs2
	.byte	W48
	.byte			As2
	.byte	W48
	.byte			Bn2
	.byte	W44
	.byte	W03
	.byte		EOT	, Ds2
	.byte	W01
	.byte		TIE	, Fn2
	.byte		N92	, Cn3
	.byte	W96
song054_6_6:
	.byte		N44	, Dn3, v127
	.byte	W48
	.byte			Ds3
	.byte	W44
	.byte	W03
	.byte	PEND
	.byte		EOT	, Fn2
	.byte	W01
	.byte		N92	, Gn2
	.byte		N92	, Ds3
	.byte	W96
song054_6_7:
	.byte		N48	, An2, v127
	.byte		N48	, Fn3
	.byte	W48
	.byte			Bn2
	.byte		N48	, Gn3
	.byte	W48
	.byte	PEND
song054_6_8:
	.byte		TIE	, Cn3, v127
	.byte		TIE	, Gn3
	.byte	W96
	.byte	PEND
	.byte	W92
	.byte	W03
	.byte		EOT	, Cn3
	.byte			Gn3
	.byte	W01
song054_6_9:
	.byte		N44	, As2, v127
	.byte		TIE	, Ds3
	.byte	W48
	.byte		N48	, Gs3
	.byte	W48
	.byte	PEND
song054_6_10:
	.byte		N48	, As3, v127
	.byte	W44
	.byte	W03
	.byte	PEND
	.byte		EOT	, Ds3
	.byte	W01
	.byte		N48	
	.byte		N48	, Bn3
	.byte	W48
song054_6_11:
	.byte		N92	, Cn3, v127
	.byte		TIE	, Fn3
	.byte	W96
	.byte	PEND
	.byte	PATT	
		mPtr	song054_6_6
	.byte		EOT	, Fn3
	.byte	W01
	.byte		N92	, Gn2, v127
	.byte		N92	, Ds3
	.byte	W96
	.byte	PATT	
		mPtr	song054_6_7
	.byte	W96
	.byte	W96
	.byte	W96
	.byte	W96
	.byte	W96
	.byte	W96
	.byte	W96
	.byte	W96
	.byte	PATT	
		mPtr	song054_6_3
	.byte	PATT	
		mPtr	song054_6_2
	.byte		N36	, En3, v127
	.byte	W36
	.byte		N06	, Dn3
	.byte	W06
	.byte		N05	, Cs3
	.byte	W06
	.byte		N44	, Cn3
	.byte	W48
	.byte		N92	, Gs2
	.byte	W96
	.byte	PATT	
		mPtr	song054_6_4
	.byte	PATT	
		mPtr	song054_6_2
	.byte		N44	, En3, v127
	.byte	W48
	.byte			Gn3
	.byte	W48
	.byte			Bn3
	.byte	W48
	.byte			Dn4
	.byte	W48
	.byte	PATT	
		mPtr	song054_6_8
	.byte	W92
	.byte	W03
	.byte		EOT	, Cn3
	.byte			Gn3
	.byte	W01
	.byte	PATT	
		mPtr	song054_6_9
	.byte	PATT	
		mPtr	song054_6_10
	.byte		EOT	, Ds3
	.byte	W01
	.byte		N48	, Ds3, v127
	.byte		N48	, Bn3
	.byte	W48
	.byte	PATT	
		mPtr	song054_6_11
	.byte	PATT	
		mPtr	song054_6_6
	.byte		EOT	, Fn3
	.byte	W01
	.byte		N92	, Ds3, v127
	.byte		N92	, Gn3
	.byte	W96
	.byte		N48	, Fn3
	.byte		N48	, An3
	.byte	W48
	.byte			Gn3
	.byte		N48	, Bn3
	.byte	W48
	.byte	PATT	
		mPtr	song054_6_8
	.byte	W92
	.byte	W03
	.byte		EOT	, Cn3
	.byte			Gn3
	.byte	W01
	.byte	PATT	
		mPtr	song054_6_9
	.byte	PATT	
		mPtr	song054_6_10
	.byte		EOT	, Ds3
	.byte	W01
	.byte		N48	, Ds3, v127
	.byte		N48	, Bn3
	.byte	W48
	.byte	PATT	
		mPtr	song054_6_11
	.byte	PATT	
		mPtr	song054_6_6
	.byte		EOT	, Fn3
	.byte	W01
	.byte		N92	, Gn2, v127
	.byte		N92	, Ds3
	.byte	W96
	.byte	PATT	
		mPtr	song054_6_7
	.byte	W96
	.byte	W96
	.byte	W96
	.byte	W96
	.byte	W96
	.byte	W96
	.byte	W96
	.byte	W96
	.byte	W96
	.byte	W96
	.byte	W96
	.byte	W96
	.byte	W96
	.byte	W96
	.byte	W96
	.byte	W96
	.byte	W96
	.byte	W96
	.byte	GOTO	
		mPtr	song054_6_12
	.byte	FINE

	@********************** Track  7 **********************@

	.global song054_7
song054_7:	@ 0x082937C4
	.byte	KEYSH	, 0
	.byte	VOICE	, 63
	.byte	VOL	, v076
	.byte	PAN	, c_v+46
	.byte	W03
song054_7_1:
	.byte		N18	, An0, v112
	.byte	W32
	.byte	W03
	.byte		N28	, Cn1, v108
	.byte	W60
	.byte	W01
	.byte	PEND
	.byte		N18	, Bn0, v116
	.byte	W32
	.byte	W02
	.byte		N28	, As0, v108
	.byte	W60
	.byte	W02
song054_7_8:
	.byte		N18	, An0, v104
	.byte	W32
	.byte	W02
	.byte		N28	, Cn1
	.byte	W60
	.byte	W02
	.byte		N18	, Bn0, v116
	.byte	W32
	.byte	W02
	.byte		N28	, Ds1, v120
	.byte	W60
	.byte	W02
	.byte		N18	, An0
	.byte	W32
	.byte	W02
	.byte		N28	, Cn1, v096
	.byte	W60
	.byte	W02
	.byte		N18	, Bn0, v108
	.byte	W32
	.byte	W02
	.byte		N28	, As0, v096
	.byte	W60
	.byte	W02
	.byte		N18	, An0, v100
	.byte	W32
	.byte	W02
	.byte		N28	, Cn1
	.byte	W60
	.byte	W02
	.byte		N18	, Bn0, v104
	.byte	W32
	.byte	W02
	.byte		N28	, Ds1, v108
	.byte	W60
	.byte	W02
	.byte	PATT	
		mPtr	song054_7_1
	.byte		N18	, Bn0, v116
	.byte	W32
	.byte	W02
	.byte		N28	, Ds1, v108
	.byte	W60
	.byte	W02
	.byte		N24	, En1, v104
	.byte	W36
	.byte		N32	, Cn1
	.byte	W60
	.byte		N24	, Bn0, v116
	.byte	W36
	.byte		N32	, Fn1, v120
	.byte	W60
	.byte		N24	, An1, v108
	.byte	W36
	.byte		N48	, Cn2
	.byte	W60
	.byte		N24	, Bn1, v116
	.byte	W36
	.byte		N48	, Ds2, v108
	.byte	W60
	.byte		N44	, En2
	.byte	W48
	.byte			Cn2, v100
	.byte	W48
	.byte			Ds2, v112
	.byte	W48
	.byte			Dn2, v116
	.byte	W48
	.byte		N24	, An1
	.byte	W36
	.byte		N48	, Cn2, v112
	.byte	W60
	.byte		N24	, Bn1, v116
	.byte	W36
	.byte		N48	, Ds2, v104
	.byte	W60
	.byte		N44	, En2, v120
	.byte	W48
	.byte			Gn2
	.byte	W48
	.byte			Ds2, v116
	.byte	W48
	.byte			Fn2
	.byte	W48
	.byte		N32	, An2
	.byte	W36
	.byte		N56	, Cn3
	.byte	W60
	.byte		N32	, Bn2, v112
	.byte	W36
	.byte		N56	, Ds3, v124
	.byte	W60
song054_7_2:
	.byte		N44	, En3, v112
	.byte	W48
	.byte			Cn3, v116
	.byte	W48
	.byte	PEND
song054_7_3:
	.byte		N44	, Ds3, v120
	.byte	W48
	.byte			Dn3, v112
	.byte	W48
	.byte	PEND
	.byte		N32	, An2, v108
	.byte	W36
	.byte		N56	, Cn3
	.byte	W60
	.byte		N32	, Bn2, v116
	.byte	W36
	.byte		N56	, Ds3, v120
	.byte	W60
	.byte		N44	, En3
	.byte	W48
	.byte			Gn3
	.byte	W48
	.byte			Ds3, v116
	.byte	W48
	.byte			Fn3
	.byte	W48
	.byte	W96
	.byte	W96
	.byte	W96
	.byte	W96
	.byte	W96
	.byte	W96
	.byte	W96
	.byte	W96
	.byte	W96
	.byte	W96
	.byte	W96
	.byte	W96
	.byte	W96
	.byte	W96
	.byte	W96
	.byte	W96
	.byte	W96
	.byte	W96
	.byte	W96
	.byte	W96
	.byte	W96
	.byte	W96
	.byte	W96
	.byte	W96
	.byte		N24	, An2
	.byte	W36
	.byte		N42	, Cn3
	.byte	W60
	.byte		N24	, Bn2, v112
	.byte	W36
	.byte		N44	, Ds3, v124
	.byte	W60
	.byte	PATT	
		mPtr	song054_7_2
	.byte	PATT	
		mPtr	song054_7_3
	.byte		N23	, An2, v108
	.byte	W36
	.byte		N42	, Cn3
	.byte	W60
	.byte		N23	, Bn2, v116
	.byte	W36
	.byte		N44	, Ds3, v120
	.byte	W60
	.byte			En3, v108
	.byte	W48
	.byte			Gn3, v124
	.byte	W48
	.byte			Fs3
	.byte	W48
	.byte			Bn3, v120
	.byte	W48
	.byte	W96
	.byte	W96
	.byte	W96
	.byte	W96
	.byte	W96
	.byte	W96
	.byte	W96
	.byte	W96
	.byte	W96
	.byte	W96
	.byte	W96
	.byte	W96
	.byte	W96
	.byte	W96
	.byte	W96
	.byte	PAN	, c_v+11
	.byte	W96
song054_7_4:
	.byte		N23	, An2, v127
	.byte		N23	, En3
	.byte	W36
	.byte			Cn3
	.byte		N23	, Gn3
	.byte	W60
	.byte	PEND
song054_7_5:
	.byte		N23	, Bn2, v127
	.byte		N23	, Fs3
	.byte	W36
	.byte			As2
	.byte		N23	, Fn3
	.byte	W60
	.byte	PEND
	.byte	PATT	
		mPtr	song054_7_4
	.byte	PATT	
		mPtr	song054_7_5
	.byte	PATT	
		mPtr	song054_7_4
	.byte	PATT	
		mPtr	song054_7_5
	.byte	PATT	
		mPtr	song054_7_4
	.byte	PATT	
		mPtr	song054_7_5
song054_7_6:
	.byte		N23	, An2, v127
	.byte		N23	, En3
	.byte		N23	, En4
	.byte	W36
	.byte			Cn3
	.byte		N23	, Gn3
	.byte		N23	, Gn4
	.byte	W60
	.byte	PEND
song054_7_7:
	.byte		N23	, Bn2, v127
	.byte		N23	, Fs3
	.byte		N23	, Fs4
	.byte	W36
	.byte			As2
	.byte		N23	, Fn3
	.byte		N23	, Fn4
	.byte	W60
	.byte	PEND
	.byte	PATT	
		mPtr	song054_7_6
	.byte	PATT	
		mPtr	song054_7_7
	.byte	PATT	
		mPtr	song054_7_6
	.byte	PATT	
		mPtr	song054_7_7
	.byte	PATT	
		mPtr	song054_7_6
	.byte		N23	, Bn2, v127
	.byte		N23	, Fs3
	.byte		N23	, Fs4
	.byte	W36
	.byte			As2
	.byte		N23	, Fn3
	.byte		N23	, Fn4
	.byte	W48
	.byte	PAN	, c_v+46
	.byte	W12
	.byte		N17	, An0, v112
	.byte	W32
	.byte	W03
	.byte		N28	, Cn1, v108
	.byte	W60
	.byte	W01
	.byte		N17	, Bn0, v116
	.byte	W32
	.byte	W02
	.byte		N28	, As0, v108
	.byte	W60
	.byte	W02
	.byte	GOTO	
		mPtr	song054_7_8
	.byte		N17	, An0, v104
	.byte	W32
	.byte	W02
	.byte		N28	, Cn1
	.byte	W60
	.byte	W02
	.byte		N17	, Bn0, v116
	.byte	W32
	.byte	W02
	.byte		N28	, Ds1, v120
	.byte	W28
	.byte	W01
	.byte	FINE

	@********************** Track  8 **********************@

	.global song054_8
song054_8:	@ 0x082939AA
	.byte	KEYSH	, 0
	.byte	VOICE	, 105
	.byte	VOL	, v060
	.byte	PAN	, c_v-54
	.byte	BENDR	, 12
	.byte	W03
song054_8_1:
	.byte		N24	, Fn2, v112
	.byte	W36
	.byte			Gs2
	.byte	W36
	.byte		N11	, As2
	.byte	W24
	.byte	PEND
song054_8_2:
	.byte		N24	, Gn2, v112
	.byte	W36
	.byte			Fs2
	.byte	W36
	.byte		N11	, En2
	.byte	W24
	.byte	PEND
song054_8_21:
	.byte	PATT	
		mPtr	song054_8_1
	.byte	PATT	
		mPtr	song054_8_2
	.byte	PATT	
		mPtr	song054_8_1
	.byte	PATT	
		mPtr	song054_8_2
	.byte	PATT	
		mPtr	song054_8_1
song054_8_3:
	.byte		N24	, Ds2, v112
	.byte	W36
	.byte			Fs2
	.byte	W36
	.byte		N11	, En2
	.byte	W24
	.byte	PEND
	.byte	PATT	
		mPtr	song054_8_1
	.byte	PATT	
		mPtr	song054_8_2
	.byte	PATT	
		mPtr	song054_8_1
	.byte	PATT	
		mPtr	song054_8_3
song054_8_4:
	.byte		N12	, Fn2, v112
	.byte	W36
	.byte		N23	, Gs2
	.byte	W60
	.byte	PEND
song054_8_5:
	.byte		N12	, Gn2, v112
	.byte	W36
	.byte		N23	, Cs3
	.byte	W60
	.byte	PEND
	.byte	PATT	
		mPtr	song054_8_4
song054_8_6:
	.byte		N12	, Gn2, v112
	.byte	W36
	.byte		N23	, As2
	.byte	W60
	.byte	PEND
	.byte	PATT	
		mPtr	song054_8_4
	.byte	PATT	
		mPtr	song054_8_5
	.byte	PATT	
		mPtr	song054_8_4
	.byte	PATT	
		mPtr	song054_8_6
	.byte	PATT	
		mPtr	song054_8_4
	.byte	PATT	
		mPtr	song054_8_5
	.byte	PATT	
		mPtr	song054_8_4
	.byte	PATT	
		mPtr	song054_8_6
	.byte	PATT	
		mPtr	song054_8_4
	.byte	PATT	
		mPtr	song054_8_5
	.byte	PATT	
		mPtr	song054_8_4
	.byte	PATT	
		mPtr	song054_8_5
song054_8_7:
	.byte		N12	, Fn2, v112
	.byte	W36
	.byte		N12	
	.byte	W36
	.byte			Gs2
	.byte	W24
	.byte	PEND
song054_8_8:
	.byte		N12	, Fn2, v112
	.byte	W36
	.byte		N12	
	.byte	W24
	.byte			Gs2
	.byte	W24
	.byte		N11	, As2
	.byte	W12
	.byte	PEND
song054_8_12:
	.byte		N12	, En2, v112
	.byte	W36
	.byte		N12	
	.byte	W36
	.byte		N12	
	.byte	W24
	.byte	PEND
song054_8_9:
	.byte		N12	, En2, v112
	.byte	W36
	.byte		N12	
	.byte	W36
	.byte			Gn2
	.byte	W24
	.byte	PEND
song054_8_13:
	.byte		N12	, Cs3, v112
	.byte	W36
	.byte		N12	
	.byte	W36
	.byte			En3
	.byte	W24
	.byte	PEND
song054_8_14:
	.byte	W01
	.byte		N12	, Cs3, v112
	.byte	W36
	.byte		N12	
	.byte	W24
	.byte			En3
	.byte	W24
	.byte		N11	, Fs3
	.byte	W11
	.byte	PEND
song054_8_10:
	.byte	W01
	.byte		N12	, Bn2, v112
	.byte	W36
	.byte		N12	
	.byte	W36
	.byte		N12	
	.byte	W23
	.byte	PEND
song054_8_11:
	.byte	W01
	.byte		N12	, As2, v112
	.byte	W36
	.byte			Ds3
	.byte	W36
	.byte		N12	
	.byte	W23
	.byte	PEND
	.byte	PATT	
		mPtr	song054_8_7
	.byte	PATT	
		mPtr	song054_8_8
	.byte	PATT	
		mPtr	song054_8_9
song054_8_15:
	.byte		N12	, En2, v112
	.byte	W36
	.byte		N12	
	.byte	W36
	.byte			An2
	.byte	W24
	.byte	PEND
song054_8_16:
	.byte		N12	, Cs2, v112
	.byte	W36
	.byte		N12	
	.byte	W36
	.byte			En2
	.byte	W24
	.byte	PEND
song054_8_17:
	.byte	W01
	.byte		N12	, Cs2, v112
	.byte	W36
	.byte		N12	
	.byte	W24
	.byte			En2
	.byte	W24
	.byte		N11	, Fs2
	.byte	W11
	.byte	PEND
	.byte	PATT	
		mPtr	song054_8_10
	.byte	PATT	
		mPtr	song054_8_11
	.byte	PATT	
		mPtr	song054_8_1
	.byte	PATT	
		mPtr	song054_8_2
	.byte	PATT	
		mPtr	song054_8_1
	.byte	PATT	
		mPtr	song054_8_3
	.byte	PATT	
		mPtr	song054_8_1
	.byte	PATT	
		mPtr	song054_8_2
	.byte	PATT	
		mPtr	song054_8_1
	.byte	PATT	
		mPtr	song054_8_3
	.byte	PATT	
		mPtr	song054_8_4
	.byte	PATT	
		mPtr	song054_8_5
	.byte	PATT	
		mPtr	song054_8_4
	.byte	PATT	
		mPtr	song054_8_6
	.byte	PATT	
		mPtr	song054_8_4
	.byte	PATT	
		mPtr	song054_8_5
	.byte	PATT	
		mPtr	song054_8_4
	.byte	PATT	
		mPtr	song054_8_5
	.byte	PATT	
		mPtr	song054_8_7
	.byte	PATT	
		mPtr	song054_8_8
	.byte	PATT	
		mPtr	song054_8_12
	.byte	PATT	
		mPtr	song054_8_9
	.byte	PATT	
		mPtr	song054_8_13
	.byte	PATT	
		mPtr	song054_8_14
	.byte	PATT	
		mPtr	song054_8_10
	.byte	PATT	
		mPtr	song054_8_11
	.byte	PATT	
		mPtr	song054_8_7
	.byte	PATT	
		mPtr	song054_8_8
	.byte	PATT	
		mPtr	song054_8_9
	.byte	PATT	
		mPtr	song054_8_15
	.byte	PATT	
		mPtr	song054_8_16
	.byte	PATT	
		mPtr	song054_8_17
	.byte	PATT	
		mPtr	song054_8_10
	.byte	PATT	
		mPtr	song054_8_11
	.byte	PATT	
		mPtr	song054_8_4
song054_8_18:
	.byte		N12	, Gn2, v112
	.byte	W36
	.byte		N23	, Fs2
	.byte	W60
	.byte	PEND
	.byte	PATT	
		mPtr	song054_8_4
	.byte	PATT	
		mPtr	song054_8_5
	.byte	PATT	
		mPtr	song054_8_4
	.byte	PATT	
		mPtr	song054_8_18
	.byte	PATT	
		mPtr	song054_8_4
	.byte	PATT	
		mPtr	song054_8_6
	.byte	PATT	
		mPtr	song054_8_4
	.byte	PATT	
		mPtr	song054_8_18
	.byte	PATT	
		mPtr	song054_8_4
	.byte	PATT	
		mPtr	song054_8_6
song054_8_19:
	.byte		N12	, Fn3, v112
	.byte	W36
	.byte		N23	, Gs3
	.byte	W60
	.byte	PEND
song054_8_20:
	.byte		N12	, Gn3, v112
	.byte	W36
	.byte		N23	, Fs3
	.byte	W60
	.byte	PEND
	.byte	PATT	
		mPtr	song054_8_19
	.byte	PATT	
		mPtr	song054_8_20
	.byte	PATT	
		mPtr	song054_8_1
	.byte	PATT	
		mPtr	song054_8_2
	.byte	GOTO	
		mPtr	song054_8_21
	.byte	PATT	
		mPtr	song054_8_1
	.byte		N24	, Gn2, v112
	.byte	W36
	.byte			Fs2
	.byte	W36
	.byte		N11	, En2
	.byte	W11
	.byte	FINE

	@********************** Track  9 **********************@

	.global song054_9
song054_9:	@ 0x08293BF9
	.byte	KEYSH	, 0
	.byte	VOICE	, 104
	.byte	VOL	, v066
	.byte	PAN	, c_v-54
	.byte	W03
song054_9_1:
	.byte	W24
	.byte	W01
	.byte		N12	, Fn2, v100
	.byte	W36
	.byte		N11	, Gs2
	.byte	W22
	.byte		N12	, Fn2
	.byte	W13
	.byte	PEND
song054_9_2:
	.byte	W24
	.byte	W01
	.byte		N12	, Ds2, v100
	.byte	W36
	.byte		N11	
	.byte	W23
	.byte		N12	, En2
	.byte	W12
	.byte	PEND
song054_9_19:
	.byte	PATT	
		mPtr	song054_9_1
	.byte	PATT	
		mPtr	song054_9_2
	.byte	PATT	
		mPtr	song054_9_1
	.byte	PATT	
		mPtr	song054_9_2
	.byte	PATT	
		mPtr	song054_9_1
	.byte	PATT	
		mPtr	song054_9_2
	.byte	PATT	
		mPtr	song054_9_1
	.byte	PATT	
		mPtr	song054_9_2
	.byte	PATT	
		mPtr	song054_9_1
	.byte	PATT	
		mPtr	song054_9_2
song054_9_17:
	.byte	W12
	.byte		N06	, Fn2, v100
	.byte	W01
	.byte	VOL	, v073
	.byte	W11
	.byte		N11	
	.byte	W36
	.byte		N06	, Gs2
	.byte	W12
	.byte		N05	
	.byte	W12
	.byte		N12	
	.byte	W12
	.byte	PEND
song054_9_4:
	.byte	W12
	.byte		N06	, As2, v100
	.byte	W12
	.byte		N06	
	.byte	W36
	.byte			Ds2
	.byte	W12
	.byte		N06	
	.byte	W12
	.byte		N06	
	.byte	W12
	.byte	PEND
song054_9_3:
	.byte	W12
	.byte	VOL	, v066
	.byte		N06	, Fn2, v100
	.byte	W01
	.byte	VOL	, v073
	.byte	W11
	.byte		N11	
	.byte	W36
	.byte		N06	, Gs2
	.byte	W12
	.byte		N05	
	.byte	W12
	.byte		N12	
	.byte	W12
	.byte	PEND
song054_9_5:
	.byte	W12
	.byte		N06	, Gn2, v100
	.byte	W12
	.byte		N06	
	.byte	W36
	.byte			As2
	.byte	W12
	.byte		N06	
	.byte	W12
	.byte		N06	
	.byte	W12
	.byte	PEND
	.byte	PATT	
		mPtr	song054_9_3
	.byte	PATT	
		mPtr	song054_9_4
	.byte	PATT	
		mPtr	song054_9_3
	.byte	PATT	
		mPtr	song054_9_5
	.byte	PATT	
		mPtr	song054_9_3
	.byte	PATT	
		mPtr	song054_9_4
	.byte	PATT	
		mPtr	song054_9_3
	.byte	PATT	
		mPtr	song054_9_5
	.byte	PATT	
		mPtr	song054_9_3
	.byte	PATT	
		mPtr	song054_9_4
	.byte	PATT	
		mPtr	song054_9_3
	.byte	PATT	
		mPtr	song054_9_5
song054_9_7:
	.byte	W12
	.byte	VOL	, v066
	.byte		N06	, Fn2, v100
	.byte	W01
	.byte	VOL	, v073
	.byte	W11
	.byte		N12	
	.byte	W24
	.byte		N05	
	.byte	W12
	.byte		N12	
	.byte	W24
	.byte		N12	
	.byte	W12
	.byte	PEND
song054_9_8:
	.byte	W12
	.byte		N06	, Fn2, v100
	.byte	W12
	.byte		N12	
	.byte	W24
	.byte		N05	
	.byte	W24
	.byte		N12	
	.byte	W24
	.byte	PEND
song054_9_6:
	.byte	W12
	.byte		N06	, Fn2, v100
	.byte	W12
	.byte		N12	
	.byte	W24
	.byte		N05	
	.byte	W12
	.byte		N12	
	.byte	W24
	.byte		N12	
	.byte	W12
	.byte	PEND
	.byte	PATT	
		mPtr	song054_9_6
song054_9_11:
	.byte	W12
	.byte		N06	, Cs3, v100
	.byte	W12
	.byte		N12	
	.byte	W24
	.byte		N05	
	.byte	W12
	.byte		N12	
	.byte	W24
	.byte		N12	
	.byte	W12
	.byte	PEND
song054_9_12:
	.byte	W13
	.byte		N06	, Cs3, v100
	.byte	W12
	.byte		N12	
	.byte	W24
	.byte		N05	
	.byte	W24
	.byte		N12	
	.byte	W23
	.byte	PEND
song054_9_10:
	.byte	W13
	.byte		N06	, As2, v100
	.byte	W12
	.byte		N12	
	.byte	W24
	.byte		N05	
	.byte	W12
	.byte		N12	
	.byte	W24
	.byte		N12	
	.byte	W11
	.byte	PEND
song054_9_13:
	.byte	W13
	.byte		N06	, As2, v100
	.byte	W12
	.byte		N12	
	.byte	W24
	.byte		N05	, Ds3
	.byte	W12
	.byte		N12	
	.byte	W23
	.byte		N12	
	.byte	W12
	.byte	PEND
	.byte	PATT	
		mPtr	song054_9_7
	.byte	PATT	
		mPtr	song054_9_8
song054_9_9:
	.byte	W12
	.byte		N06	, En2, v100
	.byte	W12
	.byte		N12	
	.byte	W24
	.byte		N05	
	.byte	W12
	.byte		N12	
	.byte	W24
	.byte		N12	
	.byte	W12
	.byte	PEND
	.byte	PATT	
		mPtr	song054_9_9
song054_9_14:
	.byte	W12
	.byte		N06	, Cs2, v100
	.byte	W12
	.byte		N12	
	.byte	W24
	.byte		N05	
	.byte	W12
	.byte		N12	
	.byte	W24
	.byte		N12	
	.byte	W12
	.byte	PEND
song054_9_15:
	.byte	W13
	.byte		N06	, Cs2, v100
	.byte	W12
	.byte		N12	
	.byte	W24
	.byte		N05	
	.byte	W24
	.byte		N12	
	.byte	W23
	.byte	PEND
	.byte	PATT	
		mPtr	song054_9_10
song054_9_16:
	.byte	W13
	.byte		N06	, An2, v100
	.byte	W12
	.byte		N12	
	.byte	W24
	.byte		N05	, Ds3
	.byte	W12
	.byte		N12	
	.byte	W23
	.byte		N12	
	.byte	W12
	.byte	PEND
	.byte	PATT	
		mPtr	song054_9_1
	.byte	PATT	
		mPtr	song054_9_2
	.byte	PATT	
		mPtr	song054_9_1
	.byte	PATT	
		mPtr	song054_9_2
	.byte	PATT	
		mPtr	song054_9_1
	.byte	PATT	
		mPtr	song054_9_2
	.byte	PATT	
		mPtr	song054_9_1
	.byte	PATT	
		mPtr	song054_9_2
	.byte	PATT	
		mPtr	song054_9_3
	.byte	PATT	
		mPtr	song054_9_4
	.byte	PATT	
		mPtr	song054_9_3
	.byte	PATT	
		mPtr	song054_9_5
	.byte	PATT	
		mPtr	song054_9_3
	.byte	PATT	
		mPtr	song054_9_4
	.byte	PATT	
		mPtr	song054_9_3
	.byte	PATT	
		mPtr	song054_9_5
	.byte	PATT	
		mPtr	song054_9_7
	.byte	PATT	
		mPtr	song054_9_8
	.byte	PATT	
		mPtr	song054_9_6
	.byte	PATT	
		mPtr	song054_9_6
	.byte	PATT	
		mPtr	song054_9_11
	.byte	PATT	
		mPtr	song054_9_12
	.byte	PATT	
		mPtr	song054_9_10
	.byte	PATT	
		mPtr	song054_9_13
	.byte	PATT	
		mPtr	song054_9_7
	.byte	PATT	
		mPtr	song054_9_8
	.byte	PATT	
		mPtr	song054_9_9
	.byte	PATT	
		mPtr	song054_9_9
	.byte	PATT	
		mPtr	song054_9_14
	.byte	PATT	
		mPtr	song054_9_15
	.byte	PATT	
		mPtr	song054_9_10
	.byte	PATT	
		mPtr	song054_9_16
	.byte	PATT	
		mPtr	song054_9_17
song054_9_18:
	.byte	W12
	.byte		N06	, Gn2, v100
	.byte	W12
	.byte		N06	
	.byte	W36
	.byte			Fs2
	.byte	W12
	.byte		N06	
	.byte	W12
	.byte		N06	
	.byte	W12
	.byte	PEND
	.byte	PATT	
		mPtr	song054_9_3
	.byte	PATT	
		mPtr	song054_9_5
	.byte	PATT	
		mPtr	song054_9_3
	.byte	PATT	
		mPtr	song054_9_18
	.byte	PATT	
		mPtr	song054_9_3
	.byte	PATT	
		mPtr	song054_9_5
	.byte	PATT	
		mPtr	song054_9_3
	.byte	PATT	
		mPtr	song054_9_18
	.byte	PATT	
		mPtr	song054_9_3
	.byte	PATT	
		mPtr	song054_9_5
	.byte	PATT	
		mPtr	song054_9_3
	.byte	PATT	
		mPtr	song054_9_18
	.byte	PATT	
		mPtr	song054_9_3
	.byte	PATT	
		mPtr	song054_9_18
	.byte	PATT	
		mPtr	song054_9_1
	.byte	PATT	
		mPtr	song054_9_2
	.byte	GOTO	
		mPtr	song054_9_19
	.byte	PATT	
		mPtr	song054_9_1
	.byte	PATT	
		mPtr	song054_9_2
	.byte	FINE
    
	mAlignWord
	.global song054
song054:	@ 0x08293E94
	.byte	9		@ trackCount
	.byte	0		@ blockCount
	.byte	0		@ priority
	.byte	128		@ reverb

	mAlignWord
	mPtr	voicegroup012		@ voicegroup/tone

	mPtr	song054_1		@ track
	mPtr	song054_2		@ track
	mPtr	song054_3		@ track
	mPtr	song054_4		@ track
	mPtr	song054_5		@ track
	mPtr	song054_6		@ track
	mPtr	song054_7		@ track
	mPtr	song054_8		@ track
	mPtr	song054_9		@ track
