	.include "MPlayDef.s"

	.section .rodata

	@********************** Track  1 **********************@

	.align 2
	.global song038_1
song038_1:	@ 0x0828231C
	.byte	KEYSH	, 0
song038_1_4:
	.byte	TEMPO	, 87
	.byte	VOICE	, 127
	.byte	VOL	, v100
	.byte		N06	, Cn4, v127
	.byte		N22	, Cn6, v036
	.byte	W24
	.byte		N21	, Dn5, v088
	.byte	W12
	.byte		N06	, Cn4, v127
	.byte	W11
	.byte		N23	, Cn6, v036
	.byte	W13
	.byte		N06	, Dn5, v080
	.byte	W12
	.byte			Cn4, v127
	.byte	W12
	.byte			Cn4, v064
	.byte		N16	, Dn5, v084
	.byte	W11
	.byte		N23	, Cn6, v036
	.byte	W01
	.byte		N06	, Cn4, v127
	.byte	W24
	.byte		N06	
	.byte		N21	, Dn5, v088
	.byte	W23
	.byte		N23	, Cn6, v036
	.byte	W01
	.byte		N06	, Cn4, v127
	.byte	W12
	.byte			Dn5, v080
	.byte	W12
	.byte			Cn4, v127
	.byte	W12
	.byte			Cn4, v064
	.byte		N16	, Dn5, v084
	.byte	W11
	.byte		N23	, Cn6, v036
	.byte	W01
	.byte		N06	, Cn4, v127
	.byte	W24
	.byte		N22	, Dn5, v088
	.byte	W12
	.byte		N06	, Cn4, v127
	.byte	W11
	.byte		N23	, Cn6, v036
	.byte	W13
	.byte		N09	, Dn5, v072
	.byte	W12
	.byte		N06	, Cn4, v127
	.byte	W12
	.byte			Cn4, v064
	.byte		N18	, Dn5, v088
	.byte	W11
	.byte		N23	, Cn6, v036
	.byte	W01
	.byte		N06	, Cn4, v127
	.byte	W12
	.byte		N07	, Dn5, v068
	.byte	W12
	.byte		N06	, Cn4, v127
	.byte	W12
	.byte		N05	, Dn5, v076
	.byte	W11
	.byte		N23	, Cn6, v036
	.byte	W01
	.byte		N06	, Cn4, v127
	.byte	W12
	.byte			Cn4, v064
	.byte		N09	, Dn5, v076
	.byte	W12
	.byte		N06	, Cn4, v127
	.byte		N15	, Dn5, v088
	.byte	W12
	.byte		N06	, Cn4, v127
	.byte	W11
	.byte		N23	, Cn6, v056
	.byte	W01
	.byte		N06	, Cn4, v127
	.byte	W23
	.byte		N23	, Cn6, v036
	.byte	W01
	.byte		N21	, Dn5, v088
	.byte	W12
	.byte		N06	, Cn4, v127
	.byte	W11
	.byte		N23	, Cn6, v056
	.byte	W13
	.byte		N06	, Dn5, v080
	.byte	W11
	.byte		N23	, Cn6, v036
	.byte	W01
	.byte		N06	, Cn4, v127
	.byte	W12
	.byte			Cn4, v064
	.byte		N16	, Dn5, v084
	.byte	W11
	.byte		N23	, Cn6, v056
	.byte	W01
	.byte		N06	, Cn4, v127
	.byte	W12
	.byte		N07	, Dn5, v064
	.byte	W11
	.byte		N23	, Cn6, v036
	.byte	W01
	.byte		N06	, Cn4, v127
	.byte	W12
	.byte		N15	, Dn5, v088
	.byte	W11
	.byte		N23	, Cn6, v056
	.byte	W01
	.byte		N06	, Cn4, v127
	.byte	W12
	.byte			Dn5, v068
	.byte	W11
	.byte		N23	, Cn6, v036
	.byte	W01
	.byte		N06	, Cn4, v127
	.byte	W12
	.byte			Cn4, v064
	.byte		N12	, Dn5, v084
	.byte	W11
	.byte		N23	, Cn6, v056
	.byte	W01
	.byte		N06	, Cn4, v127
	.byte	W23
	.byte		N23	, Cn6, v036
	.byte	W01
	.byte		N22	, Dn5, v088
	.byte	W12
	.byte		N06	, Cn4, v127
	.byte	W11
	.byte		N23	, Cn6, v056
	.byte	W13
	.byte		N09	, Dn5, v072
	.byte	W11
	.byte		N23	, Cn6, v036
	.byte	W01
	.byte		N06	, Cn4, v127
	.byte	W12
	.byte			Cn4, v064
	.byte		N16	, Dn5, v088
	.byte	W11
	.byte		N23	, Cn6, v056
	.byte	W01
	.byte		N06	, Cn4, v127
	.byte	W12
	.byte		N07	, Dn5, v068
	.byte	W11
	.byte		N23	, Cn6, v036
	.byte	W01
	.byte		N06	, Cn4, v127
	.byte	W12
	.byte		N05	, Dn5, v076
	.byte	W11
	.byte		N23	, Cn6, v056
	.byte	W01
	.byte		N06	, Cn4, v127
	.byte		N13	, Dn5, v076
	.byte	W23
	.byte		N23	, Cn6, v036
	.byte	W01
	.byte		N06	, Cn4, v127
	.byte		N12	, Dn5, v088
	.byte	W12
	.byte		N06	, Cn4, v064
	.byte		N18	, Dn5, v088
	.byte	W12
song038_1_1:
	.byte		N06	, Cn4, v127
	.byte	W24
	.byte		N06	
	.byte	W24
	.byte		N06	
	.byte	W24
	.byte		N06	
	.byte	W24
	.byte	PEND
song038_1_2:
	.byte		N06	, Cn4, v127
	.byte	W24
	.byte		N06	
	.byte	W24
	.byte		N06	
	.byte	W18
	.byte			Cn4, v064
	.byte	W06
	.byte			Cn4, v127
	.byte	W24
	.byte	PEND
	.byte	PATT	
		.word	song038_1_1
song038_1_3:
	.byte		N06	, Cn4, v127
	.byte	W24
	.byte		N06	
	.byte	W24
	.byte		N06	
	.byte	W18
	.byte			Cn4, v064
	.byte	W06
	.byte			Cn4, v127
	.byte	W12
	.byte		N06	
	.byte	W12
	.byte	PEND
	.byte	PATT	
		.word	song038_1_1
	.byte	PATT	
		.word	song038_1_2
	.byte	PATT	
		.word	song038_1_1
	.byte		N06	, Cn4, v127
	.byte	W24
	.byte		N06	
	.byte	W24
	.byte		N06	
	.byte	W12
	.byte		N05	
	.byte	W06
	.byte			Cn4, v064
	.byte	W06
	.byte		N06	, Cn4, v127
	.byte	W12
	.byte		N06	
	.byte	W12
	.byte	PATT	
		.word	song038_1_1
	.byte	PATT	
		.word	song038_1_2
	.byte	PATT	
		.word	song038_1_1
	.byte	PATT	
		.word	song038_1_3
	.byte	PATT	
		.word	song038_1_1
	.byte	PATT	
		.word	song038_1_2
	.byte	PATT	
		.word	song038_1_1
	.byte	PATT	
		.word	song038_1_3
	.byte		N06	, Cn4, v127
	.byte	W24
	.byte		N06	
	.byte		N16	, Dn5, v108
	.byte	W24
	.byte		N06	, Cn4, v127
	.byte	W24
	.byte		N06	
	.byte		N16	, Dn5, v108
	.byte	W24
	.byte		N06	, Cn4, v127
	.byte	W24
	.byte		N06	
	.byte		N15	, Dn5, v108
	.byte	W24
	.byte		N06	, Cn4, v127
	.byte	W12
	.byte		N14	, Dn5, v108
	.byte	W06
	.byte		N06	, Cn4, v064
	.byte	W06
	.byte			Cn4, v127
	.byte	W24
	.byte		N06	
	.byte	W24
	.byte		N06	
	.byte		N15	, Dn5, v108
	.byte	W24
	.byte		N06	, Cn4, v127
	.byte	W24
	.byte		N06	
	.byte		N14	, Dn5, v108
	.byte	W24
	.byte		N06	, Cn4, v127
	.byte	W24
	.byte		N06	
	.byte		N14	, Dn5, v108
	.byte	W24
	.byte		N06	, Cn4, v127
	.byte	W12
	.byte		N11	, Dn5, v108
	.byte	W06
	.byte		N06	, Cn4, v064
	.byte	W06
	.byte			Cn4, v127
	.byte	W12
	.byte		N06	
	.byte		N13	, Dn5, v104
	.byte	W12
	.byte		N06	, Cn4, v127
	.byte	W24
	.byte		N06	
	.byte		N16	, Dn5, v108
	.byte	W24
	.byte		N06	, Cn4, v127
	.byte	W24
	.byte		N06	
	.byte		N17	, Dn5, v108
	.byte	W24
	.byte		N06	, Cn4, v127
	.byte	W24
	.byte		N06	
	.byte		N16	, Dn5, v112
	.byte	W24
	.byte		N06	, Cn4, v127
	.byte	W12
	.byte		N14	, Dn5, v108
	.byte	W06
	.byte		N06	, Cn4, v064
	.byte	W06
	.byte			Cn4, v127
	.byte	W24
	.byte		N06	
	.byte	W24
	.byte		N06	
	.byte		N14	, Dn5, v100
	.byte	W24
	.byte		N06	, Cn4, v127
	.byte	W24
	.byte		N06	
	.byte		N14	, Dn5, v108
	.byte	W24
	.byte		N06	, Cn4, v127
	.byte	W24
	.byte		N06	
	.byte		N15	, Dn5, v108
	.byte	W24
	.byte		N06	, Cn4, v127
	.byte	W12
	.byte		N05	
	.byte		N05	, Dn5, v108
	.byte	W06
	.byte			Cn4, v064
	.byte	W06
	.byte		N06	, Cn4, v127
	.byte		N05	, Dn5, v088
	.byte	W12
	.byte			Cn4, v127
	.byte		N11	, Dn5, v108
	.byte	W06
	.byte		N05	, Cn4, v064
	.byte	W05
	.byte		N23	, Cn6, v044
	.byte	W01
	.byte		N06	, Cn4, v127
	.byte	W23
	.byte		N23	, Cn6, v044
	.byte	W01
	.byte		N06	, Cn4, v127
	.byte		N13	, Dn5, v108
	.byte	W23
	.byte		N23	, Cn6, v044
	.byte	W01
	.byte		N06	, Cn4, v127
	.byte	W23
	.byte		N23	, Cn6, v044
	.byte	W01
	.byte		N06	, Cn4, v127
	.byte		N03	, Dn5, v084
	.byte	W23
	.byte		N23	, Cn6, v044
	.byte	W01
	.byte		N06	, Cn4, v127
	.byte	W23
	.byte		N23	, Cn6, v044
	.byte	W01
	.byte		N06	, Cn4, v127
	.byte		N15	, Dn5, v112
	.byte	W23
	.byte		N23	, Cn6, v044
	.byte	W01
	.byte		N06	, Cn4, v127
	.byte	W12
	.byte		N12	, Dn5, v104
	.byte	W06
	.byte		N06	, Cn4, v064
	.byte	W05
	.byte		N23	, Cn6, v044
	.byte	W01
	.byte		N06	, Cn4, v127
	.byte	W23
	.byte		N23	, Cn6, v044
	.byte	W01
	.byte		N06	, Cn4, v127
	.byte	W23
	.byte		N23	, Cn6, v044
	.byte	W01
	.byte		N06	, Cn4, v127
	.byte		N15	, Dn5, v108
	.byte	W23
	.byte		N23	, Cn6, v044
	.byte	W01
	.byte		N06	, Cn4, v127
	.byte	W23
	.byte		N23	, Cn6, v044
	.byte	W01
	.byte		N06	, Cn4, v127
	.byte		N15	, Dn5, v108
	.byte	W23
	.byte		N23	, Cn6, v044
	.byte	W01
	.byte		N06	, Cn4, v127
	.byte	W23
	.byte		N23	, Cn6, v044
	.byte	W01
	.byte		N06	, Cn4, v127
	.byte		N16	, Dn5, v108
	.byte	W23
	.byte		N23	, Cn6, v044
	.byte	W01
	.byte		N06	, Cn4, v127
	.byte	W12
	.byte		N11	, Dn5, v108
	.byte	W06
	.byte		N06	, Cn4, v064
	.byte	W05
	.byte		N23	, Cn6, v044
	.byte	W01
	.byte		N06	, Cn4, v127
	.byte	W12
	.byte		N06	
	.byte		N13	, Dn5, v108
	.byte	W11
	.byte		N23	, Cn6, v044
	.byte	W01
	.byte		N06	, Cn4, v127
	.byte	W23
	.byte		N23	, Cn6, v044
	.byte	W01
	.byte		N06	, Cn4, v127
	.byte		N14	, Dn5, v108
	.byte	W23
	.byte		N23	, Cn6, v044
	.byte	W01
	.byte		N06	, Cn4, v127
	.byte	W23
	.byte		N23	, Cn6, v044
	.byte	W01
	.byte		N06	, Cn4, v127
	.byte		N13	, Dn5, v108
	.byte	W23
	.byte		N23	, Cn6, v044
	.byte	W01
	.byte		N06	, Cn4, v127
	.byte	W23
	.byte		N23	, Cn6, v044
	.byte	W01
	.byte		N06	, Cn4, v127
	.byte		N13	, Dn5, v108
	.byte	W23
	.byte		N23	, Cn6, v044
	.byte	W01
	.byte		N06	, Cn4, v127
	.byte	W12
	.byte		N11	, Dn5, v108
	.byte	W06
	.byte		N06	, Cn4, v064
	.byte	W05
	.byte		N23	, Cn6, v044
	.byte	W01
	.byte		N06	, Cn4, v127
	.byte	W23
	.byte		N23	, Cn6, v044
	.byte	W01
	.byte		N06	, Cn4, v127
	.byte	W23
	.byte		N23	, Cn6, v044
	.byte	W01
	.byte		N06	, Cn4, v127
	.byte		N16	, Dn5, v108
	.byte	W23
	.byte		N23	, Cn6, v044
	.byte	W01
	.byte		N06	, Cn4, v127
	.byte	W12
	.byte		N11	, Dn5, v108
	.byte	W11
	.byte		N23	, Cn6, v044
	.byte	W01
	.byte		N06	, Cn4, v127
	.byte	W12
	.byte		N06	
	.byte	W06
	.byte		N13	, Dn5, v108
	.byte	W06
	.byte	W24
	.byte		N15	
	.byte	W23
	.byte		N23	, Cn6, v064
	.byte	W01
	.byte		N06	, Cn4, v127
	.byte	W06
	.byte		N05	, Dn5, v108
	.byte	W06
	.byte			Cn4, v127
	.byte	W06
	.byte			Cn4, v064
	.byte	W05
	.byte		N23	, Cn6
	.byte	W01
	.byte		N06	, Cn4, v127
	.byte	W06
	.byte		N05	, Dn5, v088
	.byte	W06
	.byte			Cn4, v127
	.byte		N11	, Dn5, v108
	.byte	W06
	.byte		N05	, Cn4, v064
	.byte	W06
	.byte		N12	, Cn4, v127
	.byte	W24
	.byte		N12	
	.byte	W24
	.byte		N12	
	.byte	W24
	.byte		N12	
	.byte	W24
	.byte	GOTO	
		.word	song038_1_4
	.byte	FINE

	@********************** Track  2 **********************@

	.global song038_2
song038_2:	@ 0x082826FE
	.byte	KEYSH	, 0
song038_2_3:
	.byte	VOICE	, 1
	.byte	VOL	, v081
	.byte	BENDR	, 12
	.byte	MOD	, 0
	.byte		TIE	, Gn3, v096
	.byte	W68
	.byte	W03
	.byte	VOICE	, 1
	.byte	W12
	.byte		2
	.byte	W13
	.byte		TIE	, An3
	.byte	W03
	.byte		EOT	, Gn3
	.byte	W44
	.byte	VOICE	, 1
	.byte	W48
	.byte		2
	.byte	W01
	.byte		TIE	, As3
	.byte	W03
	.byte		EOT	, An3
	.byte	W68
	.byte	VOICE	, 1
	.byte	W24
	.byte	W01
	.byte		TIE	, Bn3
	.byte	W01
	.byte		EOT	, As3
	.byte	W22
	.byte	VOICE	, 2
	.byte	W72
	.byte		1
	.byte	W01
	.byte		1
	.byte		TIE	, Cn4
	.byte	W01
	.byte		EOT	, Bn3
	.byte	W10
	.byte	VOICE	, 2
	.byte	W24
	.byte		1
	.byte	W12
	.byte		2
	.byte	W24
	.byte		1
	.byte	W12
	.byte		2
	.byte	W13
	.byte		N52	, Dn4
	.byte	W03
	.byte		EOT	, Cn4
	.byte	W44
	.byte	VOICE	, 1
	.byte	W01
	.byte		N52	, En4
	.byte	W44
	.byte	W03
	.byte	VOICE	, 1
	.byte	W01
	.byte		TIE	, Fn4
	.byte	W11
	.byte	VOICE	, 2
	.byte	W24
	.byte		1
	.byte	W12
	.byte		2
	.byte	W24
	.byte		1
	.byte	W24
	.byte	W01
	.byte		N52	, Gn4
	.byte	W02
	.byte		EOT	, Fn4
	.byte	W09
	.byte	VOICE	, 2
	.byte	W36
	.byte	W01
	.byte		N24	, An4
	.byte	W11
	.byte	VOICE	, 1
	.byte	W13
	.byte		N24	, Bn4
	.byte	W24
	.byte	W96
	.byte	W96
	.byte	W96
	.byte	W96
	.byte	W96
	.byte	W96
	.byte	W96
	.byte	W92
	.byte	W03
	.byte	VOL	, v076
	.byte	W01
	.byte	PAN	, c_v
	.byte	MOD	, 0
	.byte	W96
song038_2_1:
	.byte	W24
	.byte	MOD	, 10
	.byte	W36
	.byte		0
	.byte	W36
	.byte	PEND
song038_2_2:
	.byte	W12
	.byte	MOD	, 10
	.byte	W24
	.byte		0
	.byte	W60
	.byte	PEND
	.byte	W12
	.byte		10
	.byte	W24
	.byte		0
	.byte	W30
	.byte		14
	.byte	W24
	.byte		0
	.byte	W06
	.byte		0
	.byte	W96
	.byte	PATT	
		.word	song038_2_1
	.byte	PATT	
		.word	song038_2_2
	.byte	W72
	.byte	MOD	, 12
	.byte	W24
	.byte	W96
	.byte	W96
	.byte	W96
	.byte	W96
	.byte	W96
	.byte	W96
	.byte	W96
	.byte	W96
	.byte	W96
	.byte	W96
	.byte	W96
	.byte	W96
	.byte	W96
	.byte	W96
	.byte	W96
	.byte	W96
	.byte	W96
	.byte	GOTO	
		.word	song038_2_3
	.byte	FINE

	@********************** Track  3 **********************@

	.global song038_3
song038_3:	@ 0x082827C3
	.byte	KEYSH	, 0
song038_3_3:
	.byte	VOICE	, 45
	.byte	VOL	, v055
	.byte	MOD	, 0
	.byte	BEND	, c_v
	.byte	W96
	.byte	W96
	.byte	W96
	.byte	W96
	.byte	W96
	.byte	W96
	.byte	W96
	.byte	W96
	.byte	W96
	.byte	W96
	.byte	W96
	.byte	W96
	.byte	W96
	.byte	W96
	.byte	W96
	.byte	W92
	.byte	W03
	.byte		N04	, Gs3, v108
	.byte		N04	, Ds4
	.byte	W01
song038_3_1:
	.byte	W02
	.byte		N18	, An3, v112
	.byte		N18	, En4
	.byte	W32
	.byte	W01
	.byte		N12	, Fs3
	.byte		N12	, Cs4
	.byte	W24
	.byte			En3, v100
	.byte		N12	, Bn3
	.byte	W12
	.byte			Fs3, v108
	.byte		N12	, Cs4
	.byte	W13
	.byte		N36	, Cs4, v112
	.byte		N36	, Gs4
	.byte	W12
	.byte	PEND
song038_3_2:
	.byte	W56
	.byte	W02
	.byte		N12	, Gs3, v112
	.byte		N12	, Gs4
	.byte	W24
	.byte		N36	, Gn3
	.byte		N36	, Gn4
	.byte	W14
	.byte	PEND
	.byte	W32
	.byte	W03
	.byte		N12	, Bn2
	.byte		N12	, Bn3
	.byte	W24
	.byte		N11	, An2
	.byte		N11	, An3
	.byte	W12
	.byte			Bn2
	.byte		N11	, Bn3
	.byte	W12
	.byte		N36	, Fs3
	.byte		N36	, Fs4
	.byte	W13
	.byte	W32
	.byte	W03
	.byte			Fn3
	.byte		N36	, Fn4
	.byte	W60
	.byte		N03	, Gs3, v108
	.byte		N03	, Ds4
	.byte	W01
	.byte	PATT	
		.word	song038_3_1
	.byte	PATT	
		.word	song038_3_2
	.byte	W32
	.byte	W03
	.byte		N12	, Bn2, v112
	.byte		N12	, Bn3
	.byte	W24
	.byte		N11	, An2
	.byte		N11	, An3
	.byte	W12
	.byte			Bn2
	.byte		N11	, Bn3
	.byte	W12
	.byte		N23	, Fs3
	.byte		N23	, Fs4
	.byte	W13
	.byte	W11
	.byte		N11	, Gn3
	.byte		N11	, Gn4
	.byte	W12
	.byte			An3
	.byte		N11	, An4
	.byte	W12
	.byte		N12	, Fs3
	.byte		N12	, Fs4
	.byte	W24
	.byte		N30	, Fn3
	.byte		N30	, Fn4
	.byte	W36
	.byte	W01
	.byte	W96
	.byte	W96
	.byte	W96
	.byte	W96
	.byte	W96
	.byte	W96
	.byte	W96
	.byte	W96
	.byte	W96
	.byte	W96
	.byte	W96
	.byte	W96
	.byte	W96
	.byte	W96
	.byte	W96
	.byte	W96
	.byte	W96
	.byte	GOTO	
		.word	song038_3_3
	.byte	FINE

	@********************** Track  4 **********************@

	.global song038_4
song038_4:	@ 0x0828287D
	.byte	KEYSH	, 0
song038_4_2:
	.byte	VOICE	, 7
	.byte	VOL	, v074
	.byte		N06	, Fs3, v116
	.byte	W12
	.byte			Gs3, v120
	.byte	W06
	.byte		N04	, Fn3, v116
	.byte	W06
	.byte			Fn3, v076
	.byte	W06
	.byte			Fn3, v036
	.byte	W06
	.byte		N06	, Ds3, v116
	.byte	W12
	.byte			Fn3, v120
	.byte	W06
	.byte		N04	, Cs3, v116
	.byte	W06
	.byte			Cs3, v076
	.byte	W06
	.byte			Cs3, v036
	.byte	W06
	.byte		N06	, As2, v096
	.byte	W06
	.byte			Cn3, v104
	.byte	W06
	.byte			Cs3, v112
	.byte	W06
	.byte			Ds3, v116
	.byte	W06
	.byte	W06
	.byte			Fn3
	.byte	W12
	.byte		N12	, As2
	.byte	W12
	.byte			Gs2
	.byte	W12
	.byte			As2
	.byte	W12
	.byte			Gs2
	.byte	W12
	.byte		N06	, As2
	.byte	W12
	.byte		N12	, En3
	.byte	W17
	.byte	VOL	, v074
	.byte	W01
	.byte		N06	, Fs3
	.byte	W12
	.byte			Gs3, v120
	.byte	W06
	.byte		N04	, Fn3, v116
	.byte	W06
	.byte			Fn3, v076
	.byte	W06
	.byte			Fn3, v036
	.byte	W06
	.byte		N06	, Ds3, v116
	.byte	W12
	.byte			Fn3, v120
	.byte	W06
	.byte		N04	, Cs3, v116
	.byte	W06
	.byte			Cs3, v076
	.byte	W06
	.byte			Cs3, v036
	.byte	W06
	.byte		N06	, Ds3, v112
	.byte	W12
	.byte			Gs3, v116
	.byte	W12
	.byte		N05	, Gs3, v064
	.byte	W12
	.byte			Gs3, v056
	.byte	W12
	.byte			Gs3, v044
	.byte	W12
	.byte			Gs3, v036
	.byte	W12
	.byte			Gs3, v024
	.byte	W44
	.byte	W03
	.byte	VOL	, v074
	.byte	W01
song038_4_1:
	.byte		N04	, Fn3, v116
	.byte	W06
	.byte		N03	, Fn3, v076
	.byte	W06
	.byte		N04	, Fs3, v116
	.byte	W06
	.byte		N03	, Fs3, v076
	.byte	W06
	.byte			Fs3, v036
	.byte	W12
	.byte		N04	, Gs3, v120
	.byte	W06
	.byte		N03	, Gs3, v080
	.byte	W06
	.byte			Gs3, v052
	.byte	W06
	.byte			Gs3, v040
	.byte	W06
	.byte			Gs3, v032
	.byte	W12
	.byte		N04	, As3, v120
	.byte	W06
	.byte		N03	, As3, v080
	.byte	W18
	.byte	PEND
	.byte	W06
	.byte		N04	, Ds4, v120
	.byte	W06
	.byte		N03	, Ds4, v060
	.byte	W06
	.byte		N04	, Gs3, v120
	.byte	W06
	.byte		N03	, Gs3, v060
	.byte	W06
	.byte		N04	, Gs3, v084
	.byte	W06
	.byte			Gs3, v116
	.byte	W06
	.byte			Fs3, v104
	.byte	W12
	.byte			Ds4, v120
	.byte	W06
	.byte		N03	, Ds4, v060
	.byte	W06
	.byte		N04	, Gs3, v120
	.byte	W06
	.byte		N03	, Gs3, v060
	.byte	W06
	.byte		N04	, Gs3, v084
	.byte	W06
	.byte			Gs3, v116
	.byte	W06
	.byte			Fs3, v104
	.byte	W05
	.byte	VOL	, v074
	.byte	W01
	.byte	PATT	
		.word	song038_4_1
	.byte	W06
	.byte		N04	, Ds4, v120
	.byte	W06
	.byte		N03	, Ds4, v060
	.byte	W06
	.byte		N04	, Gs3, v120
	.byte	W06
	.byte		N03	, Gs3, v060
	.byte	W06
	.byte		N04	, Gs3, v084
	.byte	W06
	.byte			Gs3, v116
	.byte	W06
	.byte			Fs3, v104
	.byte	W12
	.byte			Ds4, v120
	.byte	W06
	.byte		N03	, Ds4, v060
	.byte	W06
	.byte		N04	, Gs4, v120
	.byte	W06
	.byte		N03	, Gs4, v080
	.byte	W06
	.byte			Gs4, v060
	.byte	W06
	.byte			Gs4, v040
	.byte	W06
	.byte			Gs4, v032
	.byte	W06
	.byte	W96
	.byte	W96
	.byte	W96
	.byte	W96
	.byte	W96
	.byte	W96
	.byte	W96
	.byte	W92
	.byte	W03
	.byte	VOL	, v043
	.byte	W01
	.byte	W96
	.byte	W96
	.byte	W96
	.byte	W96
	.byte	W96
	.byte	W96
	.byte	W96
	.byte	W92
	.byte	W03
	.byte		v055
	.byte	W01
	.byte	W96
	.byte	W96
	.byte	W96
	.byte	W96
	.byte	W96
	.byte	W96
	.byte	W96
	.byte	W96
	.byte	W96
	.byte	W96
	.byte	W96
	.byte	W96
	.byte	W96
	.byte	W96
	.byte	W96
	.byte	W96
	.byte	W96
	.byte	GOTO	
		.word	song038_4_2
	.byte	FINE

	@********************** Track  5 **********************@

	.global song038_5
song038_5:	@ 0x082829CD
	.byte	KEYSH	, 0
song038_5_2:
	.byte	VOICE	, 55
	.byte	MOD	, 0
	.byte	VOL	, v099
	.byte	W96
	.byte	W96
	.byte	W96
	.byte	MOD	, 0
	.byte	W06
	.byte		N04	, Ds2, v088
	.byte		N04	, Ds3
	.byte	W03
	.byte		N09	, En2, v092
	.byte		N09	, En3
	.byte	W09
	.byte		N06	, Dn2, v080
	.byte		N06	, Dn3
	.byte	W06
	.byte		N15	, En2, v092
	.byte		N15	, En3
	.byte	W06
	.byte	MOD	, 5
	.byte	W12
	.byte		0
	.byte		N04	, Ds2, v088
	.byte		N04	, Ds3
	.byte	W03
	.byte		N15	, En2, v092
	.byte		N15	, En3
	.byte	W16
	.byte		N36	, An2
	.byte		N36	, An3
	.byte	W11
	.byte	MOD	, 10
	.byte	W24
	.byte	W96
	.byte	W96
	.byte	W96
	.byte	W92
	.byte	W03
	.byte		N04	, Ds2, v104
	.byte		N04	, Ds3
	.byte	W01
	.byte	PAN	, c_v
	.byte	MOD	, 0
	.byte	W02
	.byte		N18	, En2, v112
	.byte		N18	, En3
	.byte	W32
	.byte	W01
	.byte		N12	, Cs2
	.byte		N12	, Cs3
	.byte	W24
	.byte			Bn1, v096
	.byte		N12	, Bn2
	.byte	W12
	.byte			Cs2, v104
	.byte		N12	, Cs3
	.byte	W13
	.byte		N36	, Gs2, v116
	.byte		N36	, Gs3
	.byte	W12
song038_5_1:
	.byte	W24
	.byte	MOD	, 10
	.byte	W32
	.byte	W02
	.byte		N12	, Gs2, v120
	.byte		N12	, Gs3
	.byte	W02
	.byte	MOD	, 0
	.byte	W22
	.byte		N36	, Gn2, v112
	.byte		N36	, Gn3
	.byte	W14
	.byte	PEND
	.byte	W12
	.byte	MOD	, 10
	.byte	W23
	.byte		N12	, Bn1, v116
	.byte		N12	, Bn2
	.byte	W01
	.byte	MOD	, 0
	.byte	W23
	.byte		N11	, An1, v108
	.byte		N11	, An2
	.byte	W12
	.byte			Bn1, v112
	.byte		N11	, Bn2
	.byte	W12
	.byte		N36	, Fs2
	.byte		N36	, Fs3
	.byte	W13
	.byte	W12
	.byte	MOD	, 10
	.byte	W23
	.byte		N36	, Fn2
	.byte		N36	, Fn3
	.byte	W01
	.byte	MOD	, 0
	.byte	W30
	.byte		14
	.byte	W24
	.byte		0
	.byte	W05
	.byte		N04	, Ds2, v104
	.byte		N04	, Ds3
	.byte	W01
	.byte	MOD	, 0
	.byte	W02
	.byte		N18	, En2, v112
	.byte		N18	, En3
	.byte	W32
	.byte	W01
	.byte		N12	, Cs2
	.byte		N12	, Cs3
	.byte	W24
	.byte			Bn1, v096
	.byte		N12	, Bn2
	.byte	W12
	.byte			Cs2, v104
	.byte		N12	, Cs3
	.byte	W13
	.byte		N36	, Gs2, v116
	.byte		N36	, Gs3
	.byte	W12
	.byte	PATT	
		.word	song038_5_1
	.byte	W12
	.byte	MOD	, 10
	.byte	W23
	.byte		N12	, Bn1, v112
	.byte		N12	, Bn2
	.byte	W01
	.byte	MOD	, 0
	.byte	W23
	.byte		N11	, An1
	.byte		N11	, An2
	.byte	W12
	.byte			Bn1, v116
	.byte		N11	, Bn2
	.byte	W12
	.byte		N23	, Fs2, v112
	.byte		N23	, Fs3
	.byte	W13
	.byte	W11
	.byte		N11	, Gn2, v116
	.byte		N11	, Gn3
	.byte	W12
	.byte			An2, v124
	.byte		N11	, An3
	.byte	W12
	.byte		N12	, Fs2, v116
	.byte		N12	, Fs3
	.byte	W24
	.byte		N30	, Fn2, v108
	.byte		N30	, Fn3
	.byte	W13
	.byte	MOD	, 12
	.byte	W24
	.byte	W96
	.byte	W96
	.byte	W96
	.byte	W96
	.byte	W96
	.byte	W96
	.byte	W96
	.byte	W96
	.byte	W96
	.byte	W96
	.byte	W96
	.byte	W96
	.byte	W96
	.byte	W96
	.byte	W96
	.byte	W96
	.byte		0
	.byte		N23	, An1, v088
	.byte		N23	, An2
	.byte	W24
	.byte		N11	, En2
	.byte		N11	, En3
	.byte	W12
	.byte		N23	, Dn2
	.byte		N23	, Dn3
	.byte	W12
	.byte	MOD	, 5
	.byte	W12
	.byte		N23	, An2
	.byte		N23	, An3
	.byte	W24
	.byte		N60	, En2
	.byte		N60	, En3
	.byte	W12
	.byte	W12
	.byte	MOD	, 10
	.byte	W84
	.byte	W96
	.byte	W96
	.byte		0
	.byte		N23	, An1
	.byte		N23	, An2
	.byte	W24
	.byte		N11	, En2
	.byte		N11	, En3
	.byte	W12
	.byte		N23	, Dn2
	.byte		N23	, Dn3
	.byte	W12
	.byte	MOD	, 5
	.byte	W12
	.byte		N23	, An2
	.byte		N23	, An3
	.byte	W24
	.byte		N36	, En2
	.byte		N36	, En3
	.byte	W12
	.byte	W12
	.byte	MOD	, 10
	.byte	W36
	.byte		0
	.byte		N11	, En2
	.byte		N11	, En3
	.byte	W24
	.byte			Fs2
	.byte		N11	, Fs3
	.byte	W12
	.byte		N32	, Gn2
	.byte		N32	, Gn3
	.byte	W12
	.byte	W24
	.byte		N11	, An2
	.byte		N11	, An3
	.byte	W12
	.byte		N23	, Fs2
	.byte		N23	, Fs3
	.byte	W24
	.byte			En2
	.byte		N23	, En3
	.byte	W24
	.byte		TIE	, Dn2
	.byte		TIE	, Dn3
	.byte	W12
	.byte	W12
	.byte	MOD	, 12
	.byte	W80
	.byte	W03
	.byte		EOT	, Dn2
	.byte			Dn3
	.byte	W01
	.byte	W96
	.byte	GOTO	
		.word	song038_5_2
	.byte	FINE

	@********************** Track  6 **********************@

	.global song038_6
song038_6:	@ 0x08282B63
	.byte	KEYSH	, 0
song038_6_5:
	.byte	VOICE	, 6
	.byte	VOL	, v055
	.byte	W23
	.byte	BEND	, c_v
	.byte	W72
	.byte	W01
	.byte	W96
	.byte	W96
	.byte	W96
	.byte	W96
	.byte	W96
	.byte	W96
	.byte	W96
	.byte	W96
	.byte	W96
	.byte	W96
	.byte	W96
	.byte	W96
	.byte	W96
	.byte	W96
	.byte	W96
	.byte	W96
	.byte	W96
	.byte	W96
	.byte	W96
	.byte	W96
	.byte	W96
	.byte	W96
	.byte	W96
song038_6_1:
	.byte		N23	, An2, v096
	.byte	W23
	.byte		N11	, En3, v112
	.byte	W12
	.byte		N23	, Dn3, v100
	.byte	W24
	.byte			An3, v116
	.byte	W24
	.byte		N56	, En3, v104
	.byte	W13
	.byte	PEND
song038_6_2:
	.byte	W44
	.byte	W03
	.byte		N11	, En3, v108
	.byte	W12
	.byte			En3, v116
	.byte	W12
	.byte			Fs3, v120
	.byte	W12
	.byte		N32	, Gn3, v127
	.byte	W13
	.byte	PEND
song038_6_3:
	.byte	W23
	.byte		N11	, Fs3, v120
	.byte	W12
	.byte		N23	, En3, v116
	.byte	W24
	.byte			Dn3, v108
	.byte	W24
	.byte		N44	, As3, v116
	.byte	W13
	.byte	PEND
song038_6_4:
	.byte	W32
	.byte	W03
	.byte		N32	, An3, v112
	.byte	W36
	.byte		N18	, Gn3
	.byte	W24
	.byte	W01
	.byte	PEND
	.byte		N23	, An3, v096
	.byte	W23
	.byte		N11	, En4, v112
	.byte	W12
	.byte		N23	, Dn4, v100
	.byte	W24
	.byte			An4, v116
	.byte	W24
	.byte		N56	, En4, v104
	.byte	W13
	.byte	W44
	.byte	W03
	.byte		N11	, En4, v108
	.byte	W12
	.byte			En4, v116
	.byte	W12
	.byte			Fs4, v120
	.byte	W12
	.byte		N36	, Gn4, v127
	.byte	W13
	.byte	W23
	.byte		N13	, An4, v120
	.byte	W12
	.byte		N23	, Fs4, v116
	.byte	W24
	.byte			En4, v108
	.byte	W24
	.byte		N32	, Dn4, v116
	.byte	W13
	.byte	W23
	.byte		N10	, Dn4, v112
	.byte	W12
	.byte		N12	, Cn4
	.byte	W24
	.byte		N32	, En4
	.byte	W36
	.byte	VOL	, v085
	.byte	W01
	.byte	PATT	
		.word	song038_6_1
	.byte	PATT	
		.word	song038_6_2
	.byte	PATT	
		.word	song038_6_3
	.byte	PATT	
		.word	song038_6_4
	.byte		N23	, An3, v096
	.byte	W23
	.byte		N11	, En4, v112
	.byte	W12
	.byte		N23	, Dn4, v100
	.byte	W24
	.byte			An4, v116
	.byte	W24
	.byte		N36	, En4, v104
	.byte	W13
	.byte	W44
	.byte	W03
	.byte		N24	, En4, v108
	.byte	W24
	.byte		N11	, Fs4, v120
	.byte	W12
	.byte		N36	, Gn4, v127
	.byte	W13
	.byte	W23
	.byte		N13	, An4, v120
	.byte	W12
	.byte		N23	, Fs4, v116
	.byte	W24
	.byte			En4, v108
	.byte	W24
	.byte		TIE	, Dn4, v096
	.byte	W13
	.byte	W24
	.byte	BEND	, c_v+3
	.byte	W01
	.byte		c_v+6
	.byte	W01
	.byte		c_v+12
	.byte	W01
	.byte		c_v+15
	.byte	W01
	.byte		c_v+19
	.byte	W01
	.byte		c_v+25
	.byte	W01
	.byte		c_v+28
	.byte	W01
	.byte		c_v+31
	.byte	W01
	.byte		c_v+38
	.byte	W01
	.byte		c_v+41
	.byte	W01
	.byte		c_v+44
	.byte	W01
	.byte		c_v+51
	.byte	W01
	.byte		c_v+54
	.byte	W01
	.byte		c_v+57
	.byte	W01
	.byte		c_v+63
	.byte	W56
	.byte		EOT	
	.byte	W02
	.byte	W96
	.byte	GOTO	
		.word	song038_6_5
	.byte	FINE

	@********************** Track  7 **********************@

	.global song038_7
song038_7:	@ 0x08282C75
	.byte	KEYSH	, 0
song038_7_10:
	.byte	VOICE	, 8
	.byte	VOL	, v055
	.byte	PAN	, c_v-40
	.byte	W96
	.byte	W96
	.byte	W96
	.byte	W96
song038_7_1:
	.byte		N06	, Fn2, v096
	.byte	W12
	.byte		N06	
	.byte	W24
	.byte			En2
	.byte	W12
	.byte		N06	
	.byte	W24
	.byte			Dn2
	.byte	W12
	.byte		N18	, Gn2
	.byte	W12
	.byte	PEND
song038_7_2:
	.byte	W12
	.byte		N06	, Gn2, v096
	.byte	W24
	.byte			Gs2
	.byte	W24
	.byte			Gn2
	.byte	W24
	.byte		N06	
	.byte	W12
	.byte	PEND
	.byte	PATT	
		.word	song038_7_1
	.byte	PATT	
		.word	song038_7_2
song038_7_3:
	.byte	W11
	.byte		N06	, Cn3, v084
	.byte	W24
	.byte		N06	
	.byte	W24
	.byte		N06	
	.byte	W24
	.byte		N06	
	.byte	W13
	.byte	PEND
song038_7_4:
	.byte	W11
	.byte		N06	, Dn3, v084
	.byte	W24
	.byte		N06	
	.byte	W24
	.byte		N06	
	.byte	W24
	.byte		N06	
	.byte	W13
	.byte	PEND
song038_7_5:
	.byte	W11
	.byte		N06	, Fn3, v084
	.byte	W24
	.byte		N06	
	.byte	W24
	.byte		N06	
	.byte	W24
	.byte		N06	
	.byte	W13
	.byte	PEND
song038_7_6:
	.byte	W11
	.byte		N12	, Gn3, v084
	.byte	W24
	.byte		N06	
	.byte	W24
	.byte		N06	
	.byte	W12
	.byte		N09	
	.byte	W12
	.byte		N06	
	.byte	W13
	.byte	PEND
	.byte	PATT	
		.word	song038_7_3
	.byte	PATT	
		.word	song038_7_4
	.byte	PATT	
		.word	song038_7_5
	.byte	PATT	
		.word	song038_7_6
	.byte	PATT	
		.word	song038_7_3
	.byte	PATT	
		.word	song038_7_4
	.byte	PATT	
		.word	song038_7_5
	.byte	PATT	
		.word	song038_7_6
	.byte	PATT	
		.word	song038_7_3
	.byte	PATT	
		.word	song038_7_4
	.byte	PATT	
		.word	song038_7_5
	.byte	PATT	
		.word	song038_7_6
	.byte		TIE	, Gn2, v096
	.byte	W96
	.byte	W48
	.byte		EOT	
	.byte		N48	, Fn2
	.byte	W48
song038_7_7:
	.byte		N24	, An2, v096
	.byte	W24
	.byte			Gn2
	.byte	W24
	.byte			Fn2
	.byte	W24
	.byte		N72	, Gn2
	.byte	W24
	.byte	PEND
	.byte	W48
	.byte		N42	, Fn2
	.byte	W48
	.byte		TIE	, Gn2
	.byte	W96
	.byte	W48
	.byte		EOT	
	.byte		N48	, Fn2
	.byte	W48
song038_7_8:
	.byte		N24	, An2, v096
	.byte	W24
	.byte			Gn2
	.byte	W24
	.byte			Fn2
	.byte	W24
	.byte			Gn2
	.byte	W24
	.byte	PEND
song038_7_9:
	.byte		N48	, Gs2, v096
	.byte	W48
	.byte		N42	, Fn2
	.byte	W48
	.byte	PEND
	.byte		TIE	, Gn2
	.byte	W96
	.byte	W48
	.byte		EOT	
	.byte		N48	, Fn2
	.byte	W48
	.byte	PATT	
		.word	song038_7_7
	.byte	W48
	.byte		N42	, Fn2, v096
	.byte	W48
	.byte		TIE	, Gn2
	.byte	W96
	.byte	W48
	.byte		EOT	
	.byte		N48	, Fn2
	.byte	W48
	.byte	PATT	
		.word	song038_7_8
	.byte	PATT	
		.word	song038_7_9
	.byte	W96
	.byte	GOTO	
		.word	song038_7_10
	.byte	FINE

	@********************** Track  8 **********************@

	.global song038_8
song038_8:	@ 0x08282D74
	.byte	KEYSH	, 0
song038_8_15:
	.byte	VOICE	, 3
	.byte	W01
	.byte	VOL	, v062
	.byte	W01
	.byte		N10	, An2, v127
	.byte	W12
	.byte		N11	, An3
	.byte	W12
	.byte		N06	, An2
	.byte	W12
	.byte		N11	
	.byte	W12
	.byte		N10	, An3
	.byte	W12
	.byte		N04	, An2
	.byte	W12
	.byte		N11	
	.byte	W12
	.byte			An3
	.byte	W10
song038_8_1:
	.byte	W02
	.byte		N04	, An2, v127
	.byte	W12
	.byte		N11	
	.byte	W12
	.byte		N10	, An3
	.byte	W12
	.byte		N07	, An2
	.byte	W12
	.byte		N11	, Gn2
	.byte	W12
	.byte		N06	, Gn3
	.byte	W12
	.byte		N09	, En2
	.byte	W12
	.byte		N10	, En3
	.byte	W10
	.byte	PEND
song038_8_2:
	.byte	W02
	.byte		N10	, An2, v127
	.byte	W12
	.byte		N11	, An3
	.byte	W12
	.byte		N06	, An2
	.byte	W12
	.byte		N11	
	.byte	W12
	.byte		N10	, An3
	.byte	W12
	.byte		N04	, An2
	.byte	W12
	.byte		N11	
	.byte	W12
	.byte			An3
	.byte	W10
	.byte	PEND
	.byte	PATT	
		.word	song038_8_1
	.byte	PATT	
		.word	song038_8_2
	.byte	PATT	
		.word	song038_8_1
	.byte	PATT	
		.word	song038_8_2
	.byte	W02
	.byte		N04	, An2, v127
	.byte	W12
	.byte		N11	
	.byte	W12
	.byte		N10	, An3
	.byte	W12
	.byte		N07	, An2
	.byte	W12
	.byte		N11	, Bn2
	.byte	W12
	.byte		N06	, Bn3
	.byte	W12
	.byte		N09	, Cs3
	.byte	W12
	.byte		N10	, Cs4
	.byte	W10
song038_8_3:
	.byte	W02
	.byte		N10	, Dn2, v127
	.byte	W12
	.byte			Dn1
	.byte	W12
	.byte			Cs2
	.byte	W12
	.byte			Dn2
	.byte	W12
	.byte			Dn1
	.byte	W12
	.byte			Dn2
	.byte	W12
	.byte			Cs2
	.byte	W12
	.byte			Dn1
	.byte	W10
	.byte	PEND
song038_8_4:
	.byte	W02
	.byte		N10	, En2, v127
	.byte	W12
	.byte			En1
	.byte	W12
	.byte			Ds2
	.byte	W12
	.byte			En2
	.byte	W12
	.byte			En1
	.byte	W12
	.byte			En2
	.byte	W12
	.byte			Ds2
	.byte	W12
	.byte			En1
	.byte	W10
	.byte	PEND
song038_8_5:
	.byte	W02
	.byte		N10	, Gn2, v127
	.byte	W12
	.byte			Gn1
	.byte	W12
	.byte			Fs2
	.byte	W12
	.byte			Gn2
	.byte	W12
	.byte			Gn1
	.byte	W12
	.byte			Gn2
	.byte	W12
	.byte			Fs2
	.byte	W12
	.byte			Gn1
	.byte	W10
	.byte	PEND
song038_8_6:
	.byte	W02
	.byte		N10	, An1, v127
	.byte	W12
	.byte			An2
	.byte	W12
	.byte			An1
	.byte	W12
	.byte			As1
	.byte	W12
	.byte			As2
	.byte	W12
	.byte			As1
	.byte	W12
	.byte			An2
	.byte	W12
	.byte			An1
	.byte	W10
	.byte	PEND
	.byte	PATT	
		.word	song038_8_3
	.byte	PATT	
		.word	song038_8_4
	.byte	PATT	
		.word	song038_8_5
	.byte	PATT	
		.word	song038_8_6
song038_8_7:
	.byte	W02
	.byte		N10	, Dn3, v127
	.byte	W12
	.byte			Dn2
	.byte	W12
	.byte			Cs3
	.byte	W12
	.byte			Dn3
	.byte	W12
	.byte			Dn2
	.byte	W12
	.byte			Dn3
	.byte	W12
	.byte			Cs3
	.byte	W12
	.byte			Dn2
	.byte	W10
	.byte	PEND
song038_8_8:
	.byte	W02
	.byte		N10	, En3, v127
	.byte	W12
	.byte			En2
	.byte	W12
	.byte			Ds3
	.byte	W12
	.byte			En3
	.byte	W12
	.byte			En2
	.byte	W12
	.byte			En3
	.byte	W12
	.byte			Ds3
	.byte	W12
	.byte			En2
	.byte	W10
	.byte	PEND
song038_8_9:
	.byte	W02
	.byte		N10	, Gn3, v127
	.byte	W12
	.byte			Gn2
	.byte	W12
	.byte			Fs3
	.byte	W12
	.byte			Gn3
	.byte	W12
	.byte			Gn2
	.byte	W12
	.byte			Gn3
	.byte	W12
	.byte			Fs3
	.byte	W12
	.byte			Gn2
	.byte	W10
	.byte	PEND
song038_8_10:
	.byte	W02
	.byte		N10	, An2, v127
	.byte	W12
	.byte			An3
	.byte	W12
	.byte			An2
	.byte	W12
	.byte			As2
	.byte	W12
	.byte			As3
	.byte	W12
	.byte			As2
	.byte	W12
	.byte			An3
	.byte	W12
	.byte			An2
	.byte	W10
	.byte	PEND
	.byte	PATT	
		.word	song038_8_7
	.byte	PATT	
		.word	song038_8_8
	.byte	PATT	
		.word	song038_8_9
	.byte	PATT	
		.word	song038_8_10
song038_8_11:
	.byte	W02
	.byte		N30	, Dn3, v127
	.byte	W24
	.byte		N12	, Dn2
	.byte	W12
	.byte		N30	, Dn3
	.byte	W24
	.byte		N12	, Dn2
	.byte	W12
	.byte		N16	, Dn3
	.byte	W12
	.byte		N12	, Dn2
	.byte	W10
	.byte	PEND
song038_8_12:
	.byte	W02
	.byte		N28	, Cn3, v127
	.byte	W24
	.byte		N12	, Cn2
	.byte	W12
	.byte		N28	, Cn3
	.byte	W24
	.byte		N12	, Cn2
	.byte	W12
	.byte		N11	, Cn3
	.byte	W12
	.byte		N12	, Cn2
	.byte	W10
	.byte	PEND
song038_8_13:
	.byte	W02
	.byte		N30	, Gn2, v127
	.byte	W24
	.byte		N12	, Gn1
	.byte	W12
	.byte		N28	, Gn2
	.byte	W24
	.byte		N12	, Gn1
	.byte	W12
	.byte		N14	, Gn2
	.byte	W12
	.byte		N12	, Gn1
	.byte	W10
	.byte	PEND
song038_8_14:
	.byte	W02
	.byte		N28	, As2, v127
	.byte	W24
	.byte		N12	, As1
	.byte	W12
	.byte		N28	, As2
	.byte	W24
	.byte		N12	, As1
	.byte	W12
	.byte		N16	, Cs3
	.byte	W12
	.byte		N12	, Cs2
	.byte	W10
	.byte	PEND
	.byte	PATT	
		.word	song038_8_11
	.byte	PATT	
		.word	song038_8_12
	.byte	PATT	
		.word	song038_8_13
	.byte	PATT	
		.word	song038_8_14
	.byte	W02
	.byte		N28	, Dn3, v127
	.byte	W24
	.byte		N12	, Dn2
	.byte	W12
	.byte		N24	, Dn3
	.byte	W24
	.byte		N12	, Dn2
	.byte	W12
	.byte		N15	, Dn3
	.byte	W12
	.byte		N12	, Dn2
	.byte	W10
	.byte	W02
	.byte		N30	, Gn2
	.byte	W24
	.byte		N12	, Gn3
	.byte	W12
	.byte		N28	, Gn2
	.byte	W24
	.byte		N12	, Gn3
	.byte	W12
	.byte		N16	, Gn2
	.byte	W12
	.byte		N12	, Gn3
	.byte	W10
	.byte	W02
	.byte		N28	, En2
	.byte	W24
	.byte		N12	, En3
	.byte	W12
	.byte		N24	, En2
	.byte	W24
	.byte		N12	, En3
	.byte	W12
	.byte		N16	, En2
	.byte	W12
	.byte		N12	, En3
	.byte	W10
	.byte	W02
	.byte		N24	, An2
	.byte	W24
	.byte		N12	, An3
	.byte	W12
	.byte		N24	, An2
	.byte	W24
	.byte		N12	, An3
	.byte	W12
	.byte		N15	, Cs2
	.byte	W12
	.byte		N12	, Cs3
	.byte	W10
	.byte	W02
	.byte		N24	, Dn2
	.byte	W24
	.byte		N12	, Dn3
	.byte	W12
	.byte		N24	, Dn2
	.byte	W24
	.byte		N12	, Dn3
	.byte	W12
	.byte		N19	, Dn2
	.byte	W12
	.byte		N12	, Dn3
	.byte	W10
	.byte	W02
	.byte		N24	, Gn2
	.byte	W24
	.byte		N12	, Gn3
	.byte	W12
	.byte		N28	, Gn2
	.byte	W24
	.byte		N12	, Gn3
	.byte	W12
	.byte		N16	, Gn2
	.byte	W12
	.byte		N12	, Gn3
	.byte	W10
	.byte	W02
	.byte		N17	, En2
	.byte	W12
	.byte		N12	, En3
	.byte	W12
	.byte		N17	, Fs2
	.byte	W12
	.byte		N12	, Fs3
	.byte	W12
	.byte		N14	, Gn2
	.byte	W12
	.byte		N12	, Gn3
	.byte	W12
	.byte		N16	, An2
	.byte	W12
	.byte		N12	, An3
	.byte	W10
	.byte	W02
	.byte		N16	, As2
	.byte	W12
	.byte		N12	, As3
	.byte	W12
	.byte		N05	, As2
	.byte	W12
	.byte		N17	
	.byte	W12
	.byte		N12	, As3
	.byte	W12
	.byte		N05	, As2
	.byte	W12
	.byte		N09	
	.byte	W12
	.byte		N12	, As3
	.byte	W10
	.byte	W14
	.byte		N12	
	.byte	W24
	.byte			Fn3
	.byte	W24
	.byte			Dn3
	.byte	W24
	.byte			As2
	.byte	W10
	.byte	GOTO	
		.word	song038_8_15
	.byte	W02
	.byte	FINE

	@********************** Track  9 **********************@

	.global song038_9
song038_9:	@ 0x08282FD4
	.byte	KEYSH	, 0
song038_9_7:
	.byte	VOICE	, 4
	.byte	MOD	, 0
	.byte	VOL	, v039
	.byte	PAN	, c_v+40
	.byte	W96
	.byte	W96
	.byte	W96
	.byte	W96
	.byte	W96
	.byte	W96
	.byte	W96
	.byte	W96
song038_9_1:
	.byte		N03	, An4, v064
	.byte	W12
	.byte			Cs5, v084
	.byte	W12
	.byte			Fs5, v092
	.byte	W12
	.byte			Cs5, v100
	.byte	W12
	.byte			An4, v064
	.byte	W12
	.byte			Cs5, v084
	.byte	W12
	.byte			Fs5, v092
	.byte	W12
	.byte			Cs5, v100
	.byte	W12
	.byte	PEND
song038_9_2:
	.byte		N03	, Bn4, v064
	.byte	W12
	.byte			En5, v084
	.byte	W12
	.byte			Gs5, v092
	.byte	W12
	.byte			En5, v100
	.byte	W12
	.byte			Bn4, v064
	.byte	W12
	.byte			En5, v084
	.byte	W12
	.byte			Gs5, v092
	.byte	W12
	.byte			En5, v100
	.byte	W12
	.byte	PEND
song038_9_3:
	.byte		N03	, Bn4, v064
	.byte	W12
	.byte			En5, v084
	.byte	W12
	.byte			Gn5, v092
	.byte	W12
	.byte			En5, v100
	.byte	W12
	.byte			Bn4, v064
	.byte	W12
	.byte			En5, v084
	.byte	W12
	.byte			Gn5, v092
	.byte	W12
	.byte			En5, v100
	.byte	W12
	.byte	PEND
song038_9_4:
	.byte		N03	, An4, v064
	.byte	W12
	.byte			Cs5, v084
	.byte	W12
	.byte			Fs5, v092
	.byte	W12
	.byte			Cs5, v100
	.byte	W12
	.byte			An4, v064
	.byte	W12
	.byte			Cn5, v084
	.byte	W12
	.byte			Fn5, v092
	.byte	W12
	.byte			Cn5, v100
	.byte	W12
	.byte	PEND
	.byte	PATT	
		.word	song038_9_1
	.byte	PATT	
		.word	song038_9_2
	.byte	PATT	
		.word	song038_9_3
	.byte		N03	, An4, v064
	.byte	W12
	.byte			Cs5, v084
	.byte	W12
	.byte			Fs5, v092
	.byte	W12
	.byte			Cs5, v100
	.byte	W12
	.byte			An4, v064
	.byte	W12
	.byte			Cn5, v084
	.byte	W12
	.byte			Fn5, v092
	.byte	W12
	.byte			Cn5, v100
	.byte	W11
	.byte	VOL	, v035
	.byte	PAN	, c_v+40
	.byte	TUNE	, c_v+5
	.byte	W01
	.byte	PATT	
		.word	song038_9_1
	.byte	PATT	
		.word	song038_9_2
	.byte	PATT	
		.word	song038_9_3
	.byte	PATT	
		.word	song038_9_4
	.byte	PATT	
		.word	song038_9_1
	.byte	PATT	
		.word	song038_9_2
	.byte	PATT	
		.word	song038_9_3
	.byte	PATT	
		.word	song038_9_4
	.byte	MOD	, 127
	.byte	VOL	, v035
	.byte	PAN	, c_v
	.byte	LFOS	, 127
	.byte	VOL	, v039
	.byte	MOD	, 0
	.byte		N03	, Dn4, v056
	.byte	W06
	.byte			Fs4, v064
	.byte	W06
	.byte			An4, v076
	.byte	W06
	.byte			Dn5, v084
	.byte	W06
	.byte			Fs5, v056
	.byte	W06
	.byte			An5, v064
	.byte	W06
	.byte			Dn6, v076
	.byte	W06
	.byte			Fs6, v084
	.byte	W06
	.byte			Dn6, v056
	.byte	W06
	.byte			An5, v064
	.byte	W06
	.byte			Fs5, v076
	.byte	W06
	.byte			Dn5, v084
	.byte	W06
	.byte			An4, v056
	.byte	W06
	.byte			Fs4, v064
	.byte	W06
	.byte			Dn4, v076
	.byte	W06
	.byte			An3, v084
	.byte	W06
	.byte			Bn3, v056
	.byte	W06
	.byte			En4, v064
	.byte	W06
	.byte			Gn4, v076
	.byte	W06
	.byte			Bn4, v084
	.byte	W06
	.byte			En5, v056
	.byte	W06
	.byte			Gn5, v064
	.byte	W06
	.byte			Bn5, v076
	.byte	W06
	.byte			En6, v084
	.byte	W06
	.byte			Bn5, v056
	.byte	W06
	.byte			Gn5, v064
	.byte	W06
	.byte			En5, v076
	.byte	W06
	.byte			Bn4, v084
	.byte	W06
	.byte			Gn4, v056
	.byte	W06
	.byte			En4, v064
	.byte	W06
	.byte			Bn3, v076
	.byte	W06
	.byte			Gn3, v084
	.byte	W06
	.byte			Bn3, v056
	.byte	W06
	.byte			Dn4, v064
	.byte	W06
	.byte			Gn4, v076
	.byte	W06
	.byte			Bn4, v084
	.byte	W06
	.byte			Dn5, v056
	.byte	W06
	.byte			Gn5, v064
	.byte	W06
	.byte			Bn5, v076
	.byte	W06
	.byte			Dn6, v084
	.byte	W06
	.byte			Bn5, v056
	.byte	W06
	.byte			Gn5, v064
	.byte	W06
	.byte			Dn5, v076
	.byte	W06
	.byte			Bn4, v084
	.byte	W06
	.byte			Gn4, v056
	.byte	W06
	.byte			Dn4, v064
	.byte	W06
	.byte			Bn3, v076
	.byte	W06
	.byte			Gn3, v084
	.byte	W06
	.byte			An3, v056
	.byte	W06
	.byte			Gs3, v064
	.byte	W06
	.byte			An3, v076
	.byte	W06
	.byte			Bn3, v084
	.byte	W06
	.byte			Cs4, v056
	.byte	W06
	.byte			Bn3, v064
	.byte	W06
	.byte			Cs4, v076
	.byte	W06
	.byte			Dn4, v084
	.byte	W06
	.byte			En4, v056
	.byte	W06
	.byte			Ds4, v064
	.byte	W06
	.byte			En4, v076
	.byte	W06
	.byte			Fs4, v084
	.byte	W06
	.byte			Gn4, v056
	.byte	W06
	.byte			An4, v064
	.byte	W06
	.byte			Bn4, v076
	.byte	W06
	.byte			Cs5, v084
	.byte	W05
	.byte	VOL	, v035
	.byte	TUNE	, c_v+5
	.byte	W01
	.byte	W96
	.byte	W96
	.byte	W96
	.byte	W96
song038_9_5:
	.byte	VOL	, v039
	.byte	MOD	, 0
	.byte		N03	, Dn4, v056
	.byte	W06
	.byte			Dn5, v064
	.byte	W06
	.byte			Dn4, v076
	.byte	W06
	.byte			Dn5, v084
	.byte	W06
	.byte			Dn4, v056
	.byte	W06
	.byte			Dn5, v064
	.byte	W06
	.byte			Dn4, v076
	.byte	W06
	.byte			Dn5, v084
	.byte	W06
	.byte			Dn4, v056
	.byte	W06
	.byte			Dn5, v064
	.byte	W06
	.byte			Dn4, v076
	.byte	W06
	.byte			Dn5, v084
	.byte	W06
	.byte			An5, v056
	.byte	W06
	.byte			Dn5, v064
	.byte	W06
	.byte			An4, v076
	.byte	W06
	.byte			Dn4, v084
	.byte	W06
	.byte	PEND
song038_9_6:
	.byte		N03	, Gn4, v056
	.byte	W06
	.byte			Gn5, v064
	.byte	W06
	.byte			Gn4, v076
	.byte	W06
	.byte			Gn5, v084
	.byte	W06
	.byte			Gn4, v056
	.byte	W06
	.byte			Gn5, v064
	.byte	W06
	.byte			Gn4, v076
	.byte	W06
	.byte			Gn5, v084
	.byte	W06
	.byte			Gn4, v056
	.byte	W06
	.byte			Gn5, v064
	.byte	W06
	.byte			Gn4, v076
	.byte	W06
	.byte			Gn5, v084
	.byte	W06
	.byte			Dn6, v056
	.byte	W06
	.byte			Gn5, v064
	.byte	W06
	.byte			Dn5, v076
	.byte	W06
	.byte			Gn4, v084
	.byte	W06
	.byte	PEND
	.byte			En4, v056
	.byte	W06
	.byte			En5, v064
	.byte	W06
	.byte			En4, v076
	.byte	W06
	.byte			En5, v084
	.byte	W06
	.byte			En4, v056
	.byte	W06
	.byte			En5, v064
	.byte	W06
	.byte			En4, v076
	.byte	W06
	.byte			En5, v084
	.byte	W06
	.byte			En4, v056
	.byte	W06
	.byte			En5, v064
	.byte	W06
	.byte			En4, v076
	.byte	W06
	.byte			En5, v084
	.byte	W06
	.byte			Bn5, v056
	.byte	W06
	.byte			En5, v064
	.byte	W06
	.byte			Bn4, v076
	.byte	W06
	.byte			En4, v084
	.byte	W06
	.byte			An4, v056
	.byte	W06
	.byte			An5, v064
	.byte	W06
	.byte			An4, v076
	.byte	W06
	.byte			An5, v084
	.byte	W06
	.byte			An4, v056
	.byte	W06
	.byte			An5, v064
	.byte	W06
	.byte			An4, v076
	.byte	W06
	.byte			An5, v084
	.byte	W06
	.byte			An4, v056
	.byte	W06
	.byte			An5, v064
	.byte	W06
	.byte			An4, v076
	.byte	W06
	.byte			An5, v084
	.byte	W06
	.byte			En6, v056
	.byte	W06
	.byte			An5, v064
	.byte	W06
	.byte			En5, v076
	.byte	W06
	.byte			An4, v084
	.byte	W05
	.byte	VOL	, v035
	.byte	TUNE	, c_v+5
	.byte	W01
	.byte	PATT	
		.word	song038_9_5
	.byte	PATT	
		.word	song038_9_6
	.byte		N03	, En4, v056
	.byte	W06
	.byte			En5, v064
	.byte	W06
	.byte			En4, v076
	.byte	W06
	.byte			En5, v084
	.byte	W06
	.byte			Fs4, v056
	.byte	W06
	.byte			Fs5, v064
	.byte	W06
	.byte			Fs4, v076
	.byte	W06
	.byte			Fs5, v084
	.byte	W06
	.byte			Gn4, v056
	.byte	W06
	.byte			Gn5, v064
	.byte	W06
	.byte			Gn4, v076
	.byte	W06
	.byte			Gn5, v084
	.byte	W06
	.byte			An4, v056
	.byte	W06
	.byte			An5, v064
	.byte	W06
	.byte			An4, v076
	.byte	W06
	.byte			An5, v084
	.byte	W06
	.byte			As4, v056
	.byte	W06
	.byte			As5, v064
	.byte	W06
	.byte			As4, v076
	.byte	W06
	.byte			As5, v084
	.byte	W06
	.byte			As4, v056
	.byte	W06
	.byte			As5, v064
	.byte	W06
	.byte			As4, v076
	.byte	W06
	.byte			As5, v084
	.byte	W06
	.byte			As4, v056
	.byte	W06
	.byte			As5, v064
	.byte	W06
	.byte			As4, v076
	.byte	W06
	.byte			As5, v084
	.byte	W06
	.byte			Fn6, v056
	.byte	W06
	.byte			As5, v064
	.byte	W06
	.byte			Fn5, v076
	.byte	W06
	.byte			As4, v084
	.byte	W05
	.byte	VOL	, v035
	.byte	TUNE	, c_v+5
	.byte	W01
	.byte	W96
	.byte	GOTO	
		.word	song038_9_7
	.byte	FINE

	@********************** Track  10 **********************@

	.global song038_10
song038_10:	@ 0x082832BF
	.byte	KEYSH	, 0
song038_10_6:
	.byte	VOICE	, 5
	.byte	VOL	, v031
	.byte	TUNE	, c_v-10
	.byte	PAN	, c_v
	.byte	MOD	, 0
	.byte	W96
	.byte	W96
	.byte	W96
	.byte	W96
	.byte	W96
	.byte	W96
	.byte	W96
	.byte	W96
	.byte	W96
	.byte	W96
	.byte	W96
	.byte	W96
	.byte	W96
	.byte	W96
	.byte	W96
	.byte	W96
song038_10_1:
	.byte	W01
	.byte		N03	, An4, v064
	.byte	W12
	.byte			Cs5, v084
	.byte	W12
	.byte			Fs5, v092
	.byte	W12
	.byte			Cs5, v100
	.byte	W12
	.byte			An4, v064
	.byte	W12
	.byte			Cs5, v084
	.byte	W12
	.byte			Fs5, v092
	.byte	W12
	.byte			Cs5, v100
	.byte	W11
	.byte	PEND
song038_10_2:
	.byte	W01
	.byte		N03	, Bn4, v064
	.byte	W12
	.byte			En5, v084
	.byte	W12
	.byte			Gs5, v092
	.byte	W12
	.byte			En5, v100
	.byte	W12
	.byte			Bn4, v064
	.byte	W12
	.byte			En5, v084
	.byte	W12
	.byte			Gs5, v092
	.byte	W12
	.byte			En5, v100
	.byte	W11
	.byte	PEND
song038_10_3:
	.byte	W01
	.byte		N03	, Bn4, v064
	.byte	W12
	.byte			En5, v084
	.byte	W12
	.byte			Gn5, v092
	.byte	W12
	.byte			En5, v100
	.byte	W12
	.byte			Bn4, v064
	.byte	W12
	.byte			En5, v084
	.byte	W12
	.byte			Gn5, v092
	.byte	W12
	.byte			En5, v100
	.byte	W11
	.byte	PEND
song038_10_4:
	.byte	W01
	.byte		N03	, An4, v064
	.byte	W12
	.byte			Cs5, v084
	.byte	W12
	.byte			Fs5, v092
	.byte	W12
	.byte			Cs5, v100
	.byte	W12
	.byte			An4, v064
	.byte	W12
	.byte			Cn5, v084
	.byte	W12
	.byte			Fn5, v092
	.byte	W12
	.byte			Cn5, v100
	.byte	W11
	.byte	PEND
	.byte	PATT	
		.word	song038_10_1
	.byte	PATT	
		.word	song038_10_2
	.byte	PATT	
		.word	song038_10_3
	.byte	PATT	
		.word	song038_10_4
	.byte	VOICE	, 5
	.byte	VOL	, v031
	.byte	TUNE	, c_v-10
	.byte	PAN	, c_v
	.byte	W01
	.byte	MOD	, 127
	.byte	VOL	, v035
	.byte	PAN	, c_v
	.byte	LFOS	, 127
	.byte	W92
	.byte	W03
	.byte	W96
	.byte	W96
	.byte	W96
	.byte	VOL	, v039
	.byte	MOD	, 0
	.byte		N03	, Dn4, v056
	.byte	W06
	.byte			Fs4, v064
	.byte	W06
	.byte			An4, v076
	.byte	W06
	.byte			Dn5, v084
	.byte	W06
	.byte			Fs5, v056
	.byte	W06
	.byte			An5, v064
	.byte	W06
	.byte			Dn6, v076
	.byte	W06
	.byte			Fs6, v084
	.byte	W06
	.byte			Dn6, v056
	.byte	W06
	.byte			An5, v064
	.byte	W06
	.byte			Fs5, v076
	.byte	W06
	.byte			Dn5, v084
	.byte	W06
	.byte			An4, v056
	.byte	W06
	.byte			Fs4, v064
	.byte	W06
	.byte			Dn4, v076
	.byte	W06
	.byte			An3, v084
	.byte	W06
	.byte			Bn3, v056
	.byte	W06
	.byte			En4, v064
	.byte	W06
	.byte			Gn4, v076
	.byte	W06
	.byte			Bn4, v084
	.byte	W06
	.byte			En5, v056
	.byte	W06
	.byte			Gn5, v064
	.byte	W06
	.byte			Bn5, v076
	.byte	W06
	.byte			En6, v084
	.byte	W06
	.byte			Bn5, v056
	.byte	W06
	.byte			Gn5, v064
	.byte	W06
	.byte			En5, v076
	.byte	W06
	.byte			Bn4, v084
	.byte	W06
	.byte			Gn4, v056
	.byte	W06
	.byte			En4, v064
	.byte	W06
	.byte			Bn3, v076
	.byte	W06
	.byte			Gn3, v084
	.byte	W06
	.byte			Bn3, v056
	.byte	W06
	.byte			Dn4, v064
	.byte	W06
	.byte			Gn4, v076
	.byte	W06
	.byte			Bn4, v084
	.byte	W06
	.byte			Dn5, v056
	.byte	W06
	.byte			Gn5, v064
	.byte	W06
	.byte			Bn5, v076
	.byte	W06
	.byte			Dn6, v084
	.byte	W06
	.byte			Bn5, v056
	.byte	W06
	.byte			Gn5, v064
	.byte	W06
	.byte			Dn5, v076
	.byte	W06
	.byte			Bn4, v084
	.byte	W06
	.byte			Gn4, v056
	.byte	W06
	.byte			Dn4, v064
	.byte	W06
	.byte			Bn3, v076
	.byte	W06
	.byte			Gn3, v084
	.byte	W06
	.byte			An3, v056
	.byte	W06
	.byte			Gs3, v064
	.byte	W06
	.byte			An3, v076
	.byte	W06
	.byte			Bn3, v084
	.byte	W06
	.byte			Cs4, v056
	.byte	W06
	.byte			Bn3, v064
	.byte	W06
	.byte			Cs4, v076
	.byte	W06
	.byte			Dn4, v084
	.byte	W06
	.byte			En4, v056
	.byte	W06
	.byte			Ds4, v064
	.byte	W06
	.byte			En4, v076
	.byte	W06
	.byte			Fs4, v084
	.byte	W06
	.byte			Gn4, v056
	.byte	W06
	.byte			An4, v064
	.byte	W06
	.byte			Bn4, v076
	.byte	W06
	.byte			Cs5, v084
	.byte	W05
	.byte	VOL	, v035
	.byte	TUNE	, c_v+5
	.byte	W01
	.byte	VOL	, v039
	.byte		N03	, Dn4, v056
	.byte	W01
	.byte	MOD	, 0
	.byte	W05
	.byte		N03	, Dn5, v064
	.byte	W06
	.byte			Dn4, v076
	.byte	W06
	.byte			Dn5, v084
	.byte	W06
	.byte			Dn4, v056
	.byte	W06
	.byte			Dn5, v064
	.byte	W06
	.byte			Dn4, v076
	.byte	W06
	.byte			Dn5, v084
	.byte	W06
	.byte			Dn4, v056
	.byte	W06
	.byte			Dn5, v064
	.byte	W06
	.byte			Dn4, v076
	.byte	W06
	.byte			Dn5, v084
	.byte	W06
	.byte			An5, v056
	.byte	W06
	.byte			Dn5, v064
	.byte	W06
	.byte			An4, v076
	.byte	W06
	.byte			Dn4, v084
	.byte	W06
song038_10_5:
	.byte		N03	, Gn4, v056
	.byte	W06
	.byte			Gn5, v064
	.byte	W06
	.byte			Gn4, v076
	.byte	W06
	.byte			Gn5, v084
	.byte	W06
	.byte			Gn4, v056
	.byte	W06
	.byte			Gn5, v064
	.byte	W06
	.byte			Gn4, v076
	.byte	W06
	.byte			Gn5, v084
	.byte	W06
	.byte			Gn4, v056
	.byte	W06
	.byte			Gn5, v064
	.byte	W06
	.byte			Gn4, v076
	.byte	W06
	.byte			Gn5, v084
	.byte	W06
	.byte			Dn6, v056
	.byte	W06
	.byte			Gn5, v064
	.byte	W06
	.byte			Dn5, v076
	.byte	W06
	.byte			Gn4, v084
	.byte	W06
	.byte	PEND
	.byte			En4, v056
	.byte	W06
	.byte			En5, v064
	.byte	W06
	.byte			En4, v076
	.byte	W06
	.byte			En5, v084
	.byte	W06
	.byte			En4, v056
	.byte	W06
	.byte			En5, v064
	.byte	W06
	.byte			En4, v076
	.byte	W06
	.byte			En5, v084
	.byte	W06
	.byte			En4, v056
	.byte	W06
	.byte			En5, v064
	.byte	W06
	.byte			En4, v076
	.byte	W06
	.byte			En5, v084
	.byte	W06
	.byte			Bn5, v056
	.byte	W06
	.byte			En5, v064
	.byte	W06
	.byte			Bn4, v076
	.byte	W06
	.byte			En4, v084
	.byte	W06
	.byte			An4, v056
	.byte	W06
	.byte			An5, v064
	.byte	W06
	.byte			An4, v076
	.byte	W06
	.byte			An5, v084
	.byte	W06
	.byte			An4, v056
	.byte	W06
	.byte			An5, v064
	.byte	W06
	.byte			An4, v076
	.byte	W06
	.byte			An5, v084
	.byte	W06
	.byte			An4, v056
	.byte	W06
	.byte			An5, v064
	.byte	W06
	.byte			An4, v076
	.byte	W06
	.byte			An5, v084
	.byte	W06
	.byte			En6, v056
	.byte	W06
	.byte			An5, v064
	.byte	W06
	.byte			En5, v076
	.byte	W06
	.byte			An4, v084
	.byte	W06
	.byte	VOL	, v035
	.byte	TUNE	, c_v+5
	.byte	VOL	, v039
	.byte		N03	, Dn4, v056
	.byte	W01
	.byte	MOD	, 0
	.byte	W05
	.byte		N03	, Dn5, v064
	.byte	W06
	.byte			Dn4, v076
	.byte	W06
	.byte			Dn5, v084
	.byte	W06
	.byte			Dn4, v056
	.byte	W06
	.byte			Dn5, v064
	.byte	W06
	.byte			Dn4, v076
	.byte	W06
	.byte			Dn5, v084
	.byte	W06
	.byte			Dn4, v056
	.byte	W06
	.byte			Dn5, v064
	.byte	W06
	.byte			Dn4, v076
	.byte	W06
	.byte			Dn5, v084
	.byte	W06
	.byte			An5, v056
	.byte	W06
	.byte			Dn5, v064
	.byte	W06
	.byte			An4, v076
	.byte	W06
	.byte			Dn4, v084
	.byte	W06
	.byte	PATT	
		.word	song038_10_5
	.byte		N03	, En4, v056
	.byte	W06
	.byte			En5, v064
	.byte	W06
	.byte			En4, v076
	.byte	W06
	.byte			En5, v084
	.byte	W06
	.byte			Fs4, v056
	.byte	W06
	.byte			Fs5, v064
	.byte	W06
	.byte			Fs4, v076
	.byte	W06
	.byte			Fs5, v084
	.byte	W06
	.byte			Gn4, v056
	.byte	W06
	.byte			Gn5, v064
	.byte	W06
	.byte			Gn4, v076
	.byte	W06
	.byte			Gn5, v084
	.byte	W06
	.byte			An4, v056
	.byte	W06
	.byte			An5, v064
	.byte	W06
	.byte			An4, v076
	.byte	W06
	.byte			An5, v084
	.byte	W06
	.byte			As4, v056
	.byte	W06
	.byte			As5, v064
	.byte	W06
	.byte			As4, v076
	.byte	W06
	.byte			As5, v084
	.byte	W06
	.byte			As4, v056
	.byte	W06
	.byte			As5, v064
	.byte	W06
	.byte			As4, v076
	.byte	W06
	.byte			As5, v084
	.byte	W06
	.byte			As4, v056
	.byte	W06
	.byte			As5, v064
	.byte	W06
	.byte			As4, v076
	.byte	W06
	.byte			As5, v084
	.byte	W06
	.byte			Fn6, v056
	.byte	W06
	.byte			As5, v064
	.byte	W06
	.byte			Fn5, v076
	.byte	W06
	.byte			As4, v084
	.byte	W06
	.byte	VOL	, v035
	.byte	TUNE	, c_v+5
	.byte	W96
	.byte	GOTO	
		.word	song038_10_6
	.byte	FINE

	@********************** Track  11 **********************@

	.global song038_11
song038_11:	@ 0x082835B0
	.byte	KEYSH	, 0
song038_11_3:
	.byte	VOICE	, 89
	.byte	VOL	, v039
	.byte	W96
	.byte	W96
	.byte	W96
	.byte	W96
	.byte	W96
	.byte	W96
	.byte	W96
	.byte	W96
song038_11_1:
	.byte		N03	, Cn5, v084
	.byte	W30
	.byte			Cn5, v056
	.byte	W06
	.byte			Cn5, v084
	.byte	W06
	.byte			Cn5, v056
	.byte	W06
	.byte			Cn5, v084
	.byte	W24
	.byte		N03	
	.byte	W06
	.byte			Cn5, v056
	.byte	W06
	.byte			Cn5, v084
	.byte	W06
	.byte			Cn5, v056
	.byte	W06
	.byte	PEND
song038_11_2:
	.byte		N03	, Cn5, v084
	.byte	W30
	.byte			Cn5, v056
	.byte	W06
	.byte			Cn5, v084
	.byte	W06
	.byte			Cn5, v056
	.byte	W06
	.byte			Cn5, v084
	.byte	W12
	.byte		N03	
	.byte	W06
	.byte			Cn5, v056
	.byte	W06
	.byte			Cn5, v084
	.byte	W06
	.byte			Cn5, v056
	.byte	W06
	.byte			Cn5, v084
	.byte	W06
	.byte		N03	
	.byte	W06
	.byte	PEND
	.byte	PATT	
		.word	song038_11_1
	.byte	PATT	
		.word	song038_11_2
	.byte	PATT	
		.word	song038_11_1
	.byte	PATT	
		.word	song038_11_2
	.byte	PATT	
		.word	song038_11_1
	.byte	PATT	
		.word	song038_11_2
	.byte	PATT	
		.word	song038_11_1
	.byte	PATT	
		.word	song038_11_2
	.byte	PATT	
		.word	song038_11_1
	.byte	PATT	
		.word	song038_11_2
	.byte	PATT	
		.word	song038_11_1
	.byte	PATT	
		.word	song038_11_2
	.byte	PATT	
		.word	song038_11_1
	.byte	PATT	
		.word	song038_11_2
	.byte	PATT	
		.word	song038_11_1
	.byte	PATT	
		.word	song038_11_2
	.byte	PATT	
		.word	song038_11_1
	.byte	PATT	
		.word	song038_11_2
	.byte	PATT	
		.word	song038_11_1
	.byte	PATT	
		.word	song038_11_2
	.byte	PATT	
		.word	song038_11_1
	.byte	PATT	
		.word	song038_11_2
	.byte	PATT	
		.word	song038_11_1
	.byte	PATT	
		.word	song038_11_2
	.byte	PATT	
		.word	song038_11_1
	.byte	PATT	
		.word	song038_11_2
	.byte	PATT	
		.word	song038_11_1
	.byte	PATT	
		.word	song038_11_2
	.byte		N03	, Cn5, v084
	.byte	W30
	.byte			Cn5, v056
	.byte	W06
	.byte			Cn5, v084
	.byte	W06
	.byte			Cn5, v056
	.byte	W06
	.byte			Cn5, v084
	.byte	W24
	.byte		N03	
	.byte	W06
	.byte			Cn5, v056
	.byte	W18
	.byte	W12
	.byte			Cn5, v084
	.byte	W24
	.byte		N03	
	.byte	W24
	.byte		N03	
	.byte	W06
	.byte			Cn5, v056
	.byte	W06
	.byte			Cn5, v084
	.byte	W06
	.byte			Cn5, v056
	.byte	W06
	.byte			Cn5, v084
	.byte	W06
	.byte		N03	
	.byte	W06
	.byte	W96
	.byte	GOTO	
		.word	song038_11_3
	.byte	FINE

	@********************** Track  12 **********************@

	.global song038_12
song038_12:	@ 0x082836B9
	.byte	KEYSH	, 0
song038_12_3:
	.byte	VOICE	, 91
	.byte	VOL	, v039
	.byte	W96
	.byte	W96
	.byte	W96
	.byte	W96
	.byte	W96
	.byte	W96
	.byte	W96
	.byte	W96
song038_12_1:
	.byte	W12
	.byte		N18	, Cn6, v084
	.byte	W48
	.byte		N12	
	.byte	W36
	.byte	PEND
song038_12_2:
	.byte	W12
	.byte		N18	, Cn6, v084
	.byte	W42
	.byte		N06	
	.byte	W42
	.byte	PEND
	.byte	PATT	
		.word	song038_12_1
	.byte	PATT	
		.word	song038_12_2
	.byte	PATT	
		.word	song038_12_1
	.byte	PATT	
		.word	song038_12_2
	.byte	PATT	
		.word	song038_12_1
	.byte	PATT	
		.word	song038_12_2
	.byte	PATT	
		.word	song038_12_1
	.byte	PATT	
		.word	song038_12_2
	.byte	PATT	
		.word	song038_12_1
	.byte	PATT	
		.word	song038_12_2
	.byte	PATT	
		.word	song038_12_1
	.byte	PATT	
		.word	song038_12_2
	.byte	PATT	
		.word	song038_12_1
	.byte	PATT	
		.word	song038_12_2
	.byte	PATT	
		.word	song038_12_1
	.byte	PATT	
		.word	song038_12_2
	.byte	PATT	
		.word	song038_12_1
	.byte	PATT	
		.word	song038_12_2
	.byte	PATT	
		.word	song038_12_1
	.byte	PATT	
		.word	song038_12_2
	.byte	PATT	
		.word	song038_12_1
	.byte	PATT	
		.word	song038_12_2
	.byte	PATT	
		.word	song038_12_1
	.byte	PATT	
		.word	song038_12_2
	.byte	PATT	
		.word	song038_12_1
	.byte	PATT	
		.word	song038_12_2
	.byte	PATT	
		.word	song038_12_1
	.byte	PATT	
		.word	song038_12_2
	.byte	W12
	.byte		N18	, Cn6, v084
	.byte	W48
	.byte		N12	
	.byte	W24
	.byte		N24	
	.byte	W12
	.byte	W96
	.byte	W96
	.byte	GOTO	
		.word	song038_12_3
	.byte	FINE

	.align 2
	.global song038
song038:	@ 0x08283774
	.byte	12		@ trackCount
	.byte	0		@ blockCount
	.byte	20		@ priority
	.byte	128		@ reverb

	.word	voicegroup018		@ voicegroup/tone

	.word	song038_1		@ track
	.word	song038_2		@ track
	.word	song038_3		@ track
	.word	song038_4		@ track
	.word	song038_5		@ track
	.word	song038_6		@ track
	.word	song038_7		@ track
	.word	song038_8		@ track
	.word	song038_9		@ track
	.word	song038_10		@ track
	.word	song038_11		@ track
	.word	song038_12		@ track
