	.include "MPlayDef.s"

	.section .rodata

	@********************** Track  1 **********************@

	.align 2
	.global song037_1
song037_1:	@ 0x08280A4C
	.byte	KEYSH	, 0
song037_1_6:
	.byte	TEMPO	, 87
	.byte	VOICE	, 127
	.byte	VOL	, v105
	.byte	W96
	.byte	W96
	.byte	W96
	.byte	W96
song037_1_1:
	.byte		N06	, Cn4, v127
	.byte	W24
	.byte		N06	
	.byte	W24
	.byte		N06	
	.byte	W24
	.byte		N06	
	.byte	W24
	.byte	PEND
	.byte	PATT	
		.word	song037_1_1
	.byte	PATT	
		.word	song037_1_1
	.byte	W48
	.byte		N06	, Cn4, v127
	.byte	W12
	.byte			Cn4, v076
	.byte	W12
	.byte			Cn4, v104
	.byte	W12
	.byte			Cn4, v127
	.byte	W12
	.byte	PATT	
		.word	song037_1_1
song037_1_2:
	.byte		N06	, Cn4, v127
	.byte	W24
	.byte		N06	
	.byte	W24
	.byte		N06	
	.byte	W18
	.byte			Cn4, v064
	.byte	W06
	.byte			Cn4, v127
	.byte	W24
	.byte	PEND
	.byte	PATT	
		.word	song037_1_1
song037_1_3:
	.byte		N06	, Cn4, v127
	.byte	W24
	.byte		N06	
	.byte	W24
	.byte		N06	
	.byte	W18
	.byte			Cn4, v064
	.byte	W06
	.byte			Cn4, v127
	.byte	W12
	.byte		N06	
	.byte	W12
	.byte	PEND
	.byte	PATT	
		.word	song037_1_1
	.byte	PATT	
		.word	song037_1_2
	.byte	PATT	
		.word	song037_1_1
	.byte		N06	, Cn4, v127
	.byte	W24
	.byte		N06	
	.byte	W24
	.byte		N06	
	.byte	W12
	.byte		N05	
	.byte	W06
	.byte			Cn4, v064
	.byte	W06
	.byte		N06	, Cn4, v127
	.byte	W12
	.byte		N06	
	.byte	W12
	.byte	PATT	
		.word	song037_1_1
	.byte	PATT	
		.word	song037_1_2
	.byte	PATT	
		.word	song037_1_1
	.byte	PATT	
		.word	song037_1_3
	.byte	PATT	
		.word	song037_1_1
	.byte	PATT	
		.word	song037_1_2
	.byte	PATT	
		.word	song037_1_1
	.byte		N06	, Cn4, v127
	.byte	W24
	.byte		N06	
	.byte	W24
	.byte		N06	
	.byte	W18
	.byte			Cn4, v064
	.byte	W06
	.byte			Cn4, v127
	.byte	W12
	.byte		N06	
	.byte	W11
	.byte		N23	, Cn6, v036
	.byte	W01
	.byte		N06	, Cn4, v127
	.byte	W24
	.byte		N21	, Dn5, v088
	.byte	W12
	.byte		N06	, Cn4, v127
	.byte	W11
	.byte		N23	, Cn6, v036
	.byte	W13
	.byte		N06	, Dn5, v080
	.byte	W12
	.byte			Cn4, v127
	.byte	W12
	.byte			Cn4, v064
	.byte		N16	, Dn5, v084
	.byte	W11
	.byte		N23	, Cn6, v036
	.byte	W01
	.byte		N06	, Cn4, v127
	.byte	W24
	.byte		N06	
	.byte		N21	, Dn5, v088
	.byte	W23
	.byte		N23	, Cn6, v036
	.byte	W01
	.byte		N06	, Cn4, v127
	.byte	W12
	.byte			Dn5, v080
	.byte	W12
	.byte			Cn4, v127
	.byte	W12
	.byte			Cn4, v064
	.byte		N16	, Dn5, v084
	.byte	W11
	.byte		N23	, Cn6, v036
	.byte	W01
	.byte		N06	, Cn4, v127
	.byte	W24
	.byte		N22	, Dn5, v088
	.byte	W12
	.byte		N06	, Cn4, v127
	.byte	W11
	.byte		N23	, Cn6, v036
	.byte	W13
	.byte		N09	, Dn5, v072
	.byte	W12
	.byte		N06	, Cn4, v127
	.byte	W12
	.byte			Cn4, v064
	.byte		N18	, Dn5, v088
	.byte	W11
	.byte		N23	, Cn6, v036
	.byte	W01
	.byte		N06	, Cn4, v127
	.byte	W12
	.byte		N07	, Dn5, v068
	.byte	W12
	.byte		N06	, Cn4, v127
	.byte	W12
	.byte		N05	, Dn5, v076
	.byte	W11
	.byte		N23	, Cn6, v036
	.byte	W01
	.byte		N06	, Cn4, v127
	.byte	W12
	.byte			Cn4, v064
	.byte		N09	, Dn5, v076
	.byte	W12
	.byte		N06	, Cn4, v127
	.byte		N15	, Dn5, v088
	.byte	W12
	.byte		N06	, Cn4, v127
	.byte	W11
	.byte		N23	, Cn6, v056
	.byte	W01
	.byte		N06	, Cn4, v127
	.byte	W23
	.byte		N23	, Cn6, v036
	.byte	W01
	.byte		N21	, Dn5, v088
	.byte	W12
	.byte		N06	, Cn4, v127
	.byte	W11
	.byte		N23	, Cn6, v056
	.byte	W13
	.byte		N06	, Dn5, v080
	.byte	W11
	.byte		N23	, Cn6, v036
	.byte	W01
	.byte		N06	, Cn4, v127
	.byte	W12
	.byte			Cn4, v064
	.byte		N16	, Dn5, v084
	.byte	W11
	.byte		N23	, Cn6, v056
	.byte	W01
	.byte		N06	, Cn4, v127
	.byte	W12
	.byte		N07	, Dn5, v064
	.byte	W11
	.byte		N23	, Cn6, v036
	.byte	W01
	.byte		N06	, Cn4, v127
	.byte	W12
	.byte		N15	, Dn5, v088
	.byte	W11
	.byte		N23	, Cn6, v056
	.byte	W01
	.byte		N06	, Cn4, v127
	.byte	W12
	.byte			Dn5, v068
	.byte	W11
	.byte		N23	, Cn6, v036
	.byte	W01
	.byte		N06	, Cn4, v127
	.byte	W12
	.byte			Cn4, v064
	.byte		N12	, Dn5, v084
	.byte	W11
	.byte		N23	, Cn6, v056
	.byte	W01
	.byte		N06	, Cn4, v127
	.byte	W23
	.byte		N23	, Cn6, v036
	.byte	W01
	.byte		N22	, Dn5, v088
	.byte	W12
	.byte		N06	, Cn4, v127
	.byte	W11
	.byte		N23	, Cn6, v056
	.byte	W13
	.byte		N09	, Dn5, v072
	.byte	W11
	.byte		N23	, Cn6, v036
	.byte	W01
	.byte		N06	, Cn4, v127
	.byte	W12
	.byte			Cn4, v064
	.byte		N16	, Dn5, v088
	.byte	W11
	.byte		N23	, Cn6, v056
	.byte	W01
	.byte		N06	, Cn4, v127
	.byte	W12
	.byte		N07	, Dn5, v068
	.byte	W11
	.byte		N23	, Cn6, v036
	.byte	W01
	.byte		N06	, Cn4, v127
	.byte	W12
	.byte		N05	, Dn5, v076
	.byte	W11
	.byte		N23	, Cn6, v056
	.byte	W01
	.byte		N06	, Cn4, v127
	.byte		N13	, Dn5, v076
	.byte	W23
	.byte		N23	, Cn6, v036
	.byte	W01
	.byte		N06	, Cn4, v127
	.byte		N12	, Dn5, v088
	.byte	W12
	.byte		N06	, Cn4, v064
	.byte		N18	, Dn5, v088
	.byte	W12
	.byte	PATT	
		.word	song037_1_1
	.byte	PATT	
		.word	song037_1_2
	.byte	PATT	
		.word	song037_1_1
	.byte	PATT	
		.word	song037_1_3
	.byte	PATT	
		.word	song037_1_1
	.byte	PATT	
		.word	song037_1_2
	.byte	PATT	
		.word	song037_1_1
	.byte		N06	, Cn4, v127
	.byte	W24
	.byte		N06	
	.byte	W24
	.byte		N06	
	.byte	W12
	.byte		N05	
	.byte	W06
	.byte			Cn4, v064
	.byte	W06
	.byte		N06	, Cn4, v127
	.byte	W12
	.byte		N05	
	.byte	W06
	.byte			Cn4, v064
	.byte	W05
	.byte		N23	, Cn6, v044
	.byte	W01
song037_1_4:
	.byte		N06	, Cn4, v127
	.byte	W23
	.byte		N23	, Cn6, v044
	.byte	W01
	.byte		N06	, Cn4, v127
	.byte	W23
	.byte		N23	, Cn6, v044
	.byte	W01
	.byte		N06	, Cn4, v127
	.byte	W23
	.byte		N23	, Cn6, v044
	.byte	W01
	.byte		N06	, Cn4, v127
	.byte	W23
	.byte		N23	, Cn6, v044
	.byte	W01
	.byte	PEND
song037_1_5:
	.byte		N06	, Cn4, v127
	.byte	W23
	.byte		N23	, Cn6, v044
	.byte	W01
	.byte		N06	, Cn4, v127
	.byte	W23
	.byte		N23	, Cn6, v044
	.byte	W01
	.byte		N06	, Cn4, v127
	.byte	W18
	.byte			Cn4, v064
	.byte	W05
	.byte		N23	, Cn6, v044
	.byte	W01
	.byte		N06	, Cn4, v127
	.byte	W23
	.byte		N23	, Cn6, v044
	.byte	W01
	.byte	PEND
	.byte	PATT	
		.word	song037_1_4
	.byte		N06	, Cn4, v127
	.byte	W23
	.byte		N23	, Cn6, v044
	.byte	W01
	.byte		N06	, Cn4, v127
	.byte	W23
	.byte		N23	, Cn6, v044
	.byte	W01
	.byte		N06	, Cn4, v127
	.byte	W18
	.byte			Cn4, v064
	.byte	W05
	.byte		N23	, Cn6, v044
	.byte	W01
	.byte		N06	, Cn4, v127
	.byte	W12
	.byte		N06	
	.byte	W11
	.byte		N23	, Cn6, v044
	.byte	W01
	.byte	PATT	
		.word	song037_1_4
	.byte	PATT	
		.word	song037_1_5
	.byte		N06	, Cn4, v127
	.byte	W23
	.byte		N23	, Cn6, v044
	.byte	W01
	.byte		N06	, Cn4, v127
	.byte	W23
	.byte		N23	, Cn6, v044
	.byte	W01
	.byte		N06	, Cn4, v127
	.byte	W23
	.byte		N23	, Cn6, v044
	.byte	W01
	.byte		N06	, Cn4, v127
	.byte	W12
	.byte		N06	
	.byte	W12
	.byte	W44
	.byte	W03
	.byte		N23	, Cn6, v064
	.byte	W01
	.byte		N06	, Cn4, v127
	.byte	W12
	.byte		N05	
	.byte	W06
	.byte			Cn4, v064
	.byte	W05
	.byte		N23	, Cn6
	.byte	W01
	.byte		N06	, Cn4, v127
	.byte	W12
	.byte		N05	
	.byte	W06
	.byte			Cn4, v064
	.byte	W06
	.byte	GOTO	
		.word	song037_1_6
	.byte	FINE

	@********************** Track  2 **********************@

	.global song037_2
song037_2:	@ 0x08280D3A
	.byte	KEYSH	, 0
song037_2_5:
	.byte	VOICE	, 1
	.byte	VOL	, v085
	.byte	BENDR	, 12
	.byte	W80
	.byte	W03
	.byte	VOICE	, 2
	.byte	W13
song037_2_1:
	.byte	W44
	.byte	W03
	.byte	VOICE	, 1
	.byte	W48
	.byte	W01
	.byte	PEND
	.byte	W96
	.byte	W23
	.byte		2
	.byte	W72
	.byte	W01
	.byte		1
	.byte	W80
	.byte	W03
	.byte		2
	.byte	W13
	.byte	PATT	
		.word	song037_2_1
	.byte	W96
	.byte	W11
	.byte	VOICE	, 2
	.byte	W48
	.byte		1
	.byte	W36
	.byte	W01
	.byte	W96
	.byte	W96
	.byte	W96
	.byte	W96
	.byte	W96
	.byte	W96
	.byte	W96
	.byte	W92
	.byte	W03
	.byte	VOL	, v080
	.byte	W01
song037_2_2:
	.byte		N80	, En3, v092
	.byte	W84
	.byte		TIE	, Fs3, v096
	.byte	W12
	.byte	PEND
	.byte	W90
	.byte		EOT	
	.byte	W06
	.byte		N78	, Fn3, v092
	.byte	W84
	.byte		N44	, En3, v096
	.byte	W12
	.byte	W36
	.byte		N48	, Ds3
	.byte	W60
	.byte	PATT	
		.word	song037_2_2
	.byte	W90
	.byte		EOT	, Fs3
	.byte	W06
	.byte		N78	, Fn3, v092
	.byte	W84
	.byte		N44	, An3, v096
	.byte	W12
	.byte	W36
	.byte		N32	, Gs3
	.byte	W36
	.byte		N21	, Gn3
	.byte	W23
	.byte	VOICE	, 2
	.byte	W01
song037_2_3:
	.byte		N18	, An3, v116
	.byte	W36
	.byte			Gn3, v112
	.byte	W32
	.byte	W03
	.byte	VOICE	, 1
	.byte	W01
	.byte		N11	, Fn3
	.byte	W12
	.byte		N44	, En3, v104
	.byte	W12
	.byte	PEND
	.byte	W36
	.byte		N56	, Ds3
	.byte	W56
	.byte	W03
	.byte	VOICE	, 2
	.byte	W01
	.byte	PATT	
		.word	song037_2_3
	.byte	W36
	.byte		N56	, Ds3, v104
	.byte	W56
	.byte	W03
	.byte	VOICE	, 1
	.byte	W01
song037_2_4:
	.byte		N11	, An3, v116
	.byte	W11
	.byte	VOICE	, 2
	.byte	W01
	.byte		N12	, An4, v124
	.byte	W23
	.byte	VOICE	, 1
	.byte	W01
	.byte		N11	, Gn3, v112
	.byte	W11
	.byte	VOICE	, 2
	.byte	W01
	.byte		N12	, Gn4, v120
	.byte	W23
	.byte	VOICE	, 1
	.byte	W01
	.byte		N11	, Fn4, v112
	.byte	W12
	.byte		N44	, En4, v104
	.byte	W12
	.byte	PEND
	.byte	W36
	.byte		N56	, Ds4
	.byte	W56
	.byte	W03
	.byte	VOICE	, 1
	.byte	W01
	.byte	PATT	
		.word	song037_2_4
	.byte	W36
	.byte		N56	, Ds4, v104
	.byte	W60
	.byte	VOICE	, 1
	.byte	VOL	, v090
	.byte	W96
	.byte	W96
	.byte	W96
	.byte	W96
	.byte	W96
	.byte	W96
	.byte	W96
	.byte	W96
	.byte	W96
	.byte	W96
	.byte	W96
	.byte	W96
	.byte	W96
	.byte	W96
	.byte	W96
	.byte	W96
	.byte	GOTO	
		.word	song037_2_5
	.byte	FINE

	@********************** Track  3 **********************@

	.global song037_3
song037_3:	@ 0x08280E1E
	.byte	KEYSH	, 0
song037_3_6:
	.byte	VOICE	, 45
	.byte	VOL	, v082
	.byte	BEND	, c_v
	.byte		N23	, An2, v096
	.byte	W23
	.byte		N11	, En3, v112
	.byte	W12
	.byte		N23	, Dn3, v100
	.byte	W24
	.byte			An3, v116
	.byte	W24
	.byte		N36	, En3, v104
	.byte	W13
song037_3_1:
	.byte	W44
	.byte	W03
	.byte		N11	, Gn3, v108
	.byte	W12
	.byte			An3, v116
	.byte	W12
	.byte			Bn3, v120
	.byte	W12
	.byte		N36	, Dn4, v127
	.byte	W13
	.byte	PEND
	.byte	W23
	.byte		N11	, Cn4, v120
	.byte	W12
	.byte		N23	, Bn3, v116
	.byte	W24
	.byte			Gn3, v120
	.byte	W24
	.byte		N36	, As3, v116
	.byte	W13
	.byte	W23
	.byte		N06	, An3
	.byte	W24
	.byte			Gn3
	.byte	W24
	.byte			Fn3
	.byte	W24
	.byte	W01
	.byte		N23	, An2, v096
	.byte	W23
	.byte		N11	, En3, v112
	.byte	W12
	.byte		N23	, Dn3, v100
	.byte	W24
	.byte			An3, v116
	.byte	W24
	.byte		N36	, En3, v104
	.byte	W13
	.byte	PATT	
		.word	song037_3_1
	.byte	W23
	.byte		N11	, Cn4, v120
	.byte	W12
	.byte		N23	, Bn3, v116
	.byte	W24
	.byte			Gn3, v120
	.byte	W24
	.byte		N24	, As3, v116
	.byte	W13
	.byte	W11
	.byte		N06	, Fn4
	.byte	W24
	.byte		N06	
	.byte	W24
	.byte		N06	
	.byte	W12
	.byte		N12	, Gn4, v124
	.byte	W12
	.byte		N06	, Fn4, v116
	.byte	W13
	.byte	W96
	.byte	W96
	.byte	W96
	.byte	W96
	.byte	W96
	.byte	W96
	.byte	W96
	.byte	W96
	.byte	W96
	.byte	W96
	.byte	W96
	.byte	W96
	.byte	W96
	.byte	W96
	.byte	W96
	.byte	W96
	.byte	W96
	.byte	W96
	.byte	W96
	.byte	W96
	.byte	W96
	.byte	W96
	.byte	W96
	.byte	W92
	.byte	W03
	.byte	VOL	, v099
	.byte	W01
song037_3_2:
	.byte		N23	, An2, v096
	.byte	W23
	.byte		N11	, En3, v112
	.byte	W12
	.byte		N23	, Dn3, v100
	.byte	W24
	.byte			An3, v116
	.byte	W24
	.byte		N56	, En3, v104
	.byte	W13
	.byte	PEND
song037_3_3:
	.byte	W44
	.byte	W03
	.byte		N11	, En3, v108
	.byte	W12
	.byte			En3, v116
	.byte	W12
	.byte			Fs3, v120
	.byte	W12
	.byte		N32	, Gn3, v127
	.byte	W13
	.byte	PEND
song037_3_4:
	.byte	W23
	.byte		N11	, Fs3, v120
	.byte	W12
	.byte		N23	, En3, v116
	.byte	W24
	.byte			Dn3, v108
	.byte	W24
	.byte		N44	, As3, v116
	.byte	W13
	.byte	PEND
song037_3_5:
	.byte	W32
	.byte	W03
	.byte		N32	, An3, v112
	.byte	W36
	.byte		N18	, Gn3
	.byte	W24
	.byte	W01
	.byte	PEND
	.byte		N23	, An3, v096
	.byte	W23
	.byte		N11	, En4, v112
	.byte	W12
	.byte		N23	, Dn4, v100
	.byte	W24
	.byte			An4, v116
	.byte	W24
	.byte		N56	, En4, v104
	.byte	W13
	.byte	W44
	.byte	W03
	.byte		N11	, En4, v108
	.byte	W12
	.byte			En4, v116
	.byte	W12
	.byte			Fs4, v120
	.byte	W12
	.byte		N36	, Gn4, v127
	.byte	W13
	.byte	W23
	.byte		N13	, An4, v120
	.byte	W12
	.byte		N23	, Fs4, v116
	.byte	W24
	.byte			En4, v108
	.byte	W24
	.byte		N32	, Dn4, v116
	.byte	W13
	.byte	W23
	.byte		N10	, Dn4, v112
	.byte	W12
	.byte		N12	, Cn4
	.byte	W24
	.byte		N32	, En4
	.byte	W36
	.byte	VOL	, v090
	.byte	W01
	.byte	PATT	
		.word	song037_3_2
	.byte	PATT	
		.word	song037_3_3
	.byte	PATT	
		.word	song037_3_4
	.byte	PATT	
		.word	song037_3_5
	.byte		N23	, An3, v096
	.byte	W23
	.byte		N11	, En4, v112
	.byte	W12
	.byte		N23	, Dn4, v100
	.byte	W24
	.byte			An4, v116
	.byte	W24
	.byte		N36	, En4, v104
	.byte	W13
	.byte	W44
	.byte	W03
	.byte		N24	, En4, v108
	.byte	W24
	.byte		N11	, Fs4, v120
	.byte	W12
	.byte		N36	, Gn4, v127
	.byte	W13
	.byte	W23
	.byte		N13	, An4, v120
	.byte	W12
	.byte		N23	, Fs4, v116
	.byte	W24
	.byte			En4, v108
	.byte	W24
	.byte		TIE	, Dn4, v096
	.byte	W13
	.byte	W23
	.byte	BEND	, c_v
	.byte	W01
	.byte		c_v+3
	.byte	W01
	.byte		c_v+6
	.byte	W01
	.byte		c_v+12
	.byte	W01
	.byte		c_v+15
	.byte	W01
	.byte		c_v+19
	.byte	W01
	.byte		c_v+25
	.byte	W01
	.byte		c_v+28
	.byte	W01
	.byte		c_v+31
	.byte	W01
	.byte		c_v+38
	.byte	W01
	.byte		c_v+41
	.byte	W01
	.byte		c_v+44
	.byte	W01
	.byte		c_v+51
	.byte	W01
	.byte		c_v+54
	.byte	W01
	.byte		c_v+57
	.byte	W01
	.byte		c_v+63
	.byte	W56
	.byte		EOT	
	.byte	W02
	.byte	GOTO	
		.word	song037_3_6
	.byte	FINE

	@********************** Track  4 **********************@

	.global song037_4
song037_4:	@ 0x08280FA8
	.byte	KEYSH	, 0
song037_4_4:
	.byte	VOICE	, 7
	.byte	VOL	, v045
	.byte	W96
	.byte	W96
	.byte	W96
	.byte	W96
	.byte	W96
	.byte	W96
	.byte	W96
	.byte	W96
	.byte	W96
	.byte	W96
	.byte	W96
	.byte	W96
	.byte	W96
	.byte	W96
	.byte	W96
	.byte	W92
	.byte	W03
	.byte		v045
	.byte	W01
	.byte		N05	, Cn3, v127
	.byte	W12
	.byte			Cn3, v064
	.byte	W12
	.byte			Cn3, v056
	.byte	W12
	.byte			Cn3, v116
	.byte	W12
	.byte			Cn3, v064
	.byte	W12
	.byte			Cs3, v100
	.byte	W12
	.byte			Ds3, v112
	.byte	W12
	.byte			Cn3, v127
	.byte	W12
song037_4_1:
	.byte		N05	, Cn3, v064
	.byte	W12
	.byte			Cn3, v056
	.byte	W12
	.byte			Cn3, v044
	.byte	W12
	.byte			Cn3, v036
	.byte	W12
	.byte			Cn3, v024
	.byte	W12
	.byte			Cn3, v127
	.byte	W12
	.byte			Cn3, v064
	.byte	W12
	.byte			Cs3, v120
	.byte	W12
	.byte	PEND
song037_4_2:
	.byte		N05	, Cs3, v064
	.byte	W12
	.byte			Cs3, v056
	.byte	W24
	.byte			Fs2, v112
	.byte	W12
	.byte			Fs2, v064
	.byte	W12
	.byte			Fn2, v096
	.byte	W12
	.byte			Fs2, v104
	.byte	W12
	.byte			As2, v116
	.byte	W12
	.byte	PEND
	.byte			As2, v064
	.byte	W12
	.byte			As2, v056
	.byte	W12
	.byte			As2, v044
	.byte	W12
	.byte			An2, v116
	.byte	W12
	.byte			An2, v064
	.byte	W12
	.byte			An2, v056
	.byte	W12
	.byte			An2, v044
	.byte	W12
	.byte			An2, v036
	.byte	W12
	.byte	W12
	.byte			Cn3, v064
	.byte	W12
	.byte			Cn3, v056
	.byte	W12
	.byte			Cn3, v116
	.byte	W12
	.byte			Cn3, v064
	.byte	W12
	.byte			Cs3, v100
	.byte	W12
	.byte			Ds3, v112
	.byte	W12
	.byte			Cn3, v127
	.byte	W12
	.byte	PATT	
		.word	song037_4_1
	.byte	PATT	
		.word	song037_4_2
	.byte		N05	, As2, v064
	.byte	W12
	.byte			As2, v056
	.byte	W12
	.byte			As2, v044
	.byte	W12
	.byte			An2, v116
	.byte	W12
	.byte			An2, v064
	.byte	W12
	.byte			En3, v116
	.byte	W12
	.byte			En3, v064
	.byte	W12
	.byte			En3, v056
	.byte	W11
	.byte	VOL	, v057
	.byte	W01
	.byte		N06	, Fs3, v116
	.byte	W12
	.byte			Gs3, v120
	.byte	W06
	.byte		N04	, Fn3, v116
	.byte	W06
	.byte			Fn3, v076
	.byte	W06
	.byte			Fn3, v036
	.byte	W06
	.byte		N06	, Ds3, v116
	.byte	W12
	.byte			Fn3, v120
	.byte	W06
	.byte		N04	, Cs3, v116
	.byte	W06
	.byte			Cs3, v076
	.byte	W06
	.byte			Cs3, v036
	.byte	W06
	.byte		N06	, As2, v096
	.byte	W06
	.byte			Cn3, v104
	.byte	W06
	.byte			Cs3, v112
	.byte	W06
	.byte			Ds3, v116
	.byte	W06
	.byte	W06
	.byte			Fn3
	.byte	W12
	.byte		N12	, As2
	.byte	W12
	.byte			Gs2
	.byte	W12
	.byte			As2
	.byte	W12
	.byte			Gs2
	.byte	W12
	.byte		N06	, As2
	.byte	W12
	.byte		N12	, En3
	.byte	W17
	.byte	VOL	, v057
	.byte	W01
	.byte		N06	, Fs3
	.byte	W12
	.byte			Gs3, v120
	.byte	W06
	.byte		N04	, Fn3, v116
	.byte	W06
	.byte			Fn3, v076
	.byte	W06
	.byte			Fn3, v036
	.byte	W06
	.byte		N06	, Ds3, v116
	.byte	W12
	.byte			Fn3, v120
	.byte	W06
	.byte		N04	, Cs3, v116
	.byte	W06
	.byte			Cs3, v076
	.byte	W06
	.byte			Cs3, v036
	.byte	W06
	.byte		N06	, Ds3, v112
	.byte	W12
	.byte			Gs3, v116
	.byte	W12
	.byte		N05	, Gs3, v064
	.byte	W12
	.byte			Gs3, v056
	.byte	W12
	.byte			Gs3, v044
	.byte	W12
	.byte			Gs3, v036
	.byte	W12
	.byte			Gs3, v024
	.byte	W44
	.byte	W03
	.byte	VOL	, v057
	.byte	W01
song037_4_3:
	.byte		N04	, Fn3, v116
	.byte	W06
	.byte		N03	, Fn3, v076
	.byte	W06
	.byte		N04	, Fs3, v116
	.byte	W06
	.byte		N03	, Fs3, v076
	.byte	W06
	.byte			Fs3, v036
	.byte	W12
	.byte		N04	, Gs3, v120
	.byte	W06
	.byte		N03	, Gs3, v080
	.byte	W06
	.byte			Gs3, v052
	.byte	W06
	.byte			Gs3, v040
	.byte	W06
	.byte			Gs3, v032
	.byte	W12
	.byte		N04	, As3, v120
	.byte	W06
	.byte		N03	, As3, v080
	.byte	W18
	.byte	PEND
	.byte	W06
	.byte		N04	, Ds4, v120
	.byte	W06
	.byte		N03	, Ds4, v060
	.byte	W06
	.byte		N04	, Gs3, v120
	.byte	W06
	.byte		N03	, Gs3, v060
	.byte	W06
	.byte		N04	, Gs3, v084
	.byte	W06
	.byte			Gs3, v116
	.byte	W06
	.byte			Fs3, v104
	.byte	W12
	.byte			Ds4, v120
	.byte	W06
	.byte		N03	, Ds4, v060
	.byte	W06
	.byte		N04	, Gs3, v120
	.byte	W06
	.byte		N03	, Gs3, v060
	.byte	W06
	.byte		N04	, Gs3, v084
	.byte	W06
	.byte			Gs3, v116
	.byte	W06
	.byte			Fs3, v104
	.byte	W05
	.byte	VOL	, v057
	.byte	W01
	.byte	PATT	
		.word	song037_4_3
	.byte	W06
	.byte		N04	, Ds4, v120
	.byte	W06
	.byte		N03	, Ds4, v060
	.byte	W06
	.byte		N04	, Gs3, v120
	.byte	W06
	.byte		N03	, Gs3, v060
	.byte	W06
	.byte		N04	, Gs3, v084
	.byte	W06
	.byte			Gs3, v116
	.byte	W06
	.byte			Fs3, v104
	.byte	W12
	.byte			Ds4, v120
	.byte	W06
	.byte		N03	, Ds4, v060
	.byte	W06
	.byte		N04	, Gs4, v120
	.byte	W06
	.byte		N03	, Gs4, v080
	.byte	W06
	.byte			Gs4, v060
	.byte	W06
	.byte			Gs4, v040
	.byte	W06
	.byte			Gs4, v032
	.byte	W06
	.byte	W96
	.byte	W96
	.byte	W96
	.byte	W96
	.byte	W96
	.byte	W96
	.byte	W96
	.byte	W96
	.byte	W96
	.byte	W96
	.byte	W96
	.byte	W96
	.byte	W96
	.byte	W96
	.byte	W96
	.byte	W96
	.byte	GOTO	
		.word	song037_4_4
	.byte	FINE

	@********************** Track  5 **********************@

	.global song037_5
song037_5:	@ 0x08281191
	.byte	KEYSH	, 0
song037_5_3:
	.byte	VOICE	, 55
	.byte	MOD	, 0
	.byte	VOL	, v104
	.byte	W96
	.byte	W96
	.byte	W96
	.byte	W96
	.byte	W96
	.byte	W96
	.byte	W96
	.byte	W96
	.byte	PAN	, c_v
	.byte	MOD	, 0
	.byte		N04	, Ds2, v104
	.byte		N04	, Ds3
	.byte	W03
	.byte		N18	, En2, v112
	.byte		N18	, En3
	.byte	W32
	.byte	W01
	.byte		N12	, Cs2
	.byte		N12	, Cs3
	.byte	W24
	.byte			Bn1, v096
	.byte		N12	, Bn2
	.byte	W12
	.byte			Cs2, v104
	.byte		N12	, Cs3
	.byte	W13
	.byte		N36	, Gs2, v116
	.byte		N36	, Gs3
	.byte	W11
song037_5_1:
	.byte	W24
	.byte	MOD	, 10
	.byte	W36
	.byte		0
	.byte		N12	, Gs2, v120
	.byte		N12	, Gs3
	.byte	W24
	.byte		N36	, Gn2, v112
	.byte		N36	, Gn3
	.byte	W12
	.byte	PEND
	.byte	W12
	.byte	MOD	, 10
	.byte	W24
	.byte		0
	.byte		N12	, Bn1, v116
	.byte		N12	, Bn2
	.byte	W24
	.byte		N11	, An1, v108
	.byte		N11	, An2
	.byte	W12
	.byte			Bn1, v112
	.byte		N11	, Bn2
	.byte	W12
	.byte		N36	, Fs2
	.byte		N36	, Fs3
	.byte	W12
	.byte	W12
	.byte	MOD	, 10
	.byte	W24
	.byte		0
	.byte		N36	, Fn2
	.byte		N36	, Fn3
	.byte	W30
	.byte	MOD	, 14
	.byte	W24
	.byte		0
	.byte	W06
	.byte		0
	.byte		N04	, Ds2, v104
	.byte		N04	, Ds3
	.byte	W03
	.byte		N18	, En2, v112
	.byte		N18	, En3
	.byte	W32
	.byte	W01
	.byte		N12	, Cs2
	.byte		N12	, Cs3
	.byte	W24
	.byte			Bn1, v096
	.byte		N12	, Bn2
	.byte	W12
	.byte			Cs2, v104
	.byte		N12	, Cs3
	.byte	W13
	.byte		N36	, Gs2, v116
	.byte		N36	, Gs3
	.byte	W11
	.byte	PATT	
		.word	song037_5_1
	.byte	W12
	.byte	MOD	, 10
	.byte	W24
	.byte		0
	.byte		N12	, Bn1, v112
	.byte		N12	, Bn2
	.byte	W24
	.byte		N11	, An1
	.byte		N11	, An2
	.byte	W12
	.byte			Bn1, v116
	.byte		N11	, Bn2
	.byte	W12
	.byte		N23	, Fs2, v112
	.byte		N23	, Fs3
	.byte	W12
	.byte	W12
	.byte		N11	, Gn2, v116
	.byte		N11	, Gn3
	.byte	W12
	.byte			An2, v124
	.byte		N11	, An3
	.byte	W12
	.byte		N12	, Fs2, v116
	.byte		N12	, Fs3
	.byte	W24
	.byte		N30	, Fn2, v108
	.byte		N30	, Fn3
	.byte	W12
	.byte	MOD	, 12
	.byte	W24
	.byte	PAN	, c_v
	.byte	MOD	, 0
	.byte		N04	, Ds2, v124
	.byte		N04	, Ds3
	.byte	W03
	.byte		N18	, En2, v127
	.byte		N18	, En3
	.byte	W32
	.byte	W01
	.byte		N12	, Cs2
	.byte		N12	, Cs3
	.byte	W24
	.byte			Bn1, v116
	.byte		N12	, Bn2
	.byte	W12
	.byte			Cs2, v124
	.byte		N12	, Cs3
	.byte	W13
	.byte		N36	, Gs2, v127
	.byte		N36	, Gs3
	.byte	W11
song037_5_2:
	.byte	W24
	.byte	MOD	, 10
	.byte	W36
	.byte		0
	.byte		N12	, Gs2, v127
	.byte		N12	, Gs3
	.byte	W24
	.byte		N36	, Gn2
	.byte		N36	, Gn3
	.byte	W12
	.byte	PEND
	.byte	W12
	.byte	MOD	, 10
	.byte	W24
	.byte		0
	.byte		N12	, Bn1
	.byte		N12	, Bn2
	.byte	W24
	.byte		N11	, An1
	.byte		N11	, An2
	.byte	W12
	.byte			Bn1
	.byte		N11	, Bn2
	.byte	W12
	.byte		N36	, Fs2
	.byte		N36	, Fs3
	.byte	W12
	.byte	W12
	.byte	MOD	, 10
	.byte	W24
	.byte		0
	.byte		N36	, Fn2
	.byte		N36	, Fn3
	.byte	W30
	.byte	MOD	, 14
	.byte	W24
	.byte		0
	.byte	W06
	.byte		0
	.byte		N03	, Ds2, v124
	.byte		N03	, Ds3
	.byte	W03
	.byte		N18	, En2, v127
	.byte		N18	, En3
	.byte	W32
	.byte	W01
	.byte		N12	, Cs2
	.byte		N12	, Cs3
	.byte	W24
	.byte			Bn1, v116
	.byte		N12	, Bn2
	.byte	W12
	.byte			Cs2, v124
	.byte		N12	, Cs3
	.byte	W13
	.byte		N36	, Gs2, v127
	.byte		N36	, Gs3
	.byte	W11
	.byte	PATT	
		.word	song037_5_2
	.byte	W12
	.byte	MOD	, 10
	.byte	W24
	.byte		0
	.byte		N12	, Bn1, v127
	.byte		N12	, Bn2
	.byte	W24
	.byte		N11	, An1
	.byte		N11	, An2
	.byte	W12
	.byte			Bn1
	.byte		N11	, Bn2
	.byte	W12
	.byte		N23	, Fs2
	.byte		N23	, Fs3
	.byte	W12
	.byte	W12
	.byte		N11	, Gn2
	.byte		N11	, Gn3
	.byte	W12
	.byte			An2
	.byte		N11	, An3
	.byte	W12
	.byte		N12	, Fs2
	.byte		N12	, Fs3
	.byte	W24
	.byte		N30	, Fn2
	.byte		N30	, Fn3
	.byte	W12
	.byte	MOD	, 12
	.byte	W24
	.byte	W96
	.byte	W96
	.byte	W96
	.byte		0
	.byte	W06
	.byte		N04	, Ds2, v104
	.byte		N04	, Ds3
	.byte	W03
	.byte		N09	, En2, v108
	.byte		N09	, En3
	.byte	W09
	.byte		N06	, Dn2, v096
	.byte		N06	, Dn3
	.byte	W06
	.byte		N15	, En2, v108
	.byte		N15	, En3
	.byte	W06
	.byte	MOD	, 5
	.byte	W12
	.byte		0
	.byte		N04	, Ds2, v104
	.byte		N04	, Ds3
	.byte	W03
	.byte		N15	, En2, v108
	.byte		N15	, En3
	.byte	W16
	.byte		N36	, An2
	.byte		N36	, An3
	.byte	W11
	.byte	MOD	, 10
	.byte	W24
	.byte	W96
	.byte	W96
	.byte	W96
	.byte	W96
	.byte	W96
	.byte	W96
	.byte	W96
	.byte	W96
	.byte	W96
	.byte	W96
	.byte	W96
	.byte	W96
	.byte		0
	.byte		N23	, An1, v088
	.byte		N23	, An2
	.byte	W24
	.byte		N11	, En2
	.byte		N11	, En3
	.byte	W12
	.byte		N23	, Dn2
	.byte		N23	, Dn3
	.byte	W12
	.byte	MOD	, 5
	.byte	W12
	.byte		N23	, An2
	.byte		N23	, An3
	.byte	W24
	.byte		N60	, En2
	.byte		N60	, En3
	.byte	W12
	.byte	W12
	.byte	MOD	, 10
	.byte	W84
	.byte	W96
	.byte	W96
	.byte		0
	.byte		N23	, An1
	.byte		N23	, An2
	.byte	W24
	.byte		N11	, En2
	.byte		N11	, En3
	.byte	W12
	.byte		N23	, Dn2
	.byte		N23	, Dn3
	.byte	W12
	.byte	MOD	, 5
	.byte	W12
	.byte		N23	, An2
	.byte		N23	, An3
	.byte	W24
	.byte		N36	, En2
	.byte		N36	, En3
	.byte	W12
	.byte	W12
	.byte	MOD	, 10
	.byte	W36
	.byte		0
	.byte		N11	, En2
	.byte		N11	, En3
	.byte	W24
	.byte			Fs2
	.byte		N11	, Fs3
	.byte	W12
	.byte		N32	, Gn2
	.byte		N32	, Gn3
	.byte	W12
	.byte	W24
	.byte		N11	, An2
	.byte		N11	, An3
	.byte	W12
	.byte		N23	, Fs2
	.byte		N23	, Fs3
	.byte	W24
	.byte			En2
	.byte		N23	, En3
	.byte	W24
	.byte		TIE	, Dn2
	.byte		TIE	, Dn3
	.byte	W12
	.byte	W12
	.byte	MOD	, 12
	.byte	W80
	.byte	W03
	.byte		EOT	, Dn2
	.byte			Dn3
	.byte	W01
	.byte	GOTO	
		.word	song037_5_3
	.byte	FINE

	@********************** Track  6 **********************@

	.global song037_6
song037_6:	@ 0x082813CF
	.byte	KEYSH	, 0
song037_6_10:
	.byte	VOICE	, 8
	.byte	VOL	, v057
	.byte	PAN	, c_v-40
	.byte	W96
	.byte	W96
	.byte	W96
	.byte	W96
	.byte	W96
	.byte	W96
	.byte	W96
	.byte	W96
song037_6_1:
	.byte	W11
	.byte		N06	, Cn3, v084
	.byte	W24
	.byte		N06	
	.byte	W24
	.byte		N06	
	.byte	W24
	.byte		N06	
	.byte	W13
	.byte	PEND
song037_6_2:
	.byte	W11
	.byte		N06	, Dn3, v084
	.byte	W24
	.byte		N06	
	.byte	W24
	.byte		N06	
	.byte	W24
	.byte		N06	
	.byte	W13
	.byte	PEND
song037_6_3:
	.byte	W11
	.byte		N06	, Fn3, v084
	.byte	W24
	.byte		N06	
	.byte	W24
	.byte		N06	
	.byte	W24
	.byte		N06	
	.byte	W13
	.byte	PEND
song037_6_4:
	.byte	W11
	.byte		N12	, Gn3, v084
	.byte	W24
	.byte		N06	
	.byte	W24
	.byte		N06	
	.byte	W12
	.byte		N09	
	.byte	W12
	.byte		N06	
	.byte	W13
	.byte	PEND
	.byte	PATT	
		.word	song037_6_1
	.byte	PATT	
		.word	song037_6_2
	.byte	PATT	
		.word	song037_6_3
	.byte	PATT	
		.word	song037_6_4
	.byte	PATT	
		.word	song037_6_1
	.byte	PATT	
		.word	song037_6_2
	.byte	PATT	
		.word	song037_6_3
	.byte	PATT	
		.word	song037_6_4
	.byte	PATT	
		.word	song037_6_1
	.byte	PATT	
		.word	song037_6_2
	.byte	PATT	
		.word	song037_6_3
	.byte	PATT	
		.word	song037_6_4
	.byte	W96
	.byte	W96
	.byte	W96
	.byte	W96
song037_6_5:
	.byte		N06	, Fn2, v096
	.byte	W12
	.byte		N06	
	.byte	W24
	.byte			En2
	.byte	W12
	.byte		N06	
	.byte	W24
	.byte			Dn2
	.byte	W12
	.byte		N18	, Gn2
	.byte	W12
	.byte	PEND
song037_6_6:
	.byte	W12
	.byte		N06	, Gn2, v096
	.byte	W24
	.byte			Gs2
	.byte	W24
	.byte			Gn2
	.byte	W24
	.byte		N06	
	.byte	W12
	.byte	PEND
	.byte	PATT	
		.word	song037_6_5
	.byte	PATT	
		.word	song037_6_6
	.byte		TIE	, Gn2, v096
	.byte	W96
	.byte	W48
	.byte		EOT	
	.byte		N48	, Fn2
	.byte	W48
song037_6_7:
	.byte		N24	, An2, v096
	.byte	W24
	.byte			Gn2
	.byte	W24
	.byte			Fn2
	.byte	W24
	.byte		N72	, Gn2
	.byte	W24
	.byte	PEND
	.byte	W48
	.byte		N42	, Fn2
	.byte	W48
	.byte		TIE	, Gn2
	.byte	W96
	.byte	W48
	.byte		EOT	
	.byte		N48	, Fn2
	.byte	W48
song037_6_8:
	.byte		N24	, An2, v096
	.byte	W24
	.byte			Gn2
	.byte	W24
	.byte			Fn2
	.byte	W24
	.byte			Gn2
	.byte	W24
	.byte	PEND
song037_6_9:
	.byte		N48	, Gs2, v096
	.byte	W48
	.byte		N42	, Fn2
	.byte	W48
	.byte	PEND
	.byte		TIE	, Gn2
	.byte	W96
	.byte	W48
	.byte		EOT	
	.byte		N48	, Fn2
	.byte	W48
	.byte	PATT	
		.word	song037_6_7
	.byte	W48
	.byte		N42	, Fn2, v096
	.byte	W48
	.byte		TIE	, Gn2
	.byte	W96
	.byte	W48
	.byte		EOT	
	.byte		N48	, Fn2
	.byte	W48
	.byte	PATT	
		.word	song037_6_8
	.byte	PATT	
		.word	song037_6_9
	.byte	GOTO	
		.word	song037_6_10
	.byte	FINE

	@********************** Track  7 **********************@

	.global song037_7
song037_7:	@ 0x082814D5
	.byte	KEYSH	, 0
song037_7_12:
	.byte	VOICE	, 3
	.byte	VOL	, v057
	.byte	W01
	.byte		N12	, Dn2, v127
	.byte	W24
	.byte		N12	
	.byte	W12
	.byte		N18	, An1
	.byte	W24
	.byte			Dn2
	.byte	W24
	.byte			Cn2
	.byte	W11
song037_7_1:
	.byte	W13
	.byte		N18	, Gn2, v127
	.byte	W24
	.byte			Cn3
	.byte	W24
	.byte		N12	, Gn2
	.byte	W12
	.byte		N18	, Cn2
	.byte	W23
	.byte	PEND
	.byte	W01
	.byte			Gn2
	.byte	W24
	.byte		N12	
	.byte	W12
	.byte		N18	, An2
	.byte	W24
	.byte		N12	
	.byte	W24
	.byte		N18	, As2
	.byte	W11
	.byte	W13
	.byte			Fn2
	.byte	W24
	.byte			Dn2
	.byte	W24
	.byte		N12	, Fn2
	.byte	W12
	.byte			As1
	.byte	W12
	.byte			As2
	.byte	W11
	.byte	W01
	.byte			Dn2
	.byte	W24
	.byte		N12	
	.byte	W12
	.byte		N18	, An1
	.byte	W24
	.byte			Dn2
	.byte	W24
	.byte			Cn2
	.byte	W11
	.byte	PATT	
		.word	song037_7_1
	.byte	W01
	.byte		N18	, Gn2, v127
	.byte	W24
	.byte		N12	
	.byte	W12
	.byte		N18	, An2
	.byte	W24
	.byte		N12	
	.byte	W24
	.byte		N30	, As2
	.byte	W11
	.byte	W24
	.byte	W01
	.byte		N18	
	.byte	W24
	.byte		N12	, Cn2
	.byte	W12
	.byte			Cn3
	.byte	W12
	.byte			Cn2
	.byte	W12
	.byte		N10	, Cs2
	.byte	W11
song037_7_2:
	.byte	W01
	.byte		N12	, Dn2, v127
	.byte	W24
	.byte			An1
	.byte	W24
	.byte			Dn2
	.byte	W24
	.byte			An1
	.byte	W23
	.byte	PEND
song037_7_3:
	.byte	W01
	.byte		N12	, En2, v127
	.byte	W24
	.byte			Bn1
	.byte	W24
	.byte			En2
	.byte	W24
	.byte			Bn1
	.byte	W23
	.byte	PEND
	.byte	W01
	.byte			Gn2
	.byte	W24
	.byte			Dn2
	.byte	W24
	.byte			Gn2
	.byte	W24
	.byte			Dn2
	.byte	W23
song037_7_7:
	.byte	W01
	.byte		N12	, An2, v127
	.byte	W24
	.byte			En2
	.byte	W24
	.byte			Cs2
	.byte	W24
	.byte			An1
	.byte	W23
	.byte	PEND
	.byte	PATT	
		.word	song037_7_2
	.byte	PATT	
		.word	song037_7_3
	.byte	W01
	.byte		N12	, Gn2, v127
	.byte	W24
	.byte		N12	
	.byte	W24
	.byte		N12	
	.byte	W24
	.byte		N12	
	.byte	W23
song037_7_8:
	.byte	W01
	.byte		N12	, An2, v127
	.byte	W24
	.byte			Bn2
	.byte	W24
	.byte			Cn3
	.byte	W24
	.byte			Cs3
	.byte	W23
	.byte	PEND
song037_7_4:
	.byte	W01
	.byte		N12	, Dn3, v127
	.byte	W24
	.byte			An2
	.byte	W24
	.byte			Fs2
	.byte	W24
	.byte			Dn2
	.byte	W23
	.byte	PEND
song037_7_9:
	.byte	W01
	.byte		N12	, En2, v127
	.byte	W24
	.byte			Bn2
	.byte	W24
	.byte			En2
	.byte	W24
	.byte			Bn2
	.byte	W23
	.byte	PEND
	.byte	W01
	.byte			Gn2
	.byte	W24
	.byte		N12	
	.byte	W24
	.byte		N12	
	.byte	W24
	.byte			Dn2
	.byte	W23
song037_7_10:
	.byte	W01
	.byte		N12	, An2, v127
	.byte	W24
	.byte			En2
	.byte	W24
	.byte			Cs3
	.byte	W24
	.byte			En3
	.byte	W23
	.byte	PEND
	.byte	PATT	
		.word	song037_7_4
song037_7_11:
	.byte	W01
	.byte		N12	, En2, v127
	.byte	W24
	.byte			Bn2
	.byte	W24
	.byte			En3
	.byte	W24
	.byte			En2
	.byte	W23
	.byte	PEND
	.byte	W01
	.byte		N12	
	.byte	W24
	.byte			Bn2
	.byte	W24
	.byte			Gn2
	.byte	W24
	.byte			Dn3
	.byte	W23
	.byte	W01
	.byte			An2
	.byte	W24
	.byte			En2
	.byte	W24
	.byte			Dn2
	.byte	W24
	.byte			Cs2
	.byte	W23
	.byte	W01
	.byte		N24	, Gn2
	.byte	W36
	.byte			Fs2
	.byte	W36
	.byte		N11	, Dn2
	.byte	W12
	.byte		N24	, An1
	.byte	W11
song037_7_5:
	.byte	W13
	.byte		N10	, An2, v127
	.byte	W12
	.byte		N12	, An1
	.byte	W12
	.byte		N10	, An2
	.byte	W12
	.byte		N12	, An1
	.byte	W12
	.byte		N10	, An2
	.byte	W12
	.byte		N12	, An1
	.byte	W12
	.byte		N10	, An2
	.byte	W11
	.byte	PEND
	.byte	W01
	.byte		N24	, Gn2
	.byte	W36
	.byte		N22	, Fs2
	.byte	W36
	.byte		N10	, Dn2
	.byte	W12
	.byte		N24	, An1
	.byte	W11
song037_7_6:
	.byte	W13
	.byte		N10	, An2, v127
	.byte	W12
	.byte		N12	, Bn1
	.byte	W12
	.byte		N10	, Bn2
	.byte	W12
	.byte		N12	, Cn2
	.byte	W12
	.byte		N10	, Cn3
	.byte	W12
	.byte		N12	, Cs2
	.byte	W12
	.byte		N10	, Cs3
	.byte	W11
	.byte	PEND
	.byte	W01
	.byte		N24	, Gn2
	.byte	W36
	.byte		N21	, Fs2
	.byte	W36
	.byte		N11	, Dn2
	.byte	W12
	.byte		N24	, An1
	.byte	W11
	.byte	PATT	
		.word	song037_7_5
	.byte	W01
	.byte		N24	, Gn2, v127
	.byte	W36
	.byte		N23	, Fs2
	.byte	W36
	.byte		N11	, Dn2
	.byte	W12
	.byte		N24	, An1
	.byte	W11
	.byte	PATT	
		.word	song037_7_6
	.byte	PATT	
		.word	song037_7_2
	.byte	PATT	
		.word	song037_7_3
	.byte	BEND	, c_v
	.byte	W01
	.byte		N12	, Gn2, v127
	.byte	W24
	.byte			Dn2
	.byte	W23
	.byte	BEND	, c_v-57
	.byte	W01
	.byte		c_v-50
	.byte		N12	, Gn2
	.byte	W01
	.byte	BEND	, c_v-43
	.byte	W01
	.byte		c_v-28
	.byte	W01
	.byte		c_v-21
	.byte	W01
	.byte		c_v-14
	.byte	W01
	.byte		c_v
	.byte	W19
	.byte		N12	, Dn2
	.byte	W23
	.byte	PATT	
		.word	song037_7_7
	.byte	PATT	
		.word	song037_7_2
	.byte	PATT	
		.word	song037_7_3
	.byte	BEND	, c_v
	.byte	W01
	.byte		N12	, Gn2, v127
	.byte	W24
	.byte		N12	
	.byte	W23
	.byte	BEND	, c_v-57
	.byte	W01
	.byte		c_v-50
	.byte		N12	
	.byte	W01
	.byte	BEND	, c_v-43
	.byte	W01
	.byte		c_v-28
	.byte	W01
	.byte		c_v-21
	.byte	W01
	.byte		c_v-14
	.byte	W01
	.byte		c_v
	.byte	W19
	.byte		N12	
	.byte	W23
	.byte	PATT	
		.word	song037_7_8
	.byte	PATT	
		.word	song037_7_4
	.byte	PATT	
		.word	song037_7_9
	.byte	BEND	, c_v
	.byte	W01
	.byte		N12	, Gn2, v127
	.byte	W24
	.byte		N12	
	.byte	W23
	.byte	BEND	, c_v-57
	.byte	W01
	.byte		c_v-50
	.byte		N12	
	.byte	W01
	.byte	BEND	, c_v-43
	.byte	W01
	.byte		c_v-28
	.byte	W01
	.byte		c_v-21
	.byte	W01
	.byte		c_v-14
	.byte	W01
	.byte		c_v
	.byte	W19
	.byte		N12	, Dn2
	.byte	W23
	.byte	PATT	
		.word	song037_7_10
	.byte	PATT	
		.word	song037_7_4
	.byte	PATT	
		.word	song037_7_11
	.byte	BEND	, c_v
	.byte	W01
	.byte		N12	, En2, v127
	.byte	W24
	.byte			Bn2
	.byte	W23
	.byte	BEND	, c_v-57
	.byte	W01
	.byte		c_v-50
	.byte		N12	, Gn2
	.byte	W01
	.byte	BEND	, c_v-43
	.byte	W01
	.byte		c_v-28
	.byte	W01
	.byte		c_v-21
	.byte	W01
	.byte		c_v-14
	.byte	W01
	.byte		c_v
	.byte	W19
	.byte		N12	, Dn3
	.byte	W23
	.byte	W01
	.byte			An2
	.byte	W11
	.byte			As1, v116
	.byte	W13
	.byte			En2, v127
	.byte	W11
	.byte			As1, v116
	.byte	W24
	.byte		N12	
	.byte	W24
	.byte		N11	
	.byte	W12
	.byte	GOTO	
		.word	song037_7_12
	.byte	FINE

	@********************** Track  8 **********************@

	.global song037_8
song037_8:	@ 0x0828170C
	.byte	KEYSH	, 0
song037_8_11:
	.byte	VOICE	, 4
	.byte	VOL	, v041
	.byte	MOD	, 0
	.byte	PAN	, c_v+40
	.byte		N03	, Dn4, v084
	.byte	W06
	.byte			Fs4, v096
	.byte	W06
	.byte			An4, v104
	.byte	W01
	.byte	PAN	, c_v+40
	.byte	W05
	.byte		c_v+38
	.byte		N03	, Dn5, v116
	.byte	W06
	.byte	PAN	, c_v+37
	.byte		N03	, Fs5, v084
	.byte	W04
	.byte	PAN	, c_v+36
	.byte	W02
	.byte		N03	, An5, v096
	.byte	W04
	.byte	PAN	, c_v+33
	.byte	W02
	.byte		N03	, Dn6, v104
	.byte	W02
	.byte	PAN	, c_v+31
	.byte	W04
	.byte		N03	, Fs6, v116
	.byte	W01
	.byte	PAN	, c_v+28
	.byte	W05
	.byte		c_v+25
	.byte		N03	, Dn6, v084
	.byte	W04
	.byte	PAN	, c_v+22
	.byte	W02
	.byte		N03	, An5, v096
	.byte	W02
	.byte	PAN	, c_v+19
	.byte	W04
	.byte		c_v+15
	.byte		N03	, Fs5, v104
	.byte	W04
	.byte	PAN	, c_v+7
	.byte	W02
	.byte		N03	, Dn5, v116
	.byte	W03
	.byte	PAN	, c_v+4
	.byte	W03
	.byte		N03	, An4, v084
	.byte	W02
	.byte	PAN	, c_v+1
	.byte	W04
	.byte		c_v
	.byte		N03	, Fs4, v096
	.byte	W05
	.byte	PAN	, c_v-4
	.byte	W01
	.byte		N03	, Dn4, v104
	.byte	W04
	.byte	PAN	, c_v-8
	.byte	W02
	.byte		N03	, An3, v116
	.byte	W02
	.byte	PAN	, c_v-12
	.byte	W03
	.byte		c_v-15
	.byte	W01
	.byte		N03	, Cn4, v084
	.byte	W01
	.byte	PAN	, c_v-16
	.byte	W03
	.byte		c_v-17
	.byte	W02
	.byte		N03	, En4, v096
	.byte	W02
	.byte	PAN	, c_v-21
	.byte	W04
	.byte		c_v-24
	.byte		N03	, Gn4, v104
	.byte	W03
	.byte	PAN	, c_v-29
	.byte	W03
	.byte		N03	, Cn5, v116
	.byte	W01
	.byte	PAN	, c_v-32
	.byte	W04
	.byte		c_v-36
	.byte	W01
	.byte		N03	, En5, v084
	.byte	W06
	.byte			Gn5, v096
	.byte	W06
	.byte			Cn6, v104
	.byte	W04
	.byte	PAN	, c_v-35
	.byte	W02
	.byte		N03	, En6, v116
	.byte	W02
	.byte	PAN	, c_v-31
	.byte	W04
	.byte		N03	, Cn6, v084
	.byte	W01
	.byte	PAN	, c_v-25
	.byte	W02
	.byte		c_v-22
	.byte	W01
	.byte		c_v-21
	.byte	W02
	.byte		N03	, Gn5, v096
	.byte	W01
	.byte	PAN	, c_v-16
	.byte	W04
	.byte		c_v-11
	.byte	W01
	.byte		N03	, En5, v104
	.byte	W03
	.byte	PAN	, c_v-8
	.byte	W03
	.byte		N03	, Cn5, v116
	.byte	W02
	.byte	PAN	, c_v-2
	.byte	W04
	.byte		c_v+4
	.byte		N03	, Gn4, v084
	.byte	W05
	.byte	PAN	, c_v+10
	.byte	W01
	.byte		N03	, En4, v096
	.byte	W04
	.byte	PAN	, c_v+16
	.byte	W02
	.byte		N03	, Cn4, v104
	.byte	W01
	.byte	PAN	, c_v+19
	.byte	W05
	.byte		c_v+23
	.byte		N03	, Gn3, v116
	.byte	W04
	.byte	PAN	, c_v+25
	.byte	W02
	.byte		c_v+26
	.byte		N03	, Bn3, v084
	.byte	W04
	.byte	PAN	, c_v+27
	.byte	W02
	.byte		N03	, Dn4, v096
	.byte	W03
	.byte	PAN	, c_v+29
	.byte	W03
	.byte		N03	, Gn4, v104
	.byte	W02
	.byte	PAN	, c_v+31
	.byte	W03
	.byte		c_v+33
	.byte	W01
	.byte		N03	, Bn4, v116
	.byte	W04
	.byte	PAN	, c_v+37
	.byte	W02
	.byte		N03	, Dn5, v084
	.byte	W04
	.byte	PAN	, c_v+39
	.byte	W02
	.byte		N03	, Gn5, v096
	.byte	W06
	.byte			Bn5, v104
	.byte	W04
	.byte	PAN	, c_v+39
	.byte	W02
	.byte		N03	, Dn6, v116
	.byte	W02
	.byte	PAN	, c_v+34
	.byte	W02
	.byte		c_v+33
	.byte	W02
	.byte		N03	, An3, v084
	.byte	W04
	.byte	PAN	, c_v+32
	.byte	W02
	.byte		N03	, Dn4, v096
	.byte	W03
	.byte	PAN	, c_v+31
	.byte	W03
	.byte		N03	, En4, v104
	.byte	W01
	.byte	PAN	, c_v+30
	.byte	W04
	.byte		c_v+29
	.byte	W01
	.byte		N03	, Gn4, v116
	.byte	W02
	.byte	PAN	, c_v+26
	.byte	W04
	.byte		c_v+24
	.byte		N03	, An4, v084
	.byte	W06
	.byte			Dn5, v096
	.byte	W01
	.byte	PAN	, c_v+22
	.byte	W03
	.byte		c_v+21
	.byte	W02
	.byte		N03	, En5, v104
	.byte	W02
	.byte	PAN	, c_v+17
	.byte	W04
	.byte		c_v+13
	.byte		N03	, An5, v116
	.byte	W04
	.byte	PAN	, c_v+10
	.byte	W02
	.byte		c_v+8
	.byte		N03	, As5, v084
	.byte	W02
	.byte	PAN	, c_v+7
	.byte	W04
	.byte		N03	, Fn5, v096
	.byte	W01
	.byte	PAN	, c_v+4
	.byte	W04
	.byte		c_v+3
	.byte	W01
	.byte		N03	, Dn5, v104
	.byte	W02
	.byte	PAN	, c_v-2
	.byte	W04
	.byte		c_v-4
	.byte		N03	, As4, v116
	.byte	W04
	.byte	PAN	, c_v-9
	.byte	W02
	.byte		N03	, Fn4, v084
	.byte	W02
	.byte	PAN	, c_v-14
	.byte	W03
	.byte		c_v-21
	.byte	W01
	.byte		N03	, Dn4, v096
	.byte	W03
	.byte	PAN	, c_v-25
	.byte	W03
	.byte		N03	, As3, v104
	.byte	W01
	.byte	PAN	, c_v-27
	.byte	W05
	.byte		N03	, Fn3, v116
	.byte	W01
	.byte	PAN	, c_v-30
	.byte	W05
	.byte		N03	, As3, v084
	.byte	W02
	.byte	PAN	, c_v-31
	.byte	W03
	.byte		c_v-32
	.byte	W01
	.byte		N03	, Dn4, v096
	.byte	W02
	.byte	PAN	, c_v-35
	.byte	W04
	.byte		N03	, Fn4, v104
	.byte	W06
	.byte			As4, v116
	.byte	W01
	.byte	PAN	, c_v-33
	.byte	W03
	.byte		c_v-27
	.byte	W02
	.byte		N03	, Dn5, v084
	.byte	W02
	.byte	PAN	, c_v-20
	.byte	W04
	.byte		c_v-11
	.byte		N03	, Fn5, v096
	.byte	W02
	.byte	PAN	, c_v-4
	.byte	W03
	.byte		c_v+3
	.byte	W01
	.byte		N03	, As5, v104
	.byte	W01
	.byte	PAN	, c_v+11
	.byte	W03
	.byte		c_v+18
	.byte	W02
	.byte		N03	, Dn6, v116
	.byte	W01
	.byte	PAN	, c_v+25
	.byte	W04
	.byte		c_v+30
	.byte	VOL	, v037
	.byte	TUNE	, c_v+5
	.byte	W01
	.byte		N03	, Dn4, v084
	.byte	W01
	.byte	PAN	, c_v+34
	.byte	W04
	.byte		c_v+39
	.byte	W01
	.byte		N03	, Fs4, v096
	.byte	W04
	.byte	PAN	, c_v+41
	.byte	W02
	.byte		N03	, An4, v104
	.byte	W06
	.byte			Dn5, v116
	.byte	W06
	.byte			Fs5, v084
	.byte	W06
	.byte			An5, v096
	.byte	W06
	.byte			Dn6, v104
	.byte	W06
	.byte			Fs6, v116
	.byte	W06
	.byte			Dn6, v084
	.byte	W06
	.byte			An5, v096
	.byte	W06
	.byte			Fs5, v104
	.byte	W06
	.byte			Dn5, v116
	.byte	W06
	.byte			An4, v084
	.byte	W06
	.byte			Fs4, v096
	.byte	W06
	.byte			Dn4, v104
	.byte	W06
	.byte			An3, v116
	.byte	W06
	.byte			Cn4, v084
	.byte	W06
	.byte			En4, v096
	.byte	W06
	.byte			Gn4, v104
	.byte	W06
	.byte			Cn5, v116
	.byte	W06
	.byte			En5, v084
	.byte	W06
	.byte			Gn5, v096
	.byte	W06
	.byte			Cn6, v104
	.byte	W06
	.byte			En6, v116
	.byte	W06
	.byte			Cn6, v084
	.byte	W06
	.byte			Gn5, v096
	.byte	W06
	.byte			En5, v104
	.byte	W06
	.byte			Cn5, v116
	.byte	W06
	.byte			Gn4, v084
	.byte	W06
	.byte			En4, v096
	.byte	W06
	.byte			Cn4, v104
	.byte	W06
	.byte			Gn3, v116
	.byte	W06
	.byte			Bn3, v084
	.byte	W06
	.byte			Dn4, v096
	.byte	W06
	.byte			Gn4, v104
	.byte	W06
	.byte			Bn4, v116
	.byte	W06
	.byte			Dn5, v084
	.byte	W06
	.byte			Gn5, v096
	.byte	W06
	.byte			Bn5, v104
	.byte	W06
	.byte			Dn6, v116
	.byte	W06
	.byte			An3, v084
	.byte	W06
	.byte			Dn4, v096
	.byte	W06
	.byte			En4, v104
	.byte	W06
	.byte			Gn4, v116
	.byte	W06
	.byte			An4, v084
	.byte	W06
	.byte			Dn5, v096
	.byte	W06
	.byte			En5, v104
	.byte	W06
	.byte			An5, v116
	.byte	W06
	.byte			As5, v084
	.byte	W06
	.byte			Fn5, v096
	.byte	W06
	.byte			Dn5, v104
	.byte	W06
	.byte			As4, v116
	.byte	W06
	.byte			Fn4, v084
	.byte	W06
	.byte			Dn4, v096
	.byte	W06
	.byte			As3, v104
	.byte	W06
	.byte			Fn3, v116
	.byte	W06
	.byte			As3, v084
	.byte	W06
	.byte			Dn4, v096
	.byte	W06
	.byte			Fn4, v104
	.byte	W06
	.byte			As4, v116
	.byte	W06
	.byte			Dn5, v084
	.byte	W06
	.byte			Fn5, v096
	.byte	W06
	.byte			As5, v104
	.byte	W06
	.byte			Dn6, v116
	.byte	W06
song037_8_1:
	.byte		N03	, Dn4, v076
	.byte		N03	, Dn5, v096
	.byte	W12
	.byte			An3
	.byte		N03	, An4, v116
	.byte	W12
	.byte			Dn4, v100
	.byte		N03	, Dn5, v120
	.byte	W12
	.byte			An3, v112
	.byte		N03	, An4, v127
	.byte	W12
	.byte			Dn4, v076
	.byte		N03	, Dn5, v096
	.byte	W12
	.byte			An3
	.byte		N03	, An4, v116
	.byte	W12
	.byte			Dn4, v100
	.byte		N03	, Dn5, v120
	.byte	W12
	.byte			An3, v112
	.byte		N03	, An4, v127
	.byte	W12
	.byte	PEND
	.byte	W96
song037_8_2:
	.byte		N03	, Gn4, v076
	.byte		N03	, Gn5, v096
	.byte	W12
	.byte			Dn4
	.byte		N03	, Dn5, v116
	.byte	W12
	.byte			Gn4, v100
	.byte		N03	, Gn5, v120
	.byte	W12
	.byte			Dn4, v112
	.byte		N03	, Dn5, v127
	.byte	W12
	.byte			Gn4, v076
	.byte		N03	, Gn5, v096
	.byte	W12
	.byte			Dn4
	.byte		N03	, Dn5, v116
	.byte	W12
	.byte			Gn4, v100
	.byte		N03	, Gn5, v120
	.byte	W12
	.byte			Dn4, v112
	.byte		N03	, Dn5, v127
	.byte	W12
	.byte	PEND
	.byte			Cs5, v096
	.byte	W06
	.byte			Gn5, v116
	.byte	W06
	.byte			An5
	.byte	W06
	.byte			Gn5
	.byte	W06
	.byte			Cs5, v120
	.byte	W06
	.byte			Gn5, v124
	.byte	W06
	.byte			An5, v127
	.byte	W06
	.byte			Gn5
	.byte	W06
	.byte			Cs5, v096
	.byte	W06
	.byte			Gn5, v116
	.byte	W06
	.byte			An5
	.byte	W06
	.byte			Gn5
	.byte	W06
	.byte			Cs5, v120
	.byte	W06
	.byte			Gn5, v124
	.byte	W06
	.byte			An5, v127
	.byte	W06
	.byte			Gn5
	.byte	W06
	.byte	PATT	
		.word	song037_8_1
	.byte	W96
	.byte	PATT	
		.word	song037_8_2
	.byte		N03	, Cs5, v096
	.byte	W06
	.byte			Gn5, v116
	.byte	W06
	.byte			An5
	.byte	W06
	.byte			Gn5
	.byte	W06
	.byte			Cs5, v120
	.byte	W06
	.byte			Gn5, v124
	.byte	W06
	.byte			An5, v127
	.byte	W06
	.byte			Gn5
	.byte	W06
	.byte			Cs5, v096
	.byte	W06
	.byte			Gn5, v116
	.byte	W06
	.byte			An5
	.byte	W06
	.byte			Gn5
	.byte	W06
	.byte			Cs5, v120
	.byte	W06
	.byte			Gn5, v124
	.byte	W06
	.byte			An5, v127
	.byte	W06
	.byte			Gn5
	.byte	W05
	.byte	VOL	, v037
	.byte	PAN	, c_v+40
	.byte	TUNE	, c_v+5
	.byte	W01
song037_8_3:
	.byte		N03	, Fs4, v084
	.byte	W06
	.byte			Gn4, v096
	.byte	W06
	.byte			An4, v104
	.byte	W06
	.byte			Dn5, v116
	.byte	W12
	.byte			Dn5, v084
	.byte	W12
	.byte			Dn5, v064
	.byte	W12
	.byte			Dn5, v116
	.byte	W12
	.byte			Dn5, v064
	.byte	W06
	.byte		N12	, En5, v104
	.byte	W12
	.byte		N03	, Dn5, v116
	.byte	W06
	.byte			Dn5, v044
	.byte	W06
	.byte	PEND
song037_8_4:
	.byte		N03	, Dn5, v036
	.byte	W06
	.byte			Dn5, v016
	.byte	W06
	.byte		N03	
	.byte	W06
	.byte		N03	
	.byte	W78
	.byte	PEND
	.byte	PATT	
		.word	song037_8_3
song037_8_5:
	.byte		N03	, Dn5, v036
	.byte	W06
	.byte			En5, v084
	.byte	W06
	.byte			En5, v036
	.byte	W06
	.byte			Cs5, v104
	.byte	W06
	.byte			Cs5, v044
	.byte	W06
	.byte			An4, v096
	.byte	W06
	.byte			An4, v044
	.byte	W06
	.byte		N11	, Fn4, v076
	.byte	W12
	.byte		N03	, Gn5, v096
	.byte	W03
	.byte			Gn4, v044
	.byte	W03
	.byte			An5, v096
	.byte	W03
	.byte			An4, v044
	.byte	W03
	.byte			Gn5, v096
	.byte	W03
	.byte			Gn4, v044
	.byte	W03
	.byte			Cs5, v100
	.byte	W03
	.byte			Cs4, v052
	.byte	W03
	.byte			Gn5, v104
	.byte	W03
	.byte			Gn4, v056
	.byte	W03
	.byte			An5, v112
	.byte	W03
	.byte			An4, v060
	.byte	W03
	.byte			Gn5, v116
	.byte	W06
	.byte	PEND
	.byte	PATT	
		.word	song037_8_3
	.byte	PATT	
		.word	song037_8_4
	.byte	PATT	
		.word	song037_8_3
	.byte	PATT	
		.word	song037_8_5
	.byte	MOD	, 127
	.byte	VOL	, v037
	.byte	PAN	, c_v
	.byte	LFOS	, 127
	.byte		TIE	, Cn7, v084
	.byte	W02
	.byte	VOL	, v036
	.byte	W03
	.byte		v035
	.byte	W02
	.byte		v034
	.byte	W03
	.byte		v033
	.byte	W02
	.byte		v033
	.byte	W03
	.byte		v032
	.byte	W02
	.byte		v031
	.byte	W03
	.byte		v030
	.byte	W02
	.byte		v029
	.byte	W03
	.byte		v028
	.byte	W02
	.byte		v028
	.byte	W03
	.byte		v027
	.byte	W02
	.byte		v026
	.byte	W03
	.byte		v025
	.byte	W02
	.byte		v024
	.byte	W03
	.byte		v023
	.byte	W02
	.byte		v023
	.byte	W03
	.byte		v022
	.byte	W02
	.byte		v021
	.byte	W03
	.byte		v020
	.byte	W18
	.byte		v019
	.byte	W09
	.byte		v019
	.byte	W09
	.byte		v018
	.byte	W09
	.byte		v017
	.byte	W01
song037_8_6:
	.byte	W08
	.byte	VOL	, v016
	.byte	W09
	.byte		v015
	.byte	W09
	.byte		v014
	.byte	W09
	.byte		v014
	.byte	W09
	.byte		v013
	.byte	W09
	.byte		v012
	.byte	W09
	.byte		v011
	.byte	W09
	.byte		v010
	.byte	W09
	.byte		v009
	.byte	W09
	.byte		v009
	.byte	W01
	.byte	PEND
	.byte		EOT	, Cn7
	.byte	VOL	, v008
	.byte	W06
	.byte		v037
	.byte		TIE	, Cn7, v084
	.byte	W02
	.byte	VOL	, v036
	.byte	W03
	.byte		v035
	.byte	W02
	.byte		v034
	.byte	W03
	.byte		v033
	.byte	W02
	.byte		v033
	.byte	W03
	.byte		v032
	.byte	W02
	.byte		v031
	.byte	W03
	.byte		v030
	.byte	W02
	.byte		v029
	.byte	W03
	.byte		v028
	.byte	W02
	.byte		v028
	.byte	W03
	.byte		v027
	.byte	W02
	.byte		v026
	.byte	W03
	.byte		v025
	.byte	W02
	.byte		v024
	.byte	W03
	.byte		v023
	.byte	W02
	.byte		v023
	.byte	W03
	.byte		v022
	.byte	W02
	.byte		v021
	.byte	W03
	.byte		v020
	.byte	W18
	.byte		v019
	.byte	W09
	.byte		v019
	.byte	W09
	.byte		v018
	.byte	W09
	.byte		v017
	.byte	W01
	.byte	PATT	
		.word	song037_8_6
	.byte		EOT	, Cn7
	.byte	VOL	, v008
	.byte	W06
	.byte		v037
	.byte	PAN	, c_v+40
	.byte		TIE	, Cn7, v096
	.byte	W02
	.byte	VOL	, v036
	.byte	W03
	.byte		v035
	.byte	W02
	.byte		v034
	.byte	W03
	.byte		v033
	.byte	W02
	.byte		v033
	.byte	W03
	.byte		v032
	.byte	W02
	.byte		v031
	.byte	W03
	.byte		v030
	.byte	W02
	.byte		v029
	.byte	W03
	.byte		v028
	.byte	W02
	.byte		v028
	.byte	W03
	.byte		v027
	.byte	W02
	.byte		v026
	.byte	W03
	.byte		v025
	.byte	W02
	.byte		v024
	.byte	W03
	.byte		v023
	.byte	W02
	.byte		v023
	.byte	W03
	.byte		v022
	.byte	W02
	.byte		v021
	.byte	W03
	.byte		v020
	.byte	W18
	.byte		v019
	.byte	W09
	.byte		v019
	.byte	W09
	.byte		v018
	.byte	W09
	.byte		v017
	.byte	W01
	.byte	PATT	
		.word	song037_8_6
	.byte		EOT	, Cn7
	.byte	VOL	, v008
	.byte	W06
	.byte		v037
	.byte		TIE	, Cn7, v096
	.byte	W02
	.byte	VOL	, v036
	.byte	W03
	.byte		v035
	.byte	W02
	.byte		v034
	.byte	W03
	.byte		v033
	.byte	W02
	.byte		v033
	.byte	W03
	.byte		v032
	.byte	W02
	.byte		v031
	.byte	W03
	.byte		v030
	.byte	W02
	.byte		v029
	.byte	W03
	.byte		v028
	.byte	W02
	.byte		v028
	.byte	W03
	.byte		v027
	.byte	W02
	.byte		v026
	.byte	W03
	.byte		v025
	.byte	W02
	.byte		v024
	.byte	W03
	.byte		v023
	.byte	W02
	.byte		v023
	.byte	W03
	.byte		v022
	.byte	W02
	.byte		v021
	.byte	W03
	.byte		v020
	.byte	W18
	.byte		v019
	.byte	W09
	.byte		v019
	.byte	W09
	.byte		v018
	.byte	W09
	.byte		v017
	.byte	W01
	.byte	PATT	
		.word	song037_8_6
	.byte		EOT	, Cn7
	.byte	VOL	, v008
	.byte	W06
song037_8_7:
	.byte	VOL	, v041
	.byte	MOD	, 0
	.byte		N03	, Dn4, v084
	.byte	W06
	.byte			Fs4, v096
	.byte	W06
	.byte			An4, v104
	.byte	W06
	.byte			Dn5, v116
	.byte	W06
	.byte			Fs5, v084
	.byte	W06
	.byte			An5, v096
	.byte	W06
	.byte			Dn6, v104
	.byte	W06
	.byte			Fs6, v116
	.byte	W06
	.byte			Dn6, v084
	.byte	W06
	.byte			An5, v096
	.byte	W06
	.byte			Fs5, v104
	.byte	W06
	.byte			Dn5, v116
	.byte	W06
	.byte			An4, v084
	.byte	W06
	.byte			Fs4, v096
	.byte	W06
	.byte			Dn4, v104
	.byte	W06
	.byte			An3, v116
	.byte	W06
	.byte	PEND
song037_8_8:
	.byte		N03	, Bn3, v084
	.byte	W06
	.byte			En4, v096
	.byte	W06
	.byte			Gn4, v104
	.byte	W06
	.byte			Bn4, v116
	.byte	W06
	.byte			En5, v084
	.byte	W06
	.byte			Gn5, v096
	.byte	W06
	.byte			Bn5, v104
	.byte	W06
	.byte			En6, v116
	.byte	W06
	.byte			Bn5, v084
	.byte	W06
	.byte			Gn5, v096
	.byte	W06
	.byte			En5, v104
	.byte	W06
	.byte			Bn4, v116
	.byte	W06
	.byte			Gn4, v084
	.byte	W06
	.byte			En4, v096
	.byte	W06
	.byte			Bn3, v104
	.byte	W06
	.byte			Gn3, v116
	.byte	W06
	.byte	PEND
song037_8_9:
	.byte		N03	, Bn3, v084
	.byte	W06
	.byte			Dn4, v096
	.byte	W06
	.byte			Gn4, v104
	.byte	W06
	.byte			Bn4, v116
	.byte	W06
	.byte			Dn5, v084
	.byte	W06
	.byte			Gn5, v096
	.byte	W06
	.byte			Bn5, v104
	.byte	W06
	.byte			Dn6, v116
	.byte	W06
	.byte			Bn5, v084
	.byte	W06
	.byte			Gn5, v096
	.byte	W06
	.byte			Dn5, v104
	.byte	W06
	.byte			Bn4, v116
	.byte	W06
	.byte			Gn4, v084
	.byte	W06
	.byte			Dn4, v096
	.byte	W06
	.byte			Bn3, v104
	.byte	W06
	.byte			Gn3, v116
	.byte	W06
	.byte	PEND
song037_8_10:
	.byte		N03	, An3, v084
	.byte	W06
	.byte			Gs3, v096
	.byte	W06
	.byte			An3, v104
	.byte	W06
	.byte			Bn3, v116
	.byte	W06
	.byte			Cs4, v084
	.byte	W06
	.byte			Bn3, v096
	.byte	W06
	.byte			Cs4, v104
	.byte	W06
	.byte			Dn4, v116
	.byte	W06
	.byte			En4, v084
	.byte	W06
	.byte			Ds4, v096
	.byte	W06
	.byte			En4, v104
	.byte	W06
	.byte			Fs4, v116
	.byte	W06
	.byte			Gn4, v084
	.byte	W06
	.byte			An4, v096
	.byte	W06
	.byte			Bn4, v104
	.byte	W06
	.byte			Cs5, v116
	.byte	W05
	.byte	VOL	, v037
	.byte	TUNE	, c_v+5
	.byte	W01
	.byte	PEND
	.byte	W96
	.byte	W96
	.byte	W96
	.byte	W96
	.byte	PATT	
		.word	song037_8_7
	.byte	PATT	
		.word	song037_8_8
	.byte	PATT	
		.word	song037_8_9
	.byte	PATT	
		.word	song037_8_10
	.byte	PATT	
		.word	song037_8_7
	.byte	PATT	
		.word	song037_8_8
	.byte	PATT	
		.word	song037_8_9
	.byte	PATT	
		.word	song037_8_10
	.byte	GOTO	
		.word	song037_8_11
	.byte	FINE

	@********************** Track  9 **********************@

	.global song037_9
song037_9:	@ 0x08281D2A
	.byte	KEYSH	, 0
song037_9_6:
	.byte	VOICE	, 5
	.byte	VOL	, v033
	.byte	TUNE	, c_v-10
	.byte	PAN	, c_v
	.byte	W96
	.byte	PEND
	.byte	W96
	.byte	W96
	.byte	W96
	.byte	W01
	.byte		N03	, Dn4, v084
	.byte	W05
	.byte			Fs4, v096
	.byte	W06
	.byte			An4, v104
	.byte	W06
	.byte			Dn5, v116
	.byte	W07
	.byte			Fs5, v084
	.byte	W05
	.byte			An5, v096
	.byte	W06
	.byte			Dn6, v104
	.byte	W06
	.byte			Fs6, v116
	.byte	W07
	.byte			Dn6, v084
	.byte	W05
	.byte			An5, v096
	.byte	W06
	.byte			Fs5, v104
	.byte	W06
	.byte			Dn5, v116
	.byte	W07
	.byte			An4, v084
	.byte	W05
	.byte			Fs4, v096
	.byte	W06
	.byte			Dn4, v104
	.byte	W06
	.byte			An3, v116
	.byte	W06
	.byte	W01
	.byte			Cn4, v084
	.byte	W05
	.byte			En4, v096
	.byte	W06
	.byte			Gn4, v104
	.byte	W06
	.byte			Cn5, v116
	.byte	W07
	.byte			En5, v084
	.byte	W05
	.byte			Gn5, v096
	.byte	W06
	.byte			Cn6, v104
	.byte	W06
	.byte			En6, v116
	.byte	W07
	.byte			Cn6, v084
	.byte	W05
	.byte			Gn5, v096
	.byte	W06
	.byte			En5, v104
	.byte	W06
	.byte			Cn5, v116
	.byte	W07
	.byte			Gn4, v084
	.byte	W05
	.byte			En4, v096
	.byte	W06
	.byte			Cn4, v104
	.byte	W06
	.byte			Gn3, v116
	.byte	W06
	.byte	W01
	.byte			Bn3, v084
	.byte	W05
	.byte			Dn4, v096
	.byte	W06
	.byte			Gn4, v104
	.byte	W06
	.byte			Bn4, v116
	.byte	W07
	.byte			Dn5, v084
	.byte	W05
	.byte			Gn5, v096
	.byte	W06
	.byte			Bn5, v104
	.byte	W06
	.byte			Dn6, v116
	.byte	W07
	.byte			An3, v084
	.byte	W05
	.byte			Dn4, v096
	.byte	W06
	.byte			En4, v104
	.byte	W06
	.byte			Gn4, v116
	.byte	W07
	.byte			An4, v084
	.byte	W05
	.byte			Dn5, v096
	.byte	W06
	.byte			En5, v104
	.byte	W06
	.byte			An5, v116
	.byte	W06
	.byte	W01
	.byte			As5, v084
	.byte	W05
	.byte			Fn5, v096
	.byte	W06
	.byte			Dn5, v104
	.byte	W06
	.byte			As4, v116
	.byte	W07
	.byte			Fn4, v084
	.byte	W05
	.byte			Dn4, v096
	.byte	W06
	.byte			As3, v104
	.byte	W06
	.byte			Fn3, v116
	.byte	W07
	.byte			As3, v084
	.byte	W05
	.byte			Dn4, v096
	.byte	W06
	.byte			Fn4, v104
	.byte	W06
	.byte			As4, v116
	.byte	W07
	.byte			Dn5, v084
	.byte	W05
	.byte			Fn5, v096
	.byte	W06
	.byte			As5, v104
	.byte	W06
	.byte			Dn6, v116
	.byte	W06
	.byte	W96
song037_9_1:
	.byte		N03	, En4, v076
	.byte		N03	, En5, v096
	.byte	W12
	.byte			Bn3
	.byte		N03	, Bn4, v116
	.byte	W12
	.byte			En4, v100
	.byte		N03	, En5, v120
	.byte	W12
	.byte			Bn3, v112
	.byte		N03	, Bn4, v127
	.byte	W12
	.byte			En4, v076
	.byte		N03	, En5, v096
	.byte	W12
	.byte			Bn3
	.byte		N03	, Bn4, v116
	.byte	W12
	.byte			En4, v100
	.byte		N03	, En5, v120
	.byte	W12
	.byte			Bn3, v112
	.byte		N03	, Bn4, v127
	.byte	W12
	.byte	PEND
	.byte	W96
song037_9_2:
	.byte	W03
	.byte		N03	, Cs4, v072
	.byte	W06
	.byte			Gn4, v064
	.byte	W06
	.byte			An4
	.byte	W06
	.byte			Gn4
	.byte	W06
	.byte			Cs4, v072
	.byte	W06
	.byte			Gn4, v076
	.byte	W06
	.byte			An4, v080
	.byte	W06
	.byte			Gn4, v064
	.byte	W06
	.byte			Cs4, v072
	.byte	W06
	.byte			Gn4, v064
	.byte	W06
	.byte			An4
	.byte	W06
	.byte			Gn4
	.byte	W06
	.byte			Cs4, v072
	.byte	W06
	.byte			Gn4, v076
	.byte	W06
	.byte			An4, v080
	.byte	W06
	.byte			Gn4, v064
	.byte	W03
	.byte	PEND
	.byte	W96
	.byte	PATT	
		.word	song037_9_1
	.byte	W96
	.byte	PATT	
		.word	song037_9_2
	.byte	VOL	, v028
	.byte	PAN	, c_v+40
	.byte	W01
	.byte		N03	, Fs4, v076
	.byte	W06
	.byte			Gn4, v084
	.byte	W06
	.byte			An4, v096
	.byte	W06
	.byte			Dn5, v104
	.byte	W12
	.byte			Dn5, v076
	.byte	W12
	.byte			Dn5, v056
	.byte	W12
	.byte			Dn5, v104
	.byte	W12
	.byte			Dn5, v056
	.byte	W06
	.byte		N12	, En5, v096
	.byte	W12
	.byte		N03	, Dn5, v104
	.byte	W06
	.byte			Dn5, v036
	.byte	W05
song037_9_4:
	.byte	W01
	.byte		N03	, Dn5, v024
	.byte	W06
	.byte			Dn5, v004
	.byte	W06
	.byte		N03	
	.byte	W06
	.byte		N03	
	.byte	W76
	.byte	W01
	.byte	PEND
song037_9_3:
	.byte	W01
	.byte		N03	, Fs4, v076
	.byte	W06
	.byte			Gn4, v084
	.byte	W06
	.byte			An4, v096
	.byte	W06
	.byte			Dn5, v104
	.byte	W12
	.byte			Dn5, v076
	.byte	W12
	.byte			Dn5, v056
	.byte	W12
	.byte			Dn5, v104
	.byte	W12
	.byte			Dn5, v056
	.byte	W06
	.byte		N12	, En5, v096
	.byte	W12
	.byte		N03	, Dn5, v104
	.byte	W06
	.byte			Dn5, v036
	.byte	W05
	.byte	PEND
song037_9_5:
	.byte	W01
	.byte		N03	, Dn5, v024
	.byte	W06
	.byte			En5, v076
	.byte	W06
	.byte			En5, v024
	.byte	W06
	.byte			Cs5, v096
	.byte	W06
	.byte			Cs5, v036
	.byte	W06
	.byte			An4, v084
	.byte	W06
	.byte			An4, v036
	.byte	W06
	.byte		N11	, Fn4, v064
	.byte	W12
	.byte		N03	, Gn5, v084
	.byte	W03
	.byte			Gn4, v036
	.byte	W03
	.byte			An5, v084
	.byte	W03
	.byte			An4, v036
	.byte	W03
	.byte			Gn5, v084
	.byte	W03
	.byte			Gn4, v036
	.byte	W03
	.byte			Cs5, v092
	.byte	W03
	.byte			Cs4, v040
	.byte	W03
	.byte			Gn5, v096
	.byte	W03
	.byte			Gn4, v044
	.byte	W03
	.byte			An5, v100
	.byte	W03
	.byte			An4, v052
	.byte	W03
	.byte			Gn5, v116
	.byte	W05
	.byte	PEND
	.byte	PATT	
		.word	song037_9_3
	.byte	PATT	
		.word	song037_9_4
	.byte	PATT	
		.word	song037_9_3
	.byte	PATT	
		.word	song037_9_5
	.byte	W96
	.byte	W96
	.byte	W96
	.byte	W96
	.byte	W96
	.byte	W96
	.byte	W96
	.byte	W96
	.byte	PATT	
		.word	song037_9_6
	.byte	W96
	.byte	W96
	.byte	W96
	.byte	VOL	, v041
	.byte	MOD	, 0
	.byte		N03	, Dn4, v084
	.byte	W06
	.byte			Fs4, v096
	.byte	W06
	.byte			An4, v104
	.byte	W06
	.byte			Dn5, v116
	.byte	W06
	.byte			Fs5, v084
	.byte	W06
	.byte			An5, v096
	.byte	W06
	.byte			Dn6, v104
	.byte	W06
	.byte			Fs6, v116
	.byte	W06
	.byte			Dn6, v084
	.byte	W06
	.byte			An5, v096
	.byte	W06
	.byte			Fs5, v104
	.byte	W06
	.byte			Dn5, v116
	.byte	W06
	.byte			An4, v084
	.byte	W06
	.byte			Fs4, v096
	.byte	W06
	.byte			Dn4, v104
	.byte	W06
	.byte			An3, v116
	.byte	W06
	.byte			Bn3, v084
	.byte	W06
	.byte			En4, v096
	.byte	W06
	.byte			Gn4, v104
	.byte	W06
	.byte			Bn4, v116
	.byte	W06
	.byte			En5, v084
	.byte	W06
	.byte			Gn5, v096
	.byte	W06
	.byte			Bn5, v104
	.byte	W06
	.byte			En6, v116
	.byte	W06
	.byte			Bn5, v084
	.byte	W06
	.byte			Gn5, v096
	.byte	W06
	.byte			En5, v104
	.byte	W06
	.byte			Bn4, v116
	.byte	W06
	.byte			Gn4, v084
	.byte	W06
	.byte			En4, v096
	.byte	W06
	.byte			Bn3, v104
	.byte	W06
	.byte			Gn3, v116
	.byte	W06
	.byte			Bn3, v084
	.byte	W06
	.byte			Dn4, v096
	.byte	W06
	.byte			Gn4, v104
	.byte	W06
	.byte			Bn4, v116
	.byte	W06
	.byte			Dn5, v084
	.byte	W06
	.byte			Gn5, v096
	.byte	W06
	.byte			Bn5, v104
	.byte	W06
	.byte			Dn6, v116
	.byte	W06
	.byte			Bn5, v084
	.byte	W06
	.byte			Gn5, v096
	.byte	W06
	.byte			Dn5, v104
	.byte	W06
	.byte			Bn4, v116
	.byte	W06
	.byte			Gn4, v084
	.byte	W06
	.byte			Dn4, v096
	.byte	W06
	.byte			Bn3, v104
	.byte	W06
	.byte			Gn3, v116
	.byte	W06
	.byte			An3, v084
	.byte	W06
	.byte			Gs3, v096
	.byte	W06
	.byte			An3, v104
	.byte	W06
	.byte			Bn3, v116
	.byte	W06
	.byte			Cs4, v084
	.byte	W06
	.byte			Bn3, v096
	.byte	W06
	.byte			Cs4, v104
	.byte	W06
	.byte			Dn4, v116
	.byte	W06
	.byte			En4, v084
	.byte	W06
	.byte			Ds4, v096
	.byte	W06
	.byte			En4, v104
	.byte	W06
	.byte			Fs4, v116
	.byte	W06
	.byte			Gn4, v084
	.byte	W06
	.byte			An4, v096
	.byte	W06
	.byte			Bn4, v104
	.byte	W06
	.byte			Cs5, v116
	.byte	W05
	.byte	VOL	, v037
	.byte	TUNE	, c_v+5
	.byte	W01
song037_9_7:
	.byte	VOL	, v041
	.byte	MOD	, 0
	.byte		N03	, An3, v084
	.byte	W06
	.byte			Dn4, v096
	.byte	W06
	.byte			Fs4, v104
	.byte	W06
	.byte			An4, v116
	.byte	W06
	.byte			Dn5, v084
	.byte	W06
	.byte			Fs5, v096
	.byte	W06
	.byte			An5, v104
	.byte	W06
	.byte			Dn6, v116
	.byte	W06
	.byte			An5, v084
	.byte	W06
	.byte			Fs5, v096
	.byte	W06
	.byte			Dn5, v104
	.byte	W06
	.byte			An4, v116
	.byte	W06
	.byte			Fs4, v084
	.byte	W06
	.byte			Dn4, v096
	.byte	W06
	.byte			An3, v104
	.byte	W06
	.byte			Fs3, v116
	.byte	W06
	.byte	PEND
song037_9_8:
	.byte		N03	, Gn3, v084
	.byte	W06
	.byte			Bn3, v096
	.byte	W06
	.byte			En4, v104
	.byte	W06
	.byte			Gn4, v116
	.byte	W06
	.byte			Bn4, v084
	.byte	W06
	.byte			En5, v096
	.byte	W06
	.byte			Gn5, v104
	.byte	W06
	.byte			Bn5, v116
	.byte	W06
	.byte			Gn5, v084
	.byte	W06
	.byte			En5, v096
	.byte	W06
	.byte			Bn4, v104
	.byte	W06
	.byte			Gn4, v116
	.byte	W06
	.byte			En4, v084
	.byte	W06
	.byte			Bn3, v096
	.byte	W06
	.byte			Gn3, v104
	.byte	W06
	.byte			En3, v116
	.byte	W06
	.byte	PEND
song037_9_9:
	.byte		N03	, Gn3, v084
	.byte	W06
	.byte			Bn3, v096
	.byte	W06
	.byte			Dn4, v104
	.byte	W06
	.byte			Gn4, v116
	.byte	W06
	.byte			Bn4, v084
	.byte	W06
	.byte			Dn5, v096
	.byte	W06
	.byte			Gn5, v104
	.byte	W06
	.byte			Bn5, v116
	.byte	W06
	.byte			Gn5, v084
	.byte	W06
	.byte			Dn5, v096
	.byte	W06
	.byte			Bn4, v104
	.byte	W06
	.byte			Gn4, v116
	.byte	W06
	.byte			Dn4, v084
	.byte	W06
	.byte			Bn3, v096
	.byte	W06
	.byte			Gn3, v104
	.byte	W06
	.byte			Dn3, v116
	.byte	W06
	.byte	PEND
song037_9_10:
	.byte		N03	, Fs3, v084
	.byte	W06
	.byte			En3, v096
	.byte	W06
	.byte			Fs3, v104
	.byte	W06
	.byte			Gn3, v116
	.byte	W06
	.byte			An3, v084
	.byte	W06
	.byte			Gs3, v096
	.byte	W06
	.byte			An3, v104
	.byte	W06
	.byte			Bn3, v116
	.byte	W06
	.byte			Cs4, v084
	.byte	W06
	.byte			Cn4, v096
	.byte	W06
	.byte			Cs4, v104
	.byte	W06
	.byte			Dn4, v116
	.byte	W06
	.byte			En4, v084
	.byte	W06
	.byte			Fs4, v096
	.byte	W06
	.byte			Gn4, v104
	.byte	W06
	.byte			An4, v116
	.byte	W05
	.byte	VOL	, v037
	.byte	TUNE	, c_v+5
	.byte	W01
	.byte	PEND
	.byte	PATT	
		.word	song037_9_7
	.byte	PATT	
		.word	song037_9_8
	.byte	PATT	
		.word	song037_9_9
	.byte	PATT	
		.word	song037_9_10
	.byte	GOTO	
		.word	song037_9_6
	.byte	FINE

	@********************** Track  10 **********************@

	.global song037_10
song037_10:	@ 0x082820E5
	.byte	KEYSH	, 0
song037_10_3:
	.byte	VOICE	, 89
	.byte	VOL	, v041
	.byte	W96
	.byte	W96
	.byte	W96
	.byte	W96
song037_10_1:
	.byte		N03	, Cn5, v084
	.byte	W30
	.byte			Cn5, v056
	.byte	W06
	.byte			Cn5, v084
	.byte	W06
	.byte			Cn5, v056
	.byte	W06
	.byte			Cn5, v084
	.byte	W24
	.byte		N03	
	.byte	W06
	.byte			Cn5, v056
	.byte	W06
	.byte			Cn5, v084
	.byte	W06
	.byte			Cn5, v056
	.byte	W06
	.byte	PEND
	.byte			Cn5, v084
	.byte	W30
	.byte			Cn5, v056
	.byte	W06
	.byte			Cn5, v084
	.byte	W06
	.byte			Cn5, v056
	.byte	W06
	.byte			Cn5, v084
	.byte	W06
	.byte			Cn5, v124
	.byte	W18
	.byte			Cn5, v084
	.byte	W06
	.byte			Cn5, v056
	.byte	W06
	.byte			Cn5, v084
	.byte	W06
	.byte		N03	
	.byte	W06
	.byte	PATT	
		.word	song037_10_1
	.byte	W96
	.byte	PATT	
		.word	song037_10_1
song037_10_2:
	.byte		N03	, Cn5, v084
	.byte	W30
	.byte			Cn5, v056
	.byte	W06
	.byte			Cn5, v084
	.byte	W06
	.byte			Cn5, v056
	.byte	W06
	.byte			Cn5, v084
	.byte	W12
	.byte		N03	
	.byte	W06
	.byte			Cn5, v056
	.byte	W06
	.byte			Cn5, v084
	.byte	W06
	.byte			Cn5, v056
	.byte	W06
	.byte			Cn5, v084
	.byte	W06
	.byte		N03	
	.byte	W06
	.byte	PEND
	.byte	PATT	
		.word	song037_10_1
	.byte	PATT	
		.word	song037_10_2
	.byte	PATT	
		.word	song037_10_1
	.byte	PATT	
		.word	song037_10_2
	.byte	PATT	
		.word	song037_10_1
	.byte	PATT	
		.word	song037_10_2
	.byte	PATT	
		.word	song037_10_1
	.byte	PATT	
		.word	song037_10_2
	.byte	PATT	
		.word	song037_10_1
	.byte	PATT	
		.word	song037_10_2
	.byte	PATT	
		.word	song037_10_1
	.byte	PATT	
		.word	song037_10_2
	.byte	PATT	
		.word	song037_10_1
	.byte	PATT	
		.word	song037_10_2
	.byte	W96
	.byte	W96
	.byte	W96
	.byte	W96
	.byte	W96
	.byte	W96
	.byte	W96
	.byte	W96
	.byte	PATT	
		.word	song037_10_1
	.byte	PATT	
		.word	song037_10_2
	.byte	PATT	
		.word	song037_10_1
	.byte	PATT	
		.word	song037_10_2
	.byte	PATT	
		.word	song037_10_1
	.byte	PATT	
		.word	song037_10_2
	.byte	PATT	
		.word	song037_10_1
	.byte	PATT	
		.word	song037_10_2
	.byte	PATT	
		.word	song037_10_1
	.byte	PATT	
		.word	song037_10_2
	.byte	PATT	
		.word	song037_10_1
	.byte	PATT	
		.word	song037_10_2
	.byte	PATT	
		.word	song037_10_1
	.byte	PATT	
		.word	song037_10_2
	.byte		N03	, Cn5, v084
	.byte	W30
	.byte			Cn5, v056
	.byte	W06
	.byte			Cn5, v084
	.byte	W06
	.byte			Cn5, v056
	.byte	W06
	.byte			Cn5, v084
	.byte	W24
	.byte		N03	
	.byte	W06
	.byte			Cn5, v056
	.byte	W18
	.byte	W12
	.byte			Cn5, v084
	.byte	W24
	.byte		N03	
	.byte	W24
	.byte		N03	
	.byte	W06
	.byte			Cn5, v056
	.byte	W06
	.byte			Cn5, v084
	.byte	W06
	.byte			Cn5, v056
	.byte	W06
	.byte			Cn5, v084
	.byte	W06
	.byte		N03	
	.byte	W06
	.byte	GOTO	
		.word	song037_10_3
	.byte	FINE

	@********************** Track  11 **********************@

	.global song037_11
song037_11:	@ 0x08282219
	.byte	KEYSH	, 0
song037_11_3:
	.byte	VOICE	, 91
	.byte	VOL	, v041
	.byte	W96
	.byte	W96
	.byte	W96
	.byte	W96
song037_11_1:
	.byte	W12
	.byte		N18	, Cn6, v084
	.byte	W48
	.byte		N12	
	.byte	W36
	.byte	PEND
	.byte	W12
	.byte		N18	
	.byte	W84
	.byte	PATT	
		.word	song037_11_1
	.byte	W96
	.byte	PATT	
		.word	song037_11_1
song037_11_2:
	.byte	W12
	.byte		N18	, Cn6, v084
	.byte	W42
	.byte		N06	
	.byte	W42
	.byte	PEND
	.byte	PATT	
		.word	song037_11_1
	.byte	PATT	
		.word	song037_11_2
	.byte	PATT	
		.word	song037_11_1
	.byte	PATT	
		.word	song037_11_2
	.byte	PATT	
		.word	song037_11_1
	.byte	PATT	
		.word	song037_11_2
	.byte	PATT	
		.word	song037_11_1
	.byte	PATT	
		.word	song037_11_2
	.byte	PATT	
		.word	song037_11_1
	.byte	PATT	
		.word	song037_11_2
	.byte	PATT	
		.word	song037_11_1
	.byte	PATT	
		.word	song037_11_2
	.byte	PATT	
		.word	song037_11_1
	.byte	PATT	
		.word	song037_11_2
	.byte	W96
	.byte	W96
	.byte	W96
	.byte	W96
	.byte	W96
	.byte	W96
	.byte	W96
	.byte	W96
	.byte	PATT	
		.word	song037_11_1
	.byte	PATT	
		.word	song037_11_2
	.byte	PATT	
		.word	song037_11_1
	.byte	PATT	
		.word	song037_11_2
	.byte	PATT	
		.word	song037_11_1
	.byte	PATT	
		.word	song037_11_2
	.byte	PATT	
		.word	song037_11_1
	.byte	PATT	
		.word	song037_11_2
	.byte	PATT	
		.word	song037_11_1
	.byte	PATT	
		.word	song037_11_2
	.byte	PATT	
		.word	song037_11_1
	.byte	PATT	
		.word	song037_11_2
	.byte	PATT	
		.word	song037_11_1
	.byte	PATT	
		.word	song037_11_2
	.byte	W12
	.byte		N18	, Cn6, v084
	.byte	W48
	.byte		N12	
	.byte	W24
	.byte		N24	
	.byte	W12
	.byte	W96
	.byte	GOTO	
		.word	song037_11_3
	.byte	FINE

	.align 2
	.global song037
song037:	@ 0x082822E8
	.byte	11		@ trackCount
	.byte	0		@ blockCount
	.byte	20		@ priority
	.byte	128		@ reverb

	.word	voicegroup018		@ voicegroup/tone

	.word	song037_1		@ track
	.word	song037_2		@ track
	.word	song037_3		@ track
	.word	song037_4		@ track
	.word	song037_5		@ track
	.word	song037_6		@ track
	.word	song037_7		@ track
	.word	song037_8		@ track
	.word	song037_9		@ track
	.word	song037_10		@ track
	.word	song037_11		@ track
