	.include "MPlayDef.s"

	.section .rodata

	@********************** Track  1 **********************@

	.align 2
	.global song020_1
song020_1:	@ 0x0826E5C4
	.byte	KEYSH	, 0
	.byte	TEMPO	, 170
	.byte	VOICE	, 127
	.byte	VOL	, v085
	.byte	PAN	, c_v
	.byte	W03
	.byte	TEMPO	, 85
	.byte	VOL	, v085
	.byte	PAN	, c_v
	.byte		N11	, En6, v127
	.byte	W12
	.byte			Cs6
	.byte	W12
	.byte			En6
	.byte	W12
	.byte			Cs6
	.byte	W12
	.byte		N05	, En6
	.byte	W06
	.byte		N11	, Cs6
	.byte	W12
	.byte		N05	, Cs6, v096
	.byte	W06
	.byte		N11	, En6, v127
	.byte	W11
	.byte			Cs6
	.byte	W12
	.byte			En6
	.byte	W01
song020_1_5:
	.byte	W12
	.byte		N11	, Cs6, v127
	.byte	W12
	.byte			En6
	.byte	W12
	.byte			Cs6
	.byte	W12
	.byte		N05	, En6
	.byte	W06
	.byte		N11	, Cs6
	.byte	W12
	.byte		N05	, Cs6, v096
	.byte	W06
	.byte		N11	, En6, v127
	.byte	W11
	.byte			Cs6
	.byte	W12
	.byte			En6
	.byte	W01
	.byte	PEND
song020_1_6:
	.byte	W12
	.byte		N11	, Cs6, v127
	.byte	W12
	.byte			En6
	.byte	W12
	.byte			Cs6
	.byte	W12
	.byte		N05	, En6
	.byte	W06
	.byte		N09	, Cs6
	.byte	W12
	.byte		N05	, Cs6, v096
	.byte	W06
	.byte		N11	, En6, v127
	.byte	W11
	.byte			Cs6
	.byte	W12
	.byte			En6
	.byte	W01
	.byte	PEND
song020_1_3:
	.byte	W12
	.byte		N11	, En6, v127
	.byte	W12
	.byte		N05	, Cs6, v096
	.byte	W06
	.byte			En6, v127
	.byte	W06
	.byte			Gn6
	.byte	W06
	.byte			Cs6
	.byte	W06
	.byte		N11	, En6
	.byte	W12
	.byte		N11	
	.byte	W12
	.byte		N05	
	.byte	W06
	.byte			Gs6
	.byte	W06
	.byte			Fn6
	.byte	W06
	.byte			En6
	.byte	W06
	.byte	PEND
song020_1_1:
	.byte		N11	, Cs6, v127
	.byte	W12
	.byte		N11	
	.byte	W12
	.byte		N12	, En6
	.byte	W12
	.byte		N11	, Cs6
	.byte	W24
	.byte		N11	
	.byte	W12
	.byte			En6
	.byte	W12
	.byte		N23	, Cs6, v120
	.byte	W12
	.byte	PEND
song020_1_2:
	.byte	W12
	.byte		N11	, Cs6, v096
	.byte	W12
	.byte			En6, v127
	.byte	W12
	.byte			Cs6
	.byte	W24
	.byte		N11	
	.byte	W11
	.byte		N23	, En6
	.byte	W24
	.byte	W01
	.byte	PEND
	.byte	PATT	
		.word	song020_1_1
	.byte	PATT	
		.word	song020_1_2
song020_1_8:
	.byte	PATT	
		.word	song020_1_1
	.byte	PATT	
		.word	song020_1_2
song020_1_4:
	.byte		N11	, Cs6, v127
	.byte	W12
	.byte		N11	
	.byte	W12
	.byte		N12	, En6
	.byte	W12
	.byte		N11	, Cs6
	.byte	W24
	.byte		N11	
	.byte	W12
	.byte			En6
	.byte	W12
	.byte			Cs6, v120
	.byte	W11
	.byte			En6, v127
	.byte	W01
	.byte	PEND
	.byte	PATT	
		.word	song020_1_3
	.byte	PATT	
		.word	song020_1_1
	.byte	PATT	
		.word	song020_1_2
	.byte	PATT	
		.word	song020_1_1
	.byte	PATT	
		.word	song020_1_2
	.byte	PATT	
		.word	song020_1_1
	.byte	PATT	
		.word	song020_1_2
	.byte	PATT	
		.word	song020_1_4
	.byte	PATT	
		.word	song020_1_3
	.byte	PATT	
		.word	song020_1_1
	.byte	PATT	
		.word	song020_1_2
	.byte	PATT	
		.word	song020_1_1
	.byte	PATT	
		.word	song020_1_2
	.byte	PATT	
		.word	song020_1_1
	.byte	PATT	
		.word	song020_1_2
	.byte	PATT	
		.word	song020_1_4
	.byte	PATT	
		.word	song020_1_3
song020_1_7:
	.byte	VOL	, v085
	.byte	PAN	, c_v
	.byte		N11	, En6, v127
	.byte	W12
	.byte			Cs6
	.byte	W12
	.byte			En6
	.byte	W12
	.byte			Cs6
	.byte	W12
	.byte		N05	, En6
	.byte	W06
	.byte		N11	, Cs6
	.byte	W12
	.byte		N05	, Cs6, v096
	.byte	W06
	.byte		N11	, En6, v127
	.byte	W11
	.byte			Cs6
	.byte	W12
	.byte			En6
	.byte	W01
	.byte	PEND
	.byte	PATT	
		.word	song020_1_5
	.byte	PATT	
		.word	song020_1_6
	.byte	PATT	
		.word	song020_1_3
	.byte	PATT	
		.word	song020_1_7
	.byte	PATT	
		.word	song020_1_5
	.byte	PATT	
		.word	song020_1_6
	.byte	PATT	
		.word	song020_1_3
	.byte	PATT	
		.word	song020_1_1
	.byte	PATT	
		.word	song020_1_2
	.byte	PATT	
		.word	song020_1_1
	.byte	PATT	
		.word	song020_1_2
	.byte	PATT	
		.word	song020_1_1
	.byte	PATT	
		.word	song020_1_2
	.byte	PATT	
		.word	song020_1_4
	.byte	PATT	
		.word	song020_1_3
	.byte	PATT	
		.word	song020_1_7
	.byte	PATT	
		.word	song020_1_5
	.byte	PATT	
		.word	song020_1_6
	.byte	PATT	
		.word	song020_1_3
	.byte	PATT	
		.word	song020_1_7
	.byte	PATT	
		.word	song020_1_5
	.byte	PATT	
		.word	song020_1_6
	.byte	PATT	
		.word	song020_1_3
	.byte	PATT	
		.word	song020_1_7
	.byte	PATT	
		.word	song020_1_3
	.byte	PATT	
		.word	song020_1_7
	.byte	PATT	
		.word	song020_1_3
	.byte	PATT	
		.word	song020_1_1
	.byte	PATT	
		.word	song020_1_2
	.byte	PATT	
		.word	song020_1_1
	.byte	PATT	
		.word	song020_1_2
	.byte	GOTO	
		.word	song020_1_8
	.byte	PATT	
		.word	song020_1_1
	.byte	W11
	.byte	FINE

	@********************** Track  2 **********************@

	.global song020_2
song020_2:	@ 0x0826E7B5
	.byte	KEYSH	, 0
	.byte	VOICE	, 60
	.byte	VOL	, v053
	.byte	PAN	, c_v-19
	.byte	W03
song020_2_1:
	.byte	W12
	.byte		N05	, Ds7, v052
	.byte	W06
	.byte		N03	, Bn6, v020
	.byte	W18
	.byte		N05	, Ds7, v024
	.byte	W06
	.byte		N03	, Bn6, v004
	.byte	W18
	.byte		N05	, Ds7, v052
	.byte	W06
	.byte		N03	, Bn6, v020
	.byte	W18
	.byte		N05	, Ds7, v052
	.byte	W06
	.byte		N03	, Bn6, v020
	.byte	W06
	.byte	PEND
	.byte	PATT	
		.word	song020_2_1
	.byte	PATT	
		.word	song020_2_1
song020_2_4:
	.byte	W12
	.byte		N05	, Ds7, v052
	.byte	W06
	.byte		N03	, Bn6, v020
	.byte	W18
	.byte		N05	, Ds7, v024
	.byte	W06
	.byte		N03	, Bn6, v004
	.byte	W06
	.byte		N05	, Ds7, v052
	.byte	W06
	.byte		N06	, Bn6, v064
	.byte	W18
	.byte		N05	, Ds7, v052
	.byte	W06
	.byte		N03	, Bn6, v020
	.byte	W18
	.byte	PEND
song020_2_2:
	.byte		N05	, Ds7, v072
	.byte	W06
	.byte		N03	, Bn6, v040
	.byte	W18
	.byte		N05	, Ds7, v044
	.byte	W06
	.byte		N03	, Bn6, v016
	.byte	W18
	.byte		N05	, Ds7, v072
	.byte	W06
	.byte		N03	, Bn6, v040
	.byte	W18
	.byte		N05	, Ds7, v072
	.byte	W06
	.byte		N03	, Bn6, v040
	.byte	W18
	.byte	PEND
	.byte	PATT	
		.word	song020_2_2
	.byte	PATT	
		.word	song020_2_2
	.byte	PATT	
		.word	song020_2_2
song020_2_5:
	.byte	PATT	
		.word	song020_2_2
	.byte	PATT	
		.word	song020_2_2
	.byte	PATT	
		.word	song020_2_2
	.byte	PATT	
		.word	song020_2_2
	.byte	PATT	
		.word	song020_2_2
	.byte	PATT	
		.word	song020_2_2
	.byte	PATT	
		.word	song020_2_2
	.byte	PATT	
		.word	song020_2_2
	.byte	PATT	
		.word	song020_2_2
	.byte	PATT	
		.word	song020_2_2
	.byte	PATT	
		.word	song020_2_2
	.byte	PATT	
		.word	song020_2_2
	.byte	PATT	
		.word	song020_2_2
	.byte	PATT	
		.word	song020_2_2
	.byte	PATT	
		.word	song020_2_2
	.byte	PATT	
		.word	song020_2_2
	.byte	PATT	
		.word	song020_2_2
	.byte	PATT	
		.word	song020_2_2
	.byte	PATT	
		.word	song020_2_2
	.byte	PATT	
		.word	song020_2_2
song020_2_3:
	.byte	W12
	.byte		N05	, Ds7, v044
	.byte	W06
	.byte		N03	, Bn6, v016
	.byte	W18
	.byte		N05	, Ds7, v072
	.byte	W06
	.byte		N03	, Bn6, v040
	.byte	W18
	.byte		N05	, Ds7, v072
	.byte	W06
	.byte		N03	, Bn6, v040
	.byte	W18
	.byte		N05	, Ds7, v072
	.byte	W06
	.byte		N03	, Bn6, v040
	.byte	W06
	.byte	PEND
	.byte	PATT	
		.word	song020_2_3
	.byte	PATT	
		.word	song020_2_3
	.byte	PATT	
		.word	song020_2_3
	.byte	PATT	
		.word	song020_2_3
	.byte	PATT	
		.word	song020_2_3
	.byte	PATT	
		.word	song020_2_3
	.byte	PATT	
		.word	song020_2_3
	.byte	PATT	
		.word	song020_2_2
	.byte	PATT	
		.word	song020_2_2
	.byte	PATT	
		.word	song020_2_2
	.byte	PATT	
		.word	song020_2_2
	.byte	PATT	
		.word	song020_2_2
	.byte	PATT	
		.word	song020_2_2
	.byte	PATT	
		.word	song020_2_2
	.byte	PATT	
		.word	song020_2_2
	.byte	PATT	
		.word	song020_2_1
	.byte	PATT	
		.word	song020_2_1
	.byte	PATT	
		.word	song020_2_1
	.byte	PATT	
		.word	song020_2_4
	.byte	PATT	
		.word	song020_2_1
	.byte	PATT	
		.word	song020_2_1
	.byte	PATT	
		.word	song020_2_1
	.byte	PATT	
		.word	song020_2_4
	.byte	PATT	
		.word	song020_2_1
	.byte	PATT	
		.word	song020_2_4
	.byte	PATT	
		.word	song020_2_1
	.byte	PATT	
		.word	song020_2_4
	.byte	PATT	
		.word	song020_2_2
	.byte	PATT	
		.word	song020_2_2
	.byte	PATT	
		.word	song020_2_2
	.byte	PATT	
		.word	song020_2_2
	.byte	GOTO	
		.word	song020_2_5
	.byte		N05	, Ds7, v072
	.byte	W06
	.byte		N03	, Bn6, v040
	.byte	W18
	.byte		N05	, Ds7, v044
	.byte	W06
	.byte		N03	, Bn6, v016
	.byte	W18
	.byte		N05	, Ds7, v072
	.byte	W06
	.byte		N03	, Bn6, v040
	.byte	W18
	.byte		N05	, Ds7, v072
	.byte	W06
	.byte		N03	, Bn6, v040
	.byte	W03
	.byte	FINE

	@********************** Track  3 **********************@

	.global song020_3
song020_3:	@ 0x0826E983
	.byte	KEYSH	, 0
	.byte	VOICE	, 61
	.byte	VOL	, v074
	.byte	PAN	, c_v-19
	.byte	W03
song020_3_1:
	.byte		N12	, Gn7, v068
	.byte	W24
	.byte		N12	
	.byte	W24
	.byte		N12	
	.byte	W24
	.byte		N12	
	.byte	W24
	.byte	PEND
	.byte	PATT	
		.word	song020_3_1
	.byte	PATT	
		.word	song020_3_1
song020_3_4:
	.byte		N12	, Gn7, v068
	.byte	W24
	.byte		N12	
	.byte	W36
	.byte			Gn7, v088
	.byte	W24
	.byte			Gn7, v068
	.byte	W12
	.byte	PEND
song020_3_2:
	.byte	W12
	.byte		N12	, Gn7, v068
	.byte	W24
	.byte		N12	
	.byte	W24
	.byte		N12	
	.byte	W24
	.byte		N12	
	.byte	W12
	.byte	PEND
	.byte	PATT	
		.word	song020_3_2
	.byte	PATT	
		.word	song020_3_2
	.byte	PATT	
		.word	song020_3_2
song020_3_5:
	.byte	PATT	
		.word	song020_3_2
	.byte	PATT	
		.word	song020_3_2
	.byte	PATT	
		.word	song020_3_2
song020_3_3:
	.byte	W12
	.byte		N12	, Gn7, v068
	.byte	W24
	.byte		N12	
	.byte	W24
	.byte		N12	
	.byte	W24
	.byte		N11	
	.byte	W12
	.byte	PEND
	.byte	PATT	
		.word	song020_3_2
	.byte	PATT	
		.word	song020_3_2
	.byte	PATT	
		.word	song020_3_2
	.byte	PATT	
		.word	song020_3_2
	.byte	PATT	
		.word	song020_3_2
	.byte	PATT	
		.word	song020_3_2
	.byte	PATT	
		.word	song020_3_2
	.byte	PATT	
		.word	song020_3_3
	.byte	PATT	
		.word	song020_3_2
	.byte	PATT	
		.word	song020_3_2
	.byte	PATT	
		.word	song020_3_2
	.byte	PATT	
		.word	song020_3_2
	.byte	PATT	
		.word	song020_3_2
	.byte	PATT	
		.word	song020_3_2
	.byte	PATT	
		.word	song020_3_2
	.byte	PATT	
		.word	song020_3_3
	.byte	PATT	
		.word	song020_3_1
	.byte	PATT	
		.word	song020_3_1
	.byte	PATT	
		.word	song020_3_1
	.byte	PATT	
		.word	song020_3_1
	.byte	PATT	
		.word	song020_3_1
	.byte	PATT	
		.word	song020_3_1
	.byte	PATT	
		.word	song020_3_1
	.byte		N12	, Gn7, v068
	.byte	W24
	.byte		N12	
	.byte	W24
	.byte		N12	
	.byte	W24
	.byte		N11	
	.byte	W24
	.byte	PATT	
		.word	song020_3_2
	.byte	PATT	
		.word	song020_3_2
	.byte	PATT	
		.word	song020_3_2
	.byte	PATT	
		.word	song020_3_2
	.byte	PATT	
		.word	song020_3_2
	.byte	PATT	
		.word	song020_3_2
	.byte	PATT	
		.word	song020_3_2
	.byte	PATT	
		.word	song020_3_3
	.byte	PATT	
		.word	song020_3_1
	.byte	PATT	
		.word	song020_3_1
	.byte	PATT	
		.word	song020_3_1
	.byte	PATT	
		.word	song020_3_4
	.byte	PATT	
		.word	song020_3_1
	.byte	PATT	
		.word	song020_3_1
	.byte	PATT	
		.word	song020_3_1
	.byte	PATT	
		.word	song020_3_4
	.byte	PATT	
		.word	song020_3_1
	.byte	PATT	
		.word	song020_3_4
	.byte	PATT	
		.word	song020_3_1
	.byte	PATT	
		.word	song020_3_4
	.byte	PATT	
		.word	song020_3_2
	.byte	PATT	
		.word	song020_3_2
	.byte	PATT	
		.word	song020_3_2
	.byte	PATT	
		.word	song020_3_2
	.byte	GOTO	
		.word	song020_3_5
	.byte	PATT	
		.word	song020_3_2
	.byte	FINE

	@********************** Track  4 **********************@

	.global song020_4
song020_4:	@ 0x0826EAE4
	.byte	KEYSH	, 0
	.byte	VOICE	, 46
	.byte	VOL	, v081
	.byte	PAN	, c_v-6
	.byte	W03
song020_4_10:
	.byte		N09	, Dn1, v100
	.byte	W24
	.byte		N24	
	.byte	W36
	.byte		N12	
	.byte	W24
	.byte			En1
	.byte	W12
	.byte	PEND
song020_4_11:
	.byte	W12
	.byte		N05	, En1, v100
	.byte	W12
	.byte		N12	, Gn1
	.byte	W12
	.byte		N06	, En1
	.byte	W12
	.byte		N12	, Cn2
	.byte	W12
	.byte			Dn2
	.byte	W12
	.byte		N24	, En2
	.byte	W24
	.byte	PEND
song020_4_12:
	.byte		N14	, Fn1, v100
	.byte	W24
	.byte		N23	
	.byte	W36
	.byte		N12	
	.byte	W24
	.byte			Gn1
	.byte	W12
	.byte	PEND
song020_4_13:
	.byte	W12
	.byte		N11	, Gn2, v100
	.byte	W12
	.byte			Dn2
	.byte	W12
	.byte			Gn1
	.byte	W12
	.byte			Bn1
	.byte	W12
	.byte			Dn2
	.byte	W12
	.byte			Gn2
	.byte	W12
	.byte			Gn1
	.byte	W12
	.byte	PEND
song020_4_6:
	.byte		N24	, An1, v100
	.byte	W24
	.byte		N11	, Gn1
	.byte	W12
	.byte		N16	, An1
	.byte	W24
	.byte		N11	, Gn1
	.byte	W12
	.byte			An1
	.byte	W12
	.byte			Gn1
	.byte	W12
	.byte	PEND
song020_4_1:
	.byte		N06	, Dn2, v100
	.byte	W12
	.byte		N11	
	.byte	W12
	.byte			Cs2
	.byte	W12
	.byte		N18	, Dn2
	.byte	W24
	.byte		N11	, Cs2
	.byte	W12
	.byte			Dn2
	.byte	W11
	.byte			An1
	.byte	W13
	.byte	PEND
song020_4_3:
	.byte		N06	, En1, v100
	.byte	W12
	.byte		N11	
	.byte	W12
	.byte			Dn1
	.byte	W12
	.byte			En1
	.byte	W24
	.byte			Dn1
	.byte	W12
	.byte			En1
	.byte	W12
	.byte			Dn1
	.byte	W12
	.byte	PEND
song020_4_4:
	.byte		N06	, An1, v100
	.byte	W12
	.byte		N18	
	.byte	W18
	.byte		N06	, En1
	.byte	W06
	.byte		N18	, Gn1
	.byte	W24
	.byte		N11	
	.byte	W12
	.byte		N24	, En1
	.byte	W24
	.byte	PEND
song020_4_2:
	.byte		N06	, An1, v100
	.byte	W12
	.byte		N11	
	.byte	W12
	.byte			Gn1
	.byte	W12
	.byte		N16	, An1
	.byte	W24
	.byte		N11	, Gn1
	.byte	W12
	.byte			An1
	.byte	W12
	.byte			Gn1
	.byte	W12
	.byte	PEND
	.byte	PATT	
		.word	song020_4_1
song020_4_7:
	.byte		N06	, Gn1, v100
	.byte	W12
	.byte		N11	
	.byte	W12
	.byte			Fs1
	.byte	W12
	.byte			Gn1
	.byte	W24
	.byte		N11	
	.byte	W12
	.byte			Fs1
	.byte	W12
	.byte			Gn1
	.byte	W12
	.byte	PEND
song020_4_5:
	.byte		N05	, En1, v100
	.byte	W12
	.byte		N11	
	.byte	W12
	.byte		N06	, Fs1
	.byte	W12
	.byte		N11	
	.byte	W12
	.byte		N06	, Gn1
	.byte	W12
	.byte		N11	
	.byte	W12
	.byte		N06	, Gs1
	.byte	W12
	.byte		N11	
	.byte	W12
	.byte	PEND
	.byte	PATT	
		.word	song020_4_2
	.byte	PATT	
		.word	song020_4_1
	.byte	PATT	
		.word	song020_4_3
	.byte	PATT	
		.word	song020_4_4
	.byte	PATT	
		.word	song020_4_2
	.byte		N06	, Dn2, v100
	.byte	W12
	.byte		N12	
	.byte	W12
	.byte		N11	, Cs2
	.byte	W12
	.byte		N15	, Dn2
	.byte	W24
	.byte		N13	, Cs2
	.byte	W12
	.byte			Dn2
	.byte	W12
	.byte		N10	, An1
	.byte	W12
song020_4_8:
	.byte		N05	, Gn1, v100
	.byte	W12
	.byte		N11	
	.byte	W12
	.byte			Fs1
	.byte	W12
	.byte		N15	, Gn1
	.byte	W24
	.byte		N12	
	.byte	W12
	.byte		N11	, Fs1
	.byte	W12
	.byte			Gn1
	.byte	W12
	.byte	PEND
	.byte	PATT	
		.word	song020_4_5
	.byte	PATT	
		.word	song020_4_6
	.byte	PATT	
		.word	song020_4_1
	.byte	PATT	
		.word	song020_4_3
	.byte	PATT	
		.word	song020_4_4
	.byte	PATT	
		.word	song020_4_2
	.byte	PATT	
		.word	song020_4_1
	.byte	PATT	
		.word	song020_4_7
song020_4_9:
	.byte		N05	, En2, v100
	.byte	W12
	.byte		N11	
	.byte	W12
	.byte		N06	, Dn2
	.byte	W12
	.byte		N11	
	.byte	W12
	.byte		N06	, Cs2
	.byte	W12
	.byte		N11	
	.byte	W12
	.byte		N06	, Bn1
	.byte	W12
	.byte		N11	
	.byte	W12
	.byte	PEND
	.byte		N06	, Dn2
	.byte	W12
	.byte		N11	
	.byte	W12
	.byte			Cs2
	.byte	W12
	.byte		N16	, Dn2
	.byte	W24
	.byte		N11	, Cs2
	.byte	W12
	.byte			Dn2
	.byte	W12
	.byte			An1
	.byte	W12
	.byte		N06	, Dn2
	.byte	W12
	.byte		N11	
	.byte	W12
	.byte			Cs2
	.byte	W12
	.byte		N18	, Dn2
	.byte	W24
	.byte		N11	
	.byte	W12
	.byte			Bn1
	.byte	W11
	.byte			En1
	.byte	W13
	.byte		N06	, An1
	.byte	W12
	.byte		N11	
	.byte	W12
	.byte			Gn1
	.byte	W12
	.byte			An1
	.byte	W24
	.byte			Gn1
	.byte	W12
	.byte			An1
	.byte	W12
	.byte			Gn1
	.byte	W12
	.byte		N06	, An1
	.byte	W12
	.byte		N18	
	.byte	W18
	.byte		N06	, Fs1
	.byte	W06
	.byte		N18	, An1
	.byte	W24
	.byte		N11	
	.byte	W12
	.byte			Fs1
	.byte	W11
	.byte			Dn1
	.byte	W13
	.byte		N06	, Dn2
	.byte	W12
	.byte		N11	
	.byte	W12
	.byte			Cn2
	.byte	W12
	.byte		N16	, Dn2
	.byte	W24
	.byte		N11	, Cn2
	.byte	W12
	.byte			Dn2
	.byte	W12
	.byte			An1
	.byte	W12
	.byte		N06	, Dn2
	.byte	W12
	.byte		N12	
	.byte	W12
	.byte		N11	, Cn2
	.byte	W12
	.byte		N15	, Dn2
	.byte	W24
	.byte		N13	, Cn2
	.byte	W12
	.byte			Dn2
	.byte	W12
	.byte		N10	, An1
	.byte	W12
	.byte	PATT	
		.word	song020_4_8
	.byte	PATT	
		.word	song020_4_5
	.byte	PATT	
		.word	song020_4_6
	.byte	PATT	
		.word	song020_4_1
	.byte	PATT	
		.word	song020_4_3
	.byte	PATT	
		.word	song020_4_4
	.byte	PATT	
		.word	song020_4_2
	.byte	PATT	
		.word	song020_4_1
	.byte	PATT	
		.word	song020_4_7
	.byte	PATT	
		.word	song020_4_9
	.byte	PATT	
		.word	song020_4_10
	.byte	PATT	
		.word	song020_4_11
	.byte	PATT	
		.word	song020_4_12
	.byte	PATT	
		.word	song020_4_13
	.byte		N09	, An1, v100
	.byte	W24
	.byte		N24	
	.byte	W36
	.byte		N12	
	.byte	W24
	.byte			As1
	.byte	W12
	.byte	W12
	.byte		N05	
	.byte	W12
	.byte		N12	, Dn2
	.byte	W12
	.byte		N06	, As1
	.byte	W12
	.byte		N12	, Fn2
	.byte	W12
	.byte			Gn2
	.byte	W12
	.byte		N24	, As2
	.byte	W24
	.byte		N14	, Cn2
	.byte	W24
	.byte		N23	
	.byte	W36
	.byte		N12	
	.byte	W24
	.byte			Dn2
	.byte	W12
	.byte	W12
	.byte		N11	, Dn3
	.byte	W12
	.byte			An2
	.byte	W12
	.byte			Dn2
	.byte	W12
	.byte			Fs2
	.byte	W12
	.byte			An2
	.byte	W12
	.byte			Dn3
	.byte	W12
	.byte			Dn2
	.byte	W12
song020_4_14:
	.byte		N09	, En1, v100
	.byte	W24
	.byte		N24	
	.byte	W36
	.byte		N12	
	.byte	W24
	.byte		N12	
	.byte	W12
	.byte	PEND
	.byte	PATT	
		.word	song020_4_11
	.byte	PATT	
		.word	song020_4_14
	.byte	PATT	
		.word	song020_4_11
	.byte	PATT	
		.word	song020_4_6
	.byte	PATT	
		.word	song020_4_1
	.byte	PATT	
		.word	song020_4_3
	.byte	PATT	
		.word	song020_4_4
	.byte	GOTO	
		.word	song020_4_2
	.byte		N06	, An1, v100
	.byte	W12
	.byte		N11	
	.byte	W12
	.byte			Gn1
	.byte	W12
	.byte		N16	, An1
	.byte	W24
	.byte		N11	, Gn1
	.byte	W12
	.byte			An1
	.byte	W12
	.byte			Gn1
	.byte	W11
	.byte	FINE

	@********************** Track  5 **********************@

	.global song020_5
song020_5:	@ 0x0826ED53
	.byte	KEYSH	, 0
	.byte	VOICE	, 70
	.byte	VOL	, v070
	.byte	PAN	, c_v+36
	.byte	W03
song020_5_1:
	.byte	W92
	.byte	W01
	.byte		N03	, Cn2, v072
	.byte	W03
	.byte	PEND
	.byte	W12
	.byte		N05	, Cn3
	.byte		N12	, Dn3
	.byte	W15
	.byte		N03	, Cn2
	.byte	W06
	.byte		N05	, Dn3
	.byte	W15
	.byte		N11	
	.byte	W12
	.byte		N03	, Cn2
	.byte	W06
	.byte		N24	, Fn3
	.byte	W30
song020_5_2:
	.byte	W92
	.byte	W01
	.byte		N03	, An1, v072
	.byte	W03
	.byte	PEND
	.byte	W12
	.byte		N05	, As2
	.byte		N12	, Cn3
	.byte	W15
	.byte		N03	, An1
	.byte	W06
	.byte		N05	, Cn3
	.byte	W15
	.byte		N11	
	.byte	W12
	.byte		N02	, An1
	.byte	W06
	.byte		N24	, Cn3
	.byte	W30
	.byte	W96
	.byte	W96
	.byte	W96
	.byte	W96
song020_5_9:
	.byte	W96
	.byte	W96
	.byte	W96
	.byte	W96
	.byte	W96
	.byte	W96
	.byte	W96
	.byte	W96
	.byte	W96
	.byte	W96
	.byte	PATT	
		.word	song020_5_1
song020_5_7:
	.byte	W12
	.byte		N12	, Dn3, v072
	.byte	W15
	.byte		N03	, Cn2
	.byte	W06
	.byte		N05	, Dn3
	.byte	W15
	.byte		N11	
	.byte	W12
	.byte		N03	, Cn2
	.byte	W06
	.byte		N24	, Fn3
	.byte	W30
	.byte	PEND
	.byte	PATT	
		.word	song020_5_1
song020_5_3:
	.byte	W12
	.byte		N12	, Dn3, v072
	.byte	W15
	.byte		N03	, Cn2
	.byte	W06
	.byte		N05	, Dn3
	.byte	W15
	.byte		N11	
	.byte	W12
	.byte		N03	, Cn2
	.byte	W06
	.byte		N24	, Dn3
	.byte	W30
	.byte	PEND
	.byte	PATT	
		.word	song020_5_2
song020_5_4:
	.byte	W12
	.byte		N12	, Dn3, v072
	.byte	W15
	.byte		N03	, An1
	.byte	W06
	.byte		N05	, Dn3
	.byte	W15
	.byte		N11	, Cn3
	.byte	W12
	.byte		N02	, An1
	.byte	W06
	.byte		N24	, Cn3
	.byte	W30
	.byte	PEND
song020_5_5:
	.byte	W92
	.byte	W01
	.byte		N03	, Dn2, v072
	.byte	W03
	.byte	PEND
song020_5_6:
	.byte	W12
	.byte		N12	, Dn3, v072
	.byte	W15
	.byte		N03	, Dn2
	.byte	W06
	.byte		N05	, Dn3
	.byte	W15
	.byte		N11	
	.byte	W12
	.byte		N03	, Dn2
	.byte	W06
	.byte		N24	, Dn3
	.byte	W30
	.byte	PEND
	.byte	W92
	.byte	W01
	.byte		N03	, An2
	.byte	W03
	.byte	W12
	.byte		N12	, An3
	.byte	W15
	.byte		N03	, An2
	.byte	W06
	.byte		N05	, An3
	.byte	W15
	.byte		N11	
	.byte	W12
	.byte		N03	, Cs3
	.byte	W06
	.byte		N24	, An3
	.byte	W30
	.byte	W96
	.byte	W96
	.byte	W96
	.byte	W96
	.byte	W96
	.byte	W96
	.byte	W96
	.byte	W96
	.byte	PATT	
		.word	song020_5_1
	.byte	PATT	
		.word	song020_5_3
	.byte	PATT	
		.word	song020_5_2
	.byte	PATT	
		.word	song020_5_4
	.byte	PATT	
		.word	song020_5_5
	.byte	PATT	
		.word	song020_5_6
	.byte	W80
	.byte	W01
	.byte		N03	, An2, v072
	.byte	W15
	.byte		N12	, Gn3
	.byte	W12
	.byte		N03	, An2
	.byte	W12
	.byte		N05	, Gn3
	.byte	W24
	.byte		N11	, En3
	.byte	W12
	.byte		N03	, Gs2
	.byte	W12
	.byte		N24	, Cs3
	.byte	W24
	.byte	PATT	
		.word	song020_5_1
	.byte	PATT	
		.word	song020_5_7
	.byte	PATT	
		.word	song020_5_2
	.byte	W12
	.byte		N12	, Cn3, v072
	.byte	W15
	.byte		N03	, An1
	.byte	W06
	.byte		N05	, Cn3
	.byte	W15
	.byte		N11	
	.byte	W12
	.byte		N02	, An1
	.byte	W06
	.byte		N24	, Cn3
	.byte	W30
	.byte	W92
	.byte	W01
	.byte		N03	, Ds2
	.byte	W03
	.byte	W12
	.byte		N12	, As2
	.byte	W15
	.byte		N03	, Ds2
	.byte	W06
	.byte		N05	, As2
	.byte	W15
	.byte		N11	
	.byte	W12
	.byte		N03	, Ds2
	.byte	W06
	.byte		N24	, Ds3
	.byte	W30
	.byte	W92
	.byte	W01
	.byte		N03	, Gn2
	.byte	W03
	.byte	W12
	.byte		N12	, Gn3
	.byte	W15
	.byte		N03	, Gn2
	.byte	W06
	.byte		N05	, Gn3
	.byte	W15
	.byte		N11	
	.byte	W12
	.byte		N02	, Gn2
	.byte	W06
	.byte		N24	, Gn3
	.byte	W24
	.byte	W03
	.byte		N03	, An2
	.byte	W03
song020_5_8:
	.byte	W12
	.byte		N12	, An3, v072
	.byte	W15
	.byte		N03	, An2
	.byte	W06
	.byte		N05	, An3
	.byte	W15
	.byte		N07	
	.byte	W09
	.byte		N05	, An2
	.byte	W15
	.byte		N11	, An3
	.byte	W12
	.byte		N02	, An2
	.byte	W06
	.byte		N17	, An3
	.byte	W03
	.byte		N03	, An2
	.byte	W03
	.byte	PEND
	.byte	W12
	.byte		N12	, An3
	.byte	W15
	.byte		N03	, An2
	.byte	W06
	.byte		N05	, An3
	.byte	W15
	.byte		N11	
	.byte	W12
	.byte		N02	, An2
	.byte	W06
	.byte		N24	, An3
	.byte	W24
	.byte	W03
	.byte		N03	, An2
	.byte	W03
	.byte	PATT	
		.word	song020_5_8
	.byte	W12
	.byte		N12	, An3, v072
	.byte	W15
	.byte		N03	, An2
	.byte	W06
	.byte		N05	, An3
	.byte	W15
	.byte		N11	
	.byte	W12
	.byte		N02	, An2
	.byte	W06
	.byte		N24	, An3
	.byte	W30
	.byte	W96
	.byte	W96
	.byte	W96
	.byte	W96
	.byte	GOTO	
		.word	song020_5_9
	.byte	FINE

	@********************** Track  6 **********************@

	.global song020_6
song020_6:	@ 0x0826EF05
	.byte	KEYSH	, 0
	.byte	VOICE	, 95
	.byte	VOL	, v085
	.byte	PAN	, c_v+1
	.byte	W03
	.byte		N05	, An2, v116
	.byte		N05	, An3
	.byte	W24
	.byte		N30	, An2, v112
	.byte		N30	, An3
	.byte	W36
	.byte		N03	, Gs2
	.byte		N03	, Gs3
	.byte	W12
	.byte			An2, v108
	.byte		N03	, An3
	.byte	W12
	.byte		TIE	, Bn2, v112
	.byte		TIE	, Bn3
	.byte	W12
	.byte	W88
	.byte		EOT	, Bn2
	.byte			Bn3
	.byte	W08
	.byte		N08	, Cn3, v116
	.byte		N08	, Cn4
	.byte	W24
	.byte		N32	, Cn3
	.byte		N32	, Cn4
	.byte	W36
	.byte		N03	, Bn2, v108
	.byte		N03	, Bn3
	.byte	W12
	.byte		N05	, Cn3
	.byte		N05	, Cn4
	.byte	W12
	.byte		TIE	, Dn3, v112
	.byte		TIE	, Dn4
	.byte	W12
	.byte	W92
	.byte		EOT	, Dn3
	.byte			Dn4
	.byte	W04
	.byte	W96
	.byte	W96
	.byte	W96
	.byte	W96
song020_6_2:
	.byte	W96
	.byte	W96
	.byte	W96
	.byte	W96
	.byte	W96
	.byte	W96
	.byte	W96
	.byte	W96
	.byte	W96
	.byte	W96
	.byte	W96
	.byte	W96
	.byte	W96
	.byte	W96
	.byte	W96
	.byte	W96
	.byte	W96
	.byte	W96
	.byte	W96
	.byte	W96
	.byte	W96
	.byte	W96
	.byte	W96
	.byte	W96
	.byte	W96
	.byte	W96
	.byte	W96
	.byte	W96
	.byte	W96
	.byte	W96
	.byte	W96
	.byte	W96
	.byte	W96
	.byte	W96
	.byte	W96
	.byte	W96
	.byte		N54	, An2, v112
	.byte		N54	, An3
	.byte	W60
	.byte		N04	, Gs2
	.byte		N04	, Gs3
	.byte	W12
	.byte			An2
	.byte		N04	, An3
	.byte	W12
	.byte		N64	, Bn2
	.byte		N64	, Bn3
	.byte	W12
	.byte	W60
	.byte		N11	, An2
	.byte		N11	, An3
	.byte	W24
	.byte		N05	, Bn2
	.byte		N05	, Bn3
	.byte	W12
	.byte		N56	, Cn3
	.byte		N56	, Cn4
	.byte	W60
	.byte		N04	, Bn2
	.byte		N04	, Bn3
	.byte	W12
	.byte		N05	, Cn3
	.byte		N05	, Cn4
	.byte	W12
	.byte		N66	, Dn3
	.byte		N66	, Dn4
	.byte	W12
	.byte	W60
	.byte		N15	, Cn3
	.byte		N15	, Cn4
	.byte	W24
	.byte		N05	, Dn3
	.byte		N05	, Dn4
	.byte	W12
	.byte		N56	, En3
	.byte		N56	, En4
	.byte	W60
	.byte		N04	, Dn3
	.byte		N04	, Dn4
	.byte	W12
	.byte		N05	, En3
	.byte		N05	, En4
	.byte	W12
	.byte		N66	, Fn3
	.byte		N66	, Fn4
	.byte	W12
	.byte	W60
	.byte		N14	, En3
	.byte		N14	, En4
	.byte	W24
	.byte		N05	, Fn3
	.byte		N05	, Fn4
	.byte	W12
	.byte		N56	, Gn3
	.byte		N56	, Gn4
	.byte	W60
	.byte		N04	, Fn3
	.byte		N04	, Fn4
	.byte	W12
	.byte		N05	, Gn3
	.byte		N05	, Gn4
	.byte	W12
	.byte		N66	, An3
	.byte		N66	, An4
	.byte	W12
	.byte	W60
	.byte		N14	, Gn3
	.byte		N14	, Gn4
	.byte	W24
	.byte		N07	, An3
	.byte		N07	, An4
	.byte	W12
song020_6_1:
	.byte		TIE	, Bn3, v112
	.byte		TIE	, Bn4
	.byte	W96
	.byte	PEND
	.byte	W84
	.byte	W02
	.byte		EOT	, Bn3
	.byte			Bn4
	.byte	W10
	.byte	PATT	
		.word	song020_6_1
	.byte	W84
	.byte	W02
	.byte		EOT	, Bn3
	.byte			Bn4
	.byte	W10
	.byte	W96
	.byte	W96
	.byte	W96
	.byte	W96
	.byte	GOTO	
		.word	song020_6_2
	.byte	FINE

	@********************** Track  7 **********************@

	.global song020_7
song020_7:	@ 0x0826F016
	.byte	KEYSH	, 0
	.byte	VOICE	, 2
	.byte	VOL	, v063
	.byte	PAN	, c_v
	.byte	W03
	.byte	W01
	.byte		N05	, Fs3, v100
	.byte	W24
	.byte		N30	
	.byte	W36
	.byte		N03	, Fn3
	.byte	W12
	.byte			Fs3
	.byte	W12
	.byte		TIE	, Gs3
	.byte	W11
	.byte	W88
	.byte	W01
	.byte		EOT	
	.byte	W07
	.byte	W01
	.byte		N08	, An3
	.byte	W24
	.byte		N32	
	.byte	W36
	.byte		N03	, Gs3
	.byte	W12
	.byte		N05	, An3
	.byte	W12
	.byte		TIE	, Bn3
	.byte	W11
	.byte	W92
	.byte	W01
	.byte		EOT	
	.byte	W03
song020_7_10:
	.byte	W01
	.byte		N13	, Gn3, v100
	.byte	W24
	.byte		N14	
	.byte	W24
	.byte		N12	
	.byte	W12
	.byte			Fs3
	.byte	W12
	.byte			En3
	.byte	W12
	.byte		N22	, Fs3
	.byte	W11
	.byte	PEND
song020_7_11:
	.byte	W13
	.byte		N12	, Cs3, v100
	.byte	W24
	.byte			An2
	.byte	W24
	.byte		N12	
	.byte	W12
	.byte			Cs3
	.byte	W12
	.byte			Dn3
	.byte	W11
	.byte	PEND
song020_7_12:
	.byte	W01
	.byte		N12	, En3, v100
	.byte	W24
	.byte		N12	
	.byte	W24
	.byte			Dn3
	.byte	W12
	.byte			Cs3
	.byte	W12
	.byte			Bn2
	.byte	W12
	.byte		N21	, Cs3
	.byte	W11
	.byte	PEND
song020_7_13:
	.byte	W13
	.byte		N12	, An2, v100
	.byte	W24
	.byte		N18	, Gn2
	.byte	W24
	.byte		N12	, An2
	.byte	W12
	.byte			Cs3
	.byte	W12
	.byte			En3
	.byte	W11
	.byte	PEND
song020_7_14:
	.byte	W01
	.byte		N12	, Gn3, v100
	.byte	W24
	.byte		N12	
	.byte	W24
	.byte		N12	
	.byte	W12
	.byte			Fs3
	.byte	W12
	.byte			En3
	.byte	W12
	.byte		N24	, Fs3
	.byte	W11
	.byte	PEND
	.byte	W13
	.byte			Cs3
	.byte	W24
	.byte		N12	, An2
	.byte	W24
	.byte		N12	
	.byte	W12
	.byte			Cs3
	.byte	W12
	.byte			En3
	.byte	W11
	.byte	W01
	.byte			Gn3
	.byte	W24
	.byte		N12	
	.byte	W24
	.byte			Fs3
	.byte	W12
	.byte			Gn3
	.byte	W24
	.byte		N48	, En3
	.byte	W11
	.byte	W60
	.byte	W01
	.byte		N12	, An3
	.byte	W12
	.byte			Cs4
	.byte	W12
	.byte			En4
	.byte	W11
	.byte	W01
	.byte		N13	, Gn4
	.byte	W24
	.byte		N14	
	.byte	W24
	.byte		N12	
	.byte	W12
	.byte			Fs4
	.byte	W12
	.byte			En4
	.byte	W12
	.byte		N22	, Fs4
	.byte	W11
	.byte	W13
	.byte		N12	, Cs4
	.byte	W24
	.byte			An3
	.byte	W24
	.byte		N12	
	.byte	W12
	.byte			Cs4
	.byte	W12
	.byte			Dn4
	.byte	W11
	.byte	W01
	.byte			En4
	.byte	W24
	.byte		N12	
	.byte	W24
	.byte			Dn4
	.byte	W12
	.byte			Cs4
	.byte	W12
	.byte			Bn3
	.byte	W12
	.byte		N21	, Cs4
	.byte	W11
	.byte	W13
	.byte		N12	, An3
	.byte	W24
	.byte		N18	, Gn3
	.byte	W24
	.byte		N12	, An3
	.byte	W12
	.byte			Cs4
	.byte	W12
	.byte			En4
	.byte	W11
	.byte	W01
	.byte			Gn4
	.byte	W24
	.byte		N12	
	.byte	W24
	.byte		N12	
	.byte	W12
	.byte			Fs4
	.byte	W12
	.byte			En4
	.byte	W12
	.byte		N24	, Fs4
	.byte	W11
	.byte	W13
	.byte			Cs4
	.byte	W24
	.byte		N12	, An3
	.byte	W24
	.byte		N12	
	.byte	W12
	.byte			Cs4
	.byte	W12
	.byte			En4
	.byte	W11
	.byte	W01
	.byte			Gn4
	.byte	W24
	.byte		N12	
	.byte	W24
	.byte			Fs4
	.byte	W12
	.byte			Gn4
	.byte	W24
	.byte		N48	, En4
	.byte	W11
song020_7_1:
	.byte	W60
	.byte	W01
	.byte		N12	, An4, v100
	.byte	W12
	.byte			Cs5
	.byte	W12
	.byte			En5
	.byte	W11
	.byte	PEND
song020_7_2:
	.byte	W01
	.byte		N13	, Gn5, v100
	.byte	W24
	.byte		N14	
	.byte	W24
	.byte		N12	
	.byte	W12
	.byte			Fs5
	.byte	W12
	.byte			En5
	.byte	W12
	.byte		N22	, Fs5
	.byte	W11
	.byte	PEND
song020_7_3:
	.byte	W13
	.byte		N12	, Cs5, v100
	.byte	W24
	.byte			An4
	.byte	W24
	.byte		N12	
	.byte	W12
	.byte			Cs5
	.byte	W12
	.byte			Dn5
	.byte	W11
	.byte	PEND
song020_7_4:
	.byte	W01
	.byte		N12	, En5, v100
	.byte	W24
	.byte		N12	
	.byte	W24
	.byte			Dn5
	.byte	W12
	.byte			Cs5
	.byte	W12
	.byte			Bn4
	.byte	W12
	.byte		N21	, Cs5
	.byte	W11
	.byte	PEND
song020_7_5:
	.byte	W13
	.byte		N12	, An4, v100
	.byte	W24
	.byte		N18	, Gn4
	.byte	W24
	.byte		N12	, An4
	.byte	W12
	.byte			Cs5
	.byte	W12
	.byte			En5
	.byte	W11
	.byte	PEND
song020_7_6:
	.byte	W01
	.byte		N12	, Gn5, v100
	.byte	W24
	.byte		N12	
	.byte	W24
	.byte		N12	
	.byte	W12
	.byte			Fs5
	.byte	W12
	.byte			En5
	.byte	W12
	.byte		N24	, Fs5
	.byte	W11
	.byte	PEND
song020_7_7:
	.byte	W13
	.byte		N24	, Cs5, v100
	.byte	W24
	.byte		N12	, An4
	.byte	W24
	.byte		N12	
	.byte	W12
	.byte			Cs5
	.byte	W12
	.byte			En5
	.byte	W11
	.byte	PEND
song020_7_8:
	.byte	W01
	.byte		N12	, Gn5, v100
	.byte	W24
	.byte		N12	
	.byte	W24
	.byte			Fs5
	.byte	W12
	.byte			Gn5
	.byte	W24
	.byte		N24	, En5
	.byte	W11
	.byte	PEND
song020_7_9:
	.byte	W24
	.byte	W01
	.byte		N12	, Dn5, v100
	.byte	W24
	.byte			Cs5
	.byte	W24
	.byte			Bn4
	.byte	W23
	.byte	PEND
	.byte		N01	, Cn5
	.byte	W01
	.byte		N12	, Dn5
	.byte	W23
	.byte		N13	, Cn5
	.byte	W24
	.byte		N16	, Bn4
	.byte	W24
	.byte		N15	, An4
	.byte	W24
	.byte		N01	, Bn4
	.byte	W01
	.byte		N10	, Cn5
	.byte	W11
	.byte		N12	, Bn4
	.byte	W12
	.byte		N11	, An4
	.byte	W12
	.byte		N15	, Dn4
	.byte	W24
	.byte		N05	
	.byte	W12
	.byte		N12	, Fs4
	.byte	W12
	.byte			An4
	.byte	W12
	.byte			Cn5
	.byte	W24
	.byte			Bn4
	.byte	W24
	.byte			An4
	.byte	W24
	.byte	W01
	.byte			En4
	.byte	W23
	.byte		N01	, Cn4
	.byte	W01
	.byte		N09	, Cs4
	.byte	W11
	.byte		N36	, An3
	.byte	W48
	.byte	W01
	.byte		N05	, Dn4
	.byte	W11
	.byte		N12	, Fs4
	.byte	W12
	.byte			An4
	.byte	W12
	.byte			Dn5
	.byte	W24
	.byte			Cn5
	.byte	W24
	.byte			Bn4
	.byte	W24
	.byte			An4
	.byte	W24
	.byte		N01	, Bn4
	.byte	W01
	.byte		N10	, Cn5
	.byte	W11
	.byte		N06	, Bn4
	.byte	W12
	.byte			An4
	.byte	W12
	.byte		N18	, Dn4
	.byte	W24
	.byte		N10	
	.byte	W12
	.byte		N12	, Fs4
	.byte	W12
	.byte			An4
	.byte	W12
	.byte			Dn5
	.byte	W24
	.byte	W03
	.byte		N12	
	.byte	W21
	.byte			Cs5
	.byte	W12
	.byte			Dn5
	.byte	W24
	.byte		N72	, En5
	.byte	W12
	.byte	PATT	
		.word	song020_7_1
	.byte	PATT	
		.word	song020_7_2
	.byte	PATT	
		.word	song020_7_3
	.byte	PATT	
		.word	song020_7_4
	.byte	PATT	
		.word	song020_7_5
	.byte	PATT	
		.word	song020_7_6
	.byte	PATT	
		.word	song020_7_7
	.byte	PATT	
		.word	song020_7_8
	.byte	PATT	
		.word	song020_7_9
	.byte	W96
	.byte	W96
	.byte	W96
	.byte	W96
	.byte	W96
	.byte	W96
	.byte	W96
	.byte	W96
	.byte	W96
	.byte	W96
	.byte	W96
	.byte	W96
	.byte	PATT	
		.word	song020_7_10
	.byte	PATT	
		.word	song020_7_11
	.byte	PATT	
		.word	song020_7_12
	.byte	PATT	
		.word	song020_7_13
	.byte	GOTO	
		.word	song020_7_14
	.byte	PATT	
		.word	song020_7_14
	.byte	W13
	.byte	FINE

	@********************** Track  8 **********************@

	.global song020_8
song020_8:	@ 0x0826F25B
	.byte	KEYSH	, 0
	.byte	VOICE	, 98
	.byte	VOL	, v063
	.byte	PAN	, c_v-4
	.byte	W03
	.byte		N05	, Ds3, v092
	.byte	W24
	.byte		N30	
	.byte	W36
	.byte		N03	, Dn3
	.byte	W12
	.byte			Ds3
	.byte	W12
	.byte		TIE	, Fn3
	.byte	W12
	.byte	W88
	.byte		EOT	
	.byte	W08
	.byte		N08	, Fs3
	.byte	W24
	.byte		N32	
	.byte	W36
	.byte		N03	, Fn3
	.byte	W12
	.byte		N05	, Fs3
	.byte	W12
	.byte		TIE	, Gs3
	.byte	W12
	.byte	W92
	.byte		EOT	
	.byte	W04
song020_8_1:
	.byte	W02
	.byte		N13	, En3, v080
	.byte	W24
	.byte		N14	
	.byte	W24
	.byte		N12	
	.byte	W12
	.byte			Ds3
	.byte	W12
	.byte			Cs3
	.byte	W12
	.byte		N22	, Ds3
	.byte	W10
	.byte	PEND
song020_8_2:
	.byte	W14
	.byte		N12	, As2, v080
	.byte	W24
	.byte			Fs2
	.byte	W24
	.byte		N12	
	.byte	W12
	.byte			As2
	.byte	W12
	.byte			Bn2
	.byte	W10
	.byte	PEND
song020_8_3:
	.byte	W02
	.byte		N12	, Cs3, v080
	.byte	W24
	.byte		N12	
	.byte	W24
	.byte			Bn2
	.byte	W12
	.byte			As2
	.byte	W12
	.byte			Gs2
	.byte	W12
	.byte		N21	, As2
	.byte	W10
	.byte	PEND
song020_8_4:
	.byte	W14
	.byte		N12	, Fs2, v080
	.byte	W24
	.byte		N18	, En2
	.byte	W24
	.byte		N12	, Fs2
	.byte	W12
	.byte			As2
	.byte	W12
	.byte			Cs3
	.byte	W10
	.byte	PEND
song020_8_7:
	.byte		N12	, En3, v108
	.byte	W24
	.byte			En3, v112
	.byte	W24
	.byte		N12	
	.byte	W12
	.byte			Ds3, v096
	.byte	W12
	.byte			Cs3, v108
	.byte	W12
	.byte		N24	, Ds3
	.byte	W12
	.byte	PEND
song020_8_5:
	.byte	W12
	.byte		N24	, As2, v100
	.byte	W24
	.byte		N12	, Fs2, v104
	.byte	W24
	.byte		N12	
	.byte	W12
	.byte			As2, v100
	.byte	W12
	.byte			Cs3
	.byte	W12
	.byte	PEND
song020_8_6:
	.byte		N12	, En3, v104
	.byte	W24
	.byte			En3, v108
	.byte	W24
	.byte			Ds3, v100
	.byte	W12
	.byte			En3
	.byte	W24
	.byte		N48	, Cs3, v112
	.byte	W12
	.byte	PEND
	.byte	W60
	.byte		N12	, Fs2, v104
	.byte	W12
	.byte			As2, v100
	.byte	W12
	.byte			Cs3, v096
	.byte	W12
	.byte	PATT	
		.word	song020_8_1
	.byte	PATT	
		.word	song020_8_2
	.byte	PATT	
		.word	song020_8_3
	.byte	PATT	
		.word	song020_8_4
	.byte	PAN	, c_v-4
	.byte		N12	, En3, v108
	.byte	W24
	.byte			En3, v112
	.byte	W24
	.byte		N12	
	.byte	W12
	.byte			Ds3, v096
	.byte	W12
	.byte			Cs3, v108
	.byte	W12
	.byte		N24	, Ds3
	.byte	W12
	.byte	PATT	
		.word	song020_8_5
	.byte	PATT	
		.word	song020_8_6
	.byte	W96
	.byte	W96
	.byte	W96
	.byte	W96
	.byte	W96
	.byte	W96
	.byte	W96
	.byte	W96
	.byte	W96
	.byte	W96
	.byte	W96
	.byte	W96
	.byte	W96
	.byte	W96
	.byte	W96
	.byte	W96
	.byte	W96
	.byte	W96
	.byte	W96
	.byte	W96
	.byte	W96
	.byte	W96
	.byte	W96
	.byte	W96
	.byte	W96
	.byte	W96
	.byte	W96
	.byte	W96
	.byte	W96
	.byte	W96
	.byte	W96
	.byte	W96
	.byte	W96
	.byte	W96
	.byte	W96
	.byte	W96
	.byte	W96
	.byte	PATT	
		.word	song020_8_1
	.byte	PATT	
		.word	song020_8_2
	.byte	PATT	
		.word	song020_8_3
	.byte	PATT	
		.word	song020_8_4
	.byte	GOTO	
		.word	song020_8_7
	.byte	PATT	
		.word	song020_8_7
	.byte	W12
	.byte	FINE

	@********************** Track  9 **********************@

	.global song020_9
song020_9:	@ 0x0826F37D
	.byte	KEYSH	, 0
	.byte	VOICE	, 120
	.byte	VOL	, v085
	.byte	PAN	, c_v+1
	.byte	W03
	.byte	W96
	.byte	W96
	.byte	W96
	.byte	W96
	.byte	W96
	.byte	W96
	.byte	W96
	.byte	W96
song020_9_10:
	.byte	W96
	.byte	W96
	.byte	W96
	.byte	W96
	.byte	W96
	.byte	W96
	.byte	W96
	.byte	W96
	.byte	W96
	.byte	W96
	.byte	W96
song020_9_1:
	.byte	W60
	.byte	W01
	.byte		N12	, Gn4, v080
	.byte	W12
	.byte			Bn4
	.byte	W12
	.byte			Dn5
	.byte	W11
	.byte	PEND
song020_9_2:
	.byte	W01
	.byte		N13	, Fn5, v080
	.byte	W24
	.byte		N14	
	.byte	W24
	.byte		N12	
	.byte	W12
	.byte			En5
	.byte	W12
	.byte			Dn5
	.byte	W12
	.byte		N22	, En5
	.byte	W11
	.byte	PEND
song020_9_3:
	.byte	W13
	.byte		N12	, Bn4, v080
	.byte	W24
	.byte			Gn4
	.byte	W24
	.byte		N12	
	.byte	W12
	.byte			Bn4
	.byte	W12
	.byte			Cn5
	.byte	W11
	.byte	PEND
song020_9_4:
	.byte	W01
	.byte		N12	, Dn5, v080
	.byte	W24
	.byte		N12	
	.byte	W24
	.byte			Cn5
	.byte	W12
	.byte			Bn4
	.byte	W12
	.byte			An4
	.byte	W12
	.byte		N21	, Bn4
	.byte	W11
	.byte	PEND
song020_9_5:
	.byte	W13
	.byte		N12	, Gn4, v080
	.byte	W24
	.byte		N18	, Fn4
	.byte	W24
	.byte		N12	, Gn4
	.byte	W12
	.byte			Bn4
	.byte	W12
	.byte			Dn5
	.byte	W11
	.byte	PEND
song020_9_6:
	.byte	W01
	.byte		N12	, Fn5, v080
	.byte	W24
	.byte		N12	
	.byte	W24
	.byte		N12	
	.byte	W12
	.byte			En5
	.byte	W12
	.byte			Dn5
	.byte	W12
	.byte		N24	, En5
	.byte	W11
	.byte	PEND
song020_9_7:
	.byte	W13
	.byte		N24	, Bn4, v080
	.byte	W24
	.byte		N12	, Gn4
	.byte	W24
	.byte		N12	
	.byte	W12
	.byte			Bn4
	.byte	W12
	.byte			Dn5
	.byte	W11
	.byte	PEND
song020_9_8:
	.byte	W01
	.byte		N12	, Fn5, v080
	.byte	W24
	.byte		N12	
	.byte	W24
	.byte			En5
	.byte	W12
	.byte			Fn5
	.byte	W24
	.byte		N24	, Dn5
	.byte	W11
	.byte	PEND
song020_9_9:
	.byte	W24
	.byte	W01
	.byte		N12	, Cn5, v080
	.byte	W24
	.byte			Bn4
	.byte	W24
	.byte			An4
	.byte	W23
	.byte	PEND
	.byte		N01	, As3, v076
	.byte	W01
	.byte		N12	, Cn4, v100
	.byte	W23
	.byte		N13	, As3, v108
	.byte	W24
	.byte		N16	, An3
	.byte	W24
	.byte		N15	, Gn3, v112
	.byte	W24
	.byte		N01	, An3, v092
	.byte	W01
	.byte		N10	, As3, v100
	.byte	W11
	.byte		N12	, An3, v108
	.byte	W12
	.byte		N11	, Gn3, v100
	.byte	W12
	.byte		N15	, Cn3
	.byte	W24
	.byte		N05	, Cn3, v108
	.byte	W12
	.byte		N12	, En3, v096
	.byte	W12
	.byte			Gn3, v104
	.byte	W12
	.byte			As3, v112
	.byte	W24
	.byte			An3, v108
	.byte	W24
	.byte			Gn3, v112
	.byte	W24
	.byte	W01
	.byte			Dn3, v108
	.byte	W23
	.byte		N01	, As2, v092
	.byte	W01
	.byte		N09	, Bn2, v100
	.byte	W11
	.byte		N36	, Gn2, v104
	.byte	W48
	.byte	W01
	.byte		N05	, Cn3, v112
	.byte	W11
	.byte		N12	, En3, v100
	.byte	W12
	.byte			Gn3, v112
	.byte	W12
	.byte			Cn4, v108
	.byte	W24
	.byte			As3
	.byte	W24
	.byte			An3, v100
	.byte	W24
	.byte			Gn3, v108
	.byte	W24
	.byte		N01	, An3, v084
	.byte	W01
	.byte		N10	, As3, v096
	.byte	W11
	.byte		N06	, An3, v104
	.byte	W12
	.byte			Gn3, v108
	.byte	W12
	.byte		N18	, Cn3, v112
	.byte	W24
	.byte		N10	, Cn3, v096
	.byte	W12
	.byte		N12	, En3
	.byte	W12
	.byte			Gn3, v108
	.byte	W12
	.byte			Cn4
	.byte	W24
	.byte	W03
	.byte			Cn4, v112
	.byte	W21
	.byte			Bn3, v104
	.byte	W12
	.byte			Cn4, v112
	.byte	W24
	.byte		N72	, Dn4, v100
	.byte	W12
	.byte	PATT	
		.word	song020_9_1
	.byte	PATT	
		.word	song020_9_2
	.byte	PATT	
		.word	song020_9_3
	.byte	PATT	
		.word	song020_9_4
	.byte	PATT	
		.word	song020_9_5
	.byte	PATT	
		.word	song020_9_6
	.byte	PATT	
		.word	song020_9_7
	.byte	PATT	
		.word	song020_9_8
	.byte	PATT	
		.word	song020_9_9
	.byte	W96
	.byte	W96
	.byte	W96
	.byte	W96
	.byte	W96
	.byte	W96
	.byte	W96
	.byte	W96
	.byte	W96
	.byte	W96
	.byte	W96
	.byte	W96
	.byte	W96
	.byte	W96
	.byte	W96
	.byte	W96
	.byte	GOTO	
		.word	song020_9_10
	.byte	FINE

	@********************** Track  10 **********************@

	.global song020_10
song020_10:	@ 0x0826F4EF
	.byte	KEYSH	, 0
	.byte	VOICE	, 104
	.byte	VOL	, v063
	.byte	PAN	, c_v-31
	.byte	BENDR	, 12
	.byte	W03
	.byte	W96
	.byte	W96
	.byte	W96
	.byte	W60
	.byte		N32	, Ds2, v080
	.byte	W36
song020_10_1:
	.byte		N23	, Fn2, v080
	.byte	W80
	.byte	W01
	.byte		N24	, As2
	.byte	W15
	.byte	PEND
song020_10_2:
	.byte	W48
	.byte		N11	, An2, v080
	.byte	W12
	.byte			As2
	.byte	W36
	.byte	PEND
song020_10_3:
	.byte		N17	, Cn3, v080
	.byte	W24
	.byte		N19	
	.byte	W24
	.byte		N11	, As2
	.byte	W12
	.byte			An2
	.byte	W13
	.byte			Gn2
	.byte	W11
	.byte		N23	, An2
	.byte	W12
	.byte	PEND
song020_10_4:
	.byte	W48
	.byte		N11	, Ds3, v080
	.byte	W12
	.byte			Ds2
	.byte	W36
	.byte	PEND
song020_10_11:
	.byte	PATT	
		.word	song020_10_1
	.byte	PATT	
		.word	song020_10_2
song020_10_5:
	.byte		N17	, Ds3, v080
	.byte	W24
	.byte		N19	
	.byte	W24
	.byte		N11	, Dn3
	.byte	W12
	.byte		N22	, Ds3
	.byte	W24
	.byte		N23	, Cn3
	.byte	W12
	.byte	PEND
song020_10_6:
	.byte	W48
	.byte		N11	, Bn2, v080
	.byte	W12
	.byte			Cn3
	.byte	W36
	.byte	PEND
	.byte	PATT	
		.word	song020_10_1
	.byte	PATT	
		.word	song020_10_2
	.byte	PATT	
		.word	song020_10_3
	.byte	PATT	
		.word	song020_10_4
	.byte	PATT	
		.word	song020_10_1
	.byte	PATT	
		.word	song020_10_2
	.byte	PATT	
		.word	song020_10_5
	.byte	PATT	
		.word	song020_10_6
	.byte	PATT	
		.word	song020_10_1
	.byte	PATT	
		.word	song020_10_2
	.byte	PATT	
		.word	song020_10_3
	.byte	PATT	
		.word	song020_10_4
	.byte	PATT	
		.word	song020_10_1
	.byte	PATT	
		.word	song020_10_2
	.byte	PATT	
		.word	song020_10_5
	.byte	PATT	
		.word	song020_10_6
song020_10_7:
	.byte		N16	, As2, v080
	.byte	W24
	.byte		N17	
	.byte	W24
	.byte		N19	
	.byte	W24
	.byte		N23	
	.byte	W24
	.byte	PEND
song020_10_8:
	.byte		N10	, An2, v080
	.byte	W12
	.byte		N11	, As2
	.byte	W24
	.byte		N17	
	.byte	W36
	.byte		N24	
	.byte	W24
	.byte	PEND
	.byte		N16	, Fn2
	.byte	W24
	.byte		N17	
	.byte	W24
	.byte		N19	
	.byte	W24
	.byte		N14	
	.byte	W24
	.byte		N11	, Ds2
	.byte	W12
	.byte		N17	, Fn2
	.byte	W24
	.byte		N19	
	.byte	W36
	.byte		N23	
	.byte	W24
	.byte	PATT	
		.word	song020_10_7
	.byte	PATT	
		.word	song020_10_8
	.byte		N16	, Ds2, v080
	.byte	W24
	.byte		N17	
	.byte	W24
	.byte		N19	
	.byte	W24
	.byte		N11	
	.byte	W12
	.byte		N23	, Cn3
	.byte	W12
	.byte	W12
	.byte		N17	
	.byte	W24
	.byte		N11	
	.byte	W12
	.byte		N21	, An2
	.byte	W24
	.byte		N23	, Gn2
	.byte	W24
	.byte	PATT	
		.word	song020_10_1
	.byte	PATT	
		.word	song020_10_2
	.byte	PATT	
		.word	song020_10_3
	.byte	PATT	
		.word	song020_10_4
	.byte	PATT	
		.word	song020_10_1
	.byte	PATT	
		.word	song020_10_2
	.byte	PATT	
		.word	song020_10_5
	.byte	PATT	
		.word	song020_10_6
	.byte		N19	, As2, v092
	.byte	W24
	.byte		N11	, As2, v088
	.byte	W36
	.byte			As2, v104
	.byte	W24
	.byte		N23	, Cn3, v096
	.byte	W12
	.byte	W24
	.byte		N11	, Cn3, v108
	.byte	W36
	.byte		N18	, Cn3, v092
	.byte	W36
	.byte		N19	, Cs3
	.byte	W24
	.byte		N11	, Cs3, v088
	.byte	W36
	.byte			Cs3, v104
	.byte	W24
	.byte		N23	, Ds3, v096
	.byte	W12
	.byte	W24
	.byte		N11	, Ds3, v108
	.byte	W36
	.byte		N18	, Ds3, v092
	.byte	W24
	.byte		N11	, Ds3, v100
	.byte	W12
	.byte		N16	, Fn3, v104
	.byte	W24
	.byte		N13	, Fn3, v112
	.byte	W24
	.byte		N11	
	.byte	W12
	.byte			Ds3, v096
	.byte	W12
	.byte			Fn3, v108
	.byte	W12
	.byte		N18	, Fs3, v112
	.byte	W12
	.byte	W12
	.byte		N17	, Fs3, v104
	.byte	W24
	.byte		N16	, Fs3, v096
	.byte	W24
	.byte		N11	, Fs3, v100
	.byte	W12
	.byte			Fn3, v112
	.byte	W12
	.byte			Fs3, v104
	.byte	W12
	.byte		N16	, Gs3, v112
	.byte	W24
	.byte		N13	
	.byte	W24
	.byte		N11	
	.byte	W12
	.byte			Fs3, v096
	.byte	W12
	.byte			Gs3, v104
	.byte	W12
	.byte		N18	, As3, v108
	.byte	W12
	.byte	W12
	.byte		N17	, As3, v104
	.byte	W24
	.byte		N17	
	.byte	W24
	.byte		N11	, As3, v108
	.byte	W12
	.byte			Gs3
	.byte	W12
	.byte			As3, v096
	.byte	W12
song020_10_9:
	.byte		N16	, Cn3, v108
	.byte	W24
	.byte		N18	, Cn3, v100
	.byte	W24
	.byte		N16	, As2, v104
	.byte	W24
	.byte		N15	, As2, v092
	.byte	W24
	.byte	PEND
song020_10_10:
	.byte		N15	, An2, v116
	.byte	W22
	.byte		N09	, An2, v112
	.byte	W12
	.byte		N32	, Gn2, v116
	.byte	W36
	.byte	W02
	.byte		N20	
	.byte	W24
	.byte	PEND
	.byte	PATT	
		.word	song020_10_9
	.byte	PATT	
		.word	song020_10_10
	.byte	PATT	
		.word	song020_10_1
	.byte	PATT	
		.word	song020_10_2
	.byte	PATT	
		.word	song020_10_3
	.byte	PATT	
		.word	song020_10_4
	.byte	GOTO	
		.word	song020_10_11
	.byte	PATT	
		.word	song020_10_1
	.byte	W11
	.byte	FINE

	@********************** Track  11 **********************@

	.global song020_11
song020_11:	@ 0x0826F6D9
	.byte	KEYSH	, 0
	.byte	VOICE	, 103
	.byte	VOL	, v070
	.byte	PAN	, c_v-31
	.byte	W03
	.byte	W96
	.byte	W96
	.byte	W96
	.byte	W96
song020_11_1:
	.byte	W24
	.byte		N10	, Fn2, v072
	.byte	W12
	.byte		N10	
	.byte	W12
	.byte		N10	
	.byte	W12
	.byte		N10	
	.byte	W12
	.byte		N08	
	.byte	W24
	.byte	PEND
song020_11_2:
	.byte	W12
	.byte		N09	, As2, v072
	.byte	W12
	.byte		N09	
	.byte	W12
	.byte		N09	
	.byte	W36
	.byte		N09	
	.byte	W12
	.byte		N09	
	.byte	W12
	.byte	PEND
	.byte	W96
song020_11_3:
	.byte	W12
	.byte		N10	, Fn2, v072
	.byte	W12
	.byte		N10	
	.byte	W12
	.byte			Ds2
	.byte	W36
	.byte		N09	, Fn2
	.byte	W12
	.byte		N10	
	.byte	W12
	.byte	PEND
song020_11_5:
	.byte	PATT	
		.word	song020_11_1
	.byte	PATT	
		.word	song020_11_2
	.byte	W96
song020_11_4:
	.byte	W12
	.byte		N10	, Cn3, v072
	.byte	W12
	.byte		N10	
	.byte	W12
	.byte		N10	
	.byte	W36
	.byte		N09	
	.byte	W12
	.byte		N10	
	.byte	W12
	.byte	PEND
	.byte	PATT	
		.word	song020_11_1
	.byte	PATT	
		.word	song020_11_2
	.byte	W96
	.byte	PATT	
		.word	song020_11_3
	.byte	PATT	
		.word	song020_11_1
	.byte	PATT	
		.word	song020_11_2
	.byte	W96
	.byte	PATT	
		.word	song020_11_4
	.byte	PATT	
		.word	song020_11_1
	.byte	PATT	
		.word	song020_11_2
	.byte	W96
	.byte	PATT	
		.word	song020_11_3
	.byte	PATT	
		.word	song020_11_1
	.byte	PATT	
		.word	song020_11_2
	.byte	W96
	.byte	PATT	
		.word	song020_11_4
	.byte	W96
	.byte	W60
	.byte		N10	, As2, v092
	.byte	W36
	.byte	W96
	.byte	W60
	.byte			Fn2
	.byte	W36
	.byte	W96
	.byte	W60
	.byte			As2
	.byte	W36
	.byte	W96
	.byte	W96
	.byte	PATT	
		.word	song020_11_1
	.byte	PATT	
		.word	song020_11_2
	.byte	W96
	.byte	PATT	
		.word	song020_11_3
	.byte	PATT	
		.word	song020_11_1
	.byte	PATT	
		.word	song020_11_2
	.byte	W96
	.byte	PATT	
		.word	song020_11_4
	.byte	W36
	.byte		N10	, As2, v072
	.byte	W12
	.byte		N10	
	.byte	W24
	.byte		N10	
	.byte	W24
	.byte	W12
	.byte			Cn3
	.byte	W24
	.byte		N10	
	.byte	W48
	.byte		N10	
	.byte	W12
	.byte	W36
	.byte			Cs3
	.byte	W12
	.byte		N10	
	.byte	W24
	.byte		N10	
	.byte	W24
	.byte	W12
	.byte			Ds3
	.byte	W24
	.byte		N10	
	.byte	W48
	.byte		N10	
	.byte	W12
	.byte	W96
	.byte	W96
	.byte	W96
	.byte	W96
	.byte	W96
	.byte	W96
	.byte	W96
	.byte	W96
	.byte	PATT	
		.word	song020_11_1
	.byte	PATT	
		.word	song020_11_2
	.byte	W96
	.byte	PATT	
		.word	song020_11_3
	.byte	GOTO	
		.word	song020_11_5
	.byte	W24
	.byte		N10	, Fn2, v072
	.byte	W12
	.byte		N10	
	.byte	W12
	.byte		N10	
	.byte	W12
	.byte		N10	
	.byte	W12
	.byte		N08	
	.byte	W08
	.byte	FINE

	@********************** Track  12 **********************@

	.global song020_12
song020_12:	@ 0x0826F7E4
	.byte	KEYSH	, 0
	.byte	VOICE	, 6
	.byte	VOL	, v063
	.byte	PAN	, c_v-34
	.byte	W03
	.byte	W96
	.byte	W48
	.byte		N03	, Dn4, v060
	.byte	W03
	.byte			En4
	.byte	W03
	.byte		N02	, Gs4
	.byte	W03
	.byte		N06	, Bn4
	.byte	W09
	.byte		N03	, Dn4, v048
	.byte	W03
	.byte			En4
	.byte	W03
	.byte		N02	, Gs4
	.byte	W03
	.byte		N06	, Bn4
	.byte	W09
	.byte		N03	, Dn4, v032
	.byte	W03
	.byte			En4
	.byte	W03
	.byte		N02	, Gs4
	.byte	W03
	.byte		N06	, Bn4
	.byte	W03
	.byte	W06
	.byte		N03	, Dn4, v008
	.byte	W03
	.byte			En4
	.byte	W03
	.byte		N02	, Gs4
	.byte	W03
	.byte		N06	, Bn4
	.byte	W09
	.byte		N03	, Dn4, v004
	.byte	W03
	.byte			En4
	.byte	W03
	.byte		N02	, Gs4
	.byte	W03
	.byte		N06	, Bn4
	.byte	W60
	.byte	W03
	.byte	W48
	.byte		N03	, Gn4, v080
	.byte	W03
	.byte			An4
	.byte	W03
	.byte		N02	, Cn5
	.byte	W03
	.byte		N06	, En5
	.byte	W05
	.byte			Cn5, v048
	.byte	W06
	.byte			En5, v044
	.byte	W06
	.byte			Cn5
	.byte	W06
	.byte			En5, v040
	.byte	W06
	.byte			Cn5, v036
	.byte	W06
	.byte			En5, v032
	.byte	W04
	.byte	W96
	.byte	W96
	.byte	W96
	.byte	W96
song020_12_3:
	.byte	W96
	.byte	W96
	.byte	W96
	.byte	W96
	.byte	W96
	.byte	W96
	.byte	W96
	.byte	W96
	.byte	W96
	.byte	W96
	.byte	W96
	.byte	W96
	.byte	W96
	.byte	W96
	.byte	W96
	.byte	W96
	.byte	W96
	.byte	W96
	.byte	W96
	.byte	W96
song020_12_1:
	.byte	W15
	.byte		N03	, An2, v076
	.byte	W12
	.byte			En3
	.byte	W12
	.byte		N05	, An4
	.byte	W12
	.byte		N03	, En4
	.byte	W12
	.byte		N04	, An2
	.byte	W12
	.byte		N03	, En3
	.byte	W12
	.byte		N04	, En4
	.byte	W09
	.byte	PEND
song020_12_2:
	.byte	W15
	.byte		N04	, An2, v076
	.byte	W12
	.byte		N03	, En3
	.byte	W12
	.byte		N05	, An4
	.byte	W12
	.byte		N04	, En4
	.byte	W12
	.byte			An2
	.byte	W12
	.byte		N03	, En3
	.byte	W12
	.byte			En4
	.byte	W09
	.byte	PEND
	.byte	PATT	
		.word	song020_12_1
	.byte	PATT	
		.word	song020_12_2
	.byte	PATT	
		.word	song020_12_1
	.byte	PATT	
		.word	song020_12_2
	.byte	W15
	.byte		N03	, Gn2, v076
	.byte	W12
	.byte			Dn3
	.byte	W12
	.byte		N05	, Gn4
	.byte	W12
	.byte		N03	, Dn4
	.byte	W12
	.byte		N04	, Gn2
	.byte	W12
	.byte		N03	, En3
	.byte	W12
	.byte		N04	, En4
	.byte	W09
	.byte	W15
	.byte			En2
	.byte	W12
	.byte		N03	, En3
	.byte	W12
	.byte		N05	, Gs4
	.byte	W12
	.byte		N04	, Dn4
	.byte	W12
	.byte			Gs2
	.byte	W12
	.byte		N03	, En3
	.byte	W12
	.byte			En4
	.byte	W09
	.byte	W96
	.byte	W96
	.byte	W96
	.byte	W96
	.byte	W96
	.byte	W96
	.byte	W96
	.byte	W96
	.byte	W96
	.byte	W96
	.byte	W96
	.byte	W96
	.byte	W96
	.byte	W96
	.byte	W96
	.byte	W96
	.byte	W96
	.byte	W96
	.byte	W96
	.byte	W96
	.byte	W96
	.byte	W96
	.byte	W96
	.byte	W96
	.byte	GOTO	
		.word	song020_12_3
	.byte	FINE

	@********************** Track  13 **********************@

	.global song020_13
song020_13:	@ 0x0826F8EB
	.byte	KEYSH	, 0
	.byte	VOICE	, 21
	.byte	VOL	, v063
	.byte	PAN	, c_v+21
	.byte	W03
	.byte	W96
	.byte	W60
	.byte	W01
	.byte		N03	, Dn4, v060
	.byte	W03
	.byte			En4
	.byte	W03
	.byte		N02	, Gs4
	.byte	W03
	.byte		N06	, Bn4
	.byte	W09
	.byte		N03	, Dn4, v048
	.byte	W03
	.byte			En4
	.byte	W03
	.byte		N02	, Gs4
	.byte	W03
	.byte		N06	, Bn4
	.byte	W08
	.byte	W01
	.byte		N03	, Dn4, v020
	.byte	W03
	.byte			En4
	.byte	W03
	.byte		N02	, Gs4
	.byte	W03
	.byte		N06	, Bn4
	.byte	W09
	.byte		N03	, Dn4, v008
	.byte	W03
	.byte			En4
	.byte	W03
	.byte		N02	, Gs4
	.byte	W03
	.byte		N06	, Bn4
	.byte	W09
	.byte		N03	, Dn4, v004
	.byte	W03
	.byte			En4
	.byte	W03
	.byte		N02	, Gs4
	.byte	W03
	.byte		N06	, Bn4
	.byte	W48
	.byte	W02
	.byte	W60
	.byte	W01
	.byte		N03	, Gn4, v080
	.byte	W03
	.byte			An4
	.byte	W03
	.byte		N02	, Cn5
	.byte	W03
	.byte		N06	, En5
	.byte	W07
	.byte			Cn5, v048
	.byte	W06
	.byte			En5, v044
	.byte	W06
	.byte			Cn5
	.byte	W06
	.byte			En5, v040
	.byte	W01
	.byte	W05
	.byte			Cn5, v036
	.byte	W06
	.byte			En5, v032
	.byte	W06
	.byte			Cn5
	.byte	W06
	.byte			En5, v028
	.byte	W06
	.byte			Cn5, v012
	.byte	W06
	.byte			En5
	.byte	W06
	.byte			Cn5, v008
	.byte	W54
	.byte	W01
	.byte	W96
	.byte	W96
	.byte	W96
song020_13_3:
	.byte	W96
	.byte	W96
	.byte	W96
	.byte	W96
	.byte	W96
	.byte	W96
	.byte	W96
	.byte	W96
	.byte	W96
	.byte	W96
	.byte	W96
	.byte	W96
	.byte	W96
	.byte	W96
	.byte	W96
	.byte	W96
	.byte	W96
	.byte	W96
	.byte	W96
	.byte	W96
	.byte	W24
	.byte	W03
	.byte		N03	, An2, v056
	.byte	W12
	.byte			En3
	.byte	W12
	.byte		N05	, An4
	.byte	W12
	.byte		N03	, En4
	.byte	W12
	.byte		N04	, An2
	.byte	W12
	.byte		N03	, En3
	.byte	W09
song020_13_1:
	.byte	W03
	.byte		N04	, En4, v056
	.byte	W24
	.byte			An2
	.byte	W12
	.byte		N03	, En3
	.byte	W12
	.byte		N05	, An4
	.byte	W12
	.byte		N04	, En4
	.byte	W12
	.byte			An2
	.byte	W12
	.byte		N03	, En3
	.byte	W09
	.byte	PEND
song020_13_2:
	.byte	W03
	.byte		N03	, En4, v056
	.byte	W24
	.byte			An2
	.byte	W12
	.byte			En3
	.byte	W12
	.byte		N05	, An4
	.byte	W12
	.byte		N03	, En4
	.byte	W12
	.byte		N04	, An2
	.byte	W12
	.byte		N03	, En3
	.byte	W09
	.byte	PEND
	.byte	PATT	
		.word	song020_13_1
	.byte	PATT	
		.word	song020_13_2
	.byte	PATT	
		.word	song020_13_1
	.byte	W03
	.byte		N03	, En4, v056
	.byte	W24
	.byte			Gn2
	.byte	W12
	.byte			Dn3
	.byte	W12
	.byte		N05	, Gn4
	.byte	W12
	.byte		N03	, Dn4
	.byte	W12
	.byte		N04	, Gn2
	.byte	W12
	.byte		N03	, En3
	.byte	W09
	.byte	W03
	.byte		N04	, En4
	.byte	W24
	.byte			En2
	.byte	W12
	.byte		N03	, En3
	.byte	W12
	.byte		N05	, Gs4
	.byte	W12
	.byte		N04	, Dn4
	.byte	W12
	.byte			Gs2
	.byte	W12
	.byte		N03	, En3
	.byte	W09
	.byte	W96
	.byte	W96
	.byte	W96
	.byte	W96
	.byte	W96
	.byte	W96
	.byte	W96
	.byte	W96
	.byte	PAN	, c_v
	.byte	W01
	.byte		N04	, Cn4, v088
	.byte	W03
	.byte		N36	, Cs4, v092
	.byte	W36
	.byte	W01
	.byte		N32	, Bn3, v104
	.byte	W32
	.byte		N13	, En4, v076
	.byte	W12
	.byte		N48	, Cs4, v100
	.byte	W11
	.byte	W36
	.byte	W01
	.byte		N36	, An3
	.byte	W36
	.byte	W02
	.byte		N24	, Bn3, v092
	.byte	W21
	.byte	W02
	.byte		N60	, Cn4, v096
	.byte	W60
	.byte	W01
	.byte		N12	, Dn4, v104
	.byte	W12
	.byte		N14	, En4, v092
	.byte	W13
	.byte		N56	, Dn4, v100
	.byte	W08
	.byte	W48
	.byte	W01
	.byte		N42	, Gn4, v088
	.byte	W42
	.byte	W01
	.byte		N05	, Gn4, v068
	.byte	W03
	.byte		N06	, Gs4, v076
	.byte	W01
	.byte	W05
	.byte		N56	, An4, v084
	.byte	W56
	.byte	W01
	.byte		N11	, Gn4
	.byte	W12
	.byte		N13	, An4, v088
	.byte	W13
	.byte		N48	, As4, v096
	.byte	W09
	.byte	W36
	.byte	W02
	.byte		N07	, Cn5, v068
	.byte	W05
	.byte		N09	, Cs5, v084
	.byte	W07
	.byte		N44	, Dn5, v092
	.byte	W44
	.byte	W02
	.byte	W01
	.byte		N60	, Cn5, v076
	.byte	W60
	.byte	W01
	.byte		N12	, As4, v080
	.byte	W10
	.byte		N13	, Cn5, v088
	.byte	W13
	.byte		TIE	, Dn5, v084
	.byte	W11
	.byte	W96
	.byte	W02
	.byte		EOT	
	.byte	W01
	.byte		TIE	, En5, v096
	.byte	W92
	.byte	W01
	.byte	W56
	.byte	W02
	.byte		EOT	
	.byte	W02
	.byte		N05	, Cs5, v092
	.byte	W04
	.byte		N20	, Dn5, v072
	.byte	W20
	.byte		N12	, Cs5, v096
	.byte	W12
	.byte		TIE	, Bn4
	.byte	W96
	.byte	W60
	.byte	W03
	.byte		EOT	
	.byte	W01
	.byte		N05	, An4, v040
	.byte	W02
	.byte		N04	, Gn4, v060
	.byte	W02
	.byte		N05	, Fn4, v064
	.byte	W02
	.byte		N04	, En4, v052
	.byte	W02
	.byte			Dn4, v068
	.byte	W03
	.byte			Cn4, v080
	.byte	W02
	.byte			Bn3, v064
	.byte	W01
	.byte			An3, v084
	.byte	W01
	.byte			Gn3, v072
	.byte	W03
	.byte			En3, v052
	.byte		N04	, Fn3, v004
	.byte	W02
	.byte			Dn3, v016
	.byte	W12
	.byte	W96
	.byte	W96
	.byte	W96
	.byte	W96
	.byte	GOTO	
		.word	song020_13_3
	.byte	FINE

	.align 2
	.global song020
song020:	@ 0x0826FAC4
	.byte	13		@ trackCount
	.byte	0		@ blockCount
	.byte	20		@ priority
	.byte	128		@ reverb

	.word	voicegroup008		@ voicegroup/tone

	.word	song020_1		@ track
	.word	song020_2		@ track
	.word	song020_3		@ track
	.word	song020_4		@ track
	.word	song020_5		@ track
	.word	song020_6		@ track
	.word	song020_7		@ track
	.word	song020_8		@ track
	.word	song020_9		@ track
	.word	song020_10		@ track
	.word	song020_11		@ track
	.word	song020_12		@ track
	.word	song020_13		@ track
