	.include "asm/macros/c_decl.inc"
	.include "asm/macros/portable.inc"
	.include "sound/MPlayDef.s"

	mSectionRodata

	@********************** Track  1 **********************@

	mAlignWord
	.global song055_1
song055_1:	@ 0x08293EC0
	.byte	KEYSH	, 0
	.byte	TEMPO	, 90
	.byte	VOICE	, 126
	.byte	VOL	, v085
	.byte	PAN	, c_v
	.byte	W03
	.byte	TEMPO	, 90
	.byte		N11	, Gn7, v127
	.byte	W12
	.byte			Dn1
	.byte	W12
	.byte			Gn7
	.byte	W17
	.byte		N06	, En1
	.byte	W06
	.byte		N11	, Gn7
	.byte	W12
	.byte			Fs1
	.byte	W12
	.byte		N06	, Gn7
	.byte	W07
	.byte		N05	, Gs1
	.byte	W06
	.byte		N11	, Gn7
	.byte	W12
song055_1_1:
	.byte		N11	, Gn7, v127
	.byte	W12
	.byte			Dn1
	.byte	W12
	.byte			Gn7
	.byte	W17
	.byte		N06	, En1
	.byte	W06
	.byte		N11	, Gn7
	.byte	W12
	.byte			Fs1
	.byte	W12
	.byte		N06	, Gn7
	.byte	W07
	.byte		N05	, Gs1
	.byte	W06
	.byte		N11	, Gn7
	.byte	W12
	.byte	PEND
	.byte	PATT	
		mPtr	song055_1_1
	.byte		N11	, Dn1, v127
	.byte	W12
	.byte			Gn7
	.byte	W12
	.byte			Dn1
	.byte	W12
	.byte		N80	, Fs7
	.byte		N11	, Gn7
	.byte	W12
	.byte		N05	
	.byte	W06
	.byte		N11	, Dn1
	.byte	W12
	.byte		N05	, Gn7
	.byte	W06
	.byte			Dn1
	.byte	W06
	.byte			Gs1
	.byte	W06
	.byte		N11	, Dn1
	.byte	W12
song055_1_2:
	.byte	PATT	
		mPtr	song055_1_1
	.byte	PATT	
		mPtr	song055_1_1
	.byte	PATT	
		mPtr	song055_1_1
	.byte	PATT	
		mPtr	song055_1_1
	.byte	PATT	
		mPtr	song055_1_1
	.byte	PATT	
		mPtr	song055_1_1
	.byte	PATT	
		mPtr	song055_1_1
	.byte	PATT	
		mPtr	song055_1_1
	.byte	PATT	
		mPtr	song055_1_1
	.byte	PATT	
		mPtr	song055_1_1
	.byte	PATT	
		mPtr	song055_1_1
	.byte	PATT	
		mPtr	song055_1_1
	.byte	PATT	
		mPtr	song055_1_1
	.byte	PATT	
		mPtr	song055_1_1
	.byte	PATT	
		mPtr	song055_1_1
	.byte	PATT	
		mPtr	song055_1_1
	.byte	PATT	
		mPtr	song055_1_1
	.byte	PATT	
		mPtr	song055_1_1
	.byte	PATT	
		mPtr	song055_1_1
	.byte	PATT	
		mPtr	song055_1_1
	.byte	PATT	
		mPtr	song055_1_1
	.byte	PATT	
		mPtr	song055_1_1
	.byte	PATT	
		mPtr	song055_1_1
	.byte	PATT	
		mPtr	song055_1_1
	.byte	PATT	
		mPtr	song055_1_1
	.byte	PATT	
		mPtr	song055_1_1
	.byte	PATT	
		mPtr	song055_1_1
	.byte	PATT	
		mPtr	song055_1_1
	.byte	PATT	
		mPtr	song055_1_1
	.byte	PATT	
		mPtr	song055_1_1
	.byte	PATT	
		mPtr	song055_1_1
	.byte	PATT	
		mPtr	song055_1_1
	.byte	PATT	
		mPtr	song055_1_1
	.byte	PATT	
		mPtr	song055_1_1
	.byte	PATT	
		mPtr	song055_1_1
	.byte	PATT	
		mPtr	song055_1_1
	.byte	PATT	
		mPtr	song055_1_1
	.byte	PATT	
		mPtr	song055_1_1
	.byte	PATT	
		mPtr	song055_1_1
	.byte		N11	, Gn7, v127
	.byte	W44
	.byte	W03
	.byte		N11	
	.byte	W12
	.byte			Fs1
	.byte	W12
	.byte		N06	, Gn7
	.byte	W07
	.byte		N05	, Gs1
	.byte	W06
	.byte		N11	, Gn7
	.byte	W12
	.byte	GOTO	
		mPtr	song055_1_2
	.byte	PATT	
		mPtr	song055_1_1
	.byte	PATT	
		mPtr	song055_1_1
	.byte	PATT	
		mPtr	song055_1_1
	.byte	PATT	
		mPtr	song055_1_1
	.byte	PATT	
		mPtr	song055_1_1
	.byte	PATT	
		mPtr	song055_1_1
	.byte	PATT	
		mPtr	song055_1_1
	.byte	PATT	
		mPtr	song055_1_1
	.byte	PATT	
		mPtr	song055_1_1
	.byte	PATT	
		mPtr	song055_1_1
	.byte	PATT	
		mPtr	song055_1_1
	.byte	PATT	
		mPtr	song055_1_1
	.byte	PATT	
		mPtr	song055_1_1
	.byte	PATT	
		mPtr	song055_1_1
	.byte	PATT	
		mPtr	song055_1_1
	.byte	PATT	
		mPtr	song055_1_1
	.byte	PATT	
		mPtr	song055_1_1
	.byte	PATT	
		mPtr	song055_1_1
	.byte	PATT	
		mPtr	song055_1_1
	.byte	PATT	
		mPtr	song055_1_1
	.byte	PATT	
		mPtr	song055_1_1
	.byte	PATT	
		mPtr	song055_1_1
	.byte	PATT	
		mPtr	song055_1_1
	.byte	PATT	
		mPtr	song055_1_1
	.byte	PATT	
		mPtr	song055_1_1
	.byte	PATT	
		mPtr	song055_1_1
	.byte	PATT	
		mPtr	song055_1_1
	.byte	PATT	
		mPtr	song055_1_1
	.byte	PATT	
		mPtr	song055_1_1
	.byte	PATT	
		mPtr	song055_1_1
	.byte	PATT	
		mPtr	song055_1_1
	.byte	PATT	
		mPtr	song055_1_1
	.byte	PATT	
		mPtr	song055_1_1
	.byte	PATT	
		mPtr	song055_1_1
	.byte	PATT	
		mPtr	song055_1_1
	.byte	PATT	
		mPtr	song055_1_1
	.byte	PATT	
		mPtr	song055_1_1
	.byte	PATT	
		mPtr	song055_1_1
	.byte	PATT	
		mPtr	song055_1_1
	.byte		N11	, Gn7, v127
	.byte	W44
	.byte	W03
	.byte		N11	
	.byte	W12
	.byte			Fs1
	.byte	W12
	.byte		N06	, Gn7
	.byte	W07
	.byte		N05	, Gs1
	.byte	W06
	.byte		N11	, Gn7
	.byte	W11
	.byte	FINE

	@********************** Track  2 **********************@

	.global song055_2
song055_2:	@ 0x082940D1
	.byte	KEYSH	, 0
	.byte	VOICE	, 120
	.byte	VOL	, v050
	.byte	PAN	, c_v-19
	.byte	W03
song055_2_1:
	.byte	W12
	.byte		N05	, Ds7, v072
	.byte	W06
	.byte		N03	, Bn6, v040
	.byte	W18
	.byte		N05	, Ds7, v044
	.byte	W06
	.byte		N03	, Bn6, v016
	.byte	W18
	.byte		N05	, Ds7, v072
	.byte	W06
	.byte		N03	, Bn6, v040
	.byte	W18
	.byte		N05	, Ds7, v072
	.byte	W06
	.byte		N03	, Bn6, v040
	.byte	W06
	.byte	PEND
	.byte	PATT	
		mPtr	song055_2_1
	.byte	PATT	
		mPtr	song055_2_1
song055_2_3:
	.byte	W12
	.byte		N05	, Ds7, v072
	.byte	W06
	.byte		N03	, Bn6, v040
	.byte	W18
	.byte		N05	, Ds7, v044
	.byte	W06
	.byte		N03	, Bn6, v016
	.byte	W06
	.byte		N05	, Ds7, v072
	.byte	W06
	.byte		N06	, Bn6, v084
	.byte	W18
	.byte		N05	, Ds7, v072
	.byte	W06
	.byte		N03	, Bn6, v040
	.byte	W18
	.byte	PEND
song055_2_2:
	.byte		N05	, Ds7, v072
	.byte	W06
	.byte		N03	, Bn6, v040
	.byte	W18
	.byte		N05	, Ds7, v044
	.byte	W06
	.byte		N03	, Bn6, v016
	.byte	W18
	.byte		N05	, Ds7, v072
	.byte	W06
	.byte		N03	, Bn6, v040
	.byte	W18
	.byte		N05	, Ds7, v072
	.byte	W06
	.byte		N03	, Bn6, v040
	.byte	W18
	.byte	PEND
	.byte	PATT	
		mPtr	song055_2_2
	.byte	PATT	
		mPtr	song055_2_2
	.byte	PATT	
		mPtr	song055_2_2
	.byte	PATT	
		mPtr	song055_2_2
	.byte	PATT	
		mPtr	song055_2_2
	.byte	PATT	
		mPtr	song055_2_2
	.byte	PATT	
		mPtr	song055_2_2
	.byte	PATT	
		mPtr	song055_2_2
	.byte	PATT	
		mPtr	song055_2_2
	.byte	PATT	
		mPtr	song055_2_2
	.byte	PATT	
		mPtr	song055_2_2
	.byte	PATT	
		mPtr	song055_2_2
	.byte	PATT	
		mPtr	song055_2_2
	.byte	PATT	
		mPtr	song055_2_2
	.byte	PATT	
		mPtr	song055_2_2
	.byte	PATT	
		mPtr	song055_2_2
	.byte	PATT	
		mPtr	song055_2_2
	.byte	PATT	
		mPtr	song055_2_2
	.byte	PATT	
		mPtr	song055_2_2
	.byte	PATT	
		mPtr	song055_2_2
	.byte	PATT	
		mPtr	song055_2_2
	.byte	PATT	
		mPtr	song055_2_2
	.byte	PATT	
		mPtr	song055_2_2
	.byte	PATT	
		mPtr	song055_2_2
	.byte	PATT	
		mPtr	song055_2_2
	.byte	PATT	
		mPtr	song055_2_2
	.byte	PATT	
		mPtr	song055_2_2
	.byte	PATT	
		mPtr	song055_2_2
	.byte	PATT	
		mPtr	song055_2_2
	.byte	PATT	
		mPtr	song055_2_2
	.byte	PATT	
		mPtr	song055_2_2
	.byte	PATT	
		mPtr	song055_2_1
	.byte	PATT	
		mPtr	song055_2_1
	.byte	PATT	
		mPtr	song055_2_1
	.byte	PATT	
		mPtr	song055_2_1
	.byte	PATT	
		mPtr	song055_2_1
	.byte	PATT	
		mPtr	song055_2_1
	.byte	PATT	
		mPtr	song055_2_1
	.byte	PATT	
		mPtr	song055_2_3
	.byte	GOTO	
		mPtr	song055_2_2
	.byte	PATT	
		mPtr	song055_2_2
	.byte	PATT	
		mPtr	song055_2_2
	.byte	PATT	
		mPtr	song055_2_2
	.byte	PATT	
		mPtr	song055_2_2
	.byte	PATT	
		mPtr	song055_2_2
	.byte	PATT	
		mPtr	song055_2_2
	.byte	PATT	
		mPtr	song055_2_2
	.byte	PATT	
		mPtr	song055_2_2
	.byte	PATT	
		mPtr	song055_2_2
	.byte	PATT	
		mPtr	song055_2_2
	.byte	PATT	
		mPtr	song055_2_2
	.byte	PATT	
		mPtr	song055_2_2
	.byte	PATT	
		mPtr	song055_2_2
	.byte	PATT	
		mPtr	song055_2_2
	.byte	PATT	
		mPtr	song055_2_2
	.byte	PATT	
		mPtr	song055_2_2
	.byte	PATT	
		mPtr	song055_2_2
	.byte	PATT	
		mPtr	song055_2_2
	.byte	PATT	
		mPtr	song055_2_2
	.byte	PATT	
		mPtr	song055_2_2
	.byte	PATT	
		mPtr	song055_2_2
	.byte	PATT	
		mPtr	song055_2_2
	.byte	PATT	
		mPtr	song055_2_2
	.byte	PATT	
		mPtr	song055_2_2
	.byte	PATT	
		mPtr	song055_2_2
	.byte	PATT	
		mPtr	song055_2_2
	.byte	PATT	
		mPtr	song055_2_2
	.byte	PATT	
		mPtr	song055_2_2
	.byte	PATT	
		mPtr	song055_2_2
	.byte	PATT	
		mPtr	song055_2_2
	.byte	PATT	
		mPtr	song055_2_2
	.byte	PATT	
		mPtr	song055_2_2
	.byte	PATT	
		mPtr	song055_2_1
	.byte	PATT	
		mPtr	song055_2_1
	.byte	PATT	
		mPtr	song055_2_1
	.byte	PATT	
		mPtr	song055_2_1
	.byte	PATT	
		mPtr	song055_2_1
	.byte	PATT	
		mPtr	song055_2_1
	.byte	PATT	
		mPtr	song055_2_1
	.byte	W12
	.byte		N05	, Ds7, v072
	.byte	W06
	.byte		N03	, Bn6, v040
	.byte	W18
	.byte		N05	, Ds7, v044
	.byte	W06
	.byte		N03	, Bn6, v016
	.byte	W06
	.byte		N05	, Ds7, v072
	.byte	W06
	.byte		N06	, Bn6, v084
	.byte	W18
	.byte		N05	, Ds7, v072
	.byte	W06
	.byte		N03	, Bn6, v040
	.byte	W03
	.byte	FINE

	@********************** Track  3 **********************@

	.global song055_3
song055_3:	@ 0x082942F6
	.byte	KEYSH	, 0
	.byte	VOICE	, 121
	.byte	VOL	, v070
	.byte	PAN	, c_v-19
	.byte	W03
song055_3_1:
	.byte		N12	, Gn7, v068
	.byte	W24
	.byte		N12	
	.byte	W24
	.byte		N12	
	.byte	W24
	.byte		N12	
	.byte	W24
	.byte	PEND
	.byte	PATT	
		mPtr	song055_3_1
	.byte	PATT	
		mPtr	song055_3_1
song055_3_5:
	.byte		N12	, Gn7, v068
	.byte	W24
	.byte		N12	
	.byte	W36
	.byte			Gn7, v088
	.byte	W24
	.byte			Gn7, v068
	.byte	W12
	.byte	PEND
song055_3_2:
	.byte	W12
	.byte		N12	, Gn7, v068
	.byte	W24
	.byte		N12	
	.byte	W24
	.byte		N12	
	.byte	W24
	.byte		N12	
	.byte	W12
	.byte	PEND
	.byte	PATT	
		mPtr	song055_3_2
	.byte	PATT	
		mPtr	song055_3_2
	.byte	PATT	
		mPtr	song055_3_2
	.byte	PATT	
		mPtr	song055_3_2
	.byte	PATT	
		mPtr	song055_3_2
	.byte	PATT	
		mPtr	song055_3_2
song055_3_3:
	.byte	W12
	.byte		N12	, Gn7, v068
	.byte	W24
	.byte		N12	
	.byte	W24
	.byte		N12	
	.byte	W24
	.byte		N11	
	.byte	W12
	.byte	PEND
	.byte	PATT	
		mPtr	song055_3_2
	.byte	PATT	
		mPtr	song055_3_2
	.byte	PATT	
		mPtr	song055_3_2
	.byte	PATT	
		mPtr	song055_3_2
	.byte	PATT	
		mPtr	song055_3_2
	.byte	PATT	
		mPtr	song055_3_2
	.byte	PATT	
		mPtr	song055_3_2
	.byte	PATT	
		mPtr	song055_3_3
song055_3_4:
	.byte		N11	, Gn7, v068
	.byte	W12
	.byte		N12	
	.byte	W24
	.byte		N12	
	.byte	W24
	.byte		N12	
	.byte	W24
	.byte		N12	
	.byte	W12
	.byte	PEND
	.byte	PATT	
		mPtr	song055_3_2
	.byte	PATT	
		mPtr	song055_3_2
	.byte	PATT	
		mPtr	song055_3_3
	.byte	PATT	
		mPtr	song055_3_4
	.byte	PATT	
		mPtr	song055_3_2
	.byte	PATT	
		mPtr	song055_3_2
	.byte	PATT	
		mPtr	song055_3_2
	.byte	PATT	
		mPtr	song055_3_4
	.byte	PATT	
		mPtr	song055_3_2
	.byte	PATT	
		mPtr	song055_3_2
	.byte	PATT	
		mPtr	song055_3_3
	.byte	PATT	
		mPtr	song055_3_4
	.byte	PATT	
		mPtr	song055_3_2
	.byte	PATT	
		mPtr	song055_3_2
	.byte	PATT	
		mPtr	song055_3_2
	.byte	PATT	
		mPtr	song055_3_1
	.byte	PATT	
		mPtr	song055_3_1
	.byte	PATT	
		mPtr	song055_3_1
	.byte	PATT	
		mPtr	song055_3_1
	.byte	PATT	
		mPtr	song055_3_1
	.byte	PATT	
		mPtr	song055_3_1
	.byte	PATT	
		mPtr	song055_3_1
	.byte	PATT	
		mPtr	song055_3_5
	.byte	GOTO	
		mPtr	song055_3_2
	.byte	PATT	
		mPtr	song055_3_2
	.byte	PATT	
		mPtr	song055_3_2
	.byte	PATT	
		mPtr	song055_3_2
	.byte	PATT	
		mPtr	song055_3_2
	.byte	PATT	
		mPtr	song055_3_2
	.byte	PATT	
		mPtr	song055_3_2
	.byte	PATT	
		mPtr	song055_3_2
	.byte	PATT	
		mPtr	song055_3_3
	.byte	PATT	
		mPtr	song055_3_2
	.byte	PATT	
		mPtr	song055_3_2
	.byte	PATT	
		mPtr	song055_3_2
	.byte	PATT	
		mPtr	song055_3_2
	.byte	PATT	
		mPtr	song055_3_2
	.byte	PATT	
		mPtr	song055_3_2
	.byte	PATT	
		mPtr	song055_3_2
	.byte	PATT	
		mPtr	song055_3_3
	.byte	PATT	
		mPtr	song055_3_4
	.byte	PATT	
		mPtr	song055_3_2
	.byte	PATT	
		mPtr	song055_3_2
	.byte	PATT	
		mPtr	song055_3_3
	.byte	PATT	
		mPtr	song055_3_4
	.byte	PATT	
		mPtr	song055_3_2
	.byte	PATT	
		mPtr	song055_3_2
	.byte	PATT	
		mPtr	song055_3_2
	.byte	PATT	
		mPtr	song055_3_4
	.byte	PATT	
		mPtr	song055_3_2
	.byte	PATT	
		mPtr	song055_3_2
	.byte	PATT	
		mPtr	song055_3_3
	.byte	PATT	
		mPtr	song055_3_4
	.byte	PATT	
		mPtr	song055_3_2
	.byte	PATT	
		mPtr	song055_3_2
	.byte	PATT	
		mPtr	song055_3_2
	.byte	PATT	
		mPtr	song055_3_1
	.byte	PATT	
		mPtr	song055_3_1
	.byte	PATT	
		mPtr	song055_3_1
	.byte	PATT	
		mPtr	song055_3_1
	.byte	PATT	
		mPtr	song055_3_1
	.byte	PATT	
		mPtr	song055_3_1
	.byte	PATT	
		mPtr	song055_3_1
	.byte	PATT	
		mPtr	song055_3_5
	.byte	FINE

	@********************** Track  4 **********************@

	.global song055_4
song055_4:	@ 0x082944CD
	.byte	KEYSH	, 0
	.byte	VOICE	, 57
	.byte	VOL	, v076
	.byte	PAN	, c_v-6
	.byte	W03
	.byte	W01
	.byte		N05	, Bn1, v127
	.byte	W06
	.byte			Bn1, v116
	.byte	W06
	.byte			An1, v112
	.byte	W06
	.byte			Bn1, v104
	.byte	W24
	.byte			Dn2, v112
	.byte	W06
	.byte			Dn2, v104
	.byte	W06
	.byte			Cn2, v116
	.byte	W06
	.byte			Dn2, v127
	.byte	W32
	.byte	W03
	.byte	W01
	.byte			Cs2
	.byte	W06
	.byte			Cs2, v116
	.byte	W06
	.byte			Bn1, v112
	.byte	W06
	.byte			Cs2, v104
	.byte	W18
	.byte			Cn2, v116
	.byte	W06
	.byte			Cn2, v112
	.byte	W06
	.byte			Bn1, v104
	.byte	W06
	.byte			Cn2, v116
	.byte	W40
	.byte	W01
	.byte	W01
	.byte			Bn1, v127
	.byte	W06
	.byte			Bn1, v116
	.byte	W06
	.byte			An1, v112
	.byte	W06
	.byte			Bn1, v104
	.byte	W18
	.byte			Dn2, v116
	.byte	W06
	.byte			Dn2, v112
	.byte	W06
	.byte			Cn2, v104
	.byte	W06
	.byte			Dn2, v116
	.byte	W40
	.byte	W01
	.byte	W01
	.byte			An1, v127
	.byte	W06
	.byte			An1, v116
	.byte	W06
	.byte			Gn1, v112
	.byte	W06
	.byte			An1, v104
	.byte	W18
	.byte			Cn2, v116
	.byte	W06
	.byte			Cn2, v112
	.byte	W06
	.byte			Bn1, v104
	.byte	W06
	.byte			Cn2, v116
	.byte	W18
	.byte			An1, v124
	.byte	W06
	.byte		N05	
	.byte	W06
	.byte			Cn2
	.byte	W06
	.byte			As1, v127
	.byte	W05
song055_4_1:
	.byte	W01
	.byte		N05	, Bn1, v127
	.byte	W06
	.byte			Bn1, v116
	.byte	W06
	.byte			Bn1, v112
	.byte	W06
	.byte			An1, v104
	.byte	W06
	.byte			Bn1, v116
	.byte	W06
	.byte			Bn1, v127
	.byte	W06
	.byte			Bn1, v116
	.byte	W06
	.byte			Dn2, v112
	.byte	W06
	.byte			Dn2, v104
	.byte	W06
	.byte			Cn2, v116
	.byte	W06
	.byte			Dn2, v127
	.byte	W06
	.byte		N05	
	.byte	W06
	.byte		N05	
	.byte	W06
	.byte			Dn2, v124
	.byte	W06
	.byte		N05	
	.byte	W06
	.byte			Dn2, v127
	.byte	W05
	.byte	PEND
song055_4_2:
	.byte	W01
	.byte		N05	, Gs1, v127
	.byte	W06
	.byte			Gs1, v116
	.byte	W06
	.byte			Fs1, v112
	.byte	W06
	.byte			Gs1, v104
	.byte	W06
	.byte			Gs1, v116
	.byte	W06
	.byte			Gs1, v127
	.byte	W06
	.byte			Gn1, v116
	.byte	W06
	.byte			Gn1, v112
	.byte	W06
	.byte			Gn1, v104
	.byte	W06
	.byte			Gn1, v116
	.byte	W06
	.byte			En1, v127
	.byte	W06
	.byte			Gn1
	.byte	W06
	.byte			Fn1, v124
	.byte	W06
	.byte			Gs1
	.byte	W06
	.byte			As1
	.byte	W06
	.byte			Cn2, v127
	.byte	W05
	.byte	PEND
song055_4_3:
	.byte	W01
	.byte		N05	, Bn1, v127
	.byte	W06
	.byte			Bn1, v116
	.byte	W06
	.byte			Bn1, v112
	.byte	W06
	.byte			An1, v104
	.byte	W06
	.byte			Bn1, v116
	.byte	W06
	.byte			Bn1, v127
	.byte	W06
	.byte			Dn2, v116
	.byte	W06
	.byte			Dn2, v112
	.byte	W06
	.byte			Cn2, v104
	.byte	W06
	.byte			Dn2, v116
	.byte	W06
	.byte			Dn2, v127
	.byte	W06
	.byte		N05	
	.byte	W06
	.byte		N05	
	.byte	W06
	.byte			Bn1, v124
	.byte	W06
	.byte			Dn2
	.byte	W06
	.byte			Dn2, v127
	.byte	W05
	.byte	PEND
song055_4_4:
	.byte	W01
	.byte		N05	, Cs2, v127
	.byte	W06
	.byte			Cs2, v116
	.byte	W06
	.byte			Bn1, v112
	.byte	W06
	.byte			Cs2, v104
	.byte	W06
	.byte			Cs2, v116
	.byte	W06
	.byte			Cs2, v127
	.byte	W06
	.byte			Cn2, v116
	.byte	W06
	.byte			Cn2, v112
	.byte	W06
	.byte			Cn2, v104
	.byte	W06
	.byte			Cn2, v116
	.byte	W06
	.byte			An1, v127
	.byte	W06
	.byte			Cn2
	.byte	W06
	.byte			An1, v124
	.byte	W06
	.byte		N05	
	.byte	W06
	.byte			Cn2
	.byte	W06
	.byte			As1, v127
	.byte	W05
	.byte	PEND
	.byte	PATT	
		mPtr	song055_4_1
	.byte	PATT	
		mPtr	song055_4_2
	.byte	PATT	
		mPtr	song055_4_3
	.byte	PATT	
		mPtr	song055_4_4
	.byte	PATT	
		mPtr	song055_4_1
	.byte	PATT	
		mPtr	song055_4_2
	.byte	PATT	
		mPtr	song055_4_3
	.byte	PATT	
		mPtr	song055_4_4
	.byte	PATT	
		mPtr	song055_4_1
	.byte	PATT	
		mPtr	song055_4_2
	.byte	PATT	
		mPtr	song055_4_3
	.byte	PATT	
		mPtr	song055_4_4
song055_4_5:
	.byte	W01
	.byte	VOL	, v066
	.byte	BENDR	, 59
	.byte		N05	, Bn1, v127
	.byte	W06
	.byte			Bn1, v116
	.byte	W06
	.byte			Bn2, v112
	.byte	W06
	.byte			Bn1, v104
	.byte	W06
	.byte			Bn2, v116
	.byte	W06
	.byte			Bn1, v127
	.byte	W06
	.byte			Bn1, v116
	.byte	W06
	.byte			Bn2, v112
	.byte	W06
	.byte			Bn3, v104
	.byte	W06
	.byte			Bn1, v116
	.byte	W06
	.byte			Bn1, v127
	.byte	W06
	.byte			Fs2
	.byte	W06
	.byte			Bn1, v124
	.byte	W06
	.byte			Fs3
	.byte	W06
	.byte			Bn1
	.byte	W06
	.byte			Bn2, v127
	.byte	W05
	.byte	PEND
song055_4_6:
	.byte	W01
	.byte		N05	, Bn1, v127
	.byte	W06
	.byte			Bn1, v116
	.byte	W06
	.byte			Bn2, v112
	.byte	W06
	.byte			Bn1, v104
	.byte	W06
	.byte			Bn2, v116
	.byte	W06
	.byte			Bn1, v127
	.byte	W06
	.byte			Bn1, v116
	.byte	W06
	.byte			Fs2, v112
	.byte	W06
	.byte			Bn2, v104
	.byte	W06
	.byte			Bn3, v116
	.byte	W06
	.byte			Bn1, v127
	.byte	W06
	.byte			Fs2
	.byte	W06
	.byte			Bn1, v124
	.byte	W06
	.byte			Fs3
	.byte	W06
	.byte			Bn2
	.byte	W06
	.byte			Bn1, v127
	.byte	W05
	.byte	PEND
song055_4_7:
	.byte	W01
	.byte		N05	, As1, v127
	.byte	W06
	.byte			As1, v116
	.byte	W06
	.byte			As2, v112
	.byte	W06
	.byte			As1, v104
	.byte	W06
	.byte			As2, v116
	.byte	W06
	.byte			As1, v127
	.byte	W06
	.byte			As1, v116
	.byte	W06
	.byte			As2, v112
	.byte	W06
	.byte			As3, v104
	.byte	W06
	.byte			As1, v116
	.byte	W06
	.byte			As1, v127
	.byte	W06
	.byte			Fn2
	.byte	W06
	.byte			As1, v124
	.byte	W06
	.byte			Fn3
	.byte	W06
	.byte			As1
	.byte	W06
	.byte			As2, v127
	.byte	W05
	.byte	PEND
song055_4_8:
	.byte	W01
	.byte		N05	, As1, v127
	.byte	W06
	.byte			As1, v116
	.byte	W06
	.byte			As2, v112
	.byte	W06
	.byte			As1, v104
	.byte	W06
	.byte			As2, v116
	.byte	W06
	.byte			As1, v127
	.byte	W06
	.byte			As1, v116
	.byte	W06
	.byte			Fn2, v112
	.byte	W06
	.byte			As2, v104
	.byte	W06
	.byte			As3, v116
	.byte	W06
	.byte			As1, v127
	.byte	W06
	.byte			Fn2
	.byte	W06
	.byte			As1, v124
	.byte	W06
	.byte			Fn3
	.byte	W06
	.byte			As2
	.byte	W06
	.byte			As1, v127
	.byte	W05
	.byte	PEND
song055_4_9:
	.byte	W01
	.byte		N05	, Gn1, v127
	.byte	W06
	.byte			Gn1, v116
	.byte	W06
	.byte			Gn2, v112
	.byte	W06
	.byte			Gn1, v104
	.byte	W06
	.byte			Gn2, v116
	.byte	W06
	.byte			Gn1, v127
	.byte	W06
	.byte			Gn1, v116
	.byte	W06
	.byte			Gn2, v112
	.byte	W06
	.byte			Gn3, v104
	.byte	W06
	.byte			Gn1, v116
	.byte	W06
	.byte			Gn1, v127
	.byte	W06
	.byte			Dn2
	.byte	W06
	.byte			Gn1, v124
	.byte	W06
	.byte			Dn3
	.byte	W06
	.byte			Gn1
	.byte	W06
	.byte			Gn2, v127
	.byte	W05
	.byte	PEND
song055_4_10:
	.byte	W01
	.byte		N05	, Gn1, v127
	.byte	W06
	.byte			Gn1, v116
	.byte	W06
	.byte			Gn2, v112
	.byte	W06
	.byte			Gn1, v104
	.byte	W06
	.byte			Gn2, v116
	.byte	W06
	.byte			Gn1, v127
	.byte	W06
	.byte			Gn1, v116
	.byte	W06
	.byte			Dn2, v112
	.byte	W06
	.byte			Gn2, v104
	.byte	W06
	.byte			Gn3, v116
	.byte	W06
	.byte			Gn1, v127
	.byte	W06
	.byte			Dn2
	.byte	W06
	.byte			Gn1, v124
	.byte	W06
	.byte			Dn3
	.byte	W06
	.byte			Gn2
	.byte	W06
	.byte			Gn1, v127
	.byte	W05
	.byte	PEND
song055_4_11:
	.byte	W01
	.byte		N05	, Fn1, v127
	.byte	W06
	.byte			Fn1, v116
	.byte	W06
	.byte			Fn2, v112
	.byte	W06
	.byte			Fn1, v104
	.byte	W06
	.byte			Fn2, v116
	.byte	W06
	.byte			Fn1, v127
	.byte	W06
	.byte			Fn1, v116
	.byte	W06
	.byte			Fn2, v112
	.byte	W06
	.byte			Fn3, v104
	.byte	W06
	.byte			Fn1, v116
	.byte	W06
	.byte			Fn1, v127
	.byte	W06
	.byte			Cn2
	.byte	W06
	.byte			Fn1, v124
	.byte	W06
	.byte			Cn3
	.byte	W06
	.byte			Fn1
	.byte	W06
	.byte			Fn2, v127
	.byte	W05
	.byte	PEND
song055_4_12:
	.byte	W01
	.byte		N05	, En1, v127
	.byte	W06
	.byte			En1, v116
	.byte	W06
	.byte			En2, v112
	.byte	W06
	.byte			En1, v104
	.byte	W06
	.byte			En2, v116
	.byte	W06
	.byte			En1, v127
	.byte	W06
	.byte			An1, v116
	.byte	W06
	.byte			En2, v112
	.byte	W06
	.byte			An2, v104
	.byte	W06
	.byte			An3, v116
	.byte	W06
	.byte			An1, v127
	.byte	W06
	.byte			En2
	.byte	W06
	.byte			An1, v124
	.byte	W06
	.byte			En3
	.byte	W06
	.byte			An2
	.byte	W06
	.byte			An1, v127
	.byte	W05
	.byte	PEND
	.byte	PATT	
		mPtr	song055_4_5
	.byte	PATT	
		mPtr	song055_4_6
	.byte	PATT	
		mPtr	song055_4_7
	.byte	PATT	
		mPtr	song055_4_8
	.byte	PATT	
		mPtr	song055_4_9
	.byte	PATT	
		mPtr	song055_4_10
	.byte	PATT	
		mPtr	song055_4_11
	.byte	PATT	
		mPtr	song055_4_12
	.byte	PATT	
		mPtr	song055_4_1
	.byte	PATT	
		mPtr	song055_4_4
	.byte	PATT	
		mPtr	song055_4_3
song055_4_13:
	.byte	W01
	.byte		N05	, An1, v127
	.byte	W06
	.byte			An1, v116
	.byte	W06
	.byte			Gn1, v112
	.byte	W06
	.byte			An1, v104
	.byte	W06
	.byte			An1, v116
	.byte	W06
	.byte			An1, v127
	.byte	W06
	.byte			Cn2, v116
	.byte	W06
	.byte			An1, v112
	.byte	W06
	.byte			Cn2, v104
	.byte	W06
	.byte			Cn2, v116
	.byte	W06
	.byte			An1, v127
	.byte	W06
	.byte			Cn2
	.byte	W06
	.byte			An1, v124
	.byte	W06
	.byte			Cn2
	.byte	W06
	.byte			Dn2
	.byte	W06
	.byte			En2, v127
	.byte	W05
	.byte	PEND
	.byte	PATT	
		mPtr	song055_4_1
	.byte	PATT	
		mPtr	song055_4_4
	.byte	PATT	
		mPtr	song055_4_3
	.byte	PATT	
		mPtr	song055_4_13
	.byte	GOTO	
		mPtr	song055_4_1
	.byte	PATT	
		mPtr	song055_4_1
	.byte	PATT	
		mPtr	song055_4_2
	.byte	PATT	
		mPtr	song055_4_3
	.byte	PATT	
		mPtr	song055_4_4
	.byte	PATT	
		mPtr	song055_4_1
	.byte	PATT	
		mPtr	song055_4_2
	.byte	PATT	
		mPtr	song055_4_3
	.byte	PATT	
		mPtr	song055_4_4
	.byte	PATT	
		mPtr	song055_4_1
	.byte	PATT	
		mPtr	song055_4_2
	.byte	PATT	
		mPtr	song055_4_3
	.byte	PATT	
		mPtr	song055_4_4
	.byte	PATT	
		mPtr	song055_4_1
	.byte	PATT	
		mPtr	song055_4_2
	.byte	PATT	
		mPtr	song055_4_3
	.byte	PATT	
		mPtr	song055_4_4
	.byte	PATT	
		mPtr	song055_4_5
	.byte	PATT	
		mPtr	song055_4_6
	.byte	PATT	
		mPtr	song055_4_7
	.byte	PATT	
		mPtr	song055_4_8
	.byte	PATT	
		mPtr	song055_4_9
	.byte	PATT	
		mPtr	song055_4_10
	.byte	PATT	
		mPtr	song055_4_11
	.byte	PATT	
		mPtr	song055_4_12
	.byte	PATT	
		mPtr	song055_4_5
	.byte	PATT	
		mPtr	song055_4_6
	.byte	PATT	
		mPtr	song055_4_7
	.byte	PATT	
		mPtr	song055_4_8
	.byte	PATT	
		mPtr	song055_4_9
	.byte	PATT	
		mPtr	song055_4_10
	.byte	PATT	
		mPtr	song055_4_11
	.byte	PATT	
		mPtr	song055_4_12
	.byte	PATT	
		mPtr	song055_4_1
	.byte	PATT	
		mPtr	song055_4_4
	.byte	PATT	
		mPtr	song055_4_3
	.byte	PATT	
		mPtr	song055_4_13
	.byte	PATT	
		mPtr	song055_4_1
	.byte	PATT	
		mPtr	song055_4_4
	.byte	PATT	
		mPtr	song055_4_3
	.byte	PATT	
		mPtr	song055_4_13
	.byte	FINE

	@********************** Track  5 **********************@

	.global song055_5
song055_5:	@ 0x08294910
	.byte	KEYSH	, 0
	.byte	VOICE	, 0
	.byte	VOL	, v060
	.byte	BENDR	, 13
	.byte	LFOS	, 28
	.byte	MODT	, 0
	.byte	MOD	, 1
	.byte	W01
	.byte	PAN	, c_v+6
	.byte	W02
	.byte	W96
	.byte	W96
	.byte	W96
	.byte	W96
song055_5_1:
	.byte	W01
	.byte		N24	, Bn5, v108
	.byte	W24
	.byte			Fs5
	.byte	W24
	.byte			An5
	.byte	W14
	.byte	MOD	, 1
	.byte	W10
	.byte		N24	, Gs5
	.byte	W23
	.byte	PEND
song055_5_2:
	.byte	W01
	.byte		N24	, Fn5, v108
	.byte	W24
	.byte			Cs5
	.byte	W02
	.byte	MOD	, 1
	.byte	W22
	.byte		N24	, En5
	.byte	W24
	.byte			Cn5
	.byte	W23
	.byte	PEND
song055_5_3:
	.byte	MOD	, 2
	.byte	W01
	.byte		N36	, Bn4, v108
	.byte	W36
	.byte		N06	, As4
	.byte	W06
	.byte			An4
	.byte	W06
	.byte		N48	, Gs4
	.byte	W12
	.byte	MOD	, 5
	.byte	W11
	.byte		7
	.byte	W24
	.byte	PEND
song055_5_4:
	.byte	W01
	.byte		N96	, Gn4, v108
	.byte	W23
	.byte	MOD	, 9
	.byte	W18
	.byte		9
	.byte	W18
	.byte		9
	.byte	W32
	.byte	W01
	.byte		9
	.byte	W01
	.byte		9
	.byte	W02
	.byte	PEND
song055_5_5:
	.byte	W01
	.byte	MOD	, 6
	.byte		N24	, Bn5, v108
	.byte	W04
	.byte	MOD	, 2
	.byte	W01
	.byte		1
	.byte	W02
	.byte		1
	.byte	W02
	.byte		1
	.byte	W15
	.byte		N24	, Fs5
	.byte	W24
	.byte			An5
	.byte	W24
	.byte			Gs5
	.byte	W23
	.byte	PEND
song055_5_6:
	.byte	W01
	.byte		N24	, Fn5, v108
	.byte	W24
	.byte			Cs5
	.byte	W24
	.byte			En5
	.byte	W06
	.byte	MOD	, 1
	.byte	W18
	.byte		N24	, Cn5
	.byte	W21
	.byte	MOD	, 1
	.byte	W02
	.byte	PEND
song055_5_7:
	.byte	W01
	.byte		N48	, Bn4, v108
	.byte	W28
	.byte	MOD	, 2
	.byte	W20
	.byte		N48	, Dn5
	.byte	W13
	.byte	MOD	, 5
	.byte	W21
	.byte		7
	.byte	W13
	.byte	PEND
song055_5_8:
	.byte	W01
	.byte		N48	, Fn5, v108
	.byte	W02
	.byte	MOD	, 9
	.byte	W12
	.byte		9
	.byte	W32
	.byte	W02
	.byte		N48	, Gn5
	.byte	W05
	.byte	MOD	, 9
	.byte	W40
	.byte	W01
	.byte		9
	.byte	W01
	.byte	PEND
	.byte	PATT	
		mPtr	song055_5_1
	.byte	PATT	
		mPtr	song055_5_2
song055_5_9:
	.byte	MOD	, 2
	.byte	W01
	.byte		N36	, Bn4, v108
	.byte	W36
	.byte		N06	, As4
	.byte	W06
	.byte		N07	, An4
	.byte	W06
	.byte		N48	, Gs4
	.byte	W05
	.byte	MOD	, 5
	.byte	W18
	.byte		7
	.byte	W24
	.byte	PEND
song055_5_10:
	.byte	W01
	.byte		TIE	, Gn4, v108
	.byte	W23
	.byte	MOD	, 9
	.byte	W18
	.byte		9
	.byte	W18
	.byte		9
	.byte	W32
	.byte	W01
	.byte		9
	.byte	W01
	.byte		1
	.byte	W02
	.byte	PEND
	.byte	W01
	.byte		N24	, Bn5
	.byte	W03
	.byte		EOT	, Gn4
	.byte	W21
	.byte		N24	, Fs5
	.byte	W24
	.byte			An5
	.byte	W14
	.byte	MOD	, 1
	.byte	W10
	.byte		N24	, Gs5
	.byte	W23
	.byte	PATT	
		mPtr	song055_5_2
song055_5_11:
	.byte	W01
	.byte		N48	, Bn4, v108
	.byte	W48
	.byte			Dn5
	.byte	W36
	.byte	MOD	, 1
	.byte	W11
	.byte	PEND
song055_5_12:
	.byte	W01
	.byte	MOD	, 1
	.byte		N48	, Fn5, v108
	.byte	W13
	.byte	MOD	, 1
	.byte	W13
	.byte		3
	.byte	W22
	.byte		N48	, Gn5
	.byte	W44
	.byte	W03
	.byte	PEND
song055_5_13:
	.byte	W01
	.byte		N84	, Bn5, v108
	.byte	W02
	.byte	MOD	, 1
	.byte	W02
	.byte		1
	.byte	W36
	.byte	W03
	.byte		1
	.byte	W05
	.byte		1
	.byte	W06
	.byte		1
	.byte	W07
	.byte		3
	.byte	W07
	.byte		6
	.byte	W06
	.byte		9
	.byte	W10
	.byte		N06	, Fn5
	.byte	W03
	.byte	MOD	, 6
	.byte	W03
	.byte		3
	.byte		N07	, En5
	.byte	W04
	.byte	MOD	, 1
	.byte	W01
	.byte	PEND
song055_5_14:
	.byte	MOD	, 1
	.byte	W01
	.byte		N84	, Dn5, v108
	.byte	W01
	.byte	MOD	, 1
	.byte	W48
	.byte	W03
	.byte		1
	.byte	W06
	.byte		1
	.byte	W04
	.byte		2
	.byte	W09
	.byte		5
	.byte	W13
	.byte		N06	, As5
	.byte	W05
	.byte	MOD	, 2
	.byte	W01
	.byte		N07	, Bn5
	.byte	W01
	.byte	MOD	, 1
	.byte	W02
	.byte		1
	.byte	W01
	.byte		1
	.byte	W01
	.byte	PEND
song055_5_15:
	.byte	W01
	.byte		N84	, As5, v108
	.byte	W44
	.byte	MOD	, 1
	.byte	W03
	.byte		1
	.byte	W05
	.byte		2
	.byte	W09
	.byte		5
	.byte	W23
	.byte		1
	.byte		N08	, Ds5
	.byte	W01
	.byte	MOD	, 1
	.byte	W05
	.byte		N07	, Cs5
	.byte	W05
	.byte	PEND
song055_5_16:
	.byte	W01
	.byte		TIE	, Cn5, v108
	.byte	W36
	.byte	W02
	.byte	MOD	, 1
	.byte	W07
	.byte		1
	.byte	W06
	.byte		1
	.byte	W07
	.byte		3
	.byte	W28
	.byte		1
	.byte	W01
	.byte		1
	.byte	W08
	.byte	PEND
	.byte	W01
	.byte		N84	, Gn5
	.byte	W03
	.byte		EOT	, Cn5
	.byte	W42
	.byte	W01
	.byte	MOD	, 1
	.byte	W06
	.byte		1
	.byte	W07
	.byte		2
	.byte	W24
	.byte	W01
	.byte		N06	, An5
	.byte	W02
	.byte	MOD	, 1
	.byte	W02
	.byte		1
	.byte	W02
	.byte		N07	, As5
	.byte	W05
song055_5_17:
	.byte	W01
	.byte		N60	, An5, v108
	.byte	W32
	.byte	W01
	.byte	MOD	, 1
	.byte	W05
	.byte		1
	.byte	W08
	.byte		1
	.byte	W08
	.byte		3
	.byte	W06
	.byte		N24	, Fn5
	.byte	W01
	.byte	MOD	, 1
	.byte	W01
	.byte		1
	.byte	W02
	.byte		1
	.byte	W20
	.byte		N12	, Gn5
	.byte	W11
	.byte	PEND
song055_5_18:
	.byte	W01
	.byte		N84	, Dn6, v108
	.byte	W28
	.byte	W01
	.byte	MOD	, 1
	.byte	W05
	.byte		1
	.byte	W06
	.byte		2
	.byte	W10
	.byte		5
	.byte	W32
	.byte	W02
	.byte		N08	, An5
	.byte	W02
	.byte	MOD	, 2
	.byte	W02
	.byte		1
	.byte	W01
	.byte		1
	.byte	W01
	.byte		N07	, As5
	.byte	W05
	.byte	PEND
song055_5_19:
	.byte	W01
	.byte		N48	, Bn5, v108
	.byte	W48
	.byte			Cs6
	.byte	W44
	.byte	W03
	.byte	PEND
song055_5_20:
	.byte	W01
	.byte		N84	, Dn6, v108
	.byte	W42
	.byte	MOD	, 1
	.byte	W06
	.byte		1
	.byte	W03
	.byte		2
	.byte	W32
	.byte	W01
	.byte		N06	, An5
	.byte	W03
	.byte	MOD	, 1
	.byte	W02
	.byte		1
	.byte	W01
	.byte		N07	, Gs5
	.byte	W05
	.byte	PEND
song055_5_21:
	.byte	W01
	.byte		N84	, Fs5, v108
	.byte	W36
	.byte	MOD	, 1
	.byte	W04
	.byte		1
	.byte	W05
	.byte		2
	.byte	W12
	.byte		5
	.byte	W24
	.byte	W03
	.byte		N07	, Cn6
	.byte	W01
	.byte	MOD	, 1
	.byte	W01
	.byte		1
	.byte	W04
	.byte		N06	, Cs6
	.byte	W05
	.byte	PEND
song055_5_22:
	.byte	W01
	.byte		N84	, Cn6, v108
	.byte	W32
	.byte	W01
	.byte	MOD	, 1
	.byte	W07
	.byte		1
	.byte	W09
	.byte		2
	.byte	W09
	.byte		5
	.byte	W24
	.byte		1
	.byte	W02
	.byte		1
	.byte		N06	, Gs5
	.byte	W01
	.byte	MOD	, 1
	.byte	W05
	.byte		N06	, Fs5
	.byte	W05
	.byte	PEND
song055_5_23:
	.byte	W01
	.byte		N48	, Fn5, v108
	.byte	W30
	.byte	MOD	, 1
	.byte	W09
	.byte		1
	.byte	W09
	.byte		1
	.byte		N48	, Fs5
	.byte	W09
	.byte	MOD	, 3
	.byte	W36
	.byte	W02
	.byte	PEND
song055_5_24:
	.byte	W01
	.byte		N84	, As5, v108
	.byte	W01
	.byte	MOD	, 1
	.byte	W02
	.byte		1
	.byte	W02
	.byte		1
	.byte	W36
	.byte	W01
	.byte		1
	.byte	W05
	.byte		1
	.byte	W12
	.byte		2
	.byte	W10
	.byte		5
	.byte	W15
	.byte		N06	, An5
	.byte	W06
	.byte		N07	, As5
	.byte	W02
	.byte	MOD	, 2
	.byte	W01
	.byte		1
	.byte	W02
	.byte	PEND
song055_5_25:
	.byte	MOD	, 1
	.byte	W01
	.byte		N60	, Cn6, v108
	.byte	W32
	.byte	W03
	.byte	MOD	, 1
	.byte	W05
	.byte		1
	.byte	W06
	.byte		1
	.byte	W12
	.byte		3
	.byte	W02
	.byte		N24	, Fn5
	.byte	W18
	.byte	MOD	, 1
	.byte	W01
	.byte		1
	.byte	W03
	.byte		1
	.byte	W02
	.byte		N12	, Gn5
	.byte	W11
	.byte	PEND
song055_5_26:
	.byte	W01
	.byte		N48	, Dn6, v108
	.byte	W24
	.byte	W03
	.byte	MOD	, 1
	.byte	W05
	.byte		1
	.byte	W07
	.byte		2
	.byte	W09
	.byte		N36	, Cn6
	.byte	W04
	.byte	MOD	, 5
	.byte	W24
	.byte		2
	.byte	W02
	.byte		1
	.byte	W02
	.byte		1
	.byte	W04
	.byte		N06	, As5
	.byte	W06
	.byte		N07	, An5
	.byte	W05
	.byte	PEND
song055_5_27:
	.byte	W01
	.byte		N48	, Gn5, v108
	.byte	W48
	.byte			An5
	.byte	W23
	.byte	MOD	, 5
	.byte	W16
	.byte		1
	.byte	W08
	.byte	PEND
song055_5_28:
	.byte	W66
	.byte	W01
	.byte		N08	, Fs3, v108
	.byte	W06
	.byte			Bn3
	.byte	W06
	.byte			Dn4
	.byte	W06
	.byte			En4
	.byte	W06
	.byte			Fn4
	.byte	W05
	.byte	PEND
song055_5_29:
	.byte	W01
	.byte		N72	, Fs4, v108
	.byte	W32
	.byte	W03
	.byte	MOD	, 1
	.byte	W03
	.byte		1
	.byte	W03
	.byte		2
	.byte	W07
	.byte		5
	.byte	W05
	.byte		7
	.byte	W24
	.byte		5
	.byte	W02
	.byte		1
	.byte	W01
	.byte		1
	.byte	W01
	.byte	W03
	.byte		N07	, Gs4
	.byte	W06
	.byte			An4
	.byte	W05
	.byte	PEND
song055_5_30:
	.byte	W01
	.byte		N84	, Gs4, v108
	.byte	W28
	.byte	W01
	.byte	MOD	, 1
	.byte	W06
	.byte		1
	.byte	W10
	.byte		2
	.byte	W20
	.byte		5
	.byte	W19
	.byte		N06	, Fs4
	.byte	W02
	.byte	MOD	, 2
	.byte	W02
	.byte		1
	.byte	W01
	.byte		1
	.byte	W01
	.byte		N07	, Fn4
	.byte	W01
	.byte	MOD	, 1
	.byte	W04
	.byte	PEND
song055_5_31:
	.byte	W01
	.byte		N60	, En4, v108
	.byte	W44
	.byte	W03
	.byte	MOD	, 1
	.byte	W13
	.byte		N36	, Fn4
	.byte	W12
	.byte	MOD	, 1
	.byte	W23
	.byte	PEND
song055_5_32:
	.byte	W01
	.byte		N84	, Fs4, v108
	.byte	W24
	.byte	W03
	.byte	MOD	, 1
	.byte	W08
	.byte		1
	.byte	W07
	.byte		2
	.byte	W09
	.byte		5
	.byte	W17
	.byte		7
	.byte	W16
	.byte		5
	.byte		N06	, Bn4
	.byte	W02
	.byte	MOD	, 1
	.byte	W01
	.byte		1
	.byte	W02
	.byte		1
	.byte	W01
	.byte		N06	, Dn5
	.byte	W05
	.byte	PEND
song055_5_33:
	.byte	W01
	.byte		N60	, En5, v108
	.byte	W30
	.byte	W01
	.byte	MOD	, 1
	.byte	W06
	.byte		1
	.byte	W07
	.byte		2
	.byte	W06
	.byte		5
	.byte	W10
	.byte		7
	.byte		N12	, Dn5
	.byte	W07
	.byte	MOD	, 3
	.byte	W01
	.byte		1
	.byte	W02
	.byte		1
	.byte	W17
	.byte		N06	, En5
	.byte	W03
	.byte		N18	, Fn5
	.byte	W05
	.byte	PEND
song055_5_34:
	.byte	W13
	.byte		N13	, En5, v108
	.byte	W12
	.byte		N04	, Dn5
	.byte	W12
	.byte		N24	, En5
	.byte	W24
	.byte			Dn5
	.byte	W24
	.byte		N05	, Cs5
	.byte	W06
	.byte		N07	, Dn5
	.byte	W05
	.byte	PEND
	.byte	W01
	.byte		N84	, Cs5
	.byte	W32
	.byte	W02
	.byte	MOD	, 1
	.byte	W03
	.byte		1
	.byte	W05
	.byte		1
	.byte	W06
	.byte		3
	.byte	W07
	.byte		6
	.byte	W06
	.byte		9
	.byte	W32
	.byte		1
	.byte	W01
	.byte		1
	.byte	W01
	.byte	GOTO	
		mPtr	song055_5_1
	.byte	PATT	
		mPtr	song055_5_1
	.byte	PATT	
		mPtr	song055_5_2
	.byte	PATT	
		mPtr	song055_5_3
	.byte	PATT	
		mPtr	song055_5_4
	.byte	PATT	
		mPtr	song055_5_5
	.byte	PATT	
		mPtr	song055_5_6
	.byte	PATT	
		mPtr	song055_5_7
	.byte	PATT	
		mPtr	song055_5_8
	.byte	PATT	
		mPtr	song055_5_1
	.byte	PATT	
		mPtr	song055_5_2
	.byte	PATT	
		mPtr	song055_5_9
	.byte	PATT	
		mPtr	song055_5_10
	.byte	W01
	.byte		N24	, Bn5, v108
	.byte	W03
	.byte		EOT	, Gn4
	.byte	W21
	.byte		N24	, Fs5
	.byte	W24
	.byte			An5
	.byte	W14
	.byte	MOD	, 1
	.byte	W10
	.byte		N24	, Gs5
	.byte	W23
	.byte	PATT	
		mPtr	song055_5_2
	.byte	PATT	
		mPtr	song055_5_11
	.byte	PATT	
		mPtr	song055_5_12
	.byte	PATT	
		mPtr	song055_5_13
	.byte	PATT	
		mPtr	song055_5_14
	.byte	PATT	
		mPtr	song055_5_15
	.byte	PATT	
		mPtr	song055_5_16
	.byte	W01
	.byte		N84	, Gn5, v108
	.byte	W03
	.byte		EOT	, Cn5
	.byte	W42
	.byte	W01
	.byte	MOD	, 1
	.byte	W06
	.byte		1
	.byte	W07
	.byte		2
	.byte	W24
	.byte	W01
	.byte		N06	, An5
	.byte	W02
	.byte	MOD	, 1
	.byte	W02
	.byte		1
	.byte	W02
	.byte		N07	, As5
	.byte	W05
	.byte	PATT	
		mPtr	song055_5_17
	.byte	PATT	
		mPtr	song055_5_18
	.byte	PATT	
		mPtr	song055_5_19
	.byte	PATT	
		mPtr	song055_5_20
	.byte	PATT	
		mPtr	song055_5_21
	.byte	PATT	
		mPtr	song055_5_22
	.byte	PATT	
		mPtr	song055_5_23
	.byte	PATT	
		mPtr	song055_5_24
	.byte	PATT	
		mPtr	song055_5_25
	.byte	PATT	
		mPtr	song055_5_26
	.byte	PATT	
		mPtr	song055_5_27
	.byte	PATT	
		mPtr	song055_5_28
	.byte	PATT	
		mPtr	song055_5_29
	.byte	PATT	
		mPtr	song055_5_30
	.byte	PATT	
		mPtr	song055_5_31
	.byte	PATT	
		mPtr	song055_5_32
	.byte	PATT	
		mPtr	song055_5_33
	.byte	PATT	
		mPtr	song055_5_34
	.byte	W01
	.byte		N84	, Cs5, v108
	.byte	W32
	.byte	W02
	.byte	MOD	, 1
	.byte	W03
	.byte		1
	.byte	W05
	.byte		1
	.byte	W06
	.byte		3
	.byte	W07
	.byte		6
	.byte	W06
	.byte		9
	.byte	W32
	.byte		1
	.byte	W01
	.byte		1
	.byte	FINE

	@********************** Track  6 **********************@

	.global song055_6
song055_6:	@ 0x08294D94
	.byte	KEYSH	, 0
	.byte	VOICE	, 98
	.byte	VOL	, v080
	.byte	PAN	, c_v+16
	.byte	BENDR	, 12
	.byte	W03
song055_6_1:
	.byte		N23	, Bn4, v127
	.byte	W24
	.byte		N24	, Fs4
	.byte	W24
	.byte			An4
	.byte	W24
	.byte			Gs4
	.byte	W24
	.byte	PEND
song055_6_2:
	.byte		N24	, Fn4, v127
	.byte	W24
	.byte			Cs4
	.byte	W24
	.byte			En4
	.byte	W24
	.byte			Cn4
	.byte	W24
	.byte	PEND
	.byte		N48	, Bn3
	.byte	W48
	.byte		N44	, Dn4
	.byte	W48
	.byte			Fn4
	.byte	W48
	.byte			Gn4
	.byte	W48
song055_6_5:
	.byte	PATT	
		mPtr	song055_6_1
	.byte	PATT	
		mPtr	song055_6_2
	.byte		N36	, Fs4, v127
	.byte	W36
	.byte		N07	, En4
	.byte	W06
	.byte		N06	, Ds4
	.byte	W06
	.byte		N44	, Cs4
	.byte	W48
	.byte			As3
	.byte	W48
	.byte			Gn3
	.byte	W48
	.byte	PATT	
		mPtr	song055_6_1
	.byte	PATT	
		mPtr	song055_6_2
	.byte		N36	, Fs4, v127
	.byte	W36
	.byte		N07	, En4
	.byte	W06
	.byte		N06	, Ds4
	.byte	W06
	.byte		N44	, Dn4
	.byte	W48
	.byte			Cs4
	.byte	W48
	.byte			As3
	.byte	W48
	.byte	PATT	
		mPtr	song055_6_1
	.byte	PATT	
		mPtr	song055_6_2
song055_6_7:
	.byte		N36	, Dn3, v127
	.byte	W36
	.byte		N07	, Cs3
	.byte	W06
	.byte		N06	, Cn3
	.byte	W06
	.byte		N44	, Bn2
	.byte	W48
	.byte	PEND
song055_6_8:
	.byte		N44	, As2, v127
	.byte	W48
	.byte			Gn2
	.byte	W48
	.byte	PEND
	.byte	PATT	
		mPtr	song055_6_1
	.byte	PATT	
		mPtr	song055_6_2
song055_6_6:
	.byte		N36	, Fs3, v127
	.byte	W36
	.byte		N07	, En3
	.byte	W06
	.byte		N06	, Ds3
	.byte	W06
	.byte		N44	, Dn3
	.byte	W48
	.byte	PEND
	.byte		N92	, As2
	.byte	W96
song055_6_9:
	.byte		TIE	, Dn2, v127
	.byte		TIE	, An2
	.byte	W96
	.byte	PEND
	.byte	W92
	.byte	W03
	.byte		EOT	, Dn2
	.byte			An2
	.byte	W01
song055_6_10:
	.byte		N44	, Cn2, v127
	.byte		TIE	, Fn2
	.byte	W48
	.byte		N48	, As2
	.byte	W48
	.byte	PEND
song055_6_11:
	.byte		N48	, Cn3, v127
	.byte	W48
	.byte			Cs3
	.byte	W44
	.byte	W03
	.byte	PEND
	.byte		EOT	, Fn2
	.byte	W01
song055_6_12:
	.byte		TIE	, Gn2, v127
	.byte		N92	, Dn3
	.byte	W96
	.byte	PEND
song055_6_3:
	.byte		N44	, En3, v127
	.byte	W48
	.byte			Fn3
	.byte	W44
	.byte	W03
	.byte	PEND
	.byte		EOT	, Gn2
	.byte	W01
	.byte		N92	, An2
	.byte		N92	, Fn3
	.byte	W96
song055_6_4:
	.byte		N48	, Bn2, v127
	.byte		N48	, Gn3
	.byte	W48
	.byte			Cs3
	.byte		N48	, An3
	.byte	W48
	.byte	PEND
song055_6_13:
	.byte		TIE	, Dn3, v127
	.byte		TIE	, An3
	.byte	W96
	.byte	PEND
	.byte	W92
	.byte	W03
	.byte		EOT	, Dn3
	.byte			An3
	.byte	W01
song055_6_14:
	.byte		N44	, Cn3, v127
	.byte		TIE	, Fn3
	.byte	W48
	.byte		N48	, As3
	.byte	W48
	.byte	PEND
song055_6_15:
	.byte		N48	, Cn4, v127
	.byte	W44
	.byte	W03
	.byte	PEND
	.byte		EOT	, Fn3
	.byte	W01
	.byte		N48	
	.byte		N48	, Cs4
	.byte	W48
song055_6_16:
	.byte		N92	, Dn3, v127
	.byte		TIE	, Gn3
	.byte	W96
	.byte	PEND
	.byte	PATT	
		mPtr	song055_6_3
	.byte		EOT	, Gn3
	.byte	W01
	.byte		N92	, An2, v127
	.byte		N92	, Fn3
	.byte	W96
	.byte	PATT	
		mPtr	song055_6_4
	.byte	W96
	.byte	W96
	.byte	W96
	.byte	W96
	.byte	W96
	.byte	W96
	.byte	W96
	.byte	W96
	.byte	GOTO	
		mPtr	song055_6_5
	.byte	PATT	
		mPtr	song055_6_1
	.byte	PATT	
		mPtr	song055_6_2
	.byte		N36	, Fs3, v127
	.byte	W36
	.byte		N07	, En3
	.byte	W06
	.byte		N06	, Ds3
	.byte	W06
	.byte		N44	, Cs3
	.byte	W48
	.byte		N92	, As2
	.byte	W96
	.byte	PATT	
		mPtr	song055_6_1
	.byte	PATT	
		mPtr	song055_6_2
	.byte	PATT	
		mPtr	song055_6_6
	.byte		N92	, As2, v127
	.byte	W96
	.byte	PATT	
		mPtr	song055_6_1
	.byte	PATT	
		mPtr	song055_6_2
	.byte	PATT	
		mPtr	song055_6_7
	.byte	PATT	
		mPtr	song055_6_8
	.byte	PATT	
		mPtr	song055_6_1
	.byte	PATT	
		mPtr	song055_6_2
	.byte	PATT	
		mPtr	song055_6_6
	.byte		N92	, As2, v127
	.byte	W96
	.byte	PATT	
		mPtr	song055_6_9
	.byte	W92
	.byte	W03
	.byte		EOT	, Dn2
	.byte			An2
	.byte	W01
	.byte	PATT	
		mPtr	song055_6_10
	.byte	PATT	
		mPtr	song055_6_11
	.byte		EOT	, Fn2
	.byte	W01
	.byte	PATT	
		mPtr	song055_6_12
	.byte	PATT	
		mPtr	song055_6_3
	.byte		EOT	, Gn2
	.byte	W01
	.byte		N92	, An2, v127
	.byte		N92	, Fn3
	.byte	W96
	.byte	PATT	
		mPtr	song055_6_4
	.byte	PATT	
		mPtr	song055_6_13
	.byte	W92
	.byte	W03
	.byte		EOT	, Dn3
	.byte			An3
	.byte	W01
	.byte	PATT	
		mPtr	song055_6_14
	.byte	PATT	
		mPtr	song055_6_15
	.byte		EOT	, Fn3
	.byte	W01
	.byte		N48	, Fn3, v127
	.byte		N48	, Cs4
	.byte	W48
	.byte	PATT	
		mPtr	song055_6_16
	.byte	PATT	
		mPtr	song055_6_3
	.byte		EOT	, Gn3
	.byte	W01
	.byte		N92	, An2, v127
	.byte		N92	, Fn3
	.byte	W96
	.byte	PATT	
		mPtr	song055_6_4
	.byte	FINE

	@********************** Track  7 **********************@

	.global song055_7
song055_7:	@ 0x08294F7A
	.byte	KEYSH	, 0
	.byte	VOICE	, 63
	.byte	VOL	, v076
	.byte	PAN	, c_v+46
	.byte	W03
song055_7_1:
	.byte		N24	, Bn1, v116
	.byte	W36
	.byte		N48	, Dn2, v112
	.byte	W60
	.byte	PEND
song055_7_2:
	.byte		N24	, Cs2, v116
	.byte	W36
	.byte		N48	, Fn2, v104
	.byte	W60
	.byte	PEND
song055_7_3:
	.byte		N44	, Fs2, v120
	.byte	W48
	.byte			An2
	.byte	W48
	.byte	PEND
song055_7_4:
	.byte		N44	, Fn2, v116
	.byte	W48
	.byte			Gn2
	.byte	W48
	.byte	PEND
song055_7_5:
	.byte		N24	, Bn1, v108
	.byte	W36
	.byte		N48	, Dn2
	.byte	W60
	.byte	PEND
song055_7_6:
	.byte		N24	, Cs2, v116
	.byte	W36
	.byte		N48	, Fn2, v108
	.byte	W60
	.byte	PEND
song055_7_7:
	.byte		N44	, Fs2, v108
	.byte	W48
	.byte			Dn2, v100
	.byte	W48
	.byte	PEND
song055_7_8:
	.byte		N44	, Fn2, v112
	.byte	W48
	.byte			En2, v116
	.byte	W48
	.byte	PEND
	.byte	PATT	
		mPtr	song055_7_1
	.byte	PATT	
		mPtr	song055_7_2
	.byte	PATT	
		mPtr	song055_7_3
	.byte	PATT	
		mPtr	song055_7_4
song055_7_9:
	.byte		N32	, Bn2, v116
	.byte	W36
	.byte		N56	, Dn3
	.byte	W60
	.byte	PEND
song055_7_10:
	.byte		N32	, Cs3, v112
	.byte	W36
	.byte		N56	, Fn3, v124
	.byte	W60
	.byte	PEND
song055_7_11:
	.byte		N44	, Fs3, v112
	.byte	W48
	.byte			Dn3, v116
	.byte	W48
	.byte	PEND
song055_7_12:
	.byte		N44	, Fn3, v120
	.byte	W48
	.byte			En3, v112
	.byte	W48
	.byte	PEND
song055_7_13:
	.byte		N32	, Bn2, v108
	.byte	W36
	.byte		N56	, Dn3
	.byte	W60
	.byte	PEND
song055_7_14:
	.byte		N32	, Cs3, v116
	.byte	W36
	.byte		N56	, Fn3, v120
	.byte	W60
	.byte	PEND
song055_7_15:
	.byte		N44	, Fs3, v120
	.byte	W48
	.byte			An3
	.byte	W48
	.byte	PEND
	.byte			Fn3, v116
	.byte	W48
	.byte			Gn3
	.byte	W48
	.byte	W96
	.byte	W96
	.byte	W96
	.byte	W96
	.byte	W96
	.byte	W96
	.byte	W96
	.byte	W96
	.byte	W96
	.byte	W96
	.byte	W96
	.byte	W96
	.byte	W96
	.byte	W96
	.byte	W96
	.byte	W96
	.byte	W96
	.byte	W96
	.byte	W96
	.byte	W96
	.byte	W96
	.byte	W96
	.byte	W96
	.byte	W96
	.byte	GOTO	
		mPtr	song055_7_5
	.byte	PATT	
		mPtr	song055_7_5
	.byte	PATT	
		mPtr	song055_7_6
	.byte	PATT	
		mPtr	song055_7_7
	.byte	PATT	
		mPtr	song055_7_8
	.byte	PATT	
		mPtr	song055_7_1
	.byte	PATT	
		mPtr	song055_7_2
	.byte	PATT	
		mPtr	song055_7_3
	.byte	PATT	
		mPtr	song055_7_4
	.byte	PATT	
		mPtr	song055_7_9
	.byte	PATT	
		mPtr	song055_7_10
	.byte	PATT	
		mPtr	song055_7_11
	.byte	PATT	
		mPtr	song055_7_12
	.byte	PATT	
		mPtr	song055_7_13
	.byte	PATT	
		mPtr	song055_7_14
	.byte	PATT	
		mPtr	song055_7_15
	.byte		N44	, Fn3, v116
	.byte	W48
	.byte			Gn3
	.byte	W44
	.byte	W03
	.byte	FINE

	@********************** Track  8 **********************@

	.global song055_8
song055_8:	@ 0x08295086
	.byte	KEYSH	, 0
	.byte	VOICE	, 105
	.byte	VOL	, v060
	.byte	PAN	, c_v-54
	.byte	BENDR	, 12
	.byte	W03
song055_8_1:
	.byte		N24	, Gn2, v112
	.byte	W36
	.byte			As2
	.byte	W36
	.byte		N11	, Cn3
	.byte	W24
	.byte	PEND
song055_8_10:
	.byte		N24	, An2, v112
	.byte	W36
	.byte			Gs2
	.byte	W36
	.byte		N11	, Fs2
	.byte	W24
	.byte	PEND
	.byte	PATT	
		mPtr	song055_8_1
song055_8_11:
	.byte		N24	, Fn2, v112
	.byte	W36
	.byte			Gs2
	.byte	W36
	.byte		N11	, Fs2
	.byte	W24
	.byte	PEND
song055_8_2:
	.byte		N12	, Gn2, v112
	.byte	W36
	.byte		N23	, As2
	.byte	W60
	.byte	PEND
song055_8_3:
	.byte		N12	, An2, v112
	.byte	W36
	.byte		N23	, Ds3
	.byte	W60
	.byte	PEND
	.byte	PATT	
		mPtr	song055_8_2
song055_8_4:
	.byte		N12	, An2, v112
	.byte	W36
	.byte		N23	, Cn3
	.byte	W60
	.byte	PEND
	.byte	PATT	
		mPtr	song055_8_2
	.byte	PATT	
		mPtr	song055_8_3
	.byte	PATT	
		mPtr	song055_8_2
	.byte	PATT	
		mPtr	song055_8_4
	.byte	PATT	
		mPtr	song055_8_2
	.byte	PATT	
		mPtr	song055_8_3
	.byte	PATT	
		mPtr	song055_8_2
	.byte	PATT	
		mPtr	song055_8_4
	.byte	PATT	
		mPtr	song055_8_2
	.byte	PATT	
		mPtr	song055_8_3
	.byte	PATT	
		mPtr	song055_8_2
	.byte	PATT	
		mPtr	song055_8_3
song055_8_5:
	.byte		N12	, Gn2, v112
	.byte	W36
	.byte		N12	
	.byte	W36
	.byte			As2
	.byte	W24
	.byte	PEND
song055_8_6:
	.byte		N12	, Gn2, v112
	.byte	W36
	.byte		N12	
	.byte	W24
	.byte			As2
	.byte	W24
	.byte		N11	, Cn3
	.byte	W12
	.byte	PEND
song055_8_12:
	.byte		N12	, Fs2, v112
	.byte	W36
	.byte		N12	
	.byte	W36
	.byte		N12	
	.byte	W24
	.byte	PEND
song055_8_7:
	.byte		N12	, Fs2, v112
	.byte	W36
	.byte		N12	
	.byte	W36
	.byte			An2
	.byte	W24
	.byte	PEND
song055_8_13:
	.byte		N12	, Ds3, v112
	.byte	W36
	.byte		N12	
	.byte	W36
	.byte			Fs3
	.byte	W24
	.byte	PEND
song055_8_14:
	.byte	W01
	.byte		N12	, Ds3, v112
	.byte	W36
	.byte		N12	
	.byte	W24
	.byte			Fs3
	.byte	W24
	.byte		N11	, Gs3
	.byte	W11
	.byte	PEND
song055_8_8:
	.byte	W01
	.byte		N12	, Cs3, v112
	.byte	W36
	.byte		N12	
	.byte	W36
	.byte		N12	
	.byte	W23
	.byte	PEND
song055_8_9:
	.byte	W01
	.byte		N12	, Cn3, v112
	.byte	W36
	.byte			Fn3
	.byte	W36
	.byte		N12	
	.byte	W23
	.byte	PEND
	.byte	PATT	
		mPtr	song055_8_5
	.byte	PATT	
		mPtr	song055_8_6
	.byte	PATT	
		mPtr	song055_8_7
song055_8_15:
	.byte		N12	, Fs2, v112
	.byte	W36
	.byte		N12	
	.byte	W36
	.byte			Bn2
	.byte	W24
	.byte	PEND
song055_8_16:
	.byte		N12	, Ds2, v112
	.byte	W36
	.byte		N12	
	.byte	W36
	.byte			Fs2
	.byte	W24
	.byte	PEND
song055_8_17:
	.byte	W01
	.byte		N12	, Ds2, v112
	.byte	W36
	.byte		N12	
	.byte	W24
	.byte			Fs2
	.byte	W24
	.byte		N11	, Gs2
	.byte	W11
	.byte	PEND
	.byte	PATT	
		mPtr	song055_8_8
	.byte	PATT	
		mPtr	song055_8_9
	.byte	PATT	
		mPtr	song055_8_1
	.byte	PATT	
		mPtr	song055_8_10
	.byte	PATT	
		mPtr	song055_8_1
	.byte	PATT	
		mPtr	song055_8_11
	.byte	PATT	
		mPtr	song055_8_1
	.byte	PATT	
		mPtr	song055_8_10
	.byte	PATT	
		mPtr	song055_8_1
	.byte	PATT	
		mPtr	song055_8_11
	.byte	GOTO	
		mPtr	song055_8_2
	.byte	PATT	
		mPtr	song055_8_2
	.byte	PATT	
		mPtr	song055_8_3
	.byte	PATT	
		mPtr	song055_8_2
	.byte	PATT	
		mPtr	song055_8_4
	.byte	PATT	
		mPtr	song055_8_2
	.byte	PATT	
		mPtr	song055_8_3
	.byte	PATT	
		mPtr	song055_8_2
	.byte	PATT	
		mPtr	song055_8_4
	.byte	PATT	
		mPtr	song055_8_2
	.byte	PATT	
		mPtr	song055_8_3
	.byte	PATT	
		mPtr	song055_8_2
	.byte	PATT	
		mPtr	song055_8_4
	.byte	PATT	
		mPtr	song055_8_2
	.byte	PATT	
		mPtr	song055_8_3
	.byte	PATT	
		mPtr	song055_8_2
	.byte	PATT	
		mPtr	song055_8_3
	.byte	PATT	
		mPtr	song055_8_5
	.byte	PATT	
		mPtr	song055_8_6
	.byte	PATT	
		mPtr	song055_8_12
	.byte	PATT	
		mPtr	song055_8_7
	.byte	PATT	
		mPtr	song055_8_13
	.byte	PATT	
		mPtr	song055_8_14
	.byte	PATT	
		mPtr	song055_8_8
	.byte	PATT	
		mPtr	song055_8_9
	.byte	PATT	
		mPtr	song055_8_5
	.byte	PATT	
		mPtr	song055_8_6
	.byte	PATT	
		mPtr	song055_8_7
	.byte	PATT	
		mPtr	song055_8_15
	.byte	PATT	
		mPtr	song055_8_16
	.byte	PATT	
		mPtr	song055_8_17
	.byte	PATT	
		mPtr	song055_8_8
	.byte	PATT	
		mPtr	song055_8_9
	.byte	PATT	
		mPtr	song055_8_1
	.byte	PATT	
		mPtr	song055_8_10
	.byte	PATT	
		mPtr	song055_8_1
	.byte	PATT	
		mPtr	song055_8_11
	.byte	PATT	
		mPtr	song055_8_1
	.byte	PATT	
		mPtr	song055_8_10
	.byte	PATT	
		mPtr	song055_8_1
	.byte		N24	, Fn2, v112
	.byte	W36
	.byte			Gs2
	.byte	W36
	.byte		N11	, Fs2
	.byte	W11
	.byte	FINE

	@********************** Track  9 **********************@

	.global song055_9
song055_9:	@ 0x08295290
	.byte	KEYSH	, 0
	.byte	VOICE	, 104
	.byte	VOL	, v066
	.byte	PAN	, c_v-54
	.byte	W03
song055_9_1:
	.byte	W24
	.byte	W01
	.byte		N12	, Gn2, v100
	.byte	W36
	.byte		N11	, As2
	.byte	W22
	.byte		N12	, Gn2
	.byte	W13
	.byte	PEND
song055_9_2:
	.byte	W24
	.byte	W01
	.byte		N12	, Fn2, v100
	.byte	W36
	.byte		N11	
	.byte	W23
	.byte		N12	, Fs2
	.byte	W12
	.byte	PEND
	.byte	PATT	
		mPtr	song055_9_1
	.byte	PATT	
		mPtr	song055_9_2
song055_9_3:
	.byte	W12
	.byte		N06	, Gn2, v100
	.byte	W12
	.byte		N11	
	.byte	W36
	.byte		N06	, As2
	.byte	W12
	.byte		N05	
	.byte	W12
	.byte		N12	
	.byte	W12
	.byte	PEND
song055_9_4:
	.byte	W12
	.byte		N06	, Cn3, v100
	.byte	W12
	.byte		N06	
	.byte	W36
	.byte			Fn2
	.byte	W12
	.byte		N06	
	.byte	W12
	.byte		N06	
	.byte	W12
	.byte	PEND
	.byte	PATT	
		mPtr	song055_9_3
song055_9_5:
	.byte	W12
	.byte		N06	, An2, v100
	.byte	W12
	.byte		N06	
	.byte	W36
	.byte			Cn3
	.byte	W12
	.byte		N06	
	.byte	W12
	.byte		N06	
	.byte	W12
	.byte	PEND
	.byte	PATT	
		mPtr	song055_9_3
	.byte	PATT	
		mPtr	song055_9_4
	.byte	PATT	
		mPtr	song055_9_3
	.byte	PATT	
		mPtr	song055_9_5
	.byte	PATT	
		mPtr	song055_9_3
	.byte	PATT	
		mPtr	song055_9_4
	.byte	PATT	
		mPtr	song055_9_3
	.byte	PATT	
		mPtr	song055_9_5
	.byte	PATT	
		mPtr	song055_9_3
	.byte	PATT	
		mPtr	song055_9_4
	.byte	PATT	
		mPtr	song055_9_3
	.byte	PATT	
		mPtr	song055_9_5
song055_9_6:
	.byte	W12
	.byte		N06	, Gn2, v100
	.byte	W12
	.byte		N12	
	.byte	W24
	.byte		N05	
	.byte	W12
	.byte		N12	
	.byte	W24
	.byte		N12	
	.byte	W12
	.byte	PEND
song055_9_7:
	.byte	W12
	.byte		N06	, Gn2, v100
	.byte	W12
	.byte		N12	
	.byte	W24
	.byte		N05	
	.byte	W24
	.byte		N12	
	.byte	W24
	.byte	PEND
	.byte	PATT	
		mPtr	song055_9_6
	.byte	PATT	
		mPtr	song055_9_6
song055_9_10:
	.byte	W12
	.byte		N06	, Ds3, v100
	.byte	W12
	.byte		N12	
	.byte	W24
	.byte		N05	
	.byte	W12
	.byte		N12	
	.byte	W24
	.byte		N12	
	.byte	W12
	.byte	PEND
song055_9_11:
	.byte	W13
	.byte		N06	, Ds3, v100
	.byte	W12
	.byte		N12	
	.byte	W24
	.byte		N05	
	.byte	W24
	.byte		N12	
	.byte	W23
	.byte	PEND
song055_9_9:
	.byte	W13
	.byte		N06	, Cn3, v100
	.byte	W12
	.byte		N12	
	.byte	W24
	.byte		N05	
	.byte	W12
	.byte		N12	
	.byte	W24
	.byte		N12	
	.byte	W11
	.byte	PEND
song055_9_12:
	.byte	W13
	.byte		N06	, Cn3, v100
	.byte	W12
	.byte		N12	
	.byte	W24
	.byte		N05	, Fn3
	.byte	W12
	.byte		N12	
	.byte	W23
	.byte		N12	
	.byte	W12
	.byte	PEND
	.byte	PATT	
		mPtr	song055_9_6
	.byte	PATT	
		mPtr	song055_9_7
song055_9_8:
	.byte	W12
	.byte		N06	, Fs2, v100
	.byte	W12
	.byte		N12	
	.byte	W24
	.byte		N05	
	.byte	W12
	.byte		N12	
	.byte	W24
	.byte		N12	
	.byte	W12
	.byte	PEND
	.byte	PATT	
		mPtr	song055_9_8
song055_9_13:
	.byte	W12
	.byte		N06	, Ds2, v100
	.byte	W12
	.byte		N12	
	.byte	W24
	.byte		N05	
	.byte	W12
	.byte		N12	
	.byte	W24
	.byte		N12	
	.byte	W12
	.byte	PEND
song055_9_14:
	.byte	W13
	.byte		N06	, Ds2, v100
	.byte	W12
	.byte		N12	
	.byte	W24
	.byte		N05	
	.byte	W24
	.byte		N12	
	.byte	W23
	.byte	PEND
	.byte	PATT	
		mPtr	song055_9_9
song055_9_15:
	.byte	W13
	.byte		N06	, Bn2, v100
	.byte	W12
	.byte		N12	
	.byte	W24
	.byte		N05	, Fn3
	.byte	W12
	.byte		N12	
	.byte	W23
	.byte		N12	
	.byte	W12
	.byte	PEND
	.byte	PATT	
		mPtr	song055_9_1
	.byte	PATT	
		mPtr	song055_9_2
	.byte	PATT	
		mPtr	song055_9_1
	.byte	PATT	
		mPtr	song055_9_2
	.byte	PATT	
		mPtr	song055_9_1
	.byte	PATT	
		mPtr	song055_9_2
	.byte	PATT	
		mPtr	song055_9_1
	.byte	PATT	
		mPtr	song055_9_2
	.byte	GOTO	
		mPtr	song055_9_3
	.byte	PATT	
		mPtr	song055_9_3
	.byte	PATT	
		mPtr	song055_9_4
	.byte	PATT	
		mPtr	song055_9_3
	.byte	PATT	
		mPtr	song055_9_5
	.byte	PATT	
		mPtr	song055_9_3
	.byte	PATT	
		mPtr	song055_9_4
	.byte	PATT	
		mPtr	song055_9_3
	.byte	PATT	
		mPtr	song055_9_5
	.byte	PATT	
		mPtr	song055_9_3
	.byte	PATT	
		mPtr	song055_9_4
	.byte	PATT	
		mPtr	song055_9_3
	.byte	PATT	
		mPtr	song055_9_5
	.byte	PATT	
		mPtr	song055_9_3
	.byte	PATT	
		mPtr	song055_9_4
	.byte	PATT	
		mPtr	song055_9_3
	.byte	PATT	
		mPtr	song055_9_5
	.byte	PATT	
		mPtr	song055_9_6
	.byte	PATT	
		mPtr	song055_9_7
	.byte	PATT	
		mPtr	song055_9_6
	.byte	PATT	
		mPtr	song055_9_6
	.byte	PATT	
		mPtr	song055_9_10
	.byte	PATT	
		mPtr	song055_9_11
	.byte	PATT	
		mPtr	song055_9_9
	.byte	PATT	
		mPtr	song055_9_12
	.byte	PATT	
		mPtr	song055_9_6
	.byte	PATT	
		mPtr	song055_9_7
	.byte	PATT	
		mPtr	song055_9_8
	.byte	PATT	
		mPtr	song055_9_8
	.byte	PATT	
		mPtr	song055_9_13
	.byte	PATT	
		mPtr	song055_9_14
	.byte	PATT	
		mPtr	song055_9_9
	.byte	PATT	
		mPtr	song055_9_15
	.byte	PATT	
		mPtr	song055_9_1
	.byte	PATT	
		mPtr	song055_9_2
	.byte	PATT	
		mPtr	song055_9_1
	.byte	PATT	
		mPtr	song055_9_2
	.byte	PATT	
		mPtr	song055_9_1
	.byte	PATT	
		mPtr	song055_9_2
	.byte	PATT	
		mPtr	song055_9_1
	.byte	PATT	
		mPtr	song055_9_2
	.byte	FINE
    
	mAlignWord
	.global song055
song055:	@ 0x082954C4
	.byte	9		@ trackCount
	.byte	0		@ blockCount
	.byte	0		@ priority
	.byte	128		@ reverb

	mAlignWord
	mPtr	voicegroup012		@ voicegroup/tone

	mPtr	song055_1		@ track
	mPtr	song055_2		@ track
	mPtr	song055_3		@ track
	mPtr	song055_4		@ track
	mPtr	song055_5		@ track
	mPtr	song055_6		@ track
	mPtr	song055_7		@ track
	mPtr	song055_8		@ track
	mPtr	song055_9		@ track
