	.include "MPlayDef.s"

	.section .rodata

	@********************** Track  1 **********************@

	.align 2
	.global song026_1
song026_1:	@ 0x08274684
	.byte	KEYSH	, 0
	.byte	TEMPO	, 85
	.byte	VOICE	, 127
	.byte	VOL	, v070
	.byte	PAN	, c_v-1
	.byte	W03
	.byte	TEMPO	, 85
	.byte	W56
	.byte	W03
	.byte		N12	, Gs7, v127
	.byte	W13
	.byte		N11	, Fs1
	.byte	W11
	.byte		N06	, Gs7
	.byte	W13
song026_1_3:
	.byte		N11	, Fs1, v127
	.byte	W12
	.byte		N10	, Gs7
	.byte	W17
	.byte		N06	, En1
	.byte	W06
	.byte		N11	, Gs7
	.byte	W12
	.byte		N12	, Fs1
	.byte	W12
	.byte		N06	, Gs7
	.byte	W07
	.byte		N05	, Gs1
	.byte	W06
	.byte		N12	, Gs7
	.byte	W12
	.byte		N12	
	.byte	W12
	.byte	PEND
song026_1_1:
	.byte		N11	, Fs1, v127
	.byte	W12
	.byte		N17	, Gs7
	.byte	W17
	.byte		N06	, En1
	.byte	W06
	.byte		N12	, Gs7
	.byte	W12
	.byte			Fs1
	.byte	W12
	.byte		N06	, Gs7
	.byte	W07
	.byte		N05	, Gs1
	.byte	W06
	.byte		N12	, Gs7
	.byte	W12
	.byte		N12	
	.byte	W12
	.byte	PEND
	.byte	PATT	
		.word	song026_1_1
	.byte	PATT	
		.word	song026_1_1
	.byte	PATT	
		.word	song026_1_1
	.byte	PATT	
		.word	song026_1_1
song026_1_4:
	.byte		N11	, Fs1, v127
	.byte	W12
	.byte		N17	, Gs7
	.byte	W17
	.byte		N06	, En1
	.byte	W06
	.byte		N12	, Gs7
	.byte	W12
	.byte			Fs1
	.byte	W12
	.byte		N06	, Gs7
	.byte	W07
	.byte		N05	, Gs1
	.byte	W18
	.byte		N11	, Gs7
	.byte	W12
	.byte	PEND
song026_1_5:
	.byte		N11	, Fs1, v127
	.byte	W12
	.byte			Gs7
	.byte	W12
	.byte		N05	, Fs1
	.byte	W06
	.byte		N08	, Gs7
	.byte	W12
	.byte		N05	, Fs1
	.byte		N05	, Gs7
	.byte	W12
	.byte		N02	
	.byte	W06
	.byte		N11	, Fs1
	.byte	W12
	.byte			Gs7
	.byte	W12
	.byte		N11	
	.byte	W12
	.byte	PEND
	.byte		N11	
	.byte	W12
	.byte		N12	
	.byte	W24
	.byte		N11	, Fs1
	.byte	W12
	.byte		N17	, Gs7
	.byte	W17
	.byte		N06	, En1
	.byte	W06
	.byte		N12	, Gs7
	.byte	W12
	.byte			Fs1
	.byte	W12
	.byte		N01	, Gs7
	.byte	W01
song026_1_2:
	.byte		N11	, Gs7, v127
	.byte	W12
	.byte		N11	
	.byte	W12
	.byte			Fs1
	.byte	W12
	.byte		N17	, Gs7
	.byte	W17
	.byte		N06	, En1
	.byte	W06
	.byte		N12	, Gs7
	.byte	W12
	.byte			Fs1
	.byte	W12
	.byte		N06	, Gs7
	.byte	W07
	.byte		N05	, Gs1
	.byte	W06
	.byte	PEND
	.byte		N12	, Gs7
	.byte	W12
	.byte		N12	
	.byte	W24
	.byte		N11	, Fs1
	.byte	W12
	.byte		N17	, Gs7
	.byte	W17
	.byte		N06	, En1
	.byte	W06
	.byte		N12	, Gs7
	.byte	W12
	.byte			Fs1
	.byte	W12
	.byte		N01	, Gs7
	.byte	W01
song026_1_6:
	.byte		N12	, Gs7, v127
	.byte	W12
	.byte		N12	
	.byte	W12
	.byte		N11	, Fs1
	.byte	W12
	.byte		N17	, Gs7
	.byte	W17
	.byte		N06	, En1
	.byte	W06
	.byte		N12	, Gs7
	.byte	W12
	.byte			Fs1
	.byte	W12
	.byte		N06	, Gs7
	.byte	W07
	.byte		N05	, Gs1
	.byte	W06
	.byte	PEND
	.byte		N11	, Gs7
	.byte	W12
	.byte		N12	
	.byte	W12
	.byte		N11	, Fs1
	.byte	W12
	.byte		N17	, Gs7
	.byte	W17
	.byte		N06	, En1
	.byte	W06
	.byte		N12	, Gs7
	.byte	W12
	.byte			Fs1
	.byte	W12
	.byte		N05	, Gs7
	.byte	W07
	.byte			Gs1
	.byte	W06
	.byte	PATT	
		.word	song026_1_2
	.byte		N11	, Gs7, v127
	.byte	W12
	.byte		N12	
	.byte	W12
	.byte		N11	, Fs1
	.byte	W12
	.byte		N17	, Gs7
	.byte	W17
	.byte		N06	, En1
	.byte	W06
	.byte		N12	, Gs7
	.byte	W12
	.byte			Fs1
	.byte	W12
	.byte		N06	, Gs7
	.byte	W07
	.byte		N05	, Gs1
	.byte	W06
	.byte		N11	, Gs7
	.byte	W24
	.byte		N06	, Fs1
	.byte	W24
	.byte		N05	, Gs7
	.byte	W06
	.byte		N10	, Fs1
	.byte	W12
	.byte		N04	, Ds1
	.byte	W04
	.byte		N06	, Fs1
	.byte	W12
	.byte		N11	, Gs7
	.byte	W14
	.byte	PATT	
		.word	song026_1_3
	.byte	PATT	
		.word	song026_1_1
	.byte	PATT	
		.word	song026_1_1
	.byte	PATT	
		.word	song026_1_1
	.byte	PATT	
		.word	song026_1_1
	.byte	PATT	
		.word	song026_1_1
	.byte	PATT	
		.word	song026_1_4
	.byte	PATT	
		.word	song026_1_5
	.byte	PATT	
		.word	song026_1_6
	.byte	PATT	
		.word	song026_1_6
	.byte	PATT	
		.word	song026_1_6
	.byte	PATT	
		.word	song026_1_6
	.byte	PATT	
		.word	song026_1_6
	.byte	PATT	
		.word	song026_1_6
	.byte	PATT	
		.word	song026_1_6
song026_1_7:
	.byte	W24
	.byte		N06	, Fs1, v127
	.byte	W24
	.byte		N12	
	.byte	W19
	.byte		N04	
	.byte	W17
	.byte		N06	
	.byte	W12
	.byte	PEND
	.byte	PATT	
		.word	song026_1_6
	.byte	PATT	
		.word	song026_1_6
	.byte	PATT	
		.word	song026_1_6
	.byte	PATT	
		.word	song026_1_6
	.byte	PATT	
		.word	song026_1_6
	.byte	PATT	
		.word	song026_1_6
	.byte	PATT	
		.word	song026_1_6
	.byte	PATT	
		.word	song026_1_6
	.byte	PATT	
		.word	song026_1_3
	.byte	PATT	
		.word	song026_1_1
	.byte	PATT	
		.word	song026_1_1
	.byte	PATT	
		.word	song026_1_1
	.byte	PATT	
		.word	song026_1_1
	.byte	PATT	
		.word	song026_1_1
	.byte	PATT	
		.word	song026_1_4
	.byte	PATT	
		.word	song026_1_5
	.byte	PATT	
		.word	song026_1_6
	.byte	PATT	
		.word	song026_1_6
	.byte	PATT	
		.word	song026_1_6
	.byte	PATT	
		.word	song026_1_6
	.byte	PATT	
		.word	song026_1_6
	.byte	PATT	
		.word	song026_1_6
	.byte	PATT	
		.word	song026_1_6
	.byte	PATT	
		.word	song026_1_7
	.byte	PATT	
		.word	song026_1_6
	.byte	PATT	
		.word	song026_1_6
	.byte	PATT	
		.word	song026_1_6
	.byte	PATT	
		.word	song026_1_6
	.byte	PATT	
		.word	song026_1_6
	.byte	PATT	
		.word	song026_1_6
	.byte	PATT	
		.word	song026_1_6
	.byte	PATT	
		.word	song026_1_6
	.byte	PATT	
		.word	song026_1_3
	.byte	GOTO	
		.word	song026_1_1
	.byte	PATT	
		.word	song026_1_1
	.byte	FINE

	@********************** Track  2 **********************@

	.global song026_2
song026_2:	@ 0x082748CF
	.byte	KEYSH	, 0
	.byte	VOICE	, 46
	.byte	VOL	, v070
	.byte	PAN	, c_v-5
	.byte	W03
	.byte	W13
	.byte		N11	, Fs1, v127
	.byte	W12
	.byte			Fs2
	.byte	W12
	.byte			Fs1
	.byte	W12
	.byte			Gs1
	.byte	W18
	.byte			As2
	.byte	W18
	.byte			As1
	.byte	W11
song026_2_5:
	.byte	W01
	.byte		N11	, Bn1, v127
	.byte	W12
	.byte			Bn2
	.byte	W12
	.byte			Bn1
	.byte	W12
	.byte			As2
	.byte	W12
	.byte			As1
	.byte	W12
	.byte			As2
	.byte	W12
	.byte			Gs1
	.byte	W12
	.byte			Gs2
	.byte	W11
	.byte	PEND
song026_2_6:
	.byte	W01
	.byte		N11	, Gs1, v127
	.byte	W12
	.byte			Fs2
	.byte	W12
	.byte			Fs1
	.byte	W12
	.byte			Fs2
	.byte	W12
	.byte		N12	, Fn1
	.byte	W12
	.byte		N11	, Fn2
	.byte	W12
	.byte		N12	, Ds1
	.byte	W12
	.byte		N11	, Ds2
	.byte	W11
	.byte	PEND
song026_2_7:
	.byte	W01
	.byte		N11	, As2, v127
	.byte	W12
	.byte			As1
	.byte	W12
	.byte			Bn0
	.byte	W12
	.byte			Cn2
	.byte	W12
	.byte			Cn1
	.byte	W12
	.byte			Cn2
	.byte	W12
	.byte			Cs1
	.byte	W12
	.byte			Cs2
	.byte	W11
	.byte	PEND
song026_2_8:
	.byte	W01
	.byte		N11	, Cs1, v127
	.byte	W12
	.byte			Ds2
	.byte	W12
	.byte			Ds1
	.byte	W12
	.byte			Ds2
	.byte	W12
	.byte		N12	, Fn1
	.byte	W12
	.byte		N11	, Fn2
	.byte	W12
	.byte		N12	, As1
	.byte	W12
	.byte		N11	, As2
	.byte	W11
	.byte	PEND
song026_2_9:
	.byte	W01
	.byte		N11	, An1, v127
	.byte	W12
	.byte			An2
	.byte	W12
	.byte			An1
	.byte	W12
	.byte			Gs2
	.byte	W12
	.byte			Gs1
	.byte	W12
	.byte			Gs2
	.byte	W12
	.byte			Fs1
	.byte	W12
	.byte			Fs2
	.byte	W11
	.byte	PEND
song026_2_10:
	.byte	W01
	.byte		N11	, Fs1, v127
	.byte	W12
	.byte			En2
	.byte	W12
	.byte			En1
	.byte	W12
	.byte			En2
	.byte	W12
	.byte		N12	, Ds1
	.byte	W12
	.byte		N11	, Ds2
	.byte	W12
	.byte		N12	, Cs1
	.byte	W12
	.byte		N11	, Cs2
	.byte	W11
	.byte	PEND
song026_2_11:
	.byte	W01
	.byte		N11	, Gs1, v127
	.byte	W12
	.byte			Gs2
	.byte	W12
	.byte			Gs1
	.byte	W12
	.byte			Ds2
	.byte	W12
	.byte		N12	, Ds1
	.byte	W12
	.byte		N11	, Ds2
	.byte	W12
	.byte		N12	, Gs1
	.byte	W12
	.byte		N11	, Gs2
	.byte	W11
	.byte	PEND
song026_2_12:
	.byte	W01
	.byte		N11	, Gs1, v127
	.byte	W12
	.byte			Gs2
	.byte	W12
	.byte			Ds2
	.byte	W12
	.byte			Gs1
	.byte	W12
	.byte		N06	
	.byte	W18
	.byte		N12	
	.byte	W18
	.byte		N10	
	.byte	W11
	.byte	PEND
song026_2_1:
	.byte	W01
	.byte		N11	, Fs1, v127
	.byte	W12
	.byte			Fs2
	.byte	W12
	.byte			Fs1
	.byte	W12
	.byte			Fs2
	.byte	W12
	.byte			Fs1
	.byte	W12
	.byte		N11	
	.byte	W12
	.byte			Fs2
	.byte	W12
	.byte			Fs1
	.byte	W11
	.byte	PEND
song026_2_2:
	.byte	W01
	.byte		N11	, Gs1, v127
	.byte	W12
	.byte			Gs2
	.byte	W12
	.byte			Gs1
	.byte	W12
	.byte			Gs2
	.byte	W12
	.byte			Gs1
	.byte	W12
	.byte		N11	
	.byte	W12
	.byte			Gs2
	.byte	W12
	.byte			Gs1
	.byte	W11
	.byte	PEND
song026_2_3:
	.byte	W01
	.byte		N11	, Fn1, v127
	.byte	W12
	.byte			Fn2
	.byte	W12
	.byte			Fn1
	.byte	W12
	.byte			Fn2
	.byte	W12
	.byte			Fn1
	.byte	W12
	.byte		N11	
	.byte	W12
	.byte			Fn2
	.byte	W12
	.byte			Fn1
	.byte	W11
	.byte	PEND
song026_2_4:
	.byte	W01
	.byte		N11	, Fs1, v127
	.byte	W12
	.byte			Fs2
	.byte	W12
	.byte			Fs1
	.byte	W12
	.byte			Fs2
	.byte	W12
	.byte			Fs1
	.byte	W12
	.byte			Fs2
	.byte	W12
	.byte			Fs1
	.byte	W12
	.byte			Fs2
	.byte	W11
	.byte	PEND
	.byte	PATT	
		.word	song026_2_1
	.byte	PATT	
		.word	song026_2_2
	.byte	PATT	
		.word	song026_2_3
	.byte	PATT	
		.word	song026_2_4
	.byte	PATT	
		.word	song026_2_1
	.byte	PATT	
		.word	song026_2_2
	.byte	PATT	
		.word	song026_2_3
	.byte	PATT	
		.word	song026_2_4
	.byte	PATT	
		.word	song026_2_1
	.byte	PATT	
		.word	song026_2_2
	.byte	PATT	
		.word	song026_2_3
	.byte	PATT	
		.word	song026_2_4
	.byte	PATT	
		.word	song026_2_1
	.byte	PATT	
		.word	song026_2_3
	.byte	PATT	
		.word	song026_2_1
	.byte	PATT	
		.word	song026_2_3
	.byte	PATT	
		.word	song026_2_1
	.byte	PATT	
		.word	song026_2_3
	.byte	PATT	
		.word	song026_2_1
song026_2_13:
	.byte	W13
	.byte		N11	, Cs1, v127
	.byte	W12
	.byte		N11	
	.byte	W12
	.byte			Cs2
	.byte	W12
	.byte			Cs1
	.byte	W18
	.byte			Ds1
	.byte	W18
	.byte			Fn1
	.byte	W11
	.byte	PEND
	.byte	PATT	
		.word	song026_2_1
	.byte	PATT	
		.word	song026_2_2
	.byte	PATT	
		.word	song026_2_3
	.byte	PATT	
		.word	song026_2_4
	.byte	PATT	
		.word	song026_2_1
	.byte	PATT	
		.word	song026_2_2
	.byte	PATT	
		.word	song026_2_3
	.byte	PATT	
		.word	song026_2_4
	.byte	PATT	
		.word	song026_2_5
	.byte	PATT	
		.word	song026_2_6
	.byte	PATT	
		.word	song026_2_7
	.byte	PATT	
		.word	song026_2_8
	.byte	PATT	
		.word	song026_2_9
	.byte	PATT	
		.word	song026_2_10
	.byte	PATT	
		.word	song026_2_11
	.byte	PATT	
		.word	song026_2_12
	.byte	PATT	
		.word	song026_2_1
	.byte	PATT	
		.word	song026_2_3
	.byte	PATT	
		.word	song026_2_1
	.byte	PATT	
		.word	song026_2_3
	.byte	PATT	
		.word	song026_2_1
	.byte	PATT	
		.word	song026_2_3
	.byte	PATT	
		.word	song026_2_1
	.byte	PATT	
		.word	song026_2_13
	.byte	PATT	
		.word	song026_2_1
	.byte	PATT	
		.word	song026_2_2
	.byte	PATT	
		.word	song026_2_3
	.byte	PATT	
		.word	song026_2_4
	.byte	PATT	
		.word	song026_2_1
	.byte	PATT	
		.word	song026_2_2
	.byte	PATT	
		.word	song026_2_3
	.byte	PATT	
		.word	song026_2_4
	.byte	PATT	
		.word	song026_2_5
	.byte	GOTO	
		.word	song026_2_6
	.byte	PATT	
		.word	song026_2_6
	.byte	W01
	.byte	FINE

	@********************** Track  3 **********************@

	.global song026_3
song026_3:	@ 0x08274B05
	.byte	KEYSH	, 0
	.byte	VOICE	, 6
	.byte	VOL	, v047
	.byte	PAN	, c_v-34
	.byte	W03
song026_3_1:
	.byte		N06	, As3, v060
	.byte	W06
	.byte			Fs3
	.byte	W06
	.byte			As3
	.byte	W06
	.byte			Fs3
	.byte	W06
	.byte			Cn4
	.byte	W06
	.byte			Gs3
	.byte	W06
	.byte			Cn4
	.byte	W06
	.byte			Gs3
	.byte	W06
	.byte			Cs4
	.byte	W06
	.byte			As3
	.byte	W06
	.byte			Cs4
	.byte	W06
	.byte			As3
	.byte	W06
	.byte			Ds4
	.byte	W06
	.byte			Cn4
	.byte	W06
	.byte			Ds4
	.byte	W06
	.byte			Cn4
	.byte	W06
	.byte	PEND
	.byte	W96
song026_3_4:
	.byte	W96
	.byte	W96
	.byte	W96
	.byte	W96
	.byte	W96
	.byte	W96
	.byte	W96
song026_3_2:
	.byte		N06	, Fn4, v060
	.byte	W06
	.byte			Cs4
	.byte	W06
	.byte			Fn4
	.byte	W06
	.byte			Cs4
	.byte	W06
	.byte			Fn4
	.byte	W06
	.byte			Cs4, v056
	.byte	W06
	.byte			Fn4
	.byte	W06
	.byte			Cs4, v052
	.byte	W06
	.byte			Fn4, v048
	.byte	W06
	.byte			Cs4, v044
	.byte	W06
	.byte			Fn4
	.byte	W06
	.byte			Cs4, v040
	.byte	W06
	.byte			Fn4, v036
	.byte	W06
	.byte			Cs4, v032
	.byte	W06
	.byte			Fn4, v028
	.byte	W06
	.byte			Cs4
	.byte	W06
	.byte	PEND
song026_3_3:
	.byte		N06	, Fn4, v024
	.byte	W06
	.byte			Cs4, v020
	.byte	W06
	.byte			Fn4, v016
	.byte	W06
	.byte			Cs4, v012
	.byte	W06
	.byte			Fn4
	.byte	W06
	.byte			Cs4, v008
	.byte	W06
	.byte			Fn4, v004
	.byte	W06
	.byte			Cs4
	.byte	W06
	.byte			Fn4
	.byte	W06
	.byte			Cs4
	.byte	W06
	.byte			Fn4
	.byte	W06
	.byte			Cs4
	.byte	W06
	.byte			Fn4
	.byte	W06
	.byte			Cs4
	.byte	W06
	.byte			Fn4
	.byte	W06
	.byte			Cs4
	.byte	W06
	.byte	PEND
	.byte	W96
	.byte	PATT	
		.word	song026_3_1
	.byte	PATT	
		.word	song026_3_2
	.byte	PATT	
		.word	song026_3_3
	.byte	W96
	.byte	W96
	.byte	W96
	.byte	W96
	.byte	W96
	.byte	W96
	.byte	W96
	.byte	W96
	.byte	W96
	.byte	W96
	.byte	W96
	.byte	W96
	.byte	W96
	.byte	W96
	.byte	W96
	.byte	W96
	.byte	W96
	.byte	W96
	.byte	W96
	.byte	W96
	.byte	W96
	.byte	W96
	.byte	W96
	.byte	W96
	.byte	W96
	.byte	W96
	.byte	W96
	.byte	W96
	.byte	W96
	.byte	W96
	.byte	W96
	.byte	W96
	.byte	W96
	.byte	W96
	.byte	W96
	.byte	W96
	.byte	W96
	.byte	W96
	.byte	W96
	.byte	W96
	.byte	W96
	.byte	W96
	.byte	W96
	.byte	W96
	.byte	W96
	.byte	W96
	.byte	W96
	.byte	W96
	.byte	W96
	.byte	W96
	.byte	W96
	.byte	GOTO	
		.word	song026_3_4
	.byte	FINE

	@********************** Track  4 **********************@

	.global song026_4
song026_4:	@ 0x08274BD5
	.byte	KEYSH	, 0
	.byte	VOICE	, 21
	.byte	VOL	, v053
	.byte	PAN	, c_v+21
	.byte	W03
song026_4_3:
	.byte	W01
	.byte		N06	, As3, v080
	.byte	W06
	.byte			Fs3
	.byte	W06
	.byte			As3
	.byte	W06
	.byte			Fs3
	.byte	W06
	.byte			Cn4
	.byte	W06
	.byte			Gs3
	.byte	W06
	.byte			Cn4
	.byte	W06
	.byte			Gs3
	.byte	W06
	.byte			Cs4
	.byte	W06
	.byte			As3
	.byte	W06
	.byte			Cs4
	.byte	W06
	.byte			As3
	.byte	W06
	.byte			Ds4
	.byte	W06
	.byte			Cn4
	.byte	W06
	.byte			Ds4
	.byte	W06
	.byte			Cn4
	.byte	W05
	.byte	PEND
song026_4_1:
	.byte	W01
	.byte		N06	, Fn4, v080
	.byte	W06
	.byte			Cs4
	.byte	W06
	.byte			Fn4
	.byte	W06
	.byte			Cs4
	.byte	W06
	.byte			Fn4
	.byte	W06
	.byte			Cs4, v076
	.byte	W06
	.byte			Fn4
	.byte	W06
	.byte			Cs4, v072
	.byte	W06
	.byte			Fn4, v068
	.byte	W06
	.byte			Cs4, v064
	.byte	W06
	.byte			Fn4
	.byte	W06
	.byte			Cs4, v060
	.byte	W06
	.byte			Fn4, v056
	.byte	W06
	.byte			Cs4, v052
	.byte	W06
	.byte			Fn4, v048
	.byte	W06
	.byte			Cs4
	.byte	W05
	.byte	PEND
song026_4_2:
	.byte	W01
	.byte		N06	, Fn4, v044
	.byte	W06
	.byte			Cs4, v040
	.byte	W06
	.byte			Fn4, v036
	.byte	W06
	.byte			Cs4, v032
	.byte	W06
	.byte			Fn4
	.byte	W06
	.byte			Cs4, v028
	.byte	W06
	.byte			Fn4, v024
	.byte	W06
	.byte			Cs4, v020
	.byte	W06
	.byte			Fn4
	.byte	W06
	.byte			Cs4, v016
	.byte	W06
	.byte			Fn4, v012
	.byte	W06
	.byte			Cs4, v008
	.byte	W06
	.byte			Fn4, v004
	.byte	W06
	.byte			Cs4
	.byte	W06
	.byte			Fn4
	.byte	W06
	.byte			Cs4
	.byte	W05
	.byte	PEND
	.byte	W96
	.byte	W96
	.byte	W96
	.byte	W96
	.byte	W96
song026_4_7:
	.byte	W04
	.byte		N06	, As3, v076
	.byte	W06
	.byte			Fs3
	.byte	W06
	.byte			As3
	.byte	W06
	.byte			Fs3
	.byte	W06
	.byte			Cn4
	.byte	W06
	.byte			Gs3
	.byte	W06
	.byte			Cn4
	.byte	W06
	.byte			Gs3
	.byte	W06
	.byte			Cs4
	.byte	W06
	.byte			As3
	.byte	W06
	.byte			Cs4
	.byte	W06
	.byte			As3
	.byte	W06
	.byte			Ds4
	.byte	W06
	.byte			Cn4
	.byte	W06
	.byte			Ds4
	.byte	W08
	.byte	PEND
	.byte	PATT	
		.word	song026_4_1
	.byte	PATT	
		.word	song026_4_2
	.byte	W96
	.byte	PATT	
		.word	song026_4_3
	.byte	PATT	
		.word	song026_4_1
	.byte	PATT	
		.word	song026_4_2
	.byte	W96
song026_4_4:
	.byte		N06	, As3, v080
	.byte	W06
	.byte			Fs3
	.byte	W06
	.byte			As3
	.byte	W06
	.byte			Fs3
	.byte	W06
	.byte			Cn4
	.byte	W06
	.byte			Gs3
	.byte	W06
	.byte			Cn4
	.byte	W06
	.byte			Gs3
	.byte	W06
	.byte			Cs4
	.byte	W06
	.byte			As3
	.byte	W06
	.byte			Cs4
	.byte	W06
	.byte			As3
	.byte	W06
	.byte			Ds4
	.byte	W06
	.byte			Cn4
	.byte	W06
	.byte			Ds4
	.byte	W06
	.byte			Cn4
	.byte	W06
	.byte	PEND
	.byte	PATT	
		.word	song026_4_1
	.byte	PATT	
		.word	song026_4_2
	.byte	W96
	.byte	PATT	
		.word	song026_4_3
	.byte	PATT	
		.word	song026_4_1
	.byte	PATT	
		.word	song026_4_2
	.byte	W96
	.byte	PATT	
		.word	song026_4_4
song026_4_8:
	.byte		N06	, Fn4, v080
	.byte	W06
	.byte			Cs4
	.byte	W06
	.byte			Fn4
	.byte	W06
	.byte			Cs4
	.byte	W06
	.byte			Fn4
	.byte	W06
	.byte			Cs4, v076
	.byte	W06
	.byte			Fn4
	.byte	W06
	.byte			Cs4, v072
	.byte	W06
	.byte			Fn4, v068
	.byte	W06
	.byte			Cs4, v064
	.byte	W06
	.byte			Fn4
	.byte	W06
	.byte			Cs4, v060
	.byte	W06
	.byte			Fn4, v056
	.byte	W06
	.byte			Cs4, v052
	.byte	W06
	.byte			Fn4, v048
	.byte	W06
	.byte			Cs4
	.byte	W06
	.byte	PEND
song026_4_9:
	.byte		N06	, Fn4, v044
	.byte	W06
	.byte			Cs4, v040
	.byte	W06
	.byte			Fn4, v036
	.byte	W06
	.byte			Cs4, v032
	.byte	W06
	.byte			Fn4
	.byte	W06
	.byte			Cs4, v028
	.byte	W06
	.byte			Fn4, v024
	.byte	W06
	.byte			Cs4, v020
	.byte	W21
	.byte			Gs4, v092
	.byte	W06
	.byte			As4
	.byte	W06
	.byte		N12	, Cs5
	.byte	W12
	.byte		N06	, Gs4, v072
	.byte	W06
	.byte			As4
	.byte	W03
	.byte	PEND
song026_4_5:
	.byte	W03
	.byte		N12	, Cs5, v072
	.byte	W12
	.byte		N06	, Gs4, v052
	.byte	W06
	.byte			As4
	.byte	W06
	.byte		N12	, Cs5
	.byte	W12
	.byte		N06	, Gs4, v032
	.byte	W06
	.byte			As4
	.byte	W06
	.byte		N12	, Cs5
	.byte	W12
	.byte			As4
	.byte	W32
	.byte	W01
	.byte	PEND
song026_4_10:
	.byte	W60
	.byte	W03
	.byte		N06	, Gs4, v092
	.byte	W06
	.byte			As4
	.byte	W06
	.byte		N12	, Cs5
	.byte	W12
	.byte		N06	, Gs4, v072
	.byte		N12	, Fn5, v092
	.byte	W06
	.byte		N06	, As4, v072
	.byte	W03
	.byte	PEND
song026_4_11:
	.byte	W03
	.byte		N12	, Cs5, v072
	.byte	W12
	.byte		N06	, Gs4, v052
	.byte		N12	, Fn5, v072
	.byte	W06
	.byte		N06	, As4, v052
	.byte	W06
	.byte		N12	, Cs5
	.byte	W12
	.byte		N06	, Gs4, v032
	.byte		N12	, Fn5, v052
	.byte	W06
	.byte		N06	, As4, v032
	.byte	W06
	.byte		N12	, Cs5
	.byte	W12
	.byte			Fn5
	.byte	W32
	.byte	W01
	.byte	PEND
song026_4_12:
	.byte	W60
	.byte	W03
	.byte		N06	, Gs4, v092
	.byte	W06
	.byte			As4
	.byte	W06
	.byte		N12	, Cs5
	.byte	W12
	.byte		N06	, Gs4, v072
	.byte	W06
	.byte			As4
	.byte	W03
	.byte	PEND
	.byte	PATT	
		.word	song026_4_5
song026_4_13:
	.byte	W15
	.byte		N06	, Cs5, v076
	.byte	W12
	.byte			As4
	.byte	W12
	.byte		N24	, Gs4
	.byte	W24
	.byte		N06	, Fn4
	.byte	W12
	.byte			Gs4
	.byte	W12
	.byte			Cn5
	.byte	W09
	.byte	PEND
	.byte	W96
song026_4_6:
	.byte	W60
	.byte	W01
	.byte		N06	, Gs4, v076
	.byte	W06
	.byte			As4
	.byte	W06
	.byte		N12	, Cs5
	.byte	W12
	.byte			As4
	.byte	W11
	.byte	PEND
	.byte	W96
song026_4_14:
	.byte	W60
	.byte	W01
	.byte		N06	, Gs4, v076
	.byte	W06
	.byte			As4
	.byte	W06
	.byte		N12	, Cs5
	.byte	W12
	.byte			Fn5
	.byte	W11
	.byte	PEND
	.byte	W96
	.byte	PATT	
		.word	song026_4_6
	.byte	W96
	.byte	W96
	.byte	W96
	.byte	W96
	.byte	W96
	.byte	W96
	.byte	W96
	.byte	W96
	.byte	W96
	.byte	PATT	
		.word	song026_4_7
	.byte	PATT	
		.word	song026_4_8
	.byte	PATT	
		.word	song026_4_9
	.byte	PATT	
		.word	song026_4_5
	.byte	PATT	
		.word	song026_4_10
	.byte	PATT	
		.word	song026_4_11
	.byte	PATT	
		.word	song026_4_12
	.byte	PATT	
		.word	song026_4_5
	.byte	PATT	
		.word	song026_4_13
	.byte	W96
	.byte	PATT	
		.word	song026_4_6
	.byte	W96
	.byte	PATT	
		.word	song026_4_14
	.byte	W96
	.byte	PATT	
		.word	song026_4_6
	.byte	W96
	.byte	W96
	.byte	W96
	.byte	GOTO	
		.word	song026_4_2
	.byte	FINE

	@********************** Track  5 **********************@

	.global song026_5
song026_5:	@ 0x08274E28
	.byte	KEYSH	, 0
	.byte	VOICE	, 60
	.byte	VOL	, v044
	.byte	PAN	, c_v+16
	.byte	W03
	.byte		N05	, Gn7, v100
	.byte	W12
	.byte			Gn7, v060
	.byte	W12
	.byte			Gs7, v100
	.byte	W12
	.byte			Gs7, v060
	.byte	W12
	.byte			Gn7, v100
	.byte	W24
	.byte			Gs7
	.byte	W24
song026_5_1:
	.byte		N05	, Gn7, v100
	.byte	W12
	.byte			Gn7, v060
	.byte	W12
	.byte			Gs7, v100
	.byte	W12
	.byte			Gs7, v060
	.byte	W12
	.byte			Gn7, v100
	.byte	W12
	.byte			Gn7, v060
	.byte	W12
	.byte			Gs7, v100
	.byte	W24
	.byte	PEND
song026_5_2:
	.byte		N05	, Gn7, v100
	.byte	W12
	.byte			Gn7, v060
	.byte	W12
	.byte			Gs7, v100
	.byte	W12
	.byte			Gs7, v060
	.byte	W12
	.byte			Gn7, v100
	.byte	W12
	.byte			Gn7, v060
	.byte	W12
	.byte			Gs7, v100
	.byte	W12
	.byte			Gs7, v060
	.byte	W12
	.byte	PEND
	.byte	PATT	
		.word	song026_5_1
	.byte	PATT	
		.word	song026_5_2
	.byte	PATT	
		.word	song026_5_1
	.byte	PATT	
		.word	song026_5_2
	.byte	PATT	
		.word	song026_5_1
	.byte	PATT	
		.word	song026_5_2
	.byte	PATT	
		.word	song026_5_1
	.byte	PATT	
		.word	song026_5_2
	.byte	PATT	
		.word	song026_5_1
	.byte	PATT	
		.word	song026_5_2
	.byte	PATT	
		.word	song026_5_1
	.byte	PATT	
		.word	song026_5_2
	.byte	PATT	
		.word	song026_5_1
	.byte	PATT	
		.word	song026_5_2
	.byte	PATT	
		.word	song026_5_1
	.byte	PATT	
		.word	song026_5_2
	.byte	PATT	
		.word	song026_5_1
	.byte	PATT	
		.word	song026_5_2
	.byte	PATT	
		.word	song026_5_1
	.byte	PATT	
		.word	song026_5_2
	.byte	PATT	
		.word	song026_5_1
	.byte	PATT	
		.word	song026_5_2
	.byte	PATT	
		.word	song026_5_1
	.byte	PATT	
		.word	song026_5_2
	.byte	PATT	
		.word	song026_5_1
	.byte	PATT	
		.word	song026_5_2
	.byte	PATT	
		.word	song026_5_1
	.byte	PATT	
		.word	song026_5_2
	.byte	PATT	
		.word	song026_5_1
	.byte	PATT	
		.word	song026_5_2
	.byte	PATT	
		.word	song026_5_1
	.byte	PATT	
		.word	song026_5_2
	.byte	PATT	
		.word	song026_5_1
	.byte	PATT	
		.word	song026_5_2
	.byte	PATT	
		.word	song026_5_1
	.byte	PATT	
		.word	song026_5_2
	.byte	PATT	
		.word	song026_5_1
	.byte	PATT	
		.word	song026_5_2
	.byte	PATT	
		.word	song026_5_1
	.byte	PATT	
		.word	song026_5_2
	.byte	PATT	
		.word	song026_5_1
	.byte	PATT	
		.word	song026_5_2
	.byte	PATT	
		.word	song026_5_1
	.byte	PATT	
		.word	song026_5_2
	.byte	PATT	
		.word	song026_5_1
	.byte	PATT	
		.word	song026_5_2
	.byte	PATT	
		.word	song026_5_1
	.byte	PATT	
		.word	song026_5_2
	.byte	PATT	
		.word	song026_5_1
	.byte	PATT	
		.word	song026_5_2
	.byte	PATT	
		.word	song026_5_1
	.byte	PATT	
		.word	song026_5_2
	.byte	PATT	
		.word	song026_5_1
	.byte	PATT	
		.word	song026_5_2
	.byte	PATT	
		.word	song026_5_1
	.byte	PATT	
		.word	song026_5_2
	.byte	PATT	
		.word	song026_5_1
	.byte	PATT	
		.word	song026_5_2
	.byte	PATT	
		.word	song026_5_1
	.byte	PATT	
		.word	song026_5_2
	.byte	PATT	
		.word	song026_5_1
	.byte	PATT	
		.word	song026_5_2
	.byte	PATT	
		.word	song026_5_1
	.byte	GOTO	
		.word	song026_5_2
	.byte		N05	, Gn7, v100
	.byte	W12
	.byte			Gn7, v060
	.byte	W12
	.byte			Gs7, v100
	.byte	W12
	.byte			Gs7, v060
	.byte	W12
	.byte			Gn7, v100
	.byte	W12
	.byte			Gn7, v060
	.byte	W12
	.byte			Gs7, v100
	.byte	W12
	.byte			Gs7, v060
	.byte	W05
	.byte	FINE

	@********************** Track  6 **********************@

	.global song026_6
song026_6:	@ 0x08274FCE
	.byte	KEYSH	, 0
	.byte	VOICE	, 61
	.byte	VOL	, v047
	.byte	PAN	, c_v-19
	.byte	W03
	.byte	W60
	.byte		N11	, Gs7, v100
	.byte	W24
	.byte		N11	
	.byte	W12
	.byte	W84
	.byte		N11	
	.byte	W12
song026_6_1:
	.byte	W96
	.byte	W84
	.byte		N11	, Gs7, v100
	.byte	W12
	.byte	W96
	.byte	W84
	.byte		N11	
	.byte	W12
	.byte	W96
	.byte	W84
	.byte		N11	
	.byte	W12
	.byte	W96
	.byte	W84
	.byte		N11	
	.byte	W12
	.byte	W96
	.byte	W84
	.byte		N11	
	.byte	W12
	.byte	W96
	.byte	W84
	.byte		N11	
	.byte	W12
	.byte	W96
	.byte	W84
	.byte		N11	
	.byte	W12
	.byte	W96
	.byte	W84
	.byte		N11	
	.byte	W12
	.byte	W96
	.byte	W84
	.byte		N11	
	.byte	W12
	.byte	W96
	.byte	W84
	.byte		N11	
	.byte	W12
	.byte	W96
	.byte	W84
	.byte		N11	
	.byte	W12
	.byte	W96
	.byte	W84
	.byte		N11	
	.byte	W12
	.byte	W96
	.byte	W84
	.byte		N11	
	.byte	W12
	.byte	W96
	.byte	W84
	.byte		N11	
	.byte	W12
	.byte	W96
	.byte	W84
	.byte		N11	
	.byte	W12
	.byte	W96
	.byte	W84
	.byte		N11	
	.byte	W12
	.byte	W96
	.byte	W84
	.byte		N11	
	.byte	W12
	.byte	W96
	.byte	W84
	.byte		N11	
	.byte	W12
	.byte	W96
	.byte	W84
	.byte		N11	
	.byte	W12
	.byte	W96
	.byte	W84
	.byte		N11	
	.byte	W12
	.byte	W96
	.byte	W84
	.byte		N11	
	.byte	W12
	.byte	W96
	.byte	W84
	.byte		N11	
	.byte	W12
	.byte	W96
	.byte	W84
	.byte		N11	
	.byte	W12
	.byte	W96
	.byte	W84
	.byte		N11	
	.byte	W12
	.byte	W96
	.byte	W84
	.byte		N11	
	.byte	W12
	.byte	W96
	.byte	W84
	.byte		N11	
	.byte	W12
	.byte	W96
	.byte	W84
	.byte		N11	
	.byte	W12
	.byte	W96
	.byte	W84
	.byte		N11	
	.byte	W12
	.byte	W96
	.byte	W84
	.byte		N11	
	.byte	W12
	.byte	W96
	.byte	W84
	.byte		N11	
	.byte	W12
	.byte	W96
	.byte	W84
	.byte		N11	
	.byte	W12
	.byte	W96
	.byte	W84
	.byte		N11	
	.byte	W12
	.byte	GOTO	
		.word	song026_6_1
	.byte	FINE

	@********************** Track  7 **********************@

	.global song026_7
song026_7:	@ 0x08275069
	.byte	KEYSH	, 0
	.byte	VOICE	, 90
	.byte	VOL	, v075
	.byte	PAN	, c_v-4
	.byte	W03
	.byte	W96
	.byte	W96
song026_7_6:
	.byte	W96
	.byte	W96
	.byte	W96
	.byte	W96
	.byte	W96
	.byte	W96
	.byte	W96
song026_7_2:
	.byte		N24	, Gs3, v127
	.byte		N24	, Cn4
	.byte	W36
	.byte			Fs3
	.byte		N24	, As3
	.byte	W36
	.byte			Gs3
	.byte		N24	, Cn4
	.byte	W24
	.byte	PEND
song026_7_3:
	.byte	W12
	.byte		N24	, Fs3, v127
	.byte		N24	, As3
	.byte	W36
	.byte		N12	, Gs3
	.byte		N12	, Cn4
	.byte	W24
	.byte			Fs3
	.byte		N12	, As3
	.byte	W24
	.byte	PEND
song026_7_4:
	.byte		N24	, Gs3, v127
	.byte		N24	, Cs4
	.byte	W36
	.byte			Gs3
	.byte		N24	, Cn4
	.byte	W36
	.byte			Fs3
	.byte		TIE	, As3
	.byte	W24
	.byte	PEND
	.byte		N96	, Fn3
	.byte	W96
	.byte		EOT	, As3
song026_7_1:
	.byte		N24	, Fs3, v127
	.byte		N24	, As3
	.byte	W36
	.byte			Gs3
	.byte		N24	, Cn4
	.byte	W36
	.byte		N12	, As3
	.byte		N12	, Cs4
	.byte	W24
	.byte	PEND
	.byte	PATT	
		.word	song026_7_1
song026_7_5:
	.byte		N24	, Gs3, v127
	.byte		N24	, Cs4
	.byte	W36
	.byte		N60	, Gs3
	.byte		TIE	, Cn4
	.byte	W60
	.byte	PEND
	.byte		N96	, Fs3
	.byte	W96
	.byte		EOT	, Cn4
	.byte	PATT	
		.word	song026_7_2
	.byte	PATT	
		.word	song026_7_3
	.byte	PATT	
		.word	song026_7_4
	.byte		N96	, Fn3, v127
	.byte	W96
	.byte		EOT	, As3
	.byte	PATT	
		.word	song026_7_1
	.byte	PATT	
		.word	song026_7_1
	.byte	PATT	
		.word	song026_7_5
	.byte		N96	, Fs3, v127
	.byte	W96
	.byte		EOT	, Cn4
	.byte	W96
	.byte	W96
	.byte	W96
	.byte	W96
	.byte	W96
	.byte	W96
	.byte	W96
	.byte	W96
	.byte	W96
	.byte	W96
	.byte	W96
	.byte	W96
	.byte	W96
	.byte	W96
	.byte	W96
	.byte	W96
	.byte	W96
	.byte	W96
	.byte	W96
	.byte	W96
	.byte	W96
	.byte	W96
	.byte	W96
	.byte	W96
	.byte	W96
	.byte	W96
	.byte	W96
	.byte	W96
	.byte	W96
	.byte	W96
	.byte	W96
	.byte	W96
	.byte	W96
	.byte	W96
	.byte	W96
	.byte	W96
	.byte	W96
	.byte	W96
	.byte	W96
	.byte	W96
	.byte	W96
	.byte	GOTO	
		.word	song026_7_6
	.byte	FINE

	@********************** Track  8 **********************@

	.global song026_8
song026_8:	@ 0x0827512E
	.byte	KEYSH	, 0
	.byte	VOICE	, 98
	.byte	VOL	, v064
	.byte	PAN	, c_v-44
	.byte	W03
	.byte	W96
	.byte	W96
song026_8_12:
	.byte	W96
	.byte	W96
	.byte	W96
	.byte	W96
	.byte	W96
	.byte	W96
	.byte	W96
	.byte	W96
	.byte	W96
	.byte	W96
	.byte	W96
	.byte	W96
	.byte	W96
	.byte	W96
	.byte	W96
	.byte	W96
	.byte	W96
	.byte	W96
	.byte	W96
	.byte	W96
	.byte	W96
	.byte	W96
	.byte	W96
song026_8_6:
	.byte	W12
	.byte		N03	, Fn2, v100
	.byte	W12
	.byte		N13	, Gn2
	.byte	W12
	.byte		N03	, Fn2
	.byte	W12
	.byte		N19	, As2
	.byte	W18
	.byte		N30	, Gn2
	.byte	W30
	.byte	PEND
song026_8_1:
	.byte	W12
	.byte		N03	, Fn2, v100
	.byte	W12
	.byte		N11	, Gn2
	.byte	W12
	.byte		N04	, Fn2
	.byte	W12
	.byte		N17	, As2
	.byte	W18
	.byte			Cn3
	.byte	W18
	.byte		N22	, Dn3
	.byte	W12
	.byte	PEND
song026_8_7:
	.byte	W12
	.byte		N03	, Fn2, v100
	.byte	W12
	.byte		N11	, Gn2
	.byte	W12
	.byte		N03	, Fn2
	.byte	W12
	.byte		N17	, As2
	.byte	W18
	.byte		N32	, Gn2
	.byte	W30
	.byte	PEND
song026_8_8:
	.byte	W12
	.byte		N03	, Fn2, v100
	.byte	W12
	.byte		N14	, Gn2
	.byte	W12
	.byte		N04	, Fn2
	.byte	W12
	.byte		N18	, Cn3
	.byte	W18
	.byte		N16	, As2
	.byte	W18
	.byte		N15	, Gn2
	.byte	W12
	.byte	PEND
song026_8_9:
	.byte	W12
	.byte		N03	, Fn2, v100
	.byte	W12
	.byte		N12	, Gn2
	.byte	W12
	.byte		N03	, Fn2
	.byte	W12
	.byte		N17	, As2
	.byte	W18
	.byte		N32	, Gn2
	.byte	W30
	.byte	PEND
	.byte	PATT	
		.word	song026_8_1
song026_8_10:
	.byte	W12
	.byte		N03	, Fn2, v100
	.byte	W12
	.byte		N11	, Gn2
	.byte	W12
	.byte		N03	, Fn2
	.byte	W12
	.byte		N19	, As2
	.byte	W18
	.byte		N32	, Gn2
	.byte	W30
	.byte	PEND
song026_8_11:
	.byte	W12
	.byte		N03	, Fn2, v100
	.byte	W12
	.byte		N23	
	.byte	W24
	.byte		N17	, Cn3
	.byte	W18
	.byte		N28	, As2
	.byte	W30
	.byte	PEND
song026_8_2:
	.byte		N11	, Dn3, v124
	.byte	W12
	.byte		N14	, As2, v108
	.byte	W60
	.byte		N11	, Dn3, v124
	.byte	W12
	.byte		N06	, As2, v100
	.byte	W12
	.byte	PEND
song026_8_3:
	.byte		N11	, Cn3, v120
	.byte	W12
	.byte		N14	, An2
	.byte	W84
	.byte	PEND
song026_8_4:
	.byte		N11	, Cn3, v124
	.byte	W12
	.byte		N12	, An2, v120
	.byte	W60
	.byte		N11	, Dn3
	.byte	W12
	.byte		N05	, An2, v108
	.byte	W12
	.byte	PEND
song026_8_5:
	.byte		N11	, As2, v104
	.byte	W12
	.byte		N17	, Gn2, v120
	.byte	W48
	.byte		N03	, Gn2, v112
	.byte	W12
	.byte		N11	, As2, v104
	.byte	W12
	.byte			Cn3, v112
	.byte	W12
	.byte	PEND
	.byte	PATT	
		.word	song026_8_2
	.byte	PATT	
		.word	song026_8_3
	.byte	PATT	
		.word	song026_8_4
	.byte	PATT	
		.word	song026_8_5
	.byte	W96
	.byte	W96
	.byte	W96
	.byte	W96
	.byte	W96
	.byte	W96
	.byte	W96
	.byte	W96
	.byte	PATT	
		.word	song026_8_6
	.byte	PATT	
		.word	song026_8_1
	.byte	PATT	
		.word	song026_8_7
	.byte	PATT	
		.word	song026_8_8
	.byte	PATT	
		.word	song026_8_9
	.byte	PATT	
		.word	song026_8_1
	.byte	PATT	
		.word	song026_8_10
	.byte	PATT	
		.word	song026_8_11
	.byte	PATT	
		.word	song026_8_2
	.byte	PATT	
		.word	song026_8_3
	.byte	PATT	
		.word	song026_8_4
	.byte	PATT	
		.word	song026_8_5
	.byte	PATT	
		.word	song026_8_2
	.byte	PATT	
		.word	song026_8_3
	.byte	PATT	
		.word	song026_8_4
	.byte	PATT	
		.word	song026_8_5
	.byte	W96
	.byte	GOTO	
		.word	song026_8_12
	.byte	FINE

	@********************** Track  9 **********************@

	.global song026_9
song026_9:	@ 0x08275284
	.byte	KEYSH	, 0
	.byte	VOICE	, 0
	.byte	VOL	, v067
	.byte	PAN	, c_v-4
	.byte	W03
	.byte	W96
	.byte	MOD	, 0
	.byte		N36	, Bn4, v100
	.byte	W36
	.byte			As4
	.byte	W36
	.byte			Gs4
	.byte	W24
song026_9_14:
	.byte	W12
	.byte		N36	, Fs4, v100
	.byte	W36
	.byte		N12	, Fn4
	.byte	W24
	.byte			Ds4
	.byte	W12
	.byte			Fn4
	.byte	W12
	.byte	PEND
	.byte		N36	, As3
	.byte	W36
	.byte			Cn4
	.byte	W36
	.byte			Cs4
	.byte	W24
	.byte	W12
	.byte			Ds4
	.byte	W36
	.byte		N12	, Fn4
	.byte	W24
	.byte			As4
	.byte	W24
	.byte		N36	, An4
	.byte	W36
	.byte			Gs4
	.byte	W36
	.byte			Fs4
	.byte	W24
	.byte	W12
	.byte			En4
	.byte	W36
	.byte		N24	, Ds4
	.byte	W24
	.byte			Cs4
	.byte	W23
	.byte		N44	, Gs4
	.byte	W01
	.byte	W48
	.byte		N48	, Fn4
	.byte	W48
	.byte	W01
	.byte		N92	, Gs3
	.byte	W36
	.byte	W01
	.byte	MOD	, 2
	.byte	W07
	.byte		5
	.byte	W04
	.byte		7
	.byte	W05
	.byte		10
	.byte	W07
	.byte		12
	.byte	W32
	.byte	W01
	.byte		8
	.byte	W02
	.byte		1
	.byte	W01
	.byte		0
	.byte	W01
	.byte	W92
	.byte	W02
	.byte	W96
	.byte	W96
	.byte	W96
	.byte	W96
	.byte	W96
	.byte	W96
	.byte	W96
	.byte	W01
	.byte		N24	, Cn5
	.byte	W36
	.byte			As4
	.byte	W36
	.byte			Cn5
	.byte	W23
	.byte	W13
	.byte			As4
	.byte	W36
	.byte		N12	, Cn5
	.byte	W24
	.byte			As4
	.byte	W23
	.byte	W01
	.byte		N24	, Cs5
	.byte	W36
	.byte			Cn5
	.byte	W36
	.byte		TIE	, As4
	.byte	W23
	.byte	W28
	.byte	MOD	, 2
	.byte	W07
	.byte		5
	.byte	W07
	.byte		7
	.byte	W05
	.byte		10
	.byte	W48
	.byte	W01
	.byte		7
	.byte	W01
	.byte		EOT	
	.byte		N24	
	.byte	W03
	.byte	MOD	, 1
	.byte	W01
	.byte		0
	.byte	W32
	.byte		N24	, Cn5
	.byte	W36
	.byte		N12	, Cs5
	.byte	W23
	.byte	W01
	.byte		N24	, As4
	.byte	W36
	.byte			Cn5
	.byte	W36
	.byte		N12	, Cs5
	.byte	W23
	.byte	W01
	.byte		N24	
	.byte	W36
	.byte		TIE	, Cn5
	.byte	W48
	.byte	W03
	.byte	MOD	, 1
	.byte	W08
	.byte	W01
	.byte		3
	.byte	W05
	.byte		6
	.byte	W07
	.byte		8
	.byte	W18
	.byte		11
	.byte	W54
	.byte	W01
	.byte		8
	.byte	W09
	.byte		0
	.byte	W01
	.byte	W01
	.byte		EOT	
	.byte	W48
	.byte	W01
	.byte		N12	, Cs4
	.byte	W12
	.byte		N24	, As3
	.byte	W24
	.byte		N12	, Cs4
	.byte	W10
song026_9_1:
	.byte	W02
	.byte		N24	, Cn4, v100
	.byte	W24
	.byte		N12	, Cs4
	.byte	W12
	.byte		N24	, Cn4
	.byte	W24
	.byte		N72	, Gs3
	.byte	W30
	.byte	W01
	.byte	MOD	, 2
	.byte	W03
	.byte	PEND
song026_9_2:
	.byte	W02
	.byte	MOD	, 5
	.byte	W05
	.byte		7
	.byte	W05
	.byte		10
	.byte	W08
	.byte		12
	.byte	W17
	.byte		8
	.byte	W01
	.byte		N12	, As3, v100
	.byte	W01
	.byte	MOD	, 0
	.byte	W11
	.byte		N12	, Fn4
	.byte	W12
	.byte		N24	, Ds4
	.byte	W24
	.byte		N12	, Cs4
	.byte	W10
	.byte	PEND
song026_9_3:
	.byte	W02
	.byte		N24	, Cn4, v100
	.byte	W24
	.byte		N12	, Cs4
	.byte	W12
	.byte		N24	, Cn4
	.byte	W24
	.byte		N84	, Gs3
	.byte	W30
	.byte	MOD	, 2
	.byte	W04
	.byte	PEND
song026_9_4:
	.byte	W02
	.byte	MOD	, 5
	.byte	W05
	.byte		7
	.byte	W06
	.byte		10
	.byte	W24
	.byte	W03
	.byte		7
	.byte	W02
	.byte		0
	.byte	W08
	.byte		N12	, Cs4, v100
	.byte	W12
	.byte		N24	, As3
	.byte	W24
	.byte		N12	, Cs4
	.byte	W10
	.byte	PEND
	.byte	PATT	
		.word	song026_9_1
song026_9_5:
	.byte	W04
	.byte	MOD	, 5
	.byte	W05
	.byte		7
	.byte	W04
	.byte		10
	.byte	W07
	.byte		12
	.byte	W16
	.byte		10
	.byte	W01
	.byte		1
	.byte	W01
	.byte		N12	, As3, v100
	.byte	W01
	.byte	MOD	, 0
	.byte	W11
	.byte		N12	
	.byte	W12
	.byte		N24	, Fn3
	.byte	W24
	.byte		N12	, As3
	.byte	W10
	.byte	PEND
song026_9_6:
	.byte	W02
	.byte		N24	, Gs3, v100
	.byte	W24
	.byte		N12	, As3
	.byte	W12
	.byte		N24	, Gs3
	.byte	W24
	.byte		N84	, Cs3
	.byte	W30
	.byte	MOD	, 2
	.byte	W04
	.byte	PEND
song026_9_7:
	.byte	W01
	.byte	MOD	, 5
	.byte	W03
	.byte		7
	.byte	W03
	.byte		10
	.byte	W05
	.byte		12
	.byte	W30
	.byte	W01
	.byte		8
	.byte	W02
	.byte		0
	.byte	W05
	.byte		N12	, Cs5, v100
	.byte	W12
	.byte		N24	, As4
	.byte	W24
	.byte		N12	, Cs5
	.byte	W10
	.byte	PEND
song026_9_8:
	.byte	W02
	.byte		N24	, Cn5, v100
	.byte	W24
	.byte		N12	, Cs5
	.byte	W12
	.byte		N24	, Cn5
	.byte	W24
	.byte		N72	, Gs4
	.byte	W30
	.byte	W01
	.byte	MOD	, 2
	.byte	W03
	.byte	PEND
song026_9_9:
	.byte	W01
	.byte	MOD	, 5
	.byte	W03
	.byte		7
	.byte	W03
	.byte		10
	.byte	W05
	.byte		12
	.byte	W03
	.byte		15
	.byte	W17
	.byte		7
	.byte	W02
	.byte		0
	.byte	W04
	.byte		N12	, As4, v100
	.byte	W12
	.byte			Fn5
	.byte	W12
	.byte		N24	, Ds5
	.byte	W24
	.byte		N12	, Cs5
	.byte	W10
	.byte	PEND
song026_9_10:
	.byte	W02
	.byte		N24	, Cn5, v100
	.byte	W24
	.byte		N12	, Cs5
	.byte	W12
	.byte		N24	, Cn5
	.byte	W24
	.byte		N84	, Gs4
	.byte	W30
	.byte	W01
	.byte	MOD	, 2
	.byte	W03
	.byte	PEND
song026_9_11:
	.byte	W02
	.byte	MOD	, 5
	.byte	W05
	.byte		7
	.byte	W05
	.byte		10
	.byte	W24
	.byte		5
	.byte	W01
	.byte		0
	.byte	W13
	.byte		N12	, Cs5, v100
	.byte	W12
	.byte		N24	, As4
	.byte	W24
	.byte		N12	, Cs5
	.byte	W10
	.byte	PEND
song026_9_12:
	.byte	W02
	.byte		N24	, Cn5, v100
	.byte	W24
	.byte		N12	, Cs5
	.byte	W12
	.byte		N24	, Cn5
	.byte	W24
	.byte		N72	, Gs4
	.byte	W28
	.byte	MOD	, 2
	.byte	W06
	.byte	PEND
song026_9_13:
	.byte	W02
	.byte	MOD	, 5
	.byte	W10
	.byte		7
	.byte	W23
	.byte		0
	.byte	W01
	.byte	W02
	.byte		N12	, As4, v100
	.byte	W12
	.byte		N12	
	.byte	W12
	.byte		N24	, Fn4
	.byte	W24
	.byte		N12	, As4
	.byte	W10
	.byte	PEND
	.byte	W02
	.byte		N24	, Gs4
	.byte	W24
	.byte		N12	, As4
	.byte	W12
	.byte		N24	, Gs4
	.byte	W24
	.byte		N06	, Cs4
	.byte	W12
	.byte		N10	
	.byte	W10
	.byte		N11	, Fn4
	.byte	W12
	.byte		TIE	, Ds4
	.byte	W56
	.byte	MOD	, 1
	.byte	W13
	.byte		3
	.byte	W11
	.byte		6
	.byte	W14
	.byte		8
	.byte	W02
	.byte	W56
	.byte	W02
	.byte		5
	.byte	W02
	.byte		EOT	
	.byte	MOD	, 0
	.byte		N12	, Cs4
	.byte	W12
	.byte			Ds4
	.byte	W12
	.byte		TIE	, Fn4
	.byte	W12
	.byte	W88
	.byte	W01
	.byte	MOD	, 1
	.byte	W03
	.byte		3
	.byte	W04
	.byte		6
	.byte	W08
	.byte		8
	.byte	W11
	.byte		11
	.byte	W36
	.byte	W03
	.byte		8
	.byte	W02
	.byte		EOT	
	.byte	MOD	, 2
	.byte		N09	, Cs4
	.byte	W01
	.byte	MOD	, 0
	.byte	W11
	.byte		N12	
	.byte	W12
	.byte			Fn4
	.byte	W12
	.byte		TIE	, En4
	.byte	W80
	.byte	W01
	.byte	MOD	, 2
	.byte	W07
	.byte		5
	.byte	W04
	.byte		7
	.byte	W04
	.byte	W06
	.byte		10
	.byte	W52
	.byte		5
	.byte	W02
	.byte		EOT	
	.byte	MOD	, 0
	.byte		N12	, Cs4
	.byte	W12
	.byte			En4
	.byte	W12
	.byte		N96	, Ds4
	.byte	W12
	.byte	W30
	.byte	MOD	, 2
	.byte	W05
	.byte		5
	.byte	W05
	.byte		7
	.byte	W06
	.byte		10
	.byte	W13
	.byte		12
	.byte	W22
	.byte		8
	.byte	W02
	.byte		0
	.byte	W01
	.byte		N08	, Fn4
	.byte	W12
	.byte	W12
	.byte		N12	
	.byte	W12
	.byte		N11	, Fs4
	.byte	W12
	.byte		N12	, Fn4
	.byte	W12
	.byte			Gs4
	.byte	W12
	.byte		N08	, Fn4
	.byte	W12
	.byte		N12	
	.byte	W12
	.byte			Cs4
	.byte	W12
	.byte	W48
	.byte	W02
	.byte		N12	
	.byte	W12
	.byte		N24	, As3
	.byte	W24
	.byte		N12	, Cs4
	.byte	W10
	.byte	PATT	
		.word	song026_9_1
	.byte	PATT	
		.word	song026_9_2
	.byte	PATT	
		.word	song026_9_3
	.byte	PATT	
		.word	song026_9_4
	.byte	PATT	
		.word	song026_9_1
	.byte	PATT	
		.word	song026_9_5
	.byte	PATT	
		.word	song026_9_6
	.byte	PATT	
		.word	song026_9_7
	.byte	PATT	
		.word	song026_9_8
	.byte	PATT	
		.word	song026_9_9
	.byte	PATT	
		.word	song026_9_10
	.byte	PATT	
		.word	song026_9_11
	.byte	PATT	
		.word	song026_9_12
	.byte	PATT	
		.word	song026_9_13
	.byte	W02
	.byte		N24	, Gs4, v100
	.byte	W24
	.byte		N12	, As4
	.byte	W12
	.byte		N24	, Gs4
	.byte	W24
	.byte		N06	, Cs4
	.byte	W12
	.byte		N10	, Gs4
	.byte	W10
	.byte		N11	, As4
	.byte	W12
	.byte		N36	, Bn4
	.byte	W36
	.byte			As4
	.byte	W36
	.byte			Gs4
	.byte	W24
	.byte	GOTO	
		.word	song026_9_14
	.byte	PATT	
		.word	song026_9_14
	.byte	FINE

	@********************** Track  10 **********************@

	.global song026_10
song026_10:	@ 0x08275577
	.byte	KEYSH	, 0
	.byte	VOICE	, 82
	.byte	VOL	, v070
	.byte	PAN	, c_v+16
	.byte	W03
song026_10_1:
	.byte		N06	, En2, v064
	.byte		N06	, As2
	.byte		N06	, Ds3
	.byte	W18
	.byte			En2
	.byte		N06	, As2
	.byte		N06	, Ds3
	.byte	W16
	.byte			As2
	.byte		N06	, Ds3
	.byte	W01
	.byte			En2
	.byte	W11
	.byte			As2
	.byte		N06	, Ds3
	.byte	W01
	.byte			En2
	.byte	W17
	.byte			As2
	.byte		N06	, Ds3
	.byte	W01
	.byte			En2
	.byte	W17
	.byte			As2
	.byte		N06	, Ds3
	.byte	W01
	.byte			En2
	.byte	W13
	.byte	PEND
song026_10_9:
	.byte		N32	, Bn2, v112
	.byte		N32	, Fs3, v100
	.byte	W36
	.byte			As2
	.byte		N32	, Fn3
	.byte	W36
	.byte			Gs2
	.byte		N32	, Ds3
	.byte	W24
	.byte	PEND
song026_10_10:
	.byte	W12
	.byte		N32	, Fs2, v104
	.byte		N32	, Cs3
	.byte	W36
	.byte		N22	, Fn2, v100
	.byte		N22	, Cn3
	.byte	W24
	.byte		N23	, Fn2
	.byte	W24
	.byte	PEND
song026_10_11:
	.byte		N32	, Fn2, v100
	.byte		N32	, As2, v108
	.byte	W36
	.byte			Gn2, v100
	.byte		N32	, Cn3, v112
	.byte	W36
	.byte		N23	, Gs2
	.byte		N23	, Cs3, v100
	.byte	W24
	.byte	PEND
song026_10_12:
	.byte	W12
	.byte		N32	, Ds3, v104
	.byte	W01
	.byte			As2, v100
	.byte	W32
	.byte	W03
	.byte		N24	, Cs3
	.byte		N22	, Fn3, v112
	.byte	W24
	.byte		N23	, Fn3, v100
	.byte		N23	, As3, v112
	.byte	W24
	.byte	PEND
song026_10_13:
	.byte		N32	, En3, v100
	.byte		N32	, An3, v112
	.byte	W36
	.byte			Ds3, v100
	.byte		N32	, Gs3, v112
	.byte	W36
	.byte			Cs3
	.byte		N32	, Fs3, v100
	.byte	W24
	.byte	PEND
song026_10_14:
	.byte	W12
	.byte		N32	, Bn2, v104
	.byte		N32	, En3, v112
	.byte	W36
	.byte		N22	, As2
	.byte		N22	, Ds3, v100
	.byte	W24
	.byte		N24	, Gs2, v112
	.byte		N24	, Cs3, v100
	.byte	W24
	.byte	PEND
song026_10_15:
	.byte		N44	, Fn3, v108
	.byte		N44	, Gs3
	.byte	W44
	.byte	W03
	.byte		N48	, Cn3, v112
	.byte		N48	, Fn3
	.byte	W48
	.byte	W01
	.byte	PEND
	.byte		N92	, Gs2, v104
	.byte	W96
song026_10_2:
	.byte		N06	, Fs2, v108
	.byte		N06	, Cs3, v120
	.byte		N06	, Fn3, v108
	.byte	W18
	.byte			Fs2, v100
	.byte		N06	, Cs3, v112
	.byte		N06	, Fn3, v100
	.byte	W18
	.byte			Fs2, v088
	.byte		N06	, Cs3, v100
	.byte		N06	, Fn3, v088
	.byte	W10
	.byte			Fs2, v084
	.byte		N06	, Fn3
	.byte	W01
	.byte			Cs3, v096
	.byte	W17
	.byte			Fs2, v072
	.byte		N06	, Fn3
	.byte	W01
	.byte			Cs3, v084
	.byte	W17
	.byte			Fs2, v064
	.byte		N06	, Fn3
	.byte	W01
	.byte			Cs3, v076
	.byte	W13
	.byte	PEND
song026_10_3:
	.byte		N06	, Fs2, v064
	.byte		N06	, Cs3
	.byte		N06	, Ds3
	.byte	W16
	.byte			Fs2
	.byte		N06	, Ds3
	.byte	W01
	.byte			Cs3
	.byte	W17
	.byte			Fs2
	.byte		N06	, Ds3
	.byte	W01
	.byte			Cs3
	.byte	W11
	.byte			Fs2
	.byte		N06	, Ds3
	.byte	W01
	.byte			Cs3
	.byte	W17
	.byte			Fs2
	.byte		N06	, Ds3
	.byte	W01
	.byte			Cs3
	.byte	W17
	.byte			Fs2
	.byte		N06	, Ds3
	.byte	W01
	.byte			Cs3
	.byte	W13
	.byte	PEND
song026_10_4:
	.byte		N06	, Fn2, v108
	.byte		N06	, Gs2, v120
	.byte		N06	, Ds3, v108
	.byte	W16
	.byte			Fn2, v104
	.byte		N06	, Ds3
	.byte	W01
	.byte			Gs2, v116
	.byte	W17
	.byte			Fn2, v092
	.byte		N06	, Ds3
	.byte	W01
	.byte			Gs2, v104
	.byte	W11
	.byte			Fn2, v084
	.byte		N06	, Ds3
	.byte	W01
	.byte			Gs2, v096
	.byte	W19
	.byte			Fn2, v068
	.byte		N06	, Gs2, v080
	.byte		N06	, Ds3, v068
	.byte	W18
	.byte			Fn2, v064
	.byte		N06	, Gs2, v072
	.byte		N06	, Ds3, v064
	.byte	W12
	.byte	PEND
	.byte	PATT	
		.word	song026_10_1
	.byte	PATT	
		.word	song026_10_2
	.byte	PATT	
		.word	song026_10_3
	.byte	PATT	
		.word	song026_10_4
	.byte		N06	, Fs2, v064
	.byte		N06	, Cs3
	.byte		N06	, Fn3
	.byte	W18
	.byte			Fs2
	.byte		N06	, Cs3
	.byte		N06	, Fn3
	.byte	W16
	.byte			Cs3
	.byte		N06	, Fn3
	.byte	W01
	.byte			Fs2
	.byte	W11
	.byte			Cs3
	.byte		N06	, Fn3
	.byte	W01
	.byte			Fs2
	.byte	W17
	.byte			Cs3
	.byte		N06	, Fn3
	.byte	W01
	.byte			Fs2
	.byte	W17
	.byte			Cs3
	.byte		N06	, Fn3
	.byte	W01
	.byte			Fs2
	.byte	W13
song026_10_5:
	.byte		N92	, Cs3, v112
	.byte		N92	, Fn3, v100
	.byte	W92
	.byte	W03
	.byte		N90	, Ds3, v104
	.byte	W01
	.byte	PEND
	.byte			As2, v112
	.byte	W96
	.byte		N44	, Fn3, v108
	.byte		N44	, Gs3, v100
	.byte	W44
	.byte	W03
	.byte		N48	, Cn3, v112
	.byte	W01
	.byte			Fn3, v100
	.byte	W48
song026_10_6:
	.byte		N92	, Gs2, v104
	.byte	W01
	.byte			Cs3, v100
	.byte	W92
	.byte	W03
	.byte	PEND
	.byte			Cs3, v112
	.byte		N92	, Fs3, v100
	.byte	W92
	.byte	W03
	.byte		N90	, Ds3, v104
	.byte	W01
song026_10_7:
	.byte		N90	, Cs3, v112
	.byte	W92
	.byte	W03
	.byte		N44	, Gs3, v100
	.byte	W01
	.byte	PEND
	.byte			Cs3, v116
	.byte	W44
	.byte	W03
	.byte		N48	, Cn3
	.byte	W01
	.byte			Fn3, v100
	.byte	W48
	.byte		N92	, Fs2, v104
	.byte	W01
	.byte			Cs3, v100
	.byte	W92
	.byte	W02
	.byte			As2, v127
	.byte	W01
	.byte			Fn2, v112
	.byte	W96
song026_10_16:
	.byte	W56
	.byte	W03
	.byte		N06	, En2, v127
	.byte	W07
	.byte		N04	, Fn2
	.byte	W05
	.byte		N05	, Gs2
	.byte	W07
	.byte		N04	, As2
	.byte	W05
	.byte		N08	, Cs3
	.byte	W12
	.byte		N10	, Gs2, v120
	.byte		N12	, Cs3, v127
	.byte	W01
	.byte	PEND
song026_10_17:
	.byte	W12
	.byte		N80	, Fs2, v127
	.byte		N80	, Ds3
	.byte	W84
	.byte	PEND
song026_10_18:
	.byte	W56
	.byte	W03
	.byte		N06	, Ds3, v127
	.byte	W07
	.byte			En3
	.byte	W06
	.byte			Ds3
	.byte	W06
	.byte		N05	, Cs3
	.byte	W06
	.byte			Gs2
	.byte	W11
	.byte		N80	, As2
	.byte	W01
	.byte	PEND
song026_10_19:
	.byte		N80	, Fn2, v112
	.byte	W80
	.byte	W03
	.byte		N05	, Ds3, v127
	.byte	W07
	.byte		N04	, Dn3
	.byte	W05
	.byte		N60	, Cn3
	.byte	W01
	.byte	PEND
song026_10_20:
	.byte		N56	, Fn2, v112
	.byte	W60
	.byte	W01
	.byte		N05	, Cn3, v127
	.byte	W05
	.byte			Cs3
	.byte	W05
	.byte		N06	, Cn3
	.byte	W07
	.byte		N04	, Bn2
	.byte	W05
	.byte		N06	, Fn2
	.byte	W12
	.byte		N80	, As2
	.byte	W01
	.byte	PEND
song026_10_21:
	.byte		N80	, Fn2, v120
	.byte	W84
	.byte	W01
	.byte		N05	, Fn2, v127
	.byte	W05
	.byte			En2
	.byte	W05
	.byte		N11	, Cs2
	.byte	W01
	.byte	PEND
song026_10_22:
	.byte	W11
	.byte		N11	, Ds2, v127
	.byte	W12
	.byte			Fn2
	.byte	W12
	.byte			Gs2
	.byte	W12
	.byte			Cs3
	.byte	W12
	.byte			Gs2
	.byte		N11	, Ds3
	.byte	W36
	.byte	W01
	.byte	PEND
	.byte	PATT	
		.word	song026_10_5
song026_10_23:
	.byte		N90	, Gs2, v112
	.byte	W92
	.byte	W03
	.byte		N44	, Gs3, v100
	.byte	W01
	.byte	PEND
song026_10_8:
	.byte		N44	, Fn3, v108
	.byte	W44
	.byte	W03
	.byte		N48	, Cn3, v112
	.byte	W01
	.byte			Fn3, v100
	.byte	W48
	.byte	PEND
	.byte	PATT	
		.word	song026_10_6
	.byte	PATT	
		.word	song026_10_5
	.byte	PATT	
		.word	song026_10_7
	.byte	PATT	
		.word	song026_10_8
song026_10_24:
	.byte		N92	, Fs3, v104
	.byte	W01
	.byte			As2, v100
	.byte	W92
	.byte	W03
	.byte	PEND
	.byte	PATT	
		.word	song026_10_9
	.byte	PATT	
		.word	song026_10_10
	.byte	PATT	
		.word	song026_10_11
	.byte	PATT	
		.word	song026_10_12
	.byte	PATT	
		.word	song026_10_13
	.byte	PATT	
		.word	song026_10_14
	.byte	PATT	
		.word	song026_10_15
	.byte		N92	, Gs2, v104
	.byte	W92
	.byte	W03
	.byte			As2, v127
	.byte	W01
	.byte			Fn2, v112
	.byte	W96
	.byte	PATT	
		.word	song026_10_16
	.byte	PATT	
		.word	song026_10_17
	.byte	PATT	
		.word	song026_10_18
	.byte	PATT	
		.word	song026_10_19
	.byte	PATT	
		.word	song026_10_20
	.byte	PATT	
		.word	song026_10_21
	.byte	PATT	
		.word	song026_10_22
	.byte	PATT	
		.word	song026_10_5
	.byte	PATT	
		.word	song026_10_23
	.byte	PATT	
		.word	song026_10_8
	.byte	PATT	
		.word	song026_10_6
	.byte	PATT	
		.word	song026_10_5
	.byte	PATT	
		.word	song026_10_7
	.byte	PATT	
		.word	song026_10_8
	.byte	PATT	
		.word	song026_10_24
	.byte	PATT	
		.word	song026_10_9
	.byte	GOTO	
		.word	song026_10_10
	.byte	W12
	.byte		N32	, Fs2, v104
	.byte		N32	, Cs3
	.byte	W36
	.byte		N22	, Fn2, v100
	.byte		N22	, Cn3
	.byte	W24
	.byte		N23	, Fn2
	.byte	W23
	.byte	FINE

	@********************** Track  11 **********************@

	.global song026_11
song026_11:	@ 0x08275899
	.byte	KEYSH	, 0
	.byte	VOICE	, 120
	.byte	VOL	, v070
	.byte	PAN	, c_v+26
	.byte	W03
	.byte	W96
song026_11_3:
	.byte		N36	, An4, v120
	.byte	W36
	.byte			Gs4
	.byte	W36
	.byte			Fs4
	.byte	W24
	.byte	PEND
song026_11_4:
	.byte	W12
	.byte		N36	, En4, v120
	.byte	W36
	.byte		N12	, Ds4
	.byte	W24
	.byte			Cs4
	.byte	W12
	.byte			Ds4
	.byte	W12
	.byte	PEND
song026_11_5:
	.byte		N36	, Gs3, v120
	.byte	W36
	.byte			As3
	.byte	W36
	.byte			Bn3
	.byte	W24
	.byte	PEND
song026_11_6:
	.byte	W12
	.byte		N36	, Cs4, v120
	.byte	W36
	.byte		N12	, Ds4
	.byte	W24
	.byte			Gs4
	.byte	W24
	.byte	PEND
song026_11_7:
	.byte		N36	, Gn4, v120
	.byte	W36
	.byte			Fs4
	.byte	W36
	.byte			En4
	.byte	W24
	.byte	PEND
song026_11_8:
	.byte	W12
	.byte		N36	, Dn4, v120
	.byte	W36
	.byte		N24	, Cs4
	.byte	W24
	.byte			Bn3
	.byte	W23
	.byte		N44	, Fs4
	.byte	W01
	.byte	PEND
	.byte	W48
	.byte		N48	, Ds4
	.byte	W48
song026_11_1:
	.byte	W01
	.byte		N92	, Bn3, v120
	.byte	W92
	.byte	W03
	.byte	PEND
	.byte	W96
	.byte	W96
	.byte	W96
	.byte	W96
	.byte	W96
	.byte	W96
	.byte	W96
	.byte	W96
	.byte			Ds4
	.byte	W92
	.byte	W03
	.byte		N90	, Cs4
	.byte	W01
song026_11_2:
	.byte	W92
	.byte	W03
	.byte		N44	, Fs4, v120
	.byte	W01
	.byte	PEND
	.byte	W48
	.byte		N48	, Ds4
	.byte	W48
	.byte	PATT	
		.word	song026_11_1
	.byte		N92	, En4, v120
	.byte	W92
	.byte	W03
	.byte		N90	, Cs4
	.byte	W01
	.byte	PATT	
		.word	song026_11_2
	.byte	W48
	.byte		N48	, Ds4, v120
	.byte	W48
	.byte	PATT	
		.word	song026_11_1
	.byte	W96
	.byte	W96
	.byte	W96
	.byte	W96
	.byte	W96
	.byte	W96
	.byte	W96
	.byte	W96
	.byte	W96
	.byte	W96
	.byte	W96
	.byte	W96
	.byte	W96
	.byte	W96
	.byte	W96
	.byte	W96
	.byte	PATT	
		.word	song026_11_3
	.byte	PATT	
		.word	song026_11_4
	.byte	PATT	
		.word	song026_11_5
	.byte	PATT	
		.word	song026_11_6
	.byte	PATT	
		.word	song026_11_7
	.byte	PATT	
		.word	song026_11_8
	.byte	W48
	.byte		N48	, Ds4, v120
	.byte	W48
	.byte	PATT	
		.word	song026_11_1
	.byte	W96
	.byte	W96
	.byte	W96
	.byte	W96
	.byte	W96
	.byte	W96
	.byte	W96
	.byte	W96
	.byte	W96
	.byte	W96
	.byte	W96
	.byte	W96
	.byte	W96
	.byte	W96
	.byte	W96
	.byte	W96
	.byte	PATT	
		.word	song026_11_3
	.byte	GOTO	
		.word	song026_11_4
	.byte	PATT	
		.word	song026_11_4
	.byte	FINE

	@********************** Track  12 **********************@

	.global song026_12
song026_12:	@ 0x0827597C
	.byte	KEYSH	, 0
	.byte	VOICE	, 108
	.byte	VOL	, v070
	.byte	PAN	, c_v+36
	.byte	W03
	.byte	W96
song026_12_5:
	.byte		N36	, Fs4, v127
	.byte	W36
	.byte			Fn4
	.byte	W36
	.byte			Ds4
	.byte	W24
	.byte	PEND
song026_12_6:
	.byte	W12
	.byte		N36	, Cs4, v127
	.byte	W36
	.byte		N12	, Cn4
	.byte	W24
	.byte			As3
	.byte	W12
	.byte			Cn4
	.byte	W12
	.byte	PEND
song026_12_7:
	.byte		N36	, As3, v127
	.byte	W36
	.byte			Cn4
	.byte	W36
	.byte			Cs4
	.byte	W24
	.byte	PEND
song026_12_8:
	.byte	W12
	.byte		N36	, Ds4, v127
	.byte	W36
	.byte		N12	, Fn4
	.byte	W24
	.byte			As4
	.byte	W24
	.byte	PEND
song026_12_9:
	.byte		N36	, An4, v127
	.byte	W36
	.byte			Gs4
	.byte	W36
	.byte			Fs4
	.byte	W24
	.byte	PEND
song026_12_10:
	.byte	W12
	.byte		N36	, En4, v127
	.byte	W36
	.byte		N24	, Ds4
	.byte	W24
	.byte			Cs4
	.byte	W23
	.byte		N44	, Ds4, v100
	.byte	W01
	.byte	PEND
	.byte	W48
	.byte		N48	, Cn4
	.byte	W48
song026_12_11:
	.byte	W01
	.byte		N92	, Gs3, v100
	.byte	W92
	.byte	W03
	.byte	PEND
	.byte	W96
	.byte	W96
	.byte	W96
	.byte	W96
	.byte	W96
	.byte	W96
	.byte	W96
	.byte	W96
	.byte	W96
	.byte	W96
	.byte	W96
	.byte	W96
	.byte	W96
	.byte	W96
	.byte	W96
	.byte	W96
	.byte	W96
	.byte	W96
	.byte	W96
	.byte	W96
	.byte	W96
	.byte	W96
	.byte	W96
	.byte	W96
song026_12_1:
	.byte		N11	, Fn4, v124
	.byte	W12
	.byte		N14	, Cs4, v108
	.byte	W60
	.byte		N11	, Fn4, v124
	.byte	W12
	.byte		N06	, Cs4, v100
	.byte	W12
	.byte	PEND
song026_12_2:
	.byte		N11	, Ds4, v120
	.byte	W12
	.byte		N14	, Cn4
	.byte	W84
	.byte	PEND
song026_12_3:
	.byte		N11	, Ds4, v124
	.byte	W12
	.byte		N12	, Cn4, v120
	.byte	W60
	.byte		N11	, Fn4
	.byte	W12
	.byte		N05	, Cn4, v108
	.byte	W12
	.byte	PEND
song026_12_4:
	.byte		N11	, Cs4, v104
	.byte	W12
	.byte		N17	, As3, v120
	.byte	W48
	.byte		N03	, As3, v112
	.byte	W12
	.byte		N11	, Cs4, v104
	.byte	W12
	.byte			Ds4, v112
	.byte	W12
	.byte	PEND
	.byte	PATT	
		.word	song026_12_1
	.byte	PATT	
		.word	song026_12_2
	.byte	PATT	
		.word	song026_12_3
	.byte	PATT	
		.word	song026_12_4
	.byte	PATT	
		.word	song026_12_5
	.byte	PATT	
		.word	song026_12_6
	.byte	PATT	
		.word	song026_12_7
	.byte	PATT	
		.word	song026_12_8
	.byte	PATT	
		.word	song026_12_9
	.byte	PATT	
		.word	song026_12_10
	.byte	W48
	.byte		N48	, Cn4, v100
	.byte	W48
	.byte	PATT	
		.word	song026_12_11
	.byte	W96
	.byte	W96
	.byte	W96
	.byte	W96
	.byte	W96
	.byte	W96
	.byte	W96
	.byte	W96
	.byte	PATT	
		.word	song026_12_1
	.byte	PATT	
		.word	song026_12_2
	.byte	PATT	
		.word	song026_12_3
	.byte	PATT	
		.word	song026_12_4
	.byte	PATT	
		.word	song026_12_1
	.byte	PATT	
		.word	song026_12_2
	.byte	PATT	
		.word	song026_12_3
	.byte	PATT	
		.word	song026_12_4
	.byte	PATT	
		.word	song026_12_5
	.byte	GOTO	
		.word	song026_12_6
	.byte	PATT	
		.word	song026_12_6
	.byte	FINE

	.align 2
	.global song026
song026:	@ 0x08275AA4
	.byte	12		@ trackCount
	.byte	0		@ blockCount
	.byte	20		@ priority
	.byte	128		@ reverb

	.word	voicegroup008		@ voicegroup/tone

	.word	song026_1		@ track
	.word	song026_2		@ track
	.word	song026_3		@ track
	.word	song026_4		@ track
	.word	song026_5		@ track
	.word	song026_6		@ track
	.word	song026_7		@ track
	.word	song026_8		@ track
	.word	song026_9		@ track
	.word	song026_10		@ track
	.word	song026_11		@ track
	.word	song026_12		@ track
